<svg width="137" height="180" viewBox="0 0 137 180" fill="none" xmlns="http://www.w3.org/2000/svg">
<path fill-rule="evenodd" clip-rule="evenodd" d="M37.5208 60.0585C38.1792 60.0817 38.8625 60.161 39.2931 60.2272L39.2941 60.2274L118.391 72.6652C118.493 72.6812 118.581 72.7447 118.628 72.8363C118.675 72.9278 118.676 73.0364 118.63 73.1285C118.316 73.7561 117.943 74.7395 117.835 75.6457C117.725 76.5771 117.906 77.2642 118.485 77.5539C119.35 77.9865 119.911 78.7527 120.261 79.5039C120.573 80.1737 120.73 80.8561 120.785 81.3427C121.016 81.4883 121.304 81.6996 121.555 81.9462C121.709 82.0976 121.857 82.2698 121.967 82.4558C122.077 82.6405 122.162 82.8567 122.162 83.0898C122.162 83.6771 121.96 84.1979 121.803 84.4885C121.963 84.9832 122.173 85.6979 122.333 86.3941C122.421 86.7766 122.495 87.1588 122.538 87.4987C122.579 87.8302 122.594 88.1526 122.544 88.4004C122.391 89.1676 121.988 90.3405 121.782 90.8984C121.844 91.3397 121.895 91.9988 121.86 92.6539C121.842 93.0034 121.798 93.3596 121.716 93.6848C121.634 94.0071 121.509 94.3192 121.314 94.5633C120.754 95.2629 120.369 95.906 120.218 96.1897C120.214 96.7225 120.173 97.5225 120.059 98.2954C120 98.7015 119.919 99.1069 119.811 99.4652C119.705 99.8179 119.564 100.152 119.37 100.394C118.793 101.115 118.398 101.665 118.248 101.885C118.181 102.115 118.08 102.445 117.975 102.743C117.918 102.903 117.859 103.058 117.803 103.187C117.775 103.251 117.745 103.312 117.715 103.366C117.693 103.405 117.664 103.454 117.626 103.498C117.625 103.501 117.624 103.503 117.623 103.506C117.611 103.534 117.595 103.577 117.574 103.636C117.539 103.741 117.496 103.879 117.444 104.044L117.422 104.114C117.301 104.503 117.139 105.012 116.94 105.51C116.742 106.005 116.498 106.513 116.202 106.89C115.913 107.257 115.507 107.581 114.991 107.508C114.609 107.453 114.174 107.692 113.742 108.133C113.324 108.56 112.983 109.103 112.799 109.47C112.787 109.494 112.773 109.516 112.756 109.536L111.68 110.791C111.698 111.039 111.681 111.36 111.574 111.649C111.508 111.828 111.4 112.011 111.228 112.149C111.052 112.291 110.829 112.369 110.567 112.369H108.687C108.604 112.696 108.47 113.111 108.285 113.513C108.052 114.02 107.71 114.565 107.235 114.85C107.116 114.921 106.981 115.011 106.83 115.111C105.802 115.794 104.019 116.977 101.179 116.445C100.805 116.375 100.422 116.235 100.036 116.042L89.6644 112.351C89.6588 112.349 89.6533 112.347 89.6479 112.344L75.2701 106.321L33.1016 89.8037C33.076 89.7936 33.0518 89.7804 33.0295 89.7642L30.8918 88.2095C30.8668 88.1914 30.8446 88.1697 30.8257 88.1453C30.1774 87.3024 28.6912 85.3898 27.9185 84.4626C27.687 84.1849 27.4649 83.7158 27.258 83.1801C27.0468 82.6331 26.8373 81.9782 26.6417 81.299C26.2511 79.9432 25.9097 78.4713 25.714 77.5259C25.3871 76.2155 24.8071 72.9996 25.1258 70.6094C25.2959 69.3332 26.1053 68.28 27.0014 67.4942C27.8308 66.767 28.7661 66.2406 29.4374 65.9507C29.5725 65.2388 29.7871 63.8998 29.7871 63.0728C29.7871 62.8048 29.932 62.5844 30.1009 62.4165C30.2721 62.2462 30.5032 62.0938 30.7587 61.9564C31.2716 61.6808 31.9505 61.4306 32.6347 61.2107C33.2486 61.0134 33.8817 60.8357 34.4236 60.6837C34.4884 60.6655 34.5518 60.6477 34.6138 60.6303C34.9057 60.5482 35.1629 60.4749 35.3707 60.4103C35.5848 60.3438 35.7251 60.2929 35.7958 60.2575C36.0071 60.1519 36.2884 60.1009 36.5712 60.0754C36.8626 60.049 37.1918 60.0469 37.5208 60.0585ZM101.323 115.815L100.29 115.447C99.8637 115.231 99.4158 114.935 98.9563 114.577C98.1228 113.927 97.2802 113.097 96.4969 112.242C95.3529 110.992 94.3634 109.72 93.7124 108.884C93.4668 108.568 93.2694 108.315 93.1301 108.147C92.8428 107.803 92.4644 107.584 92.1175 107.408C92.023 107.359 91.9321 107.315 91.8447 107.272C91.5934 107.149 91.3712 107.04 91.1739 106.9C90.9254 106.724 90.7545 106.522 90.6811 106.227C90.6046 105.918 90.6231 105.463 90.8562 104.764C91.648 102.388 91.8445 99.6954 91.8445 98.6371C91.8445 98.6107 91.8413 98.5844 91.8349 98.5588L91.2652 96.28C91.3639 95.2216 91.5837 93.6479 91.9269 92.2986C92.1018 91.6107 92.3052 90.9963 92.5335 90.5413C92.6477 90.3138 92.7625 90.1375 92.8747 90.0137C92.9876 89.889 93.0823 89.8344 93.1547 89.8163C93.9915 89.6071 94.9102 89.0924 95.6685 88.4352C96.4238 87.7807 97.0598 86.9499 97.2764 86.0832C97.4063 85.5639 97.4766 85.1261 97.5352 84.7617C97.5644 84.5801 97.5907 84.4167 97.6199 84.2706C97.7099 83.8207 97.8411 83.4239 98.2036 82.8802C98.5845 82.3088 98.9034 81.9022 99.377 81.5188C99.8556 81.1314 100.507 80.756 101.567 80.2743C102.704 79.7574 103.228 79.128 103.675 78.5815L103.685 78.5697C104.115 78.0441 104.454 77.6295 105.228 77.3715C106.568 76.9246 108.164 76.9356 108.786 76.9978C108.943 77.0135 109.088 76.9136 109.129 76.7615C109.215 76.4476 109.435 75.9616 109.808 75.56C110.175 75.1641 110.677 74.8617 111.344 74.8617H114.843C114.888 74.8617 114.932 74.8522 114.974 74.8338L117.709 73.6183C117.481 74.2045 117.274 74.8988 117.194 75.5697C117.078 76.5494 117.221 77.6437 118.196 78.1314C118.886 78.4761 119.362 79.1027 119.676 79.7766C119.99 80.4502 120.127 81.14 120.156 81.5581C120.164 81.6655 120.225 81.762 120.318 81.8154C120.527 81.9344 120.843 82.1517 121.102 82.4067C121.232 82.5338 121.339 82.6628 121.413 82.7862C121.487 82.9108 121.516 83.012 121.516 83.0898C121.516 83.6336 121.285 84.1165 121.182 84.2711C121.126 84.354 121.112 84.4578 121.144 84.5523C121.303 85.0308 121.534 85.798 121.704 86.5389C121.789 86.9095 121.858 87.2682 121.897 87.5781C121.936 87.8965 121.939 88.1328 121.911 88.2737C121.761 89.0231 121.342 90.2325 121.148 90.7501C121.129 90.8019 121.123 90.8579 121.131 90.9126C121.193 91.316 121.25 91.9737 121.215 92.6197C121.198 92.9424 121.159 93.2542 121.09 93.5262C121.02 93.8011 120.925 94.0153 120.809 94.1599C120.174 94.9545 119.747 95.6862 119.607 95.9663C119.584 96.0111 119.573 96.0606 119.573 96.1107C119.573 96.6166 119.534 97.4265 119.421 98.2015C119.364 98.589 119.289 98.9609 119.193 99.2787C119.095 99.6022 118.983 99.8434 118.866 99.9902C118.24 100.773 117.819 101.364 117.683 101.567C117.665 101.595 117.651 101.626 117.642 101.658C117.578 101.88 117.473 102.224 117.366 102.528C117.312 102.681 117.259 102.82 117.212 102.926C117.188 102.98 117.168 103.021 117.152 103.051C117.142 103.069 117.136 103.077 117.134 103.08C117.1 103.116 117.078 103.154 117.067 103.174C117.052 103.2 117.04 103.227 117.029 103.252C117.007 103.303 116.985 103.363 116.963 103.428C116.919 103.557 116.866 103.73 116.806 103.922C116.684 104.31 116.53 104.798 116.341 105.271C116.15 105.748 115.932 106.187 115.694 106.491C115.448 106.803 115.247 106.892 115.083 106.869C114.377 106.768 113.743 107.209 113.281 107.681C112.818 108.154 112.449 108.736 112.24 109.145L111.099 110.476C111.039 110.547 111.012 110.64 111.025 110.732C111.053 110.927 111.049 111.208 110.969 111.424C110.93 111.528 110.88 111.601 110.823 111.646C110.771 111.689 110.694 111.724 110.567 111.724H108.429C108.275 111.724 108.143 111.832 108.113 111.983C108.052 112.286 107.914 112.777 107.699 113.243C107.479 113.721 107.205 114.115 106.903 114.296C106.768 114.377 106.621 114.474 106.462 114.579C105.435 115.256 103.875 116.285 101.323 115.815ZM117.21 73.1332L39.1949 60.8654C39.1947 60.8653 39.195 60.8654 39.1949 60.8654C38.7832 60.802 38.1254 60.7258 37.4981 60.7037C37.1841 60.6926 36.8842 60.6954 36.6294 60.7184C36.366 60.7422 36.1842 60.7852 36.0845 60.835C35.9608 60.8969 35.7732 60.9613 35.5623 61.0269C35.3449 61.0944 35.0798 61.1699 34.7887 61.2518C34.7263 61.2693 34.6627 61.2872 34.598 61.3053C34.0549 61.4577 33.4338 61.632 32.8323 61.8254C32.1562 62.0427 31.5233 62.2784 31.0644 62.5251C30.8341 62.6489 30.6644 62.7667 30.5562 62.8743C30.4457 62.9842 30.4328 63.0492 30.4328 63.0728C30.4328 64.0407 30.1675 65.5973 30.0378 66.2455C30.0164 66.3525 29.9424 66.4415 29.8412 66.482C29.2224 66.7295 28.2639 67.2459 27.4271 67.9797C26.5871 68.7163 25.9065 69.6388 25.7658 70.6947C25.4631 72.9648 26.0207 76.0908 26.342 77.3757C26.343 77.38 26.344 77.3843 26.3449 77.3886C26.538 78.3221 26.8763 79.7811 27.2621 81.1203C27.4551 81.7902 27.6586 82.4252 27.8604 82.9475C28.0664 83.4811 28.2573 83.8606 28.4145 84.0493C29.1853 84.9743 30.6475 86.8552 31.3091 87.7147L33.3757 89.2176L75.5161 105.724L89.8892 111.745L98.0123 114.637C97.3255 114.046 96.6498 113.365 96.0206 112.678C94.8565 111.406 93.823 110.078 93.1735 109.244C92.9402 108.944 92.7565 108.708 92.6341 108.561C92.4355 108.323 92.158 108.153 91.8247 107.983C91.7523 107.946 91.6757 107.909 91.5968 107.87C91.3336 107.741 91.0446 107.6 90.8007 107.427C90.4661 107.19 90.1754 106.87 90.0545 106.382C89.9366 105.907 89.9911 105.318 90.2437 104.56C90.997 102.3 91.1939 99.7182 91.1988 98.6765L90.6255 96.3833C90.6167 96.3482 90.6139 96.3118 90.6172 96.2758C90.7153 95.1963 90.9409 93.5556 91.3011 92.1394C91.4808 91.4329 91.6978 90.7671 91.9565 90.2516C92.0859 89.9938 92.2312 89.7623 92.3961 89.5802C92.5603 89.399 92.7596 89.2495 92.9981 89.1899C93.7161 89.0104 94.5464 88.5534 95.2457 87.9473C95.948 87.3386 96.478 86.6148 96.65 85.9267C96.7748 85.4274 96.8344 85.0533 96.8892 84.7084C96.9197 84.5167 96.9487 84.3341 96.9868 84.144C97.0911 83.6222 97.2514 83.1445 97.6663 82.5221C98.0628 81.9274 98.424 81.4596 98.9707 81.017C99.5124 80.5785 100.222 80.1764 101.299 79.6865C102.3 79.2316 102.748 78.695 103.175 78.1726L103.199 78.1431C103.631 77.6147 104.072 77.0762 105.023 76.759C106.319 76.327 107.803 76.2909 108.59 76.3355C108.728 75.9659 108.971 75.5133 109.334 75.121C109.793 74.6261 110.457 74.216 111.344 74.216H114.774L117.21 73.1332Z" fill="#999999"/>
<path fill-rule="evenodd" clip-rule="evenodd" d="M37.6599 90.7808C37.8131 90.872 37.8634 91.0701 37.7722 91.2233L6.06324 144.502C6.76897 143.949 7.57151 143.355 8.37348 142.82C9.08697 142.345 9.80642 141.912 10.4609 141.597C11.1046 141.286 11.7261 141.07 12.2304 141.07C13.2397 141.07 14.797 140.65 16.2064 140.164C16.9039 139.924 17.5529 139.671 18.0623 139.456C18.5829 139.235 18.9312 139.064 19.0477 138.986C19.1039 138.949 19.1732 138.893 19.2674 138.814C19.285 138.799 19.3033 138.784 19.3224 138.768C19.4006 138.702 19.4904 138.627 19.588 138.549C19.8332 138.355 20.1421 138.137 20.5279 137.964C21.3121 137.613 22.3703 137.467 23.8051 137.979C24.8888 138.366 25.8264 138.226 26.7829 138.082C26.9456 138.058 27.1089 138.034 27.2735 138.012C27.8292 137.938 28.4035 137.895 28.9857 138.022C29.5763 138.152 30.1525 138.452 30.7268 139.027C31.7432 140.043 32.0313 140.462 32.2507 140.781C32.2655 140.803 32.28 140.824 32.2944 140.844C32.4876 141.124 32.6549 141.344 33.6153 142.112C34.9588 143.187 35.9491 143.372 36.8747 143.545C37.2492 143.615 37.6131 143.683 37.9855 143.807C38.2487 143.895 38.5745 143.989 38.9428 144.095L39.0296 144.12C39.4304 144.235 39.8729 144.364 40.3164 144.51C41.1939 144.798 42.1161 145.166 42.7473 145.663C43.1463 145.977 43.4735 146.114 43.7924 146.249C43.9102 146.298 44.0268 146.347 44.1455 146.404C44.3615 146.509 44.5745 146.64 44.7599 146.855C44.9444 147.069 45.0841 147.346 45.1902 147.717C45.3165 148.159 45.6696 148.543 46.1051 148.849C46.5364 149.152 47.0095 149.351 47.3046 149.44C47.3899 149.466 47.4608 149.525 47.5006 149.605L49.2496 153.103C49.2721 153.148 49.2837 153.197 49.2837 153.247V156.098L50.2306 158.37C50.2337 158.378 50.2366 158.386 50.2392 158.393C50.2411 158.399 50.2429 158.405 50.2445 158.411L50.6042 159.76L51.9447 149.707L51.9464 149.696L60.303 100.139C60.3327 99.9628 60.4992 99.8443 60.675 99.8739C60.8509 99.9036 60.9693 100.07 60.9397 100.246L55.3418 133.443C55.4492 133.195 55.5602 132.952 55.6739 132.719C56.0127 132.025 56.3865 131.395 56.7792 130.964C57.1556 130.551 57.6502 130.215 58.197 130.398C58.7385 130.578 59.3175 130.354 59.8729 129.9C60.4207 129.452 60.8732 128.835 61.1184 128.406C61.1378 128.372 61.1633 128.342 61.1935 128.317L64.4973 125.596C64.5424 125.559 64.5968 125.535 64.6546 125.526L68.4376 124.959C68.9513 124.46 69.7863 123.793 70.7304 123.309C71.7126 122.805 72.8809 122.466 73.9386 122.818C75.7868 123.434 78.5131 124.841 79.7312 125.512C80.2404 125.453 80.9903 125.424 81.723 125.515C82.4891 125.611 83.3288 125.849 83.8016 126.416C84.0396 126.702 84.2655 126.998 84.4808 127.28L84.5087 127.317C84.7343 127.612 84.9474 127.89 85.1591 128.137C85.5936 128.644 85.9686 128.953 86.3377 129.027C86.5525 129.07 86.7608 129.081 86.9712 129.084C87.0339 129.085 87.1 129.085 87.1675 129.085C87.3138 129.085 87.4668 129.085 87.6063 129.094C87.8199 129.107 88.045 129.142 88.2644 129.24C88.488 129.34 88.6884 129.498 88.8647 129.733C88.9698 129.873 89.1884 130.04 89.5063 130.234C89.7347 130.373 89.9882 130.511 90.2497 130.653C90.3443 130.705 90.4399 130.757 90.5358 130.81C90.887 131.004 91.2428 131.209 91.5122 131.422C91.6473 131.529 91.7735 131.647 91.8679 131.778C91.9625 131.909 92.0387 132.071 92.0387 132.259C92.0387 132.38 92.0353 132.491 92.0321 132.596C92.0236 132.872 92.0165 133.102 92.0777 133.346C92.1522 133.644 92.3387 133.97 92.8667 134.322C93.577 134.796 94.7732 135.667 95.6512 136.317L89.6538 112.515C89.6102 112.342 89.7151 112.166 89.888 112.123C90.0609 112.079 90.2363 112.184 90.2799 112.357L96.4988 137.038C96.5006 137.045 96.5021 137.052 96.5034 137.059L97.2807 141.335C97.2842 141.354 97.286 141.373 97.286 141.393V144.113C97.286 144.13 97.2847 144.146 97.2822 144.162L96.5048 149.215C96.5003 149.244 96.4919 149.273 96.4797 149.3C96.3161 149.66 96.0513 150.219 95.7874 150.728C95.6556 150.983 95.5223 151.229 95.4008 151.432C95.285 151.626 95.1632 151.811 95.0536 151.921C95.012 151.963 94.9431 152.062 94.8545 152.228C94.7701 152.386 94.6808 152.579 94.5929 152.786C94.4173 153.199 94.2551 153.647 94.1599 153.932C94.1441 153.98 94.1174 154.023 94.0819 154.059C93.6895 154.451 92.6949 155.369 91.882 155.856C91.1519 156.294 90.4651 156.45 90.0946 156.48L88.6506 157.743C88.4673 157.991 88.1984 158.408 87.9736 158.869C87.7365 159.356 87.5689 159.852 87.5689 160.244C87.5689 160.479 87.4458 160.67 87.3038 160.812C87.1608 160.956 86.9691 161.08 86.7576 161.191C86.3328 161.412 85.7606 161.609 85.146 161.779C83.9205 162.119 82.4588 162.373 81.4786 162.504C80.2328 162.833 77.5155 163.624 76.313 164.225C75.9172 164.423 75.4495 164.437 74.9882 164.362C74.5231 164.287 74.0298 164.117 73.5548 163.906C72.6522 163.504 71.772 162.936 71.2018 162.51H69.1724C69.1222 162.51 69.0728 162.498 69.028 162.476C68.3853 162.154 67.3627 161.672 66.3871 161.271C65.8991 161.07 65.4273 160.892 65.023 160.764C64.6082 160.633 64.2985 160.566 64.1195 160.566C63.7964 160.566 63.4473 160.415 63.1241 160.224C62.7909 160.026 62.4398 159.758 62.1019 159.468C61.4785 158.934 60.8751 158.303 60.474 157.846H58.0949C57.6454 157.846 57.3476 157.571 57.167 157.236C56.9923 156.912 56.9014 156.493 56.8513 156.08C56.7725 155.429 56.7861 154.696 56.7956 154.188C56.7981 154.05 56.8004 153.929 56.8004 153.83C56.8004 153.644 56.7552 153.536 56.6989 153.465C56.6391 153.388 56.5406 153.319 56.3783 153.258C56.2145 153.197 56.0092 153.152 55.7584 153.11C55.6342 153.09 55.5037 153.07 55.3647 153.05C55.2268 153.029 55.0814 153.008 54.9324 152.983C54.7168 152.947 54.5401 152.814 54.4019 152.668C54.2603 152.518 54.1304 152.324 54.0109 152.108C53.7716 151.675 53.5479 151.105 53.3473 150.496C53.1404 149.868 52.9534 149.184 52.7962 148.539L52.584 149.797L51.03 161.452C51.0262 161.481 51.0186 161.509 51.0075 161.535C50.7502 162.146 50.3741 163.091 50.0824 163.939C49.9363 164.364 49.8136 164.758 49.7373 165.07C49.699 165.227 49.6741 165.356 49.6629 165.455C49.653 165.541 49.6569 165.579 49.6571 165.585C49.6571 165.587 49.6569 165.586 49.6558 165.583C49.6946 165.699 49.6763 165.81 49.6566 165.882C49.6355 165.961 49.6006 166.038 49.562 166.11C49.4846 166.255 49.3691 166.421 49.2328 166.596C48.9584 166.949 48.5678 167.382 48.1346 167.833C47.278 168.725 46.2303 169.716 45.515 170.367L42.8163 174.415C42.8045 174.433 42.791 174.449 42.7759 174.464C41.9907 175.25 40.34 176.94 39.8908 177.539C39.7889 177.675 39.6403 177.773 39.4918 177.847C39.3387 177.923 39.158 177.986 38.9637 178.04C38.5749 178.149 38.0973 178.229 37.601 178.288C36.6293 178.404 35.5461 178.444 34.8244 178.446C33.1696 178.971 29.2407 180.001 26.4173 180.001C23.5582 180.001 21.7584 177.966 21.1404 176.836L17.5748 175.71C17.5549 175.704 17.5357 175.696 17.5174 175.686C16.8273 175.309 15.0301 174.559 13.3965 174.559C12.3284 174.559 11.7166 173.701 11.3842 172.82C11.0939 172.05 10.972 171.16 10.943 170.478H9.31534C9.03691 170.478 8.76275 170.364 8.52086 170.219C8.2742 170.072 8.03065 169.873 7.80629 169.661C7.37057 169.25 6.97831 168.763 6.73978 168.427L4.66547 166.541C3.28138 165.897 0.533847 163.723 0.0552877 159.895C-0.187638 157.952 0.401417 155.398 1.20691 153.032C2.01666 150.653 3.06389 148.411 3.78364 147.07C3.7848 147.068 3.78598 147.066 3.78719 147.064C3.78834 147.062 3.7895 147.06 3.79069 147.058L37.2173 90.8931C37.3085 90.7399 37.5066 90.6896 37.6599 90.7808ZM53.0842 146.831C53.262 147.761 53.5779 149.133 53.9606 150.294C54.1564 150.889 54.3653 151.415 54.576 151.796C54.6816 151.987 54.7811 152.129 54.8709 152.224C54.9641 152.323 55.021 152.343 55.0385 152.346C55.1811 152.37 55.3211 152.391 55.4595 152.411L55.4747 152.413C55.6069 152.433 55.7384 152.452 55.8645 152.473C56.1238 152.517 56.3801 152.569 56.605 152.654C56.8313 152.738 57.0486 152.864 57.2074 153.067C57.3698 153.274 57.4461 153.531 57.4461 153.83C57.4461 153.946 57.4436 154.082 57.4409 154.231C57.4317 154.738 57.4196 155.402 57.4923 156.002C57.5393 156.39 57.6185 156.713 57.7353 156.929C57.8462 157.135 57.9614 157.2 58.0949 157.2H60.6214C60.7156 157.2 60.8051 157.241 60.8665 157.313C61.2475 157.757 61.8772 158.425 62.5223 158.978C62.8452 159.255 63.1646 159.497 63.4532 159.668C63.752 159.845 63.9762 159.921 64.1195 159.921C64.4069 159.921 64.8001 160.016 65.2177 160.148C65.6459 160.284 66.136 160.47 66.6327 160.674C67.5924 161.068 68.5928 161.538 69.2484 161.864H71.3101C71.381 161.864 71.4499 161.888 71.5062 161.931C72.0425 162.341 72.9245 162.919 73.8171 163.316C74.2635 163.514 74.7007 163.662 75.0911 163.725C75.4853 163.789 75.7982 163.76 76.0243 163.647C77.3031 163.008 80.1088 162.197 81.3337 161.875C81.3418 161.873 81.3501 161.871 81.3584 161.869C81.3633 161.868 81.3682 161.868 81.3732 161.867C82.3364 161.739 83.7781 161.488 84.9735 161.157C85.5735 160.99 86.0945 160.808 86.4592 160.618C86.6424 160.523 86.7695 160.434 86.8467 160.356C86.8844 160.319 86.9043 160.289 86.9143 160.27C86.9235 160.252 86.9232 160.244 86.9232 160.244C86.9232 159.702 87.1443 159.097 87.3931 158.586C87.6459 158.067 87.9485 157.603 88.1539 157.329C88.1673 157.311 88.1826 157.295 88.1995 157.28L89.7543 155.92C89.8131 155.868 89.8886 155.84 89.9668 155.84C90.1645 155.84 90.82 155.74 91.5498 155.303C92.2595 154.877 93.1584 154.062 93.5721 153.655C93.6732 153.358 93.8293 152.932 93.9987 152.533C94.0906 152.317 94.1883 152.105 94.2849 151.924C94.3773 151.751 94.4833 151.578 94.5971 151.464C94.643 151.418 94.7285 151.299 94.8463 151.101C94.9585 150.914 95.0851 150.681 95.214 150.432C95.462 149.953 95.7121 149.426 95.8735 149.073L96.6403 144.089V141.422L95.8908 137.299C95.0683 136.684 93.3947 135.45 92.5085 134.859C91.8705 134.434 91.5711 133.982 91.4513 133.503C91.3664 133.163 91.3779 132.806 91.3875 132.507C91.3904 132.418 91.3931 132.335 91.3931 132.259C91.3931 132.251 91.3904 132.22 91.3446 132.156C91.2985 132.092 91.2227 132.016 91.1119 131.929C90.8894 131.753 90.5771 131.57 90.2239 131.375C90.1358 131.327 90.0452 131.277 89.9535 131.227C89.6876 131.083 89.4132 130.933 89.1703 130.785C88.8505 130.59 88.5346 130.369 88.3482 130.12C88.233 129.967 88.1176 129.881 88.0011 129.83C87.8804 129.776 87.7411 129.749 87.566 129.738C87.4461 129.731 87.3282 129.731 87.1949 129.731C87.1227 129.731 87.0461 129.731 86.9622 129.73C86.7353 129.727 86.4821 129.714 86.2111 129.66C85.6084 129.539 85.1088 129.071 84.6689 128.558C84.4433 128.294 84.2192 128.002 83.9953 127.708L83.9701 127.675C83.7527 127.39 83.5343 127.104 83.3056 126.829C83.001 126.464 82.3832 126.248 81.6431 126.156C80.9229 126.066 80.1738 126.103 79.7094 126.165C79.6406 126.174 79.5707 126.161 79.51 126.127C78.3452 125.48 75.5693 124.042 73.7345 123.431C72.9266 123.161 71.9571 123.405 71.025 123.883C70.1034 124.356 69.2846 125.024 68.8176 125.491C68.7688 125.539 68.7055 125.571 68.6372 125.582L64.8388 126.151L61.6489 128.778C61.3701 129.253 60.8839 129.907 60.2816 130.4C59.6644 130.904 58.8506 131.296 57.9928 131.01C57.84 130.959 57.6036 131.017 57.2566 131.399C56.926 131.762 56.5842 132.327 56.2541 133.003C55.6002 134.342 55.0334 136.032 54.7103 137.187L53.0842 146.831ZM50.3697 161.386L49.6263 158.599L48.6629 156.287C48.6465 156.247 48.6381 156.205 48.6381 156.162V153.324L46.9837 150.015C46.6373 149.896 46.1691 149.683 45.7338 149.377C45.243 149.032 44.7539 148.54 44.5693 147.894C44.481 147.585 44.3778 147.401 44.2708 147.276C44.1647 147.153 44.0376 147.069 43.8649 146.986C43.7859 146.948 43.6946 146.909 43.5933 146.867C43.262 146.728 42.8226 146.544 42.348 146.17C41.8131 145.749 40.9863 145.41 40.1147 145.123C39.6837 144.982 39.2516 144.856 38.8507 144.74L38.7593 144.714C38.3961 144.609 38.0577 144.512 37.7814 144.42C37.5111 144.33 37.2076 144.273 36.8713 144.209C35.9143 144.03 34.6916 143.8 33.2119 142.616C32.2289 141.83 32.0075 141.564 31.7635 141.212C31.7487 141.19 31.7337 141.169 31.7184 141.146C31.5169 140.853 31.2485 140.461 30.2702 139.483C29.7756 138.988 29.3072 138.754 28.8472 138.653C28.3787 138.55 27.8963 138.58 27.3588 138.652C27.2104 138.671 27.0577 138.695 26.901 138.719C25.945 138.864 24.8361 139.033 23.588 138.587C22.3021 138.128 21.4168 138.273 20.792 138.553C20.4734 138.696 20.2115 138.879 19.989 139.055C19.8995 139.126 19.8186 139.194 19.741 139.259C19.7211 139.276 19.7013 139.293 19.6818 139.309C19.59 139.386 19.4954 139.464 19.4058 139.523C19.2307 139.64 18.826 139.833 18.3141 140.05C17.7911 140.272 17.1283 140.529 16.4169 140.775C15.0082 141.26 13.359 141.715 12.2304 141.715C11.8797 141.715 11.3692 141.876 10.7411 142.178C10.1239 142.476 9.43196 142.891 8.73162 143.358C7.35265 144.277 5.96605 145.38 5.09599 146.127L4.34921 147.382C3.64388 148.697 2.61367 150.903 1.81813 153.24C1.01707 155.593 0.472472 158.027 0.695964 159.815C1.1447 163.405 3.75442 165.423 4.97797 165.974C5.00894 165.988 5.03752 166.006 5.06265 166.029L7.2004 167.973C7.21812 167.989 7.23399 168.007 7.24772 168.026C7.46509 168.337 7.83979 168.805 8.24936 169.191C8.45417 169.385 8.66003 169.55 8.85267 169.666C9.05007 169.784 9.20508 169.832 9.31534 169.832H11.2587C11.437 169.832 11.5816 169.977 11.5816 170.155C11.5816 170.811 11.6859 171.79 11.9884 172.592C12.2973 173.411 12.7544 173.913 13.3965 173.913C15.1611 173.913 17.044 174.698 17.7986 175.104L21.4617 176.26C21.545 176.287 21.6141 176.346 21.6532 176.424C22.1408 177.399 23.7869 179.355 26.4173 179.355C29.1633 179.355 33.0623 178.332 34.6756 177.816C34.7074 177.805 34.7406 177.8 34.774 177.8C35.4782 177.8 36.5628 177.762 37.5246 177.647C38.0065 177.59 38.4472 177.514 38.7903 177.418C38.962 177.371 39.1008 177.32 39.2048 177.268C39.3134 177.215 39.3595 177.172 39.3743 177.152C39.8532 176.513 41.5172 174.811 42.2967 174.031L44.9998 169.976C45.0145 169.954 45.0317 169.934 45.0513 169.916C45.7607 169.271 46.8141 168.276 47.6689 167.386C48.0972 166.939 48.4694 166.526 48.723 166.2C48.8507 166.036 48.9405 165.903 48.9926 165.806C49.0108 165.772 49.0216 165.747 49.0278 165.731C49.0022 165.614 49.0093 165.487 49.0214 165.381C49.037 165.245 49.0686 165.087 49.1101 164.917C49.1933 164.576 49.3232 164.161 49.4719 163.729C49.7538 162.91 50.111 162.006 50.3697 161.386Z" fill="#999999"/>
<path fill-rule="evenodd" clip-rule="evenodd" d="M118.358 100.505C118.507 100.407 118.707 100.449 118.805 100.598L132.992 122.169C133.001 122.184 133.009 122.199 133.016 122.214C133.6 123.512 134.955 126.441 135.725 127.826C135.956 128.241 136.076 128.895 136.138 129.627C136.201 130.374 136.207 131.255 136.178 132.162C136.121 133.976 135.926 135.921 135.763 137.159C135.756 137.209 135.738 137.257 135.709 137.299C135.293 137.907 134.658 138.908 134.109 139.927C133.835 140.437 133.584 140.948 133.393 141.413C133.2 141.884 133.077 142.289 133.043 142.594C133.016 142.834 132.906 143.09 132.761 143.344C132.613 143.603 132.412 143.884 132.176 144.177C131.704 144.764 131.072 145.423 130.385 146.085C129.014 147.406 127.398 148.759 126.324 149.606C125.927 149.969 125.289 150.508 124.648 150.96C124.326 151.188 123.996 151.398 123.691 151.552C123.398 151.701 123.085 151.821 122.811 151.821H118.623C117.895 152.238 116.179 152.987 114.454 152.987C113.967 152.987 113.389 152.833 112.794 152.604C112.192 152.373 111.545 152.056 110.912 151.708C109.722 151.054 108.558 150.278 107.797 149.724C107.366 149.885 106.75 150.097 106.124 150.278C105.423 150.48 104.671 150.655 104.154 150.655C104.027 150.655 103.906 150.613 103.805 150.565C103.7 150.516 103.59 150.447 103.478 150.367C103.253 150.207 102.995 149.982 102.717 149.715C102.158 149.177 101.487 148.44 100.79 147.627C99.394 146 97.8735 144.051 96.8993 142.752C96.7923 142.609 96.8212 142.407 96.9638 142.3C97.1065 142.193 97.3088 142.222 97.4158 142.365C98.3849 143.657 99.8962 145.594 101.28 147.207C101.972 148.014 102.627 148.733 103.164 149.249C103.433 149.507 103.665 149.708 103.853 149.841C103.946 149.908 104.022 149.954 104.08 149.981C104.133 150.006 104.156 150.009 104.156 150.009C104.156 150.009 104.155 150.009 104.154 150.009C104.569 150.009 105.242 149.86 105.945 149.657C106.635 149.458 107.317 149.218 107.73 149.059C107.833 149.019 107.949 149.035 108.038 149.101C108.774 149.645 109.986 150.462 111.223 151.142C111.841 151.482 112.46 151.785 113.025 152.001C113.596 152.22 114.086 152.341 114.454 152.341C116.084 152.341 117.749 151.593 118.369 151.221C118.419 151.191 118.477 151.175 118.535 151.175H122.811C122.925 151.175 123.122 151.117 123.399 150.976C123.666 150.841 123.967 150.65 124.276 150.433C124.894 149.997 125.515 149.472 125.896 149.122C125.902 149.117 125.908 149.112 125.915 149.107C126.978 148.269 128.582 146.925 129.938 145.62C130.616 144.967 131.225 144.329 131.673 143.772C131.897 143.494 132.075 143.242 132.201 143.023C132.33 142.798 132.389 142.633 132.401 142.523C132.445 142.128 132.595 141.657 132.796 141.168C132.998 140.675 133.26 140.143 133.541 139.621C134.084 138.613 134.707 137.626 135.133 136.999C135.291 135.773 135.478 133.892 135.533 132.141C135.561 131.247 135.555 130.394 135.495 129.681C135.433 128.954 135.318 128.424 135.161 128.14C134.395 126.761 133.077 123.917 132.472 122.578L128.752 120.532H126.114C126.035 120.532 125.959 120.503 125.9 120.45C125.594 120.178 125.132 119.706 124.723 119.158C124.322 118.619 123.941 117.966 123.851 117.34C123.835 117.229 123.799 117.17 123.762 117.134C123.723 117.096 123.658 117.059 123.548 117.036C123.317 116.987 122.979 117.016 122.558 117.1C122.256 117.161 121.941 117.243 121.625 117.325C121.507 117.355 121.389 117.386 121.271 117.416C120.854 117.521 120.428 117.617 120.09 117.617C119.859 117.617 119.662 117.633 119.462 117.649C119.424 117.652 119.386 117.655 119.347 117.658C119.108 117.677 118.861 117.691 118.577 117.664C118.005 117.609 117.329 117.393 116.243 116.8C114.663 115.938 113.065 116.444 112.482 116.793C112.467 116.803 112.451 116.811 112.434 116.817C110.952 117.397 107.638 118.65 106.37 118.968C106.116 119.031 105.78 119.206 105.387 119.474C105.001 119.738 104.583 120.078 104.169 120.446C103.348 121.174 102.559 122.001 102.078 122.544L99.7582 126.024C99.7549 126.029 99.7515 126.034 99.7479 126.039C98.9737 127.071 97.1719 129.397 96.2198 130.349C95.8313 130.737 95.6497 131.327 95.5991 131.954C95.5488 132.575 95.6318 133.181 95.7216 133.54C95.7649 133.713 95.6597 133.889 95.4868 133.932C95.3138 133.975 95.1385 133.87 95.0953 133.697C94.9908 133.279 94.8988 132.602 94.9555 131.902C95.0117 131.207 95.2188 130.437 95.7632 129.892C96.6747 128.981 98.4427 126.703 99.226 125.658L101.553 122.168C101.561 122.156 101.57 122.144 101.58 122.133C102.072 121.575 102.888 120.72 103.74 119.963C104.166 119.584 104.606 119.226 105.023 118.941C105.433 118.66 105.846 118.433 106.213 118.341C107.426 118.038 110.666 116.815 112.174 116.225C112.904 115.799 114.732 115.241 116.552 116.233C117.603 116.806 118.19 116.979 118.639 117.021C118.865 117.043 119.067 117.033 119.296 117.015C119.332 117.012 119.368 117.009 119.405 117.006C119.605 116.99 119.83 116.971 120.09 116.971C120.335 116.971 120.686 116.897 121.113 116.79C121.22 116.763 121.332 116.734 121.446 116.704C121.768 116.62 122.11 116.532 122.431 116.467C122.861 116.381 123.312 116.326 123.682 116.404C123.874 116.445 124.062 116.525 124.213 116.672C124.367 116.823 124.458 117.019 124.491 117.248C124.556 117.71 124.856 118.256 125.241 118.772C125.581 119.229 125.964 119.631 126.239 119.886H128.835C128.89 119.886 128.943 119.9 128.991 119.926L131.737 121.437L118.265 100.952C118.167 100.803 118.209 100.603 118.358 100.505Z" fill="#999999"/>
<path fill-rule="evenodd" clip-rule="evenodd" d="M36.0657 99.3055C35.7535 99.1667 35.3873 99.2981 35.2345 99.6037L29.4012 111.27C29.1631 111.747 29.5094 112.307 30.0419 112.307C30.3163 112.307 30.5665 112.15 30.6863 111.903L36.3811 100.169C36.5389 99.8434 36.396 99.4523 36.0657 99.3055ZM34.657 99.315C34.9642 98.7006 35.7003 98.4365 36.3279 98.7155C36.9918 99.0105 37.2792 99.7969 36.962 100.45L31.2672 112.185C31.0394 112.655 30.5636 112.953 30.0419 112.953C29.0295 112.953 28.371 111.887 28.8237 110.981L34.657 99.315Z" fill="#999999"/>
<path fill-rule="evenodd" clip-rule="evenodd" d="M103.727 74.6422C103.78 74.3277 103.577 74.0266 103.265 73.9588L91.0803 71.3096C90.5932 71.2036 90.1649 71.6474 90.288 72.1304C90.3514 72.3793 90.5515 72.5701 90.8031 72.6217L103.018 75.1266C103.349 75.1944 103.67 74.9748 103.727 74.6422ZM103.402 73.3279C104.051 73.4691 104.475 74.0958 104.363 74.7506C104.245 75.4431 103.577 75.9002 102.889 75.7591L90.6734 73.2542C90.1795 73.1529 89.7869 72.7784 89.6623 72.2899C89.4207 71.3417 90.2613 70.4707 91.2174 70.6786L103.402 73.3279Z" fill="#999999"/>
<path fill-rule="evenodd" clip-rule="evenodd" d="M40.1433 62.8152C40.1783 62.9901 40.0649 63.1602 39.8901 63.1951C38.5429 63.4646 37.1702 64.5239 35.9167 66.1065C34.6698 67.6808 33.5735 69.7323 32.7689 71.906C31.9642 74.0797 31.4571 76.3598 31.3767 78.387C31.2959 80.4238 31.6476 82.1558 32.5045 83.2834C32.6124 83.4253 32.5848 83.6278 32.4428 83.7357C32.3009 83.8436 32.0983 83.816 31.9905 83.674C31.0012 82.3723 30.6483 80.4605 30.7315 78.3614C30.8151 76.2528 31.3404 73.9052 32.1634 71.6819C32.9863 69.4587 34.1129 67.344 35.4106 65.7056C36.7018 64.0754 38.1955 62.8756 39.7635 62.562C39.9383 62.527 40.1084 62.6404 40.1433 62.8152Z" fill="#999999"/>
<path fill-rule="evenodd" clip-rule="evenodd" d="M44.3922 63.7278C44.4424 63.8989 44.3444 64.0783 44.1733 64.1285C43.0923 64.4457 41.9876 65.4264 40.9648 66.9342C40.8647 67.0817 40.664 67.1202 40.5164 67.0201C40.3689 66.9201 40.3304 66.7193 40.4305 66.5717C41.4852 65.0168 42.6974 63.8887 43.9915 63.509C44.1626 63.4588 44.342 63.5568 44.3922 63.7278ZM36.6585 79.452C36.8362 79.4662 36.9688 79.6218 36.9546 79.7995C36.7565 82.278 36.852 84.7695 37.3242 87.0539C37.3603 87.2285 37.248 87.3993 37.0734 87.4354C36.8988 87.4715 36.728 87.3592 36.6919 87.1846C36.2049 84.8287 36.1091 82.2744 36.3109 79.7481C36.3251 79.5704 36.4807 79.4378 36.6585 79.452ZM86.5079 96.4115C86.6856 96.4257 86.8182 96.5813 86.804 96.759C86.6059 99.2375 86.7014 101.729 87.1736 104.013C87.2096 104.188 87.0974 104.359 86.9228 104.395C86.7482 104.431 86.5774 104.319 86.5413 104.144C86.0543 101.788 85.9585 99.2339 86.1603 96.7076C86.1745 96.5298 86.3301 96.3973 86.5079 96.4115Z" fill="#999999"/>
<path fill-rule="evenodd" clip-rule="evenodd" d="M12.5984 150.678C10.8475 152.637 9.60969 155.379 9.60969 157.841C9.60969 158.02 9.46516 158.164 9.28686 158.164C9.10857 158.164 8.96403 158.02 8.96403 157.841C8.96403 155.186 10.2853 152.298 12.1169 150.248C13.9352 148.213 16.3657 146.895 18.6013 147.64C18.7705 147.697 18.8619 147.879 18.8055 148.049C18.7491 148.218 18.5663 148.309 18.3972 148.253C16.5384 147.633 14.3627 148.704 12.5984 150.678ZM6.2998 152.87C6.0567 153.582 6.0844 154.459 6.19252 155.054C6.22442 155.229 6.10807 155.397 5.93265 155.429C5.75723 155.461 5.58917 155.345 5.55727 155.169C5.43793 154.513 5.39739 153.514 5.68884 152.662C5.83602 152.231 6.07366 151.821 6.44514 151.519C6.82092 151.213 7.31022 151.036 7.9221 151.036C8.10039 151.036 8.24493 151.18 8.24493 151.359C8.24493 151.537 8.10039 151.681 7.9221 151.681C7.44213 151.681 7.10118 151.817 6.85285 152.019C6.60022 152.225 6.41989 152.519 6.2998 152.87Z" fill="#999999"/>
<path fill-rule="evenodd" clip-rule="evenodd" d="M75.8081 154.804C78.3675 154.209 80.957 152.678 82.3738 150.664C82.4764 150.518 82.6778 150.483 82.8236 150.586C82.9694 150.688 83.0045 150.89 82.9019 151.036C81.3743 153.207 78.6318 154.81 75.9544 155.433C73.2965 156.051 70.5503 155.731 69.1504 153.835C69.0445 153.691 69.0749 153.489 69.2184 153.383C69.3618 153.278 69.5639 153.308 69.6698 153.451C70.8337 155.028 73.2291 155.404 75.8081 154.804ZM82.2212 156.634C82.8292 156.192 83.3115 155.459 83.5652 154.91C83.6401 154.748 83.8319 154.678 83.9937 154.752C84.1556 154.827 84.2261 155.019 84.1513 155.181C83.8712 155.786 83.3297 156.627 82.6008 157.157C82.2327 157.424 81.8026 157.623 81.3247 157.656C80.8413 157.69 80.3392 157.554 79.8388 157.202C79.6929 157.099 79.6579 156.898 79.7604 156.752C79.863 156.606 80.0644 156.571 80.2102 156.673C80.6028 156.95 80.9598 157.035 81.2793 157.012C81.6042 156.989 81.9209 156.853 82.2212 156.634Z" fill="#999999"/>
<path fill-rule="evenodd" clip-rule="evenodd" d="M108.02 105.64C109.783 103.692 111.038 100.959 111.053 98.4961C111.054 98.3178 111.2 98.1742 111.378 98.1753C111.556 98.1764 111.7 98.3218 111.699 98.5001C111.682 101.155 110.343 104.036 108.498 106.074C106.667 108.097 104.228 109.4 101.998 108.64C101.829 108.583 101.739 108.4 101.796 108.231C101.853 108.062 102.037 107.972 102.206 108.029C104.06 108.66 106.243 107.604 108.02 105.64ZM114.332 103.488C114.579 102.778 114.557 101.9 114.453 101.305C114.422 101.129 114.539 100.962 114.715 100.931C114.891 100.9 115.058 101.018 115.089 101.193C115.204 101.851 115.238 102.85 114.941 103.7C114.792 104.13 114.551 104.538 114.178 104.838C113.8 105.142 113.31 105.316 112.698 105.312C112.52 105.311 112.376 105.166 112.377 104.987C112.378 104.809 112.524 104.665 112.702 104.667C113.182 104.67 113.524 104.536 113.773 104.335C114.027 104.131 114.209 103.838 114.332 103.488Z" fill="#999999"/>
<path fill-rule="evenodd" clip-rule="evenodd" d="M35.6503 0.750216C35.6957 0.797132 35.7504 0.859613 35.8152 0.941253C36.2914 1.54113 36.6509 2.59999 36.975 3.90371C37.1349 4.54707 37.283 5.23472 37.4329 5.93542L37.452 6.02438C37.5953 6.69453 37.7409 7.37495 37.8993 8.02927C38.2275 9.38567 38.6205 10.6754 39.1952 11.5617C39.485 12.0085 39.8349 12.3753 40.268 12.5886C40.7092 12.8059 41.2072 12.8492 41.7568 12.6982C42.6321 12.4576 43.3716 11.774 43.9907 10.8915C44.6134 10.004 45.1414 8.87695 45.5813 7.68097C46.3505 5.58935 46.8655 3.24457 47.1404 1.49804C47.9042 2.44224 48.8726 3.81642 49.7037 5.3725C50.7154 7.26666 51.5042 9.39452 51.5042 11.3281C51.5042 12.5204 51.0654 13.9931 50.4145 15.7048C50.1057 16.5166 49.7535 17.372 49.3846 18.2678L49.3308 18.3984C48.9431 19.3401 48.5393 20.3241 48.1545 21.338C46.619 25.3833 45.3576 29.9689 46.6134 34.4434C47.6155 38.0141 49.5052 40.0929 51.4825 41.227C53.4497 42.3552 55.4844 42.5376 56.7758 42.3517C56.8865 42.3357 56.9811 42.2636 57.0257 42.1611C57.0704 42.0586 57.0588 41.9402 56.9951 41.8483C55.7153 40.0016 52.9672 35.4378 52.1414 31.9005C51.947 31.0682 52.0138 29.9723 52.2754 28.718C52.5357 27.47 52.9822 26.0952 53.5197 24.7198C54.4214 22.4127 55.5709 20.1246 56.4996 18.4643C57.1295 24.2127 60.1754 36.0114 68.4029 44.6372C73.7815 50.2762 75.1547 55.0023 75.5836 57.9762C75.6913 58.723 75.7399 59.3627 75.7767 59.8873C75.7798 59.9313 75.7828 59.9748 75.7858 60.0176C75.8173 60.4723 75.8442 60.8606 75.9055 61.1329C75.9388 61.2805 75.9916 61.4426 76.0967 61.5672C76.2218 61.7155 76.3967 61.7827 76.5888 61.7629C76.7526 61.746 76.9138 61.6678 77.0639 61.5741C77.22 61.4767 77.3975 61.3409 77.5991 61.1716C78.9334 60.051 79.861 58.1648 80.4861 55.9671C80.9204 54.4398 81.2146 52.7406 81.3936 51.0002C82.0167 53.5825 82.9686 56.3296 84.0313 59.3961C84.5021 60.7545 84.9945 62.1755 85.4897 63.6727C85.5457 63.842 85.7283 63.9338 85.8976 63.8778C86.0669 63.8218 86.1587 63.6392 86.1027 63.4699C85.5979 61.9437 85.0995 60.5052 84.6256 59.1375C83.2488 55.1642 82.0793 51.7888 81.5623 48.5978C81.5359 48.4345 81.3903 48.3176 81.2252 48.3271C81.0601 48.3365 80.9288 48.4692 80.9212 48.6344C80.8052 51.1332 80.4748 53.6463 79.865 55.7904C79.2527 57.9435 78.3709 59.6803 77.1838 60.6772C76.9914 60.8388 76.8406 60.9524 76.7221 61.0264C76.6514 61.0705 76.6016 61.0944 76.5689 61.1071C76.5583 61.0795 76.5468 61.0417 76.5354 60.991C76.4856 60.7696 76.4619 60.4313 76.4279 59.9446C76.4256 59.9112 76.4232 59.877 76.4208 59.8421C76.3837 59.314 76.3338 58.6551 76.2226 57.884C75.776 54.7866 74.3476 49.9342 68.8701 44.1915C60.2542 35.1585 57.3989 22.5532 57.0519 17.3943C57.0424 17.2532 56.9421 17.1347 56.8045 17.1019C56.6669 17.0692 56.524 17.1298 56.452 17.2516C55.4529 18.9395 54.0087 21.6948 52.9183 24.4848C52.3732 25.8798 51.9135 27.2909 51.6434 28.5862C51.3746 29.8751 51.2867 31.0798 51.5126 32.0473C52.3048 35.4401 54.7734 39.6784 56.1567 41.7618C54.9971 41.817 53.3801 41.571 51.8038 40.6669C49.9814 39.6217 48.194 37.686 47.235 34.2689C46.0394 30.0087 47.2294 25.5948 48.7582 21.5671C49.1394 20.5627 49.54 19.5864 49.9279 18.6442L49.9828 18.5108C50.3506 17.6177 50.706 16.7547 51.0179 15.9343C51.6693 14.2217 52.1498 12.6504 52.1498 11.3281C52.1498 9.23845 51.3044 6.99893 50.2732 5.06832C49.2391 3.13213 47.9986 1.47063 47.1663 0.526986C47.0826 0.432092 46.9512 0.394844 46.8302 0.431708C46.7091 0.468572 46.6208 0.572752 46.6042 0.698191C46.3728 2.44667 45.8345 5.12197 44.9753 7.4581C44.5455 8.62668 44.0404 9.69657 43.4622 10.5207C42.8804 11.3499 42.2512 11.8927 41.5857 12.0756C41.1722 12.1892 40.8385 12.1498 40.5533 12.0094C40.26 11.865 39.9889 11.599 39.737 11.2104C39.2282 10.4258 38.8551 9.23406 38.5268 7.87739C38.3706 7.23182 38.2267 6.55919 38.0828 5.88677L38.0643 5.80031C37.9147 5.10105 37.7645 4.40321 37.6016 3.74794C37.28 2.45439 36.8953 1.26339 36.3209 0.539816C36.1841 0.367484 36.053 0.226303 35.9257 0.133799C35.8083 0.0484213 35.6104 -0.0543099 35.3916 0.0336202C35.1912 0.114173 35.1067 0.30606 35.0666 0.427905C35.0207 0.567154 34.9938 0.73895 34.9753 0.923473C34.9411 1.26544 34.9302 1.7238 34.9176 2.25252C34.9165 2.29755 34.9154 2.34308 34.9143 2.3891C34.8999 2.982 34.8809 3.67026 34.8268 4.42304C34.6097 7.44276 33.8309 11.4361 30.6025 14.2615C29.679 15.0697 28.5296 15.9714 27.2464 16.9782C26.218 17.7849 25.1037 18.6592 23.9509 19.6067C21.3783 21.7211 18.6555 24.1693 16.4244 26.9409C14.1934 29.7124 12.4418 32.8221 11.8327 36.2602C11.2222 39.7062 11.7644 43.4551 14.0757 47.4865C18.6212 55.415 20.6993 60.8662 21.3032 64.844C21.9038 68.7996 21.0473 71.2999 19.6897 73.3522C19.5203 73.6082 19.3812 73.783 19.2689 73.894C19.2133 73.949 19.1694 73.9831 19.1369 74.0033C19.1304 74.0073 19.1247 74.0106 19.1197 74.0133C19.0881 73.9715 19.0444 73.8869 18.9979 73.7367C18.8986 73.4159 18.8245 72.9265 18.7531 72.2981C18.7181 71.9902 18.6844 71.6554 18.6484 71.2984L18.6475 71.2891C18.6113 70.9293 18.5728 70.5477 18.5288 70.1528C18.3533 68.5779 18.0876 66.7659 17.5038 65.1919C16.9207 63.6198 16.0005 62.2324 14.4821 61.5868C14.309 61.5133 14.1491 61.4448 14.0016 61.3817C13.5593 61.1925 13.2301 61.0517 13.0002 60.9658C12.8532 60.9109 12.7122 60.8646 12.5969 60.8527C12.5426 60.8471 12.4421 60.8425 12.3416 60.8927C12.2103 60.9583 12.1468 61.0804 12.1357 61.1952C12.1269 61.2859 12.1501 61.366 12.1664 61.4135C12.1849 61.4675 12.2103 61.5226 12.2366 61.5746C12.286 61.6727 12.3558 61.7935 12.4325 61.9262L12.445 61.9477C12.6118 62.2365 12.8322 62.6201 13.0552 63.1096C13.9383 65.0486 14.8964 68.7232 12.3105 74.4563C12.2372 74.6188 12.3095 74.81 12.4721 74.8833C12.6346 74.9566 12.8258 74.8843 12.8991 74.7218C15.5662 68.8086 14.5981 64.9395 13.6427 62.842C13.4187 62.35 13.1973 61.9597 13.0315 61.6723C13.2168 61.7483 13.4472 61.8469 13.732 61.9687C13.8823 62.033 14.0476 62.1037 14.2295 62.181C15.5127 62.7266 16.3434 63.9199 16.8985 65.4165C17.4529 66.9113 17.7124 68.6561 17.8871 70.2243C17.9307 70.6153 17.9688 70.9936 18.0051 71.3538L18.0062 71.3646C18.042 71.7201 18.076 72.0586 18.1115 72.371C18.1824 72.9946 18.2615 73.5412 18.3811 73.9276C18.4401 74.1183 18.5187 74.3039 18.6359 74.4415C18.7655 74.5938 18.9567 74.6993 19.1933 74.6625C19.3957 74.6309 19.5722 74.5021 19.7228 74.3532C19.8801 74.1977 20.0474 73.9817 20.2282 73.7084C21.6721 71.5256 22.5667 68.8644 21.9416 64.747C21.3198 60.6518 19.1954 55.1184 14.6358 47.1654C12.3946 43.2561 11.8862 39.6599 12.4685 36.3728C13.0522 33.0779 14.737 30.0667 16.9273 27.3458C19.1174 24.6251 21.8008 22.2096 24.3608 20.1055C25.4834 19.1828 26.5907 18.3138 27.6204 17.5055C28.9217 16.4842 30.0992 15.5599 31.0277 14.7473C34.4531 11.7496 35.2502 7.53749 35.4708 4.46935C35.5261 3.70015 35.5454 2.99879 35.5598 2.40472C35.5608 2.36234 35.5618 2.32057 35.5628 2.27943C35.5758 1.73762 35.5861 1.30396 35.6178 0.987717C35.6274 0.891743 35.6384 0.813224 35.6503 0.750216ZM35.5169 0.637735C35.517 0.63786 35.5184 0.638628 35.5211 0.639669C35.5182 0.63813 35.5169 0.63761 35.5169 0.637735ZM35.6971 0.586736C35.6987 0.584489 35.6994 0.583138 35.6994 0.583024C35.6993 0.582909 35.6985 0.584033 35.6971 0.586736ZM12.5304 61.4949C12.5262 61.4945 12.527 61.4949 12.5318 61.4951L12.5304 61.4949Z" fill="#999999"/>
</svg>
