<svg width="165" height="160" viewBox="0 0 165 160" fill="none" xmlns="http://www.w3.org/2000/svg">
<path fill-rule="evenodd" clip-rule="evenodd" d="M149.205 116.433C157.309 116.433 163.879 109.863 163.879 101.759C163.879 93.6543 157.309 87.0844 149.205 87.0844C141.101 87.0844 134.531 93.6543 134.531 101.759C134.531 109.863 141.101 116.433 149.205 116.433ZM149.205 117.473C157.884 117.473 164.92 110.438 164.92 101.759C164.92 93.0796 157.884 86.0439 149.205 86.0439C140.526 86.0439 133.49 93.0796 133.49 101.759C133.49 110.438 140.526 117.473 149.205 117.473Z" fill="#999999"/>
<path fill-rule="evenodd" clip-rule="evenodd" d="M149.507 114.62C156.443 114.62 162.066 108.997 162.066 102.061C162.066 95.1251 156.443 89.5024 149.507 89.5024C142.571 89.5024 136.948 95.1251 136.948 102.061C136.948 108.997 142.571 114.62 149.507 114.62ZM149.507 115.66C157.018 115.66 163.106 109.572 163.106 102.061C163.106 94.5505 157.018 88.4619 149.507 88.4619C141.996 88.4619 135.908 94.5505 135.908 102.061C135.908 109.572 141.996 115.66 149.507 115.66Z" fill="#999999"/>
<path fill-rule="evenodd" clip-rule="evenodd" d="M97.9954 51.012C98.1494 50.7694 98.4709 50.6976 98.7134 50.8516L155.83 87.1161C156.073 87.2702 156.144 87.5916 155.99 87.8342C155.836 88.0768 155.515 88.1486 155.272 87.9946L98.1557 51.73C97.9131 51.576 97.8413 51.2545 97.9954 51.012ZM87.1341 76.3704C87.3029 76.1379 87.6282 76.0862 87.8608 76.2549L140.747 114.635C140.979 114.804 141.031 115.129 140.862 115.362C140.693 115.594 140.368 115.646 140.135 115.477L87.2496 77.097C87.0171 76.9283 86.9654 76.603 87.1341 76.3704Z" fill="#999999"/>
<path fill-rule="evenodd" clip-rule="evenodd" d="M26.2139 12.5329C28.9766 11.865 31.6419 12.0344 33.2731 12.4027C33.3351 12.4167 33.3941 12.442 33.4471 12.4773L55.2058 26.9831C55.4448 27.1425 55.5094 27.4655 55.3501 27.7046C55.1907 27.9437 54.8677 28.0083 54.6286 27.8489L32.9511 13.3972C31.4499 13.0745 28.9969 12.9306 26.4585 13.5443C23.8761 14.1686 21.2326 15.5689 19.3877 18.3362C17.5379 21.111 17.1438 24.205 17.4176 26.9719C17.685 29.6748 18.5873 32.0315 19.3482 33.4005L42.8192 49.3487C43.0568 49.5102 43.1186 49.8338 42.9571 50.0714C42.7956 50.3091 42.472 50.3708 42.2344 50.2094L18.6625 34.1925C18.597 34.148 18.5425 34.0891 18.5032 34.0203C17.6638 32.5515 16.672 30.0035 16.3822 27.0743C16.0918 24.1396 16.5036 20.7866 18.522 17.7591C20.5453 14.7241 23.4423 13.203 26.2139 12.5329Z" fill="#999999"/>
<path fill-rule="evenodd" clip-rule="evenodd" d="M22.1482 13.8304C22.3076 13.5913 22.6306 13.5267 22.8697 13.6861L51.8813 33.0271C52.1203 33.1865 52.1849 33.5095 52.0256 33.7486C51.8662 33.9877 51.5432 34.0523 51.3041 33.8929L22.2925 14.5518C22.0534 14.3924 21.9888 14.0694 22.1482 13.8304ZM18.519 19.2741C18.6761 19.0336 18.9985 18.9659 19.2391 19.123L48.8551 38.4641C49.0957 38.6212 49.1633 38.9436 49.0062 39.1842C48.8491 39.4247 48.5268 39.4924 48.2862 39.3353L18.6702 19.9942C18.4296 19.8371 18.3619 19.5147 18.519 19.2741ZM94.3701 57.0531C94.5253 56.8113 94.8471 56.7411 95.0889 56.8963L139.815 85.6058C140.057 85.761 140.127 86.0828 139.972 86.3246C139.817 86.5664 139.495 86.6366 139.253 86.4814L94.5269 57.772C94.2851 57.6168 94.2149 57.2949 94.3701 57.0531ZM92.5637 61.5758C92.7247 61.3378 93.0481 61.2753 93.2861 61.4363L135.293 89.8435C135.531 90.0044 135.593 90.3279 135.432 90.5659C135.271 90.8039 134.948 90.8663 134.71 90.7054L92.7033 62.2982C92.4652 62.1372 92.4028 61.8138 92.5637 61.5758Z" fill="#999999"/>
<path fill-rule="evenodd" clip-rule="evenodd" d="M85.374 79.6319C85.5771 79.4287 85.9065 79.4287 86.1097 79.6319C87.0783 80.6005 119.356 113.281 135.371 129.498C135.507 129.635 135.555 129.836 135.497 130.02L126.431 158.73C126.352 158.98 126.098 159.133 125.839 159.084L98.3389 153.947C98.2315 153.927 98.1332 153.873 98.0579 153.794L67.233 121.459C67.0348 121.251 67.0426 120.921 67.2506 120.723C67.4586 120.525 67.7879 120.533 67.9861 120.741L98.6951 152.955L125.578 157.977L134.411 130.006C118.319 113.712 86.3351 81.3287 85.374 80.3676C85.1708 80.1644 85.1708 79.835 85.374 79.6319ZM83.8676 81.7427C84.0733 81.5421 84.4026 81.5462 84.6033 81.7519L132.352 130.709C132.484 130.844 132.532 131.041 132.477 131.222L125.225 155.398C125.147 155.655 124.887 155.811 124.624 155.759L100.448 150.924C100.347 150.903 100.255 150.854 100.182 150.781L68.7527 119.352C68.5496 119.149 68.5496 118.819 68.7527 118.616C68.9559 118.413 69.2853 118.413 69.4885 118.616L100.806 149.934L123.254 154.424L75.6894 103.018C75.4943 102.808 75.5071 102.478 75.718 102.283C75.9289 102.088 76.258 102.101 76.4532 102.312L124.49 154.227L131.393 131.216L83.8584 82.4784C83.6578 82.2727 83.6619 81.9433 83.8676 81.7427Z" fill="#999999"/>
<path fill-rule="evenodd" clip-rule="evenodd" d="M24.0922 39.5889C24.3796 39.5889 24.6125 39.8218 24.6125 40.1091V46.7576C24.6125 47.0449 24.3796 47.2779 24.0922 47.2779H7.96362L30.237 74.5334C30.4188 74.7559 30.3858 75.0837 30.1633 75.2655C29.9408 75.4473 29.6131 75.4143 29.4313 75.1918L6.61987 47.2779H5.23604L28.7278 76.3489C28.9083 76.5723 28.8736 76.8999 28.6501 77.0805C28.4266 77.2611 28.099 77.2263 27.9185 77.0028L3.7421 47.0846C3.61612 46.9287 3.59091 46.7143 3.6773 46.5334C3.76368 46.3525 3.9463 46.2374 4.14675 46.2374H23.572V40.1091C23.572 39.8218 23.8049 39.5889 24.0922 39.5889ZM25.8608 48.4853C26.0749 48.2937 26.4038 48.312 26.5954 48.5261L36.8703 60.0099C37.0619 60.224 37.0437 60.5529 36.8295 60.7445C36.6154 60.9361 36.2865 60.9178 36.0949 60.7037L25.82 49.2199C25.6284 49.0058 25.6466 48.6769 25.8608 48.4853Z" fill="#999999"/>
<path fill-rule="evenodd" clip-rule="evenodd" d="M36.6768 133.774C36.7754 133.648 36.9266 133.574 37.0868 133.574H46.153C46.3853 133.574 46.5894 133.728 46.6532 133.952L53.9061 159.337C53.954 159.504 53.9148 159.685 53.8016 159.817C53.6884 159.95 53.5163 160.017 53.3433 159.996L43.3705 158.787C43.1589 158.762 42.9843 158.609 42.93 158.403C40.9163 150.751 36.8249 135.192 36.5821 134.221C36.5433 134.065 36.5782 133.901 36.6768 133.774ZM37.7583 134.615C38.5743 137.752 41.9981 150.773 43.8464 157.797L52.6903 158.869L45.7606 134.615H37.7583Z" fill="#999999"/>
<path fill-rule="evenodd" clip-rule="evenodd" d="M0.110191 128.033C0.208782 127.907 0.360052 127.833 0.520255 127.833H9.58639C9.81867 127.833 10.0228 127.987 10.0866 128.21L17.3395 153.596C17.3874 153.763 17.3482 153.944 17.235 154.076C17.1218 154.209 16.9498 154.276 16.7767 154.255L6.80395 153.046C6.59228 153.02 6.41769 152.868 6.36343 152.662C4.34966 145.01 0.258337 129.451 0.0155381 128.479C-0.023317 128.324 0.0115998 128.159 0.110191 128.033ZM1.19174 128.874C2.0077 132.011 5.43152 145.032 7.27979 152.056L16.1237 153.128L9.19396 128.874H1.19174Z" fill="#999999"/>
<path fill-rule="evenodd" clip-rule="evenodd" d="M68.6615 0.275539C68.7519 0.105946 68.9284 0 69.1206 0H78.4889C78.7762 0 79.0092 0.232924 79.0092 0.52025V8.49883L94.483 9.64505L97.0534 3.93321C97.1374 3.74652 97.3231 3.62645 97.5278 3.62645H107.198C107.474 3.62645 107.702 3.84117 107.718 4.11615L108.926 24.666C108.931 24.7446 108.918 24.8231 108.888 24.8958L53.2822 159.074C53.1722 159.34 52.8678 159.466 52.6024 159.356C52.3369 159.246 52.2109 158.942 52.3209 158.676L107.881 24.6078L106.8 6.22821L46.9266 134.315C46.8049 134.575 46.4952 134.688 46.235 134.566C45.9747 134.444 45.8623 134.135 45.984 133.874L106.381 4.66695H97.8642L95.2824 10.4043L95.28 10.4095L37.8612 134.313C37.7403 134.574 37.4311 134.687 37.1704 134.567C36.9097 134.446 36.7963 134.137 36.9171 133.876L37.1588 133.354L19.8266 132.196C19.6526 132.184 19.4961 132.086 19.4096 131.935C19.3231 131.784 19.3181 131.599 19.3964 131.443L78.0241 14.7924C78.1531 14.5357 78.4658 14.4322 78.7225 14.5612C78.9793 14.6902 79.0828 15.003 78.9538 15.2597L20.6782 131.21L37.6275 132.343L94.0199 10.6541L78.4505 9.5008C78.1788 9.48068 77.9687 9.25439 77.9687 8.98197V2.59423L10.3472 128.9C10.2116 129.154 9.89629 129.249 9.64298 129.114C9.38967 128.978 9.29426 128.663 9.42988 128.409L77.6203 1.0405H69.4328L1.28151 128.9C1.14636 129.153 0.831246 129.249 0.57769 129.114C0.324133 128.979 0.228146 128.664 0.363297 128.41L68.6615 0.275539ZM19.3919 146.26C19.4856 146.065 19.6908 145.948 19.907 145.967L40.4569 147.78C40.7431 147.805 40.9547 148.058 40.9294 148.344C40.9042 148.63 40.6517 148.842 40.3654 148.816L20.1749 147.035L17.0064 153.66C16.8824 153.919 16.5718 154.029 16.3126 153.905C16.0534 153.781 15.9437 153.47 16.0677 153.211L19.3919 146.26Z" fill="#999999"/>
<path fill-rule="evenodd" clip-rule="evenodd" d="M101.547 41.2348C101.594 40.9512 101.861 40.7586 102.144 40.8046L159.865 50.173C160.149 50.219 160.342 50.4862 160.296 50.7699C160.25 51.0535 159.982 51.2461 159.699 51.2L101.978 41.8317C101.694 41.7857 101.501 41.5184 101.547 41.2348ZM106.66 44.2746C106.863 44.4777 106.863 44.8071 106.66 45.0103L103.638 48.0323C103.435 48.2355 103.105 48.2355 102.902 48.0323C102.699 47.8292 102.699 47.4998 102.902 47.2966L105.924 44.2746C106.127 44.0714 106.457 44.0714 106.66 44.2746ZM112.665 45.4486C112.888 45.6305 112.921 45.9583 112.739 46.1807L110.019 49.5049C109.837 49.7273 109.509 49.7601 109.287 49.5781C109.064 49.3962 109.032 49.0684 109.213 48.8461L111.933 45.5218C112.115 45.2994 112.443 45.2666 112.665 45.4486ZM119.918 46.9596C120.141 47.1416 120.173 47.4693 119.992 47.6917L117.272 51.016C117.09 51.2383 116.762 51.2711 116.54 51.0892C116.317 50.9072 116.284 50.5795 116.466 50.3571L119.186 47.0328C119.368 46.8104 119.696 46.7777 119.918 46.9596ZM98.5339 48.1439C98.6029 47.865 98.885 47.6948 99.1639 47.7639L157.792 62.2697C158.07 62.3387 158.241 62.6207 158.172 62.8996C158.103 63.1786 157.821 63.3487 157.542 63.2797L98.914 48.7739C98.6351 48.7049 98.4649 48.4228 98.5339 48.1439ZM130.245 47.9149C130.441 48.1254 130.428 48.4546 130.218 48.6501L125.987 52.5788C125.776 52.7743 125.447 52.7621 125.252 52.5515C125.056 52.341 125.068 52.0118 125.279 51.8163L129.51 47.8876C129.72 47.6921 130.05 47.7043 130.245 47.9149ZM139.323 49.4392C139.511 49.6563 139.488 49.9849 139.271 50.173L134.738 54.1017C134.52 54.2899 134.192 54.2664 134.004 54.0493C133.816 53.8322 133.839 53.5036 134.056 53.3154L138.589 49.3868C138.806 49.1986 139.135 49.222 139.323 49.4392ZM148.666 50.923C148.869 51.1262 148.869 51.4556 148.666 51.6588L144.133 56.1919C143.93 56.395 143.601 56.395 143.397 56.1919C143.194 55.9887 143.194 55.6593 143.397 55.4561L147.93 50.923C148.134 50.7199 148.463 50.7199 148.666 50.923Z" fill="#999999"/>
<path fill-rule="evenodd" clip-rule="evenodd" d="M158.875 62.0368C161.16 62.0368 163.275 59.8176 163.275 56.7311C163.275 53.6445 161.16 51.4253 158.875 51.4253C156.59 51.4253 154.476 53.6445 154.476 56.7311C154.476 59.8176 156.59 62.0368 158.875 62.0368ZM158.875 63.0773C161.88 63.0773 164.315 60.236 164.315 56.7311C164.315 53.2261 161.88 50.3848 158.875 50.3848C155.871 50.3848 153.436 53.2261 153.436 56.7311C153.436 60.236 155.871 63.0773 158.875 63.0773Z" fill="#999999"/>
</svg>
