<svg width="125" height="180" viewBox="0 0 125 180" fill="none" xmlns="http://www.w3.org/2000/svg">
<path fill-rule="evenodd" clip-rule="evenodd" d="M0 62.4816C0 54.7323 6.28209 48.4502 14.0314 48.4502H109.992C117.746 48.4502 124.023 54.8553 124.023 62.6003C124.023 70.2153 117.851 76.5131 110.227 76.5131V75.733C117.411 75.733 123.243 69.7933 123.243 62.6003C123.243 55.2773 117.306 49.2302 109.992 49.2302H14.0314C6.71288 49.2302 0.78002 55.1631 0.78002 62.4816C0.78002 69.8002 6.71288 75.733 14.0314 75.733H14.5018V76.5131H14.0314C6.28208 76.5131 0 70.231 0 62.4816Z" fill="#999999"/>
<path fill-rule="evenodd" clip-rule="evenodd" d="M14.0243 75.7335C14.2396 75.7295 14.4174 75.901 14.4213 76.1163L16.0244 164.286C16.1752 172.577 22.9396 179.22 31.2323 179.22H95.0969C103.497 179.22 110.307 172.41 110.307 164.01V76.1234C110.307 75.908 110.482 75.7334 110.697 75.7334C110.913 75.7334 111.087 75.908 111.087 76.1234V164.01C111.087 172.841 103.928 180 95.0969 180H31.2323C22.5143 180 15.403 173.017 15.2445 164.3L13.6414 76.1305C13.6375 75.9151 13.8089 75.7374 14.0243 75.7335Z" fill="#999999"/>
<path fill-rule="evenodd" clip-rule="evenodd" d="M99.6912 93.5277C99.6912 93.3123 99.8658 93.1377 100.081 93.1377H110.462C110.678 93.1377 110.852 93.3123 110.852 93.5277C110.852 93.7431 110.678 93.9177 110.462 93.9177H100.081C99.8658 93.9177 99.6912 93.7431 99.6912 93.5277Z" fill="#999999"/>
<path fill-rule="evenodd" clip-rule="evenodd" d="M95.0197 86.472C95.0197 86.2566 95.1943 86.082 95.4097 86.082H110.462C110.678 86.082 110.852 86.2566 110.852 86.472C110.852 86.6874 110.678 86.8621 110.462 86.8621H95.4097C95.1943 86.8621 95.0197 86.6874 95.0197 86.472Z" fill="#999999"/>
<path fill-rule="evenodd" clip-rule="evenodd" d="M99.6912 110.932C99.6912 110.717 99.8658 110.542 100.081 110.542H110.462C110.678 110.542 110.852 110.717 110.852 110.932C110.852 111.147 110.678 111.322 110.462 111.322H100.081C99.8658 111.322 99.6912 111.147 99.6912 110.932Z" fill="#999999"/>
<path fill-rule="evenodd" clip-rule="evenodd" d="M95.0198 103.876C95.0198 103.661 95.1944 103.486 95.4098 103.486H110.462C110.678 103.486 110.852 103.661 110.852 103.876C110.852 104.092 110.678 104.266 110.462 104.266H95.4098C95.1944 104.266 95.0198 104.092 95.0198 103.876Z" fill="#999999"/>
<path fill-rule="evenodd" clip-rule="evenodd" d="M99.6912 126.925C99.6912 126.71 99.8658 126.535 100.081 126.535H110.462C110.678 126.535 110.852 126.71 110.852 126.925C110.852 127.141 110.678 127.315 110.462 127.315H100.081C99.8658 127.315 99.6912 127.141 99.6912 126.925Z" fill="#999999"/>
<path fill-rule="evenodd" clip-rule="evenodd" d="M95.0198 119.87C95.0198 119.654 95.1944 119.479 95.4098 119.479H110.462C110.678 119.479 110.852 119.654 110.852 119.87C110.852 120.085 110.678 120.26 110.462 120.26H95.4098C95.1944 120.26 95.0198 120.085 95.0198 119.87Z" fill="#999999"/>
<path fill-rule="evenodd" clip-rule="evenodd" d="M99.6912 142.919C99.6912 142.704 99.8658 142.529 100.081 142.529H110.462C110.678 142.529 110.852 142.704 110.852 142.919C110.852 143.135 110.678 143.309 110.462 143.309H100.081C99.8658 143.309 99.6912 143.135 99.6912 142.919Z" fill="#999999"/>
<path fill-rule="evenodd" clip-rule="evenodd" d="M95.0198 135.864C95.0198 135.648 95.1944 135.474 95.4098 135.474H110.462C110.678 135.474 110.852 135.648 110.852 135.864C110.852 136.079 110.678 136.254 110.462 136.254H95.4098C95.1944 136.254 95.0198 136.079 95.0198 135.864Z" fill="#999999"/>
<path fill-rule="evenodd" clip-rule="evenodd" d="M99.6912 159.853C99.6912 159.638 99.8658 159.463 100.081 159.463H110.462C110.678 159.463 110.852 159.638 110.852 159.853C110.852 160.068 110.678 160.243 110.462 160.243H100.081C99.8658 160.243 99.6912 160.068 99.6912 159.853Z" fill="#999999"/>
<path fill-rule="evenodd" clip-rule="evenodd" d="M95.0198 152.797C95.0198 152.582 95.1944 152.407 95.4098 152.407H110.462C110.678 152.407 110.852 152.582 110.852 152.797C110.852 153.013 110.678 153.187 110.462 153.187H95.4098C95.1944 153.187 95.0198 153.013 95.0198 152.797Z" fill="#999999"/>
<path fill-rule="evenodd" clip-rule="evenodd" d="M41.9538 95.8053C35.7591 95.6885 29.8638 97.3324 27.0395 100.947C26.9069 101.117 26.6618 101.147 26.492 101.015C26.3223 100.882 26.2922 100.637 26.4248 100.467C29.4804 96.5561 35.6978 94.9072 41.9685 95.0255C48.2524 95.144 54.7683 97.0383 58.5099 100.418C58.6698 100.562 58.6823 100.809 58.5379 100.969C58.3936 101.129 58.1469 101.141 57.9871 100.997C54.4377 97.7908 48.1353 95.9219 41.9538 95.8053Z" fill="#999999"/>
<path fill-rule="evenodd" clip-rule="evenodd" d="M74.3064 99.1601C71.4691 99.1102 68.5801 99.6531 66.8835 100.734C66.7005 100.85 66.5561 100.993 66.3803 101.168C66.3133 101.234 66.2417 101.305 66.1617 101.381C65.4043 102.099 64.0454 102.855 62.482 102.855C61.0028 102.855 60.0482 102.505 59.3647 102.078C59.0281 101.868 58.7661 101.644 58.5526 101.455C58.5262 101.432 58.5008 101.41 58.4765 101.388C58.2937 101.226 58.1682 101.115 58.0458 101.04C57.8618 100.929 57.8033 100.689 57.9153 100.505C58.0272 100.321 58.2671 100.262 58.4512 100.374C58.6383 100.488 58.8224 100.652 58.9949 100.805C59.0198 100.827 59.0445 100.849 59.0689 100.871C59.2743 101.052 59.4974 101.241 59.7782 101.417C60.3294 101.761 61.1389 102.075 62.482 102.075C63.8059 102.075 64.9809 101.426 65.6252 100.815C65.6745 100.768 65.7273 100.716 65.7833 100.66C65.9745 100.47 66.2038 100.242 66.4645 100.076C68.3485 98.8759 71.4176 98.3292 74.3201 98.3802C75.7801 98.4059 77.2198 98.5829 78.474 98.9153C79.7214 99.2459 80.8186 99.739 81.5613 100.42C81.7201 100.565 81.7308 100.812 81.5853 100.971C81.4397 101.13 81.193 101.14 81.0342 100.995C80.4232 100.435 79.4631 99.9844 78.2741 99.6693C77.092 99.356 75.7164 99.1849 74.3064 99.1601Z" fill="#999999"/>
<path fill-rule="evenodd" clip-rule="evenodd" d="M36.3751 127.087C39.1917 127.087 41.475 124.804 41.475 121.987C41.475 119.171 39.1917 116.887 36.3751 116.887C33.5585 116.887 31.2752 119.171 31.2752 121.987C31.2752 124.804 33.5585 127.087 36.3751 127.087ZM36.3751 127.867C39.6225 127.867 42.255 125.235 42.255 121.987C42.255 118.74 39.6225 116.107 36.3751 116.107C33.1277 116.107 30.4952 118.74 30.4952 121.987C30.4952 125.235 33.1277 127.867 36.3751 127.867Z" fill="#999999"/>
<path fill-rule="evenodd" clip-rule="evenodd" d="M55.1909 111.564C56.4488 111.564 57.4685 110.544 57.4685 109.286C57.4685 108.028 56.4488 107.009 55.1909 107.009C53.9331 107.009 52.9134 108.028 52.9134 109.286C52.9134 110.544 53.9331 111.564 55.1909 111.564ZM55.1909 112.344C56.8796 112.344 58.2485 110.975 58.2485 109.286C58.2485 107.597 56.8796 106.229 55.1909 106.229C53.5023 106.229 52.1334 107.597 52.1334 109.286C52.1334 110.975 53.5023 112.344 55.1909 112.344Z" fill="#999999"/>
<path fill-rule="evenodd" clip-rule="evenodd" d="M75.4178 137.435C77.7149 137.435 79.577 135.573 79.577 133.276C79.577 130.979 77.7149 129.117 75.4178 129.117C73.1208 129.117 71.2587 130.979 71.2587 133.276C71.2587 135.573 73.1208 137.435 75.4178 137.435ZM75.4178 138.215C78.1456 138.215 80.357 136.004 80.357 133.276C80.357 130.548 78.1456 128.337 75.4178 128.337C72.69 128.337 70.4787 130.548 70.4787 133.276C70.4787 136.004 72.69 138.215 75.4178 138.215Z" fill="#999999"/>
<path fill-rule="evenodd" clip-rule="evenodd" d="M58.2484 160.955C61.7145 160.955 64.5243 158.145 64.5243 154.679C64.5243 151.213 61.7145 148.403 58.2484 148.403C54.7823 148.403 51.9725 151.213 51.9725 154.679C51.9725 158.145 54.7823 160.955 58.2484 160.955ZM58.2484 161.735C62.1453 161.735 65.3043 158.576 65.3043 154.679C65.3043 150.782 62.1453 147.623 58.2484 147.623C54.3515 147.623 51.1925 150.782 51.1925 154.679C51.1925 158.576 54.3515 161.735 58.2484 161.735Z" fill="#999999"/>
<path fill-rule="evenodd" clip-rule="evenodd" d="M70.4787 120.501C71.3469 120.501 72.0507 119.797 72.0507 118.929C72.0507 118.061 71.3469 117.357 70.4787 117.357C69.6106 117.357 68.9068 118.061 68.9068 118.929C68.9068 119.797 69.6106 120.501 70.4787 120.501ZM70.4787 121.281C71.7777 121.281 72.8307 120.228 72.8307 118.929C72.8307 117.63 71.7777 116.577 70.4787 116.577C69.1798 116.577 68.1268 117.63 68.1268 118.929C68.1268 120.228 69.1798 121.281 70.4787 121.281Z" fill="#999999"/>
<path fill-rule="evenodd" clip-rule="evenodd" d="M39.4602 0C39.6756 0 39.8502 0.174613 39.8502 0.39001C39.8502 1.85361 39.575 2.96833 39.1454 3.89784C38.7184 4.82167 38.146 5.54558 37.5853 6.22433C37.5302 6.29112 37.475 6.35755 37.4201 6.4238C36.3598 7.70175 35.3569 8.91056 35.1447 11.2444C35.0142 12.6796 35.3881 14.0476 36.0487 15.4123C36.7119 16.7824 37.6507 18.1235 38.6295 19.51C38.6636 19.5582 38.6977 19.6065 38.7318 19.6548C40.6352 22.3498 42.6726 25.2344 42.6726 28.6136C42.6726 28.6215 42.6723 28.6294 42.6719 28.6372C42.4355 32.5381 41.8068 35.018 40.5491 36.8035C39.2889 38.5925 37.4361 39.6273 34.9125 40.7308C34.7152 40.8171 34.4852 40.7271 34.3989 40.5297C34.3126 40.3324 34.4026 40.1025 34.6 40.0162C37.109 38.919 38.7842 37.9546 39.9114 36.3543C41.04 34.7521 41.6581 32.4554 41.8925 28.602C41.8878 25.4774 39.9799 22.7751 38.0228 20.003L37.9923 19.9599C37.0201 18.5828 36.0425 17.1898 35.3467 15.7522C34.6482 14.3093 34.2203 12.7961 34.3678 11.1738L34.7563 11.2091L34.3678 11.1738C34.6023 8.59552 35.7415 7.2239 36.8092 5.93831C36.8677 5.86786 36.926 5.79767 36.984 5.72755C37.5404 5.05392 38.0558 4.39604 38.4373 3.57059C38.8162 2.75083 39.0702 1.74877 39.0702 0.39001C39.0702 0.174613 39.2448 0 39.4602 0Z" fill="#999999"/>
<path fill-rule="evenodd" clip-rule="evenodd" d="M50.7497 0C50.9651 0 51.1397 0.174613 51.1397 0.39001C51.1397 1.85361 50.8645 2.96833 50.4349 3.89784C50.0079 4.82167 49.4355 5.54558 48.8748 6.22433C48.8196 6.29112 48.7645 6.35755 48.7096 6.4238C47.6493 7.70175 46.6463 8.91056 46.4341 11.2444C46.3037 12.6796 46.6776 14.0476 47.3382 15.4123C48.0014 16.7824 48.9402 18.1235 49.919 19.51C49.9531 19.5582 49.9872 19.6065 50.0213 19.6548C51.9247 22.3498 53.9621 25.2344 53.9621 28.6136C53.9621 28.6215 53.9618 28.6294 53.9613 28.6372C53.725 32.5381 53.0963 35.018 51.8386 36.8035C50.5784 38.5925 48.7256 39.6273 46.202 40.7308C46.0046 40.8171 45.7747 40.7271 45.6884 40.5297C45.6021 40.3324 45.6921 40.1025 45.8895 40.0162C48.3985 38.919 50.0736 37.9546 51.2009 36.3543C52.3295 34.7521 52.9476 32.4554 53.182 28.602C53.1773 25.4774 51.2694 22.7751 49.3123 20.003L49.2818 19.9599C48.3096 18.5828 47.332 17.1898 46.6361 15.7522C45.9377 14.3093 45.5098 12.7961 45.6573 11.1738L46.0457 11.2091L45.6573 11.1738C45.8917 8.59552 47.031 7.2239 48.0987 5.93831C48.1572 5.86786 48.2155 5.79767 48.2734 5.72755C48.8299 5.05392 49.3453 4.39604 49.7268 3.57059C50.1057 2.75083 50.3597 1.74877 50.3597 0.39001C50.3597 0.174613 50.5343 0 50.7497 0Z" fill="#999999"/>
<path fill-rule="evenodd" clip-rule="evenodd" d="M62.039 0C62.2544 0 62.429 0.174613 62.429 0.39001C62.429 1.85361 62.1538 2.96833 61.7242 3.89784C61.2972 4.82167 60.7248 5.54558 60.1641 6.22433C60.1089 6.29112 60.0538 6.35755 59.9989 6.4238C58.9386 7.70175 57.9356 8.91056 57.7235 11.2444C57.593 12.6796 57.9669 14.0476 58.6275 15.4123C59.2907 16.7824 60.2295 18.1235 61.2083 19.51C61.2424 19.5582 61.2765 19.6065 61.3106 19.6548C63.214 22.3498 65.2514 25.2344 65.2514 28.6136C65.2514 28.6215 65.2511 28.6294 65.2506 28.6372C65.0143 32.5381 64.3856 35.018 63.1279 36.8035C61.8677 38.5925 60.0149 39.6273 57.4913 40.7308C57.294 40.8171 57.064 40.7271 56.9777 40.5297C56.8914 40.3324 56.9814 40.1025 57.1788 40.0162C59.6878 38.919 61.3629 37.9546 62.4902 36.3543C63.6188 34.7521 64.2369 32.4554 64.4713 28.602C64.4666 25.4774 62.5587 22.7751 60.6016 20.003L60.5711 19.9599C59.5989 18.5828 58.6213 17.1898 57.9254 15.7522C57.227 14.3093 56.7991 12.7961 56.9466 11.1738L57.335 11.2091L56.9466 11.1738C57.1811 8.59552 58.3203 7.2239 59.388 5.93831C59.4465 5.86786 59.5048 5.79767 59.5628 5.72755C60.1192 5.05392 60.6346 4.39604 61.0161 3.57059C61.395 2.75083 61.649 1.74877 61.649 0.39001C61.649 0.174613 61.8236 0 62.039 0Z" fill="#999999"/>
<path fill-rule="evenodd" clip-rule="evenodd" d="M73.3284 0C73.5438 0 73.7184 0.174613 73.7184 0.39001C73.7184 1.85361 73.4432 2.96833 73.0136 3.89784C72.5866 4.82167 72.0143 5.54558 71.4535 6.22433C71.3984 6.29112 71.3433 6.35755 71.2883 6.4238C70.228 7.70175 69.2251 8.91056 69.0129 11.2444C68.8824 12.6796 69.2564 14.0476 69.917 15.4123C70.5802 16.7824 71.5189 18.1235 72.4978 19.51C72.5318 19.5582 72.5659 19.6065 72.6 19.6548C74.5034 22.3498 76.5408 25.2344 76.5408 28.6136C76.5408 28.6215 76.5406 28.6294 76.5401 28.6372C76.3037 32.5381 75.675 35.018 74.4173 36.8035C73.1571 38.5925 71.3043 39.6273 68.7807 40.7308C68.5834 40.8171 68.3534 40.7271 68.2671 40.5297C68.1808 40.3324 68.2709 40.1025 68.4682 40.0162C70.9772 38.919 72.6524 37.9546 73.7796 36.3543C74.9082 34.7521 75.5263 32.4554 75.7608 28.602C75.756 25.4774 73.8481 22.7751 71.891 20.003L71.8606 19.9599C70.8884 18.5828 69.9108 17.1898 69.2149 15.7522C68.5164 14.3093 68.0886 12.7961 68.2361 11.1738L68.6245 11.2091L68.2361 11.1738C68.4705 8.59552 69.6097 7.2239 70.6774 5.93831C70.736 5.86786 70.7943 5.79767 70.8522 5.72755C71.4087 5.05392 71.924 4.39604 72.3056 3.57059C72.6844 2.75083 72.9384 1.74877 72.9384 0.39001C72.9384 0.174613 73.113 0 73.3284 0Z" fill="#999999"/>
<path fill-rule="evenodd" clip-rule="evenodd" d="M84.6179 0C84.8333 0 85.0079 0.174613 85.0079 0.39001C85.0079 1.85361 84.7327 2.96833 84.3031 3.89784C83.8761 4.82167 83.3037 5.54558 82.743 6.22433C82.6879 6.29112 82.6327 6.35755 82.5778 6.4238C81.5175 7.70175 80.5146 8.91056 80.3024 11.2444C80.1719 12.6796 80.5458 14.0476 81.2065 15.4123C81.8697 16.7824 82.8084 18.1235 83.7873 19.51C83.8213 19.5582 83.8554 19.6065 83.8895 19.6548C85.7929 22.3498 87.8303 25.2344 87.8303 28.6136C87.8303 28.6215 87.83 28.6294 87.8296 28.6372C87.5932 32.5381 86.9645 35.018 85.7068 36.8035C84.4466 38.5925 82.5938 39.6273 80.0702 40.7308C79.8729 40.8171 79.6429 40.7271 79.5566 40.5297C79.4703 40.3324 79.5604 40.1025 79.7577 40.0162C82.2667 38.919 83.9419 37.9546 85.0691 36.3543C86.1977 34.7521 86.8158 32.4554 87.0502 28.602C87.0455 25.4774 85.1376 22.7751 83.1805 20.003L83.15 19.9599C82.1778 18.5828 81.2002 17.1898 80.5044 15.7522C79.8059 14.3093 79.3781 12.7961 79.5256 11.1738L79.914 11.2091L79.5256 11.1738C79.76 8.59552 80.8992 7.2239 81.9669 5.93831C82.0254 5.86786 82.0837 5.79767 82.1417 5.72755C82.6981 5.05392 83.2135 4.39604 83.595 3.57059C83.9739 2.75083 84.2279 1.74877 84.2279 0.39001C84.2279 0.174613 84.4025 0 84.6179 0Z" fill="#999999"/>
</svg>
