<svg width="201" height="160" viewBox="0 0 201 160" fill="none" xmlns="http://www.w3.org/2000/svg">
<path fill-rule="evenodd" clip-rule="evenodd" d="M44.6544 39.3662C44.7447 39.212 44.91 39.1172 45.0887 39.1172H68.2227C68.4613 39.1172 68.6671 39.2848 68.7154 39.5184L73.7628 63.9143C73.8191 64.1864 73.6442 64.4526 73.3721 64.5089C73.0999 64.5652 72.8337 64.3903 72.7774 64.1182L67.813 40.1235H45.3772L35.428 57.1199C35.3446 57.2625 35.1964 57.355 35.0317 57.3674L12.7389 59.0499C12.4618 59.0708 12.2202 58.8631 12.1993 58.586C12.1784 58.3089 12.3861 58.0674 12.6632 58.0465L34.6929 56.3838L44.6544 39.3662Z" fill="#999999"/>
<path fill-rule="evenodd" clip-rule="evenodd" d="M34.9569 57.0773C35.0725 56.8246 35.371 56.7133 35.6237 56.8289L50.2457 63.5132H73.2702C73.5481 63.5132 73.7733 63.7385 73.7733 64.0164C73.7733 64.2942 73.5481 64.5195 73.2702 64.5195H50.1362C50.064 64.5195 49.9926 64.504 49.927 64.474L49.5822 64.3163L48.5356 85.0726C48.5216 85.3502 48.2853 85.5638 48.0077 85.5498C47.7302 85.5358 47.5166 85.2995 47.5306 85.022L48.5973 63.8661L35.2053 57.7441C34.9526 57.6285 34.8414 57.33 34.9569 57.0773Z" fill="#999999"/>
<path fill-rule="evenodd" clip-rule="evenodd" d="M38.702 83.7143C38.7413 83.4392 38.9962 83.248 39.2713 83.2873L48.1043 84.5492C48.3793 84.5885 48.5705 84.8434 48.5312 85.1184C48.4919 85.3935 48.237 85.5847 47.9619 85.5454L39.129 84.2835C38.8539 84.2442 38.6627 83.9894 38.702 83.7143Z" fill="#999999"/>
<path fill-rule="evenodd" clip-rule="evenodd" d="M12.4413 58.4924C12.7046 58.5812 12.846 58.8666 12.7572 59.1299L1.0611 93.8005L22.2256 124.095L37.4815 124.821L27.1797 119.137C27.0473 119.064 26.9548 118.936 26.9277 118.787C26.6461 117.238 26.2655 114.892 26.0395 112.886C25.9267 111.885 25.8507 110.954 25.847 110.245C25.8452 109.893 25.8609 109.574 25.9061 109.32C25.9285 109.194 25.9619 109.062 26.0166 108.943C26.0676 108.832 26.1665 108.668 26.3565 108.573C26.3555 108.573 26.3557 108.573 26.3573 108.572C26.3619 108.569 26.3776 108.56 26.409 108.54C26.4469 108.516 26.497 108.483 26.56 108.441C26.6856 108.356 26.8541 108.238 27.0621 108.091C27.4777 107.796 28.0434 107.387 28.7245 106.89C30.0864 105.897 31.9043 104.554 33.8949 103.077C37.8758 100.123 42.5439 96.6323 45.6281 94.3192C45.7124 94.2559 45.8146 94.2207 45.92 94.2186L88.4025 93.3774C88.5183 93.3751 88.6313 93.4128 88.7225 93.4842L108.071 108.626C108.273 108.785 108.324 109.069 108.189 109.288L108.075 109.471C108.169 109.546 108.237 109.655 108.258 109.784L110.361 122.823C110.392 123.016 110.309 123.209 110.147 123.319L91.6402 135.937C91.5628 135.99 91.4722 136.02 91.3786 136.024L62.3559 137.286C62.2705 137.29 62.1856 137.272 62.1091 137.234L39.4907 125.924L21.9308 125.088C21.775 125.081 21.6315 125.002 21.5422 124.874L0.0906905 94.1686C-0.00080713 94.0376 -0.0246679 93.871 0.0264004 93.7196L11.8037 58.8083C11.8925 58.545 12.178 58.4035 12.4413 58.4924ZM39.8549 124.981L62.4425 136.275L90.4987 135.055L86.8834 128.909L65.7578 131.395C65.6072 131.412 65.4566 131.361 65.348 131.255C65.2394 131.15 65.1842 131 65.198 130.849C65.479 127.757 66.0061 123.034 66.6745 118.911C67.0085 116.851 67.3796 114.929 67.7758 113.431C67.9736 112.684 68.1809 112.029 68.3979 111.512C68.5043 111.258 68.6215 111.015 68.7533 110.805C65.1808 108.286 59.9615 104.635 55.3722 101.488C52.9809 99.8482 50.7627 98.3467 49.0383 97.2137C48.1759 96.6471 47.4397 96.1744 46.8684 95.8233C46.4841 95.5871 46.19 95.4159 45.9872 95.3077C42.9037 97.6197 38.3734 101.007 34.4945 103.885C32.5033 105.363 30.6828 106.707 29.3177 107.703C28.6353 108.201 28.0653 108.613 27.644 108.912C27.4336 109.061 27.2584 109.183 27.1239 109.274C27.0501 109.324 26.978 109.372 26.9155 109.411C26.9098 109.432 26.9033 109.46 26.8968 109.497C26.8675 109.661 26.8516 109.91 26.8533 110.24C26.8567 110.894 26.9279 111.783 27.0394 112.773C27.251 114.65 27.6014 116.841 27.8754 118.372L39.8549 124.981ZM47.7541 95.1888C48.2738 95.5145 48.8934 95.9144 49.5909 96.3727C51.3235 97.5111 53.5481 99.017 55.9413 100.658C60.5905 103.846 65.8838 107.549 69.4611 110.073C71.7476 108.155 81.4653 99.451 87.0712 94.4102L47.7541 95.1888ZM87.8411 95.0712C82.5886 99.7946 73.5526 107.89 70.5745 110.447L86.7536 114.283L87.8411 95.0712ZM87.7042 115.297L106.648 109.865L91.3678 134.548L87.6537 128.234V116.188L87.7042 115.297ZM86.6474 127.924V116.173C86.6474 116.169 86.6475 116.166 86.6476 116.162C86.6477 116.156 86.6479 116.15 86.6482 116.145L86.6959 115.304L69.656 111.263C69.564 111.396 69.4514 111.601 69.3259 111.901C69.1343 112.358 68.9407 112.963 68.7486 113.689C68.3648 115.139 67.9998 117.024 67.6679 119.072C67.0473 122.9 66.5484 127.257 66.2575 130.323L86.6474 127.924ZM93.033 133.77L107.371 110.608L109.316 122.668L93.033 133.77ZM106.674 108.811L87.7644 114.232L88.8604 94.8699L106.674 108.811Z" fill="#999999"/>
<path fill-rule="evenodd" clip-rule="evenodd" d="M14.016 81.3391C14.1194 81.2286 14.267 81.1705 14.418 81.1809C18.485 81.4614 24.6279 81.9031 29.8389 82.3169C32.444 82.5238 34.8185 82.7239 36.5849 82.8934C37.4676 82.9781 38.2021 83.0555 38.7389 83.1227C39.0067 83.1562 39.2305 83.1878 39.401 83.2172C39.4859 83.2318 39.5631 83.2468 39.6286 83.2624C39.6817 83.2751 39.7681 83.2972 39.8455 83.3359C39.9831 83.4047 40.0817 83.5327 40.1131 83.6833C40.1445 83.8339 40.1052 83.9906 40.0065 84.1087L18.555 109.766C18.4272 109.919 18.2212 109.982 18.0297 109.927C17.8382 109.872 17.6974 109.709 17.6704 109.512L13.8849 81.7508C13.8644 81.6008 13.9126 81.4496 14.016 81.3391ZM14.9655 82.2275L18.5136 108.247L38.6776 84.1292C38.6568 84.1266 38.6356 84.1239 38.6139 84.1212C38.0916 84.0558 37.3684 83.9795 36.4888 83.8951C34.7307 83.7263 32.3628 83.5268 29.7592 83.3201C24.8099 82.9271 19.0175 82.5086 14.9655 82.2275Z" fill="#999999"/>
<path fill-rule="evenodd" clip-rule="evenodd" d="M109.368 30.2909C109.55 30.2632 109.733 30.3374 109.844 30.4842L119.098 42.6822C119.152 42.7543 119.187 42.8398 119.197 42.9298L122.106 68.6983L135.694 73.6392C135.828 73.6882 135.936 73.7925 135.989 73.9258C136.042 74.0591 136.036 74.2087 135.972 74.3371L134.289 77.702C134.198 77.8838 134.007 77.9931 133.804 77.9789L115.718 76.7171C115.44 76.6977 115.231 76.4573 115.251 76.1801C115.27 75.9029 115.51 75.6939 115.788 75.7132L133.539 76.9517L134.819 74.392L121.469 69.5375C121.29 69.4722 121.163 69.3109 121.141 69.1211L118.212 43.1802L109.601 31.829C107.854 36.646 105.357 43.4807 103.175 49.3551C102.016 52.4736 100.945 55.323 100.121 57.4566C99.7098 58.5231 99.359 59.4133 99.0895 60.0697C98.9548 60.3976 98.8391 60.6702 98.7455 60.8787C98.6583 61.0731 98.5745 61.2481 98.5052 61.352C98.4841 61.3837 98.4594 61.4129 98.4317 61.439L87.8809 71.3811L92.5461 75.8519C92.7175 76.0162 92.7507 76.278 92.6257 76.48L81.6897 94.146C81.5434 94.3822 81.2333 94.4552 80.997 94.3089C80.7607 94.1627 80.6878 93.8526 80.834 93.6163L91.5557 76.2966L81.8587 67.0036C80.5239 66.7221 78.5389 66.2962 76.7463 65.8963C74.9069 65.486 73.2262 65.0938 72.6904 64.9151C72.4267 64.8273 72.2843 64.5423 72.3721 64.2787C72.46 64.0151 72.745 63.8726 73.0086 63.9605C73.4822 64.1184 75.0963 64.4972 76.9654 64.9142C78.8171 65.3272 80.8761 65.7684 82.2067 66.0486C82.2987 66.0679 82.3834 66.1126 82.4512 66.1776L87.1534 70.6839L97.6896 60.7557C97.6976 60.7406 97.7072 60.7222 97.7182 60.7C97.7475 60.6414 97.7839 60.5639 97.8275 60.4666C97.9147 60.2724 98.0257 60.011 98.1586 59.6874C98.4241 59.0409 98.7719 58.1585 99.1827 57.0943C100.004 54.9666 101.073 52.1219 102.231 49.0046C104.548 42.7707 107.218 35.4533 108.97 30.6169C109.033 30.4436 109.186 30.3185 109.368 30.2909Z" fill="#999999"/>
<path fill-rule="evenodd" clip-rule="evenodd" d="M117.557 75.7261C117.827 75.7935 117.991 76.0666 117.923 76.3362C117.828 76.7159 117.444 77.7139 116.912 79.028C116.371 80.3631 115.657 82.072 114.881 83.9078C113.327 87.5799 111.517 91.7668 110.325 94.5019C110.214 94.7566 109.918 94.8731 109.663 94.762C109.408 94.651 109.292 94.3545 109.403 94.0998C110.594 91.3668 112.402 87.1834 113.954 83.5157C114.73 81.6816 115.441 79.9782 115.979 78.6502C116.525 77.3014 116.874 76.3855 116.947 76.0922C117.014 75.8226 117.288 75.6587 117.557 75.7261ZM111.129 87.2994C111.279 87.5333 111.211 87.8445 110.977 87.9945L94.5727 98.51C94.3388 98.6599 94.0276 98.5918 93.8776 98.3579C93.7276 98.124 93.7957 97.8127 94.0297 97.6628L110.434 87.1473C110.668 86.9974 110.979 87.0654 111.129 87.2994ZM119.769 93.835C119.968 93.7535 120.198 93.8083 120.339 93.9713L131.275 106.59C131.386 106.718 131.425 106.892 131.379 107.055C131.334 107.218 131.21 107.347 131.049 107.398L109.784 114.219L134.948 130.048C135.132 130.163 135.221 130.383 135.169 130.593C135.118 130.804 134.938 130.957 134.722 130.975L104.438 133.499C104.29 133.511 104.145 133.458 104.04 133.353L100.255 129.568C100.058 129.371 100.058 129.053 100.255 128.856C100.451 128.66 100.77 128.66 100.966 128.856L104.132 132.023L106.013 124.878C106.083 124.609 106.358 124.449 106.627 124.519C106.896 124.59 107.056 124.865 106.986 125.134L105.064 132.437L133.137 130.098L108.334 114.496C108.169 114.392 108.079 114.201 108.103 114.007C108.128 113.813 108.262 113.651 108.449 113.591L130.016 106.673L119.815 94.903L99.5387 103.179C99.2815 103.284 98.9878 103.161 98.8828 102.903C98.7778 102.646 98.9012 102.352 99.1585 102.247L119.769 93.835Z" fill="#999999"/>
<path fill-rule="evenodd" clip-rule="evenodd" d="M156.941 59.1716C157.028 58.9896 157.216 58.8777 157.418 58.8873L183.917 60.1491C184.172 60.1613 184.377 60.3621 184.395 60.6166L187.339 102.678C187.349 102.818 187.3 102.955 187.205 103.057C187.11 103.159 186.977 103.217 186.837 103.217H167.909C167.808 103.217 167.708 103.186 167.624 103.128L161.074 98.6245L150.325 100.949H151.926C152.179 100.949 152.392 101.136 152.425 101.386L154.528 117.37C154.553 117.559 154.469 117.746 154.31 117.852L134.962 130.892C134.731 131.047 134.419 130.986 134.263 130.756C134.108 130.525 134.169 130.212 134.399 130.057L153.49 117.192L151.485 101.955H131.736C131.458 101.955 131.233 101.73 131.233 101.452C131.233 101.174 131.458 100.949 131.736 100.949H141.937L119.89 94.8044H110.285C110.007 94.8044 109.782 94.5791 109.782 94.3012C109.782 94.0233 110.007 93.7981 110.285 93.7981H119.959C120.005 93.7981 120.05 93.8043 120.094 93.8165L145.632 100.934L161.073 97.595C161.209 97.5657 161.35 97.5936 161.465 97.6722L168.066 102.21H186.298L184.649 78.6545L163.07 88.4501C162.842 88.5538 162.572 88.4733 162.437 88.2614L151.501 71.016C151.408 70.8693 151.397 70.6849 151.473 70.5283L156.941 59.1716ZM184.574 77.5835L183.422 61.133L157.703 59.9083L152.501 70.7131L163.053 87.3529L184.574 77.5835Z" fill="#999999"/>
<path fill-rule="evenodd" clip-rule="evenodd" d="M131.672 44.9553C131.732 44.7371 131.931 44.5859 132.157 44.5859H137.204C137.338 44.5859 137.466 44.6389 137.56 44.7333L146.814 53.9869C147.01 54.1834 147.01 54.502 146.814 54.6985C146.617 54.895 146.299 54.895 146.102 54.6985L136.996 45.5922H132.54L129.277 57.4208C129.264 57.4666 129.245 57.5103 129.22 57.5507C128.099 59.373 126.396 62.1484 124.931 64.5521C123.456 66.9734 122.247 68.9777 122.091 69.2894C121.967 69.5379 121.665 69.6386 121.416 69.5144C121.168 69.3901 121.067 69.0879 121.191 68.8393C121.372 68.478 122.617 66.4163 124.072 64.0285C125.521 61.6498 127.204 58.9079 128.326 57.0843L131.672 44.9553ZM133.438 76.7523C133.606 76.5308 133.922 76.4872 134.143 76.655L161.904 97.686C162.126 97.8538 162.169 98.1694 162.001 98.3909C161.833 98.6124 161.518 98.6559 161.296 98.4881L133.536 77.4571C133.314 77.2894 133.271 76.9738 133.438 76.7523Z" fill="#999999"/>
<path fill-rule="evenodd" clip-rule="evenodd" d="M92.4789 24.8362C92.6125 24.7976 92.7562 24.816 92.8757 24.8871L108.439 34.1407C108.677 34.2827 108.756 34.5915 108.614 34.8303C108.472 35.0692 108.163 35.1477 107.924 35.0056L92.8228 26.0264L82.6063 46.0508V57.5212L106.191 39.2231C106.41 39.0527 106.726 39.0926 106.897 39.3122C107.067 39.5317 107.027 39.8478 106.807 40.0181L82.6063 58.7949V66.5402C82.6063 66.8181 82.381 67.0433 82.1031 67.0433C81.8253 67.0433 81.6 66.8181 81.6 66.5402V46.2578L67.599 40.0809C67.3448 39.9688 67.2296 39.6717 67.3418 39.4175C67.4539 39.1633 67.751 39.0481 68.0052 39.1602L81.8711 45.2776L92.1704 25.0909C92.2336 24.967 92.3453 24.8748 92.4789 24.8362Z" fill="#999999"/>
<path fill-rule="evenodd" clip-rule="evenodd" d="M126.715 0.272186C126.822 0.479449 126.773 0.733162 126.596 0.885072L113.497 12.1223L110.456 30.7052H127.951C128.121 30.7052 128.28 30.7914 128.372 30.9341L133.692 39.1176H140.99C141.268 39.1176 141.493 39.3428 141.493 39.6207C141.493 39.8986 141.268 40.1239 140.99 40.1239H134.454L138.441 45.1985C138.613 45.417 138.575 45.7333 138.356 45.905C138.138 46.0767 137.822 46.0387 137.65 45.8202L133.023 39.9316C133.014 39.9198 133.005 39.9075 132.997 39.8949L127.678 31.7115H109.864C109.708 31.7115 109.561 31.6394 109.466 31.5162L92.9625 10.1824L91.4549 21.867L93.0687 25.0947C93.193 25.3432 93.0922 25.6454 92.8437 25.7697C92.5951 25.894 92.2929 25.7932 92.1687 25.5447L90.7218 22.6509C81.0359 28.0624 61.857 38.7394 59.1942 40.0708C58.9457 40.195 58.6434 40.0943 58.5192 39.8457C58.3949 39.5972 58.4956 39.295 58.7442 39.1707C61.402 37.8418 80.846 27.0164 90.4696 21.6391L92.1197 8.85118C92.1462 8.64582 92.2958 8.47766 92.4967 8.42745L126.146 0.0150732C126.372 -0.0415121 126.608 0.0649235 126.715 0.272186ZM93.6136 9.37932L109.554 29.9856L113.053 8.60172L93.6136 9.37932ZM97.4862 8.21732L113.629 7.57159C113.781 7.56555 113.926 7.62773 114.026 7.74095C114.127 7.85416 114.171 8.00641 114.146 8.15558L113.749 10.5799L124.324 1.50776L97.4862 8.21732ZM149.109 10.6101C149.312 10.4637 149.592 10.4897 149.766 10.6709L159.019 20.3451C159.211 20.5459 159.204 20.8644 159.004 21.0565C158.803 21.2486 158.484 21.2415 158.292 21.0407L149.341 11.6824L136.236 21.1014C136.01 21.2636 135.696 21.2122 135.534 20.9865C135.372 20.7609 135.423 20.4465 135.649 20.2843L149.109 10.6101Z" fill="#999999"/>
<path fill-rule="evenodd" clip-rule="evenodd" d="M125.81 0.715964C125.925 0.462992 126.223 0.351133 126.476 0.46612L149.61 10.9816C149.841 11.0864 149.957 11.3461 149.883 11.5881L146.607 22.1949L158.59 20.615C158.865 20.5787 159.118 20.7726 159.154 21.0481C159.191 21.3236 158.997 21.5764 158.721 21.6127L146.28 23.253L141.05 40.1902C140.984 40.4045 140.783 40.5491 140.559 40.5447C140.335 40.5404 140.141 40.3881 140.083 40.1713L135.098 21.4765L113.446 11.8998C113.192 11.7874 113.077 11.4902 113.189 11.2361C113.302 10.982 113.599 10.8671 113.853 10.9795L135.725 20.6537C135.864 20.7154 135.968 20.8369 136.008 20.9842L140.604 38.2218L148.791 11.7144L126.06 1.38221C125.807 1.26723 125.695 0.968936 125.81 0.715964Z" fill="#999999"/>
<path fill-rule="evenodd" clip-rule="evenodd" d="M158.439 20.2388C158.689 20.1189 158.99 20.2249 159.11 20.4756L163.736 30.1499C163.836 30.3585 163.781 30.6083 163.602 30.7553L157.708 35.6098L179.642 33.6514C179.837 33.6339 180.025 33.7317 180.123 33.9019C180.221 34.0721 180.21 34.2836 180.097 34.4437C178.553 36.6195 176.152 39.94 173.968 42.8311C172.876 44.2762 171.836 45.6178 170.982 46.6566C170.555 47.1757 170.172 47.6234 169.85 47.9722C169.729 48.1036 169.611 48.2262 169.5 48.3358C173.24 51.8547 176.856 55.1994 179.567 57.5921C180.973 58.8332 182.127 59.8106 182.925 60.4228C183.303 60.7122 183.581 60.9048 183.761 61.0069C183.803 60.9956 183.847 60.9896 183.893 60.9896C184.171 60.9896 184.396 61.2148 184.396 61.4927C184.396 61.6046 184.364 61.7927 184.196 61.9345C184.039 62.0678 183.861 62.0738 183.77 62.0669C183.599 62.054 183.434 61.974 183.323 61.9142C183.067 61.7771 182.721 61.5345 182.313 61.2213C181.485 60.5867 180.31 59.59 178.901 58.3465C176.08 55.8564 172.29 52.3464 168.405 48.687C164.074 44.6064 159.621 40.3357 156.257 37.0773L146.479 55.0038C146.346 55.2477 146.04 55.3376 145.796 55.2045C145.552 55.0715 145.462 54.7658 145.595 54.5219L155.69 36.0147C155.721 35.9582 155.762 35.9081 155.812 35.8672L162.659 30.2288L158.202 20.9098C158.082 20.6591 158.188 20.3587 158.439 20.2388ZM157.271 36.659C160.507 39.7899 164.678 43.7889 168.767 47.6452C168.864 47.551 168.978 47.4331 169.111 47.2897C169.414 46.9609 169.784 46.5297 170.205 46.0177C171.046 44.9944 172.077 43.6653 173.165 42.2245C175.062 39.7139 177.124 36.8756 178.643 34.7509L157.271 36.659Z" fill="#999999"/>
<path fill-rule="evenodd" clip-rule="evenodd" d="M179.231 33.9391C179.349 33.6875 179.649 33.5792 179.9 33.6971L193.36 40.0064C193.537 40.0892 193.65 40.2668 193.65 40.462V62.2005L200.313 73.8618C200.394 74.0032 200.401 74.1749 200.333 74.3227L187.294 102.504C187.177 102.756 186.878 102.866 186.626 102.75C186.374 102.633 186.264 102.334 186.38 102.082L197.669 77.6846C196.365 79.3128 194.932 81.0934 193.537 82.8135C191.789 84.9695 190.099 87.0325 188.795 88.5822C188.143 89.3566 187.585 90.006 187.164 90.4757C186.954 90.7101 186.774 90.904 186.631 91.0478C186.56 91.1194 186.494 91.183 186.435 91.2346C186.387 91.2768 186.309 91.3424 186.221 91.3862C185.972 91.5105 185.67 91.4098 185.546 91.1612C185.426 90.9215 185.515 90.632 185.745 90.5002C185.75 90.4963 185.759 90.4891 185.772 90.4774C185.806 90.4475 185.854 90.4021 185.917 90.3388C186.042 90.2127 186.209 90.0333 186.415 89.8039C186.825 89.346 187.375 88.7062 188.025 87.9343C189.285 86.4368 190.91 84.4542 192.602 82.3685L188.105 62.1544L183.825 61.5708C183.549 61.5333 183.357 61.2796 183.394 61.0043C183.432 60.729 183.685 60.5362 183.961 60.5737L192.643 61.7577V40.7818L179.473 34.6083C179.221 34.4903 179.113 34.1907 179.231 33.9391ZM192.833 62.7991L189.168 62.2994L193.411 81.3702C195.528 78.7531 197.673 76.0736 199.27 74.0651L192.833 62.7991Z" fill="#999999"/>
<path fill-rule="evenodd" clip-rule="evenodd" d="M168.33 102.21C168.608 102.21 168.833 102.435 168.833 102.713V115.547L180.634 106.106C180.751 106.012 180.903 105.976 181.05 106.006C181.196 106.036 181.322 106.13 181.392 106.261L191.066 124.348C191.14 124.486 191.146 124.651 191.081 124.793L188.978 129.42C188.896 129.6 188.717 129.715 188.52 129.715H136.784C136.506 129.715 136.28 129.49 136.28 129.212C136.28 128.934 136.506 128.709 136.784 128.709H186.765L168.252 117.138L146.174 123.387C145.907 123.463 145.629 123.307 145.553 123.04C145.477 122.772 145.633 122.494 145.9 122.419L167.827 116.213V102.713C167.827 102.435 168.052 102.21 168.33 102.21ZM169.198 116.543L188.299 128.481L190.062 124.603L180.79 107.27L169.198 116.543Z" fill="#999999"/>
<path fill-rule="evenodd" clip-rule="evenodd" d="M191.065 93.3784C191.343 93.3907 191.558 93.6257 191.546 93.9033L190.284 122.505C190.272 122.783 190.037 122.998 189.759 122.986C189.482 122.974 189.266 122.739 189.279 122.461L190.541 93.8589C190.553 93.5813 190.788 93.3662 191.065 93.3784Z" fill="#999999"/>
<path fill-rule="evenodd" clip-rule="evenodd" d="M28.2792 134.382C28.3997 134.218 28.6069 134.143 28.8044 134.191L51.0972 139.659C51.1927 139.683 51.2792 139.734 51.3461 139.806L56.8141 145.694C56.8823 145.768 56.927 145.86 56.9425 145.959L59.0456 159.419C59.0683 159.564 59.0263 159.712 58.9307 159.824C58.8351 159.935 58.6955 160 58.5485 160H34.1526C34.0646 160 33.9781 159.976 33.9018 159.933L17.0771 150.258C16.9413 150.18 16.8496 150.044 16.8291 149.888C16.8085 149.733 16.8614 149.577 16.9721 149.466C17.0306 149.408 17.1959 149.21 17.4703 148.862C17.7353 148.526 18.0827 148.076 18.4932 147.538C19.314 146.461 20.3828 145.038 21.5409 143.485C23.8568 140.381 26.527 136.765 28.2792 134.382ZM28.551 135.711L35.3078 152.801L33.826 158.728L18.1008 149.686C18.1512 149.623 18.2045 149.556 18.2603 149.486C18.5304 149.143 18.8816 148.688 19.2935 148.148C20.1175 147.067 21.1886 145.64 22.3474 144.087C24.4388 141.284 26.8182 138.064 28.551 135.711ZM34.797 158.993H57.9606L55.972 146.266L50.8517 140.752L37.9457 146.399L34.797 158.993ZM49.4143 140.283L29.5105 135.401L35.727 151.125L37.0294 145.915C37.0672 145.763 37.173 145.638 37.3159 145.576L49.4143 140.283Z" fill="#999999"/>
</svg>
