<svg width="960" height="505" viewBox="0 0 960 505" fill="none" xmlns="http://www.w3.org/2000/svg">
<g clip-path="url(#clip0_178_1601)">
<path d="M312.245 254.394C312.245 252.274 311.639 218.102 310.579 200.941L328.296 200.198M339.956 199.881L331.173 200.198M331.173 218.052V232.437M331.173 218.052L365.698 215.629L366.303 238.494M331.173 218.052V200.198M328.296 200.198L329.205 252.274M328.296 200.198H331.173" stroke="#4048F5" stroke-linecap="round" stroke-linejoin="round"/>
<path d="M127.357 426.714H123.867C122.178 426.714 121.249 428.679 122.322 429.984L183.196 504.035C183.681 504.625 184.461 504.887 185.204 504.71L707.493 380.306C709.318 379.871 709.594 377.39 707.909 376.564L705.493 375.381" stroke="#4048F5" stroke-width="4" stroke-linecap="round" stroke-linejoin="round"/>
<path d="M127.205 426.864L187.742 497.416C188.228 497.982 188.987 498.23 189.713 498.062L367.666 456.695L518.484 421.262L705.493 375.077" stroke="#4048F5" stroke-width="2" stroke-linecap="round" stroke-linejoin="round"/>
<path d="M704.887 375.078L705.036 365.24C705.037 365.161 704.964 365.102 704.887 365.121V365.121M127.792 417.364L127.508 426.865M172.178 402.788L126.265 410.957C124.74 411.228 124.089 413.055 125.098 414.229L183.965 482.74C184.446 483.299 185.196 483.549 185.916 483.389L432.779 428.53L650.072 378.712L704.887 365.121M172.178 404.908L136.487 411.661C134.948 411.952 134.326 413.82 135.384 414.976L183.838 467.901L192.441 477.198C192.927 477.722 193.656 477.948 194.353 477.789L350.858 442.158L395.377 433.224M415.819 429.59L455.795 420.202M480.931 414.448L530.144 403.545M549.526 399.003L665.971 371.292M682.476 368.567L699.708 363.601C700.121 363.482 700.562 363.5 700.964 363.65L704.887 365.121" stroke="#4048F5" stroke-width="2" stroke-linecap="round" stroke-linejoin="round"/>
<path d="M480.326 389.765L502.131 401.013M513.79 407.027L502.131 401.013M502.131 373.865V401.013" stroke="#4048F5" stroke-width="2" stroke-linecap="round" stroke-linejoin="round"/>
<path d="M495.014 374.471V378.862M495.014 397.033V378.862M508.49 372.351C508.49 372.528 508.49 377.62 508.49 384.01M508.49 404.301C508.49 398.915 508.49 390.742 508.49 384.01M508.49 384.01L529.993 396.124M480.174 372.351L495.014 378.862" stroke="#4048F5" stroke-width="2" stroke-linecap="round" stroke-linejoin="round"/>
<path d="M458.369 396.124C458.369 397.214 458.773 413.941 458.975 422.169L455.643 420.049" stroke="#4048F5" stroke-width="2" stroke-linecap="round" stroke-linejoin="round"/>
<path d="M669.454 373.564L667.788 290.129M666.123 371.292L662.943 291.34M682.476 368.415L682.099 355.393M682.099 288.312V355.393M693.076 330.256L693.699 358.65C693.741 360.585 691.212 361.494 689.796 360.174C687.704 358.222 685.471 356.882 682.099 355.393M698.679 363.57V324.351M687.625 334.042L688.382 358.724M662.943 284.375C662.943 282.549 662.943 254.149 662.943 237.74C662.943 236.344 664.337 235.382 665.645 235.873L667.788 236.676" stroke="#4048F5" stroke-width="2" stroke-linecap="round" stroke-linejoin="round"/>
<path d="M618.121 350.093L665.668 367.204" stroke="#4048F5" stroke-width="2" stroke-linecap="round" stroke-linejoin="round"/>
<path d="M530.295 403.544L527.267 313.144M533.324 405.512L530.75 312.387M549.375 401.727L546.952 309.812" stroke="#4048F5" stroke-width="2" stroke-linecap="round" stroke-linejoin="round"/>
<path d="M189.44 368.263L194.437 478.197M215.334 364.023L220.179 471.837M174.449 366.446L177.932 461.389M170.361 364.023L174.449 457.603" stroke="#4048F5" stroke-width="2" stroke-linecap="round" stroke-linejoin="round"/>
<path d="M219.877 454.12L307.854 436.403" stroke="#4048F5" stroke-width="2" stroke-linecap="round" stroke-linejoin="round"/>
<path d="M308.611 451.849L305.128 350.092M332.687 446.247L332.099 427.621M329.507 345.55L329.785 354.332M332.099 427.621L352.07 441.855M332.099 427.621L331.497 408.542M331.497 408.542L373.118 437.767M331.497 408.542L331.334 403.394M331.334 403.394L330.956 391.431M331.334 403.394L364.789 427.001M378.115 436.404L364.789 427.001M330.956 391.431L363.426 385.071M330.956 391.431L330.406 374.017M330.406 374.017L357.067 369.475M330.406 374.017L329.785 354.332M357.067 369.475L329.785 354.332M357.067 369.475L363.081 372.806M362.064 340.553L363.081 372.806M364.789 427.001L363.081 372.806" stroke="#4048F5" stroke-width="2" stroke-linecap="round" stroke-linejoin="round"/>
<path d="M145.679 425.803L172.632 420.2M149.01 429.134L173.087 424.289" stroke="#4048F5" stroke-width="2" stroke-linecap="round" stroke-linejoin="round"/>
<path d="M180.355 463.811L193.68 460.934" stroke="#4048F5" stroke-width="2" stroke-linecap="round" stroke-linejoin="round"/>
<path d="M368.272 339.491C368.151 340.339 370.241 401.12 371.3 431.405M377.055 337.522L379.932 436.099" stroke="#4048F5" stroke-width="2" stroke-linecap="round" stroke-linejoin="round"/>
<path d="M378.72 382.042L393.493 390.565C394.098 390.914 394.478 391.555 394.493 392.254L395.377 433.223M397.497 387.796L394.332 391.049" stroke="#4048F5" stroke-width="2" stroke-linecap="round" stroke-linejoin="round"/>
<path d="M397.345 387.492L398.332 431.032C398.365 432.49 396.819 433.447 395.528 432.768V432.768M415.819 401.272V429.588" stroke="#4048F5" stroke-width="2" stroke-linecap="round" stroke-linejoin="round"/>
<path d="M455.795 397.336V420.201" stroke="#4048F5" stroke-width="2" stroke-linecap="round" stroke-linejoin="round"/>
<path d="M479.72 366.598L480.931 414.296" stroke="#4048F5" stroke-width="2" stroke-linecap="round" stroke-linejoin="round"/>
<path d="M152.493 433.375L173.087 429.135M160.821 442.157L173.087 439.583M166.424 448.214L174.147 446.246" stroke="#4048F5" stroke-width="2" stroke-linecap="round" stroke-linejoin="round"/>
<path d="M219.12 446.552L286.352 433.378L283.323 353.426M287.715 353.123L290.743 439.889" stroke="#4048F5" stroke-width="2" stroke-linecap="round" stroke-linejoin="round"/>
<path d="M223.359 363.872L224.651 410.813M280.9 353.878L281.959 383.708M281.959 383.708H284.383M281.959 383.708L282.465 398.094M282.465 398.094L282.566 400.971C281.355 403.797 275.358 410.238 261.064 413.387C246.769 416.537 230.88 414.7 224.722 413.387L224.651 410.813M282.465 398.094H284.383M217.908 412.328L224.651 410.813" stroke="#4048F5" stroke-width="3" stroke-linecap="round" stroke-linejoin="round"/>
<path d="M228.811 414.296V444.429M240.016 415.204V433.072M240.016 442.309V436.555M253.796 414.75V430.347M253.796 439.584V433.678M267.575 411.722V427.318M267.575 437.161V431.407M267.575 431.407L286.049 428.075M267.575 431.407V427.318M267.575 427.318L286.049 423.835M285.746 417.476L277.266 413.236V406.876M253.796 430.347L240.016 433.072M253.796 430.347V433.678M240.016 433.072V436.555M240.016 436.555L253.796 433.678" stroke="#4048F5" stroke-width="2" stroke-linecap="round" stroke-linejoin="round"/>
<path d="M188.986 483.344V497.881" stroke="#4048F5" stroke-width="2" stroke-linecap="round" stroke-linejoin="round"/>
<path d="M430.356 307.541C423.126 309.552 412.975 314.332 404.531 322.346C403.079 323.725 401.702 324.897 400.374 326.469M440.198 305.876C445.644 306.603 453.203 308.823 460.387 313.144C462.015 314.123 463.623 315.21 465.183 316.412M471.543 322.346C473.131 324.152 474.598 326.128 475.896 328.287C479.58 334.41 481.911 341.996 481.84 351.303C481.598 383.163 457.41 398.497 445.347 402.181C429.447 406.219 396.073 404.968 389.774 367.657C388.174 358.182 388.963 349.932 391.294 342.823C392.268 339.85 393.257 337.069 394.923 334.798" stroke="#4048F5" stroke-width="4" stroke-linecap="round" stroke-linejoin="round"/>
<path d="M430.356 307.694C423.39 305.928 409.58 298.458 410.065 282.709C410.671 263.024 425.813 255.907 436.413 255.907C447.012 255.907 459.429 264.084 459.429 282.255C459.429 299.589 446.81 305.423 440.501 306.029" stroke="#4048F5" stroke-width="4" stroke-linecap="round" stroke-linejoin="round"/>
<path d="M165.364 341.007L158.096 341.612C154.613 341.612 152.644 346.836 154.613 349.789C157.036 353.423 168.645 363.165 175.207 366.9C177.478 367.657 183.717 369.05 190.5 368.566C197.284 368.081 315.476 348.174 373.723 338.281L550.435 309.056L710.036 283.466C713.922 282.305 721.574 282.163 721.09 290.885C720.605 299.607 720.888 339.745 721.09 358.723V378.257C721.594 380.124 723.3 384.223 726.087 385.677C729.569 387.494 737.292 388.857 750.163 385.677C760.46 383.133 807.553 371.594 829.812 366.143L1015.15 319.807L1032.42 315.567C1034.39 314.81 1038.47 312.297 1039.08 308.299C1039.69 304.301 1040.95 266.859 1041.5 248.638C1041.05 246.367 1043.99 242.733 1045.44 242.733" stroke="#4048F5" stroke-width="4" stroke-linecap="round" stroke-linejoin="round"/>
<path d="M158.853 341.764C161.225 346.357 167.696 355.937 174.601 357.512C181.506 359.087 188.683 358.572 191.409 358.118L292.106 342.824L415.97 324.35L538.321 304.817L671.422 283.466L713.67 276.046C715.184 275.592 720.363 275.895 723.512 278.923C726.662 281.952 726.389 284.274 726.541 285.283V323.896L727.298 380.377C728.202 385.129 729.869 386.397 733.809 387.494" stroke="#4048F5" stroke-width="4" stroke-linecap="round" stroke-linejoin="round"/>
<path d="M528.933 368.415L508.642 372.503L488.048 375.532M548.921 364.478L664.76 340.401" stroke="#4048F5" stroke-width="3" stroke-linecap="round" stroke-linejoin="round"/>
<path d="M377.206 330.408V310.874L422.936 304.666M368.575 331.771L367.515 304.666L415.062 297.7M361.458 331.771L360.095 301.032L377.206 298.76V255.15" stroke="#4048F5" stroke-width="2" stroke-linecap="round" stroke-linejoin="round"/>
<path d="M400.677 252.271V299.667M380.689 254.694V302.393L377.357 298.304" stroke="#4048F5" stroke-width="2" stroke-linecap="round" stroke-linejoin="round"/>
<path d="M400.525 288.461L414.91 298.152M407.036 251.362L426.267 257.874" stroke="#4048F5" stroke-width="2" stroke-linecap="round" stroke-linejoin="round"/>
<path d="M340.107 283.312L364.638 300.423M341.167 290.884L360.095 304.512" stroke="#4048F5" stroke-width="2" stroke-linecap="round" stroke-linejoin="round"/>
<path d="M329.659 261.055L362.821 277.337M359.944 257.27C358.53 264.033 359.027 276.961 367.969 283.314C373.723 287.403 376.449 287.403 377.206 287.403" stroke="#4048F5" stroke-linecap="round" stroke-linejoin="round"/>
<path d="M366.455 256.36C365.849 260.196 365.456 268.717 367.515 273.32C369.574 277.923 374.783 280.941 377.206 281.951" stroke="#4048F5" stroke-linecap="round" stroke-linejoin="round"/>
<path d="M329.81 261.206C332.385 264.79 339.528 275.733 341.319 291.036C343.109 306.34 339.35 329.347 331.476 333.132L179.901 354.786" stroke="#4048F5" stroke-width="2" stroke-linecap="round" stroke-linejoin="round"/>
<path d="M173.301 342.317C173.689 344.364 173.581 346.254 173.141 347.64C172.686 349.069 171.977 349.719 171.334 349.84C170.692 349.962 169.794 349.618 168.848 348.454C167.93 347.325 167.138 345.606 166.75 343.559C166.362 341.512 166.47 339.622 166.911 338.236C167.365 336.807 168.074 336.157 168.717 336.036C169.36 335.914 170.257 336.258 171.203 337.422C172.121 338.551 172.913 340.27 173.301 342.317Z" stroke="#4048F5" stroke-width="2"/>
<path d="M172.027 350.395L178.538 348.73C179.244 347.165 180.446 343.248 179.598 340.099C178.75 336.949 175.913 335.455 174.601 335.102L168.392 335.404" stroke="#4048F5" stroke-width="2" stroke-linecap="round" stroke-linejoin="round"/>
<path d="M169.42 335.403C168.895 332.864 168.425 330.128 168.021 327.226C167.519 323.621 167.12 319.761 166.847 315.707C165.31 292.928 168.451 274.166 173.863 273.801C179.274 273.436 184.906 291.606 186.443 314.385C187.979 337.164 184.706 354.42 179.295 354.785C177.649 354.896 175.544 352.825 173.995 350.091" stroke="#4048F5" stroke-width="2"/>
<path d="M174.601 273.625H190.5V264.085H183.838V259.997L190.955 259.542L183.838 86.0107H238.653L243.196 184.436L319.211 179.591H321.482C322.239 179.591 323.814 180.227 324.056 182.771C324.298 185.314 324.056 188.373 322.542 188.373L243.196 193.825" stroke="#4048F5" stroke-width="2" stroke-linecap="round" stroke-linejoin="round"/>
<path d="M190.5 264.082C197.617 264.082 200.949 264.082 206.551 263.931" stroke="#4048F5" stroke-width="2" stroke-linecap="round" stroke-linejoin="round"/>
<path d="M189.138 259.69C193.226 259.69 196.103 259.539 200.04 259.539" stroke="#4048F5" stroke-width="2" stroke-linecap="round" stroke-linejoin="round"/>
<path d="M243.196 184.283V197.76" stroke="#4048F5" stroke-width="2" stroke-linecap="round" stroke-linejoin="round"/>
<path d="M190.349 273.472C193.176 274.684 199.949 276.743 204.431 275.289C208.914 273.836 210.64 272.564 210.943 272.109V266.507" stroke="#4048F5" stroke-width="2" stroke-linecap="round" stroke-linejoin="round"/>
<path d="M199.737 259.39C198.223 256.766 196.557 251.971 201.252 249.699C205.805 247.496 208.924 250.406 209.58 251.971C212.76 254.444 215.485 257.271 224.419 259.39C233.353 261.51 288.67 257.422 318.151 253.334L469.877 236.677L591.016 222.897L702.162 211.541L724.724 209.875C727.853 210.43 734.142 213.297 734.263 220.323C734.385 227.349 734.314 242.027 734.263 248.488L733.658 323.443L733.052 377.955C733.203 380.075 735.868 383.679 745.317 381.135C754.766 378.591 782.164 371.797 794.681 368.718L920.818 338.434L1028.03 311.177C1031.96 309.663 1034.6 309.031 1035.45 302.092C1036.35 294.672 1036.35 272.11 1036.35 261.359V247.125C1036.35 244.399 1039.38 240.25 1041.81 240.008" stroke="#4048F5" stroke-width="2" stroke-linecap="round" stroke-linejoin="round"/>
<path d="M199.586 259.087C200.494 259.996 215.788 271.655 228.205 272.109C238.138 272.473 300.384 264.791 330.265 260.904L526.661 236.676L666.274 221.231L723.058 215.78C724.774 215.729 727.056 216.997 727.601 222.442C728.206 228.499 727.399 247.175 727.601 256.058L726.692 283.92" stroke="#4048F5" stroke-width="2" stroke-linecap="round" stroke-linejoin="round"/>
<path d="M274.995 204.269C274.632 204.996 275.651 239.652 276.206 257.57M215.485 204.269L215.94 224.106H212.911M212.911 233.494H216.848L217.757 257.57M209.883 200.181V203.209M280.598 200.181V203.209" stroke="#4048F5" stroke-width="2" stroke-linecap="round" stroke-linejoin="round"/>
<path d="M212.82 229.105C212.82 231.379 212.397 233.389 211.757 234.793C211.076 236.286 210.338 236.736 209.883 236.736C209.427 236.736 208.69 236.286 208.009 234.793C207.368 233.389 206.946 231.379 206.946 229.105C206.946 226.831 207.368 224.821 208.009 223.417C208.69 221.923 209.427 221.474 209.883 221.474C210.338 221.474 211.076 221.923 211.757 223.417C212.397 224.821 212.82 226.831 212.82 229.105Z" stroke="#4048F5" stroke-width="2"/>
<path d="M211.003 228.802C211.003 230.682 210.725 232.341 210.308 233.494C210.098 234.075 209.872 234.474 209.67 234.709C209.54 234.861 209.458 234.905 209.428 234.916C209.398 234.905 209.316 234.861 209.186 234.709C208.985 234.474 208.758 234.075 208.548 233.494C208.131 232.341 207.854 230.682 207.854 228.802C207.854 226.921 208.131 225.262 208.548 224.109C208.758 223.529 208.985 223.129 209.186 222.894C209.316 222.742 209.398 222.699 209.428 222.687C209.458 222.699 209.54 222.742 209.67 222.894C209.872 223.129 210.098 223.529 210.308 224.109C210.725 225.262 211.003 226.921 211.003 228.802ZM209.415 234.92C209.415 234.92 209.417 234.919 209.419 234.919C209.417 234.92 209.415 234.92 209.415 234.92ZM209.437 234.919C209.44 234.919 209.441 234.92 209.441 234.92C209.441 234.92 209.44 234.92 209.437 234.919ZM209.441 222.684C209.441 222.684 209.44 222.684 209.437 222.684C209.44 222.684 209.441 222.683 209.441 222.684ZM209.419 222.684C209.417 222.684 209.415 222.684 209.415 222.684C209.415 222.683 209.417 222.684 209.419 222.684Z" stroke="#4048F5" stroke-width="2"/>
<path d="M213.371 200.118C215.086 199.883 217.419 199.665 220.247 199.477C226.652 199.049 235.516 198.774 245.318 198.754C255.12 198.734 263.985 198.973 270.392 199.374C273.221 199.551 275.554 199.758 277.27 199.987C275.555 200.222 273.223 200.439 270.394 200.628C263.99 201.055 255.126 201.33 245.323 201.351C235.521 201.371 226.656 201.132 220.25 200.731C217.42 200.554 215.087 200.346 213.371 200.118Z" stroke="#4048F5" stroke-width="2"/>
<path d="M280.598 202.93C280.6 204.199 265.074 205.114 245.441 205.155C225.808 205.195 209.89 204.199 209.887 202.93" stroke="#4048F5" stroke-width="2"/>
<path d="M329.508 252.122C328.448 235.768 330.265 226.812 342.379 226.379C350.404 226.093 355.704 232.891 356.158 235.313L376.979 244.248V230.998L376.601 219.717M399.768 244.248V238.039L413.548 237.131" stroke="#4048F5" stroke-width="2" stroke-linecap="round" stroke-linejoin="round"/>
<path d="M379.932 246.367V218.505H399.768C399.314 220.221 399.162 224.713 402.191 228.953C405.219 233.193 411.024 236.171 413.548 237.13" stroke="#4048F5" stroke-width="2" stroke-linecap="round" stroke-linejoin="round"/>
<path d="M356.158 235.311C352.625 235.059 346.921 235.311 342.833 241.217C339.555 245.952 340.814 249.596 341.167 250.454" stroke="#4048F5" stroke-width="2" stroke-linecap="round" stroke-linejoin="round"/>
<path d="M379.932 218.504C374.783 218.504 362.821 209.707 362.821 198.668C362.821 187.629 372.38 178.68 384.171 178.68C390.65 178.68 396.454 181.381 400.369 185.645" stroke="#4048F5" stroke-width="2"/>
<path d="M337.382 198.668C334.127 198.668 327.971 195.435 323.88 190.491C323.321 189.815 322.8 189.107 322.331 188.371M357.369 168.433C353.453 164.509 347.648 162.023 341.17 162.023C330.912 162.023 322.343 168.253 320.286 176.56C320.103 177.302 320.044 178.665 319.968 179.437" stroke="#4048F5" stroke-width="2"/>
<path d="M379.934 219.867C368.141 219.867 358.581 209.427 358.581 196.548C358.581 183.669 368.141 173.228 379.934 173.228C386.897 173.228 397.497 174.743 400.374 185.039" stroke="#4048F5" stroke-width="2"/>
<path d="M338.896 199.578C334.15 199.578 329.447 198.068 325.522 195.489C323.93 194.444 322.466 193.223 321.179 191.855C320.085 190.693 319.414 189.879 318.605 188.524M315.576 179.59C315.576 177.208 315.961 173.706 316.671 171.564C319.501 163.029 327.502 156.876 336.93 156.876C343.893 156.876 354.492 158.272 357.369 167.767" stroke="#4048F5" stroke-width="2"/>
<path d="M362.064 209.872L337.079 198.667M357.369 168.079L373.42 173.985M400.525 185.19L424.905 195.033" stroke="#4048F5" stroke-width="2" stroke-linecap="round" stroke-linejoin="round"/>
<path d="M429.447 248.942V256.816M439.138 247.579V255.756" stroke="#4048F5" stroke-width="2" stroke-linecap="round" stroke-linejoin="round"/>
<path d="M451.101 238.491C455.946 234.251 459.429 226.364 459.429 219.412C459.429 205.279 447.429 193.821 432.627 193.821C417.825 193.821 405.825 205.279 405.825 219.412C405.825 227.732 411.731 237.734 419.605 241.671" stroke="#4048F5" stroke-width="2"/>
<path d="M458.521 245.608V273.47M467.303 315.415L471.694 243.64M461.7 245.608L458.521 311.326" stroke="#4048F5" stroke-width="2" stroke-linecap="round" stroke-linejoin="round"/>
<path d="M526.813 306.634L527.873 263.781L531.507 263.412M547.255 302.545V261.812L531.507 263.412M531.507 263.412C532.113 265.161 531.759 292.35 531.507 305.725" stroke="#4048F5" stroke-width="2" stroke-linecap="round" stroke-linejoin="round"/>
<path d="M482.54 373.411C496.37 373.411 507.582 357.547 507.582 337.978C507.582 333.982 507.114 330.141 506.253 326.557C505.439 323.175 504.058 319.437 502.604 316.601M498.38 310.598C497.035 309.095 495.251 307.344 493.703 306.252C490.342 303.879 486.552 302.545 482.54 302.545C479.234 302.545 476.077 303.452 473.188 305.099C471.704 305.945 468.511 308.841 467.606 310.598" stroke="#4048F5" stroke-width="2"/>
<path d="M703.827 285.889C703.827 285.889 712.761 328.288 682.121 334.95M682.121 258.633C685.889 258.633 689.45 260.07 692.607 262.624C694.061 263.801 699.89 271.806 701.859 278.015" stroke="#4048F5" stroke-width="2"/>
<path d="M468.817 289.826C470.332 286.192 473.48 284.98 476.786 284.98C480.797 284.98 484.588 286.315 487.949 288.687C489.496 289.779 491.281 291.53 492.626 293.033L496.85 299.037" stroke="#4048F5" stroke-width="2"/>
<path d="M481.84 302.243L527.116 295.58M548.618 292.249L662.943 275.441M547.406 274.229L662.943 258.784M527.116 281.346L521.362 279.459M471.24 263.024L521.362 279.459M476.086 285.283L521.362 279.459M682.325 272.109L698.073 269.384" stroke="#4048F5" stroke-width="2" stroke-linecap="round" stroke-linejoin="round"/>
<path d="M647.8 230.921L660.52 232.221M681.871 234.404L676.117 233.815M663.397 235.463L641.441 231.981M676.117 233.815C676.965 233.902 698.275 222.937 708.824 217.444M676.117 233.815L660.52 232.221M660.52 232.221L673.24 225.924M722.301 209.721L795.136 172.168M794.379 163.537L701.102 211.539" stroke="#4048F5" stroke-width="2" stroke-linecap="round" stroke-linejoin="round"/>
<path d="M794.984 149.606C794.984 150.818 794.984 200.737 794.984 226.984L804.524 239.855M828.752 252.726H814.064L804.524 239.855M804.524 239.855L794.984 251.515M794.984 255.906H816.941M828.752 255.906H824.966M816.941 255.906V277.257H824.966V255.906M816.941 255.906H824.966M844.197 257.117H868.274L847.68 229.71L844.197 236.372V284.828H838.14M838.14 284.828L839.352 216.082H831.629M838.14 284.828V294.973H831.629M831.629 216.082H828.752V294.973H831.629M831.629 216.082V294.973" stroke="#4048F5" stroke-width="2" stroke-linecap="round" stroke-linejoin="round"/>
<path d="M795.136 212.449H790.139L789.23 287.858C790.644 288.111 793.561 288.464 793.924 287.858C794.288 287.253 794.883 246.823 795.136 226.683" stroke="#4048F5" stroke-width="2" stroke-linecap="round" stroke-linejoin="round"/>
<path d="M847.983 230.164L850.557 224.864V175.651M850.557 167.474V150.363" stroke="#4048F5" stroke-width="2" stroke-linecap="round" stroke-linejoin="round"/>
<path d="M850.708 220.928H872.968M875.845 220.928H872.968M850.708 203.969L884.022 198.972L872.968 198.092M850.708 200.183H853.585V196.549L872.968 198.092M872.968 198.092V220.928" stroke="#4048F5" stroke-width="2" stroke-linecap="round" stroke-linejoin="round"/>
<path d="M871.15 201.092V220.625M856.614 221.685C855.857 226.783 855.887 237.948 862.065 241.825C868.243 245.701 875.542 245.459 878.419 244.853L877.207 281.195L1021.51 309.36L915.063 335.556L733.506 379.166" stroke="#4048F5" stroke-width="2" stroke-linecap="round" stroke-linejoin="round"/>
<path d="M668.091 284.071V236.373L681.719 234.556V280.437" stroke="#4048F5" stroke-width="2" stroke-linecap="round" stroke-linejoin="round"/>
<path d="M513.942 256.059L519.696 257.11M547.104 262.116L519.696 257.11M527.721 264.539L503.948 258.33M557.552 247.731V253.788M572.391 245.308V251.971M519.696 257.11L619.938 245.308C623.27 245.409 630.659 246.883 633.567 251.971C636.474 257.059 637.201 260.854 637.201 262.116M633.567 244.361L642.198 261.51M643.106 246.265L649.012 260.148M662.943 250.456C661.005 249.73 624.178 242.481 606.007 238.948" stroke="#4048F5" stroke-width="2" stroke-linecap="round" stroke-linejoin="round"/>
<path d="M472.3 236.222L473.663 212.751C474.874 208.966 478.357 200.227 504.553 194.732C526.207 190.189 608.834 173.835 648.103 164.296C650.274 164.195 654.766 164.689 655.372 167.475C655.977 170.262 655.624 172.472 655.372 173.23C657.492 173.331 662.186 173.23 664.003 172.018C665.82 170.807 664.76 164.851 664.003 162.024C662.892 159.147 659.248 155.725 652.343 155.967C645.438 156.21 544.378 176.157 490.622 188.221C479.72 190.667 466.243 199.244 465.032 206.391C463.82 213.539 463.013 229.66 462.76 236.828" stroke="#4048F5" stroke-width="2" stroke-linecap="round" stroke-linejoin="round"/>
<path d="M412.898 189.733C413.447 188.681 414.064 187.716 414.738 186.856C416.965 184.019 419.821 182.313 422.936 182.313C426.522 182.313 429.765 184.573 432.099 188.219C433.11 189.799 433.951 191.64 434.575 193.67" stroke="#4048F5" stroke-width="2"/>
<path d="M455.316 203.514C457.866 199.303 461.083 195.95 464.729 193.795C467.67 192.056 470.892 191.098 474.269 191.098C475.98 191.098 477.651 191.344 479.266 191.813M453.669 248.033C455.396 251.58 457.553 254.661 460.032 257.118C460.63 257.711 461.246 258.267 461.879 258.784C462.795 259.532 463.746 260.2 464.729 260.781C465.804 261.416 466.916 261.948 468.06 262.366C468.853 262.656 469.662 262.892 470.483 263.071C471.718 263.339 472.982 263.478 474.269 263.478C484.396 263.478 493.125 254.855 497.106 242.43C497.359 241.638 497.594 240.83 497.809 240.008M499.222 231.679C499.343 230.24 499.405 228.774 499.405 227.288C499.405 221.16 498.347 215.387 496.48 210.328C495.325 207.201 493.861 204.346 492.147 201.849C491.326 200.653 490.794 199.994 489.865 198.972" stroke="#4048F5" stroke-width="2"/>
<path d="M430.356 186.252L604.493 163.539C606.108 161.419 610.55 157.179 615.396 157.179C620.241 157.179 624.077 159.4 625.39 160.51M630.235 168.687L632.052 174.138M559.975 183.527L655.674 171.11M665.668 168.687C675.662 166.567 688.549 168.687 692.319 185.949C696.922 207.028 692.319 212.6 692.319 212.6" stroke="#4048F5" stroke-width="2" stroke-linecap="round" stroke-linejoin="round"/>
<path d="M474.874 264.082L672.937 225.924L691.107 218.958" stroke="#4048F5" stroke-width="2" stroke-linecap="round" stroke-linejoin="round"/>
<path d="M993.047 246.214V259.691L907.947 246.214V230.617M900.678 233.646V244.851L884.779 243.185L900.678 233.646Z" stroke="#4048F5" stroke-linecap="round" stroke-linejoin="round"/>
<path d="M890.23 255.115L900.527 256.813V274.378L890.23 272.786M890.23 255.115L885.839 254.39V272.107L890.23 272.786M890.23 255.115V272.786" stroke="#4048F5" stroke-linecap="round" stroke-linejoin="round"/>
<path d="M911.126 257.909L987.444 271.956V291.187L911.126 276.561M911.126 257.909L907.644 257.268V275.893L911.126 276.561M911.126 257.909V276.561M1001.53 274.292L998.044 273.774H996.378V292.247L1001.53 293.298M1001.53 274.292L1011.22 275.893V295.276L1001.53 293.298M1001.53 274.292V293.298M1004.55 239.097L1003.65 261.205L1023.79 263.325L1022.88 298.001H1026.06V307.844M1030.15 278.165H1026.06V295.276L1030.15 296.639M1030.15 267.111H1026.97V261.205L1017.27 260.145L1019.39 221.381C1019.7 224.46 1021.45 230.86 1026.06 231.829C1030.66 232.798 1035.45 232.233 1037.26 231.829V236.372" stroke="#4048F5" stroke-linecap="round" stroke-linejoin="round"/>
<path d="M880.993 172.321L850.406 175.501C847.175 176.056 840.624 176.197 840.26 172.321C839.897 168.444 846.872 167.475 850.406 167.475L880.993 164.75C881.144 162.024 880.993 153.847 892.35 155.967" stroke="#4048F5" stroke-width="2" stroke-linecap="round" stroke-linejoin="round"/>
<path d="M900.678 203.515C905.562 200.933 906.353 191.092 901.467 181.85C896.581 172.609 888.662 167.21 883.779 169.791C878.895 172.373 878.897 181.958 883.782 191.199C884.726 192.985 885.166 193.87 886.293 195.338" stroke="#4048F5" stroke-width="2"/>
<path d="M886.444 194.882L891.593 189.28C893.561 188.825 898.195 188.553 900.981 191.097C903.767 193.641 904.363 197.204 904.312 198.668" stroke="#4048F5" stroke-width="2" stroke-linecap="round" stroke-linejoin="round"/>
<path d="M899.576 206.112C898.973 207.035 897.71 207.603 895.884 207.536C894.08 207.47 891.905 206.776 889.827 205.416C887.749 204.057 886.241 202.343 885.458 200.716C884.665 199.07 884.679 197.686 885.283 196.763C885.886 195.841 887.148 195.273 888.975 195.34C890.779 195.405 892.953 196.1 895.032 197.459C897.11 198.818 898.617 200.532 899.401 202.159C900.194 203.806 900.179 205.19 899.576 206.112Z" stroke="#4048F5" stroke-width="2"/>
<path d="M888.261 205.936L862.822 233.496C861.409 235.918 859.43 241.127 862.822 242.581C866.214 244.035 892.097 233.899 904.615 228.65L947.62 205.936C952.617 201.949 962.853 191.4 963.822 181.103C965.033 168.232 958.219 145.518 939.443 143.398C924.421 141.702 918.647 153.09 917.638 158.995M907.947 231.073L947.62 209.571C953.777 206.138 966.275 195.64 967.002 181.103C967.91 162.932 959.3 143.355 939.443 140.824C923.997 138.856 916.931 151.727 915.518 158.995L896.135 160.509L892.198 156.269" stroke="#4048F5" stroke-width="2" stroke-linecap="round" stroke-linejoin="round"/>
<path d="M914.761 193.216C916.174 196.8 920.666 204.451 927.329 206.39C933.991 208.328 942.774 208.055 946.862 206.39" stroke="#4048F5" stroke-width="2" stroke-linecap="round" stroke-linejoin="round"/>
<path d="M884.93 169.293C891.088 165.962 905.645 159.239 914.609 158.996C923.574 158.754 927.632 158.895 928.54 158.996C931.67 160.611 936.586 165.62 937.323 172.624C938.231 181.256 935.203 188.675 930.054 190.795L914.609 192.915L902.798 202.001" stroke="#4048F5" stroke-width="2" stroke-linecap="round" stroke-linejoin="round"/>
<path d="M929.449 190.794C937.812 190.794 944.591 183.676 944.591 174.895C944.591 164.446 936.449 158.995 928.086 158.995" stroke="#4048F5" stroke-width="2"/>
<path d="M815.881 153.241L818.304 0H850.708L847.983 152.022" stroke="#4048F5" stroke-width="2" stroke-linecap="round" stroke-linejoin="round"/>
<path d="M850.557 150.515C850.557 152.355 838.704 153.846 823.149 153.846C807.594 153.846 794.984 151.446 794.984 149.606" stroke="#4048F5" stroke-width="2"/>
<path d="M850.557 150.515C850.557 150.02 849.696 149.439 848.134 148.856M794.984 149.91C794.984 149.217 796.771 148.445 799.83 147.752C801.641 147.341 803.897 146.958 806.493 146.635C808.862 146.341 811.514 146.096 814.367 145.927C814.915 145.895 815.47 145.865 816.032 145.838" stroke="#4048F5" stroke-width="2"/>
<path d="M894.454 150.517C896.479 144.191 899.206 138.289 902.521 132.951C913.599 115.113 931.237 103.575 951.102 103.575C984.638 103.575 1011.82 136.456 1011.82 177.016C1011.82 217.576 984.638 250.456 951.102 250.456C936.994 250.456 924.01 244.637 913.701 234.875C912.232 233.484 910.818 232.014 909.463 230.468" stroke="#4048F5" stroke-width="2"/>
<path d="M894.318 146.563C896.449 139.872 899.321 133.629 902.811 127.983C914.473 109.116 933.041 96.9111 953.955 96.9111C989.26 96.9111 1017.88 131.69 1017.88 174.592C1017.88 217.493 989.26 252.272 953.955 252.272C939.103 252.272 925.433 246.117 914.58 235.791C913.034 234.32 911.545 232.764 910.118 231.13" stroke="#4048F5" stroke-width="2"/>
<path d="M894.318 143.061C896.648 136.148 899.787 129.699 903.602 123.866C916.35 104.373 936.648 91.7637 959.51 91.7637C998.103 91.7637 1029.39 127.695 1029.39 172.018C1029.39 216.342 998.103 252.273 959.51 252.273C943.274 252.273 928.331 245.914 916.467 235.246C914.777 233.726 913.15 232.119 911.59 230.431" stroke="#4048F5" stroke-width="2"/>
<path d="M894.318 138.731C896.836 131.544 900.228 124.839 904.351 118.775C918.129 98.5098 940.065 85.4014 964.772 85.4014C1006.48 85.4014 1040.29 122.756 1040.29 168.836V235.917L1199.29 209.872V215.626L1063.61 238.339L1072.39 247.728L1069.36 255.905L1055.13 258.025V255.905L1045.74 243.185" stroke="#4048F5"/>
</g>
<defs>
<clipPath id="clip0_178_1601">
<rect width="960" height="505" fill="white" transform="translate(-0.365967)"/>
</clipPath>
</defs>
</svg>
