<svg width="196" height="122" viewBox="0 0 196 122" fill="none" xmlns="http://www.w3.org/2000/svg">
<g filter="url(#filter0_d_915_105)">
<path d="M46.2668 61.2824V36.9527H53.0517C55.0411 36.9527 56.8248 37.4094 58.403 38.3229C59.9812 39.2252 61.2092 40.5231 62.0872 42.2163C62.9763 43.9096 63.4209 45.8368 63.4209 47.998V50.2371C63.4209 52.4094 62.9819 54.3366 62.1039 56.0187C61.2259 57.7009 59.9867 58.9987 58.3863 59.9122C56.7971 60.8256 54.9688 61.2824 52.9017 61.2824H46.2668ZM48.3173 38.7072V59.5445H52.9184C55.4745 59.5445 57.525 58.6979 59.0698 57.0046C60.6146 55.3002 61.3871 52.9998 61.3871 50.1034V47.9645C61.3871 45.1684 60.6258 42.9293 59.1032 41.2472C57.5806 39.565 55.5745 38.7184 53.0851 38.7072H48.3173Z" fill="white"/>
<path fill-rule="evenodd" clip-rule="evenodd" d="M44.2668 63.2824V34.9527H53.0517C55.3581 34.9527 57.4916 35.4856 59.4004 36.5893C61.3256 37.6913 62.8154 39.2777 63.8603 41.291C64.917 43.3054 65.4209 45.5573 65.4209 47.998V50.2371C65.4209 52.6846 64.9243 54.9374 63.8769 56.9442C62.8276 58.9545 61.3229 60.5382 59.3807 61.6475C57.4516 62.7557 55.2721 63.2824 52.9017 63.2824H44.2668ZM62.6585 54.7697C63.1668 53.4007 63.4209 51.8898 63.4209 50.2371V47.998C63.4209 46.9248 63.3112 45.9093 63.092 44.9515C62.8697 43.9805 62.5348 43.0688 62.0872 42.2163C61.6486 41.3704 61.1225 40.6231 60.5091 39.9746C59.8947 39.325 59.1927 38.7744 58.403 38.3229C56.8357 37.4157 55.0657 36.959 53.0929 36.9528C53.0903 36.9528 53.0877 36.9527 53.0851 36.9527C53.074 36.9527 53.0628 36.9527 53.0517 36.9527H46.2668V61.2824H52.9017C52.9072 61.2824 52.9128 61.2824 52.9184 61.2824C54.9787 61.2799 56.8013 60.8232 58.3863 59.9122C59.1711 59.4642 59.869 58.9239 60.48 58.2912C60.4815 58.2897 60.4829 58.2882 60.4843 58.2867C61.1176 57.6301 61.6574 56.8741 62.1039 56.0187C62.3139 55.6164 62.4988 55.2 62.6585 54.7697ZM48.3173 59.5445H52.9184C54.6796 59.5445 56.2008 59.1426 57.4819 58.3387C57.4835 58.3377 57.485 58.3368 57.4866 58.3358C58.063 57.9735 58.5907 57.5298 59.0698 57.0046C59.5837 56.4377 60.0121 55.8048 60.355 55.1059C60.5139 54.7821 60.6545 54.4441 60.7767 54.0919C61.1836 52.9194 61.3871 51.5899 61.3871 50.1034V47.9645C61.3871 47.0477 61.3052 46.1907 61.1415 45.3936C60.9725 44.5707 60.7162 43.8117 60.3728 43.1165C60.3713 43.1136 60.3698 43.1106 60.3683 43.1076C60.0306 42.426 59.6089 41.8059 59.1032 41.2472C58.6189 40.7122 58.0858 40.2617 57.5037 39.8957C57.501 39.894 57.4983 39.8923 57.4956 39.8906C56.2493 39.1093 54.7791 38.7148 53.0851 38.7072H48.3173V59.5445ZM50.3173 57.5445V40.7072H53.0804C55.0668 40.717 56.5147 41.3678 57.6204 42.5893C58.7372 43.8232 59.3871 45.544 59.3871 47.9645V50.1034C59.3871 52.6353 58.7202 54.4109 57.5901 55.6591C56.4704 56.8851 54.9829 57.5445 52.9184 57.5445H50.3173Z" fill="black"/>
<path fill-rule="evenodd" clip-rule="evenodd" d="M45.314 62.2351V36H53.0517C55.1921 36 57.1424 36.493 58.8781 37.4971C60.6216 38.4946 61.9743 39.9299 62.9318 41.7755C63.9008 43.6218 64.3736 45.7037 64.3736 47.998V50.2371C64.3736 52.5405 63.9072 54.6228 62.9485 56.4596C61.9889 58.298 60.6232 59.732 58.86 60.7388C57.1088 61.745 55.1133 62.2351 52.9017 62.2351H45.314ZM58.3863 59.9122C59.9867 58.9987 61.2259 57.7009 62.1039 56.0187C62.9819 54.3366 63.4209 52.4094 63.4209 50.2371V47.998C63.4209 45.8368 62.9763 43.9096 62.0872 42.2163C61.2092 40.5231 59.9811 39.2253 58.403 38.3229C56.8248 37.4094 55.0411 36.9527 53.0517 36.9527H46.2667V61.2824H52.9017C54.9688 61.2824 56.797 60.8256 58.3863 59.9122ZM48.3172 59.5445V38.7072H53.085C55.5745 38.7184 57.5806 39.565 59.1032 41.2472C60.6257 42.9293 61.387 45.1684 61.387 47.9646V50.1034C61.387 52.9998 60.6146 55.3002 59.0698 57.0046C57.525 58.6979 55.4745 59.5445 52.9183 59.5445H48.3172ZM53.0829 39.6599H49.2699V58.5918H52.9183C55.2404 58.5918 57.0227 57.8343 58.365 56.3636C59.7122 54.8766 60.4343 52.8262 60.4343 50.1034V47.9646C60.4343 45.3473 59.7261 43.3551 58.3968 41.8865C57.0729 40.4238 55.3327 39.6705 53.0829 39.6599Z" fill="white"/>
<path d="M35 84.2211V73.6541H38.0367C38.9271 73.6541 39.7254 73.8525 40.4318 74.2492C41.1381 74.6411 41.6877 75.2048 42.0807 75.9402C42.4786 76.6757 42.6776 77.5127 42.6776 78.4513V79.4239C42.6776 80.3673 42.4811 81.2044 42.0882 81.935C41.6952 82.6656 41.1406 83.2292 40.4243 83.626C39.713 84.0227 38.8948 84.2211 37.9696 84.2211H35ZM35.9177 74.4161V83.4663H37.977C39.1211 83.4663 40.0388 83.0986 40.7302 82.3632C41.4216 81.6229 41.7673 80.6238 41.7673 79.3658V78.4368C41.7673 77.2224 41.4266 76.2499 40.7451 75.5193C40.0637 74.7887 39.1658 74.421 38.0516 74.4161H35.9177Z" fill="white"/>
<path d="M47.9303 84.3663C47.2438 84.3663 46.6221 84.2018 46.065 83.8727C45.5128 83.5437 45.0826 83.0865 44.7742 82.5011C44.4658 81.9108 44.3116 81.2503 44.3116 80.5198V80.2077C44.3116 79.4529 44.4608 78.7731 44.7593 78.1683C45.0627 77.5635 45.483 77.0893 46.0202 76.7458C46.5574 76.3975 47.1394 76.2233 47.7661 76.2233C48.746 76.2233 49.522 76.5499 50.094 77.203C50.671 77.8514 50.9595 78.7392 50.9595 79.8666V80.3528H45.1995V80.5198C45.1995 81.41 45.4606 82.1527 45.9829 82.7478C46.5102 83.3381 47.1717 83.6332 47.9676 83.6332C48.4451 83.6332 48.8654 83.5486 49.2285 83.3792C49.5966 83.2099 49.9299 82.9389 50.2283 82.5664L50.7879 82.9801C50.1313 83.9042 49.1788 84.3663 47.9303 84.3663ZM47.7661 76.9635C47.0946 76.9635 46.5276 77.203 46.065 77.682C45.6074 78.161 45.3288 78.8045 45.2293 79.6126H50.0716V79.5182C50.0468 78.7634 49.8254 78.1489 49.4076 77.6748C48.9898 77.2006 48.4426 76.9635 47.7661 76.9635ZM48.7585 73.0735H49.8404L48.1168 75.1056H47.3334L48.7585 73.0735Z" fill="white"/>
<path d="M55.6825 83.6332C56.3042 83.6332 56.824 83.4639 57.2419 83.1252C57.6647 82.7817 57.8935 82.339 57.9283 81.7971H58.7863C58.7615 82.2761 58.6073 82.714 58.3238 83.1107C58.0402 83.5026 57.6622 83.8098 57.1896 84.0324C56.7221 84.255 56.2197 84.3663 55.6825 84.3663C54.623 84.3663 53.7824 84.0082 53.1606 83.2921C52.5438 82.5761 52.2354 81.6132 52.2354 80.4036V80.1424C52.2354 79.3682 52.3747 78.6836 52.6532 78.0885C52.9318 77.4933 53.3297 77.0337 53.847 76.7095C54.3693 76.3854 54.9786 76.2233 55.675 76.2233C56.5604 76.2233 57.2891 76.4797 57.8612 76.9926C58.4382 77.5054 58.7466 78.1804 58.7863 79.0174H57.9283C57.8885 78.403 57.6597 77.907 57.2419 77.5296C56.829 77.1522 56.3067 76.9635 55.675 76.9635C54.8692 76.9635 54.2425 77.2466 53.7948 77.8127C53.3521 78.3788 53.1307 79.1723 53.1307 80.1932V80.4472C53.1307 81.4487 53.3521 82.2301 53.7948 82.7914C54.2425 83.3526 54.8717 83.6332 55.6825 83.6332Z" fill="white"/>
<path d="M60.0846 80.1786C60.0846 79.4239 60.2338 78.7441 60.5323 78.1393C60.8357 77.5345 61.261 77.0651 61.8081 76.7313C62.3603 76.3926 62.9845 76.2233 63.6809 76.2233C64.7553 76.2233 65.6258 76.591 66.2923 77.3264C66.9589 78.057 67.2921 79.0271 67.2921 80.2367V80.4181C67.2921 81.1778 67.1404 81.8624 66.837 82.472C66.5385 83.0768 66.1157 83.5437 65.5686 83.8727C65.0214 84.2018 64.3972 84.3663 63.6958 84.3663C62.6264 84.3663 61.7559 84.001 61.0844 83.2704C60.4179 82.5349 60.0846 81.5624 60.0846 80.3528V80.1786ZM60.9799 80.4181C60.9799 81.3568 61.2287 82.1285 61.7261 82.7333C62.2285 83.3333 62.885 83.6332 63.6958 83.6332C64.5016 83.6332 65.1532 83.3333 65.6507 82.7333C66.153 82.1285 66.4042 81.3326 66.4042 80.3456V80.1786C66.4042 79.5787 66.2898 79.0295 66.061 78.5312C65.8322 78.0328 65.5114 77.6482 65.0985 77.3772C64.6857 77.1014 64.2131 76.9635 63.6809 76.9635C62.885 76.9635 62.2359 77.2684 61.7335 77.878C61.2311 78.4828 60.9799 79.2763 60.9799 80.2585V80.4181Z" fill="white"/>
<path d="M72.8731 77.1087C72.6841 77.0748 72.4826 77.0579 72.2688 77.0579C71.7117 77.0579 71.2391 77.2103 70.8511 77.5151C70.4681 77.8151 70.1945 78.253 70.0304 78.8287V84.2211H69.1425V76.3684H70.0155L70.0304 77.6167C70.5029 76.6878 71.2615 76.2233 72.3061 76.2233C72.5548 76.2233 72.7513 76.2547 72.8955 76.3176L72.8731 77.1087Z" fill="white"/>
<path fill-rule="evenodd" clip-rule="evenodd" d="M34.7 84.5211V73.3541H38.0367C38.973 73.3541 39.8226 73.5631 40.578 73.9873C41.336 74.408 41.9258 75.0141 42.3449 75.7982C42.7691 76.5824 42.9776 77.4694 42.9776 78.4514V79.4239C42.9776 80.4101 42.7719 81.2971 42.3524 82.0771C41.9325 82.8577 41.337 83.4634 40.5697 83.8884C39.8081 84.313 38.9385 84.5211 37.9696 84.5211H34.7ZM40.4318 74.2492C39.7254 73.8525 38.9271 73.6541 38.0367 73.6541H35V84.2211H37.9696C38.8947 84.2211 39.713 84.0227 40.4243 83.626C41.1406 83.2293 41.6952 82.6656 42.0881 81.935C42.4811 81.2044 42.6776 80.3674 42.6776 79.4239V78.4514C42.6776 77.5127 42.4786 76.6757 42.0807 75.9402C41.6877 75.2048 41.1381 74.6411 40.4318 74.2492ZM45.9124 84.1311L45.9114 84.1305C45.3104 83.7723 44.8421 83.2737 44.5088 82.6409L44.5083 82.64C44.1754 82.0028 44.0116 81.294 44.0116 80.5198V80.2077C44.0116 79.4124 44.1691 78.6863 44.4902 78.0356L44.4911 78.0338C44.8171 77.3841 45.2726 76.868 45.8578 76.4936C46.4423 76.1148 47.0805 75.9233 47.7661 75.9233C48.8197 75.9233 49.6823 76.2781 50.3189 77.0045C50.9574 77.7224 51.2595 78.6887 51.2595 79.8666V80.6528H45.5016C45.5262 81.4186 45.7652 82.0445 46.2075 82.549C46.6774 83.0745 47.2571 83.3333 47.9676 83.3333C48.4096 83.3333 48.7852 83.255 49.1017 83.1074L49.1031 83.1067C49.4219 82.96 49.7197 82.7214 49.9942 82.3788L50.1746 82.1536L51.203 82.9138L51.0325 83.1538C50.3133 84.1661 49.2645 84.6663 47.9303 84.6663C47.1936 84.6663 46.5186 84.4891 45.9124 84.1311ZM45.9829 82.7478C45.4869 82.1826 45.2264 81.4843 45.2015 80.6528C45.2001 80.6089 45.1995 80.5645 45.1995 80.5198V80.3528H50.9595V79.8666C50.9595 78.7392 50.671 77.8514 50.094 77.2031C49.522 76.5499 48.746 76.2233 47.7661 76.2233C47.1394 76.2233 46.5574 76.3975 46.0202 76.7458C45.483 77.0894 45.0627 77.5635 44.7593 78.1683C44.4608 78.7731 44.3116 79.4529 44.3116 80.2077V80.5198C44.3116 81.2504 44.4658 81.9108 44.7742 82.5011C45.0826 83.0865 45.5128 83.5437 46.065 83.8728C46.6221 84.2018 47.2438 84.3663 47.9303 84.3663C49.0669 84.3663 49.9582 83.9833 50.6043 83.2174C50.6383 83.1771 50.6716 83.1357 50.7042 83.0933C50.7327 83.0563 50.7605 83.0186 50.7879 82.9801L50.2283 82.5664C49.9299 82.939 49.5966 83.2099 49.2285 83.3792C48.8654 83.5486 48.4451 83.6333 47.9676 83.6333C47.1717 83.6333 46.5102 83.3381 45.9829 82.7478ZM48.6024 72.7735H50.4882L48.2557 75.4056H46.7566L48.6024 72.7735ZM57.9283 79.0174C57.8885 78.403 57.6597 77.907 57.2419 77.5296C56.829 77.1523 56.3067 76.9636 55.675 76.9636C54.8692 76.9636 54.2425 77.2466 53.7948 77.8127C53.3521 78.3788 53.1307 79.1723 53.1307 80.1932V80.4472C53.1307 81.4487 53.3521 82.2301 53.7948 82.7914C54.2425 83.3526 54.8717 83.6333 55.6825 83.6333C56.3042 83.6333 56.824 83.4639 57.2419 83.1252C57.6647 82.7817 57.8935 82.339 57.9283 81.7971H58.7863C58.7811 81.899 58.7699 81.999 58.7529 82.0971C58.69 82.4605 58.547 82.7983 58.3237 83.1107C58.0402 83.5026 57.6622 83.8099 57.1896 84.0324C56.7221 84.255 56.2197 84.3663 55.6825 84.3663C54.623 84.3663 53.7824 84.0082 53.1606 83.2922C52.5438 82.5761 52.2354 81.6132 52.2354 80.4036V80.1424C52.2354 79.3682 52.3747 78.6836 52.6532 78.0885C52.9318 77.4934 53.3297 77.0337 53.847 76.7095C54.3693 76.3854 54.9786 76.2233 55.675 76.2233C56.5604 76.2233 57.2891 76.4797 57.8612 76.9926C58.3675 77.4427 58.6671 78.0176 58.7597 78.7174C58.7726 78.815 58.7815 78.915 58.7863 79.0174H57.9283ZM57.3181 84.3035C56.8088 84.5458 56.2624 84.6663 55.6825 84.6663C54.5475 84.6663 53.6199 84.2787 52.9341 83.4888L52.9333 83.4879C52.2577 82.7036 51.9354 81.6645 51.9354 80.4036V80.1424C51.9354 79.332 52.0813 78.6027 52.3815 77.9613C52.6826 77.3181 53.1177 76.8125 53.6877 76.4553L53.6888 76.4546C54.2647 76.0972 54.9303 75.9233 55.675 75.9233C56.6221 75.9233 57.4256 76.1994 58.0609 76.7688C58.7035 77.3401 59.0428 78.0934 59.086 79.0032L59.1009 79.3174H57.6471L57.6289 79.0368C57.5937 78.4923 57.3949 78.0722 57.0408 77.7523L57.0395 77.7511C56.6891 77.4308 56.2422 77.2636 55.675 77.2636C54.9491 77.2636 54.4142 77.5134 54.0306 77.9981C53.6437 78.4932 53.4307 79.2122 53.4307 80.1932V80.4472C53.4307 81.4075 53.6431 82.1143 54.0299 82.605C54.4127 83.0846 54.9499 83.3333 55.6825 83.3333C56.2467 83.3333 56.6967 83.1809 57.053 82.8922C57.4109 82.6012 57.5995 82.2359 57.6289 81.7779L57.647 81.4971H59.1023L59.0859 81.8127C59.058 82.3498 58.8841 82.8426 58.5678 83.2851L58.5668 83.2866C58.2513 83.7226 57.8324 84.0612 57.3181 84.3035ZM60.2632 78.0065L60.2641 78.0048C60.5912 77.3528 61.0539 76.8401 61.6516 76.4754C62.2544 76.1057 62.9336 75.9233 63.6809 75.9233C64.8322 75.9233 65.7862 76.3212 66.5146 77.125C67.2418 77.9224 67.5921 78.9702 67.5921 80.2367V80.4182C67.5921 81.2185 67.432 81.9496 67.1058 82.6052C66.7834 83.2583 66.3223 83.7696 65.7232 84.1299C65.1248 84.4897 64.4461 84.6663 63.6958 84.6663C62.5497 84.6663 61.5966 84.271 60.8635 83.4734L60.8621 83.4718C60.1352 82.6698 59.7846 81.6198 59.7846 80.3528V80.1787C59.7846 79.3834 59.9421 78.6573 60.2632 78.0065ZM66.2923 77.3264C66.9589 78.057 67.2921 79.0271 67.2921 80.2367V80.4182C67.2921 81.1778 67.1405 81.8625 66.8371 82.4721C66.5387 83.0769 66.1157 83.5437 65.5686 83.8728C65.0214 84.2018 64.3972 84.3663 63.6958 84.3663C62.6264 84.3663 61.7559 84.001 61.0844 83.2704C60.4179 82.5349 60.0846 81.5624 60.0846 80.3528V80.1787C60.0846 79.4239 60.2338 78.7441 60.5323 78.1393C60.8357 77.5345 61.261 77.0652 61.8081 76.7313C62.3603 76.3926 62.9845 76.2233 63.6809 76.2233C64.7553 76.2233 65.6258 76.591 66.2923 77.3264ZM65.4199 82.5416C65.8671 82.0033 66.1042 81.281 66.1042 80.3456V80.1787C66.1042 79.6178 65.9975 79.1119 65.7884 78.6564C65.5804 78.2034 65.2946 77.8647 64.9339 77.628L64.9319 77.6267C64.572 77.3863 64.1583 77.2636 63.6809 77.2636C62.9739 77.2636 62.4099 77.5289 61.965 78.0688L61.9643 78.0697C61.5169 78.6083 61.2799 79.3284 61.2799 80.2585V80.4182C61.2799 81.3011 61.5125 82.0009 61.9569 82.5417C62.3998 83.0701 62.9706 83.3333 63.6958 83.3333C64.4158 83.3333 64.9817 83.0702 65.4199 82.5416ZM73.1631 77.4655L72.8202 77.404C72.6505 77.3736 72.4669 77.3579 72.2688 77.3579C71.7697 77.3579 71.3648 77.4931 71.0365 77.751C70.722 77.9973 70.482 78.3631 70.3304 78.8716V84.5211H68.8425V76.0684H70.3119L70.3194 76.6953C70.4642 76.549 70.6233 76.4222 70.7971 76.3158C71.2312 76.05 71.7383 75.9233 72.3061 75.9233C72.5747 75.9233 72.8178 75.9565 73.0154 76.0426L73.2011 76.1236L73.1631 77.4655ZM70.3248 77.1452C70.2167 77.2862 70.1186 77.4434 70.0304 77.6167L70.0155 76.3684H69.1425V84.2211H70.0304V78.8287C70.1945 78.253 70.4681 77.8151 70.8511 77.5151C71.2391 77.2103 71.7117 77.0579 72.2688 77.0579C72.3735 77.0579 72.4753 77.062 72.5741 77.0701C72.677 77.0786 72.7767 77.0914 72.8731 77.1087L72.8955 76.3176C72.7512 76.2547 72.5548 76.2233 72.3061 76.2233C71.4564 76.2233 70.796 76.5306 70.3248 77.1452ZM35.9177 83.4663V74.4161H38.0516C39.1658 74.421 40.0637 74.7887 40.7451 75.5193C41.4266 76.2499 41.7673 77.2224 41.7673 78.4368V79.3658C41.7673 80.6238 41.4216 81.6229 40.7302 82.3632C40.0388 83.0986 39.1211 83.4663 37.977 83.4663H35.9177ZM38.051 74.7161H36.2177V83.1663H37.977C39.0503 83.1663 39.8845 82.8246 40.5113 82.158C41.1388 81.486 41.4673 80.5668 41.4673 79.3658V78.4368C41.4673 77.2811 41.1447 76.3875 40.5257 75.7239C39.9077 75.0613 39.0927 74.7208 38.051 74.7161ZM46.2814 77.8898C45.9399 78.2474 45.703 78.7168 45.5816 79.3126H49.7586C49.7043 78.7159 49.5075 78.242 49.1825 77.8731C48.826 77.4686 48.3633 77.2636 47.7661 77.2636C47.1755 77.2636 46.6868 77.4703 46.2814 77.8898ZM50.0597 79.3126C50.0042 78.6511 49.7868 78.1051 49.4076 77.6748C48.9898 77.2006 48.4426 76.9636 47.7661 76.9636C47.0946 76.9636 46.5276 77.2031 46.065 77.6821C45.6655 78.1002 45.4025 78.6437 45.2759 79.3126C45.2575 79.4099 45.242 79.5099 45.2293 79.6126H50.0716V79.5182C50.0693 79.4485 50.0654 79.3799 50.0597 79.3126ZM48.7585 73.0735H49.8403L48.1168 75.1056H47.3334L48.7585 73.0735ZM60.9799 80.4182C60.9799 81.3568 61.2286 82.1285 61.7261 82.7333C62.2284 83.3333 62.885 83.6333 63.6958 83.6333C64.5016 83.6333 65.1532 83.3333 65.6507 82.7333C66.153 82.1285 66.4042 81.3326 66.4042 80.3456V80.1787C66.4042 79.5787 66.2898 79.0295 66.061 78.5312C65.8322 78.0328 65.5114 77.6482 65.0985 77.3772C64.6857 77.1014 64.2131 76.9636 63.6809 76.9636C62.885 76.9636 62.2359 77.2684 61.7335 77.878C61.2311 78.4828 60.9799 79.2763 60.9799 80.2585V80.4182Z" fill="white"/>
<path d="M105.829 54.0303C105.551 56.5924 104.634 58.5531 103.078 59.9122C101.533 61.2712 99.4715 61.9508 96.8931 61.9508C95.0927 61.9508 93.4979 61.4996 92.1086 60.5973C90.7305 59.6949 89.6636 58.4194 88.9079 56.7707C88.1521 55.1108 87.7687 53.217 87.7576 51.0893V47.9311C87.7576 45.77 88.1355 43.8539 88.8912 42.1829C89.6469 40.5119 90.7305 39.2252 92.142 38.3229C93.5645 37.4094 95.1983 36.9527 97.0431 36.9527C99.6438 36.9527 101.694 37.6601 103.195 39.0749C104.706 40.4785 105.584 42.4224 105.829 44.9066H103.761C103.25 40.7737 101.011 38.7072 97.0431 38.7072C94.8426 38.7072 93.0866 39.5316 91.7752 41.1803C90.4749 42.829 89.8248 45.1071 89.8248 48.0147V50.989C89.8248 53.7963 90.4582 56.0354 91.7252 57.7064C93.0033 59.3774 94.7259 60.2129 96.8931 60.2129C99.0381 60.2129 100.655 59.7005 101.744 58.6756C102.833 57.6396 103.506 56.0911 103.761 54.0303H105.829Z" fill="white"/>
<path fill-rule="evenodd" clip-rule="evenodd" d="M108.057 52.0303L107.817 54.2459C107.499 57.1771 106.416 59.6501 104.396 61.416C102.401 63.17 99.8291 63.9508 96.8931 63.9508C94.741 63.9508 92.7609 63.4058 91.0192 62.2745L91.013 62.2705C89.2884 61.1413 87.986 59.5594 87.0898 57.6041L87.0876 57.5994C86.197 55.6432 85.77 53.4632 85.7576 51.0998L85.7576 51.0893L85.7576 47.9311C85.7576 45.5359 86.177 43.3308 87.0689 41.3587C87.9683 39.3701 89.2951 37.7696 91.063 36.6389C92.8369 35.5003 94.8522 34.9527 97.0431 34.9527C100.012 34.9527 102.6 35.7685 104.561 37.6146C106.498 39.4164 107.537 41.8505 107.819 44.7107L108.035 46.9066H101.994L101.777 45.1522C101.558 43.3832 101.005 42.3385 100.342 41.7269C99.6925 41.1275 98.6806 40.7072 97.0431 40.7072C95.4222 40.7072 94.2555 41.2766 93.3431 42.4221C92.4123 43.6041 91.8247 45.3885 91.8247 48.0147V50.989C91.8247 53.5044 92.3912 55.2726 93.3163 56.4947C94.2024 57.6515 95.3283 58.2129 96.8931 58.2129C98.745 58.2129 99.7852 57.7705 100.37 57.2227C101.014 56.6077 101.557 55.556 101.777 53.7841L101.994 52.0303H108.057ZM90.4695 55.3163C90.0397 54.0666 89.8247 52.6242 89.8247 50.989V48.0147C89.8247 46.1982 90.0785 44.6273 90.5861 43.3021C90.6247 43.2013 90.6648 43.1019 90.7064 43.0039C90.9928 42.3284 91.3491 41.7206 91.7752 41.1803C92.185 40.6651 92.6383 40.2304 93.1349 39.8761C93.136 39.8754 93.137 39.8747 93.138 39.874C94.23 39.0962 95.5317 38.7072 97.0431 38.7072C99.1472 38.7072 100.765 39.2884 101.897 40.4507C101.901 40.4541 101.904 40.4576 101.907 40.461C102.338 40.9056 102.698 41.4346 102.987 42.0481C103.367 42.8549 103.625 43.8077 103.761 44.9066H105.829C105.759 44.1957 105.637 43.529 105.463 42.9066C105.287 42.276 105.058 41.6907 104.775 41.1509C104.362 40.3618 103.835 39.6698 103.195 39.0749C101.694 37.6601 99.6438 36.9527 97.0431 36.9527C95.1983 36.9527 93.5645 37.4094 92.142 38.3229C91.4321 38.7767 90.8052 39.3278 90.2612 39.976C90.2594 39.978 90.2577 39.9801 90.256 39.9821C89.7206 40.6214 89.2656 41.355 88.8912 42.1829C88.8327 42.3121 88.7766 42.4428 88.7226 42.575C88.0793 44.1517 87.7576 45.9371 87.7576 47.9311V51.0893C87.767 52.8886 88.0426 54.5205 88.5845 55.9852C88.6834 56.2526 88.7912 56.5144 88.9079 56.7707C89.2667 57.5535 89.6957 58.2522 90.1948 58.8668C90.1965 58.8689 90.1982 58.871 90.1999 58.8731C90.7509 59.5501 91.3871 60.1248 92.1086 60.5973C93.4979 61.4996 95.0927 61.9508 96.8931 61.9508C99.4197 61.9508 101.45 61.2983 102.984 59.9933C102.987 59.9912 102.989 59.989 102.992 59.9869C103.021 59.9622 103.049 59.9373 103.078 59.9122C103.942 59.1577 104.608 58.218 105.078 57.0929C105.219 56.7553 105.342 56.4011 105.448 56.0303C105.624 55.4102 105.751 54.7435 105.829 54.0303H103.761C103.654 54.8952 103.473 55.6698 103.219 56.3542C102.894 57.2315 102.447 57.9605 101.88 58.5412C101.879 58.5428 101.877 58.5443 101.876 58.5459C101.833 58.59 101.789 58.6332 101.744 58.6756C100.655 59.7005 99.0381 60.2129 96.8931 60.2129C95.429 60.2129 94.1677 59.8316 93.1094 59.0689C93.1076 59.0676 93.1057 59.0663 93.1039 59.0649C92.5979 58.6994 92.1383 58.2466 91.7252 57.7064C91.3242 57.1775 90.9866 56.5917 90.7126 55.949C90.7119 55.9475 90.7112 55.9459 90.7106 55.9444C90.6239 55.7407 90.5435 55.5314 90.4695 55.3163Z" fill="black"/>
<path fill-rule="evenodd" clip-rule="evenodd" d="M106.89 53.0776L106.776 54.133C106.479 56.8709 105.483 59.0757 103.706 60.6285C101.947 62.1757 99.6418 62.9035 96.8931 62.9035C94.9252 62.9035 93.1468 62.4076 91.5897 61.3962L91.5868 61.3943C90.0436 60.3839 88.8645 58.9624 88.0418 57.1677L88.0408 57.1655C87.2208 55.3645 86.8166 53.3343 86.8049 51.0943L86.8049 51.0893L86.8049 47.9311C86.8049 45.6585 87.2026 43.6047 88.0232 41.7903C88.8473 39.968 90.0468 38.5319 91.628 37.5207C93.2179 36.5 95.0334 36 97.0432 36C99.8191 36 102.126 36.759 103.846 38.3792C105.56 39.9726 106.515 42.15 106.777 44.8133L106.88 45.8593H102.919L102.816 45.0236C102.578 43.0988 101.954 41.7896 101.052 40.9572C100.157 40.1307 98.862 39.6599 97.0432 39.6599C95.1187 39.6599 93.6435 40.3628 92.5221 41.7718C91.3979 43.1981 90.7775 45.241 90.7775 48.0147V50.9891C90.7775 53.6574 91.3791 55.6722 92.4832 57.1292C93.5746 58.5553 95.0129 59.2602 96.8931 59.2602C98.899 59.2602 100.241 58.7809 101.09 57.9835C101.967 57.1482 102.577 55.8365 102.816 53.913L102.92 53.0776H106.89ZM101.744 58.6756C100.655 59.7005 99.0381 60.2129 96.8931 60.2129C94.7259 60.2129 93.0033 59.3774 91.7252 57.7064C90.4583 56.0355 89.8248 53.7963 89.8248 50.9891V48.0147C89.8248 45.1072 90.4749 42.829 91.7752 41.1803C93.0867 39.5316 94.8426 38.7072 97.0432 38.7072C101.011 38.7072 103.25 40.7737 103.761 44.9066H105.829C105.796 44.5797 105.753 44.2621 105.699 43.9539C105.342 41.9201 104.507 40.2938 103.195 39.0749C101.694 37.6601 99.6438 36.9527 97.0432 36.9527C95.1983 36.9527 93.5646 37.4094 92.142 38.3229C90.7305 39.2253 89.6469 40.5119 88.8912 42.1829C88.1355 43.8539 87.7576 45.77 87.7576 47.9311V51.0893C87.7687 53.217 88.1521 55.1108 88.9079 56.7707C89.6636 58.4194 90.7305 59.6949 92.1087 60.5973C93.4979 61.4996 95.0927 61.9508 96.8931 61.9508C99.4715 61.9508 101.533 61.2712 103.078 59.9122C104.435 58.7267 105.306 57.0837 105.691 54.983C105.747 54.6752 105.793 54.3576 105.829 54.0303H103.761C103.506 56.0912 102.833 57.6396 101.744 58.6756Z" fill="white"/>
<path d="M87.505 81.2602C87.3829 82.373 86.98 83.2245 86.2963 83.8148C85.6175 84.4051 84.7116 84.7002 83.5787 84.7002C82.7875 84.7002 82.0867 84.5043 81.4763 84.1124C80.8708 83.7205 80.4019 83.1665 80.0699 82.4504C79.7378 81.7295 79.5693 80.907 79.5644 79.9828V78.6111C79.5644 77.6725 79.7305 76.8403 80.0625 76.1145C80.3946 75.3888 80.8708 74.83 81.491 74.438C82.1161 74.0413 82.8339 73.8429 83.6446 73.8429C84.7873 73.8429 85.6883 74.1502 86.3476 74.7646C87.0118 75.3743 87.3976 76.2186 87.505 77.2975H86.5967C86.372 75.5025 85.388 74.605 83.6446 74.605C82.6777 74.605 81.9061 74.963 81.3298 75.6791C80.7584 76.3952 80.4728 77.3846 80.4728 78.6474V79.9393C80.4728 81.1586 80.7511 82.1311 81.3078 82.8568C81.8694 83.5826 82.6264 83.9455 83.5787 83.9455C84.5212 83.9455 85.2317 83.7229 85.7103 83.2778C86.1889 82.8278 86.4843 82.1553 86.5967 81.2602H87.505Z" fill="white"/>
<path d="M89.0067 80.5126C89.0067 79.7578 89.1532 79.0781 89.4462 78.4733C89.7441 77.8685 90.1616 77.3991 90.6988 77.0653C91.2409 76.7266 91.8537 76.5573 92.5374 76.5573C93.5923 76.5573 94.4469 76.925 95.1013 77.6604C95.7557 78.391 96.0829 79.3611 96.0829 80.5707V80.7521C96.0829 81.5118 95.9339 82.1964 95.636 82.806C95.343 83.4108 94.9279 83.8777 94.3907 84.2067C93.8535 84.5357 93.2407 84.7002 92.5521 84.7002C91.5021 84.7002 90.6475 84.3349 89.9882 83.6044C89.3339 82.8689 89.0067 81.8964 89.0067 80.6868V80.5126ZM89.8857 80.7521C89.8857 81.6908 90.1299 82.4625 90.6182 83.0673C91.1115 83.6673 91.7561 83.9672 92.5521 83.9672C93.3432 83.9672 93.983 83.6673 94.4713 83.0673C94.9645 82.4625 95.2112 81.6666 95.2112 80.6796V80.5126C95.2112 79.9127 95.0988 79.3635 94.8742 78.8652C94.6495 78.3668 94.3346 77.9822 93.9292 77.7112C93.5239 77.4354 93.06 77.2975 92.5374 77.2975C91.7561 77.2975 91.1188 77.6023 90.6255 78.212C90.1323 78.8168 89.8857 79.6103 89.8857 80.5925V80.7521Z" fill="white"/>
<path d="M98.8811 84.5551H98.0021V73.4075H98.8811V84.5551Z" fill="white"/>
<path d="M100.786 80.5126C100.786 79.7578 100.932 79.0781 101.225 78.4733C101.523 77.8685 101.941 77.3991 102.478 77.0653C103.02 76.7266 103.633 76.5573 104.316 76.5573C105.371 76.5573 106.226 76.925 106.88 77.6604C107.535 78.391 107.862 79.3611 107.862 80.5707V80.7521C107.862 81.5118 107.713 82.1964 107.415 82.806C107.122 83.4108 106.707 83.8777 106.17 84.2067C105.633 84.5357 105.02 84.7002 104.331 84.7002C103.281 84.7002 102.427 84.3349 101.767 83.6044C101.113 82.8689 100.786 81.8964 100.786 80.6868V80.5126ZM101.665 80.7521C101.665 81.6908 101.909 82.4625 102.397 83.0673C102.89 83.6673 103.535 83.9672 104.331 83.9672C105.122 83.9672 105.762 83.6673 106.25 83.0673C106.744 82.4625 106.99 81.6666 106.99 80.6796V80.5126C106.99 79.9127 106.878 79.3635 106.653 78.8652C106.429 78.3668 106.114 77.9822 105.708 77.7112C105.303 77.4354 104.839 77.2975 104.316 77.2975C103.535 77.2975 102.898 77.6023 102.405 78.212C101.911 78.8168 101.665 79.6103 101.665 80.5925V80.7521Z" fill="white"/>
<path d="M113.341 77.4427C113.156 77.4088 112.958 77.3919 112.748 77.3919C112.201 77.3919 111.737 77.5443 111.356 77.8491C110.98 78.1491 110.711 78.587 110.55 79.1627V84.5551H109.679V76.7024H110.536L110.55 77.9507C111.014 77.0217 111.759 76.5573 112.784 76.5573C113.029 76.5573 113.221 76.5887 113.363 76.6516L113.341 77.4427Z" fill="white"/>
<path fill-rule="evenodd" clip-rule="evenodd" d="M87.8397 80.9602L87.8032 81.2929C87.6749 82.462 87.2465 83.3906 86.4928 84.0416C85.7464 84.6904 84.7644 85.0003 83.5787 85.0003C82.7355 85.0003 81.9774 84.7906 81.3142 84.3648L81.3133 84.3643C80.6558 83.9387 80.1513 83.339 79.7977 82.5766C79.445 81.811 79.2695 80.9444 79.2644 79.9844L79.2644 79.9828L79.2644 78.6112C79.2644 77.6369 79.4369 76.761 79.7897 75.9897C80.1438 75.216 80.6568 74.6103 81.3305 74.1846C82.0081 73.7546 82.7827 73.5429 83.6446 73.5429C84.8416 73.5429 85.8228 73.8659 86.5513 74.5444C87.2798 75.2135 87.6904 76.1316 87.8035 77.2678L87.8363 77.5975H86.3319L86.299 77.3348C86.1923 76.4827 85.9109 75.8855 85.488 75.4998C85.0666 75.1154 84.4652 74.905 83.6446 74.905C82.7633 74.905 82.0798 75.2258 81.5639 75.8667C81.0487 76.5127 80.7728 77.4275 80.7728 78.6474V79.9393C80.7728 81.1142 81.0408 82.0155 81.5455 82.6738C82.0478 83.3226 82.7154 83.6455 83.5787 83.6455C84.4782 83.6455 85.1027 83.4329 85.5054 83.0586C85.9166 82.6717 86.1922 82.0739 86.299 81.2228L86.332 80.9602H87.8397ZM85.7103 83.2778C85.2317 83.7229 84.5212 83.9455 83.5787 83.9455C82.6264 83.9455 81.8694 83.5826 81.3078 82.8568C80.7511 82.1311 80.4728 81.1586 80.4728 79.9393V78.6474C80.4728 77.3846 80.7584 76.3952 81.3298 75.6791C81.9061 74.963 82.6777 74.605 83.6446 74.605C85.388 74.605 86.372 75.5025 86.5967 77.2975H87.505C87.4948 77.1954 87.4822 77.0954 87.467 76.9975C87.322 76.0609 86.9489 75.3166 86.3476 74.7646C85.6883 74.1502 84.7873 73.8429 83.6446 73.8429C82.8339 73.8429 82.1161 74.0413 81.491 74.4381C80.8708 74.83 80.3946 75.3888 80.0625 76.1146C79.7305 76.8403 79.5644 77.6725 79.5644 78.6112V79.9828C79.5693 80.907 79.7378 81.7295 80.0699 82.4504C80.4019 83.1665 80.8708 83.7205 81.4763 84.1124C82.0868 84.5043 82.7875 84.7003 83.5787 84.7003C84.7116 84.7003 85.6175 84.4051 86.2963 83.8148C86.9172 83.2788 87.3065 82.5272 87.4642 81.5602C87.4802 81.4624 87.4938 81.3624 87.505 81.2602H86.5967C86.4843 82.1553 86.1889 82.8278 85.7103 83.2778ZM89.1762 78.3425L89.1771 78.3407C89.498 77.6892 89.9523 77.1761 90.5401 76.8107C91.1332 76.4402 91.8017 76.2573 92.5374 76.2573C93.671 76.2573 94.6096 76.6566 95.3254 77.461C96.0394 78.2586 96.3829 79.3056 96.3829 80.5707V80.7521C96.3829 81.5519 96.2258 82.2824 95.9056 82.9377C95.5893 83.5902 95.1366 84.1017 94.5474 84.4626C93.9587 84.8231 93.2906 85.0003 92.5521 85.0003C91.4236 85.0003 90.4858 84.6036 89.7655 83.8053L89.7641 83.8038C89.0503 83.0016 88.7067 81.9524 88.7067 80.6868V80.5126C88.7067 79.7182 88.8611 78.9928 89.1762 78.3425ZM95.636 82.806C95.9339 82.1964 96.0829 81.5118 96.0829 80.7521V80.5707C96.0829 79.3611 95.7557 78.391 95.1013 77.6604C94.4469 76.925 93.5923 76.5573 92.5374 76.5573C91.8537 76.5573 91.2409 76.7266 90.6988 77.0653C90.1616 77.3991 89.7441 77.8685 89.4462 78.4733C89.1532 79.0781 89.0067 79.7579 89.0067 80.5126V80.6868C89.0067 81.8964 89.3339 82.8689 89.9883 83.6044C90.6475 84.335 91.5021 84.7003 92.5521 84.7003C93.2407 84.7003 93.8535 84.5358 94.3907 84.2067C94.9279 83.8777 95.343 83.4108 95.636 82.806ZM94.2388 82.8777C94.6779 82.3393 94.9112 81.6162 94.9112 80.6796V80.5126C94.9112 79.951 94.8062 79.4444 94.6007 78.9885C94.3963 78.5349 94.1156 78.1967 93.7625 77.9606L93.7605 77.9593C93.4082 77.7196 93.004 77.5975 92.5374 77.5975C91.847 77.5975 91.2953 77.8612 90.8588 78.4007L90.858 78.4016C90.4188 78.9402 90.1857 79.6611 90.1857 80.5925V80.7521C90.1857 81.6364 90.4145 82.3369 90.8508 82.8778C91.2853 83.4058 91.8437 83.6672 92.5521 83.6672C93.2553 83.6672 93.8089 83.4059 94.2388 82.8777ZM99.1811 84.8551H97.7021V73.1075H99.1811V84.8551ZM100.955 78.3425L100.956 78.3407C101.277 77.6892 101.731 77.1761 102.319 76.8107C102.912 76.4402 103.581 76.2573 104.316 76.2573C105.45 76.2573 106.388 76.6564 107.104 77.4605C107.818 78.2581 108.162 79.3053 108.162 80.5707V80.7521C108.162 81.5519 108.005 82.2824 107.685 82.9377C107.368 83.5902 106.916 84.1017 106.326 84.4626C105.738 84.8231 105.07 85.0003 104.331 85.0003C103.203 85.0003 102.265 84.6036 101.545 83.8053L101.543 83.8038C100.829 83.0016 100.486 81.9524 100.486 80.6868V80.5126C100.486 79.7182 100.64 78.9928 100.955 78.3425ZM107.415 82.806C107.713 82.1964 107.862 81.5118 107.862 80.7521V80.5707C107.862 79.3611 107.535 78.391 106.88 77.6604C106.226 76.925 105.371 76.5573 104.316 76.5573C103.633 76.5573 103.02 76.7266 102.478 77.0653C101.941 77.3991 101.523 77.8685 101.225 78.4733C100.932 79.0781 100.786 79.7579 100.786 80.5126V80.6868C100.786 81.8964 101.113 82.8689 101.767 83.6044C102.427 84.335 103.281 84.7003 104.331 84.7003C105.02 84.7003 105.633 84.5358 106.17 84.2067C106.707 83.8777 107.122 83.4108 107.415 82.806ZM105.542 77.9606L105.539 77.9593C105.187 77.7196 104.783 77.5975 104.316 77.5975C103.626 77.5975 103.074 77.8612 102.638 78.4007L102.637 78.4016C102.198 78.9402 101.965 79.6611 101.965 80.5925V80.7521C101.965 81.6364 102.194 82.337 102.63 82.8778C103.064 83.4058 103.623 83.6672 104.331 83.6672C105.034 83.6672 105.588 83.4061 106.018 82.8779C106.457 82.3396 106.69 81.6162 106.69 80.6796V80.5126C106.69 79.951 106.585 79.4444 106.38 78.9885C106.175 78.5349 105.895 78.1967 105.542 77.9606ZM113.631 77.8006L113.287 77.7378C113.121 77.7075 112.942 77.6919 112.748 77.6919C112.26 77.6919 111.865 77.8263 111.543 78.0833C111.235 78.3292 110.999 78.6951 110.85 79.2048V84.8551H109.379V76.4024H110.832L110.839 77.0198C110.979 76.8782 111.131 76.7549 111.298 76.6511C111.725 76.3844 112.225 76.2573 112.784 76.2573C113.049 76.2573 113.289 76.2905 113.485 76.3774L113.669 76.459L113.631 77.8006ZM110.845 77.4721C110.736 77.6149 110.638 77.7745 110.55 77.9507L110.536 76.7024H109.679V84.5551H110.55V79.1627C110.711 78.587 110.98 78.1491 111.356 77.8491C111.737 77.5443 112.201 77.3919 112.748 77.3919C112.849 77.3919 112.947 77.3958 113.042 77.4036C113.145 77.4121 113.245 77.4251 113.341 77.4427L113.363 76.6516C113.221 76.5887 113.029 76.5573 112.784 76.5573C111.953 76.5573 111.307 76.8622 110.845 77.4721ZM98.8811 84.5551V73.4075H98.0021V84.5551H98.8811ZM89.8857 80.7521C89.8857 81.6908 90.1299 82.4625 90.6182 83.0673C91.1115 83.6673 91.7561 83.9672 92.5521 83.9672C93.3432 83.9672 93.983 83.6673 94.4713 83.0673C94.9645 82.4625 95.2112 81.6666 95.2112 80.6796V80.5126C95.2112 79.9127 95.0988 79.3635 94.8742 78.8652C94.6495 78.3668 94.3346 77.9822 93.9292 77.7112C93.5239 77.4354 93.06 77.2975 92.5374 77.2975C91.7561 77.2975 91.1188 77.6024 90.6255 78.212C90.1323 78.8168 89.8857 79.6103 89.8857 80.5925V80.7521ZM101.665 80.7521C101.665 81.6908 101.909 82.4625 102.397 83.0673C102.89 83.6673 103.535 83.9672 104.331 83.9672C105.122 83.9672 105.762 83.6673 106.25 83.0673C106.744 82.4625 106.99 81.6666 106.99 80.6796V80.5126C106.99 79.9127 106.878 79.3635 106.653 78.8652C106.429 78.3668 106.114 77.9822 105.708 77.7112C105.303 77.4354 104.839 77.2975 104.316 77.2975C103.535 77.2975 102.898 77.6024 102.405 78.212C101.911 78.8168 101.665 79.6103 101.665 80.5925V80.7521Z" fill="white"/>
<path d="M146.75 49.6188H135.397V59.5445H148.45V61.2824H133.346V36.9527H148.367V38.7072H135.397V47.881H146.75V49.6188Z" fill="white"/>
<path fill-rule="evenodd" clip-rule="evenodd" d="M147.702 50.5715H136.35V58.5918H149.403V62.2351H132.394V36H149.319V39.6599H136.35V46.9283H147.702V50.5715ZM135.397 47.881V38.7072H148.367V36.9527H133.346V61.2824H148.45V59.5445H135.397V49.6188H146.75V47.881H135.397Z" fill="white"/>
<path fill-rule="evenodd" clip-rule="evenodd" d="M147.702 50.5715H136.35V58.5918H149.403V62.2351H132.394V36H149.319V39.6599H136.35V46.9283H147.702V50.5715ZM137.35 45.9283H148.702V51.5715H137.35V57.5918H150.403V63.2351H131.394V35H150.319V40.6599H137.35V45.9283Z" fill="black"/>
<path d="M126.024 79.5038H120.949V83.7386H126.784V84.48H120.032V74.0998H126.747V74.8484H120.949V78.7623H126.024V79.5038Z" fill="white"/>
<path d="M131.047 79.8959L133.223 76.7661H134.282L131.546 80.5518L134.401 84.48H133.35L131.055 81.2148L128.759 84.48H127.708L130.555 80.5518L127.82 76.7661H128.871L131.047 79.8959Z" fill="white"/>
<path d="M142.42 80.7015C142.42 81.904 142.142 82.8593 141.585 83.5675C141.029 84.2709 140.284 84.6226 139.35 84.6226C138.247 84.6226 137.402 84.2519 136.816 83.5104V87.4458H135.929V76.7661H136.756L136.801 77.8569C137.382 77.0347 138.224 76.6236 139.327 76.6236C140.291 76.6236 141.046 76.9729 141.593 77.6716C142.144 78.3702 142.42 79.3398 142.42 80.5803V80.7015ZM141.526 80.5518C141.526 79.5679 141.315 78.7909 140.892 78.2205C140.47 77.6502 139.881 77.365 139.126 77.365C138.579 77.365 138.11 77.491 137.717 77.7429C137.325 77.9948 137.024 78.3607 136.816 78.8408V82.5409C137.029 82.9829 137.335 83.3203 137.732 83.5532C138.13 83.7861 138.599 83.9025 139.141 83.9025C139.891 83.9025 140.475 83.6174 140.892 83.047C141.315 82.4719 141.526 81.6402 141.526 80.5518Z" fill="white"/>
<path d="M147.525 84.6226C146.84 84.6226 146.219 84.461 145.662 84.1378C145.111 83.8146 144.681 83.3655 144.373 82.7904C144.065 82.2105 143.911 81.5618 143.911 80.8441V80.5375C143.911 79.7961 144.06 79.1283 144.358 78.5342C144.661 77.9401 145.081 77.4743 145.617 77.1369C146.154 76.7947 146.735 76.6236 147.361 76.6236C148.34 76.6236 149.115 76.9444 149.687 77.586C150.263 78.2229 150.551 79.095 150.551 80.2025V80.6801H144.798V80.8441C144.798 81.7186 145.058 82.4482 145.58 83.0328C146.107 83.6126 146.768 83.9025 147.563 83.9025C148.04 83.9025 148.459 83.8194 148.822 83.653C149.19 83.4867 149.523 83.2205 149.821 82.8545L150.38 83.2609C149.724 84.1687 148.772 84.6226 147.525 84.6226ZM147.361 77.3507C146.691 77.3507 146.124 77.586 145.662 78.0565C145.205 78.5271 144.927 79.1592 144.827 79.9529H149.664V79.8602C149.639 79.1188 149.418 78.5152 149.001 78.0494C148.584 77.5836 148.037 77.3507 147.361 77.3507Z" fill="white"/>
<path d="M156.014 77.4933C155.825 77.4601 155.624 77.4434 155.41 77.4434C154.854 77.4434 154.382 77.5931 153.994 77.8926C153.612 78.1872 153.338 78.6174 153.175 79.183V84.48H152.288V76.7661H153.16L153.175 77.9924C153.647 77.0798 154.404 76.6236 155.448 76.6236C155.696 76.6236 155.892 76.6544 156.036 76.7162L156.014 77.4933Z" fill="white"/>
<path d="M159.189 74.7913V76.7661H160.858V77.4648H159.189V82.605C159.189 83.0328 159.268 83.3512 159.427 83.5603C159.591 83.7695 159.862 83.874 160.24 83.874C160.389 83.874 160.63 83.8503 160.963 83.8027L161 84.5014C160.766 84.5822 160.448 84.6226 160.046 84.6226C159.435 84.6226 158.99 84.4539 158.712 84.1164C158.434 83.7742 158.295 83.2728 158.295 82.6121V77.4648H156.812V76.7661H158.295V74.7913H159.189Z" fill="white"/>
<path fill-rule="evenodd" clip-rule="evenodd" d="M126.324 79.8038H121.249V83.4386H127.084V84.78H119.732V73.7998H127.047V75.1484H121.249V78.4624H126.324V79.8038ZM120.949 78.7624V74.8484H126.747V74.0998H120.032V84.48H126.784V83.7386H120.949V79.5038H126.024V78.7624H120.949ZM130.555 80.5518L127.82 76.7662H128.871L131.047 79.8959L133.223 76.7662H134.282L131.546 80.5518L134.401 84.48H133.35L131.055 81.2148L128.759 84.48H127.708L130.555 80.5518ZM131.055 81.7365L128.915 84.78H127.12L130.185 80.5515L127.233 76.4662H129.028L131.047 79.3704L133.067 76.4662H134.869L131.917 80.5513L134.99 84.78H133.194L131.055 81.7365ZM141.821 83.7536C141.205 84.5323 140.371 84.9226 139.35 84.9226C138.463 84.9226 137.711 84.6957 137.116 84.2309V87.7458H135.629V76.4662H137.044L137.07 77.1071C137.665 76.5832 138.424 76.3236 139.327 76.3236C140.374 76.3236 141.22 76.7082 141.829 77.4861C142.435 78.2551 142.72 79.2987 142.72 80.5803V80.7015C142.72 81.9487 142.431 82.9773 141.821 83.7536ZM137.087 77.5076C136.985 77.6143 136.89 77.7308 136.801 77.8569L136.756 76.7662H135.929V87.4458H136.816V83.5105C136.909 83.6286 137.009 83.7374 137.116 83.8367C137.678 84.3606 138.422 84.6226 139.35 84.6226C140.284 84.6226 141.029 84.2709 141.585 83.5675C142.142 82.8593 142.42 81.904 142.42 80.7015V80.5803C142.42 79.3398 142.144 78.3701 141.593 77.6715C141.046 76.9728 140.291 76.6236 139.327 76.6236C138.393 76.6236 137.647 76.9182 137.087 77.5076ZM140.892 83.047C141.315 82.472 141.526 81.6402 141.526 80.5518C141.526 79.568 141.315 78.7909 140.892 78.2205C140.47 77.6502 139.881 77.365 139.126 77.365C138.579 77.365 138.11 77.491 137.717 77.7429C137.325 77.9948 137.024 78.3607 136.816 78.8408V82.5409C137.029 82.9829 137.335 83.3203 137.732 83.5532C138.13 83.7861 138.599 83.9026 139.141 83.9026C139.891 83.9026 140.475 83.6174 140.892 83.047ZM137.116 82.4701C137.303 82.8322 137.559 83.1039 137.884 83.2944C138.228 83.4959 138.643 83.6026 139.141 83.6026C139.802 83.6026 140.293 83.3576 140.65 82.8699C141.02 82.367 141.226 81.6079 141.226 80.5518C141.226 79.608 141.023 78.9011 140.651 78.3991C140.29 77.9107 139.793 77.665 139.126 77.665C138.627 77.665 138.216 77.7795 137.879 77.9953C137.558 78.2019 137.302 78.5007 137.116 78.9048V82.4701ZM145.511 84.3972L145.51 84.3967C144.91 84.0449 144.442 83.5548 144.108 82.932L144.108 82.9311C143.775 82.304 143.611 81.6062 143.611 80.8441V80.5375C143.611 79.7548 143.768 79.0401 144.09 78.3997L144.091 78.3979C144.417 77.7585 144.872 77.2512 145.457 76.8834C146.041 76.5114 146.677 76.3236 147.361 76.3236C148.412 76.3236 149.273 76.6714 149.91 77.3857C150.549 78.0921 150.851 79.0433 150.851 80.2025V80.9801H145.1C145.125 81.7274 145.363 82.3387 145.803 82.832C146.272 83.3476 146.851 83.6026 147.563 83.6026C148.005 83.6026 148.38 83.5255 148.697 83.3803L148.698 83.3797C149.017 83.2355 149.314 83.0011 149.588 82.6651L149.767 82.4449L150.798 83.1942L150.623 83.4366C149.904 84.4322 148.856 84.9226 147.525 84.9226C146.79 84.9226 146.117 84.7488 145.511 84.3972ZM145.58 83.0328C145.086 82.4788 144.826 81.7945 144.8 80.9801C144.798 80.9352 144.798 80.8898 144.798 80.8441V80.6801H150.551V80.2025C150.551 79.0951 150.263 78.2229 149.687 77.586C149.115 76.9444 148.34 76.6236 147.361 76.6236C146.735 76.6236 146.154 76.7947 145.617 77.1369C145.081 77.4743 144.661 77.9401 144.358 78.5342C144.06 79.1283 143.911 79.7961 143.911 80.5375V80.8441C143.911 81.5618 144.065 82.2105 144.373 82.7904C144.681 83.3655 145.111 83.8146 145.662 84.1378C146.219 84.461 146.84 84.6226 147.525 84.6226C148.659 84.6226 149.549 84.2473 150.194 83.4968C150.254 83.4272 150.311 83.3545 150.367 83.2785C150.371 83.2727 150.375 83.2668 150.38 83.2609L149.821 82.8546C149.821 82.8546 149.821 82.8546 149.821 82.8546C149.523 83.2205 149.19 83.4867 148.822 83.653C148.459 83.8194 148.04 83.9026 147.563 83.9026C146.768 83.9026 146.107 83.6126 145.58 83.0328ZM156.304 77.849L155.962 77.7888C155.792 77.7589 155.609 77.7434 155.41 77.7434C154.911 77.7434 154.506 77.8766 154.178 78.13C153.864 78.3714 153.625 78.7293 153.475 79.2265V84.78H151.988V76.4662H153.456L153.463 77.083C153.609 76.9386 153.768 76.8136 153.942 76.7088C154.375 76.4478 154.881 76.3236 155.448 76.3236C155.716 76.3236 155.958 76.3561 156.155 76.4405L156.342 76.5209L156.304 77.849ZM153.469 77.5288C153.361 77.6674 153.263 77.8219 153.175 77.9924L153.16 76.7662H152.288V84.48H153.175V79.183C153.338 78.6174 153.612 78.1873 153.994 77.8926C154.382 77.5932 154.854 77.4434 155.41 77.4434C155.515 77.4434 155.616 77.4474 155.715 77.4554C155.818 77.4637 155.918 77.4763 156.014 77.4933L156.036 76.7162C155.892 76.6545 155.696 76.6236 155.448 76.6236C154.599 76.6236 153.94 76.9253 153.469 77.5288ZM159.489 74.4913V76.4662H161.158V77.7648H159.489V82.605C159.489 83.0034 159.564 83.2435 159.665 83.377C159.751 83.4858 159.915 83.574 160.24 83.574C160.366 83.574 160.588 83.5531 160.92 83.5058L161.245 83.4594L161.312 84.7111L161.098 84.7849C160.819 84.8813 160.464 84.9226 160.046 84.9226C159.383 84.9226 158.836 84.7382 158.48 84.3073L158.479 84.3057C158.14 83.8891 157.995 83.3088 157.995 82.6122V77.7648H156.511V76.4662H157.995V74.4913H159.489ZM158.295 76.7662H156.811V77.4648H158.295V82.6122C158.295 83.2728 158.434 83.7742 158.712 84.1164C158.99 84.4539 159.435 84.6226 160.046 84.6226C160.448 84.6226 160.766 84.5822 161 84.5014L160.963 83.8028C160.853 83.8184 160.754 83.8314 160.664 83.8419C160.481 83.8633 160.34 83.874 160.24 83.874C159.862 83.874 159.591 83.7695 159.427 83.5604C159.268 83.3512 159.189 83.0328 159.189 82.605V77.4648H160.858V76.7662H159.189V74.7913H158.295V76.7662ZM145.877 78.2662C145.538 78.6153 145.302 79.0727 145.181 79.6529H149.351C149.296 79.0717 149.1 78.6098 148.778 78.2496C148.422 77.8529 147.959 77.6508 147.361 77.6508C146.77 77.6508 146.281 77.8546 145.877 78.2662ZM149.652 79.6529C149.596 79.0055 149.379 78.471 149.001 78.0494C148.584 77.5836 148.037 77.3508 147.361 77.3508C146.691 77.3508 146.124 77.586 145.662 78.0566C145.264 78.4662 145.002 78.9983 144.875 79.6529C144.856 79.7502 144.84 79.8502 144.827 79.9529H149.664V79.8603C149.662 79.7899 149.658 79.7208 149.652 79.6529Z" fill="white"/>
</g>
<defs>
<filter id="filter0_d_915_105" x="0.699997" y="0.952698" width="194.612" height="120.793" filterUnits="userSpaceOnUse" color-interpolation-filters="sRGB">
<feFlood flood-opacity="0" result="BackgroundImageFix"/>
<feColorMatrix in="SourceAlpha" type="matrix" values="0 0 0 0 0 0 0 0 0 0 0 0 0 0 0 0 0 0 127 0" result="hardAlpha"/>
<feOffset/>
<feGaussianBlur stdDeviation="17"/>
<feColorMatrix type="matrix" values="0 0 0 0 0 0 0 0 0 0 0 0 0 0 0 0 0 0 1 0"/>
<feBlend mode="normal" in2="BackgroundImageFix" result="effect1_dropShadow_915_105"/>
<feBlend mode="normal" in="SourceGraphic" in2="effect1_dropShadow_915_105" result="shape"/>
</filter>
</defs>
</svg>
