<svg width="196" height="122" fill="none" xmlns="http://www.w3.org/2000/svg"><g filter="url(#filter0_d_915_105)"><path d="M46.267 61.282v-24.33h6.785c1.99 0 3.773.457 5.351 1.37 1.578.903 2.806 2.201 3.684 3.894.89 1.694 1.334 3.62 1.334 5.782v2.24c0 2.171-.44 4.099-1.317 5.78-.878 1.683-2.117 2.98-3.718 3.894-1.589.914-3.417 1.37-5.484 1.37h-6.635zm2.05-22.575v20.837h4.601c2.556 0 4.607-.846 6.152-2.54 1.545-1.704 2.317-4.004 2.317-6.9v-2.14c0-2.796-.761-5.035-2.284-6.717-1.522-1.682-3.529-2.529-6.018-2.54h-4.768z" fill="#fff"/><path fill-rule="evenodd" clip-rule="evenodd" d="M44.267 63.282v-28.33h8.785c2.306 0 4.44.534 6.348 1.637 1.926 1.102 3.415 2.689 4.46 4.702 1.057 2.014 1.56 4.266 1.56 6.707v2.24c0 2.447-.496 4.7-1.543 6.706-1.05 2.01-2.554 3.594-4.496 4.703-1.93 1.109-4.109 1.635-6.48 1.635h-8.634zm18.391-8.512c.509-1.37.763-2.88.763-4.533v-2.239c0-1.073-.11-2.089-.329-3.046a11.263 11.263 0 00-1.005-2.736 9.81 9.81 0 00-1.578-2.241 9.092 9.092 0 00-2.106-1.652c-1.567-.907-3.337-1.364-5.31-1.37h-6.826v24.33h6.651c2.06-.003 3.883-.46 5.468-1.37a9.305 9.305 0 002.098-1.626 9.725 9.725 0 001.62-2.268c.21-.403.395-.819.554-1.25zm-14.34 4.774h4.6c1.762 0 3.283-.401 4.564-1.205l.005-.003a7.649 7.649 0 001.583-1.331c.514-.567.942-1.2 1.285-1.9.159-.323.3-.66.422-1.013.407-1.173.61-2.502.61-3.989v-2.139c0-.916-.082-1.773-.245-2.57a9.377 9.377 0 00-.774-2.286 8.15 8.15 0 00-1.265-1.86 7.64 7.64 0 00-1.607-1.357c-1.247-.782-2.717-1.176-4.41-1.184h-4.769v20.837zm2-2V40.707h2.762c1.987.01 3.435.66 4.54 1.882 1.117 1.234 1.767 2.955 1.767 5.376v2.138c0 2.532-.667 4.308-1.797 5.556-1.12 1.226-2.607 1.886-4.672 1.886h-2.6z" fill="#000"/><path fill-rule="evenodd" clip-rule="evenodd" d="M45.314 62.235V36h7.738c2.14 0 4.09.493 5.826 1.497 1.744.998 3.096 2.433 4.054 4.279.969 1.846 1.442 3.928 1.442 6.222v2.24c0 2.303-.467 4.385-1.425 6.222-.96 1.838-2.326 3.272-4.089 4.279-1.751 1.006-3.747 1.496-5.958 1.496h-7.588zm13.072-2.323c1.6-.913 2.84-2.211 3.718-3.893.878-1.682 1.317-3.61 1.317-5.782v-2.239c0-2.161-.445-4.088-1.334-5.782-.878-1.693-2.106-2.99-3.684-3.893-1.578-.914-3.362-1.37-5.351-1.37h-6.785v24.33h6.635c2.067 0 3.895-.457 5.484-1.37zm-10.069-.367V38.706h4.768c2.49.011 4.496.858 6.018 2.54 1.523 1.682 2.284 3.921 2.284 6.718v2.138c0 2.897-.772 5.197-2.317 6.902-1.545 1.693-3.596 2.54-6.152 2.54h-4.6zm4.766-19.885H49.27v18.932h3.648c2.322 0 4.105-.758 5.447-2.228 1.347-1.487 2.07-3.538 2.07-6.26v-2.14c0-2.617-.709-4.609-2.038-6.078-1.324-1.462-3.064-2.216-5.314-2.226z" fill="#fff"/><path d="M35 84.221V73.654h3.037c.89 0 1.688.199 2.395.595a4.093 4.093 0 011.649 1.691c.398.736.597 1.573.597 2.511v.973c0 .943-.197 1.78-.59 2.511a4.125 4.125 0 01-1.664 1.691c-.711.397-1.53.595-2.454.595H35zm.918-9.805v9.05h2.059c1.144 0 2.062-.367 2.753-1.103.692-.74 1.037-1.74 1.037-2.997v-.93c0-1.214-.34-2.186-1.022-2.917-.681-.73-1.58-1.098-2.693-1.103h-2.134zm12.012 9.95a3.598 3.598 0 01-1.865-.493 3.413 3.413 0 01-1.29-1.372c-.31-.59-.463-1.25-.463-1.981v-.312c0-.755.149-1.435.447-2.04a3.523 3.523 0 011.261-1.422 3.148 3.148 0 011.746-.523c.98 0 1.756.327 2.328.98.577.648.865 1.536.865 2.664v.486H45.2v.167c0 .89.262 1.633.784 2.228a2.55 2.55 0 001.985.885c.477 0 .897-.084 1.26-.254.369-.17.702-.44 1-.813l.56.414c-.657.924-1.61 1.386-2.858 1.386zm-.164-7.403c-.671 0-1.238.24-1.701.719-.458.479-.736 1.123-.836 1.93h4.843v-.094c-.025-.755-.247-1.37-.664-1.843-.418-.474-.965-.712-1.642-.712zm.992-3.89h1.082l-1.723 2.033h-.784l1.425-2.032zm6.924 10.56c.622 0 1.142-.17 1.56-.508.423-.343.652-.786.686-1.328h.858a2.433 2.433 0 01-.462 1.314 2.886 2.886 0 01-1.134.921 3.46 3.46 0 01-1.508.334c-1.059 0-1.9-.358-2.521-1.074-.617-.716-.926-1.679-.926-2.888v-.262c0-.774.14-1.458.418-2.053a3.172 3.172 0 011.194-1.38c.522-.324 1.132-.486 1.828-.486.885 0 1.614.257 2.186.77.577.512.886 1.187.925 2.024h-.858c-.04-.614-.268-1.11-.686-1.487-.413-.378-.935-.567-1.567-.567-.806 0-1.432.284-1.88.85-.443.566-.664 1.36-.664 2.38v.254c0 1.002.221 1.783.664 2.344.447.562 1.077.842 1.887.842zm4.403-3.454c0-.755.149-1.435.447-2.04a3.386 3.386 0 011.276-1.408 3.51 3.51 0 011.873-.508c1.074 0 1.945.368 2.611 1.103.667.731 1 1.701 1 2.91v.182c0 .76-.152 1.444-.455 2.054a3.29 3.29 0 01-1.268 1.4c-.548.33-1.172.494-1.873.494-1.07 0-1.94-.365-2.612-1.096-.666-.735-1-1.708-1-2.917v-.174zm.895.24c0 .938.249 1.71.746 2.314.502.6 1.159.9 1.97.9.806 0 1.457-.3 1.955-.9.502-.605.753-1.4.753-2.387v-.167a3.9 3.9 0 00-.343-1.648c-.229-.498-.55-.883-.963-1.154a2.493 2.493 0 00-1.417-.413c-.796 0-1.445.304-1.947.914-.503.605-.754 1.398-.754 2.38v.16zm11.893-3.31a3.423 3.423 0 00-.604-.051c-.557 0-1.03.152-1.418.457-.383.3-.656.738-.82 1.314v5.392h-.889v-7.853h.874l.014 1.249c.473-.93 1.231-1.394 2.276-1.394.249 0 .445.032.59.095l-.023.79z" fill="#fff"/><path fill-rule="evenodd" clip-rule="evenodd" d="M34.7 84.521V73.354h3.337c.936 0 1.786.21 2.541.633a4.392 4.392 0 011.767 1.811c.424.784.633 1.671.633 2.653v.973c0 .986-.206 1.873-.626 2.653a4.425 4.425 0 01-1.782 1.811c-.762.425-1.632.633-2.6.633H34.7zm5.732-10.272c-.707-.396-1.505-.595-2.395-.595H35v10.567h2.97c.925 0 1.743-.198 2.454-.595a4.124 4.124 0 001.664-1.691c.393-.73.59-1.568.59-2.511v-.973c0-.938-.2-1.775-.597-2.51a4.093 4.093 0 00-1.65-1.692zm5.48 9.882a3.714 3.714 0 01-1.403-1.49v-.001c-.334-.637-.497-1.346-.497-2.12v-.312c0-.796.157-1.522.478-2.172l.001-.002a3.823 3.823 0 011.367-1.54 3.448 3.448 0 011.908-.57c1.054 0 1.916.354 2.553 1.08.638.718.94 1.685.94 2.863v.786h-5.757c.024.766.263 1.391.706 1.896a2.25 2.25 0 001.76.784c.442 0 .817-.078 1.134-.226h.001c.319-.147.617-.386.891-.728l.18-.225 1.029.76-.17.24c-.72 1.012-1.769 1.512-3.103 1.512a3.899 3.899 0 01-2.018-.535zm.07-1.383c-.495-.565-.756-1.264-.78-2.095a4.177 4.177 0 01-.002-.133v-.167h5.76v-.486c0-1.128-.289-2.016-.866-2.664-.572-.653-1.348-.98-2.328-.98-.627 0-1.209.174-1.746.523a3.523 3.523 0 00-1.26 1.422c-.3.605-.448 1.285-.448 2.04v.312c0 .73.154 1.39.462 1.981a3.414 3.414 0 001.291 1.372 3.599 3.599 0 001.865.493c1.137 0 2.028-.383 2.674-1.149a3.515 3.515 0 00.184-.237l-.56-.414c-.298.373-.631.644-1 .813-.363.17-.783.254-1.26.254a2.55 2.55 0 01-1.985-.885zm2.62-9.975h1.886l-2.232 2.633h-1.5l1.846-2.633zm9.326 6.244c-.04-.614-.268-1.11-.686-1.487-.413-.378-.935-.566-1.567-.566-.806 0-1.432.283-1.88.849-.443.566-.664 1.36-.664 2.38v.254c0 1.002.221 1.783.664 2.344.447.562 1.077.842 1.887.842.622 0 1.142-.17 1.56-.508.423-.343.652-.786.686-1.328h.858a2.441 2.441 0 01-.463 1.314c-.283.392-.66.699-1.133.921a3.46 3.46 0 01-1.508.334c-1.059 0-1.9-.358-2.521-1.074-.617-.716-.926-1.679-.926-2.888v-.262c0-.774.14-1.458.418-2.053a3.172 3.172 0 011.194-1.38c.522-.324 1.132-.486 1.828-.486.885 0 1.614.257 2.186.77.507.45.806 1.025.899 1.724.013.098.022.198.026.3h-.858zm-.61 5.287a3.762 3.762 0 01-1.636.362c-1.135 0-2.062-.387-2.748-1.177v-.001c-.676-.784-.999-1.823-.999-3.084v-.262c0-.81.146-1.54.447-2.18.3-.644.736-1.15 1.306-1.507.577-.358 1.242-.532 1.987-.532.947 0 1.75.276 2.386.846.642.571.982 1.324 1.025 2.234l.015.314h-1.454l-.018-.28c-.035-.545-.234-.965-.588-1.285h-.002c-.35-.321-.797-.488-1.364-.488-.726 0-1.26.25-1.644.734-.387.495-.6 1.214-.6 2.195v.254c0 .96.212 1.667.599 2.158.383.48.92.728 1.652.728.565 0 1.015-.152 1.371-.44.358-.292.547-.657.576-1.115l.018-.28h1.455l-.016.315a2.733 2.733 0 01-.518 1.472l-.001.002a3.186 3.186 0 01-1.249 1.016zm2.945-6.297l.001-.002a3.686 3.686 0 011.388-1.53 3.809 3.809 0 012.029-.552c1.151 0 2.105.398 2.834 1.202.727.797 1.077 1.845 1.077 3.112v.181c0 .8-.16 1.532-.486 2.187a3.59 3.59 0 01-1.383 1.525c-.598.36-1.277.536-2.027.536-1.146 0-2.1-.395-2.832-1.193l-.002-.001c-.727-.802-1.077-1.852-1.077-3.12v-.173c0-.796.157-1.522.478-2.172zm6.03-.68c.666.73 1 1.7 1 2.91v.181c0 .76-.153 1.444-.456 2.054a3.29 3.29 0 01-1.268 1.4c-.548.33-1.172.494-1.873.494-1.07 0-1.94-.365-2.612-1.096-.666-.735-1-1.708-1-2.917v-.174c0-.755.15-1.435.448-2.04a3.387 3.387 0 011.276-1.408 3.51 3.51 0 011.873-.508c1.074 0 1.945.368 2.611 1.103zm-.873 5.215c.447-.539.684-1.261.684-2.196v-.167c0-.561-.106-1.067-.316-1.523-.208-.453-.493-.791-.854-1.028l-.002-.001a2.194 2.194 0 00-1.251-.363c-.707 0-1.271.265-1.716.805-.448.54-.685 1.26-.685 2.19v.16c0 .882.233 1.582.677 2.123.443.528 1.014.791 1.739.791.72 0 1.286-.263 1.724-.791zm7.743-5.076l-.343-.062a3.127 3.127 0 00-.551-.046c-.5 0-.904.135-1.233.393-.314.246-.554.612-.706 1.12v5.65h-1.487v-8.453h1.469l.007.627c.145-.146.304-.273.478-.38.434-.265.941-.392 1.51-.392.268 0 .51.034.708.12l.186.08-.038 1.343zm-2.838-.32a3.035 3.035 0 00-.295.47l-.014-1.248h-.874v7.853h.888V78.83c.165-.576.438-1.014.821-1.314.388-.305.86-.457 1.418-.457a3.737 3.737 0 01.604.05l.022-.79c-.144-.063-.34-.095-.589-.095-.85 0-1.51.308-1.981.922zm-34.407 6.32v-9.05h2.134c1.114.005 2.012.373 2.693 1.103.682.73 1.022 1.703 1.022 2.918v.929c0 1.258-.345 2.257-1.037 2.997-.691.736-1.609 1.103-2.753 1.103h-2.06zm2.133-8.75h-1.833v8.45h1.759c1.073 0 1.908-.341 2.534-1.008.628-.672.956-1.591.956-2.792v-.93c0-1.155-.322-2.049-.941-2.712-.618-.663-1.433-1.003-2.475-1.008zm8.23 3.174c-.341.357-.578.827-.7 1.423h4.178c-.055-.597-.252-1.071-.577-1.44-.356-.404-.819-.61-1.416-.61-.59 0-1.08.207-1.485.627zm3.779 1.423c-.056-.662-.273-1.208-.652-1.638-.418-.474-.965-.711-1.642-.711-.671 0-1.238.24-1.701.718-.4.418-.662.962-.79 1.63a4.756 4.756 0 00-.046.3h4.843v-.094a4.002 4.002 0 00-.012-.205zm-1.302-6.24h1.082l-1.723 2.033h-.784l1.425-2.032zm12.222 7.345c0 .939.249 1.71.746 2.315.502.6 1.159.9 1.97.9.806 0 1.457-.3 1.955-.9.502-.605.753-1.4.753-2.387v-.167a3.9 3.9 0 00-.343-1.648c-.229-.498-.55-.883-.963-1.154a2.493 2.493 0 00-1.417-.413c-.796 0-1.445.304-1.947.914-.503.605-.754 1.398-.754 2.38v.16z" fill="#fff"/><path d="M105.829 54.03c-.278 2.562-1.195 4.523-2.751 5.882-1.545 1.36-3.606 2.039-6.185 2.039-1.8 0-3.395-.451-4.784-1.354-1.378-.902-2.445-2.178-3.201-3.826-.756-1.66-1.14-3.554-1.15-5.682v-3.158c0-2.161.377-4.077 1.133-5.748.756-1.671 1.84-2.958 3.251-3.86 1.422-.914 3.056-1.37 4.901-1.37 2.6 0 4.651.707 6.152 2.122 1.511 1.403 2.389 3.347 2.634 5.832h-2.068c-.511-4.133-2.75-6.2-6.718-6.2-2.2 0-3.956.825-5.268 2.473-1.3 1.649-1.95 3.927-1.95 6.835v2.974c0 2.807.633 5.046 1.9 6.717 1.278 1.671 3 2.507 5.168 2.507 2.145 0 3.762-.513 4.851-1.537 1.089-1.036 1.762-2.585 2.017-4.646h2.068z" fill="#fff"/><path fill-rule="evenodd" clip-rule="evenodd" d="M108.057 52.03l-.24 2.216c-.318 2.931-1.401 5.404-3.421 7.17-1.995 1.754-4.567 2.535-7.503 2.535-2.152 0-4.132-.545-5.874-1.676l-.006-.005c-1.725-1.129-3.027-2.71-3.923-4.666l-.002-.005c-.891-1.956-1.318-4.136-1.33-6.5v-3.167c0-2.395.419-4.6 1.31-6.572.9-1.989 2.227-3.59 3.995-4.72 1.774-1.139 3.79-1.686 5.98-1.686 2.969 0 5.557.816 7.518 2.662 1.937 1.801 2.976 4.235 3.258 7.096l.216 2.196h-6.041l-.217-1.755c-.219-1.769-.772-2.813-1.435-3.425-.65-.6-1.661-1.02-3.299-1.02-1.62 0-2.788.57-3.7 1.715-.93 1.182-1.518 2.967-1.518 5.593v2.974c0 2.515.566 4.284 1.491 5.506.886 1.157 2.012 1.718 3.577 1.718 1.852 0 2.892-.443 3.477-.99.644-.615 1.187-1.667 1.407-3.439l.217-1.754h6.063zm-17.588 3.286c-.43-1.25-.644-2.692-.644-4.327v-2.974c0-1.817.254-3.388.761-4.713a7.918 7.918 0 011.19-2.122c.409-.515.862-.95 1.359-1.304l.003-.002c1.092-.778 2.394-1.167 3.905-1.167 2.104 0 3.722.581 4.854 1.744l.01.01a5.82 5.82 0 011.08 1.587c.38.807.638 1.76.774 2.859h2.068a11.67 11.67 0 00-.366-2 8.95 8.95 0 00-.688-1.756 7.663 7.663 0 00-1.58-2.076c-1.501-1.415-3.551-2.122-6.152-2.122-1.845 0-3.479.456-4.901 1.37a8.227 8.227 0 00-1.88 1.653l-.006.006a9.503 9.503 0 00-1.365 2.2c-.058.13-.114.26-.168.393-.644 1.577-.965 3.362-.965 5.356v3.158c.009 1.8.285 3.431.827 4.896.098.268.206.53.323.786a9.75 9.75 0 001.287 2.096l.005.006a8.34 8.34 0 001.909 1.724c1.389.903 2.984 1.354 4.784 1.354 2.527 0 4.557-.653 6.091-1.958l.008-.006.086-.075c.864-.754 1.53-1.694 2-2.82.141-.337.264-.69.37-1.062.176-.62.303-1.287.381-2h-2.068c-.107.865-.288 1.64-.542 2.324-.325.877-.772 1.607-1.339 2.187l-.004.005a4.367 4.367 0 01-.132.13c-1.089 1.024-2.706 1.537-4.85 1.537-1.465 0-2.726-.381-3.785-1.144l-.005-.004a6.617 6.617 0 01-1.379-1.359 8.248 8.248 0 01-1.014-1.762 9.467 9.467 0 01-.242-.628z" fill="#000"/><path fill-rule="evenodd" clip-rule="evenodd" d="M106.89 53.078l-.114 1.055c-.297 2.738-1.293 4.943-3.07 6.495-1.759 1.548-4.064 2.276-6.813 2.276-1.968 0-3.746-.496-5.303-1.508l-.003-.002c-1.543-1.01-2.722-2.432-3.545-4.226l-.001-.002c-.82-1.801-1.224-3.832-1.236-6.072v-3.163c0-2.273.398-4.326 1.218-6.14.824-1.823 2.024-3.26 3.605-4.27C93.218 36.5 95.033 36 97.043 36c2.776 0 5.083.759 6.803 2.38 1.714 1.593 2.669 3.77 2.931 6.433l.103 1.046h-3.961l-.103-.835c-.238-1.925-.862-3.234-1.764-4.067-.895-.826-2.19-1.297-4.009-1.297-1.924 0-3.4.703-4.52 2.112-1.125 1.426-1.745 3.469-1.745 6.243v2.974c0 2.668.601 4.683 1.705 6.14 1.092 1.426 2.53 2.131 4.41 2.131 2.006 0 3.348-.48 4.197-1.276.877-.836 1.487-2.148 1.726-4.071l.104-.835h3.97zm-5.146 5.598c-1.089 1.024-2.706 1.537-4.85 1.537-2.168 0-3.89-.836-5.169-2.507-1.267-1.67-1.9-3.91-1.9-6.717v-2.974c0-2.908.65-5.186 1.95-6.835 1.312-1.648 3.068-2.473 5.268-2.473 3.968 0 6.207 2.067 6.718 6.2h2.068a13.209 13.209 0 00-.13-.953c-.357-2.034-1.192-3.66-2.504-4.88-1.501-1.414-3.551-2.121-6.152-2.121-1.845 0-3.478.456-4.901 1.37-1.411.902-2.495 2.189-3.25 3.86-.757 1.67-1.134 3.587-1.134 5.748v3.158c.01 2.128.394 4.022 1.15 5.682.756 1.648 1.823 2.924 3.2 3.826 1.39.903 2.985 1.354 4.785 1.354 2.579 0 4.64-.68 6.185-2.039 1.357-1.185 2.228-2.828 2.613-4.929.056-.308.102-.625.138-.953h-2.068c-.255 2.061-.928 3.61-2.017 4.646z" fill="#fff"/><path d="M87.505 81.26c-.122 1.113-.525 1.965-1.209 2.555-.678.59-1.584.885-2.717.885-.791 0-1.492-.196-2.103-.588-.605-.391-1.074-.945-1.406-1.662-.332-.72-.5-1.543-.506-2.467V78.61c0-.939.167-1.77.499-2.496.332-.726.808-1.285 1.428-1.677.625-.397 1.343-.595 2.154-.595 1.142 0 2.043.307 2.703.922.664.61 1.05 1.454 1.157 2.532h-.908c-.225-1.794-1.209-2.692-2.952-2.692-.967 0-1.739.358-2.315 1.074-.572.716-.857 1.706-.857 2.968v1.292c0 1.22.278 2.192.835 2.918.561.726 1.318 1.088 2.27 1.088.943 0 1.654-.222 2.132-.667.479-.45.774-1.123.887-2.018h.908zm1.502-.747c0-.755.146-1.435.44-2.04a3.365 3.365 0 011.252-1.408 3.398 3.398 0 011.838-.508c1.055 0 1.91.368 2.564 1.103.655.731.982 1.701.982 2.91v.182c0 .76-.15 1.444-.447 2.054a3.269 3.269 0 01-1.245 1.4c-.538.33-1.15.494-1.839.494-1.05 0-1.905-.365-2.564-1.096-.654-.735-.981-1.708-.981-2.917v-.174zm.879.24c0 .938.244 1.71.732 2.314.494.6 1.138.9 1.934.9.791 0 1.431-.3 1.92-.9.493-.604.74-1.4.74-2.387v-.167c0-.6-.113-1.15-.338-1.648-.224-.498-.54-.883-.945-1.154a2.415 2.415 0 00-1.392-.413c-.78 0-1.418.304-1.912.914-.493.605-.74 1.398-.74 2.38v.16zm8.995 3.802h-.879V73.407h.88v11.148zm1.905-4.042c0-.755.146-1.435.439-2.04a3.368 3.368 0 011.253-1.408 3.397 3.397 0 011.838-.508c1.055 0 1.91.368 2.564 1.103.655.731.982 1.701.982 2.91v.182c0 .76-.149 1.444-.447 2.054a3.27 3.27 0 01-1.245 1.4c-.537.33-1.15.494-1.839.494-1.05 0-1.904-.365-2.564-1.096-.654-.735-.981-1.708-.981-2.917v-.174zm.879.24c0 .938.244 1.71.732 2.314.493.6 1.138.9 1.934.9.791 0 1.431-.3 1.919-.9.494-.604.74-1.4.74-2.387v-.167c0-.6-.112-1.15-.337-1.648-.224-.498-.539-.883-.945-1.154a2.414 2.414 0 00-1.392-.413c-.781 0-1.418.304-1.911.914-.494.605-.74 1.398-.74 2.38v.16zm11.676-3.31a3.292 3.292 0 00-.593-.051c-.547 0-1.011.152-1.392.457-.376.3-.645.738-.806 1.314v5.392h-.871v-7.853h.857l.014 1.249c.464-.93 1.209-1.394 2.234-1.394.245 0 .437.032.579.095l-.022.79z" fill="#fff"/><path fill-rule="evenodd" clip-rule="evenodd" d="M87.84 80.96l-.037.333c-.128 1.169-.556 2.098-1.31 2.749-.747.648-1.729.958-2.914.958-.843 0-1.602-.21-2.265-.635-.658-.426-1.163-1.026-1.516-1.788-.353-.766-.529-1.633-.534-2.593v-1.373c0-.974.173-1.85.526-2.621.354-.774.867-1.38 1.54-1.805.678-.43 1.453-.642 2.315-.642 1.197 0 2.178.323 2.906 1.001.729.67 1.14 1.588 1.252 2.724l.033.33h-1.504l-.033-.263c-.107-.852-.388-1.45-.811-1.835-.421-.385-1.023-.595-1.843-.595-.882 0-1.565.32-2.081.962-.515.646-.791 1.56-.791 2.78v1.292c0 1.175.268 2.077.773 2.735.502.649 1.17.971 2.033.971.9 0 1.524-.212 1.926-.586.412-.387.687-.985.794-1.836l.033-.263h1.508zm-2.13 2.318c-.478.445-1.189.667-2.131.667-.953 0-1.71-.362-2.271-1.088-.557-.726-.835-1.698-.835-2.918v-1.292c0-1.262.285-2.252.857-2.968.576-.716 1.348-1.074 2.315-1.074 1.743 0 2.727.897 2.952 2.692h.908a5.555 5.555 0 00-.038-.3c-.145-.936-.518-1.68-1.12-2.232-.659-.615-1.56-.922-2.702-.922-.811 0-1.529.198-2.154.595-.62.392-1.096.95-1.428 1.677-.332.725-.499 1.558-.499 2.496v1.372c.005.924.174 1.746.506 2.467.332.716.8 1.27 1.406 1.662.61.392 1.311.588 2.103.588 1.133 0 2.039-.295 2.717-.885.621-.536 1.01-1.288 1.168-2.255.016-.098.03-.198.041-.3h-.908c-.113.895-.408 1.568-.887 2.018zm3.466-4.936l.001-.001a3.665 3.665 0 011.363-1.53 3.697 3.697 0 011.997-.554c1.134 0 2.073.4 2.788 1.204.714.798 1.058 1.845 1.058 3.11v.181c0 .8-.157 1.53-.477 2.186a3.569 3.569 0 01-1.359 1.525c-.588.36-1.256.537-1.995.537-1.128 0-2.066-.396-2.787-1.195v-.001c-.715-.802-1.058-1.852-1.058-3.117v-.174c0-.795.154-1.52.47-2.17zm6.46 4.464c.298-.61.447-1.294.447-2.054v-.181c0-1.21-.327-2.18-.982-2.91-.654-.736-1.509-1.104-2.564-1.104-.683 0-1.296.17-1.838.508a3.365 3.365 0 00-1.253 1.408c-.293.605-.44 1.285-.44 2.04v.174c0 1.21.328 2.182.982 2.917.66.731 1.514 1.096 2.564 1.096.689 0 1.301-.164 1.839-.493a3.269 3.269 0 001.245-1.401zm-1.397.072c.439-.539.672-1.262.672-2.198v-.167c0-.562-.105-1.069-.31-1.525-.205-.453-.485-.791-.838-1.027l-.003-.002a2.116 2.116 0 00-1.223-.362c-.69 0-1.242.264-1.678.804h-.001c-.44.54-.672 1.26-.672 2.192v.16c0 .883.228 1.584.665 2.125.434.528.993.79 1.701.79.703 0 1.257-.262 1.687-.79zm4.942 1.977h-1.479V73.107h1.48v11.748zm1.774-6.513l.001-.001a3.664 3.664 0 011.363-1.53 3.698 3.698 0 011.997-.554c1.134 0 2.072.4 2.788 1.203.714.798 1.058 1.845 1.058 3.11v.182c0 .8-.157 1.53-.477 2.186a3.57 3.57 0 01-1.359 1.525c-.588.36-1.256.537-1.995.537-1.128 0-2.066-.396-2.786-1.195l-.002-.001c-.714-.802-1.057-1.852-1.057-3.117v-.174c0-.795.154-1.52.469-2.17zm6.46 4.464c.298-.61.447-1.294.447-2.054v-.181c0-1.21-.327-2.18-.982-2.91-.654-.736-1.509-1.104-2.564-1.104-.683 0-1.296.17-1.838.508a3.368 3.368 0 00-1.253 1.408c-.293.605-.439 1.285-.439 2.04v.174c0 1.21.327 2.182.981 2.917.66.731 1.514 1.096 2.564 1.096.689 0 1.302-.164 1.839-.493a3.27 3.27 0 001.245-1.401zm-1.873-4.845l-.003-.002a2.114 2.114 0 00-1.223-.362c-.69 0-1.242.264-1.678.804h-.001c-.439.54-.672 1.26-.672 2.192v.16c0 .883.229 1.584.665 2.125.434.528.993.79 1.701.79.703 0 1.257-.262 1.687-.79.439-.538.672-1.262.672-2.198v-.167c0-.562-.105-1.069-.31-1.525-.205-.453-.485-.791-.838-1.027zm8.089-.16l-.344-.063a2.998 2.998 0 00-.539-.046c-.488 0-.883.134-1.205.391-.308.246-.544.612-.693 1.122v5.65h-1.471v-8.453h1.453l.007.618a2.5 2.5 0 01.459-.369c.427-.267.927-.394 1.486-.394.265 0 .505.033.701.12l.184.082-.038 1.342zm-2.786-.329a2.981 2.981 0 00-.295.479l-.014-1.249h-.857v7.853h.871v-5.392c.161-.576.43-1.014.806-1.314.381-.305.845-.457 1.392-.457a3.593 3.593 0 01.593.05l.022-.79c-.142-.063-.334-.095-.579-.095-.831 0-1.477.305-1.939.915zm-11.964 7.083V73.407h-.879v11.148h.88zm-8.995-3.803c0 .939.244 1.71.732 2.315.494.6 1.138.9 1.934.9.791 0 1.431-.3 1.92-.9.493-.604.74-1.4.74-2.387v-.167c0-.6-.113-1.15-.338-1.648-.224-.498-.54-.883-.945-1.154a2.415 2.415 0 00-1.392-.413c-.78 0-1.418.304-1.912.914-.493.605-.74 1.398-.74 2.38v.16zm11.779 0c0 .939.244 1.71.732 2.315.493.6 1.138.9 1.934.9.791 0 1.431-.3 1.919-.9.494-.604.74-1.4.74-2.387v-.167c0-.6-.112-1.15-.337-1.648-.224-.498-.539-.883-.945-1.154a2.414 2.414 0 00-1.392-.413c-.781 0-1.418.304-1.911.914-.494.605-.74 1.398-.74 2.38v.16z" fill="#fff"/><path d="M146.75 49.619h-11.353v9.925h13.053v1.738h-15.104v-24.33h15.021v1.755h-12.97v9.174h11.353v1.738z" fill="#fff"/><path fill-rule="evenodd" clip-rule="evenodd" d="M147.702 50.572H136.35v8.02h13.053v3.643h-17.009V36h16.925v3.66H136.35v7.268h11.352v3.644zm-12.305-2.691v-9.174h12.97v-1.754h-15.021v24.33h15.104v-1.739h-13.053V49.62h11.353v-1.74h-11.353z" fill="#fff"/><path fill-rule="evenodd" clip-rule="evenodd" d="M147.702 50.572H136.35v8.02h13.053v3.643h-17.009V36h16.925v3.66H136.35v7.268h11.352v3.644zm-10.352-4.644h11.352v5.644H137.35v6.02h13.053v5.643h-19.009V35h18.925v5.66H137.35v5.268z" fill="#000"/><path d="M126.024 79.504h-5.075v4.235h5.835v.741h-6.752V74.1h6.715v.748h-5.798v3.914h5.075v.742zm5.023.392l2.176-3.13h1.059l-2.736 3.786 2.855 3.928h-1.051l-2.295-3.265-2.296 3.265h-1.051l2.847-3.928-2.735-3.786h1.051l2.176 3.13zm11.373.805c0 1.203-.278 2.158-.835 2.867-.556.703-1.301 1.055-2.235 1.055-1.103 0-1.948-.371-2.534-1.113v3.936h-.887v-10.68h.827l.045 1.09c.581-.821 1.423-1.232 2.526-1.232.964 0 1.719.349 2.266 1.048.551.698.827 1.668.827 2.908v.121zm-.894-.15c0-.983-.211-1.76-.634-2.33-.422-.57-1.011-.856-1.766-.856-.547 0-1.016.126-1.409.378-.392.252-.693.618-.901 1.098v3.7c.213.442.519.78.916 1.012.398.233.867.35 1.409.35.75 0 1.334-.286 1.751-.856.423-.575.634-1.407.634-2.495zm5.999 4.072a3.644 3.644 0 01-1.863-.485 3.38 3.38 0 01-1.289-1.348c-.308-.58-.462-1.228-.462-1.946v-.306c0-.742.149-1.41.447-2.004a3.483 3.483 0 011.259-1.397 3.183 3.183 0 011.744-.513c.979 0 1.754.32 2.326.962.576.637.864 1.509.864 2.617v.477h-5.753v.164c0 .875.26 1.604.782 2.189.527.58 1.188.87 1.983.87.477 0 .896-.084 1.259-.25.368-.166.701-.433.999-.799l.559.407c-.656.908-1.608 1.362-2.855 1.362zm-.164-7.272a2.29 2.29 0 00-1.699.706c-.457.47-.735 1.102-.835 1.896h4.837v-.093c-.025-.741-.246-1.345-.663-1.81-.417-.466-.964-.7-1.64-.7zm8.653.142a3.488 3.488 0 00-.604-.05c-.556 0-1.028.15-1.416.45-.382.294-.656.724-.819 1.29v5.297h-.887v-7.714h.872l.015 1.226c.472-.912 1.229-1.368 2.273-1.368.248 0 .444.03.588.092l-.022.777zm3.175-2.702v1.975h1.669v.699h-1.669v5.14c0 .428.079.746.238.955.164.21.435.314.813.314.149 0 .39-.024.723-.071l.037.698c-.234.081-.552.122-.954.122-.611 0-1.056-.17-1.334-.507-.278-.342-.417-.843-.417-1.504v-5.147h-1.483v-.699h1.483v-1.975h.894z" fill="#fff"/><path fill-rule="evenodd" clip-rule="evenodd" d="M126.324 79.804h-5.075v3.635h5.835v1.341h-7.352V73.8h7.315v1.348h-5.798v3.314h5.075v1.342zm-5.375-1.042v-3.914h5.798V74.1h-6.715v10.38h6.752v-.741h-5.835v-4.235h5.075v-.742h-5.075zm9.606 1.79l-2.735-3.786h1.051l2.176 3.13 2.176-3.13h1.059l-2.736 3.786 2.855 3.928h-1.051l-2.295-3.265-2.296 3.265h-1.051l2.847-3.928zm.5 1.184l-2.14 3.044h-1.795l3.065-4.228-2.952-4.086h1.795l2.019 2.904 2.02-2.904h1.802l-2.952 4.085 3.073 4.229h-1.796l-2.139-3.043zm10.766 2.018c-.616.778-1.45 1.169-2.471 1.169-.887 0-1.639-.227-2.234-.692v3.515h-1.487v-11.28h1.415l.026.641c.595-.524 1.354-.783 2.257-.783 1.047 0 1.893.384 2.502 1.162.606.77.891 1.813.891 3.094v.121c0 1.248-.289 2.276-.899 3.053zm-4.734-6.246a3.044 3.044 0 00-.286.349l-.045-1.09h-.827v10.679h.887V83.51c.093.119.193.227.3.327.562.524 1.306.786 2.234.786.934 0 1.679-.352 2.235-1.056.557-.708.835-1.663.835-2.865v-.122c0-1.24-.276-2.21-.827-2.909-.547-.698-1.302-1.047-2.266-1.047-.934 0-1.68.294-2.24.884zm3.805 5.539c.423-.575.634-1.407.634-2.495 0-.984-.211-1.761-.634-2.332-.422-.57-1.011-.855-1.766-.855-.547 0-1.016.126-1.409.378-.392.252-.693.618-.901 1.098v3.7c.213.442.519.78.916 1.012.398.233.867.35 1.409.35.75 0 1.334-.286 1.751-.856zm-3.776-.577c.187.362.443.634.768.824.344.202.759.309 1.257.309.661 0 1.152-.245 1.509-.733.37-.503.576-1.262.576-2.318 0-.944-.203-1.65-.575-2.153-.361-.488-.858-.734-1.525-.734-.499 0-.91.114-1.247.33a2.08 2.08 0 00-.763.91v3.565zm8.395 1.927h-.001a3.681 3.681 0 01-1.402-1.465 4.391 4.391 0 01-.497-2.088v-.306c0-.783.157-1.498.479-2.138l.001-.002a3.775 3.775 0 011.366-1.515 3.481 3.481 0 011.904-.56c1.051 0 1.912.348 2.549 1.063.639.706.941 1.657.941 2.817v.777H145.1c.025.747.263 1.359.703 1.852.469.516 1.048.77 1.76.77.442 0 .817-.077 1.134-.222h.001c.319-.144.616-.379.89-.715l.179-.22 1.031.75-.175.242c-.719.995-1.767 1.486-3.098 1.486a3.943 3.943 0 01-2.014-.526zm.069-1.364c-.494-.554-.754-1.239-.78-2.053-.002-.045-.002-.09-.002-.136v-.164h5.753v-.478c0-1.107-.288-1.98-.864-2.616-.572-.642-1.347-.962-2.326-.962-.626 0-1.207.17-1.744.513a3.483 3.483 0 00-1.259 1.397c-.298.594-.447 1.262-.447 2.003v.307c0 .718.154 1.367.462 1.946a3.38 3.38 0 001.289 1.348 3.644 3.644 0 001.863.485c1.134 0 2.024-.376 2.669-1.126.06-.07.117-.142.173-.219l.013-.017-.559-.406a2.764 2.764 0 01-.999.798c-.363.166-.782.25-1.259.25-.795 0-1.456-.29-1.983-.87zm10.724-5.184l-.342-.06a3.18 3.18 0 00-.552-.046c-.499 0-.904.134-1.232.387-.314.241-.553.6-.703 1.097v5.553h-1.487v-8.314h1.468l.007.617c.146-.144.305-.27.479-.374.433-.261.939-.385 1.506-.385.268 0 .51.032.707.117l.187.08-.038 1.328zm-2.835-.32a2.962 2.962 0 00-.294.463l-.015-1.226h-.872v7.714h.887v-5.297c.163-.566.437-.996.819-1.29.388-.3.86-.45 1.416-.45a3.774 3.774 0 01.604.05l.022-.777c-.144-.061-.34-.092-.588-.092-.849 0-1.508.301-1.979.905zm6.02-3.038v1.975h1.669v1.299h-1.669v4.84c0 .398.075.638.176.772.086.109.25.197.575.197.126 0 .348-.02.68-.068l.325-.047.067 1.252-.214.074c-.279.096-.634.138-1.052.138-.663 0-1.21-.185-1.566-.616l-.001-.001c-.339-.417-.484-.997-.484-1.694v-4.847h-1.484v-1.299h1.484v-1.975h1.494zm-1.194 2.275h-1.484v.699h1.484v5.147c0 .66.139 1.162.417 1.504.278.338.723.507 1.334.507.402 0 .72-.04.954-.122l-.037-.698-.299.039a3.913 3.913 0 01-.424.032c-.378 0-.649-.105-.813-.314-.159-.209-.238-.527-.238-.955v-5.14h1.669v-.699h-1.669v-1.975h-.894v1.975zm-12.418 1.5c-.339.35-.575.807-.696 1.387h4.17c-.055-.581-.251-1.043-.573-1.403-.356-.397-.819-.6-1.417-.6-.591 0-1.08.205-1.484.616zm3.775 1.387c-.056-.648-.273-1.182-.651-1.604-.417-.465-.964-.698-1.64-.698a2.29 2.29 0 00-1.699.706c-.398.41-.66.941-.787 1.596a4.54 4.54 0 00-.048.3h4.837v-.093a3.477 3.477 0 00-.012-.207z" fill="#fff"/></g><defs><filter id="filter0_d_915_105" x=".7" y=".953" width="194.612" height="120.793" filterUnits="userSpaceOnUse" color-interpolation-filters="sRGB"><feFlood flood-opacity="0" result="BackgroundImageFix"/><feColorMatrix in="SourceAlpha" values="0 0 0 0 0 0 0 0 0 0 0 0 0 0 0 0 0 0 127 0" result="hardAlpha"/><feOffset/><feGaussianBlur stdDeviation="17"/><feColorMatrix values="0 0 0 0 0 0 0 0 0 0 0 0 0 0 0 0 0 0 1 0"/><feBlend in2="BackgroundImageFix" result="effect1_dropShadow_915_105"/><feBlend in="SourceGraphic" in2="effect1_dropShadow_915_105" result="shape"/></filter></defs></svg>