<svg width="1763" height="821" viewBox="0 0 1763 821" fill="none" xmlns="http://www.w3.org/2000/svg">
<path d="M312.491 413.061C312.491 409.627 311.51 354.277 309.793 326.479L338.49 325.275M357.377 324.762L343.151 325.275M343.151 354.195V377.496M343.151 354.195L399.074 350.27L400.055 387.307M343.151 354.195V325.275M338.49 325.275L339.962 409.627M338.49 325.275H343.151" stroke="#4048F5" stroke-linecap="round" stroke-linejoin="round"/>
<path d="M13.0091 692.193H4.73313C3.04372 692.193 2.11533 694.158 3.18815 695.464L103.949 818.036C104.434 818.627 105.214 818.889 105.957 818.712L956.071 616.223C957.896 615.788 958.173 613.306 956.488 612.481L949.473 609.045" stroke="#4048F5" stroke-width="4" stroke-linecap="round" stroke-linejoin="round"/>
<path d="M12.7638 692.433L111.311 807.283C111.796 807.849 112.556 808.098 113.282 807.929L402.262 740.753L646.557 683.358L949.473 608.549" stroke="#4048F5" stroke-width="2" stroke-linecap="round" stroke-linejoin="round"/>
<path d="M948.492 608.548L948.733 592.613C948.735 592.485 948.616 592.39 948.492 592.421V592.421M13.7138 677.044L13.2543 692.433M85.6107 653.434L9.10169 667.046C7.57698 667.317 6.92581 669.144 7.93508 670.318L105.188 783.502C105.668 784.062 106.418 784.311 107.138 784.151L507.731 695.131L859.702 614.435L948.492 592.421M85.6107 656.868L25.6122 668.219C24.0724 668.51 23.4506 670.379 24.5088 671.534L104.497 758.903L118.919 774.488C119.405 775.013 120.134 775.238 120.831 775.079L375.036 717.206L447.148 702.734M480.26 696.848L545.013 681.641M585.729 672.32L665.443 654.66M696.839 647.302L885.456 602.416M912.191 598.001L940.497 589.845C940.91 589.726 941.351 589.744 941.753 589.894L948.492 592.421" stroke="#4048F5" stroke-width="2" stroke-linecap="round" stroke-linejoin="round"/>
<path d="M584.747 632.34L620.067 650.559M638.953 660.301L620.067 650.559M620.067 606.586V650.559" stroke="#4048F5" stroke-width="2" stroke-linecap="round" stroke-linejoin="round"/>
<path d="M608.539 607.567V614.68M608.539 644.113V614.68M630.369 604.133C630.369 604.419 630.369 612.668 630.369 623.019M630.369 655.886C630.369 647.162 630.369 633.924 630.369 623.019M630.369 623.019L665.198 642.641M584.502 604.133L608.539 614.68" stroke="#4048F5" stroke-width="2" stroke-linecap="round" stroke-linejoin="round"/>
<path d="M549.182 642.643C549.182 644.409 549.836 671.503 550.163 684.83L544.767 681.396" stroke="#4048F5" stroke-width="2" stroke-linecap="round" stroke-linejoin="round"/>
<path d="M891.097 606.097L888.399 470.95M885.701 602.418L880.55 472.912M912.191 597.757L911.58 576.664M911.58 468.006V576.664M929.36 535.948L930.452 585.74C930.495 587.675 927.994 588.567 926.701 587.126C922.434 582.372 918.476 579.709 911.58 576.664M938.436 589.908V526.382M920.53 542.08L921.757 582.06M880.55 461.629C880.55 458.604 880.55 410.545 880.55 384.301C880.55 382.904 881.945 381.947 883.253 382.437L888.399 384.367" stroke="#4048F5" stroke-width="2" stroke-linecap="round" stroke-linejoin="round"/>
<path d="M807.948 568.08L884.965 595.796" stroke="#4048F5" stroke-width="2" stroke-linecap="round" stroke-linejoin="round"/>
<path d="M665.689 654.66L660.783 508.23M670.594 657.848L666.424 507.004M696.593 651.717L692.669 502.834" stroke="#4048F5" stroke-width="2" stroke-linecap="round" stroke-linejoin="round"/>
<path d="M113.572 597.514L121.666 775.585M155.514 590.646L163.363 765.283M89.2899 594.571L94.9312 748.359M82.6674 590.646L89.2899 742.227" stroke="#4048F5" stroke-width="2" stroke-linecap="round" stroke-linejoin="round"/>
<path d="M162.873 736.584L305.378 707.887" stroke="#4048F5" stroke-width="2" stroke-linecap="round" stroke-linejoin="round"/>
<path d="M306.604 732.905L300.963 568.079M345.603 723.83L344.651 693.661M340.453 560.721L340.902 574.947M344.651 693.661L376.999 716.717M344.651 693.661L343.675 662.756M343.675 662.756L411.092 710.094M343.675 662.756L343.411 654.417M343.411 654.417L342.799 635.04M343.411 654.417L397.602 692.656M419.186 707.887L397.602 692.656M342.799 635.04L395.394 624.738M342.799 635.04L341.909 606.833M341.909 606.833L385.093 599.475M341.909 606.833L340.902 574.947M385.093 599.475L340.902 574.947M385.093 599.475L394.834 604.871M393.187 552.627L394.834 604.871M397.602 692.656L394.834 604.871" stroke="#4048F5" stroke-width="2" stroke-linecap="round" stroke-linejoin="round"/>
<path d="M42.6875 690.714L86.3466 681.639M48.0835 696.11L87.0824 688.261" stroke="#4048F5" stroke-width="2" stroke-linecap="round" stroke-linejoin="round"/>
<path d="M98.8557 752.279L120.44 747.619" stroke="#4048F5" stroke-width="2" stroke-linecap="round" stroke-linejoin="round"/>
<path d="M403.243 550.909C403.047 552.283 406.432 650.737 408.149 699.792M417.469 547.721L422.13 707.395" stroke="#4048F5" stroke-width="2" stroke-linecap="round" stroke-linejoin="round"/>
<path d="M420.167 619.832L444.7 633.986C445.306 634.335 445.685 634.976 445.7 635.675L447.148 702.735M450.581 629.153L445.455 634.421" stroke="#4048F5" stroke-width="2" stroke-linecap="round" stroke-linejoin="round"/>
<path d="M450.336 628.658L451.976 701.05C452.011 702.575 450.395 703.576 449.045 702.865L447.393 701.996M480.26 650.978V696.845" stroke="#4048F5" stroke-width="2" stroke-linecap="round" stroke-linejoin="round"/>
<path d="M545.013 644.605V681.642" stroke="#4048F5" stroke-width="2" stroke-linecap="round" stroke-linejoin="round"/>
<path d="M583.766 594.812L585.729 672.074" stroke="#4048F5" stroke-width="2" stroke-linecap="round" stroke-linejoin="round"/>
<path d="M53.7249 702.979L87.0824 696.111M67.215 717.205L87.0824 713.035M76.2903 727.016L88.7993 723.828" stroke="#4048F5" stroke-width="2" stroke-linecap="round" stroke-linejoin="round"/>
<path d="M161.646 724.322L270.549 702.983L265.643 573.477M272.756 572.986L277.662 713.529" stroke="#4048F5" stroke-width="2" stroke-linecap="round" stroke-linejoin="round"/>
<path d="M168.514 590.401L170.607 666.437M261.719 574.213L263.434 622.532M263.434 622.532H267.36M263.434 622.532L264.253 645.833M264.253 645.833L264.417 650.494C262.455 655.072 252.742 665.505 229.588 670.606C206.434 675.708 180.696 672.732 170.722 670.606L170.607 666.437M264.253 645.833H267.36M159.684 668.889L170.607 666.437" stroke="#4048F5" stroke-width="3" stroke-linecap="round" stroke-linejoin="round"/>
<path d="M177.344 672.075V720.885M195.494 673.547V702.489M195.494 717.451V708.131M217.815 672.811V698.074M217.815 713.036V703.47M240.135 667.905V693.169M240.135 709.112V699.791M240.135 699.791L270.058 694.395M240.135 699.791V693.169M240.135 693.169L270.058 687.528M269.568 677.226L255.832 670.358V660.057M217.815 698.074L195.494 702.489M217.815 698.074V703.47M195.494 702.489V708.131M195.494 708.131L217.815 703.47" stroke="#4048F5" stroke-width="2" stroke-linecap="round" stroke-linejoin="round"/>
<path d="M112.836 783.918V807.464" stroke="#4048F5" stroke-width="2" stroke-linecap="round" stroke-linejoin="round"/>
<path d="M503.806 499.153C492.095 502.41 475.653 510.153 461.976 523.134C459.623 525.367 457.393 527.265 455.242 529.813M519.749 496.455C528.571 497.633 540.814 501.228 552.451 508.228C555.087 509.814 557.693 511.575 560.22 513.521M570.522 523.134C573.095 526.059 575.47 529.26 577.573 532.756C583.54 542.675 587.315 554.963 587.2 570.038C586.808 621.644 547.629 646.482 528.089 652.451C502.335 658.991 448.276 656.964 438.072 596.528C435.481 581.181 436.758 567.818 440.534 556.302C442.113 551.486 443.714 546.982 446.412 543.303" stroke="#4048F5" stroke-width="4" stroke-linecap="round" stroke-linejoin="round"/>
<path d="M503.806 499.402C492.524 496.54 470.155 484.44 470.939 458.931C471.921 427.046 496.448 415.518 513.617 415.518C530.787 415.518 550.899 428.762 550.899 458.196C550.899 486.272 530.46 495.723 520.24 496.704" stroke="#4048F5" stroke-width="4" stroke-linecap="round" stroke-linejoin="round"/>
<path d="M74.5734 553.36L62.8002 554.341C57.1588 554.341 53.9701 562.803 57.1589 567.586C61.0833 573.473 79.8878 589.252 90.5165 595.302C94.1956 596.528 104.301 598.785 115.289 598C126.278 597.215 317.724 564.97 412.073 548.945L698.31 501.607L956.831 460.155C963.127 458.275 975.521 458.046 974.737 472.174C973.952 486.301 974.41 551.316 974.737 582.057V613.698C975.554 616.723 978.318 623.362 982.831 625.716C988.472 628.66 1000.98 630.867 1021.83 625.716C1038.51 621.596 1114.79 602.906 1150.84 594.076L1451.06 519.021L1479.02 512.154C1482.21 510.927 1488.84 506.856 1489.82 500.38C1490.8 493.905 1492.84 433.256 1493.74 403.742C1493 400.062 1497.76 394.176 1500.12 394.176" stroke="#4048F5" stroke-width="4" stroke-linecap="round" stroke-linejoin="round"/>
<path d="M64.0265 554.587C67.8692 562.027 78.3506 577.545 89.5352 580.096C100.72 582.647 112.346 581.813 116.761 581.077L279.869 556.304L480.505 526.381L678.688 494.74L894.286 460.156L962.718 448.138C965.171 447.402 973.559 447.892 978.661 452.798C983.762 457.703 983.321 461.464 983.566 463.099V525.645L984.793 617.133C986.257 624.83 988.958 626.883 995.339 628.661" stroke="#4048F5" stroke-width="4" stroke-linecap="round" stroke-linejoin="round"/>
<path d="M663.481 597.757L630.614 604.379L597.257 609.285M695.857 591.38L883.494 552.381" stroke="#4048F5" stroke-width="3" stroke-linecap="round" stroke-linejoin="round"/>
<path d="M417.714 536.191V504.551L491.788 494.494M403.734 538.399L402.017 494.494L479.033 483.212M392.206 538.399L389.998 488.608L417.714 484.929V414.289" stroke="#4048F5" stroke-width="2" stroke-linecap="round" stroke-linejoin="round"/>
<path d="M455.732 409.631V486.402M423.356 413.555V490.817L417.96 484.195" stroke="#4048F5" stroke-width="2" stroke-linecap="round" stroke-linejoin="round"/>
<path d="M455.487 468.251L478.788 483.949M466.034 408.158L497.184 418.705" stroke="#4048F5" stroke-width="2" stroke-linecap="round" stroke-linejoin="round"/>
<path d="M357.622 459.912L397.357 487.628M359.339 472.176L389.998 494.251" stroke="#4048F5" stroke-width="2" stroke-linecap="round" stroke-linejoin="round"/>
<path d="M340.698 423.855L394.413 450.228M389.753 417.723C387.464 428.678 388.268 449.618 402.753 459.91C412.073 466.533 416.488 466.533 417.714 466.533" stroke="#4048F5" stroke-linecap="round" stroke-linejoin="round"/>
<path d="M400.3 416.252C399.319 422.466 398.681 436.266 402.017 443.723C405.353 451.179 413.79 456.068 417.715 457.704" stroke="#4048F5" stroke-linecap="round" stroke-linejoin="round"/>
<path d="M340.943 424.104C345.113 429.908 356.683 447.634 359.584 472.423C362.485 497.212 356.396 534.478 343.641 540.61L98.1199 575.684" stroke="#4048F5" stroke-width="2" stroke-linecap="round" stroke-linejoin="round"/>
<path d="M88.039 555.368C88.6829 558.765 88.5112 561.932 87.7606 564.293C86.9963 566.698 85.731 568.019 84.3596 568.279C82.9881 568.539 81.3269 567.773 79.7355 565.815C78.1728 563.892 76.8535 561.008 76.2095 557.611C75.5655 554.215 75.7373 551.047 76.4878 548.686C77.2521 546.282 78.5174 544.96 79.8889 544.7C81.2604 544.44 82.9216 545.207 84.513 547.165C86.0757 549.087 87.395 551.972 88.039 555.368Z" stroke="#4048F5" stroke-width="2"/>
<path d="M85.3655 568.574L95.9124 565.876C97.057 563.341 99.0029 556.997 97.6293 551.895C96.2558 546.793 91.6609 544.373 89.5352 543.801L79.4789 544.291" stroke="#4048F5" stroke-width="2" stroke-linecap="round" stroke-linejoin="round"/>
<path d="M81.1436 544.287C80.2932 540.174 79.5314 535.742 78.8773 531.042C78.0647 525.202 77.4183 518.949 76.9754 512.383C74.4864 475.485 79.5742 445.095 88.3393 444.504C97.1044 443.912 106.228 473.344 108.717 510.242C111.206 547.139 105.904 575.091 97.1387 575.682C94.472 575.862 91.0626 572.507 88.5541 568.078" stroke="#4048F5" stroke-width="2"/>
<path d="M89.5352 444.215H115.289V428.763H104.497V422.141L116.025 421.405L104.497 140.318H193.287L200.645 299.748L323.774 291.899H327.453C328.679 291.899 331.23 292.929 331.623 297.05C332.015 301.17 331.623 306.125 329.17 306.125L200.645 314.955" stroke="#4048F5" stroke-width="2" stroke-linecap="round" stroke-linejoin="round"/>
<path d="M115.289 428.761C126.817 428.761 132.213 428.761 141.288 428.516" stroke="#4048F5" stroke-width="2" stroke-linecap="round" stroke-linejoin="round"/>
<path d="M113.082 421.65C119.704 421.65 124.364 421.404 130.742 421.404" stroke="#4048F5" stroke-width="2" stroke-linecap="round" stroke-linejoin="round"/>
<path d="M200.645 299.502V321.332" stroke="#4048F5" stroke-width="2" stroke-linecap="round" stroke-linejoin="round"/>
<path d="M115.044 443.97C119.622 445.932 130.594 449.268 137.855 446.914C145.115 444.559 147.911 442.499 148.401 441.763V432.688" stroke="#4048F5" stroke-width="2" stroke-linecap="round" stroke-linejoin="round"/>
<path d="M130.251 421.162C127.798 416.911 125.1 409.144 132.704 405.465C140.08 401.895 145.131 406.609 146.194 409.144C151.345 413.15 155.76 417.728 170.231 421.162C184.702 424.596 274.304 417.975 322.057 411.351L567.823 384.371L764.044 362.051L944.077 343.655L980.623 340.957C985.692 341.856 995.879 346.5 996.075 357.881C996.271 369.262 996.157 393.037 996.075 403.502L995.094 524.914L994.113 613.213C994.358 616.647 998.675 622.485 1013.98 618.364C1029.29 614.244 1073.66 603.239 1093.94 598.252L1298.26 549.196L1471.91 505.047C1478.29 502.594 1482.55 501.569 1483.93 490.33C1485.4 478.312 1485.4 441.765 1485.4 424.351V401.295C1485.4 396.88 1490.31 390.159 1494.23 389.767" stroke="#4048F5" stroke-width="2" stroke-linecap="round" stroke-linejoin="round"/>
<path d="M130.006 420.669C131.477 422.14 156.25 441.027 176.363 441.763C192.453 442.351 293.278 429.908 341.679 423.612L659.802 384.368L885.946 359.35L977.925 350.52C980.705 350.438 984.401 352.491 985.283 361.312C986.264 371.123 984.956 401.374 985.283 415.763L983.812 460.894" stroke="#4048F5" stroke-width="2" stroke-linecap="round" stroke-linejoin="round"/>
<path d="M252.153 331.878C251.565 333.056 253.216 389.191 254.115 418.215M155.76 331.878L156.496 364.009H151.59M151.59 379.217H157.967L159.439 418.215M146.685 325.256V330.161M261.228 325.256V330.161" stroke="#4048F5" stroke-width="2" stroke-linecap="round" stroke-linejoin="round"/>
<path d="M152.062 372.1C152.062 375.851 151.366 379.198 150.284 381.571C149.161 384.032 147.814 385.081 146.684 385.081C145.555 385.081 144.208 384.032 143.085 381.571C142.003 379.198 141.307 375.851 141.307 372.1C141.307 368.349 142.003 365.001 143.085 362.629C144.208 360.168 145.555 359.119 146.684 359.119C147.814 359.119 149.161 360.168 150.284 362.629C151.366 365.001 152.062 368.349 152.062 372.1Z" stroke="#4048F5" stroke-width="2"/>
<path d="M149.118 371.612C149.118 374.711 148.662 377.472 147.957 379.423C147.602 380.403 147.204 381.125 146.812 381.584C146.416 382.046 146.121 382.14 145.949 382.14C145.776 382.14 145.481 382.046 145.086 381.584C144.693 381.125 144.295 380.403 143.941 379.423C143.235 377.472 142.779 374.711 142.779 371.612C142.779 368.513 143.235 365.752 143.941 363.801C144.295 362.821 144.693 362.098 145.086 361.64C145.481 361.178 145.776 361.084 145.949 361.084C146.121 361.084 146.416 361.178 146.812 361.64C147.204 362.098 147.602 362.821 147.957 363.801C148.662 365.752 149.118 368.513 149.118 371.612Z" stroke="#4048F5" stroke-width="2"/>
<path d="M260.873 324.437C260.874 324.437 260.868 324.443 260.853 324.454C260.865 324.443 260.873 324.437 260.873 324.437ZM256.992 324.476C257.991 324.627 258.812 324.78 259.452 324.932C258.812 325.086 257.992 325.243 256.994 325.397C254.124 325.842 249.943 326.25 244.743 326.596C234.351 327.29 219.979 327.736 204.093 327.768C188.206 327.801 173.832 327.414 163.438 326.764C158.237 326.438 154.054 326.048 151.182 325.615C150.183 325.464 149.363 325.311 148.722 325.159C149.362 325.005 150.182 324.849 151.18 324.694C154.05 324.249 158.232 323.842 163.431 323.495C173.823 322.802 188.195 322.356 204.082 322.323C219.968 322.29 234.342 322.677 244.736 323.328C249.937 323.653 254.121 324.043 256.992 324.476ZM147.299 324.671C147.3 324.671 147.307 324.676 147.319 324.687C147.304 324.676 147.298 324.671 147.299 324.671ZM147.301 325.654C147.3 325.654 147.306 325.648 147.321 325.638C147.309 325.649 147.302 325.654 147.301 325.654ZM260.855 325.404C260.87 325.415 260.876 325.42 260.875 325.42C260.875 325.42 260.867 325.415 260.855 325.404Z" stroke="#4048F5" stroke-width="2"/>
<path d="M261.228 329.705C261.233 331.761 236.084 333.244 204.282 333.309C172.48 333.375 146.696 331.761 146.692 329.705" stroke="#4048F5" stroke-width="2"/>
<path d="M340.453 409.384C338.736 382.894 341.679 368.387 361.301 367.687C374.301 367.222 382.886 378.234 383.621 382.158L417.347 396.629V375.168L416.734 356.895M454.261 396.629V386.573L476.581 385.101" stroke="#4048F5" stroke-width="2" stroke-linecap="round" stroke-linejoin="round"/>
<path d="M422.13 400.062V354.932H454.261C453.525 357.711 453.28 364.988 458.185 371.856C463.091 378.723 472.493 383.547 476.581 385.101" stroke="#4048F5" stroke-width="2" stroke-linecap="round" stroke-linejoin="round"/>
<path d="M383.621 382.157C377.898 381.749 368.659 382.157 362.037 391.723C356.728 399.393 358.767 405.295 359.339 406.685" stroke="#4048F5" stroke-width="2" stroke-linecap="round" stroke-linejoin="round"/>
<path d="M422.129 354.931C413.79 354.931 394.413 340.681 394.413 322.8C394.413 304.919 409.897 290.424 428.997 290.424C439.49 290.424 448.892 294.799 455.235 301.707" stroke="#4048F5" stroke-width="2"/>
<path d="M353.207 322.798C347.936 322.798 337.963 317.561 331.337 309.553C330.431 308.458 329.588 307.312 328.827 306.119M385.583 273.823C379.24 267.467 369.837 263.441 359.343 263.441C342.727 263.441 328.848 273.533 325.516 286.988C325.219 288.189 325.124 290.398 325 291.648" stroke="#4048F5" stroke-width="2"/>
<path d="M422.133 357.141C403.031 357.141 387.546 340.229 387.546 319.368C387.546 298.507 403.031 281.596 422.133 281.596C433.412 281.596 450.581 284.048 455.242 300.727" stroke="#4048F5" stroke-width="2"/>
<path d="M355.66 324.275C347.972 324.275 340.355 321.829 333.997 317.653C331.418 315.959 329.047 313.981 326.962 311.766C325.19 309.884 324.103 308.566 322.793 306.37M317.887 291.899C317.887 288.041 318.51 282.368 319.66 278.899C324.244 265.074 337.204 255.107 352.475 255.107C363.754 255.107 380.923 257.369 385.583 272.748" stroke="#4048F5" stroke-width="2"/>
<path d="M393.187 340.952L352.716 322.802M385.583 273.256L411.583 282.822M455.487 300.972L494.977 316.915" stroke="#4048F5" stroke-width="2" stroke-linecap="round" stroke-linejoin="round"/>
<path d="M502.335 404.233V416.987M518.032 402.025V415.27" stroke="#4048F5" stroke-width="2" stroke-linecap="round" stroke-linejoin="round"/>
<path d="M537.409 387.31C545.258 380.442 550.899 367.665 550.899 356.405C550.899 333.512 531.462 314.953 507.486 314.953C483.509 314.953 464.072 333.512 464.072 356.405C464.072 369.882 473.637 386.083 486.392 392.46" stroke="#4048F5" stroke-width="2"/>
<path d="M549.428 398.835V443.966M563.654 511.907L570.767 395.646M554.579 398.835L549.428 505.285" stroke="#4048F5" stroke-width="2" stroke-linecap="round" stroke-linejoin="round"/>
<path d="M660.047 497.682L661.764 428.269L667.651 427.671M693.16 491.059V425.08L667.651 427.671M667.651 427.671C668.632 430.504 668.06 474.544 667.651 496.21" stroke="#4048F5" stroke-width="2" stroke-linecap="round" stroke-linejoin="round"/>
<path d="M588.335 605.85C610.737 605.85 628.897 580.153 628.897 548.455C628.897 541.983 628.14 535.76 626.744 529.956C625.426 524.477 623.19 518.422 620.833 513.829M613.992 504.105C611.814 501.67 608.923 498.834 606.417 497.065C600.973 493.222 594.832 491.061 588.335 491.061C582.979 491.061 577.866 492.529 573.185 495.198C570.782 496.568 565.61 501.259 564.144 504.105" stroke="#4048F5" stroke-width="2"/>
<path d="M946.775 464.079C946.775 464.079 961.246 532.757 911.615 543.549M911.615 419.93C917.718 419.93 923.487 422.258 928.601 426.396C930.955 428.301 940.398 441.269 943.586 451.325" stroke="#4048F5" stroke-width="2"/>
<path d="M566.106 470.458C568.559 464.572 573.659 462.609 579.014 462.609C585.512 462.609 591.652 464.771 597.096 468.614C599.602 470.382 602.493 473.219 604.671 475.654L611.513 485.377" stroke="#4048F5" stroke-width="2"/>
<path d="M587.2 490.574L660.538 479.782M695.367 474.386L880.55 447.16M693.405 445.198L880.55 420.18M660.538 456.726L651.217 453.67M570.031 427.047L651.217 453.67M577.88 463.103L651.217 453.67M911.946 441.764L937.454 437.349" stroke="#4048F5" stroke-width="2" stroke-linecap="round" stroke-linejoin="round"/>
<path d="M856.023 375.046L876.626 377.152M911.21 380.688L901.889 379.735M881.286 382.405L845.721 376.763M901.889 379.735C903.263 379.875 937.781 362.115 954.869 353.217M901.889 379.735L876.626 377.152M876.626 377.152L897.229 366.952M976.699 340.708L1094.68 279.879M1093.45 265.898L942.36 343.651" stroke="#4048F5" stroke-width="2" stroke-linecap="round" stroke-linejoin="round"/>
<path d="M1094.43 243.332C1094.43 245.294 1094.43 326.154 1094.43 368.668L1109.88 389.517M1149.13 410.365H1125.34L1109.88 389.517M1109.88 389.517L1094.43 408.403M1094.43 415.516H1130M1149.13 415.516H1143M1130 415.516V450.1H1143V415.516M1130 415.516H1143M1174.15 417.478H1213.14L1179.79 373.083L1174.15 383.875V462.363H1164.33M1164.33 462.363L1166.3 351.008H1153.79M1164.33 462.363V478.797H1153.79M1153.79 351.008H1149.13V478.797H1153.79M1153.79 351.008V478.797" stroke="#4048F5" stroke-width="2" stroke-linecap="round" stroke-linejoin="round"/>
<path d="M1094.68 345.123H1086.58L1085.11 467.271C1087.4 467.679 1092.13 468.252 1092.71 467.271C1093.3 466.289 1094.27 400.801 1094.68 368.179" stroke="#4048F5" stroke-width="2" stroke-linecap="round" stroke-linejoin="round"/>
<path d="M1180.28 373.821L1184.45 365.236V285.522M1184.45 272.277V244.561" stroke="#4048F5" stroke-width="2" stroke-linecap="round" stroke-linejoin="round"/>
<path d="M1184.69 358.859H1220.75M1225.41 358.859H1220.75M1184.69 331.388L1238.65 323.294L1220.75 321.868M1184.69 325.256H1189.35V319.369L1220.75 321.868M1220.75 321.868V358.859" stroke="#4048F5" stroke-width="2" stroke-linecap="round" stroke-linejoin="round"/>
<path d="M1217.8 326.729V358.369M1194.26 360.086C1193.03 368.344 1193.08 386.429 1203.09 392.708C1213.1 398.987 1224.92 398.594 1229.58 397.613L1227.62 456.48L1461.36 502.101L1288.93 544.534L994.849 615.173" stroke="#4048F5" stroke-width="2" stroke-linecap="round" stroke-linejoin="round"/>
<path d="M888.89 461.137V383.875L910.965 380.932V455.25" stroke="#4048F5" stroke-width="2" stroke-linecap="round" stroke-linejoin="round"/>
<path d="M639.199 415.765L648.519 417.467M692.914 425.576L648.519 417.467M661.519 429.5L623.01 419.444M709.838 402.275V412.086M733.875 398.35V409.143M648.519 417.467L810.892 398.35C816.288 398.514 828.257 400.901 832.967 409.143C837.676 417.384 838.853 423.532 838.853 425.576M832.967 396.817L846.947 424.595M848.419 399.9L857.985 422.387M880.55 406.69C877.411 405.512 817.76 393.772 788.326 388.049" stroke="#4048F5" stroke-width="2" stroke-linecap="round" stroke-linejoin="round"/>
<path d="M571.748 383.627L573.955 345.61C575.918 339.478 581.559 325.324 623.992 316.422C659.066 309.063 792.905 282.574 856.513 267.121C860.029 266.958 867.305 267.759 868.287 272.272C869.268 276.785 868.695 280.366 868.287 281.593C871.72 281.756 879.324 281.593 882.267 279.63C885.211 277.668 883.494 268.021 882.267 263.442C880.469 258.782 874.566 253.239 863.381 253.631C852.196 254.023 688.499 286.335 601.426 305.875C583.766 309.838 561.937 323.731 559.975 335.308C558.012 346.885 556.704 372.999 556.295 384.608" stroke="#4048F5" stroke-width="2" stroke-linecap="round" stroke-linejoin="round"/>
<path d="M475.528 308.331C476.417 306.626 477.416 305.064 478.51 303.671C482.116 299.074 486.743 296.312 491.788 296.312C497.596 296.312 502.849 299.973 506.63 305.878C508.268 308.438 509.63 311.42 510.641 314.708" stroke="#4048F5" stroke-width="2"/>
<path d="M544.237 330.648C548.368 323.827 553.578 318.395 559.484 314.904C564.249 312.088 569.467 310.535 574.936 310.535C577.708 310.535 580.415 310.934 583.03 311.693M541.57 402.759C544.366 408.505 547.861 413.496 551.876 417.476C552.844 418.435 553.842 419.335 554.868 420.174C556.351 421.385 557.892 422.467 559.484 423.408C561.225 424.437 563.027 425.298 564.88 425.975C566.165 426.445 567.474 426.827 568.804 427.117C570.804 427.552 572.852 427.777 574.936 427.777C591.341 427.777 605.479 413.809 611.928 393.684C612.339 392.4 612.719 391.091 613.066 389.759M615.355 376.269C615.551 373.938 615.652 371.564 615.652 369.156C615.652 359.23 613.939 349.879 610.914 341.685C609.044 336.619 606.673 331.995 603.896 327.95C602.567 326.013 601.705 324.946 600.2 323.29" stroke="#4048F5" stroke-width="2"/>
<path d="M503.806 302.691L785.874 265.899C788.49 262.465 795.685 255.598 803.534 255.598C811.383 255.598 817.596 259.195 819.722 260.994M827.571 274.239L830.514 283.069M713.763 298.276L868.777 278.163M884.965 274.239C901.154 270.805 922.027 274.239 928.134 302.2C935.59 336.343 928.134 345.369 928.134 345.369" stroke="#4048F5" stroke-width="2" stroke-linecap="round" stroke-linejoin="round"/>
<path d="M575.917 428.76L896.738 366.951L926.172 355.668" stroke="#4048F5" stroke-width="2" stroke-linecap="round" stroke-linejoin="round"/>
<path d="M1487.36 384.365C1484.01 387.554 1477.21 395.108 1476.82 399.818C1476.42 404.527 1475.18 465.061 1474.61 494.739C1474.56 497.437 1469.37 500.502 1460.38 502.098" stroke="#4048F5" stroke-width="2" stroke-linecap="round" stroke-linejoin="round"/>
<path d="M1415.25 399.82V421.65L1277.41 399.82V374.557M1265.63 379.462V397.613L1239.88 394.915L1265.63 379.462Z" stroke="#4048F5" stroke-linecap="round" stroke-linejoin="round"/>
<path d="M1248.71 414.238L1265.39 416.989V445.441L1248.71 442.862M1248.71 414.238L1241.6 413.064V441.762L1248.71 442.862M1248.71 414.238V442.862" stroke="#4048F5" stroke-linecap="round" stroke-linejoin="round"/>
<path d="M1282.56 418.763L1406.18 441.516V472.666L1282.56 448.974M1282.56 418.763L1276.92 417.724V447.893L1282.56 448.974M1282.56 418.763V448.974M1428.99 445.299L1423.35 444.459H1420.65V474.383L1428.99 476.085M1428.99 445.299L1444.69 447.893V479.288L1428.99 476.085M1428.99 445.299V476.085M1433.89 388.291L1432.42 424.101L1465.04 427.535L1463.57 483.703H1468.72V499.646M1475.34 451.572H1468.72V479.288L1475.34 481.496M1475.34 433.667H1470.19V424.101L1454.5 422.384L1457.93 359.594C1458.42 364.581 1461.27 374.948 1468.72 376.518C1476.18 378.088 1483.93 377.172 1486.87 376.518V383.876" stroke="#4048F5" stroke-linecap="round" stroke-linejoin="round"/>
<path d="M1233.75 280.124L1184.2 285.275C1178.97 286.174 1168.36 286.403 1167.77 280.124C1167.18 273.845 1178.48 272.275 1184.2 272.275L1233.75 267.86C1233.99 263.445 1233.75 250.2 1252.14 253.634" stroke="#4048F5" stroke-width="2" stroke-linecap="round" stroke-linejoin="round"/>
<path d="M1265.63 330.655C1273.54 326.474 1274.83 310.533 1266.91 295.563C1259 280.593 1246.17 271.848 1238.26 276.03C1230.35 280.211 1230.35 295.737 1238.27 310.706C1239.79 313.598 1240.51 315.031 1242.33 317.41" stroke="#4048F5" stroke-width="2"/>
<path d="M1242.58 316.67L1250.92 307.595C1254.11 306.859 1261.61 306.417 1266.12 310.538C1270.64 314.659 1271.6 320.431 1271.52 322.802" stroke="#4048F5" stroke-width="2" stroke-linecap="round" stroke-linejoin="round"/>
<path d="M1264.37 335.201C1263.22 336.948 1260.92 337.899 1257.85 337.787C1254.79 337.676 1251.16 336.506 1247.72 334.253C1244.27 332 1241.75 329.143 1240.42 326.39C1239.09 323.618 1239.03 321.125 1240.18 319.379C1241.32 317.632 1243.62 316.68 1246.7 316.793C1249.75 316.904 1253.38 318.074 1256.83 320.327C1260.27 322.58 1262.8 325.437 1264.12 328.189C1265.46 330.962 1265.51 333.454 1264.37 335.201Z" stroke="#4048F5" stroke-width="2"/>
<path d="M1245.52 334.574L1204.31 379.214C1202.03 383.138 1198.82 391.576 1204.31 393.93C1209.81 396.285 1251.73 379.868 1272.01 371.365L1341.67 334.574C1349.76 328.115 1366.34 311.027 1367.91 294.348C1369.88 273.5 1358.84 236.709 1328.42 233.275C1304.09 230.528 1294.74 248.972 1293.1 258.538M1277.41 375.289L1341.67 340.46C1351.64 334.901 1371.89 317.895 1373.06 294.348C1374.54 264.915 1360.59 233.204 1328.42 229.105C1303.41 225.916 1291.96 246.765 1289.67 258.538L1258.28 260.991L1251.9 254.123" stroke="#4048F5" stroke-width="2" stroke-linecap="round" stroke-linejoin="round"/>
<path d="M1288.44 313.971C1290.73 319.776 1298.01 332.17 1308.8 335.31C1319.59 338.449 1333.82 338.008 1340.44 335.31" stroke="#4048F5" stroke-width="2" stroke-linecap="round" stroke-linejoin="round"/>
<path d="M1240.13 275.22C1250.1 269.824 1273.68 258.933 1288.2 258.541C1302.72 258.148 1309.29 258.377 1310.76 258.541C1315.83 261.157 1323.8 269.271 1324.99 280.616C1326.46 294.596 1321.56 306.615 1313.22 310.049L1288.2 313.483L1269.07 328.199" stroke="#4048F5" stroke-width="2" stroke-linecap="round" stroke-linejoin="round"/>
<path d="M1312.24 310.049C1325.78 310.049 1336.76 298.519 1336.76 284.295C1336.76 267.371 1323.57 258.541 1310.03 258.541" stroke="#4048F5" stroke-width="2"/>
<path d="M1128.28 249.219L1132.2 1H1184.69L1180.28 247.245" stroke="#4048F5" stroke-width="2" stroke-linecap="round" stroke-linejoin="round"/>
<path d="M1184.45 244.804C1184.45 247.784 1165.25 250.2 1140.05 250.2C1114.86 250.2 1094.43 246.312 1094.43 243.332" stroke="#4048F5" stroke-width="2"/>
<path d="M1184.45 244.807C1184.45 244.004 1183.05 243.063 1180.52 242.118M1094.43 243.826C1094.43 242.704 1097.33 241.453 1102.28 240.33C1105.21 239.665 1108.87 239.044 1113.07 238.522C1116.91 238.044 1121.21 237.648 1125.83 237.374C1126.71 237.322 1127.61 237.274 1128.52 237.23" stroke="#4048F5" stroke-width="2"/>
<path d="M1255.55 244.807C1258.83 234.561 1263.25 225.001 1268.62 216.355C1286.56 187.461 1315.13 168.771 1347.31 168.771C1401.63 168.771 1445.67 222.031 1445.67 287.73C1445.67 353.43 1401.63 406.689 1347.31 406.689C1324.46 406.689 1303.43 397.263 1286.73 381.45C1284.35 379.198 1282.06 376.816 1279.86 374.313" stroke="#4048F5" stroke-width="2"/>
<path d="M1255.33 238.406C1258.78 227.568 1263.44 217.456 1269.09 208.311C1287.98 177.749 1318.06 157.98 1351.93 157.98C1409.12 157.98 1455.48 214.315 1455.48 283.807C1455.48 353.299 1409.12 409.634 1351.93 409.634C1327.87 409.634 1305.73 399.663 1288.15 382.937C1285.65 380.555 1283.24 378.035 1280.93 375.388" stroke="#4048F5" stroke-width="2"/>
<path d="M1255.33 232.729C1259.11 221.532 1264.19 211.086 1270.37 201.637C1291.02 170.062 1323.9 149.639 1360.93 149.639C1423.44 149.639 1474.12 207.84 1474.12 279.635C1474.12 351.43 1423.44 409.631 1360.93 409.631C1334.63 409.631 1310.43 399.331 1291.21 382.05C1288.47 379.589 1285.84 376.986 1283.31 374.251" stroke="#4048F5" stroke-width="2"/>
<path d="M1255.33 225.717C1259.41 214.076 1264.9 203.215 1271.58 193.393C1293.9 160.567 1329.43 139.334 1369.45 139.334C1437.01 139.334 1491.78 199.841 1491.78 274.481V383.138L1749.32 340.951V350.271L1529.55 387.063L1543.78 402.27L1538.87 415.515L1515.82 418.949V415.515L1500.61 394.912" stroke="#4048F5"/>
<path d="M1516.8 417.968L1520.23 405.214M1520.23 405.214L1543.29 402.271M1520.23 405.214L1507.48 388.535L1499.63 394.422" stroke="#4048F5" stroke-width="2" stroke-linecap="round" stroke-linejoin="round"/>
<path d="M1748.34 351.252V411.59M1748.34 411.59H1760.6M1748.34 411.59C1677.7 426.143 1534.36 455.74 1526.12 457.702C1517.88 459.664 1516.8 470.293 1517.29 475.362H1508.46L1510.42 409.628M1760.6 411.59V432.684L1557.51 479.286C1554.03 475.51 1551.54 474.195 1544.76 475.362C1539.85 475.362 1536.42 481.739 1536.42 487.135C1536.42 491.877 1536.42 500.38 1536.42 504.367H1528.57M1760.6 411.59L1541.81 457.702C1538.22 459.5 1530.53 464.962 1528.57 472.418C1526.61 479.875 1527.75 486.971 1528.57 489.588V504.367M1500.12 394.421L1495.21 518.04H1508.46V489.588H1520.23V504.367H1528.57" stroke="#4048F5" stroke-width="3" stroke-linecap="round" stroke-linejoin="round"/>
<path d="M1536.42 493.268L1563.15 497.928V510.192L1567.08 511.418M1567.08 511.418L1571.98 510.192V499.89M1567.08 511.418V497.928" stroke="#4048F5" stroke-width="2" stroke-linecap="round" stroke-linejoin="round"/>
<path d="M1579.08 490.083C1579.08 495.137 1575.73 498.894 1571.98 498.894C1568.24 498.894 1564.89 495.137 1564.89 490.083C1564.89 485.028 1568.24 481.271 1571.98 481.271C1575.73 481.271 1579.08 485.028 1579.08 490.083Z" stroke="#4048F5" stroke-width="2"/>
<path d="M1572.47 480.27L1557.27 479.289" stroke="#4048F5" stroke-width="2" stroke-linecap="round" stroke-linejoin="round"/>
<path d="M1377.73 139.089L1650.96 133.693C1672.87 137.372 1721.95 156.455 1742.94 203.352C1763.94 250.249 1749.81 298.764 1749.81 341.197" stroke="#4048F5" stroke-linecap="round" stroke-linejoin="round"/>
<path d="M1441.25 137.616C1466.19 146.61 1517.78 175.487 1529.55 215.123C1541.32 254.76 1541 339.07 1539.36 376.27M1586.95 367.93C1589.32 326.07 1590.43 235.825 1575.91 209.727C1561.39 183.63 1517.78 150.534 1497.66 136.88M1539.36 136.145C1564.3 147.673 1607.38 180.849 1621.04 207.275C1639.68 243.33 1627.91 322.145 1627.91 361.308" stroke="#4048F5" stroke-linecap="round" stroke-linejoin="round"/>
<path d="M1586.95 134.921C1608.72 143.924 1654.85 172.832 1665.13 212.509C1675.41 252.186 1674.71 316.224 1673.28 353.462M1714.24 346.595C1716.31 304.691 1718.29 233.232 1705.61 207.108C1692.93 180.984 1650.72 145.714 1620.06 134.186M1480.99 219.051L1741.47 199.92M1491.53 297.785L1754.22 268.597M1435.86 160.921L1698.06 153.317" stroke="#4048F5" stroke-linecap="round" stroke-linejoin="round"/>
<path d="M1441.5 137.13C1441.5 134.923 1440.52 119.716 1450.57 118.244C1458.62 117.067 1545.33 117.753 1587.68 118.244C1589.81 118.408 1593.08 119.716 1594.06 122.659C1595.04 125.602 1595.28 131.734 1594.55 133.942M1423.35 137.866V117.018C1424.08 110.477 1436.84 98.8672 1449.59 98.8672C1470.01 98.8672 1549.91 99.0307 1587.68 99.3577C1598.72 98.6219 1612.36 105.49 1612.94 118.244C1613.53 130.998 1613.19 132.225 1613.19 133.942" stroke="#4048F5" stroke-width="2" stroke-linecap="round" stroke-linejoin="round"/>
<path d="M1423.35 118.238L1404.21 138.596" stroke="#4048F5" stroke-width="2" stroke-linecap="round" stroke-linejoin="round"/>
</svg>
