<svg width="175" height="320" viewBox="0 0 175 320" fill="none" xmlns="http://www.w3.org/2000/svg">
<path fill-rule="evenodd" clip-rule="evenodd" d="M48.3965 39.3433L7.52773 65.7978C7.24078 65.9835 7.15825 66.3675 7.34338 66.6554C7.52852 66.9433 7.91122 67.0261 8.19817 66.8403L49.0669 40.3858C49.3539 40.2001 49.4364 39.8161 49.2513 39.5282C49.0661 39.2403 48.6834 39.1575 48.3965 39.3433ZM6.93776 64.8804C6.14579 65.393 5.91799 66.4527 6.42896 67.2473C6.93993 68.0419 7.99617 68.2704 8.78814 67.7578L49.6569 41.3032C50.4489 40.7906 50.6767 39.7309 50.1657 38.9363C49.6547 38.1417 48.5985 37.9132 47.8065 38.4258L6.93776 64.8804Z" fill="white"/>
<path fill-rule="evenodd" clip-rule="evenodd" d="M83.5536 94.0132L42.6849 120.468C42.3979 120.653 42.3154 121.037 42.5005 121.325C42.6856 121.613 43.0684 121.696 43.3553 121.51L84.224 95.0557C84.511 94.87 84.5935 94.486 84.4084 94.1981C84.2233 93.9103 83.8406 93.8275 83.5536 94.0132ZM42.0949 119.55C41.3029 120.063 41.0751 121.123 41.5861 121.917C42.0971 122.712 43.1533 122.94 43.9453 122.428L84.814 95.9732C85.606 95.4605 85.8338 94.4008 85.3228 93.6062C84.8119 92.8117 83.7556 92.5831 82.9636 93.0958L42.0949 119.55Z" fill="white"/>
<path fill-rule="evenodd" clip-rule="evenodd" d="M54.8264 52.5L18.2596 76.1699C17.9727 76.3556 17.8902 76.7396 18.0753 77.0275C18.2604 77.3153 18.6431 77.3982 18.9301 77.2124L55.4969 53.5426C55.7838 53.3568 55.8663 52.9729 55.6812 52.685C55.4961 52.3971 55.1134 52.3143 54.8264 52.5ZM17.6697 75.2524C16.8777 75.7651 16.6499 76.8248 17.1609 77.6194C17.6718 78.4139 18.7281 78.6425 19.52 78.1298L56.0868 54.46C56.8788 53.9474 57.1066 52.8876 56.5956 52.0931C56.0847 51.2985 55.0284 51.0699 54.2364 51.5826L17.6697 75.2524Z" fill="white"/>
<path fill-rule="evenodd" clip-rule="evenodd" d="M47.9552 42.6853L12.1781 65.844C11.6731 66.1709 11.5278 66.8466 11.8537 67.3533L16.4327 74.4738C16.7585 74.9805 17.4321 75.1263 17.9371 74.7994L53.7142 51.6407C54.2192 51.3138 54.3645 50.638 54.0386 50.1314L49.4596 43.0108C49.1338 42.5041 48.4602 42.3584 47.9552 42.6853ZM11.5882 64.9265C10.5781 65.5803 10.2876 66.9318 10.9393 67.9452L15.5183 75.0657C16.17 76.0791 17.517 76.3706 18.5271 75.7168L54.3042 52.5581C55.3142 51.9043 55.6047 50.5528 54.9531 49.5395L50.374 42.4189C49.7224 41.4055 48.3753 41.1141 47.3652 41.7679L11.5882 64.9265Z" fill="white"/>
<path fill-rule="evenodd" clip-rule="evenodd" d="M55.8193 54.9138L20.0423 78.0725C19.5373 78.3994 19.392 79.0751 19.7178 79.5818L21.9839 83.1056C22.3097 83.6123 22.9833 83.758 23.4883 83.4311L59.2654 60.2725C59.7704 59.9456 59.9156 59.2698 59.5898 58.7631L57.3237 55.2393C56.9979 54.7327 56.3244 54.5869 55.8193 54.9138ZM19.4523 77.155C18.4423 77.8089 18.1517 79.1604 18.8034 80.1737L21.0695 83.6975C21.7211 84.7109 23.0682 85.0024 24.0783 84.3485L59.8553 61.1899C60.8654 60.5361 61.1559 59.1846 60.5042 58.1712L58.2382 54.6474C57.5865 53.6341 56.2394 53.3426 55.2294 53.9964L19.4523 77.155Z" fill="white"/>
<path fill-rule="evenodd" clip-rule="evenodd" d="M59.9827 61.3875L24.2056 84.5461C23.7006 84.873 23.5554 85.5488 23.8812 86.0554L24.7595 87.4212C25.0853 87.9279 25.7588 88.0736 26.2639 87.7467L62.0409 64.588C62.5459 64.2611 62.6912 63.5854 62.3654 63.0787L61.4871 61.713C61.1613 61.2063 60.4877 61.0605 59.9827 61.3875ZM23.6157 83.6287C22.6056 84.2825 22.3151 85.634 22.9668 86.6474L23.845 88.0131C24.4967 89.0265 25.8438 89.3179 26.8538 88.6641L62.6309 65.5055C63.6409 64.8517 63.9315 63.5002 63.2798 62.4868L62.4015 61.1211C61.7499 60.1077 60.4028 59.8162 59.3927 60.47L23.6157 83.6287Z" fill="white"/>
<path fill-rule="evenodd" clip-rule="evenodd" d="M62.7581 65.7039L26.9811 88.8625C26.476 89.1894 26.3308 89.8652 26.6566 90.3718L27.9975 92.4569C28.3233 92.9636 28.9969 93.1094 29.5019 92.7825L65.2789 69.6238C65.784 69.2969 65.9292 68.6211 65.6034 68.1145L64.2625 66.0294C63.9367 65.5227 63.2632 65.377 62.7581 65.7039ZM26.3911 87.9451C25.381 88.5989 25.0905 89.9504 25.7422 90.9638L27.0831 93.0489C27.7347 94.0622 29.0818 94.3537 30.0919 93.6999L65.8689 70.5412C66.879 69.8874 67.1695 68.5359 66.5178 67.5226L65.177 65.4375C64.5253 64.4241 63.1782 64.1326 62.1682 64.7864L26.3911 87.9451Z" fill="white"/>
<path fill-rule="evenodd" clip-rule="evenodd" d="M65.9964 70.739L30.2193 93.8977C29.7143 94.2246 29.569 94.9003 29.8949 95.407L30.7731 96.7727C31.099 97.2794 31.7725 97.4252 32.2775 97.0983L68.0546 73.9396C68.5596 73.6127 68.7049 72.937 68.3791 72.4303L67.5008 71.0645C67.1749 70.5578 66.5014 70.4121 65.9964 70.739ZM29.6293 92.9802C28.6193 93.634 28.3288 94.9856 28.9804 95.9989L29.8587 97.3647C30.5104 98.378 31.8575 98.6695 32.8675 98.0157L68.6446 74.857C69.6546 74.2032 69.9451 72.8517 69.2935 71.8384L68.4152 70.4726C67.7635 69.4593 66.4165 69.1678 65.4064 69.8216L29.6293 92.9802Z" fill="white"/>
<path fill-rule="evenodd" clip-rule="evenodd" d="M68.7719 75.0554L32.9949 98.2141C32.4899 98.541 32.3446 99.2167 32.6704 99.7234L33.5487 101.089C33.8745 101.596 34.5481 101.742 35.0531 101.415L70.8302 78.256C71.3352 77.9291 71.4805 77.2534 71.1546 76.7467L70.2763 75.3809C69.9505 74.8743 69.277 74.7285 68.7719 75.0554ZM32.4049 97.2966C31.3949 97.9505 31.1043 99.302 31.756 100.315L32.6343 101.681C33.2859 102.694 34.633 102.986 35.6431 102.332L71.4201 79.1734C72.4302 78.5196 72.7207 77.1681 72.069 76.1548L71.1908 74.789C70.5391 73.7757 69.192 73.4842 68.182 74.138L32.4049 97.2966Z" fill="white"/>
<path fill-rule="evenodd" clip-rule="evenodd" d="M71.5475 79.3718L35.7704 102.53C35.2654 102.857 35.1202 103.533 35.446 104.04L37.2495 106.844C37.5753 107.351 38.2488 107.497 38.7539 107.17L74.5309 84.0111C75.036 83.6842 75.1812 83.0085 74.8554 82.5018L73.0519 79.6973C72.7261 79.1907 72.0525 79.0449 71.5475 79.3718ZM35.1805 101.613C34.1704 102.267 33.8799 103.618 34.5316 104.632L36.335 107.436C36.9867 108.45 38.3338 108.741 39.3438 108.087L75.1209 84.9286C76.1309 84.2747 76.4215 82.9232 75.7698 81.9099L73.9663 79.1054C73.3147 78.0921 71.9676 77.8006 70.9575 78.4544L35.1805 101.613Z" fill="white"/>
<path fill-rule="evenodd" clip-rule="evenodd" d="M75.6432 84.8711L39.0764 108.541C38.7894 108.727 38.7069 109.111 38.892 109.399C39.0772 109.686 39.4599 109.769 39.7468 109.584L76.3136 85.9137C76.6006 85.7279 76.6831 85.344 76.498 85.0561C76.3128 84.7682 75.9301 84.6854 75.6432 84.8711ZM38.4864 107.624C37.6945 108.136 37.4667 109.196 37.9776 109.99C38.4886 110.785 39.5448 111.014 40.3368 110.501L76.9036 86.8311C77.6956 86.3184 77.9234 85.2587 77.4124 84.4642C76.9014 83.6696 75.8452 83.441 75.0532 83.9537L38.4864 107.624Z" fill="white"/>
<path fill-rule="evenodd" clip-rule="evenodd" d="M76.636 87.2849L40.8589 110.444C40.3539 110.77 40.2086 111.446 40.5344 111.953L43.7257 116.915C44.0515 117.422 44.7251 117.568 45.2301 117.241L81.0072 94.0823C81.5122 93.7554 81.6574 93.0796 81.3316 92.5729L78.1404 87.6104C77.8145 87.1037 77.141 86.958 76.636 87.2849ZM40.2689 109.526C39.2589 110.18 38.9684 111.531 39.62 112.545L42.8113 117.507C43.4629 118.521 44.81 118.812 45.8201 118.158L81.5971 94.9997C82.6072 94.3459 82.8977 92.9944 82.246 91.981L79.0548 87.0185C78.4031 86.0052 77.056 85.7137 76.046 86.3675L40.2689 109.526Z" fill="white"/>
<path fill-rule="evenodd" clip-rule="evenodd" d="M9.06847 60.3364C11.0115 56.1172 13.0833 50.0855 14.8076 43.2474C16.532 36.4093 17.5684 30.1148 17.859 25.4762C18.0049 23.1478 17.959 21.2923 17.7414 20.0113C17.6319 19.3667 17.4893 18.9328 17.3489 18.6707C17.2965 18.5728 17.2544 18.5164 17.2269 18.4855C17.188 18.4996 17.1243 18.5291 17.0317 18.5902C16.7841 18.7538 16.4529 19.0675 16.0511 19.5823C15.2525 20.6053 14.3326 22.2157 13.3572 24.3335C11.4142 28.5527 9.34242 34.5844 7.61807 41.4225C5.89373 48.2606 4.85729 54.5551 4.56668 59.1937C4.4208 61.5221 4.46675 63.3776 4.68434 64.6586C4.79384 65.3032 4.93644 65.7372 5.07677 65.9992C5.12924 66.0972 5.17127 66.1535 5.19884 66.1844C5.23775 66.1703 5.3014 66.1409 5.394 66.0797C5.64164 65.9161 5.97279 65.6024 6.37463 65.0877C7.17322 64.0646 8.09314 62.4543 9.06847 60.3364ZM5.15068 66.1966C5.15074 66.1965 5.15277 66.1962 5.15665 66.1962C5.15258 66.1968 5.15063 66.1968 5.15068 66.1966ZM5.23035 66.2149C5.23378 66.2168 5.23542 66.218 5.23538 66.2181C5.23533 66.2183 5.23362 66.2174 5.23035 66.2149ZM17.275 18.4733C17.275 18.4734 17.2729 18.4737 17.269 18.4737C17.2731 18.4731 17.2751 18.4731 17.275 18.4733ZM17.1953 18.455C17.1919 18.4532 17.1903 18.4519 17.1903 18.4518C17.1904 18.4516 17.1921 18.4525 17.1953 18.455ZM4.92755 67.2602C7.49555 67.912 12.3913 57.281 15.8626 43.5152C19.3339 29.7494 20.0661 18.0615 17.4981 17.4097C14.9302 16.7579 10.0344 27.3889 6.56308 41.1547C3.09181 54.9206 2.35956 66.6084 4.92755 67.2602Z" fill="white"/>
<path fill-rule="evenodd" clip-rule="evenodd" d="M119.367 81.7522C119.446 82.0431 119.275 82.3431 118.985 82.4221L109.045 85.131C108.755 85.21 108.456 85.0382 108.377 84.7472L106.521 77.8911C106.442 77.6001 106.613 77.3002 106.903 77.2212L108.181 76.8728L101.955 60.9501L94.94 55.6258C94.8439 55.5529 94.7747 55.4501 94.7431 55.3335L92.465 46.9191C92.411 46.7196 92.474 46.5066 92.6277 46.3688L93.9875 45.1507L86.7007 18.2364L85.1904 17.1297C85.0906 17.0566 85.0186 16.9516 84.9862 16.832L83.2987 10.5991C83.2749 10.5109 83.2734 10.4182 83.2946 10.3293C83.6641 8.77483 85.9313 5.51219 91.8599 3.35192C97.8494 1.16948 102.896 2.62933 104.737 3.68729C104.863 3.75924 104.954 3.87816 104.992 4.01788L106.848 10.8741C106.886 11.0138 106.867 11.1629 106.795 11.2885L105.776 13.0738L113.061 39.982L114.571 40.4097C114.755 40.4618 114.898 40.6069 114.948 40.7919L116.72 47.3365C116.792 47.6036 116.654 47.8828 116.398 47.986C113.843 49.0171 110.056 50.5508 107.002 51.8012C105.728 52.3228 104.583 52.7947 103.708 53.16C104.499 53.3469 105.475 53.6068 106.515 53.8986C108.79 54.5375 111.397 55.3366 113.103 55.8776C113.302 55.9405 113.447 56.1115 113.478 56.3181L116.192 74.6898L116.843 74.5123C117.133 74.4333 117.432 74.605 117.511 74.896L119.367 81.7522ZM118.174 81.5116L116.603 75.709L115.886 75.9045C115.736 75.9454 115.576 75.9199 115.445 75.8346C115.315 75.7492 115.228 75.612 115.205 75.4577L112.451 56.8161C110.757 56.2824 108.342 55.5455 106.221 54.95C105.09 54.6325 104.049 54.357 103.248 54.1739C102.847 54.0822 102.514 54.0157 102.264 53.9783C102.139 53.9596 102.044 53.9495 101.976 53.9462C101.94 53.9444 101.92 53.945 101.912 53.9453C101.896 53.9492 101.877 53.9536 101.856 53.9572C101.842 53.9597 101.81 53.9648 101.77 53.9658C101.75 53.9663 101.714 53.9662 101.671 53.9594C101.635 53.9538 101.546 53.937 101.451 53.8739C101.336 53.7973 101.224 53.6557 101.209 53.4596C101.197 53.2979 101.259 53.181 101.286 53.1355C101.339 53.0487 101.403 52.9974 101.416 52.9873L101.418 52.9863C101.456 52.9554 101.494 52.9341 101.506 52.9272L101.506 52.927C101.566 52.8932 101.662 52.8485 101.764 52.8027C101.984 52.7037 102.34 52.5509 102.798 52.358C103.717 51.9713 105.063 51.4158 106.591 50.7903C109.473 49.6103 113.006 48.1785 115.543 47.1542L113.979 41.3764L112.469 40.9487C112.285 40.8966 112.142 40.7515 112.092 40.5664L104.667 13.1417C104.629 13.002 104.648 12.8529 104.72 12.7273L105.739 10.942L104.003 4.52911C102.255 3.62307 97.6846 2.39111 92.2314 4.37814C86.7127 6.38904 84.7518 9.29041 84.3879 10.4568L85.9864 16.361L87.4966 17.4676C87.5964 17.5407 87.6684 17.6458 87.7008 17.7654L95.1258 45.1901C95.1798 45.3896 95.1169 45.6027 94.9631 45.7404L93.6033 46.9585L95.7446 54.8675L102.733 60.1722C102.813 60.2329 102.875 60.3145 102.912 60.4081L109.416 77.0407C109.472 77.185 109.465 77.3467 109.396 77.4853C109.326 77.6238 109.201 77.7262 109.052 77.7669L107.713 78.1317L109.284 83.9342L118.174 81.5116Z" fill="white"/>
<path fill-rule="evenodd" clip-rule="evenodd" d="M111.586 56.3296C111.296 56.4087 110.998 56.2369 110.919 55.9459C110.777 55.4236 110.798 54.7463 110.882 54.1029C110.969 53.4442 111.133 52.7542 111.327 52.1746C111.449 51.8071 111.722 51.3923 112.022 50.9936C112.333 50.5814 112.716 50.1327 113.106 49.6902C113.307 49.4622 113.508 49.2375 113.703 49.0193C114.286 48.3684 114.816 47.776 115.131 47.3328C115.306 47.0874 115.645 47.0304 115.89 47.2055C116.135 47.3807 116.191 47.7216 116.017 47.967C115.663 48.4647 115.069 49.128 114.474 49.7932C114.288 50.0014 114.101 50.2098 113.922 50.4133C113.536 50.8515 113.175 51.2748 112.89 51.6524C112.595 52.0435 112.42 52.3363 112.359 52.5209C112.187 53.037 112.039 53.659 111.961 54.2461C111.882 54.8486 111.885 55.351 111.969 55.6597C112.048 55.9507 111.876 56.2506 111.586 56.3296Z" fill="white"/>
<path fill-rule="evenodd" clip-rule="evenodd" d="M91.7774 23.3475L95.6586 37.6831C96.5729 41.0599 100.042 43.0538 103.408 42.1365C106.774 41.2193 108.761 37.7383 107.847 34.3615L103.966 20.0259C103.052 16.6491 99.5819 14.6553 96.2162 15.5725C92.8505 16.4897 90.8631 19.9707 91.7774 23.3475ZM103.693 43.1902C107.639 42.1149 109.969 38.034 108.897 34.0753L105.016 19.7397C103.944 15.781 99.8767 13.4436 95.9309 14.5189C91.9852 15.5942 89.6554 19.675 90.7272 23.6337L94.6085 37.9693C95.6802 41.928 99.7477 44.2655 103.693 43.1902Z" fill="white"/>
<path fill-rule="evenodd" clip-rule="evenodd" d="M107.873 30.6728C107.952 30.9637 107.78 31.2636 107.49 31.3427L94.1336 34.9827C93.8436 35.0618 93.5447 34.89 93.4659 34.599C93.3871 34.3081 93.5583 34.0081 93.8483 33.9291L107.205 30.2891C107.495 30.21 107.794 30.3818 107.873 30.6728ZM105.541 19.5959C105.62 19.8869 105.449 20.1868 105.159 20.2658L91.1805 24.0752C90.8905 24.1542 90.5915 23.9824 90.5127 23.6915C90.434 23.4005 90.6052 23.1006 90.8952 23.0215L104.873 19.2122C105.163 19.1332 105.462 19.305 105.541 19.5959Z" fill="white"/>
<path fill-rule="evenodd" clip-rule="evenodd" d="M114.169 71.1908C114.208 71.4639 114.038 71.7235 113.773 71.7959L109.114 73.0656C108.853 73.1367 108.58 73.0051 108.472 72.7567L103.149 60.4872C103.086 60.3418 103.089 60.1761 103.157 60.0331C103.226 59.8901 103.353 59.7841 103.505 59.7425L111.581 57.5415C111.732 57.5006 111.892 57.5262 112.023 57.612C112.153 57.6977 112.24 57.8354 112.262 57.9901L114.169 71.1908ZM113.023 70.8689L111.971 63.5863L106.345 65.1194L109.282 71.8883L113.023 70.8689ZM105.906 64.1077L111.814 62.4978L111.274 58.7568L104.398 60.6306L105.906 64.1077Z" fill="white"/>
<path fill-rule="evenodd" clip-rule="evenodd" d="M156.814 52.7576C156.973 52.6156 157.2 52.58 157.395 52.6664L166.216 56.5783C166.414 56.6661 166.541 56.8636 166.54 57.0809L166.412 78.1816C166.411 78.2534 166.397 78.3245 166.369 78.3907C163.106 86.1439 158.079 97.9686 153.605 108.245C151.368 113.383 149.268 118.136 147.595 121.801C146.759 123.633 146.028 125.195 145.44 126.399C144.857 127.589 144.399 128.462 144.11 128.889C141.843 132.242 138.273 132.419 136.736 132.076C136.618 132.05 136.512 131.985 136.435 131.891L134.246 129.236L131.578 129.7C131.472 129.718 131.363 129.705 131.265 129.661L125.896 127.28C125.739 127.211 125.625 127.071 125.586 126.904L125.214 125.291C124.57 125.3 123.702 125.276 122.787 125.182C121.641 125.064 120.375 124.832 119.377 124.389C118.708 124.093 118.356 123.484 118.188 122.83C118.021 122.18 118.015 121.413 118.087 120.649C118.233 119.115 118.716 117.434 119.114 116.354C119.118 116.343 119.122 116.333 119.127 116.322L140.826 67.0724C140.857 67.0009 140.904 66.937 140.962 66.885L156.814 52.7576ZM157.275 53.8069L141.773 67.6224L120.129 116.748C119.752 117.776 119.304 119.352 119.171 120.753C119.103 121.46 119.12 122.083 119.242 122.558C119.363 123.028 119.564 123.278 119.816 123.39C120.659 123.764 121.792 123.982 122.898 124.096C123.995 124.209 125.019 124.215 125.618 124.186C125.881 124.174 126.115 124.352 126.174 124.609L126.585 126.392L131.554 128.596L134.371 128.106C134.564 128.072 134.759 128.145 134.884 128.296L137.149 131.045C138.488 131.27 141.353 131.022 143.21 128.276C143.448 127.924 143.874 127.122 144.463 125.918C145.045 124.727 145.771 123.174 146.606 121.346C148.275 117.69 150.372 112.944 152.608 107.808C157.06 97.5812 162.061 85.8183 165.324 78.0662L165.449 57.4322L157.275 53.8069Z" fill="white"/>
<path fill-rule="evenodd" clip-rule="evenodd" d="M135.122 125.984C133.991 127.402 133.065 129.008 132.919 129.338C132.798 129.614 132.476 129.739 132.202 129.617C131.927 129.495 131.802 129.173 131.924 128.897C132.118 128.457 133.101 126.771 134.273 125.301C134.86 124.566 135.521 123.85 136.18 123.37C136.807 122.913 137.611 122.543 138.378 122.883C139.028 123.171 139.288 123.865 139.392 124.51C139.5 125.186 139.472 126.01 139.375 126.85C139.182 128.538 138.696 130.433 138.31 131.663C138.219 131.951 137.914 132.11 137.627 132.019C137.34 131.929 137.181 131.622 137.272 131.335C137.646 130.143 138.111 128.32 138.294 126.725C138.386 125.924 138.403 125.215 138.317 124.684C138.227 124.122 138.054 123.934 137.938 123.882C137.745 123.797 137.395 123.834 136.82 124.253C136.277 124.649 135.687 125.276 135.122 125.984ZM123.096 120.424C122.094 121.664 121.079 123.251 120.45 124.334C120.299 124.595 119.966 124.683 119.706 124.532C119.447 124.38 119.359 124.046 119.51 123.785C120.154 122.674 121.201 121.036 122.251 119.736C122.772 119.09 123.315 118.502 123.825 118.107C124.079 117.91 124.349 117.741 124.625 117.646C124.903 117.55 125.233 117.513 125.552 117.655C126.095 117.896 126.368 118.474 126.521 119.002C126.683 119.563 126.76 120.25 126.789 120.952C126.846 122.361 126.709 123.946 126.566 124.977C126.525 125.276 126.25 125.484 125.952 125.443C125.655 125.401 125.447 125.125 125.488 124.827C125.625 123.836 125.755 122.319 125.701 120.996C125.674 120.332 125.602 119.745 125.475 119.306C125.339 118.836 125.185 118.687 125.113 118.654C125.105 118.652 125.067 118.648 124.98 118.678C124.86 118.72 124.696 118.811 124.49 118.971C124.08 119.289 123.6 119.8 123.096 120.424ZM125.115 118.655C125.115 118.655 125.115 118.655 125.113 118.654L125.115 118.655Z" fill="white"/>
<path fill-rule="evenodd" clip-rule="evenodd" d="M167.509 55.7227L156.004 50.6203C155.707 50.4884 155.359 50.6234 155.228 50.9219C155.096 51.2204 155.231 51.5693 155.528 51.7012L167.033 56.8037C167.331 56.9356 167.678 56.8006 167.81 56.5021C167.942 56.2036 167.807 55.8547 167.509 55.7227ZM156.444 49.6217C155.597 49.246 154.607 49.6305 154.232 50.4805C153.858 51.3305 154.241 52.3241 155.088 52.6998L166.593 57.8023C167.44 58.178 168.431 57.7935 168.805 56.9435C169.18 56.0935 168.797 55.0999 167.949 54.7241L156.444 49.6217Z" fill="white"/>
<path fill-rule="evenodd" clip-rule="evenodd" d="M168.798 48.0154L160.818 44.4761L158.307 50.1742L166.288 53.7135L168.798 48.0154ZM160.263 43.0361L156.872 50.7314L166.843 55.1535L170.234 47.4582L160.263 43.0361Z" fill="white"/>
<path fill-rule="evenodd" clip-rule="evenodd" d="M165.991 45.6727C166.062 45.9656 165.883 46.261 165.591 46.3325L158.911 47.9691C158.619 48.0406 158.324 47.8612 158.253 47.5683C158.182 47.2754 158.361 46.98 158.652 46.9085L165.333 45.2719C165.625 45.2004 165.92 45.3798 165.991 45.6727ZM170.05 47.9804C170.093 48.2788 169.886 48.5554 169.589 48.5982L157.842 50.2877C157.544 50.3305 157.268 50.1233 157.226 49.8248C157.183 49.5264 157.39 49.2498 157.687 49.207L169.434 47.5175C169.732 47.4747 170.007 47.6819 170.05 47.9804ZM168.697 51.0835C168.726 51.3836 168.507 51.6504 168.207 51.6793L160.546 52.4209C160.247 52.4499 159.981 52.2301 159.952 51.93C159.923 51.6299 160.142 51.3631 160.441 51.3342L168.103 50.5926C168.402 50.5636 168.668 50.7834 168.697 51.0835Z" fill="white"/>
<path fill-rule="evenodd" clip-rule="evenodd" d="M27.6772 144.22C27.9777 144.22 28.2213 144.464 28.2213 144.766V202.979L75.4325 259.6C75.5268 259.714 75.5715 259.86 75.5564 260.007C75.5412 260.154 75.4675 260.288 75.352 260.379L47.2653 282.597V318.908H169.691C169.992 318.908 170.235 319.152 170.235 319.454C170.235 319.755 169.992 320 169.691 320H46.7212C46.4207 320 46.1771 319.755 46.1771 319.454V282.333C46.1771 282.166 46.2535 282.008 46.3843 281.904L74.2384 259.87L27.2599 203.527C27.178 203.429 27.1331 203.305 27.1331 203.177V144.766C27.1331 144.464 27.3767 144.22 27.6772 144.22ZM163.716 144.787C164.016 144.793 164.255 145.042 164.25 145.343L163.162 203.187C163.159 203.305 163.119 203.419 163.047 203.512L119.318 259.843L149.193 281.787H169.691C169.992 281.787 170.235 282.031 170.235 282.333C170.235 282.634 169.992 282.879 169.691 282.879H149.015C148.899 282.879 148.787 282.842 148.693 282.773L118.223 260.391C118.104 260.304 118.026 260.172 118.005 260.026C117.985 259.88 118.025 259.732 118.115 259.615L162.077 202.985L163.162 145.323C163.167 145.021 163.416 144.781 163.716 144.787Z" fill="white"/>
<path fill-rule="evenodd" clip-rule="evenodd" d="M103.202 183.593C103.145 183.787 103.089 184.001 103.034 184.232C102.94 184.63 102.852 185.056 102.762 185.496L102.75 185.553C102.664 185.972 102.576 186.403 102.48 186.818C102.283 187.668 102.038 188.527 101.66 189.136C101.468 189.446 101.216 189.733 100.88 189.906C100.527 190.088 100.133 190.118 99.7249 190C99.0816 189.815 98.579 189.306 98.19 188.726C97.7939 188.136 97.4658 187.399 97.197 186.635C96.8355 185.608 96.5668 184.489 96.3858 183.522C96.0505 184.011 95.6913 184.596 95.3676 185.229C94.7705 186.398 94.3242 187.676 94.3242 188.811C94.3242 189.494 94.5675 190.369 94.9578 191.442C95.1415 191.946 95.3513 192.479 95.5732 193.042L95.6049 193.123C95.8375 193.713 96.0814 194.334 96.3141 194.975C97.2391 197.523 98.03 200.485 97.2477 203.398C96.6258 205.715 95.4412 207.097 94.1695 207.859C92.914 208.612 91.6086 208.739 90.7571 208.611C90.5731 208.583 90.4159 208.463 90.3404 208.293C90.265 208.122 90.2817 207.924 90.3848 207.769C91.1481 206.618 92.7676 203.798 93.2491 201.643C93.3506 201.188 93.3206 200.555 93.1671 199.785C93.0156 199.026 92.754 198.182 92.4352 197.33C92.057 196.318 91.6046 195.311 91.1771 194.444C90.5682 198.358 88.6275 204.966 84.0937 209.934C80.9453 213.384 80.1296 217.113 79.8732 219.808C79.8089 220.483 79.7798 221.093 79.7578 221.621C79.755 221.686 79.7524 221.751 79.7498 221.814C79.7319 222.255 79.7158 222.65 79.6819 222.958C79.6625 223.134 79.6345 223.31 79.5873 223.464C79.5443 223.604 79.4602 223.813 79.2693 223.958C79.0353 224.137 78.7673 224.132 78.5593 224.06C78.3776 223.996 78.216 223.877 78.0801 223.757C77.5803 223.319 77.2194 222.524 76.9407 221.66C76.6525 220.765 76.4187 219.683 76.2309 218.56C76.1178 217.883 76.0205 217.186 75.9377 216.498C75.3949 219.38 74.6641 222.799 73.9131 225.172C73.3755 226.871 73.6684 229.146 74.3162 231.375C74.9578 233.583 75.9173 235.645 76.6004 236.859C76.6834 237.006 76.6934 237.184 76.6277 237.34C76.562 237.496 76.4279 237.612 76.2647 237.655C75.5812 237.835 74.4976 237.979 73.4326 237.825C72.3696 237.672 71.2248 237.203 70.6048 236.06C70.0508 235.039 69.6552 233.292 69.3794 231.599C69.2803 230.992 69.1951 230.38 69.1231 229.794C68.8451 230.73 68.539 231.781 68.2428 232.843C67.5974 235.155 67.0114 237.469 66.8492 238.751C66.8113 239.05 66.5389 239.262 66.2408 239.224C65.9427 239.186 65.7317 238.912 65.7696 238.613C65.9436 237.238 66.5534 234.846 67.1949 232.548C67.8403 230.236 68.5309 227.974 68.8817 226.838C68.9593 226.586 69.2047 226.426 69.4653 226.457C69.7259 226.488 69.9274 226.701 69.9444 226.964C70.0135 228.029 70.1799 229.746 70.4533 231.423C70.7309 233.126 71.1059 234.7 71.5607 235.538C71.9494 236.255 72.6961 236.616 73.5876 236.745C74.1767 236.83 74.7853 236.805 75.297 236.735C74.6308 235.445 73.835 233.62 73.2714 231.681C72.6092 229.402 72.2366 226.862 72.8759 224.842C74.0389 221.166 75.1687 214.849 75.5889 212.138C75.6319 211.861 75.8772 211.662 76.1564 211.677C76.4356 211.692 76.6577 211.918 76.6701 212.198C76.7395 213.76 76.9375 216.186 77.3042 218.379C77.4877 219.476 77.711 220.501 77.9762 221.324C78.1865 221.976 78.4051 222.442 78.6113 222.726C78.6336 222.475 78.6465 222.159 78.6625 221.769C78.6651 221.707 78.6677 221.642 78.6705 221.575C78.6928 221.042 78.7228 220.409 78.7899 219.704C79.0588 216.878 79.9244 212.886 83.291 209.197C88.391 203.608 90.0894 195.786 90.2948 192.595C90.3103 192.354 90.4815 192.152 90.7158 192.098C90.9502 192.044 91.1921 192.151 91.3109 192.36C91.9173 193.431 92.7923 195.176 93.4541 196.946C93.7851 197.831 94.0673 198.735 94.2341 199.571C94.3989 200.397 94.4617 201.207 94.311 201.881C93.883 203.798 92.6725 206.107 91.8158 207.537C92.355 207.475 92.9875 207.296 93.6113 206.922C94.6198 206.317 95.6419 205.181 96.1969 203.114C96.8857 200.549 96.2055 197.866 95.2916 195.349C95.0646 194.724 94.8258 194.115 94.5929 193.524L94.5592 193.439C94.3391 192.88 94.1243 192.335 93.9355 191.816C93.5443 190.741 93.2359 189.706 93.2359 188.811C93.2359 187.423 93.7704 185.962 94.3992 184.731C95.0325 183.492 95.7918 182.428 96.307 181.817C96.4465 181.652 96.67 181.585 96.8769 181.647C97.0838 181.708 97.2349 181.886 97.2621 182.101C97.3989 183.182 97.7177 184.835 98.2231 186.272C98.4762 186.991 98.7681 187.633 99.0927 188.116C99.4244 188.61 99.7432 188.87 100.024 188.951C100.194 188.999 100.3 188.977 100.383 188.935C100.482 188.884 100.603 188.773 100.736 188.559C101.009 188.12 101.223 187.423 101.42 186.571C101.513 186.17 101.598 185.752 101.685 185.329L101.696 185.276C101.785 184.839 101.877 184.396 101.976 183.979C102.167 183.173 102.41 182.358 102.804 181.839C102.892 181.724 102.993 181.605 103.108 181.518C103.204 181.445 103.466 181.279 103.781 181.411C104.056 181.526 104.145 181.785 104.173 181.873C104.211 181.994 104.23 182.13 104.242 182.253C104.264 182.48 104.27 182.78 104.278 183.106C104.279 183.136 104.279 183.166 104.28 183.196C104.289 183.568 104.3 183.993 104.332 184.457C104.461 186.33 104.92 188.721 106.756 190.4C107.308 190.905 107.983 191.458 108.743 192.082C109.359 192.587 110.032 193.138 110.74 193.746C112.291 195.078 113.945 196.632 115.305 198.398C116.666 200.164 117.749 202.166 118.127 204.395C118.507 206.635 118.166 209.063 116.744 211.655C114.023 216.615 112.799 219.993 112.445 222.429C112.115 224.702 112.542 226.155 113.242 227.338C113.255 227.242 113.267 227.136 113.28 227.02C113.301 226.829 113.321 226.62 113.343 226.395L113.343 226.391C113.365 226.166 113.388 225.925 113.414 225.675C113.52 224.684 113.683 223.514 114.047 222.486C114.409 221.465 115.006 220.487 116.047 220.025C116.146 219.981 116.239 219.939 116.326 219.9C116.595 219.78 116.805 219.686 116.951 219.629C117.037 219.595 117.162 219.549 117.284 219.536C117.34 219.53 117.487 219.519 117.641 219.599C117.845 219.706 117.933 219.899 117.948 220.061C117.96 220.187 117.929 220.29 117.915 220.334C117.897 220.388 117.874 220.438 117.856 220.477C117.822 220.547 117.776 220.631 117.732 220.71L117.722 220.727C117.623 220.907 117.497 221.136 117.37 221.427C116.875 222.563 116.305 224.771 117.817 228.277C119.119 231.293 120.554 232.987 121.724 234.369C121.938 234.621 122.143 234.863 122.337 235.101C122.964 235.871 123.501 236.629 123.779 237.559C124.061 238.499 124.062 239.557 123.731 240.91C123.21 243.036 121.923 245.894 120.55 248.572C119.171 251.261 117.682 253.815 116.729 255.348C116.57 255.604 116.234 255.682 115.979 255.522C115.724 255.363 115.647 255.026 115.805 254.77C116.744 253.259 118.218 250.732 119.582 248.072C120.952 245.401 122.186 242.641 122.674 240.65C122.973 239.43 122.948 238.578 122.737 237.873C122.523 237.158 122.101 236.537 121.494 235.792C121.311 235.567 121.113 235.333 120.904 235.087C119.727 233.699 118.189 231.885 116.819 228.71C115.223 225.013 115.734 222.524 116.324 221.106C115.768 221.422 115.365 222.028 115.072 222.852C114.754 223.75 114.601 224.811 114.496 225.791C114.471 226.035 114.448 226.27 114.426 226.496C114.404 226.721 114.384 226.938 114.362 227.139C114.319 227.527 114.27 227.899 114.188 228.174C114.149 228.307 114.086 228.476 113.972 228.615C113.839 228.779 113.607 228.927 113.307 228.878C113.07 228.84 112.898 228.691 112.792 228.582C112.674 228.46 112.56 228.302 112.445 228.122C111.536 226.685 110.981 224.934 111.368 222.272C111.75 219.644 113.047 216.131 115.791 211.129C117.101 208.74 117.39 206.561 117.054 204.578C116.716 202.583 115.737 200.745 114.444 199.066C113.151 197.387 111.562 195.889 110.032 194.575C109.375 194.01 108.714 193.468 108.095 192.961C107.305 192.312 106.583 191.719 106.023 191.207C103.866 189.234 103.38 186.478 103.246 184.532C103.223 184.195 103.21 183.879 103.202 183.593ZM113.6 227.846C113.6 227.846 113.598 227.845 113.594 227.842C113.598 227.844 113.6 227.846 113.6 227.846ZM78.5355 223.174C78.5355 223.174 78.5363 223.172 78.538 223.169C78.5364 223.173 78.5355 223.174 78.5355 223.174Z" fill="white"/>
<path fill-rule="evenodd" clip-rule="evenodd" d="M92.9299 220.067C92.957 220.189 92.9841 220.314 93.0115 220.442L93.0202 220.482C93.0822 220.769 93.1464 221.067 93.2166 221.354C93.3592 221.938 93.5427 222.556 93.8344 223.002C93.9845 223.232 94.1862 223.452 94.4615 223.587C94.7498 223.728 95.0673 223.748 95.3898 223.661C95.9001 223.522 96.2905 223.14 96.5836 222.726C96.8824 222.304 97.1264 221.782 97.324 221.249C97.5453 220.653 97.7189 220.013 97.8474 219.427C98.0278 219.694 98.2114 219.992 98.3813 220.307C98.8084 221.1 99.1145 221.945 99.1145 222.678C99.1145 223.108 98.9509 223.679 98.6683 224.416C98.5363 224.76 98.3852 225.124 98.2243 225.511L98.2017 225.566C98.0334 225.971 97.856 226.4 97.6865 226.842C97.0153 228.596 96.4213 230.68 97.0055 232.744C97.4687 234.38 98.355 235.365 99.3104 235.909C100.249 236.442 101.223 236.533 101.865 236.441C102.052 236.415 102.212 236.292 102.287 236.118C102.363 235.944 102.342 235.743 102.234 235.588C101.683 234.8 100.528 232.887 100.188 231.444C100.124 231.172 100.14 230.769 100.248 230.251C100.355 229.744 100.541 229.175 100.769 228.595C100.983 228.054 101.229 227.514 101.474 227.021C101.996 229.772 103.433 234.046 106.569 237.306C108.812 239.638 109.392 242.154 109.575 243.978C109.621 244.436 109.642 244.85 109.658 245.212C109.66 245.257 109.662 245.301 109.664 245.345C109.677 245.645 109.689 245.925 109.714 246.143C109.729 246.269 109.751 246.404 109.79 246.527C109.826 246.638 109.903 246.823 110.082 246.953C110.298 247.109 110.538 247.101 110.717 247.042C110.873 246.991 111.006 246.895 111.111 246.809C111.51 246.476 111.784 245.89 111.987 245.291C112.2 244.664 112.371 243.911 112.508 243.135C112.541 242.951 112.571 242.765 112.6 242.578C112.97 244.355 113.428 246.293 113.898 247.702C114.268 248.81 114.071 250.323 113.605 251.845C113.145 253.345 112.457 254.747 111.969 255.571C111.815 255.83 111.9 256.165 112.158 256.319C112.416 256.473 112.75 256.388 112.904 256.129C113.43 255.243 114.156 253.761 114.645 252.166C115.127 250.593 115.412 248.8 114.93 247.355C114.093 244.847 113.277 240.523 112.973 238.663C112.928 238.387 112.683 238.19 112.405 238.206C112.127 238.222 111.906 238.446 111.893 238.725C111.843 239.792 111.7 241.449 111.437 242.945C111.305 243.694 111.145 244.386 110.957 244.939C110.89 245.137 110.823 245.306 110.757 245.446C110.755 245.399 110.753 245.349 110.751 245.297C110.749 245.254 110.747 245.21 110.745 245.164C110.729 244.797 110.707 244.358 110.658 243.869C110.461 241.902 109.824 239.118 107.352 236.548C103.697 232.749 102.478 227.424 102.331 225.263C102.315 225.025 102.147 224.825 101.915 224.769C101.684 224.713 101.444 224.814 101.321 225.019C100.879 225.761 100.241 226.967 99.7573 228.194C99.5155 228.807 99.3074 229.438 99.1837 230.026C99.0623 230.603 99.0106 231.192 99.129 231.695C99.4128 232.9 100.156 234.315 100.757 235.308C100.468 235.245 100.156 235.135 99.847 234.959C99.152 234.564 98.4411 233.819 98.0524 232.446C97.5718 230.748 98.0426 228.957 98.7024 227.234C98.8657 226.807 99.0376 226.392 99.2063 225.986L99.2309 225.926C99.39 225.543 99.5463 225.167 99.6839 224.808C99.967 224.07 100.203 223.33 100.203 222.678C100.203 221.678 99.7989 220.642 99.3386 219.788C98.8732 218.924 98.3156 218.183 97.9349 217.755C97.7934 217.595 97.5725 217.534 97.3693 217.596C97.1661 217.659 97.0179 217.834 96.9897 218.046C96.8919 218.778 96.6638 219.899 96.3041 220.869C96.1239 221.354 95.9191 221.779 95.6963 222.094C95.4677 222.417 95.2637 222.564 95.1046 222.607C95.0089 222.633 94.965 222.618 94.9378 222.605C94.8975 222.585 94.8295 222.534 94.7443 222.403C94.5654 222.13 94.4162 221.679 94.2736 221.094C94.207 220.822 94.1455 220.537 94.0827 220.246L94.0751 220.211C94.0103 219.91 93.9437 219.603 93.8711 219.314C93.7329 218.763 93.5496 218.166 93.2376 217.776C93.1711 217.693 93.0868 217.598 92.9865 217.526C92.9022 217.465 92.6627 217.319 92.3709 217.435C92.1076 217.54 92.0203 217.779 91.9953 217.854C91.961 217.958 91.9458 218.068 91.9369 218.156C91.9203 218.32 91.9152 218.533 91.91 218.754C91.9094 218.776 91.9089 218.797 91.9084 218.818C91.9022 219.073 91.8941 219.361 91.8714 219.674C91.7794 220.943 91.4533 222.524 90.1757 223.633C89.7776 223.978 89.2956 224.353 88.7496 224.777C88.3041 225.124 87.8159 225.503 87.296 225.927C86.1707 226.844 84.9631 227.919 83.968 229.144C82.9733 230.369 82.1696 231.771 81.8887 233.343C81.6053 234.929 81.8628 236.641 82.9115 238.455C84.8771 241.854 85.7499 244.149 86.0007 245.787C86.1953 247.058 86.0164 247.934 85.6667 248.642C85.6608 248.584 85.6547 248.524 85.6484 248.463L85.6481 248.46C85.6324 248.305 85.6155 248.139 85.5961 247.966C85.5194 247.283 85.3999 246.46 85.1275 245.732C84.8558 245.006 84.399 244.287 83.5929 243.947C83.5227 243.918 83.4564 243.89 83.394 243.863C83.1982 243.78 83.0421 243.714 82.9327 243.673C82.8709 243.65 82.7659 243.613 82.659 243.602C82.6115 243.597 82.4754 243.586 82.329 243.659C82.1301 243.757 82.0325 243.944 82.0159 244.114C82.0034 244.242 82.0367 244.344 82.0498 244.382C82.0667 244.431 82.0872 244.473 82.1021 244.503C82.1292 244.556 82.1653 244.618 82.1964 244.671L82.2038 244.684C82.2753 244.807 82.3626 244.958 82.4507 245.149C82.7879 245.883 83.1976 247.341 82.1266 249.696C82.0018 249.97 82.1223 250.294 82.3956 250.419C82.669 250.544 82.9918 250.423 83.1166 250.149C84.0986 247.99 84.0032 246.404 83.6859 245.346C83.8518 245.545 83.9914 245.802 84.1087 246.115C84.3306 246.709 84.4393 247.417 84.5147 248.088C84.5334 248.254 84.5497 248.415 84.5655 248.57L84.5662 248.577C84.5816 248.729 84.5966 248.877 84.6123 249.014C84.6427 249.279 84.6803 249.551 84.7453 249.759C84.7766 249.859 84.8308 250.003 84.9359 250.125C85.0621 250.272 85.2756 250.398 85.5446 250.356C85.7574 250.323 85.9092 250.197 85.9951 250.112C86.0918 250.018 86.1823 249.899 86.2682 249.77C86.9504 248.747 87.3638 247.499 87.0764 245.622C86.7948 243.783 85.8422 241.347 83.8528 237.907C82.924 236.301 82.7251 234.85 82.9599 233.536C83.1971 232.208 83.886 230.974 84.8118 229.834C85.7372 228.694 86.8779 227.674 87.9821 226.774C88.4509 226.392 88.9271 226.021 89.375 225.673C89.9514 225.224 90.481 224.811 90.8875 224.459C92.3793 223.164 92.7978 221.396 92.9299 220.067ZM85.7942 249.462C85.7942 249.462 85.7939 249.461 85.7932 249.46C85.7938 249.461 85.7941 249.462 85.7942 249.462ZM85.2317 249.334C85.2279 249.337 85.2259 249.339 85.2257 249.339C85.2255 249.34 85.2275 249.338 85.2317 249.334ZM110.828 246.198C110.828 246.198 110.828 246.195 110.826 246.191C110.827 246.196 110.828 246.198 110.828 246.198Z" fill="white"/>
<path fill-rule="evenodd" clip-rule="evenodd" d="M60.8669 138.199C60.8874 138.5 60.6609 138.76 60.3611 138.781C50.5821 139.451 42.446 140.39 36.7635 141.503C33.9179 142.06 31.7144 142.656 30.2337 143.272C29.4908 143.581 28.9616 143.882 28.6271 144.164C28.2872 144.451 28.2213 144.652 28.2213 144.766C28.2213 144.853 28.2582 144.989 28.4314 145.18C28.6074 145.375 28.8955 145.594 29.3203 145.827C30.1689 146.293 31.4555 146.76 33.1614 147.213C36.5646 148.117 41.5139 148.937 47.6587 149.627C59.9411 151.007 76.9235 151.862 95.6915 151.862C114.459 151.862 131.442 151.007 143.724 149.627C149.869 148.937 154.818 148.117 158.222 147.213C159.927 146.76 161.214 146.293 162.063 145.827C162.487 145.594 162.776 145.375 162.952 145.18C163.125 144.989 163.162 144.853 163.162 144.766C163.162 144.652 163.096 144.451 162.756 144.164C162.421 143.882 161.892 143.581 161.149 143.272C159.669 142.656 157.465 142.06 154.619 141.503C148.937 140.39 140.801 139.451 131.022 138.781C130.722 138.76 130.496 138.5 130.516 138.199C130.537 137.898 130.796 137.671 131.096 137.692C140.894 138.363 149.081 139.306 154.828 140.431C157.697 140.993 159.984 141.605 161.566 142.263C162.354 142.591 162.999 142.943 163.456 143.328C163.907 143.709 164.25 144.188 164.25 144.766C164.25 145.206 164.049 145.592 163.758 145.914C163.469 146.233 163.066 146.521 162.585 146.785C161.622 147.314 160.236 147.807 158.5 148.268C155.02 149.193 150.009 150.02 143.845 150.712C131.511 152.098 114.487 152.954 95.6915 152.954C76.8962 152.954 59.8715 152.098 47.5376 150.712C41.3742 150.02 36.363 149.193 32.8828 148.268C31.1471 147.807 29.7612 147.314 28.7978 146.785C28.3165 146.521 27.9137 146.233 27.6253 145.914C27.3341 145.592 27.1331 145.206 27.1331 144.766C27.1331 144.188 27.4757 143.709 27.927 143.328C28.3837 142.943 29.0285 142.591 29.8169 142.263C31.3985 141.605 33.6861 140.993 36.555 140.431C42.3017 139.306 50.489 138.363 60.287 137.692C60.5868 137.671 60.8464 137.898 60.8669 138.199Z" fill="white"/>
<path fill-rule="evenodd" clip-rule="evenodd" d="M60.8669 144.75C60.8874 145.051 60.6609 145.311 60.3611 145.332C50.5821 146.002 42.446 146.941 36.7635 148.054C33.9179 148.611 31.7144 149.207 30.2337 149.823C29.4908 150.132 28.9616 150.433 28.6271 150.715C28.2872 151.002 28.2213 151.203 28.2213 151.316C28.2213 151.404 28.2582 151.54 28.4314 151.731C28.6074 151.926 28.8955 152.145 29.3203 152.378C30.1689 152.844 31.4555 153.31 33.1614 153.764C36.5646 154.668 41.5139 155.488 47.6587 156.178C59.9411 157.558 76.9235 158.413 95.6915 158.413C114.459 158.413 131.442 157.558 143.724 156.178C149.869 155.488 154.818 154.668 158.222 153.764C159.927 153.31 161.214 152.844 162.063 152.378C162.487 152.145 162.776 151.926 162.952 151.731C163.125 151.54 163.162 151.404 163.162 151.316C163.162 151.203 163.096 151.002 162.756 150.715C162.421 150.433 161.892 150.132 161.149 149.823C159.669 149.207 157.465 148.611 154.619 148.054C148.937 146.941 140.801 146.002 131.022 145.332C130.722 145.311 130.496 145.051 130.516 144.75C130.537 144.449 130.796 144.222 131.096 144.243C140.894 144.914 149.081 145.857 154.828 146.982C157.697 147.544 159.984 148.156 161.566 148.814C162.354 149.142 162.999 149.494 163.456 149.879C163.907 150.26 164.25 150.738 164.25 151.316C164.25 151.757 164.049 152.142 163.758 152.465C163.469 152.784 163.066 153.071 162.585 153.336C161.622 153.865 160.236 154.358 158.5 154.819C155.02 155.744 150.009 156.571 143.845 157.263C131.511 158.649 114.487 159.505 95.6915 159.505C76.8962 159.505 59.8715 158.649 47.5376 157.263C41.3742 156.571 36.363 155.744 32.8828 154.819C31.1471 154.358 29.7612 153.865 28.7978 153.336C28.3165 153.071 27.9137 152.784 27.6253 152.465C27.3341 152.142 27.1331 151.757 27.1331 151.316C27.1331 150.738 27.4757 150.26 27.927 149.879C28.3837 149.494 29.0285 149.142 29.8169 148.814C31.3985 148.156 33.6861 147.544 36.555 146.982C42.3017 145.857 50.489 144.914 60.287 144.243C60.5868 144.222 60.8464 144.449 60.8669 144.75Z" fill="white"/>
<path fill-rule="evenodd" clip-rule="evenodd" d="M89.2938 137.037C89.433 136.998 89.5823 137.015 89.7087 137.086L111.619 149.396C111.756 149.474 111.854 149.606 111.886 149.761C111.918 149.915 111.882 150.076 111.788 150.202L110.272 152.214C110.091 152.454 109.75 152.502 109.51 152.32C109.27 152.138 109.223 151.796 109.404 151.555L110.543 150.043L89.6541 138.307L82.0206 152.149C81.8751 152.413 81.544 152.508 81.2811 152.362C81.0181 152.216 80.9229 151.884 81.0684 151.62L88.9667 137.298C89.0368 137.171 89.1545 137.077 89.2938 137.037Z" fill="white"/>
<path fill-rule="evenodd" clip-rule="evenodd" d="M99.8109 107.203C99.9372 107.283 100.026 107.41 100.055 107.557L102.21 118.148L128.364 141.108C128.59 141.307 128.613 141.651 128.417 141.878L118.955 152.788C118.758 153.016 118.414 153.04 118.187 152.842C117.96 152.644 117.937 152.299 118.134 152.072L127.239 141.572L99.9949 117.654L83.6479 134.896C84.2294 135.427 84.9424 136.079 85.642 136.72C86.9794 137.945 88.2895 139.15 88.5134 139.375C88.7259 139.588 88.7259 139.933 88.5134 140.147C88.3009 140.36 87.9564 140.36 87.7439 140.147C87.554 139.956 86.3996 138.893 85.1306 137.73C83.1207 138.28 74.5569 140.505 70.2979 141.608C70.0097 141.683 69.7153 141.511 69.637 141.223L63.0638 117.042C63.0255 116.901 63.0451 116.751 63.1184 116.624C63.1917 116.498 63.3125 116.406 63.4538 116.37L99.3872 107.137C99.5315 107.1 99.6847 107.124 99.8109 107.203ZM84.1771 136.857C83.5537 136.286 82.9605 135.745 82.5041 135.328C82.3957 135.23 82.3317 135.091 82.3264 134.944C82.321 134.797 82.3749 134.655 82.4759 134.548L99.5662 116.522C99.7672 116.31 100.099 116.295 100.319 116.488L100.858 116.961L99.1034 108.337L64.2591 117.29L70.5457 140.416C74.5584 139.377 81.5148 137.569 84.1771 136.857Z" fill="white"/>
<path fill-rule="evenodd" clip-rule="evenodd" d="M33.6625 154.613C33.963 154.613 34.2066 154.858 34.2066 155.159V200.249L80.3285 255.232C80.522 255.463 80.4924 255.807 80.2625 256.001C80.0326 256.195 79.6894 256.166 79.4959 255.935L33.2462 200.799C33.1636 200.701 33.1184 200.576 33.1184 200.448V155.159C33.1184 154.858 33.362 154.613 33.6625 154.613ZM156.632 154.613C156.933 154.613 157.176 154.858 157.176 155.159V200.448C157.176 200.565 157.139 200.679 157.069 200.773L116.261 255.909C116.081 256.151 115.741 256.202 115.499 256.022C115.258 255.842 115.208 255.5 115.387 255.258L156.088 200.267V155.159C156.088 154.858 156.332 154.613 156.632 154.613Z" fill="white"/>
<path fill-rule="evenodd" clip-rule="evenodd" d="M80.8906 262.373C81.0716 262.614 81.0239 262.956 80.7841 263.138L52.1623 284.81V312.925H169.691C169.992 312.925 170.235 313.169 170.235 313.471C170.235 313.772 169.992 314.017 169.691 314.017H51.6182C51.3177 314.017 51.0741 313.772 51.0741 313.471V284.538C51.0741 284.367 51.1542 284.206 51.2905 284.102L80.1285 262.266C80.3684 262.085 80.7096 262.133 80.8906 262.373Z" fill="white"/>
<path fill-rule="evenodd" clip-rule="evenodd" d="M113.75 262.929C113.926 262.684 114.266 262.629 114.51 262.805L147.558 286.722H170.235C170.536 286.722 170.779 286.966 170.779 287.268C170.779 287.569 170.536 287.814 170.235 287.814H147.382C147.268 287.814 147.157 287.778 147.064 287.71L113.873 263.691C113.629 263.514 113.574 263.173 113.75 262.929Z" fill="white"/>
</svg>
