<svg width="175" height="148" viewBox="0 0 175 148" fill="none" xmlns="http://www.w3.org/2000/svg">
<path fill-rule="evenodd" clip-rule="evenodd" d="M14.4614 1.00207C14.5501 1.0044 14.6342 1.04189 14.6952 1.10627L26.7223 13.8015C26.8491 13.9355 26.8434 14.1469 26.7095 14.2738C26.5755 14.4007 26.3641 14.395 26.2372 14.2611L14.7867 2.17445V147.666C14.7867 147.85 14.6372 148 14.4526 148C14.2681 148 14.1186 147.85 14.1186 147.666V29.7333H1.08921C0.904703 29.7333 0.755128 29.5837 0.755128 29.3992C0.755128 29.2147 0.904703 29.0651 1.08921 29.0651H14.1186V2.11423L1.31931 14.2735C1.18554 14.4006 0.974083 14.3952 0.847001 14.2614C0.71992 14.1276 0.725342 13.9162 0.859112 13.7891L14.2225 1.09383C14.2868 1.03275 14.3728 0.999734 14.4614 1.00207Z" fill="#4048F5"/>
<path fill-rule="evenodd" clip-rule="evenodd" d="M5.09828 42.4288C5.09828 42.2443 5.24786 42.0947 5.43237 42.0947H14.7868C14.9713 42.0947 15.1209 42.2443 15.1209 42.4288C15.1209 42.6133 14.9713 42.7629 14.7868 42.7629H5.43237C5.24786 42.7629 5.09828 42.6133 5.09828 42.4288ZM1.42334 55.7922C1.42334 55.6077 1.57292 55.4582 1.75743 55.4582H14.7868C14.9713 55.4582 15.1209 55.6077 15.1209 55.7922C15.1209 55.9768 14.9713 56.1263 14.7868 56.1263H1.75743C1.57292 56.1263 1.42334 55.9768 1.42334 55.7922ZM6.10054 67.4852C6.10054 67.3007 6.25011 67.1512 6.43463 67.1512H14.7868C14.9713 67.1512 15.1209 67.3007 15.1209 67.4852C15.1209 67.6698 14.9713 67.8193 14.7868 67.8193H6.43463C6.25011 67.8193 6.10054 67.6698 6.10054 67.4852ZM1.42334 80.1805C1.42334 79.996 1.57292 79.8464 1.75743 79.8464H14.7868C14.9713 79.8464 15.1209 79.996 15.1209 80.1805C15.1209 80.365 14.9713 80.5146 14.7868 80.5146H1.75743C1.57292 80.5146 1.42334 80.365 1.42334 80.1805ZM5.09828 93.5439C5.09828 93.3594 5.24786 93.2098 5.43237 93.2098H14.7868C14.9713 93.2098 15.1209 93.3594 15.1209 93.5439C15.1209 93.7284 14.9713 93.878 14.7868 93.878H5.43237C5.24786 93.878 5.09828 93.7284 5.09828 93.5439ZM1.42334 106.239C1.42334 106.055 1.57292 105.905 1.75743 105.905H14.7868C14.9713 105.905 15.1209 106.055 15.1209 106.239C15.1209 106.424 14.9713 106.573 14.7868 106.573H1.75743C1.57292 106.573 1.42334 106.424 1.42334 106.239ZM5.09828 120.271C5.09828 120.086 5.24786 119.937 5.43237 119.937H14.7868C14.9713 119.937 15.1209 120.086 15.1209 120.271C15.1209 120.455 14.9713 120.605 14.7868 120.605H5.43237C5.24786 120.605 5.09828 120.455 5.09828 120.271ZM1.42334 131.63C1.42334 131.445 1.57292 131.296 1.75743 131.296H14.7868C14.9713 131.296 15.1209 131.445 15.1209 131.63C15.1209 131.814 14.9713 131.964 14.7868 131.964H1.75743C1.57292 131.964 1.42334 131.814 1.42334 131.63Z" fill="#4048F5"/>
<path fill-rule="evenodd" clip-rule="evenodd" d="M45.8567 117.598H24.4752V146.997H45.8567V117.598ZM23.807 116.93V147.666H46.5248V116.93H23.807Z" fill="#4048F5"/>
<path fill-rule="evenodd" clip-rule="evenodd" d="M81.938 100.894H60.5565V146.998H81.938V100.894ZM59.8883 100.226V147.666H82.6061V100.226H59.8883Z" fill="#4048F5"/>
<path fill-rule="evenodd" clip-rule="evenodd" d="M118.019 90.2033H96.6378V146.998H118.019V90.2033ZM95.9696 89.5352V147.666H118.687V89.5352H95.9696Z" fill="#4048F5"/>
<path fill-rule="evenodd" clip-rule="evenodd" d="M154.101 78.844H132.719V146.997H154.101V78.844ZM132.051 78.1758V147.666H154.769V78.1758H132.051Z" fill="#4048F5"/>
<path fill-rule="evenodd" clip-rule="evenodd" d="M152.096 80.1807C152.28 80.1807 152.43 80.3302 152.43 80.5147V95.8827C152.43 96.0672 152.28 96.2168 152.096 96.2168C151.911 96.2168 151.762 96.0672 151.762 95.8827V80.5147C151.762 80.3302 151.911 80.1807 152.096 80.1807ZM152.096 99.5576C152.28 99.5576 152.43 99.7072 152.43 99.8917V126.284C152.43 126.469 152.28 126.619 152.096 126.619C151.911 126.619 151.762 126.469 151.762 126.284V99.8917C151.762 99.7072 151.911 99.5576 152.096 99.5576ZM152.096 130.628C152.28 130.628 152.43 130.777 152.43 130.962V142.989C152.43 143.173 152.28 143.323 152.096 143.323C151.911 143.323 151.762 143.173 151.762 142.989V130.962C151.762 130.777 151.911 130.628 152.096 130.628Z" fill="#4048F5"/>
<path fill-rule="evenodd" clip-rule="evenodd" d="M115.347 91.2051C115.531 91.2051 115.681 91.3547 115.681 91.5392V106.907C115.681 107.092 115.531 107.241 115.347 107.241C115.162 107.241 115.012 107.092 115.012 106.907V91.5392C115.012 91.3547 115.162 91.2051 115.347 91.2051ZM115.347 110.582C115.531 110.582 115.681 110.732 115.681 110.916V137.309C115.681 137.493 115.531 137.643 115.347 137.643C115.162 137.643 115.012 137.493 115.012 137.309V110.916C115.012 110.732 115.162 110.582 115.347 110.582ZM115.347 141.652C115.531 141.652 115.681 141.802 115.681 141.986V144.325C115.681 144.509 115.531 144.659 115.347 144.659C115.162 144.659 115.012 144.509 115.012 144.325V141.986C115.012 141.802 115.162 141.652 115.347 141.652Z" fill="#4048F5"/>
<path fill-rule="evenodd" clip-rule="evenodd" d="M79.9335 102.564C80.118 102.564 80.2675 102.714 80.2675 102.899V118.266C80.2675 118.451 80.118 118.601 79.9335 118.601C79.7489 118.601 79.5994 118.451 79.5994 118.266V102.899C79.5994 102.714 79.7489 102.564 79.9335 102.564ZM79.9335 121.941C80.118 121.941 80.2675 122.091 80.2675 122.276V138.646C80.2675 138.83 80.118 138.98 79.9335 138.98C79.7489 138.98 79.5994 138.83 79.5994 138.646V122.276C79.5994 122.091 79.7489 121.941 79.9335 121.941ZM79.9335 142.989C80.118 142.989 80.2675 143.138 80.2675 143.323V145.662C80.2675 145.846 80.118 145.996 79.9335 145.996C79.7489 145.996 79.5994 145.846 79.5994 145.662V143.323C79.5994 143.138 79.7489 142.989 79.9335 142.989Z" fill="#4048F5"/>
<path fill-rule="evenodd" clip-rule="evenodd" d="M43.8523 118.601C44.0368 118.601 44.1864 118.75 44.1864 118.935V127.621C44.1864 127.805 44.0368 127.955 43.8523 127.955C43.6678 127.955 43.5182 127.805 43.5182 127.621V118.935C43.5182 118.75 43.6678 118.601 43.8523 118.601ZM43.8523 131.296C44.0368 131.296 44.1864 131.445 44.1864 131.63V139.314C44.1864 139.498 44.0368 139.648 43.8523 139.648C43.6678 139.648 43.5182 139.498 43.5182 139.314V131.63C43.5182 131.445 43.6678 131.296 43.8523 131.296ZM43.8523 142.321C44.0368 142.321 44.1864 142.47 44.1864 142.655V144.993C44.1864 145.178 44.0368 145.327 43.8523 145.327C43.6678 145.327 43.5182 145.178 43.5182 144.993V142.655C43.5182 142.47 43.6678 142.321 43.8523 142.321Z" fill="#4048F5"/>
<path fill-rule="evenodd" clip-rule="evenodd" d="M174.121 54.8063C174.171 54.8865 174.185 54.9843 174.159 55.0753C173.69 56.7228 172.641 59.3761 171.013 62.0158C169.387 64.6531 167.165 67.3048 164.339 68.9126C158.828 72.048 153.566 74.1779 148.711 72.4035C148.609 72.3664 148.532 72.2825 148.503 72.1783C148.475 72.0741 148.498 71.9624 148.566 71.8786C151.452 68.3387 153.64 66.067 156.983 63.4264C153.857 65.2401 151.32 67.1341 147.628 70.2397C147.526 70.3253 147.384 70.3424 147.264 70.2834C147.145 70.2243 147.073 70.1003 147.079 69.9676C147.159 68.363 147.719 65.9815 148.947 63.6095C150.178 61.2346 152.088 58.8495 154.883 57.267C161.292 53.6374 167.998 53.6238 173.895 54.6547C173.988 54.671 174.07 54.7261 174.121 54.8063ZM173.41 55.2498C167.688 54.299 161.304 54.3989 155.212 57.8485C152.556 59.3522 150.727 61.6269 149.541 63.9168C148.546 65.8364 148.012 67.7528 147.82 69.2074C152.575 65.2464 155.487 63.2935 160.609 60.7292C160.765 60.6511 160.955 60.7062 161.045 60.8557C161.135 61.0052 161.094 61.1987 160.952 61.3C155.541 65.1587 152.986 67.5555 149.39 71.928C153.809 73.3041 158.668 71.3703 164.009 68.3319C166.7 66.8011 168.849 64.2528 170.444 61.6651C171.924 59.2653 172.913 56.8557 173.41 55.2498Z" fill="#4048F5"/>
<path fill-rule="evenodd" clip-rule="evenodd" d="M111.723 53.4703C111.672 53.5505 111.658 53.6483 111.684 53.7394C112.154 55.3868 113.202 58.0402 114.83 60.6799C116.456 63.3172 118.678 65.9689 121.504 67.5767C127.015 70.7121 132.277 72.8419 137.132 71.0676C137.234 71.0305 137.311 70.9466 137.34 70.8424C137.369 70.7381 137.345 70.6265 137.277 70.5427C134.391 67.0028 132.203 64.7311 128.86 62.0905C131.986 63.9042 134.523 65.7982 138.215 68.9038C138.317 68.9893 138.46 69.0065 138.579 68.9474C138.698 68.8884 138.77 68.7644 138.764 68.6316C138.685 67.0271 138.124 64.6456 136.896 62.2736C135.666 59.8987 133.755 57.5136 130.96 55.9311C124.551 52.3015 117.845 52.2879 111.948 53.3187C111.855 53.335 111.773 53.3901 111.723 53.4703ZM112.433 53.9138C118.155 52.9631 124.54 53.0629 130.631 56.5125C133.287 58.0163 135.116 60.2909 136.302 62.5809C137.297 64.5004 137.832 66.4168 138.023 67.8715C133.268 63.9105 130.357 61.9576 125.234 59.3933C125.078 59.3152 124.888 59.3703 124.799 59.5197C124.709 59.6692 124.749 59.8628 124.891 59.964C130.302 63.8228 132.858 66.2195 136.454 70.5921C132.034 71.9682 127.175 70.0344 121.834 66.9959C119.144 65.4652 116.994 62.9168 115.399 60.3292C113.919 57.9293 112.93 55.5197 112.433 53.9138Z" fill="#4048F5"/>
<path fill-rule="evenodd" clip-rule="evenodd" d="M142.742 50.4473C142.926 50.4473 143.076 50.5968 143.076 50.7814V78.1764C143.076 78.3609 142.926 78.5105 142.742 78.5105C142.557 78.5105 142.407 78.3609 142.407 78.1764V50.7814C142.407 50.5968 142.557 50.4473 142.742 50.4473Z" fill="#4048F5"/>
<path fill-rule="evenodd" clip-rule="evenodd" d="M142.742 50.1129C156.395 50.1129 167.464 39.0443 167.464 25.3905C167.464 11.7367 156.395 0.668172 142.742 0.668172C129.088 0.668172 118.019 11.7367 118.019 25.3905C118.019 39.0443 129.088 50.1129 142.742 50.1129ZM142.742 50.781C156.764 50.781 168.132 39.4133 168.132 25.3905C168.132 11.3677 156.764 0 142.742 0C128.719 0 117.351 11.3677 117.351 25.3905C117.351 39.4133 128.719 50.781 142.742 50.781Z" fill="#4048F5"/>
<path fill-rule="evenodd" clip-rule="evenodd" d="M143.076 48.1085C155.438 48.1085 165.459 38.087 165.459 25.7248C165.459 13.3626 155.438 3.34102 143.076 3.34102C130.713 3.34102 120.692 13.3626 120.692 25.7248C120.692 38.087 130.713 48.1085 143.076 48.1085ZM143.076 48.7767C155.807 48.7767 166.128 38.456 166.128 25.7248C166.128 12.9935 155.807 2.67285 143.076 2.67285C130.344 2.67285 120.024 12.9935 120.024 25.7248C120.024 38.456 130.344 48.7767 143.076 48.7767Z" fill="#4048F5"/>
<path fill-rule="evenodd" clip-rule="evenodd" d="M150.425 13.0293L150.426 13.3634L150.425 13.6975H139.401C137.577 13.6975 136.297 14.406 135.465 15.4508C134.625 16.5059 134.222 17.9303 134.222 19.377C134.222 20.8238 134.625 22.2588 135.354 23.3224C136.079 24.3804 137.112 25.0564 138.398 25.0564H146.082C147.857 25.0564 149.148 25.7944 149.969 26.9157C150.782 28.0249 151.117 29.4834 151.052 30.918C150.986 32.3534 150.519 33.7997 149.684 34.8953C148.843 35.9971 147.624 36.7494 146.082 36.7494H134.39C134.39 36.7494 134.389 36.7494 134.389 36.4153C134.389 36.0812 134.389 36.0812 134.389 36.0812H146.082C147.381 36.0812 148.416 35.4554 149.152 34.4901C149.893 33.5185 150.324 32.2086 150.384 30.8877C150.444 29.5661 150.132 28.2684 149.43 27.3105C148.738 26.3646 147.649 25.7245 146.082 25.7246H138.398C136.845 25.7246 135.623 24.8972 134.803 23.7001C133.986 22.5086 133.554 20.9368 133.554 19.377C133.554 17.8169 133.987 16.2345 134.942 15.0345C135.906 13.8242 137.382 13.0293 139.401 13.0293H150.425ZM134.389 36.4153L134.389 36.0812C134.205 36.0812 134.055 36.2308 134.055 36.4153C134.055 36.5998 134.206 36.7494 134.39 36.7494L134.389 36.4153ZM150.76 13.3634C150.76 13.5479 150.61 13.6975 150.425 13.6975L150.426 13.3634L150.425 13.0293C150.61 13.0293 150.76 13.1789 150.76 13.3634Z" fill="#4048F5"/>
<path fill-rule="evenodd" clip-rule="evenodd" d="M142.408 6.01367C142.592 6.01367 142.742 6.16325 142.742 6.34776V13.0295C142.742 13.214 142.592 13.3636 142.408 13.3636C142.223 13.3636 142.073 13.214 142.073 13.0295V6.34776C142.073 6.16325 142.223 6.01367 142.408 6.01367ZM142.408 36.0814C142.592 36.0814 142.742 36.231 142.742 36.4155V44.0995C142.742 44.284 142.592 44.4335 142.408 44.4335C142.223 44.4335 142.073 44.284 142.073 44.0995V36.4155C142.073 36.231 142.223 36.0814 142.408 36.0814Z" fill="#4048F5"/>
</svg>
