<svg width="196" height="196" viewBox="0 0 196 196" fill="none" xmlns="http://www.w3.org/2000/svg">
<path fill-rule="evenodd" clip-rule="evenodd" d="M138.411 78.9425C138.487 79.0142 138.529 79.1147 138.526 79.219C138.464 81.8308 137.924 86.157 136.511 90.6858C135.098 95.2118 132.801 99.9745 129.202 103.424C122.133 110.198 115.095 115.331 107.175 114.577C107.056 114.566 106.95 114.497 106.891 114.393C106.831 114.29 106.826 114.163 106.876 114.055C110.126 107.069 112.703 102.682 117.468 96.715C112.707 101.148 109.427 105.093 104.562 111.847C104.477 111.965 104.329 112.022 104.187 111.992C104.044 111.962 103.932 111.85 103.902 111.707C103.399 109.318 103.311 105.59 104.229 101.617C105.147 97.6408 107.08 93.395 110.64 89.9964C118.83 82.1784 128.873 79.5834 138.128 78.843C138.232 78.8347 138.335 78.8708 138.411 78.9425ZM137.776 79.6115C128.727 80.3884 119.05 82.9879 111.149 90.5294C107.716 93.8062 105.841 97.9113 104.947 101.783C104.155 105.21 104.136 108.436 104.473 110.711C110.202 102.812 113.819 98.7739 120.602 92.9311C120.747 92.8055 120.965 92.8133 121.102 92.9488C121.238 93.0844 121.247 93.3022 121.123 93.4488C114.427 101.327 111.52 105.886 107.769 113.884C115.115 114.335 121.778 109.517 128.692 102.892C132.167 99.5618 134.414 94.9296 135.807 90.4662C137.128 86.2371 137.672 82.1901 137.776 79.6115Z" fill="white"/>
<path fill-rule="evenodd" clip-rule="evenodd" d="M69.0097 91.101C68.934 91.1727 68.8923 91.2732 68.8948 91.3774C68.9551 93.8493 69.4776 97.942 70.8466 102.226C72.2148 106.508 74.4393 111.014 77.9255 114.278C84.7688 120.684 91.582 125.538 99.2489 124.825C99.3687 124.814 99.4756 124.745 99.535 124.64C99.5945 124.536 99.5991 124.409 99.5474 124.3C96.4331 117.76 93.9571 113.629 89.4339 108.074C93.9588 112.208 97.1145 115.924 101.771 122.239C101.857 122.355 102.003 122.411 102.145 122.38C102.286 122.35 102.397 122.239 102.427 122.098C103.397 117.601 102.792 107.974 95.9004 101.548C87.9707 94.1544 78.2489 91.7011 69.2919 91.0011C69.1879 90.993 69.0854 91.0293 69.0097 91.101ZM69.6452 91.769C78.3993 92.5049 87.758 94.9636 95.3979 102.087C101.647 107.914 102.547 116.513 101.857 121.116C96.3202 113.66 92.819 109.843 86.259 104.322C86.1118 104.199 85.894 104.209 85.7591 104.346C85.6242 104.483 85.6175 104.701 85.7438 104.846C92.214 112.284 95.0284 116.59 98.6501 124.132C91.5514 124.546 85.1119 119.996 78.4291 113.74C75.0693 110.595 72.8961 106.219 71.5485 102.002C70.2754 98.0179 69.7486 94.2054 69.6452 91.769Z" fill="white"/>
<path fill-rule="evenodd" clip-rule="evenodd" d="M82.2729 76.3637C82.1972 76.4354 82.1555 76.5359 82.158 76.6401C82.1958 78.1909 82.523 80.7506 83.379 83.4294C84.2343 86.1057 85.6281 88.9344 87.8211 90.9875C92.0782 94.9727 96.359 98.0373 101.197 97.5872C101.317 97.5761 101.424 97.5071 101.483 97.4024C101.543 97.2978 101.547 97.1707 101.496 97.062C99.8455 93.597 98.4813 91.2142 96.379 88.4517C98.4994 90.5436 100.251 92.6809 102.641 95.9219C102.727 96.0385 102.874 96.0939 103.015 96.0635C103.157 96.0331 103.267 95.9225 103.298 95.7809C103.908 92.951 103.53 86.9049 99.1955 82.8635C94.2293 78.2329 88.1445 76.7006 82.555 76.2638C82.4511 76.2557 82.3486 76.292 82.2729 76.3637ZM82.9107 77.0327C88.2951 77.5054 94.0168 79.0422 98.693 83.4024C102.391 86.8508 103.047 91.8839 102.714 94.7828C99.3803 90.3157 97.201 87.9591 93.1911 84.5849C93.0439 84.4611 92.8262 84.4713 92.6913 84.6085C92.5564 84.7456 92.5497 84.9635 92.676 85.1086C96.6396 89.6648 98.3906 92.3242 100.595 96.888C96.3242 97.0429 92.4174 94.2809 88.3247 90.4496C86.258 88.5148 84.9155 85.8169 84.0809 83.2051C83.3198 80.8232 82.9899 78.5408 82.9107 77.0327Z" fill="white"/>
<path fill-rule="evenodd" clip-rule="evenodd" d="M98 195.263C151.717 195.263 195.263 151.717 195.263 98C195.263 44.283 151.717 0.736842 98 0.736842C44.283 0.736842 0.736842 44.283 0.736842 98C0.736842 151.717 44.283 195.263 98 195.263ZM98 196C152.124 196 196 152.124 196 98C196 43.8761 152.124 0 98 0C43.8761 0 0 43.8761 0 98C0 152.124 43.8761 196 98 196Z" fill="white"/>
<path fill-rule="evenodd" clip-rule="evenodd" d="M98.3684 189.369C148.626 189.369 189.368 148.627 189.368 98.3687C189.368 48.1108 148.626 7.36868 98.3684 7.36868C48.1105 7.36868 7.36843 48.1108 7.36843 98.3687C7.36843 148.627 48.1105 189.369 98.3684 189.369ZM98.3684 190.105C149.033 190.105 190.105 149.034 190.105 98.3687C190.105 47.7038 149.033 6.63184 98.3684 6.63184C47.7036 6.63184 6.63159 47.7038 6.63159 98.3687C6.63159 149.034 47.7036 190.105 98.3684 190.105Z" fill="white"/>
<path fill-rule="evenodd" clip-rule="evenodd" d="M98.3684 165.052C133.976 165.052 162.842 136.187 162.842 100.579C162.842 64.9708 133.976 36.105 98.3684 36.105C62.7606 36.105 33.8947 64.9708 33.8947 100.579C33.8947 136.187 62.7606 165.052 98.3684 165.052ZM98.3684 165.789C134.383 165.789 163.579 136.593 163.579 100.579C163.579 64.5639 134.383 35.3682 98.3684 35.3682C62.3536 35.3682 33.1579 64.5639 33.1579 100.579C33.1579 136.593 62.3536 165.789 98.3684 165.789Z" fill="white"/>
<path fill-rule="evenodd" clip-rule="evenodd" d="M149.191 60.3037C149.256 60.4966 149.152 60.7055 148.96 60.7704C147.777 61.1686 146.597 61.5543 145.42 61.9272C145.226 61.9887 145.019 61.8813 144.958 61.6873C144.896 61.4934 145.003 61.2863 145.197 61.2248C146.37 60.8532 147.546 60.4689 148.725 60.0721C148.917 60.0072 149.126 60.1109 149.191 60.3037ZM46.4398 60.9952C46.5053 60.8026 46.7146 60.6995 46.9072 60.765C48.0849 61.1654 49.2596 61.5514 50.4316 61.923C50.6256 61.9845 50.7329 62.1916 50.6714 62.3856C50.6099 62.5795 50.4029 62.6869 50.2089 62.6254C49.032 62.2522 47.8524 61.8647 46.67 61.4627C46.4774 61.3972 46.3743 61.1879 46.4398 60.9952ZM138.537 63.5909C138.591 63.7871 138.476 63.9899 138.28 64.044C135.863 64.7101 133.458 65.3213 131.062 65.8771C130.864 65.9231 130.666 65.7997 130.62 65.6014C130.574 65.4032 130.697 65.2053 130.895 65.1593C133.281 64.6058 135.677 63.9971 138.084 63.3337C138.28 63.2796 138.483 63.3948 138.537 63.5909ZM57.0969 64.2719C57.1499 64.0755 57.3522 63.9592 57.5486 64.0122C59.9581 64.6623 62.3577 65.2511 64.7495 65.7791C64.9481 65.823 65.0737 66.0196 65.0298 66.2183C64.9859 66.417 64.7893 66.5425 64.5906 66.4987C62.1876 65.9681 59.7769 65.3766 57.3567 64.7236C57.1602 64.6706 57.0439 64.4684 57.0969 64.2719ZM124.068 66.9718C124.105 67.1719 123.973 67.3642 123.773 67.4014C121.315 67.8586 118.866 68.2561 116.422 68.5935C116.22 68.6213 116.034 68.4805 116.006 68.2789C115.979 68.0773 116.119 67.8914 116.321 67.8636C118.753 67.5278 121.192 67.1321 123.638 66.677C123.838 66.6398 124.031 66.7718 124.068 66.9718ZM71.5983 67.5035C71.6325 67.3029 71.8228 67.168 72.0234 67.2022C74.4744 67.6197 76.9191 67.9732 79.3595 68.2633C79.5616 68.2873 79.7059 68.4706 79.6819 68.6726C79.6579 68.8747 79.4746 69.019 79.2725 68.995C76.8197 68.7034 74.3628 68.3481 71.8997 67.9285C71.6991 67.8944 71.5642 67.7041 71.5983 67.5035ZM109.353 69.0329C109.371 69.2355 109.222 69.4144 109.019 69.4323C106.537 69.6515 104.06 69.8077 101.584 69.9002C101.381 69.9078 101.21 69.7491 101.202 69.5458C101.195 69.3425 101.353 69.1715 101.557 69.1639C104.02 69.0719 106.485 68.9165 108.954 68.6983C109.157 68.6804 109.335 68.8302 109.353 69.0329ZM86.348 69.2913C86.3616 69.0883 86.5371 68.9347 86.7402 68.9483C89.2101 69.1131 91.6778 69.2132 94.1454 69.2489C94.3489 69.2519 94.5114 69.4192 94.5085 69.6227C94.5055 69.8261 94.3382 69.9887 94.1348 69.9857C91.6543 69.9497 89.1738 69.8492 86.6911 69.6835C86.4881 69.6699 86.3345 69.4944 86.348 69.2913ZM159.875 78.6805C159.94 78.8734 159.837 79.0823 159.644 79.1472C158.154 79.6487 156.635 80.1289 155.088 80.5878C154.893 80.6457 154.688 80.5345 154.63 80.3394C154.572 80.1443 154.683 79.9393 154.878 79.8814C156.417 79.4249 157.928 78.9474 159.409 78.4489C159.602 78.384 159.811 78.4877 159.875 78.6805ZM37.5977 78.6795C37.6632 78.4868 37.8725 78.3837 38.0651 78.4492C39.128 78.8106 40.207 79.161 41.3011 79.5002C41.4955 79.5605 41.6042 79.7669 41.5439 79.9612C41.4837 80.1556 41.2773 80.2643 41.0829 80.204C39.9826 79.8628 38.8973 79.5104 37.8279 79.1469C37.6353 79.0814 37.5322 78.8721 37.5977 78.6795ZM47.4021 81.6193C47.4529 81.4223 47.6538 81.3037 47.8508 81.3545C50.0158 81.9125 52.2278 82.4311 54.4802 82.9105C54.6792 82.9528 54.8062 83.1485 54.7638 83.3475C54.7215 83.5465 54.5258 83.6735 54.3268 83.6312C52.0646 83.1498 49.8425 82.6287 47.6669 82.068C47.4699 82.0172 47.3513 81.8163 47.4021 81.6193ZM146.124 82.5655C146.169 82.7638 146.045 82.9615 145.847 83.007C144.309 83.3598 142.752 83.6939 141.178 84.0094C140.978 84.0494 140.784 83.9201 140.744 83.7206C140.704 83.5211 140.833 83.3269 141.033 83.2869C142.601 82.9727 144.151 82.64 145.682 82.2888C145.88 82.2433 146.078 82.3672 146.124 82.5655ZM60.7427 84.499C60.7774 84.2985 60.9681 84.1641 61.1686 84.1988C62.2815 84.3916 63.4023 84.5754 64.5301 84.7501C64.7311 84.7813 64.8689 84.9695 64.8377 85.1706C64.8066 85.3717 64.6183 85.5094 64.4173 85.4783C63.2852 85.3029 62.1601 85.1184 61.0428 84.9249C60.8423 84.8901 60.7079 84.6994 60.7427 84.499ZM33.4268 101.753C33.4268 101.549 33.5918 101.384 33.7952 101.384H37.8332C38.0367 101.384 38.2016 101.549 38.2016 101.753C38.2016 101.956 38.0367 102.121 37.8332 102.121H33.7952C33.5918 102.121 33.4268 101.956 33.4268 101.753ZM45.5408 101.753C45.5408 101.549 45.7057 101.384 45.9092 101.384H53.9851C54.1886 101.384 54.3536 101.549 54.3536 101.753C54.3536 101.956 54.1886 102.121 53.9851 102.121H45.9092C45.7057 102.121 45.5408 101.956 45.5408 101.753ZM61.6927 101.753C61.6927 101.549 61.8576 101.384 62.0611 101.384H66.0991C66.3026 101.384 66.4675 101.549 66.4675 101.753C66.4675 101.956 66.3026 102.121 66.0991 102.121H62.0611C61.8576 102.121 61.6927 101.956 61.6927 101.753ZM135.579 101.753C135.579 101.549 135.744 101.384 135.947 101.384H138.675C138.879 101.384 139.044 101.549 139.044 101.753C139.044 101.956 138.879 102.121 138.675 102.121H135.947C135.744 102.121 135.579 101.956 135.579 101.753ZM143.762 101.753C143.762 101.549 143.927 101.384 144.131 101.384H150.897C151.1 101.384 151.265 101.549 151.265 101.753C151.265 101.956 151.1 102.121 150.897 102.121H144.131C143.927 102.121 143.762 101.956 143.762 101.753ZM158.604 101.753C158.604 101.549 158.769 101.384 158.973 101.384H163.011C163.214 101.384 163.379 101.549 163.379 101.753C163.379 101.956 163.214 102.121 163.011 102.121H158.973C158.769 102.121 158.604 101.956 158.604 101.753ZM71.1004 117.912C71.1332 118.113 70.997 118.302 70.7962 118.335C69.4777 118.55 68.166 118.78 66.862 119.025C66.662 119.062 66.4695 118.93 66.432 118.73C66.3945 118.53 66.5262 118.338 66.7262 118.3C68.0359 118.055 69.3534 117.824 70.6774 117.608C70.8783 117.575 71.0676 117.711 71.1004 117.912ZM131.95 117.912C131.983 117.711 132.172 117.575 132.373 117.608C133.489 117.789 134.598 117.98 135.7 118.18C135.901 118.217 136.033 118.409 135.997 118.609C135.96 118.809 135.768 118.942 135.568 118.905C134.471 118.705 133.366 118.515 132.255 118.335C132.054 118.302 131.918 118.113 131.95 117.912ZM141.878 119.804C141.923 119.605 142.12 119.481 142.319 119.525C144.543 120.026 146.73 120.568 148.874 121.152C149.071 121.206 149.186 121.408 149.133 121.605C149.079 121.801 148.877 121.917 148.68 121.863C146.547 121.282 144.371 120.742 142.157 120.244C141.958 120.2 141.834 120.002 141.878 119.804ZM59.3231 120.245C59.3705 120.443 59.2486 120.642 59.0507 120.689C56.4354 121.316 53.8619 122.006 51.3392 122.759C51.1442 122.817 50.9389 122.707 50.8807 122.512C50.8225 122.317 50.9333 122.111 51.1283 122.053C53.6645 121.296 56.251 120.602 58.8789 119.973C59.0768 119.925 59.2756 120.047 59.3231 120.245ZM154.883 123.323C154.946 123.129 155.154 123.024 155.347 123.087C156.427 123.44 157.493 123.804 158.545 124.18C158.737 124.248 158.836 124.459 158.768 124.65C158.7 124.842 158.489 124.942 158.297 124.873C157.252 124.5 156.192 124.138 155.119 123.787C154.925 123.724 154.82 123.516 154.883 123.323ZM43.9825 124.8C44.0526 124.991 43.9546 125.203 43.7636 125.273C42.5061 125.734 41.265 126.213 40.0415 126.71C39.8529 126.787 39.638 126.696 39.5615 126.507C39.485 126.319 39.5758 126.104 39.7643 126.027C40.9957 125.527 42.2446 125.045 43.5097 124.581C43.7007 124.511 43.9124 124.609 43.9825 124.8ZM95.0564 131.795C95.0602 131.999 94.8984 132.167 94.695 132.171C92.2951 132.215 89.8902 132.335 87.4764 132.531C87.2736 132.548 87.0958 132.397 87.0793 132.194C87.0627 131.991 87.2138 131.813 87.4166 131.797C89.8458 131.599 92.2661 131.479 94.6812 131.434C94.8847 131.43 95.0527 131.592 95.0564 131.795ZM101.57 131.876C101.579 131.672 101.751 131.515 101.954 131.523C104.372 131.627 106.788 131.804 109.207 132.052C109.409 132.072 109.556 132.253 109.536 132.456C109.515 132.658 109.334 132.805 109.132 132.785C106.727 132.539 104.325 132.363 101.922 132.26C101.719 132.251 101.561 132.079 101.57 131.876ZM80.6051 132.925C80.6342 133.127 80.4945 133.313 80.2932 133.343C77.934 133.683 75.5628 134.099 73.1758 134.592C72.9765 134.633 72.7816 134.505 72.7405 134.305C72.6993 134.106 72.8275 133.911 73.0268 133.87C75.4281 133.374 77.8139 132.956 80.1878 132.613C80.3892 132.584 80.5761 132.724 80.6051 132.925ZM115.996 133.299C116.028 133.098 116.216 132.961 116.417 132.993C118.793 133.369 121.175 133.81 123.566 134.313C123.765 134.355 123.893 134.551 123.851 134.75C123.809 134.949 123.613 135.076 123.414 135.034C121.035 134.533 118.665 134.095 116.302 133.721C116.101 133.689 115.964 133.5 115.996 133.299ZM66.4015 135.807C66.4539 136.003 66.3371 136.205 66.1405 136.258C63.8466 136.87 61.5355 137.553 59.2042 138.31C59.0106 138.373 58.8028 138.267 58.74 138.073C58.6771 137.88 58.7831 137.672 58.9766 137.609C61.3201 136.848 63.6438 136.161 65.9505 135.546C66.1471 135.493 66.349 135.61 66.4015 135.807ZM130.192 136.238C130.242 136.041 130.443 135.923 130.64 135.974C132.959 136.572 135.291 137.227 137.638 137.934C137.833 137.992 137.943 138.198 137.884 138.393C137.826 138.588 137.62 138.698 137.425 138.639C135.087 137.935 132.765 137.283 130.456 136.687C130.259 136.636 130.141 136.435 130.192 136.238ZM52.593 140.24C52.6652 140.43 52.5695 140.643 52.3793 140.715C51.2619 141.139 50.1393 141.58 49.0112 142.038C48.8227 142.115 48.6078 142.024 48.5313 141.835C48.4548 141.647 48.5455 141.432 48.7341 141.355C49.8672 140.895 50.995 140.452 52.1178 140.026C52.308 139.954 52.5208 140.049 52.593 140.24ZM144.09 140.384C144.156 140.192 144.365 140.089 144.557 140.154C145.697 140.541 146.84 140.94 147.988 141.35C148.18 141.418 148.28 141.629 148.211 141.821C148.143 142.012 147.932 142.112 147.741 142.044C146.596 141.635 145.456 141.237 144.32 140.852C144.128 140.786 144.025 140.577 144.09 140.384Z" fill="white"/>
<path fill-rule="evenodd" clip-rule="evenodd" d="M96.8947 36.4741C95.6534 36.4741 94.4278 36.6026 93.2211 36.853C93.0218 36.8944 92.8268 36.7664 92.7855 36.5671C92.7441 36.3679 92.8721 36.1729 93.0713 36.1315C94.3265 35.8711 95.6023 35.7373 96.8947 35.7373C98.1872 35.7373 99.4629 35.8711 100.718 36.1315C100.917 36.1729 101.045 36.3679 101.004 36.5671C100.963 36.7664 100.768 36.8944 100.568 36.853C99.3616 36.6026 98.136 36.4741 96.8947 36.4741ZM107.274 39.1555C107.382 38.9831 107.61 38.9308 107.782 39.0388C109.834 40.3235 111.795 41.9594 113.647 43.9056C113.788 44.053 113.782 44.2862 113.634 44.4265C113.487 44.5667 113.254 44.561 113.114 44.4136C111.298 42.5058 109.383 40.9109 107.391 39.6633C107.219 39.5553 107.167 39.328 107.274 39.1555ZM86.5149 39.1555C86.6229 39.328 86.5707 39.5553 86.3982 39.6633C84.406 40.9109 82.4917 42.5058 80.6759 44.4136C80.5356 44.561 80.3024 44.5667 80.1551 44.4265C80.0077 44.2862 80.0019 44.053 80.1422 43.9056C81.9944 41.9594 83.9558 40.3235 86.0072 39.0388C86.1796 38.9308 86.4069 38.9831 86.5149 39.1555ZM75.938 49.7699C76.1075 49.8825 76.1537 50.1112 76.0411 50.2807C74.7186 52.2715 73.4756 54.4479 72.3231 56.7899C72.2333 56.9725 72.0124 57.0476 71.8299 56.9578C71.6473 56.8679 71.5721 56.6471 71.662 56.4645C72.8272 54.0967 74.0858 51.8925 75.4273 49.873C75.5399 49.7035 75.7686 49.6573 75.938 49.7699ZM117.851 49.7699C118.021 49.6573 118.25 49.7035 118.362 49.873C119.704 51.8925 120.962 54.0967 122.127 56.4645C122.217 56.6471 122.142 56.8679 121.96 56.9578C121.777 57.0476 121.556 56.9724 121.466 56.7899C120.314 54.4479 119.071 52.2715 117.748 50.2807C117.636 50.1112 117.682 49.8825 117.851 49.7699ZM69.1499 63.2215C69.3407 63.2923 69.438 63.5043 69.3673 63.695C68.9384 64.8518 68.5291 66.0369 68.1403 67.2484L67.4387 67.0233C67.8307 65.8016 68.2436 64.6062 68.6764 63.4389C68.7471 63.2481 68.9591 63.1508 69.1499 63.2215ZM124.64 63.2215C124.83 63.1508 125.042 63.2481 125.113 63.4389C125.546 64.6062 125.959 65.8016 126.351 67.0233L125.649 67.2484C125.26 66.0369 124.851 64.8518 124.422 63.695C124.351 63.5043 124.449 63.2923 124.64 63.2215ZM68.6524 139.193C68.2284 138.058 67.8235 136.891 67.4387 135.692L68.1403 135.467C68.5216 136.655 68.9227 137.812 69.3427 138.935C69.4139 139.126 69.3171 139.338 69.1265 139.409C68.9359 139.481 68.7237 139.384 68.6524 139.193ZM128.193 135.692C127.797 136.926 127.371 138.127 126.919 139.293C126.845 139.483 126.632 139.577 126.442 139.503C126.252 139.429 126.158 139.216 126.232 139.026C126.679 137.874 127.1 136.687 127.491 135.467L128.193 135.692ZM71.7773 145.497C71.9589 145.405 72.1805 145.478 72.2724 145.659C73.4302 147.947 74.6799 150.047 76.01 151.948C76.1266 152.115 76.086 152.345 75.9193 152.461C75.7526 152.578 75.5229 152.537 75.4062 152.371C74.0544 150.438 72.7871 148.308 71.6149 145.992C71.523 145.81 71.5957 145.589 71.7773 145.497ZM123.554 145.72C123.732 145.818 123.797 146.042 123.699 146.22C122.418 148.547 121.015 150.684 119.515 152.617C119.391 152.778 119.159 152.807 118.998 152.682C118.838 152.558 118.808 152.326 118.933 152.165C120.408 150.264 121.79 148.16 123.053 145.865C123.151 145.687 123.375 145.622 123.554 145.72ZM80.1927 157.533C80.3344 157.387 80.5676 157.383 80.7137 157.525C82.5505 159.306 84.4886 160.769 86.5069 161.898C86.6845 161.997 86.7479 162.222 86.6485 162.399C86.5492 162.577 86.3247 162.64 86.1471 162.541C84.0675 161.378 82.0786 159.874 80.2008 158.054C80.0547 157.912 80.0511 157.679 80.1927 157.533ZM114.324 157.687C114.458 157.84 114.443 158.073 114.29 158.207C112.279 159.973 110.164 161.434 107.988 162.567C107.808 162.661 107.585 162.591 107.491 162.411C107.397 162.231 107.467 162.008 107.647 161.914C109.767 160.81 111.833 159.384 113.804 157.653C113.957 157.519 114.19 157.534 114.324 157.687ZM101.034 164.653C101.07 164.853 100.936 165.044 100.736 165.08C99.4578 165.306 98.1749 165.422 96.8947 165.422C95.6333 165.422 94.3875 165.31 93.1608 165.09C92.9605 165.054 92.8273 164.862 92.8633 164.662C92.8992 164.462 93.0907 164.328 93.291 164.364C94.4748 164.577 95.677 164.685 96.8947 164.685C98.1307 164.685 99.3705 164.574 100.607 164.354C100.807 164.319 100.998 164.452 101.034 164.653Z" fill="white"/>
<path fill-rule="evenodd" clip-rule="evenodd" d="M99.4737 36.4741C98.3549 36.4741 97.2451 36.513 96.1454 36.5905C95.9424 36.6048 95.7663 36.4519 95.752 36.2489C95.7377 36.0459 95.8906 35.8698 96.0936 35.8555C97.2107 35.7768 98.3378 35.7373 99.4737 35.7373C100.933 35.7373 102.365 35.7902 103.771 35.8977C103.974 35.9132 104.126 36.0902 104.11 36.2931C104.095 36.496 103.918 36.6479 103.715 36.6324C102.329 36.5264 100.915 36.4741 99.4737 36.4741ZM89.8407 37.1035C89.8848 37.3021 89.7595 37.4989 89.5609 37.543C87.3835 38.0264 85.2596 38.6726 83.1997 39.4796C83.0102 39.5538 82.7965 39.4604 82.7222 39.2709C82.648 39.0814 82.7414 38.8677 82.9309 38.7935C85.0267 37.9725 87.1871 37.3152 89.4012 36.8237C89.5998 36.7796 89.7966 36.9049 89.8407 37.1035ZM111.799 37.5686C111.851 37.372 112.053 37.255 112.25 37.3073C115.065 38.0565 117.744 39.0816 120.28 40.3985C120.46 40.4923 120.531 40.7147 120.437 40.8952C120.343 41.0758 120.121 41.1462 119.94 41.0524C117.454 39.7614 114.826 38.7554 112.06 38.0194C111.864 37.967 111.747 37.7652 111.799 37.5686ZM77.3503 41.8785C77.4532 42.054 77.3943 42.2797 77.2188 42.3826C75.3234 43.4939 73.5 44.7599 71.7587 46.1786C71.601 46.3071 71.3689 46.2834 71.2404 46.1257C71.1119 45.9679 71.1355 45.7358 71.2933 45.6073C73.0635 44.165 74.9179 42.8775 76.8461 41.747C77.0216 41.6441 77.2474 41.703 77.3503 41.8785ZM126.895 45.2512C127.027 45.0964 127.259 45.0779 127.414 45.2099C129.527 47.0118 131.505 49.0851 133.342 51.4417C133.467 51.6022 133.439 51.8337 133.278 51.9588C133.118 52.0839 132.886 52.0553 132.761 51.8948C130.953 49.5753 129.009 47.5385 126.936 45.7706C126.781 45.6386 126.762 45.406 126.895 45.2512ZM66.8998 50.2276C67.0497 50.3651 67.0598 50.5981 66.9223 50.7481C65.4533 52.35 64.0644 54.0839 62.7642 55.9486C62.6478 56.1155 62.4181 56.1565 62.2512 56.0401C62.0843 55.9237 62.0434 55.6941 62.1597 55.5272C63.4783 53.6363 64.8875 51.8767 66.3792 50.2501C66.5167 50.1001 66.7498 50.09 66.8998 50.2276ZM137.534 58.4908C137.712 58.3932 137.936 58.4589 138.034 58.6374C138.704 59.8639 139.348 61.1435 139.966 62.4772L139.297 62.7869C138.686 61.4673 138.049 60.2023 137.387 58.9908C137.29 58.8122 137.355 58.5884 137.534 58.4908ZM59.1407 61.1407C59.3204 61.2363 59.3885 61.4594 59.293 61.639C58.7774 62.6085 58.2821 63.6052 57.808 64.629L57.1393 64.3193C57.6191 63.2834 58.1204 62.2746 58.6424 61.293C58.738 61.1134 58.9611 61.0452 59.1407 61.1407ZM58.6302 140.938C58.1125 139.97 57.6153 138.973 57.1393 137.945L57.808 137.635C58.2781 138.65 58.7691 139.636 59.28 140.591C59.3759 140.77 59.3083 140.994 59.1288 141.09C58.9494 141.186 58.7262 141.118 58.6302 140.938ZM139.966 139.418C139.351 140.745 138.711 142.015 138.044 143.229C137.946 143.407 137.722 143.473 137.544 143.375C137.365 143.277 137.3 143.053 137.398 142.874C138.056 141.676 138.689 140.421 139.297 139.109L139.966 139.418ZM62.2282 146.112C62.3941 145.994 62.6241 146.033 62.7419 146.199C64.0476 148.036 65.4429 149.731 66.919 151.286C67.0591 151.434 67.0531 151.667 66.9055 151.807C66.758 151.947 66.5248 151.941 66.3847 151.793C64.884 150.213 63.4667 148.491 62.1413 146.626C62.0234 146.46 62.0623 146.23 62.2282 146.112ZM133.29 149.832C133.449 149.959 133.476 150.19 133.35 150.35C131.501 152.678 129.51 154.709 127.383 156.46C127.226 156.589 126.994 156.567 126.864 156.409C126.735 156.252 126.757 156.02 126.915 155.891C129 154.174 130.954 152.182 132.772 149.892C132.899 149.732 133.131 149.706 133.29 149.832ZM71.2799 155.765C71.4044 155.604 71.6358 155.575 71.7967 155.699C73.5512 157.056 75.3891 158.254 77.3002 159.298C77.4788 159.395 77.5445 159.619 77.447 159.798C77.3495 159.976 77.1256 160.042 76.947 159.944C75.002 158.882 73.1315 157.662 71.3461 156.282C71.1851 156.158 71.1555 155.926 71.2799 155.765ZM120.372 160.597C120.461 160.78 120.386 161 120.203 161.09C117.665 162.336 114.985 163.294 112.169 163.989C111.971 164.037 111.772 163.917 111.723 163.719C111.674 163.522 111.795 163.322 111.993 163.273C114.761 162.591 117.391 161.65 119.878 160.429C120.061 160.339 120.282 160.414 120.372 160.597ZM82.8304 162.21C82.899 162.019 83.11 161.919 83.3015 161.988C85.3559 162.723 87.4739 163.307 89.6452 163.74C89.8447 163.779 89.9742 163.973 89.9344 164.173C89.8946 164.373 89.7006 164.502 89.5011 164.462C87.2954 164.022 85.1425 163.43 83.053 162.681C82.8615 162.613 82.7618 162.402 82.8304 162.21ZM104.08 164.884C104.094 165.087 103.941 165.263 103.738 165.277C102.343 165.374 100.921 165.422 99.4737 165.422C98.3509 165.422 97.2367 165.387 96.1322 165.318C95.9291 165.306 95.7747 165.131 95.7874 164.928C95.8 164.725 95.9749 164.57 96.178 164.583C97.2669 164.651 98.3659 164.685 99.4737 164.685C100.905 164.685 102.31 164.638 103.687 164.542C103.89 164.528 104.066 164.681 104.08 164.884Z" fill="white"/>
<path fill-rule="evenodd" clip-rule="evenodd" d="M98 36.4741C97.1048 36.4741 96.2106 36.7857 95.3183 37.4051C95.1511 37.5211 94.9216 37.4796 94.8055 37.3125C94.6895 37.1453 94.731 36.9158 94.8981 36.7998C95.8862 36.1139 96.9242 35.7373 98 35.7373C99.0757 35.7373 100.114 36.1139 101.102 36.7998C101.269 36.9158 101.31 37.1453 101.194 37.3125C101.078 37.4797 100.849 37.5211 100.682 37.4051C99.7893 36.7857 98.8951 36.4741 98 36.4741ZM91.3513 41.5186C91.5277 41.62 91.5885 41.8452 91.4871 42.0216C90.5826 43.5954 89.7153 45.4695 88.8945 47.6023C88.8215 47.7922 88.6083 47.8869 88.4184 47.8139C88.2285 47.7408 88.1338 47.5276 88.2068 47.3377C89.0375 45.1792 89.9203 43.2691 90.8483 41.6545C90.9497 41.4781 91.1749 41.4172 91.3513 41.5186ZM104.649 41.5186C104.825 41.4172 105.05 41.4781 105.152 41.6545C106.08 43.2691 106.962 45.1792 107.793 47.3377C107.866 47.5276 107.771 47.7408 107.582 47.8139C107.392 47.8869 107.178 47.7922 107.105 47.6023C106.285 45.4695 105.417 43.5954 104.513 42.0216C104.411 41.8452 104.472 41.62 104.649 41.5186ZM86.6902 53.0061C86.8856 53.0628 86.998 53.2672 86.9412 53.4626C86.3941 55.3463 85.8779 57.3508 85.3958 59.4577C85.3505 59.6561 85.1529 59.7801 84.9545 59.7347C84.7562 59.6893 84.6322 59.4918 84.6776 59.2934C85.1624 57.1741 85.6822 55.1559 86.2336 53.2571C86.2904 53.0617 86.4948 52.9493 86.6902 53.0061ZM109.31 53.0061C109.505 52.9493 109.71 53.0617 109.766 53.2571C110.318 55.1559 110.838 57.1741 111.322 59.2934C111.368 59.4918 111.244 59.6893 111.045 59.7347C110.847 59.7801 110.649 59.6561 110.604 59.4577C110.122 57.3508 109.606 55.3463 109.059 53.4626C109.002 53.2672 109.114 53.0628 109.31 53.0061ZM83.857 65.1009C84.0572 65.1374 84.1899 65.3292 84.1533 65.5294C83.9705 66.5323 83.7948 67.5516 83.6268 68.5859L82.8995 68.4677C83.0683 67.4289 83.2447 66.4049 83.4285 65.3972C83.465 65.197 83.6568 65.0644 83.857 65.1009ZM112.143 65.1009C112.343 65.0644 112.535 65.197 112.571 65.3972C112.755 66.4049 112.932 67.4289 113.1 68.4677L112.373 68.5859C112.205 67.5516 112.029 66.5323 111.847 65.5294C111.81 65.3292 111.943 65.1374 112.143 65.1009ZM83.4244 136.104C83.2421 135.106 83.067 134.091 82.8995 133.06L83.6268 132.941C83.7936 133.968 83.9678 134.979 84.1492 135.972C84.1858 136.172 84.0532 136.364 83.853 136.401C83.6528 136.437 83.4609 136.305 83.4244 136.104ZM113.1 133.06C112.933 134.091 112.758 135.106 112.576 136.104C112.539 136.305 112.347 136.437 112.147 136.401C111.947 136.364 111.814 136.172 111.851 135.972C112.032 134.979 112.206 133.968 112.373 132.941L113.1 133.06ZM84.943 141.715C85.1413 141.669 85.339 141.793 85.3845 141.991C85.8652 144.083 86.3801 146.069 86.9258 147.933C86.9829 148.128 86.871 148.333 86.6757 148.39C86.4804 148.447 86.2758 148.335 86.2186 148.14C85.6685 146.261 85.15 144.261 84.6664 142.156C84.6208 141.958 84.7447 141.76 84.943 141.715ZM111.057 141.715C111.255 141.76 111.379 141.958 111.334 142.156C110.85 144.261 110.331 146.261 109.781 148.14C109.724 148.335 109.52 148.447 109.324 148.39C109.129 148.333 109.017 148.128 109.074 147.933C109.62 146.069 110.135 144.083 110.615 141.991C110.661 141.793 110.859 141.669 111.057 141.715ZM88.4029 153.526C88.5925 153.452 88.8061 153.546 88.88 153.736C89.7036 155.85 90.5742 157.701 91.4823 159.253C91.5851 159.428 91.526 159.654 91.3504 159.757C91.1748 159.859 90.9491 159.8 90.8464 159.625C89.914 158.032 89.0273 156.143 88.1934 154.003C88.1195 153.814 88.2133 153.6 88.4029 153.526ZM107.597 153.526C107.787 153.6 107.88 153.814 107.807 154.003C106.973 156.143 106.086 158.032 105.154 159.625C105.051 159.8 104.825 159.859 104.65 159.757C104.474 159.654 104.415 159.428 104.518 159.253C105.426 157.701 106.296 155.85 107.12 153.736C107.194 153.546 107.407 153.452 107.597 153.526ZM94.816 163.884C94.9298 163.715 95.1588 163.671 95.3275 163.785C96.2154 164.383 97.1066 164.685 98 164.685C98.8934 164.685 99.7845 164.383 100.672 163.785C100.841 163.671 101.07 163.715 101.184 163.884C101.298 164.053 101.253 164.282 101.084 164.395C100.1 165.059 99.0681 165.422 98 165.422C96.9318 165.422 95.8997 165.059 94.9155 164.395C94.7468 164.282 94.7023 164.053 94.816 163.884Z" fill="white"/>
</svg>
