<svg width="1152" height="538" viewBox="0 0 1152 538" fill="none" xmlns="http://www.w3.org/2000/svg">
<path d="M204.604 270.456C204.604 268.21 203.963 232.015 202.842 213.838L221.583 213.051M233.916 212.715L224.626 213.051M224.626 231.962V247.199M224.626 231.962L261.146 229.396L261.787 253.615M224.626 231.962V213.051M221.583 213.051L222.544 268.21M221.583 213.051H224.626" stroke="#4048F5" stroke-linecap="round" stroke-linejoin="round"/>
<path d="M9.02696 452.986H5.08745C3.39865 452.986 2.47006 454.95 3.54163 456.255L68.1399 534.942C68.6253 535.533 69.4055 535.796 70.1497 535.619L623.021 403.754C624.845 403.319 625.121 400.838 623.438 400.013L620.585 398.613" stroke="#4048F5" stroke-width="4" stroke-linecap="round" stroke-linejoin="round"/>
<path d="M8.86694 453.145L72.949 527.928C73.4343 528.495 74.1946 528.744 74.9211 528.575L263.229 484.742L422.766 447.21L620.585 398.291" stroke="#4048F5" stroke-width="2" stroke-linecap="round" stroke-linejoin="round"/>
<path d="M619.944 398.291L620.102 387.87C620.103 387.786 620.025 387.724 619.944 387.745V387.745M9.48725 443.081L9.18718 453.145M56.4395 427.642L7.6689 436.331C6.14504 436.602 5.49391 438.428 6.50189 439.602L68.9531 512.381C69.4339 512.941 70.1845 513.191 70.9053 513.031L332.105 454.909L561.96 402.14L619.944 387.745M56.4395 429.888L18.4775 437.079C16.9387 437.371 16.3169 439.238 17.3738 440.394L68.7732 496.611L77.9189 506.507C78.4047 507.033 79.1344 507.259 79.8323 507.1L245.449 469.344L292.541 459.881M314.165 456.032L356.452 446.087M383.041 439.992L435.099 428.444M455.602 423.632L578.778 394.281M596.238 391.394L614.502 386.124C614.915 386.005 615.356 386.022 615.759 386.173L619.944 387.745" stroke="#4048F5" stroke-width="2" stroke-linecap="round" stroke-linejoin="round"/>
<path d="M382.401 413.848L405.466 425.762M417.8 432.133L405.466 425.762M405.466 397.007V425.762" stroke="#4048F5" stroke-width="2" stroke-linecap="round" stroke-linejoin="round"/>
<path d="M397.938 397.649V402.3M397.938 421.547V402.3M412.193 395.403C412.193 395.591 412.193 400.984 412.193 407.753M412.193 429.246C412.193 423.541 412.193 414.884 412.193 407.753M412.193 407.753L434.939 420.585M382.24 395.403L397.938 402.3" stroke="#4048F5" stroke-width="2" stroke-linecap="round" stroke-linejoin="round"/>
<path d="M359.175 420.584C359.175 421.739 359.602 439.457 359.816 448.171L356.292 445.926" stroke="#4048F5" stroke-width="2" stroke-linecap="round" stroke-linejoin="round"/>
<path d="M582.462 396.686L580.7 308.311M578.938 394.281L575.575 309.594M596.238 391.233L595.838 377.439M595.838 306.386V377.439M607.45 350.814L608.117 381.246C608.159 383.182 605.632 384.088 604.237 382.746C601.949 380.546 599.543 379.077 595.838 377.439M613.377 386.101V344.559M601.684 354.824L602.485 380.968M575.575 302.216C575.575 300.275 575.575 270 575.575 252.647C575.575 251.25 576.97 250.292 578.278 250.783L580.7 251.692" stroke="#4048F5" stroke-width="2" stroke-linecap="round" stroke-linejoin="round"/>
<path d="M528.162 371.827L578.458 389.951" stroke="#4048F5" stroke-width="2" stroke-linecap="round" stroke-linejoin="round"/>
<path d="M435.26 428.445L432.056 332.691M438.463 430.53L435.74 331.889M455.442 426.52L452.879 329.162" stroke="#4048F5" stroke-width="2" stroke-linecap="round" stroke-linejoin="round"/>
<path d="M74.6997 391.074L79.9856 507.518M102.09 386.583L107.216 500.782M58.8421 389.149L62.5262 489.715M54.5173 386.583L58.8421 485.705" stroke="#4048F5" stroke-width="2" stroke-linecap="round" stroke-linejoin="round"/>
<path d="M106.896 482.016L199.959 463.25" stroke="#4048F5" stroke-width="2" stroke-linecap="round" stroke-linejoin="round"/>
<path d="M200.76 479.61L197.075 371.826M226.228 473.675L225.606 453.947M222.864 367.015L223.157 376.317M225.606 453.947L246.73 469.024M225.606 453.947L224.968 433.738M224.968 433.738L268.995 464.693M224.968 433.738L224.796 428.284M224.796 428.284L224.397 415.613M224.796 428.284L260.185 453.29M274.281 463.25L260.185 453.29M224.397 415.613L258.744 408.877M224.397 415.613L223.815 397.168M223.815 397.168L252.016 392.357M223.815 397.168L223.157 376.317M252.016 392.357L223.157 376.317M252.016 392.357L258.378 395.885M257.302 361.722L258.378 395.885M260.185 453.29L258.378 395.885" stroke="#4048F5" stroke-width="2" stroke-linecap="round" stroke-linejoin="round"/>
<path d="M28.4087 452.02L56.9203 446.086M31.9326 455.549L57.4008 450.417" stroke="#4048F5" stroke-width="2" stroke-linecap="round" stroke-linejoin="round"/>
<path d="M65.0891 492.278L79.1847 489.23" stroke="#4048F5" stroke-width="2" stroke-linecap="round" stroke-linejoin="round"/>
<path d="M263.87 360.599C263.741 361.497 265.952 425.878 267.073 457.957M273.16 358.514L276.203 462.929" stroke="#4048F5" stroke-width="2" stroke-linecap="round" stroke-linejoin="round"/>
<path d="M274.922 405.667L290.605 414.727C291.21 415.077 291.589 415.717 291.604 416.416L292.541 459.879M294.784 411.762L291.436 415.207" stroke="#4048F5" stroke-width="2" stroke-linecap="round" stroke-linejoin="round"/>
<path d="M294.623 411.44L295.668 457.601C295.702 459.126 294.085 460.127 292.736 459.416L292.701 459.398M314.165 426.036V456.029" stroke="#4048F5" stroke-width="2" stroke-linecap="round" stroke-linejoin="round"/>
<path d="M356.452 421.868V446.087" stroke="#4048F5" stroke-width="2" stroke-linecap="round" stroke-linejoin="round"/>
<path d="M381.76 389.309L383.042 439.832" stroke="#4048F5" stroke-width="2" stroke-linecap="round" stroke-linejoin="round"/>
<path d="M35.6165 460.041L57.4006 455.55M44.4262 469.343L57.4006 466.617M50.3528 475.759L58.5218 473.674" stroke="#4048F5" stroke-width="2" stroke-linecap="round" stroke-linejoin="round"/>
<path d="M106.095 473.998L177.214 460.044L174.01 375.357M178.655 375.036L181.859 466.941" stroke="#4048F5" stroke-width="2" stroke-linecap="round" stroke-linejoin="round"/>
<path d="M110.579 386.424L111.946 436.145M171.447 375.838L172.567 407.435M172.567 407.435H175.131M172.567 407.435L173.102 422.672M173.102 422.672L173.209 425.72C171.927 428.714 165.584 435.536 150.464 438.872C135.343 442.208 118.535 440.262 112.021 438.872L111.946 436.145M173.102 422.672H175.131M104.813 437.749L111.946 436.145" stroke="#4048F5" stroke-width="3" stroke-linecap="round" stroke-linejoin="round"/>
<path d="M116.346 439.832V471.75M128.199 440.794V459.72M128.199 469.504V463.409M142.775 440.313V456.833M142.775 466.617V460.362M157.351 437.105V453.626M157.351 464.051V457.956M157.351 457.956L176.893 454.427M157.351 457.956V453.626M157.351 453.626L176.893 449.937M176.573 443.2L167.603 438.709V431.973M142.775 456.833L128.199 459.72M142.775 456.833V460.362M128.199 459.72V463.409M128.199 463.409L142.775 460.362" stroke="#4048F5" stroke-width="2" stroke-linecap="round" stroke-linejoin="round"/>
<path d="M74.219 512.969V528.366" stroke="#4048F5" stroke-width="2" stroke-linecap="round" stroke-linejoin="round"/>
<path d="M329.542 326.755C321.894 328.885 311.156 333.948 302.225 342.436C300.688 343.897 299.232 345.138 297.827 346.804M339.954 324.99C345.715 325.761 353.71 328.112 361.31 332.689C363.031 333.726 364.732 334.877 366.383 336.15M373.11 342.436C374.791 344.349 376.342 346.442 377.715 348.728C381.612 355.214 384.077 363.25 384.002 373.108C383.746 406.854 358.16 423.097 345.4 426.999C328.581 431.276 293.278 429.951 286.614 390.43C284.922 380.394 285.756 371.656 288.222 364.126C289.253 360.976 290.299 358.031 292.061 355.625" stroke="#4048F5" stroke-width="4" stroke-linecap="round" stroke-linejoin="round"/>
<path d="M329.542 326.917C322.174 325.046 307.566 317.134 308.079 300.453C308.719 279.602 324.737 272.063 335.949 272.063C347.162 272.063 360.296 280.725 360.296 299.972C360.296 318.332 346.948 324.512 340.274 325.153" stroke="#4048F5" stroke-width="4" stroke-linecap="round" stroke-linejoin="round"/>
<path d="M49.2317 362.201L41.5432 362.842C37.8591 362.842 35.7768 368.376 37.8592 371.503C40.422 375.353 52.7023 385.671 59.6433 389.628C62.046 390.43 68.6453 391.905 75.8213 391.392C82.9972 390.879 208.021 369.793 269.636 359.314L456.563 328.358L625.39 301.252C629.501 300.022 637.596 299.872 637.083 309.111C636.571 318.35 636.87 360.864 637.083 380.967V401.657C637.617 403.635 639.422 407.976 642.369 409.516C646.053 411.441 654.222 412.884 667.837 409.516C678.729 406.822 728.545 394.6 752.091 388.826L948.148 339.746L966.408 335.255C968.491 334.453 972.815 331.79 973.456 327.556C974.097 323.322 975.432 283.662 976.019 264.362C975.538 261.956 978.646 258.106 980.184 258.106" stroke="#4048F5" stroke-width="4" stroke-linecap="round" stroke-linejoin="round"/>
<path d="M42.3438 363.003C44.8532 367.868 51.6981 378.016 59.0022 379.684C66.3063 381.352 73.8987 380.807 76.7819 380.326L183.3 364.126L314.325 344.558L443.749 323.868L584.545 301.252L629.234 293.393C630.836 292.912 636.314 293.233 639.646 296.441C642.977 299.649 642.689 302.108 642.849 303.177V344.077L643.65 403.903C644.606 408.937 646.37 410.279 650.538 411.442" stroke="#4048F5" stroke-width="4" stroke-linecap="round" stroke-linejoin="round"/>
<path d="M433.818 391.233L412.354 395.564L390.57 398.771M454.961 387.063L577.497 361.561" stroke="#4048F5" stroke-width="3" stroke-linecap="round" stroke-linejoin="round"/>
<path d="M273.32 350.973V330.283L321.693 323.707M264.19 352.417L263.068 323.707L313.364 316.329M256.661 352.417L255.22 319.857L273.32 317.452V271.259" stroke="#4048F5" stroke-width="2" stroke-linecap="round" stroke-linejoin="round"/>
<path d="M298.148 268.214V318.416M277.004 270.78V321.304L273.48 316.973" stroke="#4048F5" stroke-width="2" stroke-linecap="round" stroke-linejoin="round"/>
<path d="M297.987 306.546L313.204 316.811M304.875 267.25L325.217 274.147" stroke="#4048F5" stroke-width="2" stroke-linecap="round" stroke-linejoin="round"/>
<path d="M234.076 301.094L260.025 319.218M235.198 309.113L255.22 323.549" stroke="#4048F5" stroke-width="2" stroke-linecap="round" stroke-linejoin="round"/>
<path d="M223.024 277.515L258.103 294.761M255.06 273.505C253.565 280.669 254.09 294.362 263.549 301.092C269.636 305.423 272.519 305.423 273.32 305.423" stroke="#4048F5" stroke-linecap="round" stroke-linejoin="round"/>
<path d="M261.947 272.543C261.307 276.606 260.89 285.631 263.069 290.507C265.247 295.383 270.757 298.58 273.32 299.649" stroke="#4048F5" stroke-linecap="round" stroke-linejoin="round"/>
<path d="M223.184 277.676C225.907 281.472 233.463 293.063 235.358 309.273C237.252 325.483 233.276 349.852 224.946 353.862L64.6086 376.798" stroke="#4048F5" stroke-width="2" stroke-linecap="round" stroke-linejoin="round"/>
<path d="M57.6841 363.579C58.0962 365.755 57.9822 367.767 57.5125 369.247C57.029 370.77 56.2678 371.482 55.5577 371.617C54.8477 371.752 53.8787 371.368 52.872 370.128C51.8941 368.923 51.0526 367.092 50.6405 364.916C50.2285 362.74 50.3425 360.728 50.8121 359.249C51.2956 357.726 52.0569 357.013 52.7669 356.878C53.477 356.744 54.446 357.128 55.4527 358.368C56.4305 359.573 57.2721 361.403 57.6841 363.579Z" stroke="#4048F5" stroke-width="2"/>
<path d="M56.2796 372.15L63.1672 370.385C63.9147 368.728 65.1854 364.579 64.2884 361.243C63.3914 357.907 60.3908 356.324 59.0026 355.95L52.4353 356.271" stroke="#4048F5" stroke-width="2" stroke-linecap="round" stroke-linejoin="round"/>
<path d="M53.5226 356.267C52.9673 353.578 52.4698 350.679 52.0426 347.606C51.5119 343.787 51.0898 339.698 50.8006 335.404C49.1751 311.276 52.4977 291.403 58.2218 291.017C63.9458 290.63 69.9038 309.876 71.5292 334.004C73.1547 358.132 69.6923 376.411 63.9682 376.797C62.2267 376.915 60.0002 374.721 58.362 371.825" stroke="#4048F5" stroke-width="2"/>
<path d="M59.0022 290.828H75.8208V280.723H68.773V276.393L76.3014 275.911L68.773 92.1025H126.757L131.563 196.357L211.972 191.225H214.374C215.175 191.225 216.841 191.898 217.097 194.593C217.354 197.287 217.097 200.527 215.496 200.527L131.563 206.301" stroke="#4048F5" stroke-width="2" stroke-linecap="round" stroke-linejoin="round"/>
<path d="M75.821 280.724C83.3494 280.724 86.8733 280.724 92.7999 280.562" stroke="#4048F5" stroke-width="2" stroke-linecap="round" stroke-linejoin="round"/>
<path d="M74.3792 276.074C78.7039 276.074 81.7473 275.913 85.9119 275.913" stroke="#4048F5" stroke-width="2" stroke-linecap="round" stroke-linejoin="round"/>
<path d="M131.563 196.197V210.472" stroke="#4048F5" stroke-width="2" stroke-linecap="round" stroke-linejoin="round"/>
<path d="M75.6609 290.668C78.6509 291.951 85.8161 294.133 90.5574 292.593C95.2986 291.053 97.1247 289.706 97.445 289.225V283.29" stroke="#4048F5" stroke-width="2" stroke-linecap="round" stroke-linejoin="round"/>
<path d="M85.5919 275.755C83.9901 272.975 82.2282 267.896 87.1937 265.49C92.0108 263.156 95.3093 266.238 96.0034 267.896C99.3671 270.515 102.25 273.509 111.701 275.755C121.151 278 179.666 273.67 210.851 269.339L371.348 251.696L499.49 237.1L617.061 225.071L640.927 223.307C644.237 223.895 650.89 226.931 651.018 234.374C651.146 241.816 651.072 257.363 651.018 264.207L650.378 343.6L649.737 401.341C649.897 403.587 652.716 407.404 662.711 404.71C672.706 402.015 701.688 394.819 714.929 391.558L848.357 359.479L961.763 330.609C965.927 329.005 968.713 328.335 969.611 320.985C970.572 313.126 970.572 289.228 970.572 277.84V262.763C970.572 259.876 973.776 255.481 976.339 255.225" stroke="#4048F5" stroke-width="2" stroke-linecap="round" stroke-linejoin="round"/>
<path d="M85.4316 275.431C86.3927 276.394 102.571 288.744 115.705 289.225C126.213 289.61 192.056 281.473 223.665 277.356L431.415 251.693L579.099 235.333L639.165 229.559C640.981 229.506 643.394 230.848 643.971 236.616C644.611 243.032 643.757 262.814 643.971 272.223L643.009 301.735" stroke="#4048F5" stroke-width="2" stroke-linecap="round" stroke-linejoin="round"/>
<path d="M165.2 217.369C164.815 218.139 165.894 254.847 166.481 273.827M102.25 217.369L102.731 238.38H99.527M99.527 248.324H103.692L104.653 273.827M96.3235 213.038V216.246M171.126 213.038V216.246" stroke="#4048F5" stroke-width="2" stroke-linecap="round" stroke-linejoin="round"/>
<path d="M99.4882 243.672C99.4882 246.087 99.0402 248.225 98.3583 249.722C97.6357 251.308 96.8414 251.814 96.3235 251.814C95.8057 251.814 95.0114 251.308 94.2888 249.722C93.6069 248.225 93.1589 246.087 93.1589 243.672C93.1589 241.256 93.6069 239.118 94.2888 237.622C95.0114 236.035 95.8057 235.529 96.3235 235.529C96.8414 235.529 97.6357 236.035 98.3583 237.622C99.0402 239.118 99.4882 241.256 99.4882 243.672Z" stroke="#4048F5" stroke-width="2"/>
<path d="M97.5659 243.351C97.5659 245.348 97.2719 247.112 96.8278 248.342C96.6043 248.961 96.3616 249.391 96.1424 249.647C96.0354 249.773 95.9512 249.836 95.8988 249.866C95.8737 249.88 95.8578 249.886 95.8506 249.888C95.8485 249.888 95.8469 249.889 95.8458 249.889C95.845 249.889 95.8444 249.889 95.844 249.889L95.8429 249.889L95.8417 249.889C95.8409 249.889 95.8388 249.889 95.8351 249.888C95.828 249.886 95.812 249.88 95.787 249.866C95.7345 249.836 95.6504 249.773 95.5434 249.647C95.3242 249.391 95.0815 248.961 94.8579 248.342C94.4139 247.112 94.1199 245.348 94.1199 243.351C94.1199 241.354 94.4139 239.59 94.8579 238.36C95.0815 237.741 95.3242 237.311 95.5434 237.054C95.6504 236.929 95.7345 236.865 95.787 236.836C95.812 236.822 95.828 236.816 95.8351 236.814C95.8388 236.813 95.8409 236.813 95.8417 236.813L95.8429 236.812L95.844 236.813C95.8449 236.813 95.847 236.813 95.8506 236.814C95.8578 236.816 95.8737 236.822 95.8988 236.836C95.9512 236.865 96.0354 236.929 96.1424 237.054C96.3616 237.311 96.6043 237.741 96.8278 238.36C97.2719 239.59 97.5659 241.354 97.5659 243.351Z" stroke="#4048F5" stroke-width="2"/>
<path d="M99.5872 212.971C101.435 212.699 104.054 212.448 107.283 212.232C114.06 211.779 123.438 211.488 133.807 211.467C144.177 211.445 153.556 211.698 160.334 212.123C163.564 212.325 166.184 212.566 168.033 212.83C166.185 213.103 163.566 213.354 160.337 213.57C153.561 214.022 144.183 214.314 133.813 214.335C123.444 214.357 114.065 214.104 107.286 213.679C104.056 213.476 101.436 213.236 99.5872 212.971Z" stroke="#4048F5" stroke-width="2"/>
<path d="M171.127 215.948C171.129 217.293 154.706 218.262 133.938 218.305C113.17 218.348 96.3316 217.293 96.3289 215.948" stroke="#4048F5" stroke-width="2"/>
<path d="M222.864 268.051C221.743 250.729 223.665 241.243 236.479 240.785C244.969 240.481 250.575 247.682 251.055 250.248L273.08 259.711V245.677L272.679 233.728M297.187 259.711V253.135L311.763 252.173" stroke="#4048F5" stroke-width="2" stroke-linecap="round" stroke-linejoin="round"/>
<path d="M276.203 261.957V232.445H297.186C296.706 234.263 296.545 239.021 299.749 243.512C302.953 248.003 309.093 251.158 311.762 252.173" stroke="#4048F5" stroke-width="2" stroke-linecap="round" stroke-linejoin="round"/>
<path d="M251.055 250.249C247.318 249.981 241.284 250.249 236.959 256.504C233.492 261.519 234.824 265.379 235.197 266.288" stroke="#4048F5" stroke-width="2" stroke-linecap="round" stroke-linejoin="round"/>
<path d="M276.203 232.445C270.757 232.445 258.103 223.126 258.103 211.433C258.103 199.741 268.214 190.262 280.688 190.262C287.54 190.262 293.68 193.123 297.822 197.64" stroke="#4048F5" stroke-width="2"/>
<path d="M231.193 211.431C227.751 211.431 221.238 208.006 216.911 202.77C216.319 202.054 215.768 201.304 215.272 200.524M252.336 179.405C248.194 175.249 242.053 172.616 235.2 172.616C224.349 172.616 215.285 179.215 213.109 188.014C212.915 188.799 212.853 190.244 212.772 191.061" stroke="#4048F5" stroke-width="2"/>
<path d="M276.206 233.888C263.731 233.888 253.618 222.829 253.618 209.188C253.618 195.546 263.731 184.487 276.206 184.487C283.571 184.487 294.784 186.091 297.827 196.998" stroke="#4048F5" stroke-width="2"/>
<path d="M232.795 212.397C227.775 212.397 222.801 210.798 218.648 208.067C216.964 206.959 215.416 205.666 214.054 204.217C212.897 202.986 212.187 202.125 211.331 200.689M208.128 191.226C208.128 188.703 208.534 184.993 209.285 182.725C212.279 173.684 220.742 167.167 230.715 167.167C238.081 167.167 249.293 168.646 252.337 178.703" stroke="#4048F5" stroke-width="2"/>
<path d="M257.302 223.301L230.873 211.432M252.337 179.033L269.315 185.288M297.987 197.157L323.776 207.583" stroke="#4048F5" stroke-width="2" stroke-linecap="round" stroke-linejoin="round"/>
<path d="M328.581 264.684V273.024M338.832 263.24V271.901" stroke="#4048F5" stroke-width="2" stroke-linecap="round" stroke-linejoin="round"/>
<path d="M351.487 253.616C356.612 249.125 360.296 240.77 360.296 233.407C360.296 218.437 347.603 206.301 331.945 206.301C316.287 206.301 303.594 218.437 303.594 233.407C303.594 242.22 309.84 252.814 318.17 256.985" stroke="#4048F5" stroke-width="2"/>
<path d="M359.335 261.153V290.666M368.625 335.094L373.271 259.068M362.699 261.153L359.335 330.763" stroke="#4048F5" stroke-width="2" stroke-linecap="round" stroke-linejoin="round"/>
<path d="M431.575 325.792L432.697 280.401L436.541 280.011M453.199 321.462V278.316L436.541 280.011M436.541 280.011C437.182 281.863 436.808 310.662 436.541 324.83" stroke="#4048F5" stroke-width="2" stroke-linecap="round" stroke-linejoin="round"/>
<path d="M384.744 396.526C399.373 396.526 411.233 379.723 411.233 358.995C411.233 354.762 410.738 350.693 409.827 346.898C408.966 343.315 407.505 339.355 405.967 336.351M401.499 329.993C400.076 328.401 398.189 326.546 396.552 325.389C392.997 322.876 388.987 321.463 384.744 321.463C381.246 321.463 377.907 322.423 374.85 324.168C373.281 325.064 369.903 328.132 368.946 329.993" stroke="#4048F5" stroke-width="2"/>
<path d="M618.823 303.818C618.823 303.818 628.273 348.727 595.862 355.785M595.862 274.947C599.847 274.947 603.614 276.469 606.954 279.176C608.492 280.421 614.658 288.901 616.741 295.477" stroke="#4048F5" stroke-width="2"/>
<path d="M370.227 307.991C371.829 304.142 375.159 302.858 378.657 302.858C382.9 302.858 386.91 304.272 390.465 306.785C392.102 307.941 393.99 309.796 395.412 311.388L399.88 317.747" stroke="#4048F5" stroke-width="2"/>
<path d="M384.002 321.145L431.895 314.087M454.64 310.559L575.574 292.755M453.359 291.472L575.574 275.112M431.895 299.011L425.809 297.012M372.79 279.603L425.809 297.012M377.915 303.181L425.809 297.012M596.077 289.227L612.736 286.34" stroke="#4048F5" stroke-width="2" stroke-linecap="round" stroke-linejoin="round"/>
<path d="M559.557 245.598L573.012 246.975M595.597 249.287L589.51 248.664M576.055 250.41L552.83 246.721M589.51 248.664C590.407 248.756 612.95 237.142 624.109 231.323M589.51 248.664L573.012 246.975M573.012 246.975L586.467 240.305M638.364 223.143L715.41 183.366M714.609 174.224L615.94 225.068" stroke="#4048F5" stroke-width="2" stroke-linecap="round" stroke-linejoin="round"/>
<path d="M715.25 159.467C715.25 160.75 715.25 213.626 715.25 241.427L725.341 255.06M750.969 268.694H735.432L725.341 255.06M725.341 255.06L715.25 267.41M715.25 272.062H738.475M750.969 272.062H746.965M738.475 272.062V294.677H746.965V272.062M738.475 272.062H746.965M767.307 273.345H792.776L770.992 244.314L767.307 251.371V302.697H760.9M760.9 302.697L762.182 229.879H754.013M760.9 302.697V313.443H754.013M754.013 229.879H750.969V313.443H754.013M754.013 229.879V313.443" stroke="#4048F5" stroke-width="2" stroke-linecap="round" stroke-linejoin="round"/>
<path d="M715.41 226.029H710.124L709.163 305.904C710.658 306.172 713.744 306.546 714.128 305.904C714.513 305.263 715.143 262.438 715.41 241.106" stroke="#4048F5" stroke-width="2" stroke-linecap="round" stroke-linejoin="round"/>
<path d="M771.312 244.797L774.035 239.183V187.056M774.035 178.395V160.271" stroke="#4048F5" stroke-width="2" stroke-linecap="round" stroke-linejoin="round"/>
<path d="M774.195 235.012H797.741M800.785 235.012H797.741M774.195 217.048L809.434 211.755L797.741 210.823M774.195 213.038H777.238V209.188L797.741 210.823M797.741 210.823V235.012" stroke="#4048F5" stroke-width="2" stroke-linecap="round" stroke-linejoin="round"/>
<path d="M795.819 214.002V234.692M780.442 235.815C779.641 241.215 779.673 253.041 786.208 257.147C792.743 261.253 800.464 260.997 803.507 260.355L802.226 298.849L954.875 328.682L842.27 356.43L650.218 402.623" stroke="#4048F5" stroke-width="2" stroke-linecap="round" stroke-linejoin="round"/>
<path d="M581.021 301.894V251.371L595.436 249.446V298.045" stroke="#4048F5" stroke-width="2" stroke-linecap="round" stroke-linejoin="round"/>
<path d="M417.96 272.225L424.047 273.338M453.039 278.641L424.047 273.338M432.536 281.207L407.388 274.631M464.091 263.403V269.819M479.788 260.837V267.894M424.047 273.338L530.084 260.837C533.608 260.944 541.425 262.505 544.5 267.894C547.576 273.283 548.344 277.304 548.344 278.641M544.5 259.834L553.63 277.999M554.591 261.85L560.838 276.555M575.575 266.29C573.524 265.52 534.569 257.843 515.348 254.101" stroke="#4048F5" stroke-width="2" stroke-linecap="round" stroke-linejoin="round"/>
<path d="M373.911 251.208L375.353 226.347C376.634 222.337 380.318 213.082 408.029 207.261C430.934 202.449 518.338 185.127 559.877 175.022C562.173 174.915 566.925 175.439 567.566 178.39C568.207 181.341 567.833 183.683 567.566 184.485C569.808 184.592 574.774 184.485 576.696 183.202C578.618 181.919 577.497 175.61 576.696 172.616C575.521 169.569 571.666 165.944 564.362 166.2C557.058 166.457 450.156 187.586 393.293 200.364C381.76 202.955 367.504 212.04 366.223 219.611C364.941 227.181 364.087 244.258 363.82 251.85" stroke="#4048F5" stroke-width="2" stroke-linecap="round" stroke-linejoin="round"/>
<path d="M311.075 201.971C311.655 200.857 312.308 199.835 313.022 198.924C315.377 195.918 318.399 194.112 321.693 194.112C325.486 194.112 328.917 196.506 331.386 200.368C332.456 202.042 333.345 203.991 334.005 206.142" stroke="#4048F5" stroke-width="2"/>
<path d="M355.945 216.565C358.643 212.105 362.045 208.553 365.902 206.27C369.014 204.429 372.421 203.413 375.993 203.413C377.803 203.413 379.571 203.674 381.279 204.171M354.203 263.72C356.03 267.478 358.312 270.741 360.934 273.344C361.566 273.971 362.218 274.56 362.888 275.108C363.856 275.901 364.863 276.608 365.902 277.223C367.039 277.896 368.216 278.459 369.426 278.902C370.265 279.209 371.12 279.459 371.989 279.648C373.295 279.933 374.632 280.08 375.993 280.08C386.706 280.08 395.939 270.947 400.151 257.786C400.419 256.946 400.667 256.091 400.894 255.22M402.389 246.398C402.517 244.873 402.583 243.321 402.583 241.747C402.583 235.256 401.464 229.141 399.488 223.783C398.267 220.47 396.719 217.446 394.905 214.801C394.037 213.535 393.474 212.836 392.492 211.753" stroke="#4048F5" stroke-width="2"/>
<path d="M329.542 198.283L513.746 174.225C515.455 171.979 520.153 167.488 525.279 167.488C530.405 167.488 534.463 169.841 535.851 171.017M540.977 179.678L542.899 185.452M466.654 195.396L567.886 182.244M578.458 179.678C589.03 177.433 602.661 179.678 606.649 197.963C611.519 220.289 606.649 226.192 606.649 226.192" stroke="#4048F5" stroke-width="2" stroke-linecap="round" stroke-linejoin="round"/>
<path d="M376.635 280.723L586.147 240.304L605.368 232.926" stroke="#4048F5" stroke-width="2" stroke-linecap="round" stroke-linejoin="round"/>
<path d="M971.853 251.693C969.664 253.778 965.222 258.719 964.966 261.798C964.709 264.878 963.898 304.462 963.524 323.87C963.49 325.634 960.103 327.638 954.234 328.681" stroke="#4048F5" stroke-width="2" stroke-linecap="round" stroke-linejoin="round"/>
<path d="M924.762 261.799V276.074L834.742 261.799V245.278M827.054 248.486V260.355L810.235 258.591L827.054 248.486Z" stroke="#4048F5" stroke-linecap="round" stroke-linejoin="round"/>
<path d="M816.001 271.225L826.893 273.024V291.63L816.001 289.943M816.001 271.225L811.356 270.458V289.224L816.001 289.943M816.001 271.225V289.943" stroke="#4048F5" stroke-linecap="round" stroke-linejoin="round"/>
<path d="M838.105 274.184L918.835 289.063V309.433L838.105 293.94M838.105 274.184L834.421 273.505V293.233L838.105 293.94M838.105 274.184V293.94M933.731 291.537L930.047 290.988H928.285V310.556L933.731 311.668M933.731 291.537L943.983 293.233V313.763L933.731 311.668M933.731 291.537V311.668M936.935 254.258L935.974 277.675L957.278 279.921L956.316 316.65H959.68V327.076M964.005 295.639H959.68V313.763L964.005 315.207M964.005 283.93H960.641V277.675L950.39 276.552L952.632 235.492C952.953 238.753 954.811 245.533 959.68 246.559C964.55 247.586 969.611 246.987 971.533 246.559V251.371" stroke="#4048F5" stroke-linecap="round" stroke-linejoin="round"/>
<path d="M806.23 183.527L773.875 186.895C770.457 187.483 763.527 187.633 763.143 183.527C762.758 179.421 770.137 178.394 773.875 178.394L806.23 175.507C806.39 172.62 806.23 163.959 818.244 166.204" stroke="#4048F5" stroke-width="2" stroke-linecap="round" stroke-linejoin="round"/>
<path d="M827.054 216.569C832.22 213.835 833.056 203.411 827.888 193.622C822.72 183.833 814.343 178.114 809.177 180.848C804.011 183.583 804.013 193.735 809.181 203.524C810.18 205.415 810.645 206.352 811.837 207.908" stroke="#4048F5" stroke-width="2"/>
<path d="M811.997 207.424L817.443 201.49C819.525 201.008 824.426 200.72 827.374 203.414C830.321 206.109 830.951 209.883 830.898 211.434" stroke="#4048F5" stroke-width="2" stroke-linecap="round" stroke-linejoin="round"/>
<path d="M825.936 219.351C825.282 220.353 823.922 220.957 821.979 220.886C820.059 220.816 817.748 220.076 815.543 218.632C813.337 217.187 811.734 215.364 810.901 213.63C810.057 211.876 810.065 210.386 810.719 209.385C811.373 208.384 812.733 207.779 814.676 207.85C816.597 207.92 818.907 208.66 821.113 210.105C823.318 211.549 824.921 213.372 825.755 215.106C826.598 216.86 826.59 218.35 825.936 219.351Z" stroke="#4048F5" stroke-width="2"/>
<path d="M813.919 219.131L787.009 248.322C785.514 250.888 783.421 256.406 787.009 257.946C790.597 259.485 817.977 248.75 831.218 243.19L876.708 219.131C881.994 214.907 892.822 203.733 893.847 192.827C895.129 179.193 887.921 155.135 868.059 152.889C852.169 151.093 846.061 163.154 844.993 169.409M834.742 245.756L876.708 222.98C883.222 219.345 896.442 208.224 897.211 192.827C898.172 173.58 889.064 152.843 868.059 150.162C851.721 148.077 844.246 161.711 842.751 169.409L822.248 171.013L818.084 166.522" stroke="#4048F5" stroke-width="2" stroke-linecap="round" stroke-linejoin="round"/>
<path d="M841.95 205.658C843.445 209.454 848.197 217.559 855.245 219.612C862.292 221.665 871.583 221.377 875.908 219.612" stroke="#4048F5" stroke-width="2" stroke-linecap="round" stroke-linejoin="round"/>
<path d="M810.395 180.318C816.909 176.789 832.307 169.668 841.79 169.411C851.272 169.155 855.565 169.304 856.526 169.411C859.836 171.122 865.037 176.428 865.816 183.846C866.777 192.989 863.574 200.848 858.128 203.093L841.79 205.339L829.296 214.962" stroke="#4048F5" stroke-width="2" stroke-linecap="round" stroke-linejoin="round"/>
<path d="M857.487 203.093C866.333 203.093 873.505 195.553 873.505 186.252C873.505 175.185 864.892 169.411 856.045 169.411" stroke="#4048F5" stroke-width="2"/>
<path d="M737.354 163.316L739.917 1H774.195L771.312 162.026" stroke="#4048F5" stroke-width="2" stroke-linecap="round" stroke-linejoin="round"/>
<path d="M774.035 160.429C774.035 162.378 761.497 163.958 745.043 163.958C728.589 163.958 715.25 161.416 715.25 159.467" stroke="#4048F5" stroke-width="2"/>
<path d="M774.035 160.431C774.035 159.905 773.124 159.291 771.472 158.673M715.25 159.789C715.25 159.055 717.14 158.238 720.375 157.503C722.291 157.068 724.678 156.663 727.423 156.321C729.93 156.009 732.735 155.75 735.752 155.571C736.332 155.536 736.92 155.505 737.514 155.476" stroke="#4048F5" stroke-width="2"/>
<path d="M820.47 160.431C822.611 153.731 825.496 147.48 829.003 141.826C840.721 122.932 859.379 110.71 880.393 110.71C915.867 110.71 944.624 145.538 944.624 188.5C944.624 231.462 915.867 266.29 880.393 266.29C865.469 266.29 851.734 260.126 840.829 249.785C839.275 248.313 837.78 246.755 836.346 245.118" stroke="#4048F5" stroke-width="2"/>
<path d="M820.326 156.244C822.58 149.157 825.617 142.545 829.309 136.565C841.646 116.58 861.287 103.652 883.41 103.652C920.756 103.652 951.031 140.491 951.031 185.933C951.031 231.376 920.756 268.214 883.41 268.214C867.699 268.214 853.239 261.694 841.759 250.757C840.123 249.199 838.549 247.551 837.039 245.82" stroke="#4048F5" stroke-width="2"/>
<path d="M820.326 152.534C822.79 145.212 826.11 138.381 830.146 132.202C843.631 111.555 865.102 98.1992 889.286 98.1992C930.11 98.1992 963.204 136.258 963.204 183.207C963.204 230.155 930.11 268.214 889.286 268.214C872.111 268.214 856.305 261.479 843.755 250.179C841.967 248.569 840.246 246.867 838.596 245.078" stroke="#4048F5" stroke-width="2"/>
<path d="M820.326 147.947C822.989 140.335 826.577 133.233 830.938 126.809C845.513 105.344 868.717 91.459 894.852 91.459C938.971 91.459 974.737 131.026 974.737 179.835V250.888L1142.92 223.301V229.396L999.404 253.455L1008.69 263.399L1005.49 272.06L990.434 274.306V272.06L980.503 258.587" stroke="#4048F5"/>
<path d="M991.075 273.666L993.318 265.326M993.318 265.326L1008.37 263.401M993.318 265.326L984.988 254.419L979.863 258.268" stroke="#4048F5" stroke-width="2" stroke-linecap="round" stroke-linejoin="round"/>
<path d="M1142.28 230.038V269.494M1142.28 269.494H1150.29M1142.28 269.494C1096.15 279.011 1002.54 298.365 997.162 299.648C991.78 300.931 991.075 307.882 991.395 311.196H985.629L986.91 268.211M1150.29 269.494V283.288L1017.66 313.763C1015.39 311.293 1013.77 310.434 1009.34 311.196C1006.13 311.196 1003.89 315.366 1003.89 318.895C1003.89 321.996 1003.89 327.556 1003.89 330.164H998.764M1150.29 269.494L1007.41 299.648C1005.06 300.824 1000.05 304.396 998.764 309.272C997.482 314.148 998.23 318.788 998.764 320.499V330.164M980.183 258.267L976.979 339.104H985.629V320.499H993.318V330.164H998.764" stroke="#4048F5" stroke-width="3" stroke-linecap="round" stroke-linejoin="round"/>
<path d="M1003.89 322.904L1021.35 325.952V333.971L1023.91 334.773M1023.91 334.773L1027.11 333.971V327.235M1023.91 334.773V325.952" stroke="#4048F5" stroke-width="2" stroke-linecap="round" stroke-linejoin="round"/>
<path d="M1031.4 320.822C1031.4 324.003 1029.31 326.238 1027.12 326.238C1024.92 326.238 1022.83 324.003 1022.83 320.822C1022.83 317.641 1024.92 315.406 1027.12 315.406C1029.31 315.406 1031.4 317.641 1031.4 320.822Z" stroke="#4048F5" stroke-width="2"/>
<path d="M1027.44 314.407L1017.5 313.764" stroke="#4048F5" stroke-width="2" stroke-linecap="round" stroke-linejoin="round"/>
<path d="M900.255 91.3001L1078.69 87.7715C1093 90.1774 1125.05 102.656 1138.76 133.323C1152.47 163.99 1143.24 195.715 1143.24 223.463" stroke="#4048F5" stroke-linecap="round" stroke-linejoin="round"/>
<path d="M941.74 90.3364C958.025 96.2174 991.716 115.101 999.404 141.02C1007.09 166.939 1006.88 222.071 1005.81 246.397M1036.89 240.944C1038.43 213.571 1039.16 154.557 1029.68 137.492C1020.2 120.426 991.716 98.7837 978.581 89.8552M1005.81 89.374C1022.1 96.9124 1050.23 118.607 1059.15 135.888C1071.32 159.465 1063.64 211.004 1063.64 236.614" stroke="#4048F5" stroke-linecap="round" stroke-linejoin="round"/>
<path d="M1036.89 88.5749C1051.11 94.462 1081.23 113.366 1087.94 139.311C1094.66 165.257 1094.2 207.133 1093.27 231.484M1120.02 226.993C1121.37 199.592 1122.66 152.862 1114.38 135.779C1106.1 118.696 1078.53 95.6322 1058.51 88.0938M967.689 143.589L1137.8 131.079M974.577 195.075L1146.13 175.988M938.217 105.576L1109.45 100.604" stroke="#4048F5" stroke-linecap="round" stroke-linejoin="round"/>
<path d="M941.9 90.0182C941.9 88.5747 941.26 78.6304 947.827 77.668C953.081 76.8981 1009.71 77.3472 1037.37 77.668C1038.75 77.7749 1040.89 78.6304 1041.53 80.5551C1042.17 82.4798 1042.33 86.4896 1041.85 87.9331M930.047 90.4994V76.8661C930.528 72.5889 938.857 64.9971 947.186 64.9971C960.523 64.9971 1012.7 65.104 1037.37 65.3179C1044.57 64.8367 1053.48 69.3276 1053.86 77.668C1054.25 86.0084 1054.02 86.8103 1054.02 87.9331" stroke="#4048F5" stroke-width="2" stroke-linecap="round" stroke-linejoin="round"/>
<path d="M930.048 77.665L917.554 90.9776" stroke="#4048F5" stroke-width="2" stroke-linecap="round" stroke-linejoin="round"/>
</svg>
