<svg width="1244" height="580" viewBox="0 0 1244 580" fill="none" xmlns="http://www.w3.org/2000/svg">
    <g style="fill: none; stroke: #000000; stroke-width: 3px">
        <path d="M220.154 291.768C220.154 289.345 219.462 250.287 218.25 230.671L238.5 229.822M251.827 229.46L241.788 229.822M241.788 250.229V266.672M241.788 250.229L281.25 247.46L281.942 273.595M241.788 250.229V229.822M238.5 229.822L239.538 289.345M238.5 229.822H241.788" stroke="#4048F5" stroke-linecap="round" stroke-linejoin="round"/>
        <path d="M8.82692 488.734H4.23313C2.54372 488.734 1.61533 490.699 2.68815 492.004L72.7645 577.249C73.2498 577.84 74.0293 578.102 74.7728 577.925L672.695 435.505C674.52 435.071 674.797 432.589 673.112 431.764L669.635 430.061" stroke="#4048F5" stroke-width="4" stroke-linecap="round" stroke-linejoin="round"/>
        <path d="M8.65381 488.904L77.9604 569.676C78.4457 570.242 79.2052 570.491 79.931 570.322L283.5 523L455.885 482.5L669.635 429.712" stroke="#4048F5" stroke-width="2" stroke-linecap="round" stroke-linejoin="round"/>
        <path d="M668.942 429.712L669.113 418.467C669.114 418.377 669.03 418.31 668.942 418.332V418.332M9.32439 478.045L9.00015 488.904M60.0578 461.385L7.0857 470.809C5.56099 471.081 4.90982 472.907 5.91909 474.082L73.6422 552.899C74.1231 553.458 74.8729 553.708 75.593 553.548L357.923 490.808L606.289 433.866L668.942 418.332M60.0578 463.808L18.7588 471.621C17.2191 471.912 16.5973 473.781 17.6555 474.937L73.3848 535.808L83.3306 546.556C83.8162 547.081 84.5452 547.306 85.2425 547.147L264.289 506.385L315.173 496.173M338.539 492.019L384.231 481.289M412.962 474.712L469.212 462.25M491.366 457.058L624.462 425.385M643.327 422.269L663.114 416.568C663.527 416.449 663.968 416.466 664.37 416.617L668.942 418.332" stroke="#4048F5" stroke-width="2" stroke-linecap="round" stroke-linejoin="round"/>
        <path d="M412.269 446.499L437.192 459.356M450.519 466.23L437.192 459.356M437.192 428.326V459.356" stroke="#4048F5" stroke-width="2" stroke-linecap="round" stroke-linejoin="round"/>
        <path d="M429.057 429.019V434.038M429.057 454.807V434.038M444.461 426.596C444.461 426.798 444.461 432.618 444.461 439.923M444.461 463.115C444.461 456.959 444.461 447.617 444.461 439.923M444.461 439.923L469.038 453.769M412.096 426.596L429.057 434.038" stroke="#4048F5" stroke-width="2" stroke-linecap="round" stroke-linejoin="round"/>
        <path d="M387.173 453.77C387.173 455.016 387.635 474.135 387.866 483.539L384.058 481.116" stroke="#4048F5" stroke-width="2" stroke-linecap="round" stroke-linejoin="round"/>
        <path d="M628.442 427.982L626.538 332.616M624.635 425.386L621 334.001M643.327 422.097L642.895 407.213M642.895 330.54V407.213M655.442 378.482L656.173 411.813C656.216 413.747 653.696 414.651 652.325 413.285C649.744 410.717 647.09 409.065 642.895 407.213M661.846 416.559V371.732M649.212 382.809L650.077 411.02M621 326.04C621 323.937 621 291.005 621 272.318C621 270.922 622.395 269.966 623.702 270.457L626.538 271.52" stroke="#4048F5" stroke-width="2" stroke-linecap="round" stroke-linejoin="round"/>
        <path d="M569.769 401.155L624.115 420.713" stroke="#4048F5" stroke-width="2" stroke-linecap="round" stroke-linejoin="round"/>
        <path d="M469.385 462.25L465.923 358.923M472.846 464.5L469.904 358.058M491.193 460.173L488.423 355.115" stroke="#4048F5" stroke-width="2" stroke-linecap="round" stroke-linejoin="round"/>
        <path d="M79.7884 421.924L85.4999 547.578M109.385 417.078L114.923 540.309M62.6538 419.847L66.6346 528.367M57.9807 417.078L62.6538 524.04" stroke="#4048F5" stroke-width="2" stroke-linecap="round" stroke-linejoin="round"/>
        <path d="M114.577 520.059L215.135 499.809" stroke="#4048F5" stroke-width="2" stroke-linecap="round" stroke-linejoin="round"/>
        <path d="M216 517.463L212.019 401.155M243.519 511.059L242.847 489.77M239.884 395.963L240.201 406.001M242.847 489.77L265.673 506.039M242.847 489.77L242.158 467.963M242.158 467.963L289.731 501.366M242.158 467.963L241.972 462.078M241.972 462.078L241.541 448.405M241.972 462.078L280.211 489.061M295.442 499.809L280.211 489.061M241.541 448.405L278.654 441.136M241.541 448.405L240.912 428.501M240.912 428.501L271.384 423.309M240.912 428.501L240.201 406.001M271.384 423.309L240.201 406.001M271.384 423.309L278.258 427.116M277.096 390.251L278.258 427.116M280.211 489.061L278.258 427.116" stroke="#4048F5" stroke-width="2" stroke-linecap="round" stroke-linejoin="round"/>
        <path d="M29.7693 487.691L60.577 481.287M33.577 491.499L61.0962 485.96" stroke="#4048F5" stroke-width="2" stroke-linecap="round" stroke-linejoin="round"/>
        <path d="M69.4038 531.133L84.6346 527.845" stroke="#4048F5" stroke-width="2" stroke-linecap="round" stroke-linejoin="round"/>
        <path d="M284.193 389.039C284.054 390.008 286.443 459.481 287.654 494.097M294.231 386.789L297.519 499.462" stroke="#4048F5" stroke-width="2" stroke-linecap="round" stroke-linejoin="round"/>
        <path d="M296.135 437.673L313.159 447.495C313.765 447.844 314.144 448.485 314.159 449.184L315.173 496.173M317.596 444.25L313.979 447.968" stroke="#4048F5" stroke-width="2" stroke-linecap="round" stroke-linejoin="round"/>
        <path d="M317.423 443.901L318.558 493.984C318.592 495.508 316.976 496.509 315.627 495.799L315.346 495.651M338.538 459.651V492.017" stroke="#4048F5" stroke-width="2" stroke-linecap="round" stroke-linejoin="round"/>
        <path d="M384.231 455.154V481.289" stroke="#4048F5" stroke-width="2" stroke-linecap="round" stroke-linejoin="round"/>
        <path d="M411.577 420.019L412.962 474.538" stroke="#4048F5" stroke-width="2" stroke-linecap="round" stroke-linejoin="round"/>
        <path d="M37.5579 496.346L61.0963 491.5M47.0771 506.385L61.0963 503.442M53.4809 513.308L62.3079 511.058" stroke="#4048F5" stroke-width="2" stroke-linecap="round" stroke-linejoin="round"/>
        <path d="M113.712 511.406L190.558 496.348L187.096 404.963M192.116 404.617L195.577 503.79" stroke="#4048F5" stroke-width="2" stroke-linecap="round" stroke-linejoin="round"/>
        <path d="M118.558 416.906L120.034 470.56M184.327 405.483L185.537 439.58M185.537 439.58H188.308M185.537 439.58L186.115 456.022M186.115 456.022L186.231 459.31C184.846 462.541 177.992 469.903 161.654 473.503C145.315 477.103 127.154 475.003 120.115 473.503L120.034 470.56M186.115 456.022H188.308M112.327 472.291L120.034 470.56" stroke="#4048F5" stroke-width="3" stroke-linecap="round" stroke-linejoin="round"/>
        <path d="M124.789 474.538V508.981M137.596 475.577V496M137.596 506.558V499.981M153.346 475.058V492.885M153.346 503.442V496.692M169.096 471.596V489.423M169.096 500.673V494.096M169.096 494.096L190.212 490.288M169.096 494.096V489.423M169.096 489.423L190.212 485.442M189.865 478.173L180.173 473.327V466.058M153.346 492.885L137.596 496M153.346 492.885V496.692M137.596 496V499.981M137.596 499.981L153.346 496.692" stroke="#4048F5" stroke-width="2" stroke-linecap="round" stroke-linejoin="round"/>
        <path d="M79.2693 553.46V570.075" stroke="#4048F5" stroke-width="2" stroke-linecap="round" stroke-linejoin="round"/>
        <path d="M355.154 352.518C346.89 354.817 335.287 360.28 325.637 369.44C323.976 371.016 322.403 372.355 320.885 374.153M366.404 350.614C372.629 351.446 381.268 353.982 389.48 358.922C391.34 360.041 393.178 361.283 394.962 362.657M402.231 369.44C404.046 371.504 405.722 373.763 407.206 376.23C411.417 383.229 414.081 391.9 414 402.537C413.723 438.953 386.077 456.48 372.288 460.691C354.115 465.307 315.969 463.876 308.769 421.23C306.941 410.4 307.842 400.971 310.506 392.845C311.62 389.446 312.75 386.268 314.654 383.672" stroke="#4048F5" stroke-width="4" stroke-linecap="round" stroke-linejoin="round"/>
        <path d="M355.154 352.693C347.192 350.674 331.408 342.136 331.962 324.136C332.654 301.636 349.962 293.501 362.077 293.501C374.192 293.501 388.385 302.847 388.385 323.616C388.385 343.428 373.962 350.097 366.75 350.789" stroke="#4048F5" stroke-width="4" stroke-linecap="round" stroke-linejoin="round"/>
        <path d="M52.2693 390.767L43.9616 391.46C39.9808 391.46 37.7308 397.431 39.9809 400.806C42.7501 404.96 56.0194 416.094 63.5194 420.363C66.1156 421.229 73.2463 422.821 81.0002 422.267C88.754 421.713 223.846 398.96 290.423 387.652L492.404 354.248L674.827 324.998C679.269 323.671 688.016 323.51 687.462 333.479C686.908 343.448 687.231 389.325 687.462 411.017V433.344C688.039 435.479 689.989 440.164 693.173 441.825C697.154 443.902 705.981 445.46 720.693 441.825C732.462 438.917 786.289 425.729 811.731 419.498L1023.58 366.537L1043.31 361.69C1045.56 360.825 1050.23 357.952 1050.92 353.383C1051.62 348.814 1053.06 306.017 1053.69 285.19C1053.17 282.594 1056.53 278.44 1058.19 278.44" stroke="#4048F5" stroke-width="4" stroke-linecap="round" stroke-linejoin="round"/>
        <path d="M44.8269 391.634C47.5384 396.884 54.9346 407.834 62.8269 409.634C70.7192 411.434 78.9231 410.846 82.0384 410.326L197.135 392.846L338.712 371.73L478.558 349.403L630.692 325L678.981 316.519C680.712 316 686.631 316.346 690.231 319.807C693.831 323.269 693.519 325.923 693.692 327.076V371.211L694.558 435.769C695.591 441.201 697.497 442.649 702 443.903" stroke="#4048F5" stroke-width="4" stroke-linecap="round" stroke-linejoin="round"/>
        <path d="M467.827 422.096L444.634 426.769L421.096 430.231M490.673 417.596L623.077 390.077" stroke="#4048F5" stroke-width="3" stroke-linecap="round" stroke-linejoin="round"/>
        <path d="M294.404 378.653V356.326L346.673 349.23M284.538 380.211L283.327 349.23L337.673 341.268M276.404 380.211L274.846 345.076L294.404 342.48V292.634" stroke="#4048F5" stroke-width="2" stroke-linecap="round" stroke-linejoin="round"/>
        <path d="M321.231 289.348V343.521M298.385 292.117V346.636L294.577 341.963" stroke="#4048F5" stroke-width="2" stroke-linecap="round" stroke-linejoin="round"/>
        <path d="M321.058 330.711L337.5 341.788M328.5 288.308L350.481 295.75" stroke="#4048F5" stroke-width="2" stroke-linecap="round" stroke-linejoin="round"/>
        <path d="M252 324.827L280.039 344.385M253.212 333.481L274.846 349.058" stroke="#4048F5" stroke-width="2" stroke-linecap="round" stroke-linejoin="round"/>
        <path d="M240.058 299.385L277.961 317.995M274.673 295.058C273.058 302.788 273.625 317.565 283.846 324.827C290.423 329.5 293.538 329.5 294.404 329.5" stroke="#4048F5" stroke-linecap="round" stroke-linejoin="round"/>
        <path d="M282.115 294.02C281.423 298.404 280.973 308.143 283.327 313.404C285.681 318.666 291.635 322.116 294.404 323.27" stroke="#4048F5" stroke-linecap="round" stroke-linejoin="round"/>
        <path d="M240.231 299.559C243.173 303.655 251.338 316.163 253.385 333.655C255.431 351.147 251.135 377.443 242.135 381.77L68.8845 406.52" stroke="#4048F5" stroke-width="2" stroke-linecap="round" stroke-linejoin="round"/>
        <path d="M61.4817 392.24C61.9289 394.598 61.8061 396.783 61.294 398.394C60.7681 400.048 59.9306 400.853 59.1197 401.006C58.3089 401.16 57.235 400.718 56.14 399.371C55.0738 398.059 54.1599 396.071 53.7128 393.713C53.2656 391.355 53.3884 389.17 53.9005 387.559C54.4264 385.905 55.2639 385.1 56.0747 384.946C56.8856 384.793 57.9594 385.235 59.0545 386.582C60.1207 387.894 61.0346 389.882 61.4817 392.24Z" stroke="#4048F5" stroke-width="2"/>
        <path d="M59.8848 401.503L67.3271 399.599C68.1348 397.811 69.5079 393.334 68.5386 389.734C67.5694 386.134 64.3271 384.426 62.8271 384.022L55.731 384.369" stroke="#4048F5" stroke-width="2" stroke-linecap="round" stroke-linejoin="round"/>
        <path d="M56.9056 384.366C56.3056 381.464 55.768 378.336 55.3064 375.019C54.733 370.899 54.2769 366.486 53.9643 361.853C52.208 335.817 55.7981 314.372 61.9832 313.955C68.1682 313.537 74.606 334.306 76.3623 360.342C78.1187 386.378 74.3775 406.102 68.1924 406.519C66.3107 406.646 63.9049 404.279 62.1347 401.154" stroke="#4048F5" stroke-width="2"/>
        <path d="M62.8269 313.751H81V302.847H73.3846V298.174L81.5192 297.655L73.3846 99.3086H136.038L141.231 211.809L228.115 206.27H230.712C231.577 206.27 233.377 206.997 233.654 209.905C233.931 212.812 233.654 216.309 231.923 216.309L141.231 222.539" stroke="#4048F5" stroke-width="2" stroke-linecap="round" stroke-linejoin="round"/>
        <path d="M81 302.846C89.1346 302.846 92.9423 302.846 99.3462 302.673" stroke="#4048F5" stroke-width="2" stroke-linecap="round" stroke-linejoin="round"/>
        <path d="M79.4421 297.828C84.1152 297.828 87.4037 297.655 91.9037 297.655" stroke="#4048F5" stroke-width="2" stroke-linecap="round" stroke-linejoin="round"/>
        <path d="M141.231 211.635V227.039" stroke="#4048F5" stroke-width="2" stroke-linecap="round" stroke-linejoin="round"/>
        <path d="M80.8269 313.578C84.0577 314.962 91.8 317.316 96.9231 315.655C102.046 313.993 104.019 312.539 104.365 312.02V305.616" stroke="#4048F5" stroke-width="2" stroke-linecap="round" stroke-linejoin="round"/>
        <path d="M91.558 297.485C89.8273 294.485 87.9234 289.004 93.2888 286.408C98.4938 283.889 102.058 287.216 102.808 289.004C106.443 291.831 109.558 295.062 119.77 297.485C129.981 299.908 193.208 295.235 226.904 290.562L400.327 271.523L538.789 255.773L665.827 242.793L691.616 240.889C695.193 241.523 702.381 244.8 702.519 252.831C702.658 260.862 702.577 277.639 702.519 285.023L701.827 370.696L701.135 433.004C701.308 435.427 704.354 439.546 715.154 436.639C725.954 433.731 757.269 425.966 771.577 422.446L915.75 387.831L1038.29 356.677C1042.79 354.946 1045.8 354.223 1046.77 346.293C1047.81 337.812 1047.81 312.023 1047.81 299.735V283.466C1047.81 280.35 1051.27 275.608 1054.04 275.331" stroke="#4048F5" stroke-width="2" stroke-linecap="round" stroke-linejoin="round"/>
        <path d="M91.3848 297.136C92.4232 298.175 109.904 311.502 124.096 312.021C135.45 312.436 206.596 303.656 240.75 299.213L465.231 271.521L624.808 253.867L689.712 247.636C691.673 247.579 694.282 249.027 694.904 255.252C695.596 262.175 694.673 283.521 694.904 293.675L693.865 325.521" stroke="#4048F5" stroke-width="2" stroke-linecap="round" stroke-linejoin="round"/>
        <path d="M177.577 234.481C177.161 235.311 178.327 274.923 178.962 295.404M109.558 234.481L110.077 257.154H106.615M106.615 267.885H111.115L112.154 295.404M103.154 229.808V233.269M183.981 229.808V233.269" stroke="#4048F5" stroke-width="2" stroke-linecap="round" stroke-linejoin="round"/>
        <path d="M106.654 262.864C106.654 265.479 106.168 267.798 105.426 269.425C104.643 271.142 103.765 271.73 103.154 271.73C102.543 271.73 101.665 271.142 100.882 269.425C100.139 267.798 99.6538 265.479 99.6538 262.864C99.6538 260.25 100.139 257.931 100.882 256.304C101.665 254.587 102.543 253.999 103.154 253.999C103.765 253.999 104.643 254.587 105.426 256.304C106.168 257.931 106.654 260.25 106.654 262.864Z" stroke="#4048F5" stroke-width="2"/>
        <path d="M104.577 262.518C104.577 264.68 104.258 266.593 103.775 267.93C103.531 268.603 103.265 269.077 103.02 269.364C102.772 269.653 102.638 269.653 102.634 269.653H102.634H102.634C102.63 269.653 102.497 269.653 102.249 269.364C102.004 269.077 101.738 268.603 101.494 267.93C101.011 266.593 100.692 264.68 100.692 262.518C100.692 260.357 101.011 258.444 101.494 257.106C101.738 256.434 102.004 255.96 102.249 255.673C102.497 255.384 102.63 255.384 102.634 255.384H102.634H102.634C102.638 255.384 102.772 255.384 103.02 255.673C103.265 255.96 103.531 256.434 103.775 257.106C104.258 258.444 104.577 260.357 104.577 262.518Z" stroke="#4048F5" stroke-width="2"/>
        <path d="M106.153 229.737C106.224 229.725 106.297 229.714 106.371 229.702C108.383 229.39 111.324 229.104 114.991 228.859C122.315 228.37 132.45 228.056 143.656 228.033C154.862 228.01 164.998 228.283 172.324 228.741C175.992 228.971 178.934 229.245 180.947 229.549C181.022 229.56 181.094 229.571 181.165 229.582C181.094 229.594 181.022 229.605 180.948 229.617C178.935 229.929 175.994 230.216 172.328 230.46C165.004 230.949 154.869 231.263 143.663 231.286C132.457 231.309 122.321 231.037 114.994 230.578C111.327 230.348 108.385 230.074 106.371 229.77C106.297 229.759 106.224 229.748 106.153 229.737Z" stroke="#4048F5" stroke-width="2"/>
        <path d="M183.981 232.948C183.984 234.399 166.238 235.445 143.797 235.492C121.357 235.538 103.162 234.399 103.159 232.948" stroke="#4048F5" stroke-width="2"/>
        <path d="M239.885 289.173C238.673 270.481 240.75 260.245 254.596 259.75C263.769 259.423 269.827 267.192 270.346 269.962L294.145 280.173V265.029L293.712 252.135M320.193 280.173V273.077L335.943 272.039" stroke="#4048F5" stroke-width="2" stroke-linecap="round" stroke-linejoin="round"/>
        <path d="M297.519 282.595V250.749H320.192C319.673 252.711 319.5 257.845 322.962 262.691C326.423 267.537 333.058 270.941 335.942 272.037" stroke="#4048F5" stroke-width="2" stroke-linecap="round" stroke-linejoin="round"/>
        <path d="M270.346 269.961C266.308 269.672 259.788 269.961 255.115 276.711C251.369 282.123 252.808 286.288 253.212 287.268" stroke="#4048F5" stroke-width="2" stroke-linecap="round" stroke-linejoin="round"/>
        <path d="M297.519 250.749C291.635 250.749 277.961 240.693 277.961 228.076C277.961 215.458 288.887 205.229 302.365 205.229C309.77 205.229 316.404 208.317 320.879 213.191" stroke="#4048F5" stroke-width="2"/>
        <path d="M248.885 228.074C245.165 228.074 238.128 224.379 233.452 218.728C232.813 217.955 232.218 217.146 231.681 216.305M271.731 193.515C267.255 189.03 260.62 186.189 253.214 186.189C241.49 186.189 231.696 193.31 229.345 202.805C229.135 203.652 229.068 205.211 228.981 206.093" stroke="#4048F5" stroke-width="2"/>
        <path d="M297.522 252.308C284.042 252.308 273.115 240.374 273.115 225.654C273.115 210.933 284.042 199 297.522 199C305.481 199 317.596 200.731 320.884 212.5" stroke="#4048F5" stroke-width="2"/>
        <path d="M250.616 229.116C245.191 229.116 239.816 227.39 235.329 224.443C233.51 223.248 231.837 221.852 230.365 220.289C229.115 218.961 228.348 218.031 227.423 216.482M223.962 206.27C223.962 203.548 224.401 199.544 225.213 197.097C228.447 187.341 237.592 180.309 248.368 180.309C256.327 180.309 268.442 181.904 271.731 192.757" stroke="#4048F5" stroke-width="2"/>
        <path d="M277.096 240.883L248.538 228.076M271.731 193.114L290.077 199.864M321.058 212.672L348.923 223.922" stroke="#4048F5" stroke-width="2" stroke-linecap="round" stroke-linejoin="round"/>
        <path d="M354.115 285.538V294.538M365.192 283.98V293.327" stroke="#4048F5" stroke-width="2" stroke-linecap="round" stroke-linejoin="round"/>
        <path d="M378.865 273.596C384.404 268.75 388.385 259.734 388.385 251.788C388.385 235.634 374.669 222.538 357.75 222.538C340.831 222.538 327.115 235.634 327.115 251.788C327.115 261.298 333.865 272.73 342.865 277.23" stroke="#4048F5" stroke-width="2"/>
        <path d="M387.346 281.729V313.575M397.385 361.517L402.404 279.479M390.981 281.729L387.346 356.844" stroke="#4048F5" stroke-width="2" stroke-linecap="round" stroke-linejoin="round"/>
        <path d="M465.404 351.48L466.616 302.499L470.769 302.077M488.769 346.807V300.249L470.769 302.077M470.769 302.077C471.462 304.076 471.058 335.153 470.769 350.441" stroke="#4048F5" stroke-width="2" stroke-linecap="round" stroke-linejoin="round"/>
        <path d="M414.801 427.808C430.608 427.808 443.423 409.675 443.423 387.308C443.423 382.74 442.889 378.35 441.904 374.254C440.974 370.388 439.396 366.115 437.733 362.874M432.905 356.012C431.368 354.294 429.328 352.293 427.56 351.044C423.718 348.333 419.385 346.808 414.801 346.808C411.021 346.808 407.413 347.844 404.11 349.727C402.415 350.694 398.765 354.004 397.731 356.012" stroke="#4048F5" stroke-width="2"/>
        <path d="M667.731 327.767C667.731 327.767 677.942 376.229 642.92 383.844M642.92 296.613C647.227 296.613 651.298 298.256 654.906 301.176C656.568 302.52 663.231 311.671 665.481 318.767" stroke="#4048F5" stroke-width="2"/>
        <path d="M399.115 332.27C400.846 328.116 404.445 326.731 408.224 326.731C412.809 326.731 417.142 328.257 420.983 330.968C422.752 332.216 424.792 334.218 426.328 335.936L431.156 342.798" stroke="#4048F5" stroke-width="2"/>
        <path d="M414 346.464L465.75 338.849M490.327 335.041L621 315.829M488.942 314.445L621 296.791M465.75 322.579L459.173 320.423M401.885 301.637L459.173 320.423M407.423 327.079L459.173 320.423M643.154 312.022L661.154 308.906" stroke="#4048F5" stroke-width="2" stroke-linecap="round" stroke-linejoin="round"/>
        <path d="M603.692 264.942L618.231 266.428M642.635 268.923L636.058 268.251M621.519 270.134L596.423 266.154M636.058 268.251C637.027 268.35 661.385 255.817 673.442 249.538M636.058 268.251L618.231 266.428M618.231 266.428L632.769 259.231M688.846 240.711L772.096 197.788M771.231 187.923L664.615 242.788" stroke="#4048F5" stroke-width="2" stroke-linecap="round" stroke-linejoin="round"/>
        <path d="M771.923 172C771.923 173.385 771.923 230.442 771.923 260.442L782.827 275.154M810.519 289.865H793.731L782.827 275.154M782.827 275.154L771.923 288.481M771.923 293.5H797.019M810.519 293.5H806.193M797.019 293.5V317.904H806.193V293.5M797.019 293.5H806.193M828.173 294.885H855.693L832.154 263.558L828.173 271.173V326.558H821.25M821.25 326.558L822.635 247.981H813.808M821.25 326.558V338.154H813.808M813.808 247.981H810.519V338.154H813.808M813.808 247.981V338.154" stroke="#4048F5" stroke-width="2" stroke-linecap="round" stroke-linejoin="round"/>
        <path d="M772.096 243.827H766.385L765.346 330.019C766.962 330.308 770.296 330.712 770.712 330.019C771.127 329.327 771.808 283.116 772.096 260.096" stroke="#4048F5" stroke-width="2" stroke-linecap="round" stroke-linejoin="round"/>
        <path d="M832.5 264.078L835.443 258.02V201.77M835.443 192.424V172.866" stroke="#4048F5" stroke-width="2" stroke-linecap="round" stroke-linejoin="round"/>
        <path d="M835.616 253.52H861.058M864.346 253.52H861.058M835.616 234.135L873.693 228.424L861.058 227.418M835.616 229.808H838.904V225.654L861.058 227.418M861.058 227.418V253.52" stroke="#4048F5" stroke-width="2" stroke-linecap="round" stroke-linejoin="round"/>
        <path d="M858.981 230.848V253.175M842.365 254.386C841.5 260.213 841.535 272.975 848.596 277.405C855.658 281.836 864 281.559 867.289 280.867L865.904 322.405L1030.85 354.598L909.173 384.54L701.654 434.386" stroke="#4048F5" stroke-width="2" stroke-linecap="round" stroke-linejoin="round"/>
        <path d="M626.885 325.692V271.173L642.461 269.096V321.538" stroke="#4048F5" stroke-width="2" stroke-linecap="round" stroke-linejoin="round"/>
        <path d="M450.692 293.676L457.269 294.877M488.596 300.599L457.269 294.877M466.442 303.368L439.269 296.272M500.538 284.157V291.08M517.5 281.387V289.003M457.269 294.877L571.846 281.387C575.654 281.503 584.1 283.187 587.423 289.003C590.746 294.818 591.577 299.157 591.577 300.599M587.423 280.305L597.288 299.907M598.327 282.481L605.077 298.349M621 287.272C618.784 286.441 576.692 278.157 555.923 274.118" stroke="#4048F5" stroke-width="2" stroke-linecap="round" stroke-linejoin="round"/>
        <path d="M403.096 270.998L404.654 244.171C406.039 239.844 410.019 229.856 439.962 223.575C464.712 218.382 559.154 199.69 604.039 188.786C606.519 188.671 611.654 189.236 612.346 192.421C613.039 195.605 612.635 198.132 612.346 198.998C614.769 199.113 620.135 198.998 622.212 197.613C624.289 196.228 623.077 189.421 622.212 186.19C620.942 182.901 616.777 178.99 608.885 179.267C600.992 179.544 485.481 202.344 424.039 216.132C411.577 218.929 396.173 228.732 394.789 236.901C393.404 245.071 392.481 263.498 392.192 271.69" stroke="#4048F5" stroke-width="2" stroke-linecap="round" stroke-linejoin="round"/>
        <path d="M335.199 217.867C335.826 216.664 336.532 215.561 337.303 214.578C339.848 211.335 343.113 209.386 346.673 209.386C350.771 209.386 354.478 211.969 357.146 216.136C358.302 217.942 359.263 220.046 359.976 222.367" stroke="#4048F5" stroke-width="2"/>
        <path d="M383.683 233.613C386.598 228.8 390.275 224.967 394.442 222.504C397.804 220.517 401.486 219.421 405.346 219.421C407.302 219.421 409.212 219.702 411.058 220.238M381.801 284.498C383.775 288.553 386.241 292.074 389.074 294.882C389.757 295.559 390.461 296.195 391.185 296.786C392.232 297.641 393.319 298.405 394.442 299.069C395.671 299.795 396.943 300.402 398.25 300.88C399.157 301.212 400.08 301.482 401.019 301.686C402.43 301.993 403.875 302.152 405.346 302.152C416.922 302.152 426.898 292.295 431.449 278.094C431.739 277.188 432.007 276.265 432.252 275.325M433.867 265.806C434.006 264.16 434.077 262.485 434.077 260.786C434.077 253.782 432.868 247.184 430.733 241.402C429.414 237.827 427.741 234.564 425.781 231.709C424.843 230.343 424.235 229.589 423.173 228.421" stroke="#4048F5" stroke-width="2"/>
        <path d="M355.154 213.886L554.193 187.925C556.039 185.501 561.116 180.655 566.654 180.655C572.193 180.655 576.577 183.194 578.077 184.463M583.616 193.809L585.693 200.04M503.308 210.771L612.693 196.578M624.116 193.809C635.539 191.386 650.268 193.809 654.577 213.54C659.839 237.632 654.577 244.001 654.577 244.001" stroke="#4048F5" stroke-width="2" stroke-linecap="round" stroke-linejoin="round"/>
        <path d="M406.039 302.845L632.423 259.23L653.192 251.269" stroke="#4048F5" stroke-width="2" stroke-linecap="round" stroke-linejoin="round"/>
        <path d="M1049.19 271.52C1046.83 273.77 1042.03 279.1 1041.75 282.423C1041.47 285.746 1040.6 328.462 1040.19 349.404C1040.16 351.308 1036.5 353.47 1030.15 354.596" stroke="#4048F5" stroke-width="2" stroke-linecap="round" stroke-linejoin="round"/>
        <path d="M998.308 282.425V297.828L901.039 282.425V264.598M892.731 268.059V280.867L874.558 278.963L892.731 268.059Z" stroke="#4048F5" stroke-linecap="round" stroke-linejoin="round"/>
        <path d="M880.789 292.597L892.558 294.539V314.616L880.789 312.796M880.789 292.597L875.769 291.77V312.02L880.789 312.796M880.789 292.597V312.796" stroke="#4048F5" stroke-linecap="round" stroke-linejoin="round"/>
        <path d="M904.673 295.79L991.904 311.846V333.827L904.673 317.109M904.673 295.79L900.692 295.057V316.346L904.673 317.109M904.673 295.79V317.109M1008 314.516L1004.02 313.923H1002.12V335.038L1008 336.239M1008 314.516L1019.08 316.346V338.5L1008 336.239M1008 314.516V336.239M1011.46 274.288L1010.42 299.557L1033.44 301.98L1032.4 341.615H1036.04V352.865M1040.71 318.942H1036.04V338.5L1040.71 340.057M1040.71 306.307H1037.08V299.557L1026 298.346L1028.42 254.038C1028.77 257.557 1030.78 264.873 1036.04 265.98C1041.3 267.088 1046.77 266.442 1048.85 265.98V271.173" stroke="#4048F5" stroke-linecap="round" stroke-linejoin="round"/>
        <path d="M870.231 197.962L835.269 201.597C831.577 202.231 824.089 202.393 823.673 197.962C823.258 193.531 831.231 192.423 835.269 192.423L870.231 189.308C870.404 186.193 870.231 176.847 883.212 179.27" stroke="#4048F5" stroke-width="2" stroke-linecap="round" stroke-linejoin="round"/>
        <path d="M892.731 233.618C898.313 230.667 899.217 219.419 893.633 208.855C888.048 198.292 878.997 192.121 873.415 195.072C867.833 198.023 867.835 208.978 873.419 219.541C874.498 221.582 875.001 222.593 876.289 224.272" stroke="#4048F5" stroke-width="2"/>
        <path d="M876.461 223.749L882.346 217.346C884.596 216.826 889.892 216.515 893.077 219.423C896.261 222.33 896.942 226.403 896.885 228.076" stroke="#4048F5" stroke-width="2" stroke-linecap="round" stroke-linejoin="round"/>
        <path d="M891.591 236.664C890.863 237.777 889.36 238.434 887.246 238.356C885.153 238.28 882.643 237.476 880.25 235.91C877.856 234.345 876.114 232.367 875.205 230.481C874.287 228.574 874.286 226.935 875.014 225.822C875.742 224.709 877.245 224.053 879.359 224.13C881.451 224.207 883.962 225.01 886.355 226.576C888.749 228.142 890.491 230.119 891.4 232.006C892.318 233.912 892.318 235.552 891.591 236.664Z" stroke="#4048F5" stroke-width="2"/>
        <path d="M878.538 236.383L849.461 267.883C847.846 270.652 845.585 276.606 849.461 278.267C853.338 279.929 882.923 268.344 897.231 262.344L946.385 236.383C952.096 231.825 963.796 219.767 964.904 207.998C966.289 193.287 958.5 167.325 937.039 164.902C919.869 162.964 913.269 175.979 912.115 182.729M901.039 265.114L946.385 240.537C953.423 236.614 967.708 224.614 968.539 207.998C969.577 187.229 959.735 164.852 937.039 161.96C919.385 159.71 911.308 174.421 909.692 182.729L887.539 184.46L883.039 179.614" stroke="#4048F5" stroke-width="2" stroke-linecap="round" stroke-linejoin="round"/>
        <path d="M908.827 221.845C910.442 225.941 915.577 234.687 923.192 236.902C930.808 239.118 940.846 238.806 945.519 236.902" stroke="#4048F5" stroke-width="2" stroke-linecap="round" stroke-linejoin="round"/>
        <path d="M874.731 194.5C881.769 190.693 898.408 183.008 908.654 182.731C918.9 182.454 923.539 182.616 924.577 182.731C928.154 184.577 933.773 190.302 934.616 198.308C935.654 208.173 932.193 216.654 926.308 219.077L908.654 221.5L895.154 231.885" stroke="#4048F5" stroke-width="2" stroke-linecap="round" stroke-linejoin="round"/>
        <path d="M925.616 219.078C935.174 219.078 942.923 210.941 942.923 200.905C942.923 188.962 933.617 182.731 924.058 182.731" stroke="#4048F5" stroke-width="2"/>
        <path d="M795.808 176.154L798.577 1H835.616L832.5 174.761" stroke="#4048F5" stroke-width="2" stroke-linecap="round" stroke-linejoin="round"/>
        <path d="M835.443 173.038C835.443 175.141 821.895 176.846 804.116 176.846C786.336 176.846 771.923 174.103 771.923 172" stroke="#4048F5" stroke-width="2"/>
        <path d="M835.443 173.039C835.443 172.472 834.459 171.809 832.673 171.142M771.923 172.347C771.923 171.555 773.966 170.673 777.462 169.88C779.532 169.411 782.111 168.973 785.077 168.604C787.786 168.267 790.817 167.988 794.077 167.795C794.704 167.757 795.338 167.723 795.981 167.693" stroke="#4048F5" stroke-width="2"/>
        <path d="M885.617 173.041C887.931 165.81 891.048 159.065 894.837 152.964C907.5 132.575 927.659 119.387 950.366 119.387C988.696 119.387 1019.77 156.969 1019.77 203.329C1019.77 249.689 988.696 287.271 950.366 287.271C934.24 287.271 919.399 280.62 907.616 269.462C905.937 267.872 904.321 266.191 902.771 264.425" stroke="#4048F5" stroke-width="2"/>
        <path d="M885.461 168.523C887.897 160.875 891.179 153.74 895.168 147.287C908.498 125.721 929.722 111.771 953.626 111.771C993.979 111.771 1026.69 151.523 1026.69 200.56C1026.69 249.596 993.979 289.348 953.626 289.348C936.65 289.348 921.026 282.313 908.621 270.51C906.854 268.829 905.152 267.051 903.521 265.183" stroke="#4048F5" stroke-width="2"/>
        <path d="M885.461 164.519C888.124 156.618 891.712 149.246 896.072 142.579C910.644 120.299 933.844 105.887 959.975 105.887C1004.09 105.887 1039.85 146.956 1039.85 197.618C1039.85 248.279 1004.09 289.348 959.975 289.348C941.417 289.348 924.338 282.08 910.778 269.886C908.846 268.149 906.986 266.312 905.203 264.382" stroke="#4048F5" stroke-width="2"/>
        <path d="M885.461 159.568C888.339 151.354 892.216 143.691 896.929 136.759C912.677 113.596 937.749 98.6133 965.989 98.6133C1013.66 98.6133 1052.31 141.31 1052.31 193.979V270.652L1234.04 240.883V247.459L1078.96 273.421L1089 284.152L1085.54 293.498L1069.27 295.921V293.498L1058.54 278.959" stroke="#4048F5"/>
        <path d="M1069.96 295.23L1072.38 286.23M1072.38 286.23L1088.65 284.153M1072.38 286.23L1063.38 274.461L1057.85 278.615" stroke="#4048F5" stroke-width="2" stroke-linecap="round" stroke-linejoin="round"/>
        <path d="M1233.35 248.152V290.729M1233.35 290.729H1242M1233.35 290.729C1183.5 300.998 1082.35 321.883 1076.54 323.268C1070.72 324.652 1069.96 332.152 1070.31 335.729H1064.08L1065.46 289.345M1242 290.729V305.614L1098.69 338.498C1096.23 335.834 1094.48 334.906 1089.69 335.729C1086.23 335.729 1083.81 340.229 1083.81 344.037C1083.81 347.383 1083.81 353.383 1083.81 356.197H1078.27M1242 290.729L1087.62 323.268C1085.08 324.537 1079.65 328.391 1078.27 333.652C1076.88 338.914 1077.69 343.922 1078.27 345.768V356.197M1058.19 278.614L1054.73 365.845H1064.08V345.768H1072.38V356.197H1078.27" stroke="#4048F5" stroke-width="3" stroke-linecap="round" stroke-linejoin="round"/>
        <path d="M1083.81 348.364L1102.67 351.653V360.307L1105.44 361.172M1105.44 361.172L1108.9 360.307V353.037M1105.44 361.172V351.653" stroke="#4048F5" stroke-width="2" stroke-linecap="round" stroke-linejoin="round"/>
        <path d="M1113.62 346.116C1113.62 349.576 1111.33 352.04 1108.9 352.04C1106.47 352.04 1104.19 349.576 1104.19 346.116C1104.19 342.657 1106.47 340.193 1108.9 340.193C1111.33 340.193 1113.62 342.657 1113.62 346.116Z" stroke="#4048F5" stroke-width="2"/>
        <path d="M1109.25 339.192L1098.52 338.5" stroke="#4048F5" stroke-width="2" stroke-linecap="round" stroke-linejoin="round"/>
        <path d="M971.827 98.4415L1164.63 94.6338C1180.1 97.2299 1214.72 110.695 1229.54 143.788C1244.35 176.88 1234.38 211.115 1234.38 241.057" stroke="#4048F5" stroke-linecap="round" stroke-linejoin="round"/>
        <path d="M1016.65 97.4017C1034.25 103.748 1070.65 124.125 1078.96 152.094C1087.27 180.063 1087.04 239.556 1085.88 265.806M1119.46 259.921C1121.13 230.382 1121.92 166.702 1111.67 148.286C1101.43 129.871 1070.65 106.517 1056.46 96.8825M1085.88 96.3633C1103.48 104.498 1133.88 127.908 1143.52 146.556C1156.67 171.998 1148.37 227.613 1148.37 255.248" stroke="#4048F5" stroke-linecap="round" stroke-linejoin="round"/>
        <path d="M1119.46 95.5007C1134.83 101.853 1167.38 122.252 1174.63 150.25C1181.89 178.248 1181.39 223.435 1180.38 249.712M1209.29 244.866C1210.75 215.297 1212.14 164.873 1203.2 146.438C1194.25 128.004 1164.46 103.116 1142.83 94.9814M1044.69 154.866L1228.5 141.366M1052.13 210.424L1237.5 189.828M1012.85 113.847L1197.87 108.481" stroke="#4048F5" stroke-linecap="round" stroke-linejoin="round"/>
        <path d="M1016.83 97.0586C1016.83 95.5009 1016.13 84.7701 1023.23 83.7317C1028.91 82.9009 1090.1 83.3855 1119.98 83.7317C1121.48 83.8471 1123.79 84.7701 1124.48 86.8471C1125.17 88.924 1125.35 93.2509 1124.83 94.8086M1004.02 97.5778V82.8663C1004.54 78.2509 1013.54 70.0586 1022.54 70.0586C1036.95 70.0586 1093.33 70.174 1119.98 70.4047C1127.77 69.8855 1137.39 74.7317 1137.81 83.7317C1138.22 92.7317 1137.98 93.5971 1137.98 94.8086" stroke="#4048F5" stroke-width="2" stroke-linecap="round" stroke-linejoin="round"/>
        <path d="M1004.02 83.7285L990.519 98.0939" stroke="#4048F5" stroke-width="2" stroke-linecap="round" stroke-linejoin="round"/>
    </g>
</svg>
