<svg width="837" height="371" viewBox="0 0 837 371" fill="none" xmlns="http://www.w3.org/2000/svg">
    <g style="fill: none; stroke: #000000; stroke-width: 3px">
        <path d="M339.062 351.358L21.7893 356.466C18.1868 356.524 15.2969 359.461 15.2969 363.064V363.064C15.2969 366.744 18.307 369.713 21.9866 369.662L325.879 365.462" stroke="#606060" stroke-width="2" stroke-linecap="round" stroke-linejoin="round"/>
        <path d="M451.802 346.917L449.262 340.336L466.762 336.607L483.698 330.026M451.802 346.917L485.956 337.045L483.698 330.026M451.802 346.917L444.463 345.967L441.641 339.386M483.698 330.026L478.053 327.54M441.641 339.386L447.286 336.607M441.641 339.386L442.77 345.967L438.818 345.528L436.56 338.728M436.56 338.728L439.383 338.947M436.56 338.728L447.286 332.147H450.391C451.294 331.796 460.929 327.614 465.633 325.566H469.867L472.407 324.25L476.359 326.224" stroke="#606060" stroke-width="2" stroke-linecap="round" stroke-linejoin="round"/>
        <path d="M449.544 331.71C445.969 321.4 445.875 299.244 469.02 298.367C489.037 297.608 493.236 315.697 492.166 326.226C491.601 331.783 487.537 343.248 475.795 344.652C470.432 345.294 465.069 345.311 463.093 344.214" stroke="#606060" stroke-width="2" stroke-linecap="round" stroke-linejoin="round"/>
        <path d="M446.157 332.147C439.1 306.92 455.496 295.952 470.149 295.952C484.803 295.952 496.682 306.86 496.682 321.398C496.682 328.684 493.699 335.278 488.878 340.044" stroke="#606060" stroke-width="2" stroke-linecap="round"/>
        <path d="M483.699 299.244C487.274 300.048 495.102 301.745 497.812 302.096C499.152 302.269 502.803 302.307 506.845 302.283M506.845 302.283C510.103 302.264 513.615 302.204 516.377 302.144C517.734 302.114 519.098 302.199 520.392 302.61C525.43 304.21 532.728 308.622 532.531 317.232C532.384 323.609 529.615 328.791 526.815 332.263C524.652 334.944 523.46 338.56 524.627 341.801V341.801M506.845 302.283C513.901 303.098 528.071 307.097 528.297 316.574C528.523 326.05 520.864 333.684 517.006 336.316M512.208 306.044C515.689 307.58 522.482 312.187 521.805 318.329C521.127 324.471 516.818 331.125 514.748 333.684M498.377 303.851C501.764 305.752 508.369 311.485 507.691 319.206C507.014 326.928 503.269 333.83 501.482 336.316M489.344 311.09C486.71 312.625 481.667 317.056 482.57 322.497C483.473 327.937 488.215 331.198 490.473 332.149M459.989 345.53C461.776 346.553 466.989 348.425 473.537 347.723C478.042 347.24 481.826 345.415 484.3 343.775M486.804 341.801C486.275 342.325 485.423 343.031 484.3 343.775M484.3 343.775C485.323 343.994 487.763 344.301 489.344 343.775C490.807 343.287 494.963 341.384 497.289 340.292C497.63 340.132 497.905 339.865 498.077 339.53V339.53C498.27 339.156 498.594 338.866 498.988 338.716L511.12 334.087C512.741 333.469 514.573 334.071 515.512 335.53V335.53C516.828 337.575 515.825 340.312 513.498 341.023L507.572 342.832C504.388 343.804 502.085 346.573 501.71 349.881L501.482 351.891M498.377 341.801L497.559 347.679C497.371 349.027 498.033 350.353 499.223 351.014V351.014M502.893 352.33H509.385M518.417 340.704V340.704C518.417 341.746 519.34 342.548 520.372 342.402L524.627 341.801M524.627 341.801V343.775" stroke="#606060" stroke-width="2" stroke-linecap="round" stroke-linejoin="round"/>
        <path d="M511.078 354.084C511.737 352.183 513.449 348.337 515.03 348.161C517.006 347.942 515.312 344.213 519.264 344.213C522.425 344.213 527.168 344.213 529.143 344.213C529.52 343.482 531.006 341.975 533.942 341.8C535.615 341.7 536.817 342.212 537.611 342.834M538.74 344.213C538.578 343.835 538.211 343.304 537.611 342.834M517.571 355.181C520.205 351.817 526.038 345.397 528.297 346.626C529.367 347.208 529.95 348.011 530.446 348.819M540.152 351.232C539.211 351.671 536.652 352.417 533.942 351.891C531.839 351.482 531.259 350.143 530.446 348.819M530.446 348.819C531.436 348.819 537.705 348.381 540.716 348.161L551.442 356.058C551.254 357.228 548.45 359.349 538.74 358.471M522.934 354.084L524.627 351.891M526.321 350.136L527.45 348.819M537.611 342.834C538.176 342.239 541.563 336.974 546.926 337.851C551.216 338.553 553.606 340.776 554.265 341.8C556.805 341.319 562.338 340.854 564.144 342.834C565.951 344.815 565.461 347.65 564.991 348.819C565.273 349.404 567.362 350.706 573.459 351.232C579.556 351.759 575.058 352.768 572.048 353.207M567.814 353.207C568.096 353.865 568.209 355.181 566.402 355.181C564.596 355.181 553.418 355.181 548.055 355.181" stroke="#606060" stroke-width="2" stroke-linecap="round" stroke-linejoin="round"/>
        <path d="M531.683 333.683C532.624 334.049 535.748 334.867 540.716 335.218C545.684 335.569 549.372 334.341 550.595 333.683L547.772 330.392L544.668 331.709M545.797 329.734C544.856 328.93 542.692 327.365 541.563 327.541C540.434 327.716 536.388 330.685 534.506 332.147M531.683 324.031C534.318 323.153 539.982 321.75 541.563 323.153C543.143 324.557 546.926 325.786 548.619 326.225M552.289 326.225H557.369M544.668 307.798C547.584 307.359 553.813 307.666 555.394 312.405M552.289 305.385C553.418 305.531 555.845 306.219 556.523 307.798M544.103 301.656L542.409 302.972M540.716 300.34L536.482 302.972M535.353 304.069L533.377 305.385M500.917 292.881C504.492 292.004 512.038 290.776 513.618 292.881C515.594 295.514 517.006 297.269 519.546 297.488C522.086 297.707 528.014 293.978 531.683 293.978C533.117 293.978 535.24 294.681 537.329 295.525M600.274 316.792H573.176L563.579 307.798C563.579 304.8 563.015 298.234 560.757 295.952C557.934 293.101 544.668 298.146 544.103 298.365C543.759 298.499 540.586 296.841 537.329 295.525M555.394 332.147L616.645 331.709M537.329 295.525C537.611 293.108 538.006 287.836 537.329 286.081C536.651 284.326 534.412 283.595 533.377 283.449L532.812 277.087L538.74 275.552C539.587 276.649 541.732 278.886 543.539 279.062C545.345 279.237 552.947 278.257 556.523 277.745M556.523 277.745C555.864 278.769 554.942 281.08 556.523 282.133C558.103 283.186 559.251 283.449 559.628 283.449M556.523 277.745L560.757 278.403V281.475L563.579 283.449C563.579 283.916 563.543 284.54 563.448 285.204M559.628 283.449L558.499 286.081L552.289 288.055L554.829 290.688L552.289 293.978L556.24 292.443L556.523 288.933C557.558 289.225 560.023 289.635 561.603 288.933C562.704 288.444 563.23 286.723 563.448 285.204M559.628 283.449L563.448 285.204" stroke="#606060" stroke-width="2" stroke-linecap="round" stroke-linejoin="round"/>
        <path d="M563.862 284.108L572.047 286.74C571.815 287.245 571.56 287.926 571.341 288.714M584.185 316.793V312.186L581.08 310.431C579.01 307.36 574.305 300.384 572.047 297.05C570.346 294.538 570.674 291.122 571.341 288.714M571.341 288.714L578.822 290.908L580.797 297.489L585.596 307.799L586.16 311.747L589.265 313.283L617.21 312.186M568.942 278.404C570.73 276.43 574.983 272.481 577.693 272.481C579.842 272.481 582.014 273.769 583.338 274.813M606.484 273.578H609.588M606.484 273.578C606.402 274.786 605.694 277.444 603.579 279.501M606.484 273.578C606.201 272.847 605.354 271.034 604.225 269.63C602.814 267.875 593.782 265.681 591.241 265.023C589.209 264.497 587.007 265.389 586.16 265.9C585.502 268.46 584.015 273.825 583.338 274.813M603.579 279.501C603.263 279.809 602.914 280.104 602.532 280.378C599.596 282.484 595.099 281.987 593.217 281.475L584.185 275.552C583.97 275.341 583.683 275.085 583.338 274.813M603.579 279.501L587.29 273.578L583.338 274.813" stroke="#606060" stroke-width="2" stroke-linecap="round" stroke-linejoin="round"/>
        <path d="M590.959 265.024L588.136 272.483" stroke="#606060" stroke-width="2" stroke-linecap="round" stroke-linejoin="round"/>
        <path d="M599.428 286.958C601.309 287.47 605.694 288.186 608.178 286.958C610.662 285.729 612.035 283.229 612.412 282.132" stroke="#606060" stroke-width="2" stroke-linecap="round" stroke-linejoin="round"/>
        <path d="M480.876 298.587C485.11 295.589 494.199 288.847 496.683 285.863C499.167 282.88 499.976 278.186 500.07 276.212M500.07 276.212C501.274 274.864 503.095 272.791 504.586 271.019M500.07 276.212C502.422 275.627 507.126 274.062 507.126 272.482C507.126 270.903 505.433 270.848 504.586 271.019M511.925 261.295L517.57 253.178C517.585 253.099 517.587 253.004 517.57 252.898M517.57 252.898C517.48 252.323 516.846 251.43 514.748 250.985C512.264 250.458 508.632 257.054 507.126 260.417L509.667 262.611C508.82 264.073 507.126 267.13 507.126 267.656C507.126 267.913 506.006 269.33 504.586 271.019M517.57 252.898L522.086 254.495L519.264 260.417M519.264 260.417L509.667 265.463C510.231 266.048 511.36 267.788 511.36 270.069C511.36 272.351 509.29 275.553 508.255 276.87L511.925 282.354M519.264 260.417L525.474 263.927M519.264 262.611L517.57 265.463L519.264 274.457L515.877 278.844M515.877 278.844L520.393 281.038M515.877 278.844L511.925 282.354M520.393 281.038L525.474 276.212C524.345 274.457 522.256 270.508 522.933 268.753C523.611 266.998 524.909 264.805 525.474 263.927M520.393 281.038C518.511 281.842 514.465 283.494 513.336 283.67C512.207 283.845 511.925 282.866 511.925 282.354M525.474 263.927C525.85 262.83 527.449 261.032 530.837 262.611C535.071 264.585 532.53 266.998 536.764 266.779C540.151 266.603 544.95 263.05 546.926 261.295M529.143 265.463V267.656M532.812 267.656V269.631M527.732 268.753V272.482" stroke="#606060" stroke-width="2" stroke-linecap="round" stroke-linejoin="round"/>
        <path d="M557.088 256.029L556.241 258.003M559.628 254.055L558.781 256.029M563.58 248.79L565.838 249.448M569.79 245.938C568.755 244.476 566.233 241.902 564.427 243.306C562.168 245.061 558.499 252.3 555.394 252.08C552.891 251.903 551.489 248.021 547.491 246.521M530.837 249.887C533.001 248.57 538.684 245.938 544.103 245.938C545.417 245.938 546.529 246.161 547.491 246.521M547.491 246.521C546.738 244.499 545.345 240.366 545.797 240.015C546.249 239.664 548.243 238.407 549.184 237.822C549.561 238.114 550.426 238.699 550.878 238.699C551.329 238.699 553.136 238.114 553.983 237.822M553.983 237.822L557.088 244.183M553.983 237.822L559.628 240.015L561.039 243.306M555.394 245.938L553.418 248.351M517.853 252.738L520.111 250.764V246.521L523.216 238.699C522.651 237.383 521.579 234.136 521.805 231.68C522.03 229.223 527.168 225.684 529.708 224.221C530.178 226.195 532.756 229.705 539.305 227.95C547.491 225.757 544.386 218.956 549.184 219.176C553.023 219.351 556.053 222.613 557.088 224.221C558.875 222.247 563.749 218.781 568.943 220.711C574.136 222.642 577.128 224.879 577.975 225.757M557.088 211.059C558.969 211.425 563.354 211.937 565.838 211.059C568.943 209.963 570.636 207.988 574.306 209.963C577.241 211.542 584.373 218.518 587.572 221.808C590.113 222.393 595.476 224.002 596.605 225.757C597.734 227.512 597.075 229.413 596.605 230.144L592.088 234.751V236.067M584.185 259.977C583.432 258.661 582.943 254.932 587.008 250.545C591.072 246.157 598.863 249.74 602.25 252.08C602.438 250.983 602.532 248.219 601.403 245.938C600.274 243.657 594.723 241.039 592.088 240.015V236.067M592.088 236.067L598.298 233.654L599.992 237.822L608.178 249.887M608.178 249.887L605.073 250.764M608.178 249.887L609.871 252.08L611 247.474C611.196 245.688 611.279 242.786 610.872 240.015M598.298 230.144C600.274 230.144 605.016 230.846 608.178 233.654C609.697 235.003 610.494 237.453 610.872 240.015M610.872 240.015H618.339L617.492 250.764H614.952M617.492 252.738V258.003" stroke="#606060" stroke-width="2" stroke-linecap="round" stroke-linejoin="round"/>
        <path d="M573.609 143.795C566.864 146.145 552.576 151.582 549.388 154.526C546.199 157.469 536.409 168.016 531.912 172.922C531.605 178.951 530.195 191.133 524.554 196.529C518.912 201.925 508.508 206.545 504.318 207.567C509.939 202.968 521.794 201.128 527.006 188.251C528.414 184.773 530.686 176.907 528.846 172.922C522.816 168.425 507.323 160.474 500.946 158.511C492.974 156.059 485.003 170.162 481.63 172.922C478.932 175.129 474.374 174.148 465.074 180.893H448.824M573.609 143.795C571.872 146.043 568.213 151.337 567.477 154.526C566.741 157.714 558.177 170.162 553.987 175.987M573.609 143.795C575.96 141.444 581.642 135.823 585.566 132.144C590.472 127.545 599.056 112.215 604.269 114.668C609.481 117.121 611.014 122.946 615.306 127.545C618.74 131.224 624.708 138.889 627.263 142.262C631.147 143.897 639.159 147.903 640.14 150.847C641.367 154.526 646.272 158.511 646.272 162.804C646.272 163.862 646.272 165.161 646.18 166.483M642.593 177.52C642.593 177.52 635.054 169.931 632.782 168.163M642.593 177.52C641.06 179.053 646.272 180.893 649.645 184.572C652.343 187.515 653.426 197.654 653.631 202.355C651.178 197.96 645.046 187.945 640.14 183.039C635.235 178.134 633.191 171.078 632.782 168.163M642.593 177.52C642.593 177.52 644.56 172.848 645.368 170.775M642.593 177.52C643.819 176.294 644.954 172.513 645.368 170.775M590.778 197.756C595.275 192.237 605.127 181.138 608.561 180.893C612.853 180.586 619.905 165.257 624.504 164.337C627.109 163.816 629.813 165.853 632.782 168.163M645.368 170.775C645.85 169.536 646.075 167.995 646.18 166.483M646.18 166.483C648.725 165.563 658.536 154.219 661.909 149.007C665.281 143.795 668.96 133.371 675.399 134.904C681.837 136.437 686.743 158.511 692.875 158.511C699.007 158.511 714.337 160.511 716.483 164.337C718.2 167.398 718.629 186.665 718.629 195.916C719.344 187.74 722.063 171.695 727.214 172.922C733.652 174.454 741.317 191.011 747.449 193.463C752.354 195.426 764.005 195.916 769.217 195.916H807.542M441.466 180.893H431.042" stroke="#606060" stroke-width="2" stroke-linecap="round" stroke-linejoin="round"/>
        <path d="M544.95 215.886L539.304 219.616L542.974 224.441H529.143L526.885 220.712C527.543 218.957 529.086 215.053 529.989 213.473C531.119 211.499 539.304 212.157 539.304 210.841C539.304 209.788 538.175 208.501 537.611 207.989L554.547 206.234V207.989M544.95 215.886L546.643 218.08M544.95 215.886L550.03 214.79L552.571 218.08M554.547 217.203L558.498 213.473L555.958 209.086L552.571 212.157" stroke="#606060" stroke-width="2" stroke-linecap="round" stroke-linejoin="round"/>
        <path d="M529.426 220.711L539.305 219.834M556.523 206.233C557.088 204.113 559.289 200.179 563.58 201.407C567.87 202.636 569.696 205.137 570.072 206.233H573.177C574.306 206.453 576.62 207.111 576.846 207.988" stroke="#606060" stroke-width="2" stroke-linecap="round" stroke-linejoin="round"/>
        <path d="M623.137 255.152C623.137 255.59 619.186 273.578 642.331 284.546C665.477 295.515 676.485 300.779 679.308 293.102C682.131 285.424 676.768 279.72 666.324 267.436C657.969 257.609 639.885 252.958 631.888 251.861M628.5 251.861L624.266 253.616M622.291 254.274L611.564 264.146C609.589 268.314 607.5 278.448 614.952 285.643C622.403 292.838 631.041 299.317 634.428 301.657C637.815 303.485 646.509 307.141 654.186 307.141C661.864 307.141 671.122 301.291 674.792 298.366" stroke="#606060" stroke-width="2" stroke-linecap="round" stroke-linejoin="round"/>
        <path d="M666.932 285.874C666.227 286.404 665.185 286.705 663.77 286.709C662.347 286.714 660.618 286.414 658.682 285.801C654.811 284.575 650.313 282.159 646.152 278.819C641.991 275.478 639.03 271.905 637.58 268.859C636.854 267.335 636.526 265.982 636.578 264.877C636.629 263.778 637.05 262.978 637.755 262.448C638.46 261.918 639.502 261.617 640.917 261.613C642.34 261.609 644.069 261.908 646.005 262.521C649.876 263.747 654.374 266.163 658.535 269.504C662.696 272.844 665.657 276.417 667.107 279.463C667.833 280.987 668.161 282.34 668.109 283.445C668.058 284.544 667.637 285.344 666.932 285.874Z" stroke="#606060" stroke-width="2"/>
        <path d="M617.492 258.662C616.363 261.075 614.444 266.34 615.798 268.095C617.492 270.288 623.42 274.895 623.702 277.747C623.984 280.598 622.855 283.231 629.065 285.424C634.033 287.179 641.673 291.42 644.872 293.321C646.659 295.588 651.138 300.297 654.751 300.999C658.364 301.701 666.23 302.023 669.711 302.096M614.387 261.953C613.446 264.146 611.847 269.06 612.976 271.166C614.387 273.798 620.315 280.16 620.315 282.134C620.315 284.108 623.984 286.741 626.524 287.837C629.065 288.934 637.815 292.444 642.049 295.734C646.283 299.025 649.67 302.315 653.622 303.193C656.783 303.895 663.595 303.778 666.606 303.631M610.435 268.095C610.812 270.508 611.847 275.641 612.976 276.869C614.387 278.405 617.21 286.521 619.186 287.837C621.161 289.154 631.323 292.444 635.275 295.734C639.226 299.025 642.049 303.193 649.67 304.728C655.767 305.957 660.867 305.679 662.654 305.386" stroke="#606060" stroke-width="2" stroke-linecap="round" stroke-linejoin="round"/>
        <path d="M626.806 317.89C626.355 316.661 618.339 312.113 614.387 309.993L615.234 309.664M626.806 312.625L619.468 308.019L615.234 309.664M615.234 309.664C615.459 309.05 615.328 305.679 615.234 304.07L620.314 301.218V304.07M621.726 302.096L627.653 305.386M627.653 305.386V325.348C628.594 326.811 633.524 330.086 645.718 331.49C657.912 332.894 664.348 332.66 666.041 332.368M627.653 305.386L632.452 302.096M692.856 329.735C695.303 329.443 700.478 328.156 701.607 325.348C702.409 323.353 702.309 317.549 702.015 312.625M675.074 300.341C678.273 300.414 686.308 300.692 692.856 301.218C699.405 301.745 701.418 305.532 701.607 307.36C701.743 308.758 701.895 310.618 702.015 312.625M629.911 312.625C633.204 311.236 640.525 309.071 643.46 311.528C647.13 314.599 657.856 315.257 661.243 315.038C664.63 314.819 674.509 309.115 681.848 309.993C689.187 310.87 688.905 314.161 692.574 314.599C695.51 314.95 700.091 313.429 702.015 312.625" stroke="#606060" stroke-width="2" stroke-linecap="round" stroke-linejoin="round"/>
        <path d="M627.371 316.792C629.159 315.623 633.355 313.634 635.839 315.038C638.944 316.792 645.154 320.741 651.928 320.741C658.702 320.741 673.662 313.941 679.59 315.038C685.518 316.134 691.163 320.083 694.268 319.864C696.752 319.688 700.572 318.474 702.171 317.889M627.371 322.277C627.371 321.618 633.581 319.205 636.686 320.741C639.791 322.277 644.871 326.883 655.88 326.225C666.888 325.567 676.767 318.986 680.719 319.864C684.671 320.741 687.493 324.69 692.856 324.909C697.147 325.084 700.854 323.227 702.171 322.277" stroke="#606060" stroke-width="2" stroke-linecap="round" stroke-linejoin="round"/>
        <path d="M632.734 340.703H704.147C705.182 340.338 707.026 339.256 706.123 337.852C705.22 336.448 699.725 335.365 697.091 335C694.08 336.097 687.606 338.203 685.8 337.852M632.734 339.168C634.146 337.778 637.815 335 641.202 335C645.436 335 646.283 336.097 647.13 336.097C647.976 336.097 650.235 333.245 652.775 334.122C655.315 335 655.598 336.755 656.444 336.755C657.122 336.755 665.383 332.368 669.429 330.174H675.215M681.001 330.174H675.215M675.215 330.174C676.673 327.761 680.493 323.242 684.106 324.47C687.719 325.699 691.822 329.223 693.421 330.832M694.832 333.026L695.397 333.684M672.534 333.026L671.122 334.122M671.122 336.097L674.227 337.852M668.582 335L666.324 336.755" stroke="#606060" stroke-width="2" stroke-linecap="round" stroke-linejoin="round"/>
        <path d="M1.5 250.797H32.5401M32.5401 269.193H46.263" stroke="#606060" stroke-width="2" stroke-linecap="round" stroke-linejoin="round"/>
        <path d="M714.949 322.539H794.971V239.758C794.153 236.386 794.848 229.456 804.169 228.721C813.489 227.985 828.696 228.414 835.135 228.721M714.949 315.794H788.839V239.758C788.021 233.728 789.452 221.669 801.716 221.669C813.98 221.669 826.039 221.669 830.536 221.669" stroke="#606060" stroke-width="2" stroke-linecap="round" stroke-linejoin="round"/>
        <path d="M150.897 277.071H109.283V204.906H80.3119L69.5135 225.976M72.1473 225.976L81.6288 207.54H143.522V219.129L69.2501 244.939V240.265M144.312 303.146V300.397C144.312 293.624 149.803 288.133 156.576 288.133H198.419C205.193 288.133 210.683 293.624 210.683 300.397V303.146V311.952C210.683 318.725 205.193 324.216 198.419 324.216H156.576C149.803 324.216 144.312 318.725 144.312 311.952V303.146Z" stroke="#606060" stroke-width="2" stroke-linecap="round" stroke-linejoin="round"/>
        <path d="M114.326 204.806H143.453" stroke="#606060" stroke-width="2" stroke-linecap="round" stroke-linejoin="round"/>
        <rect x="67.0895" y="226.45" width="8.53505" height="13.2758" stroke="#606060" stroke-width="2"/>
        <path d="M94.2711 271.541V263.903H106.913V268.381L97.695 271.541H94.2711Z" stroke="#606060" stroke-width="2" stroke-linecap="round" stroke-linejoin="round"/>
        <path d="M66.3525 237.04L63.4554 243.098V294.456M54.5006 294.456H78.9946C81.8917 289.628 87.1593 279.302 94.7972 278.127C100.761 277.209 108.932 276.985 112.18 277.073" stroke="#606060" stroke-width="2" stroke-linecap="round" stroke-linejoin="round"/>
        <path d="M54.5006 294.981V244.939L75.8341 200.692M75.8341 200.692L147.209 199.426M75.8341 200.692C73.2881 199.902 69.355 196.162 73.9905 187.523C78.6259 178.884 89.0029 173.301 95.8507 173.301H147.209V199.426M151.686 277.071L150.106 199.375L147.209 199.426" stroke="#606060" stroke-width="2" stroke-linecap="round" stroke-linejoin="round"/>
        <path d="M54.5012 294.718H52.3942V308.15M81.6289 306.307V297.088C84.4383 290.855 92.6381 278.652 110.337 279.706C128.036 280.759 138.518 291.821 137.201 314.735" stroke="#606060" stroke-width="2" stroke-linecap="round" stroke-linejoin="round"/>
        <path d="M54.2379 308.15V320.792H81.3657V308.15H85.3163C85.4041 300.073 87.16 282.866 110.074 282.866C129.687 282.866 134.392 303.761 134.304 314.735H137.201" stroke="#606060" stroke-width="2" stroke-linecap="round" stroke-linejoin="round"/>
        <path d="M113.551 311.31C113.551 313.622 111.569 315.578 109.02 315.578C106.471 315.578 104.489 313.622 104.489 311.31C104.489 308.999 106.471 307.043 109.02 307.043C111.569 307.043 113.551 308.999 113.551 311.31Z" stroke="#606060" stroke-width="2"/>
        <path d="M130.407 311.311C130.407 323.279 120.821 332.961 109.02 332.961C97.2192 332.961 87.6329 323.279 87.6329 311.311C87.6329 299.342 97.2192 289.66 109.02 289.66C120.821 289.66 130.407 299.342 130.407 311.311Z" stroke="#606060" stroke-width="2"/>
        <path d="M141.416 277.335V281.022H151.687V277.335" stroke="#606060" stroke-width="2" stroke-linecap="round" stroke-linejoin="round"/>
        <path d="M141.415 281.022H138.781V317.895H144.839M210.42 317.105H265.466M266.519 311.047H258.618L243.079 275.492H309.976V249.681H362.125C363.003 253.017 366.023 260.584 371.079 264.166C376.136 267.748 386.619 273.648 394.783 272.068V277.335H408.742L393.466 304.726L393.993 311.837H385.565" stroke="#606060" stroke-width="2" stroke-linecap="round" stroke-linejoin="round"/>
        <path d="M313.664 276.019H340.001M345.269 276.019H391.623" stroke="#606060" stroke-width="2" stroke-linecap="round" stroke-linejoin="round"/>
        <path d="M245.185 280.497H166.699V233.616H162.485M150.897 233.616H155.374M162.485 233.616L195.934 130.372L311.82 208.832M162.485 233.616H155.374M189.613 126.948L155.374 233.616M398.997 267.855L317.35 212.576M317.35 212.576L255.457 237.566L309.976 259.69M317.35 212.576L311.82 208.832M311.82 208.832L240.708 237.566V239.937L309.976 266.538" stroke="#606060" stroke-width="2" stroke-linecap="round" stroke-linejoin="round"/>
        <path d="M399.261 268.381L450.356 195.689L231.49 48.988L234.708 22.7858C234.995 20.4487 233.919 18.1537 231.938 16.8804L211.776 3.91942C208.586 1.86866 204.318 3.17623 202.824 6.66198L202.519 7.37454L212.305 12.4488C214.888 13.7881 216.174 16.7582 215.384 19.5583L185.663 124.84L189.613 126.947" stroke="#606060" stroke-width="2" stroke-linecap="round" stroke-linejoin="round"/>
        <path d="M259.671 81.3839L225.432 57.9434L209.103 128.001L243.868 151.442L259.671 81.3839Z" stroke="#606060" stroke-width="2" stroke-linecap="round" stroke-linejoin="round"/>
        <path d="M309.976 114.568L275.737 91.1279L259.408 161.186L294.174 184.627L309.976 114.568Z" stroke="#606060" stroke-width="2" stroke-linecap="round" stroke-linejoin="round"/>
        <path d="M360.544 150.389L326.305 126.948L309.976 197.006L344.741 220.447L360.544 150.389Z" stroke="#606060" stroke-width="2" stroke-linecap="round" stroke-linejoin="round"/>
        <path d="M413.219 184.627L378.98 161.187L362.651 231.245L397.417 254.685L413.219 184.627Z" stroke="#606060" stroke-width="2" stroke-linecap="round" stroke-linejoin="round"/>
        <path d="M265.728 317.105C265.728 314.998 265.743 313.532 265.852 311.048C266.473 296.913 272.742 277.482 294.963 278.916C321.09 280.601 324.988 304.024 323.671 315.525" stroke="#606060" stroke-width="2" stroke-linecap="round" stroke-linejoin="round"/>
        <path d="M327.095 315.336C327.095 313.229 326.986 317.821 327.095 315.336ZM327.095 315.336C327.77 299.985 334.371 277.293 356.592 278.727C382.719 280.412 386.617 303.835 385.3 315.336" stroke="#606060" stroke-width="2" stroke-linecap="round" stroke-linejoin="round"/>
        <path d="M316.877 311.048C316.877 323.765 306.916 334.016 294.7 334.016C282.483 334.016 272.522 323.765 272.522 311.048C272.522 298.332 282.483 288.081 294.7 288.081C306.916 288.081 316.877 298.332 316.877 311.048Z" stroke="#606060" stroke-width="2"/>
        <path d="M379.034 313.68C379.034 326.396 369.074 336.647 356.857 336.647C344.64 336.647 334.68 326.396 334.68 313.68C334.68 300.964 344.64 290.713 356.857 290.713C369.074 290.713 379.034 300.964 379.034 313.68Z" stroke="#606060" stroke-width="2"/>
        <path d="M300.021 311.046C300.021 314.169 297.6 316.631 294.7 316.631C291.799 316.631 289.379 314.169 289.379 311.046C289.379 307.923 291.799 305.462 294.7 305.462C297.6 305.462 300.021 307.923 300.021 311.046Z" stroke="#606060" stroke-width="2"/>
        <path d="M362.178 313.682C362.178 316.805 359.758 319.266 356.857 319.266C353.957 319.266 351.536 316.805 351.536 313.682C351.536 310.559 353.957 308.098 356.857 308.098C359.758 308.098 362.178 310.559 362.178 313.682Z" stroke="#606060" stroke-width="2"/>
    </g>
</svg>
