<svg width="909" height="445" viewBox="0 0 909 445" fill="none" xmlns="http://www.w3.org/2000/svg">
<g opacity="0.1" style="fill: none; stroke: #000000; stroke-width: 3px">
<path d="M256.442 238.057V241.638M256.442 241.638H261.651V311.641H236.581V241.638H256.442Z" stroke="white" stroke-width="3" stroke-linecap="round" stroke-linejoin="round"/>
<path d="M303.653 237.731V241.313M303.653 241.313H322.538V311.642H297.792V241.313H303.653Z" stroke="white" stroke-width="3" stroke-linecap="round" stroke-linejoin="round"/>
<path d="M4.75595 329.55H64.8284H94.8647H117.738M564.781 329.55H485.336H421.844M698.927 329.55H754.929M830.467 329.55H907.308M414.03 329.55H365.191H245.046H184.973H154.937H125.552" stroke="white" stroke-width="3" stroke-linecap="round" stroke-linejoin="round"/>
<path d="M736.696 442.804H742.186M763.955 442.804H753.07M742.186 442.804L763.955 397.94L776.638 327.899V223.216L790.457 202.771L803.708 223.216V327.899L820.366 397.94L839.107 442.804H828.317L797.84 397.94H784.778L753.07 442.804M742.186 442.804H753.07" stroke="white" stroke-width="3" stroke-linecap="round" stroke-linejoin="round"/>
<path d="M790.457 190.846V203.15" stroke="white" stroke-width="3" stroke-linecap="round" stroke-linejoin="round"/>
<path d="M776.26 289.66L804.465 328.467H776.26L804.465 289.66M776.26 289.66H804.465M776.26 289.66L804.465 253.883L776.26 226.056H804.465L776.26 253.883L804.465 289.66M804.465 270.163L840.622 289.66H738.589L776.26 270.163M763.766 397.751H820.366L768.12 374.656L810.523 355.726L774.556 339.446H806.548L771.338 357.619L814.877 374.656L763.766 397.751Z" stroke="white" stroke-width="3" stroke-linecap="round" stroke-linejoin="round"/>
<path d="M804.465 226.056L835.7 243.471H745.214L776.07 226.056" stroke="white" stroke-width="3" stroke-linecap="round" stroke-linejoin="round"/>
<path d="M817.527 443.183H850.087" stroke="white" stroke-width="3" stroke-linecap="round" stroke-linejoin="round"/>
<path d="M751.083 244.039V246.784V248.156M760.737 244.039V246.784V248.156M751.083 255.018V252.274V251.611M760.737 255.018V252.274V251.422M751.083 258.047V260.508V265.998H760.737V260.508V258.047" stroke="white" stroke-width="3" stroke-linecap="round" stroke-linejoin="round"/>
<path d="M818.473 244.039V246.784V248.156M828.127 244.039V246.784V248.156M818.473 255.018V252.274V251.611M828.127 255.018V252.274V251.422M818.473 258.047V260.508V265.998H828.127V260.508V258.047" stroke="white" stroke-width="3" stroke-linecap="round" stroke-linejoin="round"/>
<path d="M823.774 289.85V292.594V293.967M833.428 289.85V292.594V293.967M823.774 300.829V298.084V297.422M833.428 300.829V298.084V297.232M823.774 303.858V306.319V311.808H833.428V306.319V303.858" stroke="white" stroke-width="3" stroke-linecap="round" stroke-linejoin="round"/>
<path d="M746.539 289.85V292.594V293.967M756.194 289.85V292.594V293.967M746.539 300.829V298.084V297.422M756.194 300.829V298.084V297.232M746.539 303.858V306.319V311.808H756.194V306.319V303.858" stroke="white" stroke-width="3" stroke-linecap="round" stroke-linejoin="round"/>
<path d="M818.284 244.039V265.998H827.938V244.039" stroke="white" stroke-width="3" stroke-linecap="round" stroke-linejoin="round"/>
<rect x="746.066" y="249.055" width="19.4979" height="1.7037" rx="0.85185" stroke="white" stroke-width="1.7037"/>
<rect x="813.457" y="249.055" width="19.4979" height="1.7037" rx="0.85185" stroke="white" stroke-width="1.7037"/>
<rect x="818.757" y="294.866" width="19.4979" height="1.7037" rx="0.85185" stroke="white" stroke-width="1.7037"/>
<rect x="741.523" y="294.866" width="19.4979" height="1.7037" rx="0.85185" stroke="white" stroke-width="1.7037"/>
<rect x="745.688" y="255.87" width="19.4979" height="1.7037" rx="0.85185" stroke="white" stroke-width="1.7037"/>
<rect x="813.078" y="255.87" width="19.4979" height="1.7037" rx="0.85185" stroke="white" stroke-width="1.7037"/>
<rect x="818.379" y="301.681" width="19.4979" height="1.7037" rx="0.85185" stroke="white" stroke-width="1.7037"/>
<rect x="741.144" y="301.681" width="19.4979" height="1.7037" rx="0.85185" stroke="white" stroke-width="1.7037"/>
<path d="M571.293 328.846H576.783M598.552 328.846H587.667M576.783 328.846L598.552 283.982L611.235 213.941V109.258L625.054 88.8135L638.305 109.258V213.941L654.964 283.982L673.704 328.846H662.914L632.437 283.982H619.375L587.667 328.846M576.783 328.846H587.667" stroke="white" stroke-width="3" stroke-linecap="round" stroke-linejoin="round"/>
<path d="M625.054 76.8877V89.1922" stroke="white" stroke-width="3" stroke-linecap="round" stroke-linejoin="round"/>
<path d="M610.857 175.702L639.062 214.509H610.857L639.062 175.702M610.857 175.702H639.062M610.857 175.702L639.062 139.925L610.857 112.098H639.062L610.857 139.925L639.062 175.702M639.062 156.205L675.219 175.702H573.186L610.857 156.205M598.363 283.793H654.964L602.717 260.698L645.12 241.768L609.153 225.488H641.145L605.935 243.661L649.474 260.698L598.363 283.793Z" stroke="white" stroke-width="3" stroke-linecap="round" stroke-linejoin="round"/>
<path d="M639.062 112.098L670.297 129.513H579.812L610.667 112.098" stroke="white" stroke-width="3" stroke-linecap="round" stroke-linejoin="round"/>
<path d="M652.124 329.225H684.684" stroke="white" stroke-width="3" stroke-linecap="round" stroke-linejoin="round"/>
<path d="M585.68 130.081V132.826V134.198M595.334 130.081V132.826V134.198M585.68 141.06V138.316V137.653M595.334 141.06V138.316V137.464M585.68 144.089V146.55V152.04H595.334V146.55V144.089" stroke="white" stroke-width="3" stroke-linecap="round" stroke-linejoin="round"/>
<path d="M653.07 130.081V132.826V134.198M662.725 130.081V132.826V134.198M653.07 141.06V138.316V137.653M662.725 141.06V138.316V137.464M653.07 144.089V146.55V152.04H662.725V146.55V144.089" stroke="white" stroke-width="3" stroke-linecap="round" stroke-linejoin="round"/>
<path d="M658.371 175.892V178.636V180.009M668.025 175.892V178.636V180.009M658.371 186.871V184.126V183.464M668.025 186.871V184.126V183.274M658.371 189.9V192.361V197.85H668.025V192.361V189.9" stroke="white" stroke-width="3" stroke-linecap="round" stroke-linejoin="round"/>
<path d="M581.137 175.892V178.636V180.009M590.791 175.892V178.636V180.009M581.137 186.871V184.126V183.464M590.791 186.871V184.126V183.274M581.137 189.9V192.361V197.85H590.791V192.361V189.9" stroke="white" stroke-width="3" stroke-linecap="round" stroke-linejoin="round"/>
<path d="M652.881 130.081V152.04H662.536V130.081" stroke="white" stroke-width="3" stroke-linecap="round" stroke-linejoin="round"/>
<rect x="580.663" y="135.097" width="19.4979" height="1.7037" rx="0.85185" stroke="white" stroke-width="1.7037"/>
<rect x="648.054" y="135.097" width="19.4979" height="1.7037" rx="0.85185" stroke="white" stroke-width="1.7037"/>
<rect x="653.354" y="180.908" width="19.4979" height="1.7037" rx="0.85185" stroke="white" stroke-width="1.7037"/>
<rect x="576.12" y="180.908" width="19.4979" height="1.7037" rx="0.85185" stroke="white" stroke-width="1.7037"/>
<rect x="580.285" y="141.912" width="19.4979" height="1.7037" rx="0.85185" stroke="white" stroke-width="1.7037"/>
<rect x="647.675" y="141.912" width="19.4979" height="1.7037" rx="0.85185" stroke="white" stroke-width="1.7037"/>
<rect x="652.976" y="187.723" width="19.4979" height="1.7037" rx="0.85185" stroke="white" stroke-width="1.7037"/>
<rect x="575.741" y="187.723" width="19.4979" height="1.7037" rx="0.85185" stroke="white" stroke-width="1.7037"/>
<path d="M661.483 442.857H724.428M653.467 442.857H557.618M549.478 442.857H504.22M496.08 442.857H393.126C377.179 442.857 372.852 403.899 400.937 403.899C431.528 403.899 461.795 403.135 474.162 403.135M436.736 417.267C437.517 416.961 462.554 417.012 475.138 416.121" stroke="white" stroke-width="3" stroke-linecap="round" stroke-linejoin="round"/>
<path d="M667.019 147.541C674.106 165.911 682.222 182.931 692.365 198.66M741.906 251.732C729.367 242.328 718.659 232.242 709.364 221.451" stroke="white" stroke-width="3" stroke-linecap="round" stroke-linejoin="round"/>
<path d="M571.619 190.195C568.194 200.774 557.031 217.83 534.846 231.871M461.893 254.663C475.62 253.441 487.844 251.071 498.685 247.902M576.503 138.425C573.495 146.008 567.854 156.681 559.816 167.077M505.523 200.939C521.561 199.521 535.265 191.731 546.342 181.729" stroke="white" stroke-width="3" stroke-linecap="round" stroke-linejoin="round"/>
<path d="M673.53 192.148C678.504 207.049 684.078 221.039 690.737 234.15M736.696 293.734C724.894 283.503 715.014 272.443 706.568 260.524" stroke="white" stroke-width="3" stroke-linecap="round" stroke-linejoin="round"/>
<path d="M414.031 329.001V298.07C408.822 297.961 395.147 295.14 397.751 272.999C400.644 248.415 405.891 222.206 416.31 224.16C426.729 226.113 438.684 258.028 439.753 272.999C441.381 295.791 427.706 298.07 421.845 298.07V329.001M414.031 294.488V284.395C409.69 278.86 401.528 268.05 403.612 269.092C405.696 270.134 412.295 276.472 415.334 279.511L416.31 246.951L419.241 274.627C422.063 271.045 427.902 264.208 428.683 265.51C429.464 266.813 423.365 274.518 420.217 278.209V294.488" stroke="white" stroke-width="3" stroke-linecap="round" stroke-linejoin="round"/>
<path d="M386.029 261.5C379.191 260.198 368.121 258.57 360.307 243.267C357.117 237.021 356.617 236.646 357.051 237.081M354.446 237.081H227.138V227.964M240.813 227.964V235.127" stroke="white" stroke-width="3" stroke-linecap="round" stroke-linejoin="round"/>
<path d="M653.617 442.737V419.9C648.424 419.817 634.793 417.663 637.389 400.765C640.272 382.002 645.503 361.999 655.889 363.49C666.275 364.981 678.192 389.339 679.258 400.765C680.881 418.16 667.249 419.9 661.407 419.9V442.737M653.617 417.166V409.463C649.29 405.238 641.154 396.988 643.231 397.783C645.308 398.578 651.886 403.416 654.915 405.735L655.889 380.885L658.81 402.008C661.623 399.274 667.444 394.056 668.223 395.05C669.002 396.044 662.921 401.925 659.784 404.741V417.166" stroke="white" stroke-width="3" stroke-linecap="round" stroke-linejoin="round"/>
<path d="M117.686 328.898V300.684C112.493 300.585 98.8614 298.011 101.458 277.815C104.341 255.391 109.572 231.485 119.958 233.267C130.344 235.049 142.261 264.16 143.327 277.815C144.949 298.605 131.318 300.684 125.476 300.684V328.898M117.686 297.417V288.21C113.359 283.161 105.223 273.301 107.3 274.252C109.377 275.202 115.955 280.983 118.984 283.755L119.958 254.056L122.879 279.3C125.692 276.034 131.513 269.797 132.291 270.985C133.07 272.173 126.99 279.201 123.853 282.567V297.417" stroke="white" stroke-width="3" stroke-linecap="round" stroke-linejoin="round"/>
<path d="M549.426 442.857V415.294C544.233 415.195 530.602 412.621 533.198 392.426C536.081 370.001 541.312 346.095 551.698 347.877C562.084 349.659 574.001 378.77 575.067 392.426C576.69 413.215 563.058 415.294 557.216 415.294V442.857M549.426 412.027V402.821C545.099 397.772 536.963 387.912 539.04 388.862C541.118 389.812 547.695 395.594 550.725 398.366L551.698 368.667L554.62 393.911C557.432 390.644 563.253 384.407 564.032 385.595C564.811 386.783 558.731 393.812 555.593 397.178V412.027" stroke="white" stroke-width="3" stroke-linecap="round" stroke-linejoin="round"/>
<path d="M496.029 442.857V415.294C490.836 415.195 477.204 412.621 479.8 392.426C482.684 370.001 487.915 346.095 498.301 347.877C508.687 349.659 520.603 378.77 521.669 392.426C523.292 413.215 509.66 415.294 503.818 415.294V442.857M496.029 412.027V402.821C491.701 397.772 483.565 387.912 485.643 388.862C487.72 389.812 494.298 395.594 497.327 398.366L498.301 368.667L501.222 393.911C504.035 390.644 509.855 384.407 510.634 385.595C511.413 386.783 505.333 393.812 502.195 397.178V412.027" stroke="white" stroke-width="3" stroke-linecap="round" stroke-linejoin="round"/>
<path d="M259.372 198.009C241.697 194.377 235.251 190.131 228.115 179.775C224.859 183.465 218.998 190.194 209.881 189.869C200.765 189.543 198.594 188.458 197.183 188.241" stroke="white" stroke-width="3" stroke-linecap="round" stroke-linejoin="round"/>
<path d="M242.243 221.452C242.243 225.562 238.641 229.068 233.976 229.068C229.31 229.068 225.708 225.562 225.708 221.452C225.708 217.341 229.31 213.835 233.976 213.835C238.641 213.835 242.243 217.341 242.243 221.452Z" stroke="white" stroke-width="3"/>
<path d="M261.651 235.127V229.917H289.327M286.722 200.288V227.638M262.628 200.288V227.638M264.582 200.288H284.117M264.582 202.893H284.117M264.582 207.451H284.117M276.629 209.73V226.661M273.698 209.73V226.661M275.326 231.871V234.15M286.722 231.871V234.15M266.21 231.871V234.15M270.768 231.871V234.15M279.559 231.871V234.15M283.141 231.871V234.15M289.978 226.01C295.513 226.336 307.17 226.596 309.514 225.033C312.444 223.08 322.863 213.963 328.073 213.963C332.24 213.963 334.802 213.963 335.562 213.963V235.127M330.678 215.917V234.15M338.492 213.963C341.531 213.746 347.999 214.289 349.562 218.196C351.125 222.103 350.865 231.111 350.539 235.127M339.469 239.685V299.269M349.562 239.685C349.562 241.248 349.562 280.059 349.562 299.269M337.841 301.223H351.516V318.479H349.562M337.841 301.223L331.003 305.456V315.223H337.841V318.479H339.469M337.841 301.223V310.991M349.562 303.176V316.2M339.469 318.479V325.643M339.469 318.479H349.562M339.469 325.643H349.562M339.469 325.643H336.213V329.224M349.562 325.643V318.479M349.562 325.643H351.516V329.224" stroke="white" stroke-width="3" stroke-linecap="round" stroke-linejoin="round"/>
<mask id="path-53-inside-1_178_1133" fill="white">
<rect x="258.07" y="311.316" width="6.51192" height="11.0703" rx="1.95358"/>
</mask>
<rect x="258.07" y="311.316" width="6.51192" height="11.0703" rx="1.95358" stroke="white" stroke-width="6" mask="url(#path-53-inside-1_178_1133)"/>
<mask id="path-54-inside-2_178_1133" fill="white">
<rect x="295.188" y="311.316" width="6.51192" height="11.0703" rx="1.95358"/>
</mask>
<rect x="295.188" y="311.316" width="6.51192" height="11.0703" rx="1.95358" stroke="white" stroke-width="6" mask="url(#path-54-inside-2_178_1133)"/>
<path d="M263.93 313.921H296.164M263.93 318.805H296.164M261.651 322.061V324.34M298.118 322.061V324.34M260.674 330.201V324.34H299.42V329.55" stroke="white" stroke-width="3" stroke-linecap="round" stroke-linejoin="round"/>
<mask id="path-56-inside-3_178_1133" fill="white">
<rect x="222.254" y="151.123" width="10.4191" height="28.6525" rx="1.95358"/>
</mask>
<rect x="222.254" y="151.123" width="10.4191" height="28.6525" rx="1.95358" stroke="white" stroke-width="6" mask="url(#path-56-inside-3_178_1133)"/>
<path d="M226.813 155.03V157.635M226.813 160.239V171.635M226.813 174.24V176.519M194.579 145.913H226.813V148.843" stroke="white" stroke-width="3" stroke-linecap="round" stroke-linejoin="round"/>
<path d="M188.066 73.957V101.633" stroke="white" stroke-width="3" stroke-linecap="round" stroke-linejoin="round"/>
<path d="M182.206 105.54L179.601 101.633H196.532L194.253 105.54M182.206 105.54H194.253M182.206 105.54L179.601 235.778L176.019 240.337H179.601L176.019 323.038H171.461V328.573M194.253 105.54L196.532 235.778L199.462 240.337H196.532L199.462 323.038H204.346V328.573" stroke="white" stroke-width="3" stroke-linecap="round" stroke-linejoin="round"/>
<path d="M182.206 105.865L193.927 109.447L182.206 115.959L193.927 120.191L182.206 127.68L193.927 132.564L182.206 139.402L193.927 146.239L182.206 154.705L195.23 159.263L181.229 168.705L195.23 177.822L181.229 186.287L195.23 196.707L180.578 210.382L195.881 220.801L179.601 233.499H183.508M195.881 233.499H191.974M178.624 240.011H179.601M198.16 240.011H179.601M179.601 240.011L196.858 250.104L178.624 263.128L198.16 277.78L176.996 288.199H198.16M198.16 292.432L191.974 292.717M175.694 323.038L199.137 306.758L176.996 293.409L183.508 293.108M175.694 323.038H199.137V328.899M175.694 323.038V328.899M183.508 293.108V233.499M183.508 293.108L191.974 292.717M183.508 233.499H191.974M191.974 233.499V292.717M181.229 146.239H195.881" stroke="white" stroke-width="3" stroke-linecap="round" stroke-linejoin="round"/>
<path d="M1.5 93.4928H66.2936C73.7823 92.2989 91.6901 94.3867 91.6901 113.029C91.6901 189.218 172.763 269.64 178.95 101.958" stroke="white" stroke-width="3" stroke-linecap="round" stroke-linejoin="round"/>
<path d="M250.907 258.244L245.371 268.012L253.511 265.407L245.371 278.431" stroke="white" stroke-width="3" stroke-linecap="round" stroke-linejoin="round"/>
<path d="M312.444 257.919L306.909 267.687L315.049 265.082L306.909 278.106" stroke="white" stroke-width="3" stroke-linecap="round" stroke-linejoin="round"/>
<path d="M521.569 235.644L510.773 238.725L518.402 242.577L503.466 246.152" stroke="white" stroke-width="3" stroke-linecap="round" stroke-linejoin="round"/>
<path d="M693.468 238.064L695.29 249.142L699.992 242.005L701.829 257.253" stroke="white" stroke-width="3" stroke-linecap="round" stroke-linejoin="round"/>
<path d="M555.951 170.149L551.295 175.105L556.458 174.737L549.804 181.236" stroke="white" stroke-width="3" stroke-linecap="round" stroke-linejoin="round"/>
<path d="M694.453 203.169L697.113 209.427L698.856 204.553L702.124 213.262" stroke="white" stroke-width="3" stroke-linecap="round" stroke-linejoin="round"/>
<path d="M699.304 14.8924C697.042 14.8397 692.968 17.6767 691.214 19.1018C693.078 18.9264 697.081 18.6809 698.186 19.1018C699.567 19.628 701.146 24.3636 704.435 26.4026C707.723 28.4415 713.117 25.7448 715.813 26.4026C718.51 27.0603 720.352 29.5596 721.864 30.612C723.377 31.6644 725.613 31.467 727.652 30.612C729.283 29.928 729.998 27.9153 730.152 26.9945C727.981 26.3806 723.285 24.995 721.864 24.3636C720.088 23.5743 715.813 20.8119 717.852 21.5354C719.891 22.2589 727.126 18.0494 730.152 14.8924C733.177 11.7353 735.413 3.84256 734.558 2.26402C733.703 0.685475 726.797 6.60501 721.864 8.90705C717.918 10.7487 709.565 14.41 705.882 16.0105C704.632 15.6597 701.567 14.945 699.304 14.8924Z" stroke="white" stroke-width="3" stroke-linecap="round" stroke-linejoin="round"/>
<path d="M695.424 16.2082C693.187 13.0073 688.859 6.17131 689.175 3.64564C689.57 0.488557 699.962 11.8672 702.659 13.3142C704.816 14.4718 706.978 15.0243 707.789 15.1558" stroke="white" stroke-width="3" stroke-linecap="round" stroke-linejoin="round"/>
<path d="M743.453 49.0083C741.946 48.9733 739.233 50.8629 738.065 51.8122C739.306 51.6953 741.973 51.5318 742.709 51.8122C743.629 52.1626 744.68 55.317 746.871 56.6751C749.061 58.0332 752.654 56.237 754.45 56.6751C756.246 57.1132 757.473 58.778 758.48 59.479C759.488 60.1799 760.978 60.0485 762.336 59.479C763.422 59.0233 763.898 57.6827 764 57.0694C762.555 56.6605 759.427 55.7376 758.48 55.317C757.297 54.7913 754.45 52.9512 755.808 53.4331C757.166 53.9151 761.985 51.1112 764 49.0083C766.016 46.9054 767.505 41.6482 766.936 40.5968C766.366 39.5453 761.766 43.4882 758.48 45.0216C755.852 46.2483 750.288 48.687 747.834 49.7531C747.002 49.5194 744.961 49.0434 743.453 49.0083Z" stroke="white" stroke-width="3" stroke-linecap="round" stroke-linejoin="round"/>
<path d="M740.869 49.8841C739.379 47.752 736.496 43.1987 736.707 41.5164C736.97 39.4135 743.892 46.9926 745.688 47.9565C747.125 48.7275 748.565 49.0955 749.105 49.1832" stroke="white" stroke-width="3" stroke-linecap="round" stroke-linejoin="round"/>
</g>
</svg>
