<svg width="1920" height="1074" viewBox="0 0 1920 1074" fill="none" xmlns="http://www.w3.org/2000/svg">
<g clip-path="url(#clip0_15_1011)">
<rect width="1920" height="1074" transform="translate(-0.5)" fill="#4048F5"/>
<rect width="959" height="1074" transform="translate(-0.5)" fill="#262626"/>
<g opacity="0.2">
<path d="M359.062 703.358L41.7893 708.466C38.1868 708.524 35.2969 711.461 35.2969 715.064V715.064C35.2969 718.744 38.307 721.713 41.9866 721.662L345.879 717.462" stroke="#606060" stroke-width="2" stroke-linecap="round" stroke-linejoin="round"/>
<path d="M471.802 698.917L469.262 692.336L486.762 688.607L503.698 682.026M471.802 698.917L505.956 689.045L503.698 682.026M471.802 698.917L464.463 697.967L461.641 691.386M503.698 682.026L498.053 679.54M461.641 691.386L467.286 688.607M461.641 691.386L462.77 697.967L458.818 697.528L456.56 690.728M456.56 690.728L459.383 690.947M456.56 690.728L467.286 684.147H470.391C471.294 683.796 480.929 679.614 485.633 677.566H489.867L492.407 676.25L496.359 678.224" stroke="#606060" stroke-width="2" stroke-linecap="round" stroke-linejoin="round"/>
<path d="M469.544 683.71C465.969 673.4 465.875 651.244 489.02 650.367C509.037 649.608 513.236 667.697 512.166 678.226C511.601 683.783 507.537 695.248 495.795 696.652C490.432 697.294 485.069 697.311 483.093 696.214" stroke="#606060" stroke-width="2" stroke-linecap="round" stroke-linejoin="round"/>
<path d="M466.157 684.147C459.1 658.92 475.496 647.952 490.149 647.952C504.803 647.952 516.682 658.86 516.682 673.398C516.682 680.684 513.699 687.278 508.878 692.044" stroke="#606060" stroke-width="2" stroke-linecap="round"/>
<path d="M503.699 651.244C507.274 652.048 515.102 653.745 517.812 654.096C519.152 654.269 522.803 654.307 526.845 654.283M526.845 654.283C530.103 654.264 533.615 654.204 536.377 654.144C537.734 654.114 539.099 654.199 540.392 654.61C545.43 656.21 552.729 660.622 552.531 669.232C552.384 675.609 549.615 680.791 546.815 684.263C544.652 686.944 543.46 690.56 544.627 693.801V693.801M526.845 654.283C533.901 655.098 548.071 659.097 548.297 668.574C548.523 678.05 540.864 685.684 537.006 688.316M532.208 658.044C535.689 659.58 542.482 664.187 541.805 670.329C541.127 676.471 536.818 683.125 534.748 685.684M518.377 655.851C521.764 657.752 528.369 663.485 527.691 671.206C527.014 678.928 523.269 685.83 521.482 688.316M509.344 663.09C506.71 664.625 501.667 669.056 502.57 674.497C503.473 679.937 508.215 683.198 510.473 684.149M479.989 697.53C481.776 698.553 486.989 700.425 493.537 699.723C498.042 699.24 501.826 697.415 504.3 695.775M506.804 693.801C506.275 694.325 505.423 695.031 504.3 695.775M504.3 695.775C505.323 695.994 507.764 696.301 509.344 695.775C510.807 695.287 514.963 693.384 517.289 692.292C517.63 692.132 517.905 691.865 518.077 691.53V691.53C518.27 691.156 518.594 690.866 518.988 690.716L531.12 686.087C532.741 685.469 534.573 686.071 535.512 687.53V687.53C536.828 689.575 535.825 692.312 533.498 693.023L527.572 694.832C524.389 695.804 522.085 698.573 521.71 701.881L521.482 703.891M518.377 693.801L517.559 699.679C517.371 701.027 518.033 702.353 519.223 703.014V703.014M522.893 704.33H529.385M538.417 692.704V692.704C538.417 693.746 539.34 694.548 540.372 694.402L544.627 693.801M544.627 693.801V695.775" stroke="#606060" stroke-width="2" stroke-linecap="round" stroke-linejoin="round"/>
<path d="M531.078 706.084C531.737 704.183 533.449 700.337 535.03 700.161C537.006 699.942 535.312 696.213 539.264 696.213C542.425 696.213 547.168 696.213 549.143 696.213C549.52 695.482 551.006 693.975 553.942 693.8C555.615 693.7 556.817 694.212 557.611 694.834M558.74 696.213C558.578 695.835 558.211 695.304 557.611 694.834M537.571 707.181C540.205 703.817 546.038 697.397 548.297 698.626C549.367 699.208 549.95 700.011 550.446 700.819M560.152 703.232C559.211 703.671 556.652 704.417 553.942 703.891C551.839 703.482 551.259 702.143 550.446 700.819M550.446 700.819C551.436 700.819 557.705 700.381 560.716 700.161L571.442 708.058C571.254 709.228 568.45 711.349 558.74 710.471M542.934 706.084L544.627 703.891M546.321 702.136L547.45 700.819M557.611 694.834C558.176 694.239 561.563 688.974 566.926 689.851C571.216 690.553 573.606 692.776 574.265 693.8C576.805 693.319 582.338 692.854 584.144 694.834C585.951 696.815 585.461 699.65 584.991 700.819C585.273 701.404 587.362 702.706 593.459 703.232C599.556 703.759 595.058 704.768 592.048 705.207M587.814 705.207C588.096 705.865 588.209 707.181 586.402 707.181C584.596 707.181 573.418 707.181 568.055 707.181" stroke="#606060" stroke-width="2" stroke-linecap="round" stroke-linejoin="round"/>
<path d="M551.683 685.683C552.624 686.049 555.748 686.867 560.716 687.218C565.684 687.569 569.372 686.341 570.595 685.683L567.772 682.392L564.668 683.709M565.797 681.734C564.856 680.93 562.692 679.365 561.563 679.541C560.434 679.716 556.388 682.685 554.506 684.147M551.683 676.031C554.318 675.153 559.982 673.75 561.563 675.153C563.143 676.557 566.926 677.786 568.619 678.225M572.289 678.225H577.369M564.668 659.798C567.584 659.359 573.813 659.666 575.394 664.405M572.289 657.385C573.418 657.531 575.845 658.219 576.523 659.798M564.103 653.656L562.409 654.972M560.716 652.34L556.482 654.972M555.353 656.069L553.377 657.385M520.917 644.881C524.492 644.004 532.038 642.776 533.618 644.881C535.594 647.514 537.006 649.269 539.546 649.488C542.086 649.707 548.014 645.978 551.683 645.978C553.117 645.978 555.24 646.681 557.329 647.525M620.274 668.792H593.176L583.579 659.798C583.579 656.8 583.015 650.234 580.757 647.952C577.934 645.101 564.668 650.146 564.103 650.365C563.759 650.499 560.586 648.841 557.329 647.525M575.394 684.147L636.645 683.709M557.329 647.525C557.611 645.108 558.006 639.836 557.329 638.081C556.651 636.326 554.412 635.595 553.377 635.449L552.812 629.087L558.74 627.552C559.587 628.649 561.732 630.886 563.539 631.062C565.345 631.237 572.947 630.257 576.523 629.745M576.523 629.745C575.864 630.769 574.942 633.08 576.523 634.133C578.103 635.186 579.251 635.449 579.628 635.449M576.523 629.745L580.757 630.403V633.475L583.579 635.449C583.579 635.916 583.543 636.54 583.448 637.204M579.628 635.449L578.499 638.081L572.289 640.055L574.829 642.688L572.289 645.978L576.24 644.443L576.523 640.933C577.558 641.225 580.023 641.635 581.603 640.933C582.704 640.444 583.23 638.723 583.448 637.204M579.628 635.449L583.448 637.204" stroke="#606060" stroke-width="2" stroke-linecap="round" stroke-linejoin="round"/>
<path d="M583.862 636.108L592.047 638.74C591.815 639.245 591.56 639.926 591.341 640.714M604.185 668.793V664.186L601.08 662.431C599.01 659.36 594.305 652.384 592.047 649.05C590.346 646.538 590.674 643.122 591.341 640.714M591.341 640.714L598.822 642.908L600.797 649.489L605.596 659.799L606.16 663.747L609.265 665.283L637.21 664.186M588.942 630.404C590.73 628.43 594.983 624.481 597.693 624.481C599.842 624.481 602.014 625.769 603.338 626.813M626.484 625.578H629.588M626.484 625.578C626.402 626.786 625.694 629.444 623.579 631.501M626.484 625.578C626.201 624.847 625.354 623.034 624.225 621.63C622.814 619.875 613.782 617.681 611.241 617.023C609.209 616.497 607.007 617.389 606.16 617.9C605.502 620.46 604.015 625.825 603.338 626.813M623.579 631.501C623.263 631.809 622.914 632.104 622.532 632.378C619.596 634.484 615.099 633.987 613.217 633.475L604.185 627.552C603.97 627.341 603.683 627.085 603.338 626.813M623.579 631.501L607.29 625.578L603.338 626.813" stroke="#606060" stroke-width="2" stroke-linecap="round" stroke-linejoin="round"/>
<path d="M610.959 617.024L608.136 624.483" stroke="#606060" stroke-width="2" stroke-linecap="round" stroke-linejoin="round"/>
<path d="M619.428 638.958C621.309 639.47 625.694 640.186 628.178 638.958C630.662 637.729 632.035 635.229 632.412 634.132" stroke="#606060" stroke-width="2" stroke-linecap="round" stroke-linejoin="round"/>
<path d="M500.876 650.587C505.11 647.589 514.199 640.847 516.683 637.863C519.167 634.88 519.976 630.186 520.07 628.212M520.07 628.212C521.274 626.864 523.095 624.791 524.586 623.019M520.07 628.212C522.422 627.627 527.126 626.062 527.126 624.482C527.126 622.903 525.433 622.848 524.586 623.019M531.925 613.295L537.57 605.178C537.585 605.099 537.587 605.004 537.57 604.898M537.57 604.898C537.48 604.323 536.846 603.43 534.748 602.985C532.264 602.458 528.632 609.054 527.126 612.417L529.667 614.611C528.82 616.073 527.126 619.13 527.126 619.656C527.126 619.913 526.006 621.33 524.586 623.019M537.57 604.898L542.086 606.495L539.264 612.417M539.264 612.417L529.667 617.463C530.231 618.048 531.36 619.788 531.36 622.069C531.36 624.351 529.29 627.553 528.255 628.87L531.925 634.354M539.264 612.417L545.474 615.927M539.264 614.611L537.57 617.463L539.264 626.457L535.877 630.844M535.877 630.844L540.393 633.038M535.877 630.844L531.925 634.354M540.393 633.038L545.474 628.212C544.345 626.457 542.256 622.508 542.933 620.753C543.611 618.998 544.909 616.805 545.474 615.927M540.393 633.038C538.511 633.842 534.465 635.494 533.336 635.67C532.207 635.845 531.925 634.866 531.925 634.354M545.474 615.927C545.85 614.83 547.449 613.032 550.837 614.611C555.071 616.585 552.53 618.998 556.764 618.779C560.151 618.603 564.95 615.05 566.926 613.295M549.143 617.463V619.656M552.812 619.656V621.631M547.732 620.753V624.482" stroke="#606060" stroke-width="2" stroke-linecap="round" stroke-linejoin="round"/>
<path d="M577.088 608.029L576.241 610.003M579.628 606.055L578.781 608.029M583.58 600.79L585.838 601.448M589.79 597.938C588.755 596.476 586.233 593.902 584.427 595.306C582.168 597.061 578.499 604.3 575.394 604.08C572.891 603.903 571.489 600.021 567.491 598.521M550.837 601.887C553.001 600.57 558.684 597.938 564.103 597.938C565.417 597.938 566.529 598.161 567.491 598.521M567.491 598.521C566.738 596.499 565.345 592.366 565.797 592.015C566.249 591.664 568.243 590.407 569.184 589.822C569.561 590.114 570.426 590.699 570.878 590.699C571.329 590.699 573.136 590.114 573.983 589.822M573.983 589.822L577.088 596.183M573.983 589.822L579.628 592.015L581.039 595.306M575.394 597.938L573.418 600.351M537.853 604.738L540.111 602.764V598.521L543.216 590.699C542.651 589.383 541.579 586.136 541.805 583.68C542.03 581.223 547.168 577.684 549.708 576.221C550.178 578.195 552.756 581.705 559.305 579.95C567.491 577.757 564.386 570.956 569.184 571.176C573.023 571.351 576.053 574.613 577.088 576.221C578.875 574.247 583.749 570.781 588.943 572.711C594.136 574.642 597.128 576.879 597.975 577.757M577.088 563.059C578.969 563.425 583.354 563.937 585.838 563.059C588.943 561.963 590.636 559.988 594.306 561.963C597.241 563.542 604.373 570.518 607.572 573.808C610.113 574.393 615.476 576.002 616.605 577.757C617.734 579.512 617.075 581.413 616.605 582.144L612.088 586.751V588.067M604.185 611.977C603.432 610.661 602.943 606.932 607.008 602.545C611.072 598.157 618.863 601.74 622.25 604.08C622.438 602.983 622.532 600.219 621.403 597.938C620.274 595.657 614.723 593.039 612.088 592.015V588.067M612.088 588.067L618.298 585.654L619.992 589.822L628.178 601.887M628.178 601.887L625.073 602.764M628.178 601.887L629.871 604.08L631 599.474C631.196 597.688 631.279 594.786 630.872 592.015M618.298 582.144C620.274 582.144 625.016 582.846 628.178 585.654C629.697 587.003 630.494 589.453 630.872 592.015M630.872 592.015H638.339L637.492 602.764H634.952M637.492 604.738V610.003" stroke="#606060" stroke-width="2" stroke-linecap="round" stroke-linejoin="round"/>
<path d="M593.609 495.795C586.864 498.145 572.576 503.582 569.388 506.526C566.199 509.469 556.409 520.016 551.912 524.922C551.605 530.951 550.195 543.133 544.554 548.529C538.912 553.925 528.508 558.545 524.318 559.567C529.939 554.968 541.794 553.128 547.006 540.251C548.414 536.773 550.686 528.907 548.846 524.922C542.816 520.425 527.323 512.474 520.946 510.511C512.974 508.059 505.003 522.162 501.63 524.922C498.932 527.129 494.374 526.148 485.074 532.893H468.824M593.609 495.795C591.872 498.043 588.213 503.337 587.477 506.526C586.741 509.714 578.177 522.162 573.987 527.987M593.609 495.795C595.96 493.444 601.642 487.823 605.566 484.144C610.472 479.545 619.056 464.215 624.269 466.668C629.481 469.121 631.014 474.946 635.306 479.545C638.74 483.224 644.708 490.889 647.263 494.262C651.147 495.897 659.159 499.903 660.14 502.847C661.367 506.526 666.272 510.511 666.272 514.804C666.272 515.862 666.272 517.161 666.18 518.483M662.593 529.52C662.593 529.52 655.054 521.931 652.782 520.163M662.593 529.52C661.06 531.053 666.272 532.893 669.645 536.572C672.343 539.515 673.426 549.654 673.631 554.355C671.178 549.96 665.046 539.945 660.14 535.039C655.235 530.134 653.191 523.078 652.782 520.163M662.593 529.52C662.593 529.52 664.56 524.848 665.368 522.775M662.593 529.52C663.819 528.294 664.954 524.513 665.368 522.775M610.778 549.756C615.275 544.237 625.127 533.138 628.561 532.893C632.853 532.586 639.905 517.257 644.504 516.337C647.109 515.816 649.813 517.853 652.782 520.163M665.368 522.775C665.85 521.536 666.075 519.995 666.18 518.483M666.18 518.483C668.725 517.563 678.536 506.219 681.909 501.007C685.281 495.795 688.96 485.371 695.399 486.904C701.837 488.437 706.743 510.511 712.875 510.511C719.007 510.511 734.337 512.511 736.483 516.337C738.2 519.398 738.629 538.665 738.629 547.916C739.344 539.74 742.063 523.695 747.214 524.922C753.652 526.454 761.317 543.011 767.449 545.463C772.354 547.426 784.005 547.916 789.217 547.916H827.542M461.466 532.893H451.042" stroke="#606060" stroke-width="2" stroke-linecap="round" stroke-linejoin="round"/>
<path d="M564.95 567.886L559.304 571.616L562.974 576.441H549.143L546.885 572.712C547.543 570.957 549.086 567.053 549.989 565.473C551.119 563.499 559.304 564.157 559.304 562.841C559.304 561.788 558.175 560.501 557.611 559.989L574.547 558.234V559.989M564.95 567.886L566.643 570.08M564.95 567.886L570.03 566.79L572.571 570.08M574.547 569.203L578.498 565.473L575.958 561.086L572.571 564.157" stroke="#606060" stroke-width="2" stroke-linecap="round" stroke-linejoin="round"/>
<path d="M549.426 572.711L559.305 571.834M576.523 558.233C577.088 556.113 579.289 552.179 583.58 553.407C587.87 554.636 589.696 557.137 590.072 558.233H593.177C594.306 558.453 596.62 559.111 596.846 559.988" stroke="#606060" stroke-width="2" stroke-linecap="round" stroke-linejoin="round"/>
<path d="M643.137 607.152C643.137 607.59 639.186 625.578 662.331 636.546C685.477 647.515 696.485 652.779 699.308 645.102C702.131 637.424 696.768 631.72 686.324 619.436C677.969 609.609 659.885 604.958 651.888 603.861M648.5 603.861L644.266 605.616M642.291 606.274L631.564 616.146C629.589 620.314 627.5 630.448 634.952 637.643C642.403 644.838 651.041 651.317 654.428 653.657C657.815 655.485 666.509 659.141 674.186 659.141C681.864 659.141 691.122 653.291 694.792 650.366" stroke="#606060" stroke-width="2" stroke-linecap="round" stroke-linejoin="round"/>
<path d="M686.932 637.874C686.227 638.404 685.185 638.705 683.77 638.709C682.347 638.714 680.618 638.414 678.682 637.801C674.811 636.575 670.313 634.159 666.152 630.819C661.991 627.478 659.03 623.905 657.58 620.859C656.854 619.335 656.526 617.982 656.578 616.877C656.629 615.778 657.05 614.978 657.755 614.448C658.46 613.918 659.502 613.617 660.917 613.613C662.34 613.609 664.069 613.908 666.005 614.521C669.876 615.747 674.374 618.163 678.535 621.504C682.696 624.844 685.657 628.417 687.107 631.463C687.833 632.987 688.161 634.34 688.109 635.445C688.058 636.544 687.637 637.344 686.932 637.874Z" stroke="#606060" stroke-width="2"/>
<path d="M637.492 610.662C636.363 613.075 634.444 618.34 635.798 620.095C637.492 622.288 643.42 626.895 643.702 629.747C643.984 632.598 642.855 635.231 649.065 637.424C654.033 639.179 661.673 643.42 664.872 645.321C666.659 647.588 671.138 652.297 674.751 652.999C678.364 653.701 686.23 654.023 689.711 654.096M634.387 613.953C633.446 616.146 631.847 621.06 632.976 623.166C634.387 625.798 640.315 632.16 640.315 634.134C640.315 636.108 643.984 638.741 646.524 639.837C649.065 640.934 657.815 644.444 662.049 647.734C666.283 651.025 669.67 654.315 673.622 655.193C676.783 655.895 683.595 655.778 686.606 655.631M630.435 620.095C630.812 622.508 631.847 627.641 632.976 628.869C634.387 630.405 637.21 638.521 639.186 639.837C641.161 641.154 651.323 644.444 655.275 647.734C659.226 651.025 662.049 655.193 669.67 656.728C675.767 657.957 680.867 657.679 682.654 657.386" stroke="#606060" stroke-width="2" stroke-linecap="round" stroke-linejoin="round"/>
<path d="M646.806 669.89C646.355 668.661 638.339 664.113 634.387 661.993L635.234 661.664M646.806 664.625L639.468 660.019L635.234 661.664M635.234 661.664C635.459 661.05 635.328 657.679 635.234 656.07L640.314 653.218V656.07M641.726 654.096L647.653 657.386M647.653 657.386V677.348C648.594 678.811 653.524 682.086 665.718 683.49C677.912 684.894 684.348 684.66 686.041 684.368M647.653 657.386L652.452 654.096M712.856 681.735C715.303 681.443 720.478 680.156 721.607 677.348C722.409 675.353 722.309 669.549 722.015 664.625M695.074 652.341C698.273 652.414 706.308 652.692 712.856 653.218C719.405 653.745 721.418 657.532 721.607 659.36C721.743 660.758 721.895 662.618 722.015 664.625M649.911 664.625C653.204 663.236 660.525 661.071 663.46 663.528C667.13 666.599 677.856 667.257 681.243 667.038C684.63 666.819 694.509 661.115 701.848 661.993C709.187 662.87 708.905 666.161 712.574 666.599C715.51 666.95 720.091 665.429 722.015 664.625" stroke="#606060" stroke-width="2" stroke-linecap="round" stroke-linejoin="round"/>
<path d="M647.371 668.792C649.159 667.623 653.355 665.634 655.839 667.038C658.944 668.792 665.154 672.741 671.928 672.741C678.702 672.741 693.662 665.941 699.59 667.038C705.518 668.134 711.163 672.083 714.268 671.864C716.752 671.688 720.572 670.474 722.171 669.889M647.371 674.277C647.371 673.618 653.581 671.205 656.686 672.741C659.791 674.277 664.871 678.883 675.88 678.225C686.888 677.567 696.767 670.986 700.719 671.864C704.671 672.741 707.493 676.69 712.856 676.909C717.147 677.084 720.854 675.227 722.171 674.277" stroke="#606060" stroke-width="2" stroke-linecap="round" stroke-linejoin="round"/>
<path d="M652.734 692.703H724.147C725.182 692.338 727.026 691.256 726.123 689.852C725.22 688.448 719.725 687.365 717.091 687C714.08 688.097 707.606 690.203 705.8 689.852M652.734 691.168C654.146 689.778 657.815 687 661.202 687C665.436 687 666.283 688.097 667.13 688.097C667.976 688.097 670.235 685.245 672.775 686.122C675.315 687 675.598 688.755 676.444 688.755C677.122 688.755 685.383 684.368 689.429 682.174H695.215M701.001 682.174H695.215M695.215 682.174C696.673 679.761 700.493 675.242 704.106 676.47C707.719 677.699 711.822 681.223 713.421 682.832M714.832 685.026L715.397 685.684M692.534 685.026L691.122 686.122M691.122 688.097L694.227 689.852M688.582 687L686.324 688.755" stroke="#606060" stroke-width="2" stroke-linecap="round" stroke-linejoin="round"/>
<path d="M21.5 602.797H52.5401M52.5401 621.193H66.263" stroke="#606060" stroke-width="2" stroke-linecap="round" stroke-linejoin="round"/>
<path d="M734.949 674.539H814.971V591.758C814.153 588.386 814.848 581.456 824.169 580.721C833.489 579.985 848.696 580.414 855.135 580.721M734.949 667.794H808.839V591.758C808.021 585.728 809.452 573.669 821.716 573.669C833.98 573.669 846.039 573.669 850.536 573.669" stroke="#606060" stroke-width="2" stroke-linecap="round" stroke-linejoin="round"/>
<path d="M170.897 629.071H129.283V556.906H100.312L89.5134 577.976M92.1472 577.976L101.629 559.54H163.522V571.129L89.2501 596.939V592.265M164.312 655.146V652.397C164.312 645.624 169.803 640.133 176.576 640.133H218.419C225.192 640.133 230.683 645.624 230.683 652.397V655.146V663.952C230.683 670.725 225.192 676.216 218.419 676.216H176.576C169.803 676.216 164.312 670.725 164.312 663.952V655.146Z" stroke="#606060" stroke-width="2" stroke-linecap="round" stroke-linejoin="round"/>
<path d="M134.326 556.806H163.453" stroke="#606060" stroke-width="2" stroke-linecap="round" stroke-linejoin="round"/>
<rect x="87.0894" y="578.45" width="8.53505" height="13.2758" stroke="#606060" stroke-width="2"/>
<path d="M114.271 623.541V615.903H126.913V620.381L117.695 623.541H114.271Z" stroke="#606060" stroke-width="2" stroke-linecap="round" stroke-linejoin="round"/>
<path d="M86.3525 589.04L83.4553 595.098V646.456M74.5005 646.456H98.9945C101.892 641.628 107.159 631.302 114.797 630.127C120.761 629.209 128.932 628.985 132.18 629.073" stroke="#606060" stroke-width="2" stroke-linecap="round" stroke-linejoin="round"/>
<path d="M74.5005 646.981V596.939L95.834 552.692M95.834 552.692L167.209 551.426M95.834 552.692C93.2881 551.902 89.355 548.162 93.9904 539.523C98.6258 530.884 109.003 525.301 115.851 525.301H167.209V551.426M171.686 629.071L170.106 551.375L167.209 551.426" stroke="#606060" stroke-width="2" stroke-linecap="round" stroke-linejoin="round"/>
<path d="M74.5011 646.718H72.3941V660.15M101.629 658.307V649.088C104.438 642.855 112.638 630.652 130.337 631.706C148.036 632.759 158.518 643.821 157.201 666.735" stroke="#606060" stroke-width="2" stroke-linecap="round" stroke-linejoin="round"/>
<path d="M74.2379 660.15V672.792H101.366V660.15H105.316C105.404 652.073 107.16 634.866 130.074 634.866C149.687 634.866 154.392 655.761 154.304 666.735H157.201" stroke="#606060" stroke-width="2" stroke-linecap="round" stroke-linejoin="round"/>
<path d="M133.551 663.31C133.551 665.622 131.569 667.578 129.02 667.578C126.471 667.578 124.489 665.622 124.489 663.31C124.489 660.999 126.471 659.043 129.02 659.043C131.569 659.043 133.551 660.999 133.551 663.31Z" stroke="#606060" stroke-width="2"/>
<path d="M150.407 663.311C150.407 675.279 140.821 684.961 129.02 684.961C117.219 684.961 107.633 675.279 107.633 663.311C107.633 651.342 117.219 641.66 129.02 641.66C140.821 641.66 150.407 651.342 150.407 663.311Z" stroke="#606060" stroke-width="2"/>
<path d="M161.416 629.335V633.022H171.687V629.335" stroke="#606060" stroke-width="2" stroke-linecap="round" stroke-linejoin="round"/>
<path d="M161.415 633.022H158.781V669.895H164.839M230.42 669.105H285.465M286.519 663.047H278.618L263.078 627.492H329.976V601.681H382.125C383.003 605.017 386.023 612.584 391.079 616.166C396.136 619.748 406.619 625.648 414.783 624.068V629.335H428.742L413.466 656.726L413.993 663.837H405.565" stroke="#606060" stroke-width="2" stroke-linecap="round" stroke-linejoin="round"/>
<path d="M333.664 628.019H360.001M365.269 628.019H411.623" stroke="#606060" stroke-width="2" stroke-linecap="round" stroke-linejoin="round"/>
<path d="M265.185 632.497H186.699V585.616H182.485M170.897 585.616H175.374M182.485 585.616L215.934 482.372L331.819 560.832M182.485 585.616H175.374M209.613 478.948L175.374 585.616M418.997 619.855L337.35 564.576M337.35 564.576L275.457 589.566L329.976 611.69M337.35 564.576L331.819 560.832M331.819 560.832L260.708 589.566V591.937L329.976 618.538" stroke="#606060" stroke-width="2" stroke-linecap="round" stroke-linejoin="round"/>
<path d="M419.261 620.381L470.356 547.689L251.49 400.988L254.708 374.786C254.995 372.449 253.918 370.154 251.938 368.88L231.776 355.919C228.586 353.869 224.318 355.176 222.824 358.662L222.519 359.375L232.305 364.449C234.888 365.788 236.174 368.758 235.383 371.558L205.663 476.84L209.613 478.947" stroke="#606060" stroke-width="2" stroke-linecap="round" stroke-linejoin="round"/>
<path d="M279.671 433.384L245.432 409.943L229.103 480.001L263.868 503.442L279.671 433.384Z" stroke="#606060" stroke-width="2" stroke-linecap="round" stroke-linejoin="round"/>
<path d="M329.976 466.568L295.737 443.128L279.408 513.186L314.173 536.627L329.976 466.568Z" stroke="#606060" stroke-width="2" stroke-linecap="round" stroke-linejoin="round"/>
<path d="M380.544 502.389L346.305 478.948L329.976 549.006L364.741 572.447L380.544 502.389Z" stroke="#606060" stroke-width="2" stroke-linecap="round" stroke-linejoin="round"/>
<path d="M433.219 536.627L398.98 513.187L382.651 583.245L417.416 606.685L433.219 536.627Z" stroke="#606060" stroke-width="2" stroke-linecap="round" stroke-linejoin="round"/>
<path d="M285.728 669.105C285.728 666.998 285.743 665.532 285.852 663.048C286.473 648.913 292.742 629.482 314.963 630.916C341.09 632.601 344.988 656.024 343.671 667.525" stroke="#606060" stroke-width="2" stroke-linecap="round" stroke-linejoin="round"/>
<path d="M347.095 667.336C347.095 665.229 346.986 669.821 347.095 667.336ZM347.095 667.336C347.77 651.985 354.371 629.293 376.592 630.727C402.719 632.412 406.617 655.835 405.3 667.336" stroke="#606060" stroke-width="2" stroke-linecap="round" stroke-linejoin="round"/>
<path d="M336.877 663.048C336.877 675.765 326.916 686.016 314.7 686.016C302.483 686.016 292.522 675.765 292.522 663.048C292.522 650.332 302.483 640.081 314.7 640.081C326.916 640.081 336.877 650.332 336.877 663.048Z" stroke="#606060" stroke-width="2"/>
<path d="M399.034 665.68C399.034 678.396 389.074 688.647 376.857 688.647C364.64 688.647 354.68 678.396 354.68 665.68C354.68 652.964 364.64 642.713 376.857 642.713C389.074 642.713 399.034 652.964 399.034 665.68Z" stroke="#606060" stroke-width="2"/>
<path d="M320.021 663.046C320.021 666.169 317.6 668.631 314.7 668.631C311.799 668.631 309.378 666.169 309.378 663.046C309.378 659.923 311.799 657.462 314.7 657.462C317.6 657.462 320.021 659.923 320.021 663.046Z" stroke="#606060" stroke-width="2"/>
<path d="M382.178 665.682C382.178 668.805 379.758 671.266 376.857 671.266C373.957 671.266 371.536 668.805 371.536 665.682C371.536 662.559 373.957 660.098 376.857 660.098C379.758 660.098 382.178 662.559 382.178 665.682Z" stroke="#606060" stroke-width="2"/>
<path d="M455.026 583.786H471.582L478.941 599.116L467.597 601.875L458.705 590.838M458.705 604.941V611.993H478.941L483.846 619.351M493.351 604.941C494.884 600.24 498.992 590.838 503.162 590.838C507.331 590.838 510.213 598.196 511.133 601.875H524.01M503.162 608.62L511.133 619.351M425.593 663.501H445.215M451.04 657.982H462.078" stroke="#606060" stroke-width="2" stroke-linecap="round" stroke-linejoin="round"/>
</g>
<g opacity="0.1">
<path d="M1262.44 552.057V555.638M1262.44 555.638H1267.65V625.641H1242.58V555.638H1262.44Z" stroke="white" stroke-width="3" stroke-linecap="round" stroke-linejoin="round"/>
<path d="M1309.65 551.731V555.313M1309.65 555.313H1328.54V625.642H1303.79V555.313H1309.65Z" stroke="white" stroke-width="3" stroke-linecap="round" stroke-linejoin="round"/>
<path d="M1010.76 643.55H1070.83H1100.86H1123.74M1570.78 643.55H1491.34H1427.84M1704.93 643.55H1760.93M1836.47 643.55H1913.31M1420.03 643.55H1371.19H1251.05H1190.97H1160.94H1131.55" stroke="white" stroke-width="3" stroke-linecap="round" stroke-linejoin="round"/>
<path d="M1742.7 756.804H1748.19M1769.96 756.804H1759.07M1748.19 756.804L1769.96 711.94L1782.64 641.899V537.216L1796.46 516.771L1809.71 537.216V641.899L1826.37 711.94L1845.11 756.804H1834.32L1803.84 711.94H1790.78L1759.07 756.804M1748.19 756.804H1759.07" stroke="white" stroke-width="3" stroke-linecap="round" stroke-linejoin="round"/>
<path d="M1796.46 504.846V517.15" stroke="white" stroke-width="3" stroke-linecap="round" stroke-linejoin="round"/>
<path d="M1782.26 603.66L1810.47 642.467H1782.26L1810.47 603.66M1782.26 603.66H1810.47M1782.26 603.66L1810.47 567.883L1782.26 540.056H1810.47L1782.26 567.883L1810.47 603.66M1810.47 584.163L1846.62 603.66H1744.59L1782.26 584.163M1769.77 711.751H1826.37L1774.12 688.656L1816.52 669.726L1780.56 653.446H1812.55L1777.34 671.619L1820.88 688.656L1769.77 711.751Z" stroke="white" stroke-width="3" stroke-linecap="round" stroke-linejoin="round"/>
<path d="M1810.47 540.056L1841.7 557.471H1751.21L1782.07 540.056" stroke="white" stroke-width="3" stroke-linecap="round" stroke-linejoin="round"/>
<path d="M1823.53 757.183H1856.09" stroke="white" stroke-width="3" stroke-linecap="round" stroke-linejoin="round"/>
<path d="M1757.08 558.039V560.784V562.156M1766.74 558.039V560.784V562.156M1757.08 569.018V566.274V565.611M1766.74 569.018V566.274V565.422M1757.08 572.047V574.508V579.998H1766.74V574.508V572.047" stroke="white" stroke-width="3" stroke-linecap="round" stroke-linejoin="round"/>
<path d="M1824.47 558.039V560.784V562.156M1834.13 558.039V560.784V562.156M1824.47 569.018V566.274V565.611M1834.13 569.018V566.274V565.422M1824.47 572.047V574.508V579.998H1834.13V574.508V572.047" stroke="white" stroke-width="3" stroke-linecap="round" stroke-linejoin="round"/>
<path d="M1829.77 603.85V606.594V607.967M1839.43 603.85V606.594V607.967M1829.77 614.829V612.084V611.422M1839.43 614.829V612.084V611.232M1829.77 617.858V620.319V625.808H1839.43V620.319V617.858" stroke="white" stroke-width="3" stroke-linecap="round" stroke-linejoin="round"/>
<path d="M1752.54 603.85V606.594V607.967M1762.19 603.85V606.594V607.967M1752.54 614.829V612.084V611.422M1762.19 614.829V612.084V611.232M1752.54 617.858V620.319V625.808H1762.19V620.319V617.858" stroke="white" stroke-width="3" stroke-linecap="round" stroke-linejoin="round"/>
<path d="M1824.28 558.039V579.998H1833.94V558.039" stroke="white" stroke-width="3" stroke-linecap="round" stroke-linejoin="round"/>
<rect x="1752.07" y="563.055" width="19.4979" height="1.7037" rx="0.85185" stroke="white" stroke-width="1.7037"/>
<rect x="1819.46" y="563.055" width="19.4979" height="1.7037" rx="0.85185" stroke="white" stroke-width="1.7037"/>
<rect x="1824.76" y="608.866" width="19.4979" height="1.7037" rx="0.85185" stroke="white" stroke-width="1.7037"/>
<rect x="1747.52" y="608.866" width="19.4979" height="1.7037" rx="0.85185" stroke="white" stroke-width="1.7037"/>
<rect x="1751.69" y="569.87" width="19.4979" height="1.7037" rx="0.85185" stroke="white" stroke-width="1.7037"/>
<rect x="1819.08" y="569.87" width="19.4979" height="1.7037" rx="0.85185" stroke="white" stroke-width="1.7037"/>
<rect x="1824.38" y="615.681" width="19.4979" height="1.7037" rx="0.85185" stroke="white" stroke-width="1.7037"/>
<rect x="1747.14" y="615.681" width="19.4979" height="1.7037" rx="0.85185" stroke="white" stroke-width="1.7037"/>
<path d="M1577.29 642.846H1582.78M1604.55 642.846H1593.67M1582.78 642.846L1604.55 597.982L1617.24 527.941V423.258L1631.05 402.813L1644.31 423.258V527.941L1660.96 597.982L1679.7 642.846H1668.91L1638.44 597.982H1625.38L1593.67 642.846M1582.78 642.846H1593.67" stroke="white" stroke-width="3" stroke-linecap="round" stroke-linejoin="round"/>
<path d="M1631.05 390.888V403.192" stroke="white" stroke-width="3" stroke-linecap="round" stroke-linejoin="round"/>
<path d="M1616.86 489.702L1645.06 528.509H1616.86L1645.06 489.702M1616.86 489.702H1645.06M1616.86 489.702L1645.06 453.925L1616.86 426.098H1645.06L1616.86 453.925L1645.06 489.702M1645.06 470.205L1681.22 489.702H1579.19L1616.86 470.205M1604.36 597.793H1660.96L1608.72 574.698L1651.12 555.768L1615.15 539.488H1647.14L1611.93 557.661L1655.47 574.698L1604.36 597.793Z" stroke="white" stroke-width="3" stroke-linecap="round" stroke-linejoin="round"/>
<path d="M1645.06 426.098L1676.3 443.513H1585.81L1616.67 426.098" stroke="white" stroke-width="3" stroke-linecap="round" stroke-linejoin="round"/>
<path d="M1658.12 643.225H1690.68" stroke="white" stroke-width="3" stroke-linecap="round" stroke-linejoin="round"/>
<path d="M1591.68 444.081V446.826V448.198M1601.33 444.081V446.826V448.198M1591.68 455.06V452.316V451.653M1601.33 455.06V452.316V451.464M1591.68 458.089V460.55V466.04H1601.33V460.55V458.089" stroke="white" stroke-width="3" stroke-linecap="round" stroke-linejoin="round"/>
<path d="M1659.07 444.081V446.826V448.198M1668.72 444.081V446.826V448.198M1659.07 455.06V452.316V451.653M1668.72 455.06V452.316V451.464M1659.07 458.089V460.55V466.04H1668.72V460.55V458.089" stroke="white" stroke-width="3" stroke-linecap="round" stroke-linejoin="round"/>
<path d="M1664.37 489.892V492.636V494.009M1674.03 489.892V492.636V494.009M1664.37 500.871V498.126V497.464M1674.03 500.871V498.126V497.274M1664.37 503.9V506.361V511.85H1674.03V506.361V503.9" stroke="white" stroke-width="3" stroke-linecap="round" stroke-linejoin="round"/>
<path d="M1587.14 489.892V492.636V494.009M1596.79 489.892V492.636V494.009M1587.14 500.871V498.126V497.464M1596.79 500.871V498.126V497.274M1587.14 503.9V506.361V511.85H1596.79V506.361V503.9" stroke="white" stroke-width="3" stroke-linecap="round" stroke-linejoin="round"/>
<path d="M1658.88 444.081V466.04H1668.54V444.081" stroke="white" stroke-width="3" stroke-linecap="round" stroke-linejoin="round"/>
<rect x="1586.66" y="449.097" width="19.4979" height="1.7037" rx="0.85185" stroke="white" stroke-width="1.7037"/>
<rect x="1654.05" y="449.097" width="19.4979" height="1.7037" rx="0.85185" stroke="white" stroke-width="1.7037"/>
<rect x="1659.35" y="494.908" width="19.4979" height="1.7037" rx="0.85185" stroke="white" stroke-width="1.7037"/>
<rect x="1582.12" y="494.908" width="19.4979" height="1.7037" rx="0.85185" stroke="white" stroke-width="1.7037"/>
<rect x="1586.28" y="455.912" width="19.4979" height="1.7037" rx="0.85185" stroke="white" stroke-width="1.7037"/>
<rect x="1653.68" y="455.912" width="19.4979" height="1.7037" rx="0.85185" stroke="white" stroke-width="1.7037"/>
<rect x="1658.98" y="501.723" width="19.4979" height="1.7037" rx="0.85185" stroke="white" stroke-width="1.7037"/>
<rect x="1581.74" y="501.723" width="19.4979" height="1.7037" rx="0.85185" stroke="white" stroke-width="1.7037"/>
<path d="M1667.48 756.857H1730.43M1659.47 756.857H1563.62M1555.48 756.857H1510.22M1502.08 756.857H1399.13C1383.18 756.857 1378.85 717.899 1406.94 717.899C1437.53 717.899 1467.79 717.135 1480.16 717.135M1442.74 731.267C1443.52 730.961 1468.55 731.012 1481.14 730.121" stroke="white" stroke-width="3" stroke-linecap="round" stroke-linejoin="round"/>
<path d="M1673.02 461.541C1680.11 479.911 1688.22 496.931 1698.36 512.66M1747.91 565.732C1735.37 556.328 1724.66 546.242 1715.36 535.451" stroke="white" stroke-width="3" stroke-linecap="round" stroke-linejoin="round"/>
<path d="M1577.62 504.195C1574.19 514.774 1563.03 531.83 1540.85 545.871M1467.89 568.663C1481.62 567.441 1493.84 565.071 1504.69 561.902M1582.5 452.425C1579.49 460.008 1573.85 470.681 1565.82 481.077M1511.52 514.939C1527.56 513.521 1541.26 505.731 1552.34 495.729" stroke="white" stroke-width="3" stroke-linecap="round" stroke-linejoin="round"/>
<path d="M1679.53 506.148C1684.5 521.049 1690.08 535.039 1696.74 548.15M1742.7 607.734C1730.89 597.503 1721.01 586.443 1712.57 574.524" stroke="white" stroke-width="3" stroke-linecap="round" stroke-linejoin="round"/>
<path d="M1420.03 643.001V612.07C1414.82 611.961 1401.15 609.14 1403.75 586.999C1406.64 562.415 1411.89 536.206 1422.31 538.16C1432.73 540.113 1444.68 572.028 1445.75 586.999C1447.38 609.791 1433.71 612.07 1427.85 612.07V643.001M1420.03 608.488V598.395C1415.69 592.86 1407.53 582.05 1409.61 583.092C1411.7 584.134 1418.29 590.472 1421.33 593.511L1422.31 560.951L1425.24 588.627C1428.06 585.045 1433.9 578.208 1434.68 579.51C1435.46 580.813 1429.36 588.518 1426.22 592.209V608.488" stroke="white" stroke-width="3" stroke-linecap="round" stroke-linejoin="round"/>
<path d="M1392.03 575.5C1385.19 574.198 1374.12 572.57 1366.31 557.267C1363.12 551.021 1362.62 550.646 1363.05 551.081M1360.45 551.081H1233.14V541.964M1246.81 541.964V549.127" stroke="white" stroke-width="3" stroke-linecap="round" stroke-linejoin="round"/>
<path d="M1659.62 756.737V733.9C1654.42 733.817 1640.79 731.663 1643.39 714.765C1646.27 696.002 1651.5 675.999 1661.89 677.49C1672.28 678.981 1684.19 703.339 1685.26 714.765C1686.88 732.16 1673.25 733.9 1667.41 733.9V756.737M1659.62 731.166V723.463C1655.29 719.238 1647.15 710.988 1649.23 711.783C1651.31 712.578 1657.89 717.416 1660.92 719.735L1661.89 694.885L1664.81 716.008C1667.62 713.274 1673.44 708.056 1674.22 709.05C1675 710.044 1668.92 715.925 1665.78 718.741V731.166" stroke="white" stroke-width="3" stroke-linecap="round" stroke-linejoin="round"/>
<path d="M1123.69 642.898V614.684C1118.49 614.585 1104.86 612.011 1107.46 591.815C1110.34 569.391 1115.57 545.485 1125.96 547.267C1136.34 549.049 1148.26 578.16 1149.33 591.815C1150.95 612.605 1137.32 614.684 1131.48 614.684V642.898M1123.69 611.417V602.21C1119.36 597.161 1111.22 587.301 1113.3 588.252C1115.38 589.202 1121.96 594.983 1124.98 597.755L1125.96 568.056L1128.88 593.3C1131.69 590.034 1137.51 583.797 1138.29 584.985C1139.07 586.173 1132.99 593.201 1129.85 596.567V611.417" stroke="white" stroke-width="3" stroke-linecap="round" stroke-linejoin="round"/>
<path d="M1555.43 756.857V729.294C1550.23 729.195 1536.6 726.621 1539.2 706.426C1542.08 684.001 1547.31 660.095 1557.7 661.877C1568.08 663.659 1580 692.77 1581.07 706.426C1582.69 727.215 1569.06 729.294 1563.22 729.294V756.857M1555.43 726.027V716.821C1551.1 711.772 1542.96 701.912 1545.04 702.862C1547.12 703.812 1553.7 709.594 1556.72 712.366L1557.7 682.667L1560.62 707.911C1563.43 704.644 1569.25 698.407 1570.03 699.595C1570.81 700.783 1564.73 707.812 1561.59 711.178V726.027" stroke="white" stroke-width="3" stroke-linecap="round" stroke-linejoin="round"/>
<path d="M1502.03 756.857V729.294C1496.84 729.195 1483.2 726.621 1485.8 706.426C1488.68 684.001 1493.91 660.095 1504.3 661.877C1514.69 663.659 1526.6 692.77 1527.67 706.426C1529.29 727.215 1515.66 729.294 1509.82 729.294V756.857M1502.03 726.027V716.821C1497.7 711.772 1489.57 701.912 1491.64 702.862C1493.72 703.812 1500.3 709.594 1503.33 712.366L1504.3 682.667L1507.22 707.911C1510.03 704.644 1515.86 698.407 1516.63 699.595C1517.41 700.783 1511.33 707.812 1508.2 711.178V726.027" stroke="white" stroke-width="3" stroke-linecap="round" stroke-linejoin="round"/>
<path d="M1265.37 512.009C1247.7 508.377 1241.25 504.131 1234.11 493.775C1230.86 497.465 1225 504.194 1215.88 503.869C1206.76 503.543 1204.59 502.458 1203.18 502.241" stroke="white" stroke-width="3" stroke-linecap="round" stroke-linejoin="round"/>
<path d="M1248.24 535.452C1248.24 539.562 1244.64 543.068 1239.98 543.068C1235.31 543.068 1231.71 539.562 1231.71 535.452C1231.71 531.341 1235.31 527.835 1239.98 527.835C1244.64 527.835 1248.24 531.341 1248.24 535.452Z" stroke="white" stroke-width="3"/>
<path d="M1267.65 549.127V543.917H1295.33M1292.72 514.288V541.638M1268.63 514.288V541.638M1270.58 514.288H1290.12M1270.58 516.893H1290.12M1270.58 521.451H1290.12M1282.63 523.73V540.661M1279.7 523.73V540.661M1281.33 545.871V548.15M1292.72 545.871V548.15M1272.21 545.871V548.15M1276.77 545.871V548.15M1285.56 545.871V548.15M1289.14 545.871V548.15M1295.98 540.01C1301.51 540.336 1313.17 540.596 1315.51 539.033C1318.44 537.08 1328.86 527.963 1334.07 527.963C1338.24 527.963 1340.8 527.963 1341.56 527.963V549.127M1336.68 529.917V548.15M1344.49 527.963C1347.53 527.746 1354 528.289 1355.56 532.196C1357.13 536.103 1356.86 545.111 1356.54 549.127M1345.47 553.685V613.269M1355.56 553.685C1355.56 555.248 1355.56 594.059 1355.56 613.269M1343.84 615.223H1357.52V632.479H1355.56M1343.84 615.223L1337 619.456V629.223H1343.84V632.479H1345.47M1343.84 615.223V624.991M1355.56 617.176V630.2M1345.47 632.479V639.643M1345.47 632.479H1355.56M1345.47 639.643H1355.56M1345.47 639.643H1342.21V643.224M1355.56 639.643V632.479M1355.56 639.643H1357.52V643.224" stroke="white" stroke-width="3" stroke-linecap="round" stroke-linejoin="round"/>
<mask id="path-102-inside-1_15_1011" fill="white">
<rect x="1264.07" y="625.316" width="6.51192" height="11.0703" rx="1.95358"/>
</mask>
<rect x="1264.07" y="625.316" width="6.51192" height="11.0703" rx="1.95358" stroke="white" stroke-width="6" mask="url(#path-102-inside-1_15_1011)"/>
<mask id="path-103-inside-2_15_1011" fill="white">
<rect x="1301.19" y="625.316" width="6.51192" height="11.0703" rx="1.95358"/>
</mask>
<rect x="1301.19" y="625.316" width="6.51192" height="11.0703" rx="1.95358" stroke="white" stroke-width="6" mask="url(#path-103-inside-2_15_1011)"/>
<path d="M1269.93 627.921H1302.16M1269.93 632.805H1302.16M1267.65 636.061V638.34M1304.12 636.061V638.34M1266.67 644.201V638.34H1305.42V643.55" stroke="white" stroke-width="3" stroke-linecap="round" stroke-linejoin="round"/>
<mask id="path-105-inside-3_15_1011" fill="white">
<rect x="1228.25" y="465.123" width="10.4191" height="28.6525" rx="1.95358"/>
</mask>
<rect x="1228.25" y="465.123" width="10.4191" height="28.6525" rx="1.95358" stroke="white" stroke-width="6" mask="url(#path-105-inside-3_15_1011)"/>
<path d="M1232.81 469.03V471.635M1232.81 474.239V485.635M1232.81 488.24V490.519M1200.58 459.913H1232.81V462.843" stroke="white" stroke-width="3" stroke-linecap="round" stroke-linejoin="round"/>
<path d="M1194.07 387.957V415.633" stroke="white" stroke-width="3" stroke-linecap="round" stroke-linejoin="round"/>
<path d="M1188.21 419.54L1185.6 415.633H1202.53L1200.25 419.54M1188.21 419.54H1200.25M1188.21 419.54L1185.6 549.778L1182.02 554.337H1185.6L1182.02 637.038H1177.46V642.573M1200.25 419.54L1202.53 549.778L1205.46 554.337H1202.53L1205.46 637.038H1210.35V642.573" stroke="white" stroke-width="3" stroke-linecap="round" stroke-linejoin="round"/>
<path d="M1188.21 419.865L1199.93 423.447L1188.21 429.959L1199.93 434.191L1188.21 441.68L1199.93 446.564L1188.21 453.402L1199.93 460.239L1188.21 468.705L1201.23 473.263L1187.23 482.705L1201.23 491.822L1187.23 500.287L1201.23 510.707L1186.58 524.382L1201.88 534.801L1185.6 547.499H1189.51M1201.88 547.499H1197.97M1184.62 554.011H1185.6M1204.16 554.011H1185.6M1185.6 554.011L1202.86 564.104L1184.62 577.128L1204.16 591.78L1183 602.199H1204.16M1204.16 606.432L1197.97 606.717M1181.69 637.038L1205.14 620.758L1183 607.409L1189.51 607.108M1181.69 637.038H1205.14V642.899M1181.69 637.038V642.899M1189.51 607.108V547.499M1189.51 607.108L1197.97 606.717M1189.51 547.499H1197.97M1197.97 547.499V606.717M1187.23 460.239H1201.88" stroke="white" stroke-width="3" stroke-linecap="round" stroke-linejoin="round"/>
<path d="M1007.5 407.493H1072.29C1079.78 406.299 1097.69 408.387 1097.69 427.029C1097.69 503.218 1178.76 583.64 1184.95 415.958" stroke="white" stroke-width="3" stroke-linecap="round" stroke-linejoin="round"/>
<path d="M1256.91 572.244L1251.37 582.012L1259.51 579.407L1251.37 592.431" stroke="white" stroke-width="3" stroke-linecap="round" stroke-linejoin="round"/>
<path d="M1318.44 571.919L1312.91 581.687L1321.05 579.082L1312.91 592.106" stroke="white" stroke-width="3" stroke-linecap="round" stroke-linejoin="round"/>
<path d="M1527.57 549.644L1516.77 552.725L1524.4 556.577L1509.47 560.152" stroke="white" stroke-width="3" stroke-linecap="round" stroke-linejoin="round"/>
<path d="M1699.47 552.064L1701.29 563.142L1705.99 556.005L1707.83 571.253" stroke="white" stroke-width="3" stroke-linecap="round" stroke-linejoin="round"/>
<path d="M1561.95 484.149L1557.3 489.105L1562.46 488.737L1555.8 495.236" stroke="white" stroke-width="3" stroke-linecap="round" stroke-linejoin="round"/>
<path d="M1700.45 517.169L1703.11 523.427L1704.86 518.553L1708.12 527.262" stroke="white" stroke-width="3" stroke-linecap="round" stroke-linejoin="round"/>
<path d="M1705.3 328.892C1703.04 328.84 1698.97 331.677 1697.21 333.102C1699.08 332.926 1703.08 332.681 1704.19 333.102C1705.57 333.628 1707.15 338.364 1710.43 340.403C1713.72 342.442 1719.12 339.745 1721.81 340.403C1724.51 341.06 1726.35 343.56 1727.86 344.612C1729.38 345.664 1731.61 345.467 1733.65 344.612C1735.28 343.928 1736 341.915 1736.15 340.995C1733.98 340.381 1729.28 338.995 1727.86 338.364C1726.09 337.574 1721.81 334.812 1723.85 335.535C1725.89 336.259 1733.13 332.049 1736.15 328.892C1739.18 325.735 1741.41 317.843 1740.56 316.264C1739.7 314.685 1732.8 320.605 1727.86 322.907C1723.92 324.749 1715.56 328.41 1711.88 330.01C1710.63 329.66 1707.57 328.945 1705.3 328.892Z" stroke="white" stroke-width="3" stroke-linecap="round" stroke-linejoin="round"/>
<path d="M1701.42 330.208C1699.19 327.007 1694.86 320.171 1695.18 317.646C1695.57 314.489 1705.96 325.867 1708.66 327.314C1710.82 328.472 1712.98 329.024 1713.79 329.156" stroke="white" stroke-width="3" stroke-linecap="round" stroke-linejoin="round"/>
<path d="M1749.45 363.008C1747.95 362.973 1745.23 364.863 1744.06 365.812C1745.31 365.695 1747.97 365.532 1748.71 365.812C1749.63 366.163 1750.68 369.317 1752.87 370.675C1755.06 372.033 1758.65 370.237 1760.45 370.675C1762.25 371.113 1763.47 372.778 1764.48 373.479C1765.49 374.18 1766.98 374.048 1768.34 373.479C1769.42 373.023 1769.9 371.683 1770 371.069C1768.55 370.66 1765.43 369.738 1764.48 369.317C1763.3 368.791 1760.45 366.951 1761.81 367.433C1763.17 367.915 1767.99 365.111 1770 363.008C1772.02 360.905 1773.51 355.648 1772.94 354.597C1772.37 353.545 1767.77 357.488 1764.48 359.022C1761.85 360.248 1756.29 362.687 1753.83 363.753C1753 363.519 1750.96 363.043 1749.45 363.008Z" stroke="white" stroke-width="3" stroke-linecap="round" stroke-linejoin="round"/>
<path d="M1746.87 363.884C1745.38 361.752 1742.5 357.199 1742.71 355.516C1742.97 353.413 1749.89 360.993 1751.69 361.956C1753.12 362.728 1754.56 363.096 1755.1 363.183" stroke="white" stroke-width="3" stroke-linecap="round" stroke-linejoin="round"/>
</g>
</g>
<defs>
<clipPath id="clip0_15_1011">
<rect width="1920" height="1074" fill="white" transform="translate(-0.5)"/>
</clipPath>
</defs>
</svg>
