<svg width="381" height="169" viewBox="0 0 381 169" fill="none" xmlns="http://www.w3.org/2000/svg">
<rect x="0.5" y="98.7627" width="169.947" height="69.7368" rx="2.5" stroke="#4048F5"/>
<rect x="13.7632" y="112.026" width="27" height="25.5263" stroke="#4048F5"/>
<rect x="53.5525" y="112.026" width="24.0526" height="25.5263" stroke="#4048F5"/>
<rect x="91.8683" y="112.026" width="25.5263" height="25.5263" stroke="#4048F5"/>
<rect x="131.658" y="112.026" width="25.5263" height="25.5263" stroke="#4048F5"/>
<path d="M22.1052 99.7364V36.7642M73.6841 99.0805L72.7101 36.7642M22.1052 36.7642V32.9787C22.1052 32.879 22.1188 32.7836 22.1487 32.6885C24.667 24.6687 33.7233 9.42273 50.2392 11.5096C66.8516 13.6087 72.1211 27.9087 72.6793 34.7963L72.7101 36.7642M22.1052 36.7642H72.7101" stroke="#4048F5" stroke-linecap="round" stroke-linejoin="round"/>
<path d="M97.2631 99.7364V36.7642M148.842 98.5583L148.199 36.7642M97.2631 36.7642V32.9797C97.2631 32.8794 97.2768 32.7833 97.3071 32.6877C99.8422 24.6677 108.958 9.4228 125.581 11.5096C142.302 13.6087 147.606 27.9087 148.168 34.7963L148.199 36.7642M97.2631 36.7642H148.199" stroke="#4048F5" stroke-linecap="round" stroke-linejoin="round"/>
<path d="M22.1052 46.6836H72.3444M22.1052 56.5435H72.3444M22.1052 65.0887H72.3444M22.1052 74.62H72.3444M22.1052 84.1512H72.3444M22.1052 92.3678H73.6841" stroke="#4048F5" stroke-linecap="round" stroke-linejoin="round"/>
<path d="M97.2631 46.6836H148.163M97.2631 56.5435H148.163M97.2631 65.0887H148.163M97.2631 74.62H148.163M97.2631 84.1512H148.163M97.2631 92.3678H148.842" stroke="#4048F5" stroke-linecap="round" stroke-linejoin="round"/>
<path d="M36.8422 151.432H131.252M179.772 1H195.836C196.38 1 196.824 1.43463 196.836 1.97835L200.399 166.505C200.411 167.065 199.96 167.526 199.399 167.526H177.504C176.947 167.526 176.497 167.07 176.505 166.512L178.772 1.98622C178.779 1.43936 179.225 1 179.772 1Z" stroke="#4048F5" stroke-linecap="round" stroke-linejoin="round"/>
<path d="M200.421 112.563H219.851C220.398 112.563 220.843 112.124 220.851 111.577L222.468 1.98525C222.476 1.43878 222.922 1 223.468 1H240.266C240.813 1 241.258 1.43932 241.266 1.98616L242.796 112.563M200.421 132.52H219.837C220.389 132.52 220.837 132.967 220.837 133.52V166.526C220.837 167.078 221.284 167.526 221.837 167.526H242.543C243.101 167.526 243.551 167.07 243.543 166.512L242.796 112.563M242.796 112.563H266.924C267.476 112.563 267.924 113.01 267.924 113.563V142.316C267.924 142.868 268.372 143.316 268.924 143.316H299.865M251.789 132.52V166.513C251.789 167.071 252.245 167.52 252.802 167.513L299.865 166.914M299.865 166.914L379.223 165.903C379.77 165.896 380.21 165.45 380.21 164.903V98.5132C380.21 97.9609 379.762 97.5132 379.21 97.5132H300.865C300.313 97.5132 299.865 97.9609 299.865 98.5132V166.914Z" stroke="#4048F5" stroke-linecap="round" stroke-linejoin="round"/>
<path d="M252 113V39.7876C252 39.3672 252.263 38.9917 252.658 38.8479L339.079 7.38318C339.731 7.1457 340.421 7.6287 340.421 8.32284V97.5603M285.731 67.0244V88.6763C285.731 89.2286 285.283 89.6763 284.731 89.6763H262.824C262.272 89.6763 261.824 89.2286 261.824 88.6763V67.0243C261.824 66.4721 262.272 66.0243 262.824 66.0243H284.731C285.283 66.0243 285.731 66.4721 285.731 67.0244Z" stroke="#4048F5" stroke-linecap="round" stroke-linejoin="round"/>
<path d="M252 46.6837L340.421 14.2627" stroke="#4048F5" stroke-linecap="round" stroke-linejoin="round"/>
<path d="M308 112.263H368.158C368.71 112.263 369.158 112.71 369.158 113.263V165.315M308 123.315V165.315" stroke="#4048F5" stroke-linecap="round" stroke-linejoin="round"/>
<path d="M179.052 17.21H197.474M221.789 17.21H241.684" stroke="#4048F5" stroke-linecap="round" stroke-linejoin="round"/>
</svg>
