<svg width="226" height="175" viewBox="0 0 226 175" fill="none" xmlns="http://www.w3.org/2000/svg">
<path d="M54.6804 40.1006V26C54.6804 12.1929 65.8733 1 79.6804 1H150.466C163.944 1 174.995 11.6833 175.452 25.153L175.959 40.1006" stroke="#4048F5" stroke-linecap="round" stroke-linejoin="round"/>
<path d="M65.9468 40.1007V30.9409C65.9468 19.8952 74.9011 10.9409 85.9468 10.9409H145C155.756 10.9409 164.586 19.4478 164.986 30.1963L165.355 40.1007" stroke="#4048F5" stroke-linecap="round" stroke-linejoin="round"/>
<path d="M1 173.97H225" stroke="#4048F5" stroke-width="2" stroke-linecap="round" stroke-linejoin="round"/>
<rect x="13.4288" y="47.228" width="199.142" height="126.243" rx="4.5" stroke="#4048F5"/>
<path d="M13.5916 54.0176C13.5916 75.2247 12.1334 106.373 32.8103 106.373H45.4021M212.408 54.0176C212.408 110.349 205.781 106.373 195.177 106.373C192.279 106.373 186.525 106.373 183.248 106.373M71.2483 106.373C84.4094 106.373 99.5388 106.373 114.988 106.373C129.288 106.373 145.85 106.373 159.39 106.373" stroke="#4048F5" stroke-linecap="round" stroke-linejoin="round"/>
<path d="M46.5652 95.4436C46.5652 95.1675 46.789 94.9436 47.0652 94.9436H70.2486C70.5248 94.9436 70.7486 95.1675 70.7486 95.4436V123.254C70.7486 124.635 69.6293 125.754 68.2486 125.754H49.0652C47.6845 125.754 46.5652 124.635 46.5652 123.254V95.4436Z" stroke="#4048F5"/>
<path d="M159.228 95.4436C159.228 95.1675 159.452 94.9436 159.728 94.9436H182.911C183.188 94.9436 183.411 95.1675 183.411 95.4436V123.254C183.411 124.635 182.292 125.754 180.911 125.754H161.728C160.347 125.754 159.228 124.635 159.228 123.254V95.4436Z" stroke="#4048F5"/>
<path d="M52.0296 118.965V101.409C52.0296 100.856 52.4773 100.409 53.0296 100.409H64.284C64.8363 100.409 65.284 100.856 65.284 101.409V118.965M163.367 118.965V101.409C163.367 100.856 163.815 100.409 164.367 100.409H177.609C178.162 100.409 178.609 100.856 178.609 101.409V118.965M73.8994 103.059H156.077M149.112 83.1778H76.2249C75.6726 83.1778 75.2249 82.73 75.2249 82.1778V74.8997C75.2249 74.3474 75.6726 73.8997 76.2249 73.8997H149.112C149.665 73.8997 150.112 74.3474 150.112 74.8997V82.1778C150.112 82.73 149.665 83.1778 149.112 83.1778Z" stroke="#4048F5" stroke-linecap="round" stroke-linejoin="round"/>
<path d="M90.9155 127.986V141.395M103.535 116.944V153.226M113.789 137.451V153.226" stroke="#4048F5" stroke-linecap="round" stroke-linejoin="round"/>
<rect x="46.5652" y="40.6003" width="29.4852" height="6.95266" rx="1.5" stroke="#4048F5"/>
<rect x="156.577" y="40.6003" width="29.4852" height="6.95266" rx="1.5" stroke="#4048F5"/>
</svg>
