<svg width="212" height="170" viewBox="0 0 212 170" fill="none" xmlns="http://www.w3.org/2000/svg">
<path d="M90.7749 90.718C88.7315 90.4659 85.1153 91.6067 82.8951 97.2363M131.669 90.718C133.903 91.6004 137.725 93.8623 139.75 97.2363M98.7513 115.86C94.5128 118.906 91.1359 123.223 89.1546 126.451C88.7498 127.11 87.7817 127.127 87.4127 126.447C84.5059 121.089 80.3139 110.652 81.679 101.892C81.9621 100.075 82.3824 98.5362 82.8951 97.2363M98.7513 115.86C101.799 113.669 105.292 112.135 109.032 112.135C113.84 112.135 118.845 114.373 123.18 117.202M98.7513 115.86L102.429 124.24M102.429 124.24H118.464M102.429 124.24L97.4603 152.764M118.464 124.24L123.18 117.202M118.464 124.24L125.157 149.899M123.18 117.202C127.011 119.704 130.319 122.668 132.505 124.958C133.007 125.485 133.892 125.353 134.181 124.685C136.819 118.596 141.101 107.39 141.101 101.892C141.101 100.168 140.575 98.6099 139.75 97.2363M82.8951 97.2363C77.6645 97.9718 69.3634 99.7899 61.1683 102.876M139.75 97.2363C149.633 100.34 171.849 108.679 181.659 117.202C191.34 125.615 193.855 146.615 193.919 156.447C193.921 156.699 193.833 156.931 193.647 157.102C189.475 160.913 168.681 168.209 115.634 168.937C105.543 169.075 96.445 168.98 88.2815 168.714C79.0266 168.411 70.9727 167.889 64.0334 167.237" stroke="#4048F5" stroke-linecap="round" stroke-linejoin="round"/>
<path d="M163.359 138.438L165.269 165.18" stroke="#4048F5" stroke-linecap="round" stroke-linejoin="round"/>
<path d="M138.571 59.509C138.571 64.2324 130.103 91.6283 111.286 92.573C95.4271 93.3692 86.9198 73.3633 84.0738 61.3985M138.571 59.509C141.393 52.5814 145.011 36.7219 144.258 27.6529C143.917 23.5425 142.461 19.378 136.385 19.0749C135.955 19.0534 135.567 18.768 135.421 18.363C124.395 -12.2879 73.6052 -0.694524 76.4493 40.0686C76.9012 46.545 82.1683 59.5091 84.0738 61.3985M138.571 59.509C138.571 39.1131 135.662 27.6524 131.842 24.7872C126.749 20.9676 120.382 42.8952 112.741 34.3377C88.865 7.59683 82.209 47.1725 83.0613 55.7303C83.2092 57.2152 83.5431 59.167 84.0738 61.3985" stroke="#4048F5" stroke-linecap="round" stroke-linejoin="round"/>
<path d="M90.7749 79.2251V97.4516C90.7749 97.6652 90.8401 97.8696 90.9685 98.0403C94.5144 102.757 103.039 111.697 110.365 111.697C117.705 111.697 126.85 100.927 130.699 95.2759C130.823 95.0927 130.879 94.8771 130.864 94.6559L129.932 81.0806" stroke="#4048F5" stroke-linecap="round" stroke-linejoin="round"/>
<path d="M70.7188 100.236C73.584 128.888 94.2131 160.214 111.786 159.45C129.359 158.685 149.988 100.236 149.988 100.236" stroke="#4048F5" stroke-linecap="round" stroke-linejoin="round"/>
<path d="M150.943 63.9443H211.111" stroke="#4048F5" stroke-linecap="round" stroke-linejoin="round"/>
<rect x="152.937" y="47.323" width="11.3809" height="16.764" rx="0.5" stroke="#4048F5"/>
<rect x="175.007" y="37.6333" width="11.3809" height="26.4534" rx="0.5" stroke="#4048F5"/>
<rect x="197.616" y="27.4058" width="11.3809" height="36.6811" rx="0.5" stroke="#4048F5"/>
<path d="M152.621 28.9745C152.426 29.1698 152.426 29.4864 152.621 29.6817C152.816 29.8769 153.133 29.8769 153.328 29.6817L152.621 28.9745ZM209.701 12.5317C209.789 12.27 209.649 11.9863 209.387 11.8979L205.124 10.4572C204.863 10.3688 204.579 10.5092 204.49 10.7709C204.402 11.0325 204.542 11.3162 204.804 11.4046L208.594 12.6852L207.313 16.4747C207.225 16.7363 207.365 17.02 207.627 17.1084C207.888 17.1968 208.172 17.0564 208.26 16.7948L209.701 12.5317ZM180.586 22.855L180.24 23.2154L180.586 22.855ZM178.548 20.8953L178.202 21.2558L178.548 20.8953ZM153.328 29.6817C153.313 29.6968 153.338 29.6724 153.464 29.5972C153.571 29.5328 153.721 29.4497 153.911 29.3486C154.291 29.1468 154.817 28.8828 155.461 28.5682C156.75 27.9395 158.499 27.1163 160.48 26.199C164.44 24.3648 169.315 22.1592 173.254 20.3924L172.845 19.48C168.904 21.2475 164.025 23.4549 160.059 25.2916C158.077 26.2097 156.32 27.0363 155.023 27.6695C154.375 27.9858 153.837 28.2556 153.442 28.4654C153.245 28.57 153.079 28.6621 152.95 28.7391C152.839 28.8054 152.707 28.8886 152.621 28.9745L153.328 29.6817ZM178.202 21.2558L180.24 23.2154L180.933 22.4946L178.895 20.5349L178.202 21.2558ZM186.491 24.1803L209.449 12.8197L209.006 11.9234L186.048 23.284L186.491 24.1803ZM180.24 23.2154C181.912 24.823 184.412 25.209 186.491 24.1803L186.048 23.284C184.347 24.1257 182.301 23.8099 180.933 22.4946L180.24 23.2154ZM173.254 20.3924C174.924 19.6432 176.881 19.986 178.202 21.2558L178.895 20.5349C177.281 18.9835 174.888 18.5633 172.845 19.48L173.254 20.3924Z" fill="#4048F5"/>
<path d="M48.8179 104.056C67.919 107.877 76.5144 139.393 74.6045 146.079C73.0433 151.543 68.8812 155.102 65.7456 156.343C65.2931 156.522 64.8067 156.584 64.3201 156.584H9.07859C8.20846 156.584 7.33664 156.376 6.67438 155.812C4.50749 153.965 1.79105 149.973 1.0654 144.169C0.110247 136.528 9.66088 110.742 26.8518 104.056" stroke="#4048F5" stroke-linecap="round" stroke-linejoin="round"/>
<path d="M23.9865 84.0005C25.9647 91.9077 28.8327 95.3567 36.4022 100.236" stroke="#4048F5" stroke-linecap="round" stroke-linejoin="round"/>
<path d="M47.8628 84.0005C49.3706 89.6725 47.8628 94.506 44.0426 97.3712" stroke="#4048F5" stroke-linecap="round" stroke-linejoin="round"/>
<path d="M33.537 106.922C29.0801 105.648 19.2113 101 15.391 92.596C13.1828 87.7379 11.9319 83.4967 11.2694 80.3521C10.7002 77.65 12.851 75.4051 15.6124 75.4051C17.9868 75.4051 21.3254 75.4051 25.8966 75.4051C39.2673 75.4051 34.4921 69.6748 44.0426 70.6298C51.1791 71.3435 58.3156 80.7226 64.6738 81.9567C65.3314 82.0843 65.8113 82.7304 65.5845 83.3607C64.1259 87.4149 60.2697 95.8766 55.5032 99.2813C50.1549 103.101 44.9977 105.967 43.0876 106.922" stroke="#4048F5" stroke-linecap="round" stroke-linejoin="round"/>
<path d="M55.9583 132.708C55.9583 142.981 47.6304 151.309 37.3573 151.309C27.0842 151.309 18.7562 142.981 18.7562 132.708C18.7562 122.435 27.0842 114.107 37.3573 114.107C47.6304 114.107 55.9583 122.435 55.9583 132.708Z" stroke="#4048F5"/>
<path d="M38.3123 119.337V123.157M38.3123 143.213V147.989M41.1775 129.843C41.1775 129.206 41.1775 126.978 38.3123 126.978C35.2922 126.978 34.4921 127.933 34.4921 129.843C34.4921 131.753 36.4022 132.708 39.2674 132.708C42.1325 132.708 42.1325 139.393 39.2674 139.393C36.9753 139.393 34.4921 139.393 34.4921 136.528" stroke="#4048F5" stroke-linecap="round" stroke-linejoin="round"/>
<path d="M32.582 60.1242V27.6974C32.582 27.1451 32.1343 26.6974 31.582 26.6974H24.7212C23.7999 26.6974 23.3687 25.5571 24.0596 24.9475L37.6318 12.972C38.0178 12.6314 38.5994 12.6395 38.9757 12.9908L51.0474 24.2577C51.6722 24.8408 51.3249 25.8882 50.4755 25.9826L44.9322 26.5985C44.4257 26.6548 44.0426 27.0829 44.0426 27.5924V60.1242" stroke="#4048F5" stroke-linecap="round" stroke-linejoin="round"/>
</svg>
