<svg width="92" height="162" viewBox="0 0 92 162" fill="none" xmlns="http://www.w3.org/2000/svg">
<path fill-rule="evenodd" clip-rule="evenodd" d="M32.8362 96.39C32.919 96.6021 32.8136 96.8409 32.6009 96.9233C22.1558 100.974 13.9888 110.835 8.57201 120.907C5.8674 125.936 3.85835 131 2.59938 135.384C1.3364 139.783 0.84125 143.453 1.12455 145.713C2.05208 153.111 5.6564 158.043 8.28714 160.064C8.7643 160.43 9.38257 160.588 10.0399 160.588H78.8618C79.2286 160.588 79.5784 160.54 79.8998 160.423C83.6728 159.046 88.8965 154.726 90.8253 147.995C91.1 147.036 91.1948 145.589 91.0855 143.753C90.9768 141.926 90.6681 139.745 90.157 137.334C89.1349 132.511 87.3082 126.791 84.6771 121.18C79.4021 109.93 70.958 99.2473 59.4048 96.9434C59.181 96.8987 59.0359 96.6817 59.0807 96.4585C59.1254 96.2354 59.3431 96.0907 59.5669 96.1353C71.5223 98.5194 80.1219 109.519 85.4258 120.831C88.0842 126.5 89.9307 132.28 90.9656 137.163C91.4831 139.605 91.7988 141.828 91.9105 143.705C92.0217 145.573 91.9328 147.129 91.6199 148.221C89.613 155.226 84.1854 159.737 80.1837 161.196C79.7497 161.355 79.2994 161.412 78.8618 161.412H10.0399C9.259 161.412 8.44513 161.225 7.78284 160.717C4.96671 158.554 1.25765 153.417 0.30449 145.815C1.56015e-05 143.387 0.533339 139.586 1.80486 135.157C3.0804 130.715 5.1119 125.597 7.84367 120.517C13.2996 110.372 21.5887 100.309 32.3013 96.1553C32.514 96.0728 32.7535 96.1779 32.8362 96.39Z" fill="white"/>
<path fill-rule="evenodd" clip-rule="evenodd" d="M28.8246 71.5273C29.046 71.4721 29.2703 71.6063 29.3257 71.827C29.7646 73.5762 30.238 75.1412 30.7731 76.5668C31.3463 78.0939 31.9903 79.461 32.7384 80.7229C32.8546 80.9188 32.7895 81.1715 32.593 81.2873C32.3966 81.4031 32.1432 81.3381 32.027 81.1423C31.251 79.8335 30.5869 78.4218 29.9991 76.8556C29.4506 75.3944 28.9685 73.7987 28.524 72.027C28.4686 71.8063 28.6032 71.5825 28.8246 71.5273ZM35.6045 79.314C35.8164 79.2294 36.0569 79.3322 36.1416 79.5435C36.952 81.5635 38.5412 83.8954 40.8473 84.6619C41.0638 84.7339 41.1808 84.9672 41.1087 85.1831C41.0365 85.399 40.8025 85.5157 40.586 85.4437C37.9335 84.5621 36.2168 81.9497 35.3743 79.8495C35.2896 79.6383 35.3926 79.3985 35.6045 79.314ZM38.0286 87.2269C38.2256 87.112 38.4787 87.178 38.594 87.3744C39.8383 89.4945 41.7221 90.7901 44.3082 91.4522C44.5293 91.5088 44.6624 91.7334 44.6057 91.9538C44.5489 92.1742 44.3237 92.307 44.1027 92.2504C41.3383 91.5426 39.2536 90.1297 37.8807 87.7906C37.7654 87.5942 37.8316 87.3418 38.0286 87.2269Z" fill="white"/>
<path fill-rule="evenodd" clip-rule="evenodd" d="M69.0051 77.2819C69.2252 77.3419 69.3548 77.5685 69.2946 77.788C67.3538 84.8648 62.6425 89.2098 56.6068 89.9156C56.3802 89.9421 56.1749 89.7804 56.1483 89.5544C56.1217 89.3284 56.2839 89.1237 56.5106 89.0972C62.1492 88.4378 66.6277 84.3882 68.4975 77.5706C68.5577 77.3511 68.7849 77.2218 69.0051 77.2819Z" fill="white"/>
<path fill-rule="evenodd" clip-rule="evenodd" d="M84.4477 136.66C84.6605 136.578 84.8998 136.684 84.9821 136.896C87.6346 143.739 86.4312 150.025 81.995 154.166C81.8284 154.322 81.5669 154.313 81.4109 154.147C81.2549 153.981 81.2635 153.72 81.4301 153.565C85.5745 149.696 86.7666 143.786 84.2112 137.193C84.1289 136.981 84.2348 136.742 84.4477 136.66Z" fill="white"/>
<path fill-rule="evenodd" clip-rule="evenodd" d="M6.58422 136.66C6.37135 136.578 6.13208 136.684 6.04981 136.896C3.39726 143.739 4.6007 150.025 9.03691 154.166C9.20351 154.322 9.46501 154.313 9.62098 154.147C9.77696 153.981 9.76834 153.72 9.60175 153.565C5.45734 149.696 4.26529 143.786 6.82069 137.193C6.90296 136.981 6.79709 136.742 6.58422 136.66Z" fill="white"/>
<path fill-rule="evenodd" clip-rule="evenodd" d="M66.2915 77.2193C66.5116 77.2793 66.6413 77.5059 66.5811 77.7254C65.2292 82.6547 61.9383 85.7022 57.7071 86.197C57.4804 86.2235 57.2751 86.0618 57.2485 85.8358C57.2219 85.6098 57.3841 85.4051 57.6108 85.3786C61.445 84.9302 64.5031 82.1781 65.7839 77.5081C65.8441 77.2886 66.0714 77.1593 66.2915 77.2193Z" fill="white"/>
<path fill-rule="evenodd" clip-rule="evenodd" d="M82.2265 138.216C82.4394 138.134 82.6786 138.24 82.7609 138.452C84.6085 143.219 83.7753 147.619 80.6653 150.523C80.4987 150.678 80.2372 150.67 80.0813 150.503C79.9253 150.337 79.9339 150.077 80.1005 149.921C82.9187 147.29 83.7405 143.265 81.99 138.749C81.9078 138.537 82.0136 138.298 82.2265 138.216Z" fill="white"/>
<path fill-rule="evenodd" clip-rule="evenodd" d="M8.80544 138.216C8.59257 138.134 8.35331 138.24 8.27103 138.452C6.42344 143.219 7.25662 147.619 10.3666 150.523C10.5332 150.678 10.7947 150.67 10.9507 150.503C11.1066 150.337 11.098 150.077 10.9314 149.921C8.11326 147.29 7.29147 143.265 9.04191 138.749C9.12418 138.537 9.01831 138.298 8.80544 138.216Z" fill="white"/>
<path fill-rule="evenodd" clip-rule="evenodd" d="M40.184 60.6895C38.182 61.3486 35.4167 61.7908 31.2755 61.7908H16.5982C14.5337 61.7908 12.9725 63.4463 13.3032 65.4029C13.9665 69.3277 15.5224 75.2859 18.7219 82.3045C21.0303 87.3682 25.1769 91.3198 29.4502 94.2056C33.7224 97.0907 38.0901 98.8892 40.7924 99.6591C41.0119 99.7216 41.1389 99.9497 41.0762 100.168C41.0135 100.387 40.7848 100.514 40.5654 100.451C37.7824 99.6586 33.3344 97.8239 28.9867 94.8879C24.6402 91.9527 20.3629 87.8956 17.9696 82.6455C14.7397 75.5604 13.1631 69.5335 12.4882 65.5398C12.0604 63.0086 14.0983 60.9667 16.5982 60.9667H31.2755C35.3622 60.9667 38.0333 60.5298 39.9249 59.907C41.8072 59.2873 42.9393 58.4769 43.9499 57.6852C44.0604 57.5986 44.17 57.5117 44.2796 57.4249C45.1711 56.7182 46.0551 56.0176 47.3327 55.5528C48.7716 55.0293 50.6768 54.8122 53.6497 55.1087C55.9772 55.3407 58.2814 56.2903 60.5361 57.5742C62.7913 58.8583 65.0244 60.4933 67.205 62.1179C67.3965 62.2606 67.5876 62.4032 67.7783 62.5454C69.7666 64.029 71.7085 65.478 73.6087 66.6456C75.6928 67.926 77.6881 68.8428 79.5929 69.0986C80.3482 69.2 80.9746 69.9499 80.6928 70.7647C79.8663 73.154 78.2284 77.1072 76.0322 81.0102C73.8418 84.9028 71.0681 88.7963 67.954 91.0143C61.3526 95.7158 54.9866 99.2429 52.618 100.424C52.4139 100.526 52.1657 100.443 52.0636 100.24C51.9615 100.036 52.0443 99.7885 52.2484 99.6867C54.5815 98.5235 60.9101 95.0183 67.4736 90.3437C70.4351 88.2345 73.1362 84.4726 75.3114 80.607C77.4807 76.7519 79.0992 72.8444 79.9115 70.496C79.9907 70.2671 79.8246 69.9611 79.4826 69.9152C77.4076 69.6366 75.2951 68.6496 73.1751 67.3471C71.2412 66.1589 69.2691 64.6872 67.2876 63.2085C67.0952 63.065 66.9028 62.9214 66.7103 62.778C64.5267 61.1511 62.3315 59.5454 60.1263 58.2898C57.9206 57.0338 55.7324 56.1445 53.5675 55.9286C50.6633 55.639 48.8953 55.8615 47.616 56.3269C46.4711 56.7434 45.6911 57.3605 44.7929 58.0711C44.6841 58.1571 44.5736 58.2446 44.4605 58.3332C43.4141 59.153 42.1953 60.0274 40.184 60.6895Z" fill="white"/>
<path fill-rule="evenodd" clip-rule="evenodd" d="M20.5925 143.56L27.2005 133.499L21.1707 124.216H27.3377L30.4313 129.157L33.4617 124.216H39.5882L33.5438 133.626L40.1637 143.56H33.8485L30.3648 138.141L26.8704 143.56H20.5925ZM30.3659 136.616L34.3004 142.736H38.6223L32.5571 133.634L38.0775 125.04H33.9251L30.4385 130.725L26.8793 125.04H22.6906L28.1868 133.502L22.1216 142.736H26.4193L30.3659 136.616Z" fill="white"/>
<path fill-rule="evenodd" clip-rule="evenodd" d="M69.5196 140.555V148.504H43.9235L44.0224 147.592C44.2941 145.086 45.1098 142.718 46.461 140.495C47.8158 138.249 50.4389 135.352 54.2569 131.819C57.3373 128.958 59.1418 127.092 59.7759 126.167C60.6408 124.873 61.0389 123.646 61.0389 122.476C61.0389 121.112 60.6711 120.193 60.0519 119.588L60.0461 119.582L60.0403 119.576C59.4251 118.951 58.5375 118.592 57.265 118.592C56.0221 118.592 55.1206 118.959 54.4652 119.625C53.8306 120.27 53.3714 121.447 53.2472 123.35L53.1917 124.202L44.7322 123.358L44.8214 122.533C45.2392 118.667 46.5691 115.738 48.9422 113.927C51.2432 112.172 54.0928 111.319 57.4345 111.319C61.0882 111.319 64.0645 112.305 66.258 114.369C68.4289 116.411 69.5196 118.971 69.5196 121.993C69.5196 123.688 69.2101 125.313 68.5898 126.86C67.988 128.385 67.0374 129.958 65.7596 131.58C64.8917 132.683 63.3637 134.226 61.2134 136.192C59.0642 138.158 57.7328 139.433 57.1809 140.043C57.0294 140.216 56.8866 140.387 56.7525 140.555H69.5196ZM55.7177 140.555C55.5187 140.833 55.3404 141.108 55.1827 141.379H68.6932V147.68H44.8441C44.874 147.404 44.911 147.129 44.9548 146.856C45.2891 144.777 46.027 142.798 47.1684 140.921C48.4598 138.78 51.0101 135.947 54.8195 132.423C57.8864 129.574 59.7669 127.642 60.461 126.628C61.3972 125.228 61.8653 123.844 61.8653 122.476C61.8653 120.963 61.4537 119.804 60.6305 119C59.8234 118.179 58.7016 117.768 57.265 117.768C55.8445 117.768 54.7146 118.195 53.8753 119.048C53.1568 119.778 52.6985 120.921 52.5004 122.476C52.4671 122.738 52.4411 123.012 52.4225 123.297L45.6431 122.621C45.6732 122.342 45.7081 122.07 45.7477 121.803C46.2404 118.493 47.4726 116.086 49.4444 114.582C51.5751 112.956 54.2384 112.143 57.4345 112.143C60.9372 112.143 63.6893 113.085 65.6909 114.968C67.6924 116.851 68.6932 119.193 68.6932 121.993C68.6932 123.587 68.4026 125.108 67.8215 126.556C67.2566 127.988 66.3527 129.493 65.1098 131.071C64.2865 132.117 62.8015 133.622 60.6547 135.585C58.5079 137.549 57.1439 138.852 56.5628 139.496C56.2487 139.854 55.967 140.207 55.7177 140.555Z" fill="white"/>
<path fill-rule="evenodd" clip-rule="evenodd" d="M47.5994 63.1668C46.3426 64.5997 44.8215 66.3338 41.6664 67.3168C40.7653 67.5976 39.0045 67.8447 36.7977 68.0528C34.5755 68.2623 31.8597 68.4355 29.0209 68.558C23.3477 68.803 17.157 68.847 13.4135 68.5706C13.1859 68.5538 13.0151 68.3562 13.0319 68.1292C13.0488 67.9023 13.2469 67.732 13.4745 67.7488C17.1691 68.0216 23.3214 67.9793 28.9851 67.7348C31.8147 67.6126 34.5157 67.4402 36.7199 67.2324C38.9394 67.0231 40.6145 66.7812 41.4199 66.5303C44.3477 65.618 45.7336 64.0401 46.9817 62.6191C47.09 62.4958 47.1973 62.3736 47.3044 62.2532C47.9739 61.5009 48.663 60.7878 49.5835 60.3331C50.5172 59.872 51.6473 59.6953 53.1747 59.9237C55.3141 60.2437 57.7158 61.2763 60.1628 62.616C62.6155 63.9588 65.1476 65.6295 67.5497 67.252C67.9696 67.5356 68.3852 67.8175 68.7957 68.096C70.7413 69.4158 72.5717 70.6574 74.1873 71.624C75.1645 72.2086 76.0518 72.6856 76.8283 73.0154C77.6117 73.3481 78.2481 73.516 78.7333 73.516C78.9615 73.516 79.1465 73.7004 79.1465 73.928C79.1465 74.1555 78.9615 74.34 78.7333 74.34C78.0821 74.34 77.3238 74.1216 76.5044 73.7735C75.6781 73.4225 74.7542 72.9241 73.7621 72.3306C72.1243 71.3508 70.2695 70.0925 68.3237 68.7725C67.9148 68.4951 67.5019 68.215 67.0862 67.9342C64.6846 66.3121 62.1806 64.6608 59.765 63.3383C57.3437 62.0127 55.045 61.0367 53.0521 60.7386C51.654 60.5295 50.7016 60.7005 49.9504 61.0716C49.186 61.4491 48.5879 62.0525 47.9226 62.8001C47.8163 62.9196 47.7089 63.0421 47.5994 63.1668Z" fill="white"/>
<path fill-rule="evenodd" clip-rule="evenodd" d="M36.6064 49.0619C36.6064 49.7446 37.1615 50.298 37.8461 50.298C38.5308 50.298 39.0858 49.7446 39.0858 49.0619V33.9266C39.0858 33.244 38.5308 32.6906 37.8461 32.6906H24.895L46.4703 8.65643L66.6412 32.6906H56.2741C55.5895 32.6906 55.0344 33.244 55.0344 33.9266V48.5578C55.0344 49.2405 55.5895 49.7939 56.2741 49.7939C56.9588 49.7939 57.5138 49.2405 57.5138 48.5578V35.1627H69.295C69.7765 35.1627 70.2144 34.8847 70.4182 34.4498C70.622 34.0148 70.5547 33.5015 70.2457 33.1334L47.4525 5.97469C47.2216 5.69956 46.8822 5.53803 46.5225 5.53205C46.1627 5.52608 45.8181 5.67626 45.5781 5.94357L21.198 33.1022C20.8719 33.4655 20.7904 33.986 20.9899 34.431C21.1894 34.8761 21.6327 35.1627 22.1216 35.1627H36.6064V49.0619ZM37.8461 49.4739C37.6179 49.4739 37.4329 49.2895 37.4329 49.0619V34.7507C37.4329 34.5231 37.2479 34.3386 37.0197 34.3386H22.1216C21.9587 34.3386 21.8109 34.2431 21.7444 34.0948C21.6779 33.9464 21.7051 33.7729 21.8138 33.6518L46.1939 6.49316C46.2739 6.40406 46.3888 6.354 46.5087 6.35599C46.6286 6.35798 46.7418 6.41182 46.8187 6.50354L69.6119 33.6622C69.7149 33.7849 69.7373 33.956 69.6694 34.101C69.6015 34.246 69.4555 34.3386 69.295 34.3386H57.1006C56.8723 34.3386 56.6873 34.5231 56.6873 34.7507V48.5578C56.6873 48.7854 56.5023 48.9699 56.2741 48.9699C56.0459 48.9699 55.8609 48.7854 55.8609 48.5578V33.9266C55.8609 33.6991 56.0459 33.5146 56.2741 33.5146H67.5258C67.6863 33.5146 67.8323 33.4219 67.9002 33.277C67.9681 33.132 67.9457 32.9609 67.8427 32.8382L46.7977 7.76252C46.7207 7.67081 46.6076 7.61697 46.4877 7.61497C46.3678 7.61298 46.2529 7.66304 46.1729 7.75214L23.6627 32.8278C23.554 32.9489 23.5268 33.1224 23.5933 33.2707C23.6598 33.4191 23.8076 33.5146 23.9705 33.5146H37.8461C38.0743 33.5146 38.2593 33.6991 38.2593 33.9266V49.0619C38.2593 49.2895 38.0743 49.4739 37.8461 49.4739Z" fill="white"/>
<path fill-rule="evenodd" clip-rule="evenodd" d="M74.4567 29.7428C74.63 29.5948 74.65 29.3346 74.5015 29.1619L72.0222 26.2777C71.8736 26.1049 71.6128 26.0849 71.4395 26.233C71.2662 26.3811 71.2462 26.6412 71.3947 26.814L73.874 29.6982C74.0225 29.8709 74.2834 29.8909 74.4567 29.7428ZM16.4575 29.7214C16.6189 29.8823 16.8806 29.8823 17.0419 29.7214L19.9345 26.8372C20.0959 26.6763 20.0959 26.4154 19.9345 26.2545C19.7731 26.0936 19.5115 26.0936 19.3501 26.2545L16.4575 29.1387C16.2962 29.2996 16.2962 29.5604 16.4575 29.7214ZM20.9957 25.1817C21.153 25.3466 21.4145 25.3531 21.5799 25.1963L46.4945 1.57584L70.1766 25.1891C70.3379 25.35 70.5996 25.35 70.7609 25.1891C70.9223 25.0282 70.9223 24.7673 70.7609 24.6064L46.794 0.709061C46.6355 0.551016 46.3795 0.5478 46.2171 0.701811L21.0105 24.5992C20.8451 24.756 20.8385 25.0168 20.9957 25.1817Z" fill="white"/>
</svg>
