<svg width="136" height="162" viewBox="0 0 136 162" fill="none" xmlns="http://www.w3.org/2000/svg">
<path fill-rule="evenodd" clip-rule="evenodd" d="M72.5936 80.3888C72.7506 80.4656 72.8341 80.6405 72.7951 80.8109C72.3019 82.9685 72.0011 86.6462 71.9761 90.0597C71.9636 91.7631 72.0199 93.3893 72.1531 94.716C72.2197 95.3796 72.305 95.9625 72.4088 96.4399C72.5141 96.9239 72.633 97.2731 72.7549 97.4865C72.9441 97.8176 73.1916 98.2274 73.4766 98.6993C74.3021 100.066 75.4423 101.954 76.393 103.961C77.0346 105.316 77.5991 106.742 77.931 108.124C78.2622 109.503 78.3683 110.864 78.0655 112.075C77.7814 113.211 77.5524 114.204 77.3499 115.082C77.2355 115.578 77.1296 116.037 77.0269 116.465C76.8124 117.358 76.6128 118.113 76.3832 118.744C76.9733 118.699 77.3926 118.554 77.8205 118.157C78.4166 117.603 79.0489 116.542 79.9934 114.464C80.3041 113.781 80.9901 112.252 81.6294 110.538C82.2722 108.813 82.853 106.938 82.9738 105.549C82.9881 105.385 83.1073 105.249 83.2682 105.214C83.429 105.179 83.5942 105.252 83.6759 105.395C84.4624 106.771 85.2434 109.366 85.6793 112.161C86.1156 114.959 86.2181 118.032 85.5958 120.366C84.9718 122.705 83.486 124.89 81.912 126.727C80.6919 128.151 79.4008 129.386 78.3882 130.333C80.7753 130 83.9341 128.882 86.4568 126.044C87.485 124.887 88.2185 123.28 88.7434 121.733C89.2041 120.375 89.4947 119.094 89.6873 118.246C89.7135 118.13 89.7378 118.023 89.7606 117.924C89.8004 117.752 89.955 117.63 90.132 117.632C90.309 117.635 90.4607 117.76 90.4964 117.933C90.9434 120.105 91.1888 123.544 91.0593 126.855C90.9944 128.512 90.8353 130.146 90.5572 131.581C90.2806 133.009 89.8803 134.27 89.3155 135.158C87.4635 138.068 84.7124 141.281 83.1277 143.132C83.0236 143.254 82.9245 143.37 82.831 143.479C84.8568 144.29 87.1698 143.926 89.0839 143.386C89.7881 143.188 90.4151 142.973 90.9521 142.789C91.1996 142.705 91.4281 142.626 91.636 142.559C91.9495 142.458 92.2402 142.375 92.4609 142.354C92.5645 142.345 92.7164 142.341 92.8566 142.408C92.9355 142.445 93.0135 142.507 93.0688 142.598C93.1231 142.689 93.1402 142.783 93.1402 142.864C93.1402 143.199 93.0346 143.827 92.8146 144.618C92.5915 145.42 92.2432 146.416 91.7397 147.495C90.7339 149.65 89.1002 152.153 86.5913 154.083C84.5991 155.615 81.3663 157.42 77.88 158.841C74.4016 160.259 70.6247 161.314 67.5423 161.316C60.3653 161.692 51.9657 160.42 47.6322 153.61C44.9569 149.406 44.0959 145.674 43.7622 142.241C43.6287 140.868 43.5794 139.54 43.5318 138.257C43.5201 137.943 43.5086 137.633 43.4959 137.324C43.4313 135.75 43.3379 134.243 43.0608 132.765C42.8178 131.469 41.777 129.872 40.5844 128.35C39.9954 127.599 39.3826 126.882 38.8354 126.247C38.7737 126.175 38.7127 126.105 38.6526 126.035C38.184 125.492 37.7691 125.012 37.4836 124.641C37.4001 124.532 37.3821 124.386 37.4367 124.261C37.4914 124.135 37.61 124.049 37.7464 124.036C39.1312 123.904 41.0844 124.2 42.9014 124.707C44.7129 125.213 46.471 125.952 47.4378 126.758C48.3793 127.542 49.2219 128.581 49.846 129.632C50.1458 130.137 50.4003 130.653 50.5911 131.153C50.8798 129.884 51.1004 128.464 51.0569 127.106C50.9961 125.206 50.4227 123.499 48.8708 122.465C47.9896 121.877 47.3794 120.78 46.9438 119.499C46.5039 118.206 46.2203 116.66 46.0361 115.095C45.6869 112.128 45.6891 109.034 45.6903 107.353C45.6903 107.26 45.6904 107.172 45.6904 107.088C45.6904 106.96 45.6987 106.832 45.7301 106.722C45.7554 106.633 45.8432 106.402 46.1067 106.36C46.2218 106.341 46.3185 106.372 46.381 106.401C46.4438 106.43 46.4954 106.469 46.5344 106.503C46.6119 106.57 46.6862 106.657 46.7544 106.746C46.9385 106.987 47.1821 107.38 47.4641 107.835C47.5892 108.037 47.7217 108.251 47.8601 108.469C48.3227 109.199 48.8734 110.018 49.4947 110.741C50.1192 111.467 50.7939 112.07 51.497 112.395C54.0216 113.56 55.1387 114.956 55.7508 116.222C55.9998 116.737 56.1637 117.229 56.302 117.644C56.3299 117.727 56.3568 117.808 56.3831 117.885C56.5475 118.367 56.6815 118.676 56.8777 118.872C56.9832 118.978 57.0638 119.015 57.1139 119.026C57.1584 119.036 57.2027 119.032 57.2578 119.004C57.3887 118.937 57.5674 118.735 57.7197 118.343C58.0162 117.581 58.1122 116.348 57.7556 115.1C57.5015 114.21 57.1195 113.242 56.7191 112.227C56.5346 111.76 56.3462 111.282 56.1646 110.798C55.5996 109.291 55.105 107.728 55.105 106.335C55.105 105.38 55.3281 103.559 55.5727 101.563C55.6058 101.293 55.6393 101.019 55.6727 100.744C55.9559 98.4125 56.2348 95.9514 56.2348 94.2841C56.2348 94.0761 56.4034 93.9075 56.6114 93.9075C56.8194 93.9075 56.988 94.0761 56.988 94.2841C56.988 95.89 57.6156 97.6337 58.451 99.2208C59.2831 100.802 60.3024 102.192 61.0431 103.081C62.0196 104.253 63.36 106.008 64.4585 107.477C64.2287 106.576 64.0255 105.518 63.8823 104.357C63.571 101.831 63.5383 98.7769 64.1504 95.7166C65.3746 89.5957 69.8698 83.259 72.1365 80.4885C72.2472 80.3532 72.4365 80.3119 72.5936 80.3888ZM56.8083 97.3509C56.7018 98.4791 56.5605 99.6807 56.4203 100.835C56.3871 101.109 56.3539 101.38 56.3213 101.647C56.0745 103.662 55.8582 105.43 55.8582 106.335C55.8582 107.578 56.3051 109.027 56.8698 110.533C57.0401 110.987 57.2218 111.448 57.4029 111.907C57.8107 112.941 58.2153 113.967 58.4798 114.893C58.8765 116.281 58.7841 117.684 58.4216 118.616C58.2444 119.072 57.9759 119.482 57.6008 119.674C57.4028 119.775 57.1795 119.812 56.9488 119.761C56.7238 119.71 56.522 119.582 56.3451 119.405C56.0087 119.069 55.8294 118.594 55.6703 118.129C55.6413 118.043 55.6125 117.957 55.5833 117.87C55.4452 117.456 55.2986 117.017 55.0727 116.55C54.5389 115.446 53.5524 114.173 51.1814 113.079C50.3363 112.689 49.5779 111.993 48.9236 111.232C48.2661 110.467 47.6923 109.611 47.2239 108.872C47.0668 108.624 46.9238 108.393 46.7942 108.184C46.664 107.974 46.5474 107.786 46.4433 107.624C46.4431 109.35 46.4583 112.238 46.7841 115.007C46.9654 116.547 47.2411 118.034 47.6569 119.257C48.0769 120.491 48.6188 121.392 49.2886 121.838C51.1259 123.063 51.745 125.059 51.8097 127.082C51.8744 129.103 51.3905 131.219 50.9487 132.797C50.8994 132.973 50.731 133.089 50.5491 133.071C50.3673 133.053 50.2246 132.907 50.2105 132.725C50.154 131.99 49.7894 131.012 49.1984 130.017C48.6111 129.028 47.8218 128.058 46.9557 127.336C46.1149 126.636 44.4837 125.931 42.6988 125.433C41.2407 125.026 39.735 124.771 38.5502 124.758C38.7496 124.995 38.9768 125.258 39.2243 125.545C39.2837 125.614 39.3442 125.684 39.4059 125.755C39.9537 126.39 40.5764 127.119 41.1772 127.885C42.3642 129.4 43.5202 131.129 43.801 132.626C44.0888 134.161 44.1836 135.714 44.2485 137.294C44.2614 137.608 44.2731 137.923 44.2848 138.239C44.3324 139.519 44.3808 140.82 44.5118 142.168C44.8371 145.514 45.6707 149.125 48.2676 153.206C52.3677 159.649 60.3815 160.939 67.5126 160.564C67.5192 160.563 67.5258 160.563 67.5324 160.563C70.4735 160.563 74.1487 159.548 77.5957 158.143C81.0386 156.74 84.2077 154.966 86.132 153.486C88.5187 151.65 90.086 149.257 91.0572 147.176C91.5423 146.137 91.8765 145.18 92.0889 144.416C92.2435 143.861 92.3297 143.421 92.3661 143.133C92.2419 143.161 92.0772 143.208 91.867 143.276C91.68 143.336 91.4639 143.41 91.2241 143.492C90.6791 143.679 90.012 143.907 89.2882 144.111C87.201 144.699 84.4441 145.15 82.0508 143.954C81.9474 143.902 81.8735 143.806 81.8503 143.693C81.8271 143.579 81.8571 143.462 81.9317 143.374C82.1122 143.16 82.3243 142.912 82.5612 142.636C84.1506 140.779 86.8601 137.613 88.68 134.753C89.1696 133.984 89.5477 132.832 89.8178 131.438C90.0866 130.051 90.2428 128.457 90.3067 126.825C90.4013 124.406 90.292 121.928 90.0538 119.953C89.8941 120.572 89.6981 121.264 89.4566 121.975C88.92 123.556 88.1471 125.276 87.0197 126.544C83.9218 130.029 79.9229 131.06 77.3424 131.189C77.1848 131.197 77.0389 131.106 76.9771 130.96C76.9153 130.815 76.9506 130.647 77.0655 130.539C77.2108 130.402 77.3668 130.256 77.5317 130.103C78.586 129.119 80.0057 127.794 81.3401 126.237C82.8856 124.434 84.2869 122.351 84.868 120.171C85.4508 117.986 85.365 115.034 84.9351 112.277C84.6065 110.17 84.0838 108.219 83.5344 106.854C83.2749 108.108 82.8135 109.517 82.3351 110.801C81.6866 112.54 80.9918 114.088 80.6791 114.776C79.7407 116.84 79.055 118.038 78.333 118.709C77.568 119.419 76.7886 119.515 75.8173 119.515C75.6892 119.515 75.5699 119.45 75.5006 119.343C75.4313 119.235 75.4214 119.099 75.4744 118.983C75.7716 118.329 76.0131 117.462 76.2945 116.289C76.3942 115.874 76.499 115.42 76.6128 114.926C76.8167 114.043 77.0498 113.033 77.3348 111.892C77.597 110.844 77.5148 109.616 77.1987 108.3C76.8833 106.987 76.3416 105.612 75.7123 104.284C74.7799 102.315 73.6754 100.486 72.8515 99.122C72.5593 98.638 72.3024 98.2126 72.101 97.8602C71.9217 97.5464 71.7833 97.1079 71.6728 96.6C71.5609 96.0853 71.472 95.472 71.4037 94.7913C71.267 93.4293 71.2103 91.7745 71.2229 90.0542C71.243 87.3114 71.4395 84.3729 71.7782 82.1617C69.4126 85.2781 65.9257 90.6806 64.889 95.8643C64.2959 98.8294 64.3261 101.801 64.6298 104.265C64.9349 106.739 65.5109 108.664 65.9817 109.547C66.0748 109.721 66.017 109.938 65.8493 110.043C65.6816 110.148 65.4612 110.106 65.3449 109.946C64.3406 108.565 61.9621 105.36 60.4645 103.563C59.6989 102.644 58.647 101.21 57.7845 99.5716C57.4137 98.8671 57.0743 98.1181 56.8083 97.3509Z" fill="white"/>
<path fill-rule="evenodd" clip-rule="evenodd" d="M33.2749 123.673C33.2901 124.789 33.3248 126.399 33.4039 128.112C33.4743 129.638 33.5797 131.241 33.7373 132.648C33.8961 134.065 34.1044 135.247 34.3688 135.952C34.5717 136.493 34.9728 137.084 35.5144 137.692C36.053 138.298 36.7146 138.903 37.4171 139.474C38.5935 140.43 39.8674 141.277 40.8314 141.853L41.1604 136.261C40.4212 135.669 39.697 134.842 38.9889 133.912C38.2285 132.914 37.4699 131.776 36.7196 130.651L36.7156 130.645C36.5106 130.337 36.1458 129.629 35.7262 128.778C35.3012 127.917 34.8058 126.879 34.3353 125.89C34.2922 125.8 34.2494 125.71 34.2069 125.621C33.8661 124.905 33.5434 124.227 33.2749 123.673ZM36.4017 128.445C36.8294 129.313 37.1706 129.97 37.3423 130.227C38.097 131.359 38.8434 132.478 39.588 133.456C40.3347 134.436 41.0628 135.25 41.7739 135.783C41.875 135.859 41.9313 135.981 41.9239 136.107L41.5473 142.509C41.5397 142.638 41.4658 142.755 41.3518 142.817C41.2379 142.879 41.0999 142.878 40.9867 142.815C39.9673 142.241 38.3862 141.232 36.942 140.058C36.2197 139.471 35.5256 138.838 34.9518 138.193C34.3809 137.552 33.9127 136.881 33.6636 136.217C33.3632 135.416 33.1478 134.15 32.9888 132.731C32.8287 131.302 32.7223 129.681 32.6515 128.147C32.5099 125.078 32.5099 122.341 32.5099 122.151V122.151C32.5099 122.133 32.511 122.103 32.5183 122.067C32.5249 122.035 32.5421 121.971 32.5928 121.906C32.6525 121.83 32.7457 121.772 32.8588 121.762C32.956 121.754 33.0299 121.784 33.0656 121.802C33.1323 121.836 33.1743 121.882 33.186 121.894L33.1862 121.895C33.2046 121.915 33.2196 121.935 33.2304 121.95C33.2705 122.005 33.3171 122.086 33.364 122.172C33.4624 122.352 33.601 122.626 33.7658 122.962C34.0663 123.573 34.4638 124.408 34.8865 125.296C34.9292 125.386 34.9721 125.476 35.0153 125.567C35.4862 126.556 35.9793 127.589 36.4017 128.445Z" fill="white"/>
<path fill-rule="evenodd" clip-rule="evenodd" d="M51.0427 92.0125C50.9817 92.1705 50.9133 92.339 50.8394 92.516C50.7166 92.8103 50.5819 93.1212 50.4388 93.4515C50.2405 93.9094 50.026 94.4044 49.8047 94.944C49.0517 96.7793 48.3265 98.8836 48.3265 100.685C48.3265 103.74 50.4368 105.209 51.4872 105.79C51.7261 104.991 52.0311 103.917 52.2921 102.881C52.448 102.262 52.5874 101.66 52.6876 101.14C52.7891 100.613 52.8455 100.195 52.8455 99.932C52.8455 99.6026 52.7147 98.8203 52.5006 97.8031C52.2901 96.8034 52.009 95.6202 51.7275 94.5176C51.483 93.5599 51.2393 92.6678 51.0427 92.0125ZM53.2376 97.6479C53.4471 98.643 53.5987 99.5083 53.5987 99.932C53.5987 100.272 53.5296 100.751 53.4271 101.283C53.3233 101.821 53.1803 102.438 53.0224 103.065C52.7067 104.318 52.3282 105.624 52.0757 106.445C52.0432 106.551 51.9657 106.637 51.8639 106.68C51.7621 106.724 51.6464 106.72 51.5474 106.671L51.5417 106.668C50.776 106.285 47.5733 104.684 47.5733 100.685C47.5733 98.721 48.3545 96.4945 49.1079 94.6581C49.3267 94.1247 49.5526 93.6026 49.7569 93.1306C49.9 92.8 50.0324 92.494 50.1443 92.2258C50.2846 91.8897 50.3978 91.6018 50.4756 91.3665C50.5567 91.1208 50.586 90.9702 50.586 90.894C50.586 90.8517 50.5878 90.7871 50.6043 90.7228C50.6118 90.6935 50.6313 90.6264 50.6845 90.5608C50.7506 90.4792 50.8715 90.4018 51.0275 90.4182C51.1495 90.4311 51.2276 90.4966 51.2555 90.5221C51.2901 90.5536 51.3142 90.586 51.3285 90.6068C51.3579 90.6494 51.382 90.6965 51.4006 90.7362C51.4747 90.8942 51.5698 91.169 51.675 91.5052C51.8898 92.1912 52.1741 93.2224 52.4572 94.3313C52.7406 95.4412 53.0244 96.6351 53.2376 97.6479ZM37.3234 108.226C37.4891 108.189 37.6589 108.267 37.7383 108.417C38.7578 110.343 41.1512 113.917 42.0282 115.226C42.1132 115.353 42.184 115.459 42.2379 115.54C42.9099 116.548 43.658 117.243 44.3314 117.869C44.3841 117.918 44.4364 117.967 44.4881 118.015C45.1812 118.662 45.8363 119.299 46.0557 120.176C46.2297 120.872 46.1166 121.638 45.9298 122.283C45.7411 122.935 45.4638 123.511 45.2601 123.851C45.2005 123.95 45.0983 124.017 44.9832 124.031C44.8721 124.044 44.7609 124.008 44.6795 123.932C44.6797 123.932 44.6798 123.932 44.6798 123.932C44.6791 123.933 44.6494 123.914 44.5555 123.882C44.4547 123.847 44.3254 123.81 44.1578 123.762L44.11 123.748C43.7367 123.642 43.2342 123.495 42.6688 123.249C41.5317 122.755 40.1517 121.865 38.9751 120.1C38.0187 118.665 37.5096 116.423 37.2482 114.259C36.9848 112.079 36.9657 109.912 37.0293 108.576C37.0374 108.406 37.1578 108.263 37.3234 108.226ZM37.7519 109.969C37.7519 111.176 37.8149 112.671 37.9959 114.169C38.2554 116.317 38.7505 118.405 39.6018 119.682C40.6847 121.307 41.9407 122.111 42.9691 122.558C43.4864 122.783 43.9488 122.919 44.3169 123.024C44.3344 123.029 44.3518 123.034 44.3691 123.039C44.5191 123.082 44.6609 123.122 44.7787 123.162C44.9241 122.873 45.0857 122.491 45.2063 122.074C45.3771 121.484 45.4524 120.868 45.3251 120.359C45.1679 119.73 44.6933 119.237 43.9742 118.566C43.9215 118.517 43.8678 118.467 43.8131 118.416C43.1422 117.793 42.3341 117.042 41.6112 115.958C41.5586 115.879 41.4888 115.774 41.4044 115.648C40.6906 114.583 38.9347 111.961 37.7519 109.969Z" fill="white"/>
<path fill-rule="evenodd" clip-rule="evenodd" d="M60.5343 74.5964C60.639 75.3478 60.5781 76.1763 60.4179 77.0309C60.2 78.1931 59.7908 79.4413 59.3166 80.6742C58.8787 81.813 58.3804 82.951 57.9185 84.0058C57.88 84.0936 57.8418 84.1809 57.8039 84.2675C57.308 85.4011 56.8683 86.4204 56.5922 87.2484C56.2016 88.4203 56.7601 89.8831 57.7587 91.3205C58.6181 92.5572 59.7429 93.6874 60.6277 94.4441C61.1852 93.3084 61.9565 91.6635 62.6764 89.9754C63.4953 88.0552 64.2357 86.1064 64.5287 84.7881C64.6071 84.4352 64.5926 83.9509 64.4852 83.3552C64.3789 82.7654 64.187 82.0946 63.9352 81.3825C63.4316 79.9584 62.6992 78.3995 61.9751 77.0448C61.4553 76.0722 60.9455 75.2157 60.5343 74.5964ZM65.2264 83.2216C65.3412 83.8587 65.3738 84.457 65.2639 84.9515C64.9543 86.3445 64.1884 88.3499 63.3692 90.2709C62.5468 92.1994 61.6586 94.0704 61.0908 95.206C61.04 95.3077 60.9459 95.381 60.8348 95.4054C60.7237 95.4298 60.6076 95.4027 60.5188 95.3316C59.5569 94.5621 58.1734 93.2372 57.1402 91.7502C56.1241 90.2878 55.3646 88.5497 55.8777 87.0102C56.1666 86.1436 56.6213 85.0916 57.1139 83.9657C57.1515 83.8796 57.1894 83.7931 57.2275 83.7061C57.6905 82.6485 58.1822 81.5258 58.6137 80.4039C59.0809 79.1889 59.4719 77.9893 59.6776 76.8921C59.8843 75.7896 59.8966 74.8275 59.6434 74.0679C59.5708 73.85 59.5211 73.6648 59.5038 73.5204C59.4957 73.4521 59.4902 73.3594 59.5127 73.2663C59.5364 73.1683 59.6158 72.9937 59.8254 72.9408C59.991 72.899 60.1262 72.9682 60.1778 72.9976C60.2444 73.0356 60.3045 73.0856 60.3547 73.1326C60.4572 73.2284 60.5719 73.3623 60.6926 73.5181C61.1766 74.1429 61.906 75.3177 62.6394 76.6898C63.3746 78.0654 64.125 79.6604 64.6453 81.1313C64.9053 81.8667 65.1106 82.5787 65.2264 83.2216Z" fill="white"/>
<path fill-rule="evenodd" clip-rule="evenodd" d="M78.0775 86.376C78.2361 86.3762 78.3775 86.4758 78.4312 86.625C78.9946 88.19 79.915 90.632 80.8441 92.8688C81.3088 93.9875 81.7741 95.0513 82.197 95.9269C82.6248 96.8128 82.9948 97.4753 83.2664 97.8149C84.1242 98.8872 84.1987 100.535 83.8555 101.907C83.6813 102.604 83.3926 103.263 83.0106 103.781C82.6313 104.296 82.1349 104.702 81.5399 104.821C80.4168 105.046 79.2582 104.473 78.2748 103.441C77.2832 102.4 76.4108 100.836 75.8333 98.9115C75.5894 98.0986 75.5329 97.0921 75.5896 96.0179C75.6466 94.9388 75.8193 93.7665 76.0506 92.6099C76.5132 90.2972 77.2156 88.0192 77.723 86.6239C77.7772 86.4748 77.9189 86.3757 78.0775 86.376ZM76.3417 96.0576C76.287 97.0939 76.3466 98.0016 76.5547 98.6951C77.1069 100.536 77.929 101.986 78.8202 102.921C79.7197 103.866 80.6323 104.235 81.3921 104.083C81.7385 104.014 82.0895 103.761 82.4045 103.334C82.7168 102.911 82.9694 102.346 83.1248 101.725C83.4406 100.461 83.3268 99.096 82.6783 98.2854C82.3474 97.8717 81.9454 97.1378 81.5188 96.2545C81.0873 95.361 80.6159 94.2829 80.1486 93.1578C79.3935 91.34 78.6451 89.39 78.0868 87.8782C77.6471 89.215 77.1452 90.9777 76.7892 92.7576C76.5623 93.8919 76.3962 95.0262 76.3417 96.0576Z" fill="white"/>
<path fill-rule="evenodd" clip-rule="evenodd" d="M97.385 125.931C97.5717 125.984 97.6878 126.17 97.6531 126.361C97.2743 128.444 96.4799 131.963 95.5137 135.003C95.0312 136.522 94.5011 137.936 93.9523 138.996C93.6784 139.526 93.392 139.982 93.0945 140.321C92.804 140.652 92.4602 140.92 92.0636 140.977C91.4758 141.061 90.9914 140.973 90.6378 140.689C90.2873 140.408 90.1392 139.993 90.0922 139.583C90 138.778 90.2728 137.784 90.5267 137.086C90.8077 136.313 91.4261 135.603 92.0198 134.978C92.16 134.831 92.2985 134.688 92.4329 134.55C92.8935 134.075 93.3069 133.649 93.58 133.24C94.4893 131.876 96.0533 128.416 96.9316 126.157C97.0019 125.976 97.1982 125.878 97.385 125.931ZM96.0999 130.029C95.4258 131.495 94.7244 132.881 94.2066 133.658C93.8913 134.131 93.41 134.626 92.9403 135.109C92.8134 135.239 92.6875 135.369 92.5658 135.497C91.967 136.127 91.4556 136.735 91.2345 137.343C90.9862 138.026 90.7695 138.878 90.8405 139.497C90.8751 139.799 90.9717 139.992 91.1092 140.102C91.2436 140.21 91.4904 140.298 91.957 140.231C92.0877 140.212 92.2805 140.106 92.5284 139.824C92.7692 139.55 93.0231 139.153 93.2834 138.65C93.8032 137.646 94.3181 136.279 94.7959 134.775C95.2856 133.234 95.7314 131.566 96.0999 130.029Z" fill="white"/>
<path fill-rule="evenodd" clip-rule="evenodd" d="M48.5395 144.783C48.6891 144.711 48.8684 144.746 48.9806 144.868C50.3557 146.368 53.3588 149.699 54.2765 150.922C54.7529 151.557 55.3 152.592 55.7836 153.603C56.2709 154.622 56.7073 155.646 56.961 156.28C57.0074 156.396 56.9932 156.528 56.9232 156.631C56.8531 156.735 56.7363 156.797 56.6113 156.797C56.3729 156.797 55.9088 156.715 55.3704 156.586C54.8172 156.454 54.145 156.262 53.472 156.022C52.8007 155.782 52.1178 155.49 51.5486 155.156C50.9928 154.83 50.4883 154.431 50.2491 153.953C50.0783 153.611 49.9006 153.032 49.7258 152.352C49.5482 151.661 49.3655 150.832 49.1907 149.971C48.841 148.247 48.5199 146.378 48.331 145.181C48.3051 145.017 48.3898 144.856 48.5395 144.783ZM49.2805 146.316C49.46 147.373 49.6877 148.633 49.9288 149.821C50.1024 150.676 50.2821 151.491 50.4552 152.164C50.6311 152.848 50.7923 153.355 50.9228 153.616C51.0602 153.891 51.403 154.197 51.9299 154.507C52.4434 154.808 53.0785 155.081 53.7253 155.312C54.3703 155.543 55.0162 155.727 55.5456 155.854C55.7189 155.895 55.8759 155.93 56.0138 155.957C55.7692 155.376 55.4495 154.65 55.1042 153.928C54.6212 152.918 54.1014 151.944 53.674 151.374C52.9399 150.395 50.7895 147.981 49.2805 146.316Z" fill="white"/>
<path fill-rule="evenodd" clip-rule="evenodd" d="M58.521 134.581C58.673 134.592 58.8034 134.693 58.8516 134.838C59.602 137.089 61.1974 142.247 61.5041 144.701C61.6616 145.961 61.497 147.826 61.2396 149.612C60.9805 151.411 60.6205 153.173 60.3673 154.249C60.3388 154.37 60.2522 154.469 60.1359 154.514C60.0197 154.559 59.8888 154.543 59.7864 154.472C58.9322 153.881 57.6915 152.735 56.6997 151.194C55.7065 149.65 54.948 147.687 55.1061 145.474C55.4123 141.188 57.2676 136.568 58.1575 134.788C58.2256 134.652 58.3691 134.57 58.521 134.581ZM58.4321 135.977C57.5003 138.08 56.1135 141.942 55.8574 145.528C55.7142 147.533 56.3993 149.335 57.333 150.786C58.1003 151.978 59.0255 152.916 59.7624 153.512C59.9955 152.455 60.2799 150.991 60.4941 149.505C60.7513 147.72 60.9005 145.945 60.7568 144.795C60.4956 142.705 59.2421 138.495 58.4321 135.977Z" fill="white"/>
<path fill-rule="evenodd" clip-rule="evenodd" d="M72.3877 127.426C72.5721 127.406 72.7436 127.524 72.7917 127.703C73.4888 130.301 74.1789 134.287 74.5397 138.089C74.7201 139.991 74.8189 141.854 74.7937 143.481C74.7687 145.098 74.621 146.514 74.2916 147.502C73.5046 149.863 71.6493 151.833 69.7505 153.415C68.797 154.21 67.822 154.915 66.9486 155.529C66.7242 155.686 66.5074 155.837 66.2998 155.982C65.6931 156.405 65.1646 156.773 64.7509 157.095C64.6199 157.197 64.4376 157.201 64.3022 157.105C64.1667 157.009 64.1099 156.836 64.1624 156.678C64.1853 156.61 64.2128 156.459 64.2364 156.211C64.2592 155.973 64.2762 155.672 64.2881 155.321C64.3117 154.62 64.3141 153.737 64.3032 152.791C64.2813 150.901 64.2061 148.778 64.1435 147.4C64.1387 147.294 64.1786 147.191 64.2534 147.117C66.1085 145.261 68.3439 142.282 69.8316 139.306C70.5578 137.854 71.0844 135.642 71.4444 133.436C71.8027 131.239 71.9897 129.088 72.0518 127.783C72.0606 127.597 72.2032 127.446 72.3877 127.426ZM72.6173 130.263C72.5159 131.276 72.3748 132.41 72.1877 133.557C71.8259 135.775 71.2855 138.083 70.5053 139.643C69.0114 142.631 66.7895 145.614 64.9033 147.531C64.9646 148.915 65.0351 150.956 65.0563 152.783C65.0673 153.733 65.065 154.629 65.0408 155.346C65.0332 155.57 65.0235 155.778 65.0112 155.966C65.2817 155.773 65.5754 155.569 65.8843 155.354C66.0889 155.211 66.3 155.064 66.5156 154.912C67.3839 154.302 68.3389 153.611 69.2684 152.837C71.1355 151.281 72.8577 149.422 73.5771 147.264C73.8687 146.389 74.0159 145.068 74.0406 143.469C74.0652 141.878 73.9686 140.044 73.7899 138.16C73.5297 135.418 73.097 132.585 72.6173 130.263Z" fill="white"/>
<path fill-rule="evenodd" clip-rule="evenodd" d="M69.8118 110.076C69.8118 110.076 69.8113 110.079 69.8098 110.084C69.811 110.078 69.8117 110.075 69.8118 110.076ZM69.1815 110.147C69.1816 110.147 69.1827 110.149 69.1847 110.154C69.1825 110.15 69.1815 110.148 69.1815 110.147ZM69.5789 112.11C69.4744 112.556 69.3366 113.015 69.177 113.478C68.8115 114.538 68.3222 115.647 67.8265 116.709C67.6197 117.153 67.4133 117.585 67.2137 118.002C66.9302 118.596 66.6604 119.16 66.4222 119.688C66.0147 120.592 65.7293 121.327 65.6443 121.837C65.5653 122.311 65.6608 122.852 65.8784 123.432C66.0951 124.01 66.4213 124.597 66.769 125.153C66.9915 125.509 67.2126 125.837 67.418 126.142C67.5381 126.32 67.6528 126.49 67.7594 126.653C67.8491 126.791 67.9328 126.923 68.0053 127.047C68.3983 126.511 68.8738 125.822 69.3107 125.109C69.9164 124.12 70.4162 123.136 70.5523 122.455C70.59 122.267 70.6041 121.889 70.5886 121.342C70.5734 120.807 70.5313 120.144 70.4698 119.406C70.3469 117.931 70.1476 116.172 69.9363 114.575C69.8166 113.671 69.6936 112.823 69.5789 112.11ZM71.3414 121.32C71.3568 121.862 71.3474 122.32 71.2909 122.602C71.1258 123.428 70.5585 124.514 69.9529 125.503C69.3388 126.505 68.6527 127.458 68.2062 128.032C68.1074 128.159 67.9389 128.209 67.7867 128.157C67.6345 128.105 67.5323 127.962 67.5323 127.801C67.5323 127.801 67.5322 127.801 67.5318 127.799C67.5293 127.788 67.515 127.726 67.4453 127.59C67.3729 127.45 67.2656 127.275 67.1287 127.065C67.0343 126.92 66.9251 126.758 66.8075 126.584C66.596 126.27 66.3575 125.916 66.1303 125.553C65.7719 124.979 65.4156 124.343 65.1732 123.696C64.9319 123.053 64.792 122.369 64.9014 121.713C65.0046 121.094 65.3312 120.275 65.7357 119.379C65.9756 118.847 66.2532 118.266 66.5408 117.664C66.7401 117.246 66.9443 116.819 67.144 116.391C67.6368 115.335 68.1126 114.255 68.4649 113.232C68.8188 112.206 69.0387 111.263 69.0387 110.478C69.0387 110.265 69.0456 110.093 69.0644 109.975C69.0709 109.934 69.0879 109.827 69.1506 109.735C69.186 109.683 69.2813 109.572 69.4519 109.561C69.615 109.55 69.7215 109.639 69.7598 109.677C69.8335 109.75 69.8714 109.842 69.8866 109.88C69.9088 109.935 69.9294 109.999 69.9486 110.066C69.9874 110.202 70.0289 110.38 70.0723 110.59C70.2459 111.428 70.4709 112.874 70.683 114.477C70.8954 116.081 71.0962 117.853 71.2204 119.343C71.2825 120.088 71.3257 120.767 71.3414 121.32ZM56.2109 121.4C56.37 121.389 56.5181 121.481 56.5809 121.627C56.9586 122.508 57.5252 123.868 57.998 125.085C58.2342 125.693 58.4484 126.268 58.6042 126.732C58.6819 126.964 58.7465 127.172 58.7922 127.345C58.8346 127.505 58.8709 127.671 58.8709 127.801C58.8709 127.981 58.8355 128.301 58.7851 128.676C58.7335 129.06 58.6623 129.527 58.5836 130.016C58.4261 130.996 58.2374 132.072 58.1115 132.764C58.0903 132.88 58.0154 132.98 57.9094 133.033C57.8034 133.086 57.6786 133.086 57.5726 133.033C56.4914 132.493 54.4051 130.688 54.7306 127.759C55.0345 125.025 55.6164 122.569 55.8727 121.672C55.9165 121.519 56.0519 121.41 56.2109 121.4ZM56.3234 122.953C56.0488 124.127 55.6934 125.914 55.4792 127.842C55.2418 129.979 56.5142 131.43 57.4667 132.093C57.5813 131.448 57.7199 130.644 57.84 129.897C57.9182 129.41 57.9883 128.95 58.0387 128.575C58.0903 128.191 58.1177 127.922 58.1177 127.801C58.1177 127.801 58.1177 127.799 58.1174 127.795C58.1172 127.791 58.1167 127.786 58.1159 127.779C58.1142 127.765 58.1114 127.746 58.1069 127.722C58.098 127.674 58.0839 127.612 58.064 127.537C58.0243 127.387 57.9654 127.196 57.8901 126.972C57.7399 126.524 57.5305 125.961 57.2959 125.358C56.9859 124.56 56.6345 123.698 56.3234 122.953ZM63.3284 125.17C63.5029 125.141 63.6739 125.237 63.7395 125.401C64.2434 126.661 64.9991 128.645 65.6295 130.504C65.9445 131.434 66.2298 132.336 66.4367 133.104C66.64 133.859 66.7792 134.523 66.7792 134.956C66.7792 135.783 66.4422 136.937 66.0499 138.004C65.6521 139.086 65.1755 140.135 64.8565 140.773C64.8065 140.873 64.7148 140.945 64.6062 140.971C64.4975 140.997 64.383 140.973 64.2937 140.906C63.5201 140.326 62.4319 139.337 61.6858 138.247C60.9602 137.187 60.4497 135.863 61.1936 134.747C61.4622 134.344 61.71 133.723 61.9298 132.954C62.1478 132.191 62.3309 131.31 62.4818 130.403C62.7834 128.59 62.9516 126.703 63.0138 125.521C63.0231 125.345 63.154 125.198 63.3284 125.17ZM63.6431 127.227C63.5506 128.232 63.4134 129.393 63.2247 130.527C63.0711 131.45 62.8824 132.362 62.654 133.161C62.4274 133.954 62.1542 134.664 61.8203 135.165C61.3592 135.856 61.6019 136.791 62.3073 137.822C62.8855 138.666 63.7033 139.462 64.3849 140.02C64.6743 139.409 65.0337 138.586 65.343 137.744C65.7353 136.677 66.026 135.635 66.026 134.956C66.026 134.635 65.9141 134.06 65.7094 133.3C65.5084 132.554 65.2287 131.668 64.9162 130.746C64.5105 129.549 64.0518 128.299 63.6431 127.227ZM80.9116 135.653C80.8256 135.839 80.7151 136.025 80.5954 136.202C80.3133 136.62 79.9317 137.062 79.5224 137.479C78.7905 138.225 77.9318 138.932 77.3236 139.313V142.373C78.1239 142.089 79.4443 141.312 80.3859 139.665C81.0687 138.47 81.0885 136.8 80.9116 135.653ZM76.6208 142.676C76.5786 142.749 76.5606 142.836 76.5755 142.926C76.6097 143.131 76.8037 143.27 77.0089 143.236C77.8675 143.092 79.7756 142.251 81.0398 140.038C81.8559 138.61 81.8431 136.71 81.6496 135.497C81.6004 135.188 81.538 134.914 81.47 134.693C81.4069 134.487 81.3254 134.28 81.2176 134.147C81.1773 134.097 81.0389 133.937 80.8113 133.956C80.5619 133.976 80.4579 134.183 80.4282 134.253C80.3564 134.421 80.3362 134.672 80.3362 134.956C80.3362 135.117 80.2302 135.397 79.9711 135.781C79.7237 136.147 79.3757 136.553 78.9847 136.952C78.1978 137.754 77.2851 138.48 76.7641 138.769C76.6445 138.835 76.5704 138.961 76.5704 139.098V142.487C76.5704 142.556 76.5887 142.62 76.6208 142.676ZM82.3873 150.277C81.5401 150.819 80.4437 151.116 79.3588 151.286C77.8235 151.526 76.1993 151.526 75.0737 151.526H75.064C74.7392 151.526 74.3952 151.683 74.0349 152.006C73.6757 152.328 73.3313 152.787 73.0153 153.318C72.5083 154.172 72.1 155.169 71.8318 155.972C72.8109 155.842 74.1149 155.65 75.3755 155.429C76.9202 155.158 78.3559 154.849 79.0666 154.565C79.2382 154.497 79.4567 154.345 79.7127 154.104C79.9644 153.868 80.2325 153.564 80.5049 153.217C81.0495 152.523 81.5927 151.681 82.034 150.914C82.1622 150.691 82.2807 150.477 82.3873 150.277ZM80.2286 154.653C79.9448 154.92 79.6455 155.145 79.3463 155.264C78.5507 155.583 77.0365 155.902 75.5057 156.171C73.9607 156.442 72.3539 156.669 71.3449 156.795C71.2194 156.811 71.0945 156.762 71.0122 156.666C70.9299 156.57 70.9014 156.439 70.9361 156.318C71.1931 155.418 71.6938 154.068 72.3678 152.934C72.7046 152.367 73.0945 151.837 73.5324 151.445C73.9692 151.054 74.485 150.772 75.064 150.772C76.1975 150.772 77.7695 150.772 79.2425 150.542C80.7369 150.308 82.0204 149.853 82.6783 149.031C82.7766 148.908 82.8649 148.808 82.9421 148.736C82.9799 148.7 83.026 148.661 83.078 148.63C83.1154 148.608 83.2266 148.544 83.3719 148.564C83.4575 148.576 83.5402 148.616 83.6049 148.682C83.6647 148.743 83.6928 148.811 83.7064 148.858C83.7315 148.946 83.7245 149.027 83.7193 149.07C83.7076 149.165 83.6752 149.272 83.6392 149.374C83.4921 149.79 83.1367 150.508 82.6867 151.29C82.2337 152.077 81.6707 152.952 81.0973 153.682C80.8107 154.047 80.5168 154.382 80.2286 154.653Z" fill="white"/>
<path d="M32.1333 73.7694C32.1333 72.6821 32.4141 71.8316 32.9756 71.2179C33.5372 70.6013 34.2621 70.293 35.1503 70.293C35.7319 70.293 36.2562 70.4374 36.7232 70.7264C37.1903 71.0154 37.5455 71.419 37.7891 71.9373C38.0355 72.4527 38.1587 73.038 38.1587 73.6934C38.1587 74.3577 38.0297 74.952 37.7719 75.4763C37.514 76.0006 37.1487 76.3983 36.676 76.6694C36.2032 76.9375 35.6932 77.0715 35.146 77.0715C34.5529 77.0715 34.0229 76.9226 33.5558 76.6247C33.0888 76.3268 32.735 75.9202 32.4943 75.4048C32.2536 74.8894 32.1333 74.3443 32.1333 73.7694ZM32.9928 73.7828C32.9928 74.5722 33.1963 75.1948 33.6031 75.6506C34.0128 76.1034 34.5257 76.3298 35.1417 76.3298C35.7692 76.3298 36.2849 76.1004 36.6889 75.6416C37.0957 75.1829 37.2991 74.532 37.2991 73.6889C37.2991 73.1557 37.2117 72.691 37.037 72.2948C36.8651 71.8956 36.6115 71.5873 36.2763 71.3698C35.9439 71.1494 35.57 71.0392 35.1546 71.0392C34.5644 71.0392 34.0558 71.2507 33.6289 71.6737C33.2049 72.0937 32.9928 72.7968 32.9928 73.7828Z" fill="white"/>
<path d="M38.9119 77.3317L39.4767 77.2593C39.5416 77.567 39.6514 77.7893 39.8063 77.926C39.9632 78.0608 40.1536 78.1281 40.3774 78.1281C40.6431 78.1281 40.867 78.0396 41.049 77.8627C41.2331 77.6857 41.3252 77.4665 41.3252 77.205C41.3252 76.9556 41.2404 76.7505 41.071 76.5896C40.9015 76.4267 40.686 76.3453 40.4245 76.3453C40.3178 76.3453 40.1849 76.3654 40.0259 76.4056L40.0887 75.929C40.1264 75.933 40.1567 75.935 40.1797 75.935C40.4203 75.935 40.6368 75.8747 40.8293 75.754C41.0218 75.6333 41.118 75.4473 41.118 75.1959C41.118 74.9968 41.0479 74.8319 40.9078 74.7012C40.7676 74.5704 40.5866 74.5051 40.3649 74.5051C40.1452 74.5051 39.9621 74.5714 39.8157 74.7042C39.6692 74.8369 39.5751 75.036 39.5332 75.3015L38.9684 75.2049C39.0374 74.8409 39.1943 74.5594 39.4391 74.3603C39.6839 74.1592 39.9883 74.0586 40.3523 74.0586C40.6034 74.0586 40.8345 74.1109 41.0459 74.2155C41.2572 74.318 41.4183 74.4588 41.5291 74.6378C41.6421 74.8168 41.6986 75.0068 41.6986 75.208C41.6986 75.399 41.6452 75.573 41.5385 75.7298C41.4319 75.8867 41.2739 76.0114 41.0647 76.1039C41.3367 76.1643 41.548 76.29 41.6986 76.481C41.8492 76.6701 41.9245 76.9074 41.9245 77.193C41.9245 77.5791 41.7781 77.9069 41.4852 78.1764C41.1923 78.4439 40.822 78.5776 40.3743 78.5776C39.9705 78.5776 39.6347 78.462 39.3669 78.2307C39.1012 77.9994 38.9495 77.6998 38.9119 77.3317Z" fill="white"/>
<path fill-rule="evenodd" clip-rule="evenodd" d="M53.5987 59.748C60.0462 59.748 65.2729 54.5213 65.2729 48.0738C65.2729 41.6264 60.0462 36.3997 53.5987 36.3997C47.1513 36.3997 41.9246 41.6264 41.9246 48.0738C41.9246 54.5213 47.1513 59.748 53.5987 59.748ZM53.5987 60.5011C60.4621 60.5011 66.026 54.9372 66.026 48.0738C66.026 41.2104 60.4621 35.6465 53.5987 35.6465C46.7353 35.6465 41.1714 41.2104 41.1714 48.0738C41.1714 54.9372 46.7353 60.5011 53.5987 60.5011Z" fill="white"/>
<path d="M61.5328 51.5799V52.2162H57.9692C57.9643 52.0568 57.9901 51.9036 58.0464 51.7565C58.1372 51.5137 58.2818 51.2747 58.4804 51.0393C58.6814 50.804 58.9707 50.5318 59.3483 50.2229C59.9343 49.7424 60.3302 49.3623 60.5362 49.0828C60.7421 48.8009 60.8451 48.5349 60.8451 48.2848C60.8451 48.0225 60.7507 47.8018 60.5619 47.6228C60.3756 47.4414 60.1316 47.3507 59.8301 47.3507C59.5114 47.3507 59.2564 47.4463 59.0651 47.6375C58.8739 47.8288 58.7771 48.0936 58.7746 48.4319L58.0943 48.362C58.1408 47.8545 58.3161 47.4684 58.6202 47.2036C58.9242 46.9364 59.3324 46.8027 59.8448 46.8027C60.3621 46.8027 60.7715 46.9462 61.0731 47.233C61.3747 47.5199 61.5254 47.8754 61.5254 48.2995C61.5254 48.5153 61.4813 48.7273 61.3931 48.9357C61.3048 49.1441 61.1577 49.3636 60.9517 49.594C60.7483 49.8245 60.4087 50.1408 59.9331 50.5428C59.5359 50.8763 59.2809 51.1031 59.1681 51.2232C59.0553 51.3409 58.9622 51.4598 58.8886 51.5799H61.5328Z" fill="white"/>
<path d="M46.2642 49.9577V44.5663H46.996L49.8277 48.7992V44.5663H50.5118V49.9577H49.7799L46.9482 45.7211V49.9577H46.2642Z" fill="white"/>
<path d="M51.5727 47.3319C51.5727 46.437 51.813 45.737 52.2935 45.232C52.774 44.7245 53.3943 44.4707 54.1544 44.4707C54.6521 44.4707 55.1007 44.5896 55.5004 44.8274C55.9 45.0652 56.204 45.3975 56.4124 45.8241C56.6233 46.2482 56.7287 46.73 56.7287 47.2694C56.7287 47.8161 56.6184 48.3052 56.3977 48.7367C56.177 49.1682 55.8644 49.4955 55.4599 49.7186C55.0554 49.9393 54.619 50.0496 54.1507 50.0496C53.6432 50.0496 53.1896 49.927 52.79 49.6819C52.3903 49.4367 52.0876 49.102 51.8816 48.6779C51.6757 48.2537 51.5727 47.8051 51.5727 47.3319ZM52.3082 47.3429C52.3082 47.9926 52.4823 48.505 52.8304 48.8801C53.181 49.2528 53.6199 49.4391 54.147 49.4391C54.6839 49.4391 55.1252 49.2503 55.4709 48.8728C55.8191 48.4952 55.9932 47.9595 55.9932 47.2657C55.9932 46.8268 55.9184 46.4443 55.7688 46.1183C55.6217 45.7897 55.4047 45.536 55.1179 45.357C54.8335 45.1756 54.5135 45.0849 54.158 45.0849C53.653 45.0849 53.2178 45.2589 52.8525 45.6071C52.4896 45.9528 52.3082 46.5314 52.3082 47.3429Z" fill="white"/>
<path fill-rule="evenodd" clip-rule="evenodd" d="M40.7948 37.9062C42.2507 37.9062 43.4309 36.726 43.4309 35.2701C43.4309 33.8143 42.2507 32.634 40.7948 32.634C39.3389 32.634 38.1587 33.8143 38.1587 35.2701C38.1587 36.726 39.3389 37.9062 40.7948 37.9062ZM40.7948 38.6594C42.6666 38.6594 44.1841 37.142 44.1841 35.2701C44.1841 33.3983 42.6666 31.8809 40.7948 31.8809C38.9229 31.8809 37.4055 33.3983 37.4055 35.2701C37.4055 37.142 38.9229 38.6594 40.7948 38.6594Z" fill="white"/>
<path fill-rule="evenodd" clip-rule="evenodd" d="M89.3743 83.8491C96.9212 83.8491 102.931 78.2281 102.931 71.4218C102.931 64.6155 96.9212 58.9945 89.3743 58.9945C81.8275 58.9945 75.8173 64.6155 75.8173 71.4218C75.8173 78.2281 81.8275 83.8491 89.3743 83.8491ZM89.3743 84.6023C97.2777 84.6023 103.685 78.7012 103.685 71.4218C103.685 64.1424 97.2777 58.2413 89.3743 58.2413C81.471 58.2413 75.0641 64.1424 75.0641 71.4218C75.0641 78.7012 81.471 84.6023 89.3743 84.6023Z" fill="white"/>
<path d="M96.9319 74.9287V75.5649H93.3683C93.3634 75.4055 93.3891 75.2523 93.4455 75.1052C93.5362 74.8625 93.6809 74.6234 93.8794 74.3881C94.0805 74.1527 94.3698 73.8806 94.7474 73.5717C95.3333 73.0911 95.7293 72.7111 95.9352 72.4316C96.1412 72.1496 96.2441 71.8836 96.2441 71.6336C96.2441 71.3712 96.1498 71.1506 95.961 70.9716C95.7746 70.7902 95.5307 70.6995 95.2291 70.6995C94.9104 70.6995 94.6554 70.7951 94.4642 70.9863C94.273 71.1775 94.1761 71.4423 94.1737 71.7807L93.4933 71.7108C93.5399 71.2033 93.7152 70.8171 94.0192 70.5523C94.3232 70.2851 94.7314 70.1515 95.2438 70.1515C95.7612 70.1515 96.1706 70.2949 96.4722 70.5818C96.7737 70.8686 96.9245 71.2241 96.9245 71.6483C96.9245 71.864 96.8804 72.0761 96.7921 72.2845C96.7038 72.4929 96.5567 72.7123 96.3508 72.9428C96.1473 73.1732 95.8077 73.4895 95.3321 73.8916C94.9349 74.225 94.6799 74.4518 94.5672 74.572C94.4544 74.6896 94.3612 74.8085 94.2877 74.9287H96.9319Z" fill="white"/>
<path d="M82.4164 73.3046V67.9132H83.1482L85.98 72.1461V67.9132H86.664V73.3046H85.9322L83.1004 69.068V73.3046H82.4164Z" fill="white"/>
<path d="M87.964 73.3046V67.9132H88.6774V70.1271H91.4797V67.9132H92.1932V73.3046H91.4797V70.7633H88.6774V73.3046H87.964Z" fill="white"/>
<path d="M89.5334 42.055L90.0471 42.0101C90.0714 42.2159 90.1275 42.3852 90.2154 42.5181C90.3053 42.649 90.4437 42.7557 90.6308 42.838C90.8179 42.9185 91.0284 42.9587 91.2623 42.9587C91.47 42.9587 91.6534 42.9278 91.8124 42.8661C91.9714 42.8043 92.0893 42.7201 92.166 42.6135C92.2446 42.505 92.2839 42.3871 92.2839 42.2599C92.2839 42.1308 92.2465 42.0185 92.1716 41.9231C92.0968 41.8258 91.9733 41.7444 91.8012 41.6789C91.6908 41.6359 91.4466 41.5694 91.0686 41.4796C90.6907 41.3879 90.4259 41.3019 90.2744 41.2214C90.0779 41.1185 89.931 40.9913 89.8338 40.8397C89.7383 40.6863 89.6906 40.5151 89.6906 40.3261C89.6906 40.1184 89.7496 39.9248 89.8674 39.7452C89.9853 39.5637 90.1574 39.4261 90.3838 39.3326C90.6102 39.239 90.8619 39.1923 91.1388 39.1923C91.4438 39.1923 91.7123 39.2418 91.9443 39.341C92.1782 39.4383 92.3578 39.5824 92.4832 39.7732C92.6085 39.9641 92.6759 40.1802 92.6852 40.4215L92.1632 40.4608C92.1352 40.2008 92.0397 40.0043 91.8769 39.8715C91.716 39.7386 91.4775 39.6722 91.1613 39.6722C90.832 39.6722 90.5915 39.733 90.44 39.8546C90.2903 39.9744 90.2154 40.1194 90.2154 40.2896C90.2154 40.4374 90.2688 40.5591 90.3754 40.6545C90.4802 40.7499 90.7534 40.8481 91.1949 40.9492C91.6384 41.0483 91.9424 41.1354 92.1071 41.2102C92.3466 41.3206 92.5234 41.4609 92.6375 41.6312C92.7517 41.7996 92.8087 41.9942 92.8087 42.215C92.8087 42.4339 92.7461 42.6406 92.6207 42.8352C92.4953 43.0279 92.3148 43.1785 92.079 43.2871C91.8451 43.3937 91.5813 43.447 91.2876 43.447C90.9152 43.447 90.6028 43.3928 90.3502 43.2843C90.0994 43.1757 89.902 43.013 89.758 42.7959C89.6158 42.577 89.5409 42.33 89.5334 42.055Z" fill="white"/>
<path d="M93.4444 41.373C93.4444 40.69 93.6277 40.1559 93.9945 39.7704C94.3612 39.3831 94.8346 39.1895 95.4146 39.1895C95.7944 39.1895 96.1368 39.2802 96.4418 39.4617C96.7468 39.6432 96.9788 39.8967 97.1378 40.2223C97.2987 40.546 97.3792 40.9136 97.3792 41.3253C97.3792 41.7425 97.295 42.1158 97.1266 42.4451C96.9582 42.7744 96.7197 43.0242 96.4109 43.1944C96.1022 43.3628 95.7692 43.447 95.4118 43.447C95.0245 43.447 94.6783 43.3535 94.3733 43.1664C94.0684 42.9793 93.8373 42.7239 93.6801 42.4002C93.523 42.0765 93.4444 41.7341 93.4444 41.373ZM94.0057 41.3814C94.0057 41.8772 94.1385 42.2683 94.4042 42.5545C94.6718 42.8389 95.0067 42.9811 95.409 42.9811C95.8187 42.9811 96.1555 42.8371 96.4193 42.5489C96.685 42.2608 96.8179 41.852 96.8179 41.3225C96.8179 40.9875 96.7608 40.6957 96.6467 40.4468C96.5344 40.1961 96.3688 40.0024 96.1499 39.8658C95.9329 39.7274 95.6887 39.6582 95.4174 39.6582C95.032 39.6582 94.6998 39.791 94.4211 40.0567C94.1441 40.3205 94.0057 40.7621 94.0057 41.3814Z" fill="white"/>
<path d="M100.791 45.7649V46.2504H98.071C98.0673 46.1288 98.0869 46.0119 98.1299 45.8996C98.1992 45.7144 98.3096 45.5319 98.4611 45.3523C98.6145 45.1727 98.8353 44.965 99.1235 44.7293C99.5707 44.3625 99.8728 44.0725 100.03 43.8592C100.187 43.6441 100.266 43.441 100.266 43.2502C100.266 43.05 100.194 42.8816 100.05 42.745C99.9074 42.6066 99.7213 42.5373 99.4911 42.5373C99.2479 42.5373 99.0533 42.6103 98.9074 42.7562C98.7614 42.9022 98.6875 43.1043 98.6856 43.3625L98.1664 43.3091C98.202 42.9218 98.3358 42.6271 98.5678 42.4251C98.7998 42.2211 99.1113 42.1191 99.5024 42.1191C99.8972 42.1191 100.21 42.2286 100.44 42.4475C100.67 42.6664 100.785 42.9377 100.785 43.2614C100.785 43.4261 100.751 43.5879 100.684 43.747C100.617 43.906 100.504 44.0735 100.347 44.2493C100.192 44.4252 99.9327 44.6666 99.5697 44.9734C99.2666 45.2279 99.072 45.401 98.986 45.4927C98.8999 45.5825 98.8288 45.6732 98.7727 45.7649H100.791Z" fill="white"/>
<path fill-rule="evenodd" clip-rule="evenodd" d="M32.5099 103.432C35.6296 103.432 38.1587 100.903 38.1587 97.7828C38.1587 94.6631 35.6296 92.134 32.5099 92.134C29.3901 92.134 26.8611 94.6631 26.8611 97.7828C26.8611 100.903 29.3901 103.432 32.5099 103.432ZM32.5099 104.185C36.0456 104.185 38.9118 101.319 38.9118 97.7828C38.9118 94.2471 36.0456 91.3809 32.5099 91.3809C28.9742 91.3809 26.1079 94.2471 26.1079 97.7828C26.1079 101.319 28.9742 104.185 32.5099 104.185Z" fill="white"/>
<path fill-rule="evenodd" clip-rule="evenodd" d="M70.1684 31.1269C71.6243 31.1269 72.8045 29.9467 72.8045 28.4908C72.8045 27.035 71.6243 25.8547 70.1684 25.8547C68.7126 25.8547 67.5323 27.035 67.5323 28.4908C67.5323 29.9467 68.7126 31.1269 70.1684 31.1269ZM70.1684 31.8801C72.0403 31.8801 73.5577 30.3627 73.5577 28.4908C73.5577 26.619 72.0403 25.1016 70.1684 25.1016C68.2966 25.1016 66.7792 26.619 66.7792 28.4908C66.7792 30.3627 68.2966 31.8801 70.1684 31.8801Z" fill="white"/>
<path fill-rule="evenodd" clip-rule="evenodd" d="M94.2699 109.457C95.7258 109.457 96.906 108.277 96.906 106.821C96.906 105.365 95.7258 104.185 94.2699 104.185C92.814 104.185 91.6338 105.365 91.6338 106.821C91.6338 108.277 92.814 109.457 94.2699 109.457ZM94.2699 110.21C96.1417 110.21 97.6592 108.693 97.6592 106.821C97.6592 104.949 96.1417 103.432 94.2699 103.432C92.398 103.432 90.8806 104.949 90.8806 106.821C90.8806 108.693 92.398 110.21 94.2699 110.21Z" fill="white"/>
<path fill-rule="evenodd" clip-rule="evenodd" d="M38.1586 86.109C44.3981 86.109 49.4562 81.051 49.4562 74.8115C49.4562 68.572 44.3981 63.5139 38.1586 63.5139C31.9192 63.5139 26.8611 68.572 26.8611 74.8115C26.8611 81.051 31.9192 86.109 38.1586 86.109ZM38.1586 86.8622C44.8141 86.8622 50.2094 81.4669 50.2094 74.8115C50.2094 68.156 44.8141 62.7607 38.1586 62.7607C31.5032 62.7607 26.1079 68.156 26.1079 74.8115C26.1079 81.4669 31.5032 86.8622 38.1586 86.8622Z" fill="white"/>
<path fill-rule="evenodd" clip-rule="evenodd" d="M94.6464 52.9694C100.886 52.9694 105.944 47.9113 105.944 41.6718C105.944 35.4324 100.886 30.3743 94.6464 30.3743C88.407 30.3743 83.3489 35.4324 83.3489 41.6718C83.3489 47.9113 88.407 52.9694 94.6464 52.9694ZM94.6464 53.7226C101.302 53.7226 106.697 48.3273 106.697 41.6718C106.697 35.0164 101.302 29.6211 94.6464 29.6211C87.991 29.6211 82.5957 35.0164 82.5957 41.6718C82.5957 48.3273 87.991 53.7226 94.6464 53.7226Z" fill="white"/>
<path fill-rule="evenodd" clip-rule="evenodd" d="M14.4538 55.4726C14.4538 56.0965 14.9596 56.6024 15.5836 56.6024C16.2075 56.6024 16.7133 56.0965 16.7133 55.4726V41.6391C16.7133 41.0151 16.2075 40.5093 15.5836 40.5093H5.38112L68.6558 3.06933L130.573 40.5093H122.758C122.134 40.5093 121.628 41.0151 121.628 41.6391V55.0119C121.628 55.6358 122.134 56.1416 122.758 56.1416C123.382 56.1416 123.888 55.6358 123.888 55.0119V42.7688H134.625C135.132 42.7688 135.577 42.431 135.713 41.9425C135.849 41.4541 135.643 40.9347 135.209 40.6723L69.2467 0.786137C68.8906 0.570816 68.4449 0.568684 68.0868 0.780598L0.677956 40.6668C0.23982 40.926 0.029198 41.4463 0.163589 41.9373C0.297979 42.4284 0.744181 42.7688 1.25327 42.7688H14.4538V55.4726ZM15.5836 55.8492C15.3756 55.8492 15.207 55.6806 15.207 55.4726V42.3923C15.207 42.1843 15.0384 42.0157 14.8304 42.0157H1.25327C1.08357 42.0157 0.93484 41.9022 0.890043 41.7385C0.845246 41.5748 0.915454 41.4014 1.0615 41.315L68.4703 1.4288C68.5897 1.35816 68.7383 1.35886 68.857 1.43065L134.82 41.3168C134.964 41.4043 135.033 41.5774 134.987 41.7402C134.942 41.9031 134.794 42.0157 134.625 42.0157H123.511C123.303 42.0157 123.135 42.1843 123.135 42.3923V55.0119C123.135 55.2199 122.966 55.3885 122.758 55.3885C122.55 55.3885 122.382 55.2199 122.382 55.0119V41.6391C122.382 41.4311 122.55 41.2625 122.758 41.2625H131.924C132.093 41.2625 132.241 41.1499 132.286 40.9871C132.332 40.8243 132.263 40.6511 132.118 40.5637L68.8528 2.30827C68.7341 2.2365 68.5855 2.23578 68.4661 2.30642L3.8134 40.5618C3.66735 40.6482 3.59714 40.8217 3.64194 40.9853C3.68674 41.149 3.83547 41.2625 4.00517 41.2625H15.5836C15.7915 41.2625 15.9601 41.4311 15.9601 41.6391V55.4726C15.9601 55.6806 15.7915 55.8492 15.5836 55.8492Z" fill="white"/>
</svg>
