<svg width="110" height="162" viewBox="0 0 110 162" fill="none" xmlns="http://www.w3.org/2000/svg">
<path fill-rule="evenodd" clip-rule="evenodd" d="M54.9819 1.51704C25.2383 1.51704 1.15294 25.9402 1.15294 56.0347C1.15294 81.7397 18.7211 103.302 42.3802 109.05C42.6127 109.107 42.7764 109.314 42.7764 109.553V120.545C42.7764 120.831 42.544 121.063 42.2575 121.063H23.549C23.3397 121.063 23.151 121.188 23.0702 121.381C22.9895 121.573 23.0326 121.795 23.1796 121.944L53.0005 152.103C53.2018 152.307 53.5303 152.309 53.7343 152.108L83.1522 123.155C83.3021 123.008 83.3479 122.785 83.268 122.59C83.1881 122.396 82.9984 122.269 82.7879 122.269H68.5122C68.2256 122.269 67.9933 122.037 67.9933 121.751V109.351C67.9933 109.115 68.153 108.909 68.3816 108.85C91.6366 102.815 108.811 81.4499 108.811 56.0347C108.811 25.9402 84.7255 1.51704 54.9819 1.51704ZM0.115112 56.0347C0.115112 25.3832 24.6502 0.481445 54.9819 0.481445C85.3135 0.481445 109.849 25.3832 109.849 56.0347C109.849 81.7818 92.5441 103.461 69.0312 109.749V121.233H82.7879C83.4195 121.233 83.9885 121.614 84.2281 122.197C84.4678 122.78 84.3307 123.45 83.881 123.893L54.4631 152.845C53.851 153.448 52.8656 153.441 52.2618 152.83L22.4409 122.671C22 122.226 21.8706 121.559 22.1128 120.981C22.3549 120.403 22.9213 120.027 23.549 120.027H41.7385V109.958C17.8159 103.954 0.115112 82.0747 0.115112 56.0347ZM3.22859 56.0347C3.22859 27.0544 26.4142 3.58824 54.9819 3.58824C83.5496 3.58824 106.735 27.0544 106.735 56.0347C106.735 80.6676 89.9803 101.322 67.409 106.96C67.3736 106.984 67.3346 107.005 67.2924 107.021C67.0948 107.095 66.9555 107.285 66.9555 107.506V122.787C66.9555 123.073 67.1878 123.305 67.4744 123.305H80.2577C80.4682 123.305 80.6579 123.431 80.7378 123.626C80.8177 123.82 80.772 124.043 80.6221 124.191L53.7443 150.644C53.5403 150.844 53.2118 150.842 53.0105 150.639L25.6616 122.98C25.5146 122.831 25.4715 122.609 25.5522 122.416C25.6329 122.224 25.8217 122.098 26.0309 122.098H43.2953C43.5819 122.098 43.8142 121.866 43.8142 121.58V107.908C43.8142 107.674 43.6583 107.475 43.4434 107.412C43.2807 107.364 43.1585 107.242 43.1038 107.094C20.2558 101.656 3.22859 80.8671 3.22859 56.0347ZM54.9819 4.62384C27.002 4.62384 4.26641 27.6116 4.26641 56.0347C4.26641 80.5373 21.1698 101.011 43.7595 106.183C43.8936 106.214 44.01 106.296 44.0831 106.413C44.122 106.475 44.147 106.544 44.1571 106.615C44.5758 106.893 44.852 107.368 44.852 107.908V121.58C44.852 122.438 44.155 123.134 43.2953 123.134H27.2719L53.3849 149.543L78.9926 124.34H67.4744C66.6146 124.34 65.9177 123.645 65.9177 122.787V107.506C65.9177 106.917 66.2461 106.406 66.7289 106.142C66.7963 106.073 66.8824 106.023 66.9779 105.999C89.1789 100.542 105.697 80.2564 105.697 56.0347C105.697 27.6116 82.9618 4.62384 54.9819 4.62384Z" fill="white"/>
<path fill-rule="evenodd" clip-rule="evenodd" d="M54.9486 97.3102C77.8756 97.3102 96.4616 78.7641 96.4616 55.8863C96.4616 33.0085 77.8756 14.4624 54.9486 14.4624C32.0216 14.4624 13.4356 33.0085 13.4356 55.8863C13.4356 78.7641 32.0216 97.3102 54.9486 97.3102ZM54.9486 98.3458C78.4488 98.3458 97.4995 79.3361 97.4995 55.8863C97.4995 32.4365 78.4488 13.4268 54.9486 13.4268C31.4484 13.4268 12.3978 32.4365 12.3978 55.8863C12.3978 79.3361 31.4484 98.3458 54.9486 98.3458Z" fill="white"/>
<path fill-rule="evenodd" clip-rule="evenodd" d="M54.9185 20.6768C55.3245 20.6768 55.6537 21.0122 55.6537 21.4259V30.6156C55.6537 31.0293 55.3245 31.3647 54.9185 31.3647C54.5125 31.3647 54.1834 31.0293 54.1834 30.6156V21.4259C54.1834 21.0122 54.5125 20.6768 54.9185 20.6768ZM47.3404 40.9534C48.8967 39.6281 51.3525 39.0561 54.9185 39.0561C56.6879 39.0561 58.07 39.4108 59.1412 40.01C60.2165 40.6116 60.9385 41.4375 61.4165 42.3126C62.3462 44.0148 62.346 45.8986 62.3459 46.6744L62.3459 46.6975C62.3459 47.1112 62.0167 47.4466 61.6107 47.4466C61.2047 47.4466 60.8756 47.1112 60.8756 46.6975C60.8756 45.9268 60.8659 44.3853 60.1319 43.0413C59.7733 42.3849 59.2406 41.7749 58.4337 41.3235C57.6227 40.8698 56.4953 40.5544 54.9185 40.5544C51.4304 40.5544 49.4247 41.131 48.2831 42.1032C47.1829 43.0401 46.7308 44.4843 46.7308 46.6975C46.7308 48.6932 47.6755 50.1851 49.4305 51.2179C51.2256 52.2743 53.8677 52.8405 57.1493 52.8405C59.1663 52.8405 60.6307 54.0706 61.5535 55.7338C62.4687 57.3832 62.9035 59.5296 62.9035 61.6306C62.9035 63.7317 62.4687 65.8781 61.5535 67.5275C60.6307 69.1907 59.1663 70.4207 57.1493 70.4207H57.0563C54.4485 70.4209 51.5435 70.421 49.2924 69.5059C48.1266 69.0319 47.0997 68.3008 46.3719 67.1764C45.6461 66.0553 45.2605 64.6092 45.2605 62.7793C45.2605 62.3656 45.5896 62.0302 45.9956 62.0302C46.4016 62.0302 46.7308 62.3656 46.7308 62.7793C46.7308 64.3957 47.0701 65.5341 47.5991 66.3514C48.1261 67.1655 48.8838 67.7266 49.8372 68.1142C51.7977 68.9113 54.4271 68.9224 57.1493 68.9224C58.4784 68.9224 59.5235 68.1422 60.2737 66.7901C61.0316 65.4241 61.4333 63.5501 61.4333 61.6306C61.4333 59.7112 61.0316 57.8371 60.2737 56.4712C59.5235 55.119 58.4784 54.3389 57.1493 54.3389C53.7386 54.3389 50.8039 53.7564 48.6952 52.5154C46.5464 51.2508 45.2605 49.2965 45.2605 46.6975C45.2605 44.3158 45.7428 42.3139 47.3404 40.9534ZM54.9185 78.1121C55.3245 78.1121 55.6537 78.4475 55.6537 78.8612V90.3483C55.6537 90.7621 55.3245 91.0975 54.9185 91.0975C54.5125 91.0975 54.1834 90.7621 54.1834 90.3483V78.8612C54.1834 78.4475 54.5125 78.1121 54.9185 78.1121Z" fill="white"/>
<path fill-rule="evenodd" clip-rule="evenodd" d="M89.7058 124.879C89.9234 125.065 89.9486 125.392 89.7621 125.609L86.6486 129.233C86.4621 129.45 86.1345 129.476 85.9169 129.289C85.6993 129.103 85.6741 128.776 85.8606 128.559L88.9741 124.935C89.1606 124.718 89.4882 124.692 89.7058 124.879ZM16.8723 124.906C17.075 124.703 17.4035 124.703 17.6062 124.906L21.2386 128.53C21.4412 128.732 21.4412 129.06 21.2386 129.262C21.0359 129.465 20.7074 129.465 20.5047 129.262L16.8723 125.638C16.6697 125.436 16.6697 125.108 16.8723 124.906ZM22.5712 130.611C22.7687 130.403 23.0972 130.395 23.3049 130.592L54.5918 160.277L84.331 130.601C84.5336 130.399 84.8622 130.399 85.0648 130.601C85.2675 130.804 85.2675 131.131 85.0648 131.334L54.9679 161.366C54.7688 161.565 54.4474 161.569 54.2434 161.375L22.5897 131.343C22.382 131.146 22.3738 130.818 22.5712 130.611Z" fill="white"/>
</svg>
