<svg width="397" height="236" viewBox="0 0 397 236" fill="none" xmlns="http://www.w3.org/2000/svg">
<g clip-path="url(#clip0_124_999)">
<path fill-rule="evenodd" clip-rule="evenodd" d="M383.525 69.0463C383.777 69.1728 383.88 69.4802 383.753 69.7331C383.436 70.3689 382.81 71.3779 381.948 72.3876C381.087 73.3958 379.967 74.4329 378.653 75.0899C377.335 75.7488 375.634 76.0548 374.081 76.1806C372.519 76.3072 371.052 76.2553 370.169 76.167C369.887 76.1388 369.682 75.888 369.71 75.6067C369.738 75.3254 369.989 75.1202 370.27 75.1483C371.096 75.2309 372.501 75.2816 373.998 75.1603C375.505 75.0382 377.052 74.746 378.195 74.1742C379.343 73.6005 380.359 72.6719 381.169 71.7229C381.978 70.7755 382.557 69.8359 382.838 69.2752C382.964 69.0224 383.272 68.9199 383.525 69.0463Z" fill="#E1E1E1"/>
<path fill-rule="evenodd" clip-rule="evenodd" d="M72.546 80.7833C72.546 80.5007 72.7752 80.2715 73.0579 80.2715H116.901C117.184 80.2715 117.413 80.5007 117.413 80.7833V123.858C117.413 124.105 117.237 124.316 116.994 124.361L107.251 126.156C106.973 126.207 106.706 126.023 106.655 125.745C106.604 125.467 106.788 125.2 107.066 125.149L116.389 123.432V81.2952H73.5697V85.3985C73.5697 85.4583 73.5593 85.5176 73.5388 85.5738L65.6215 107.282V133.858H73.0579C73.3406 133.858 73.5697 134.087 73.5697 134.37V136.677C73.5697 136.96 73.3406 137.189 73.0579 137.189H64.5959V144.37H77.4107C77.5403 139.321 83.0642 129.499 97.9281 129.499C106.326 129.499 111.383 133.388 114.236 138.345C116.947 143.054 117.656 148.699 117.446 152.831L188.164 152.831C188.099 148.885 189.149 143.397 191.995 138.877C194.989 134.122 199.98 130.437 207.688 130.782C216.432 131.173 221.842 134.905 224.917 139.535C227.824 143.91 228.621 149.049 228.24 152.831L254.33 152.831V142.318C254.33 142.036 254.559 141.806 254.842 141.806C255.124 141.806 255.354 142.036 255.354 142.318V153.343C255.354 153.479 255.3 153.609 255.204 153.705C255.108 153.801 254.977 153.855 254.842 153.855L227.664 153.855C227.516 153.855 227.375 153.791 227.278 153.679C227.181 153.568 227.137 153.42 227.157 153.273C227.655 149.663 226.968 144.472 224.065 140.102C221.179 135.757 216.076 132.182 207.642 131.805C200.356 131.478 195.69 134.93 192.861 139.423C190.014 143.944 189.036 149.517 189.203 153.321C189.209 153.46 189.158 153.596 189.062 153.697C188.965 153.798 188.832 153.855 188.692 153.855L116.901 153.855C116.759 153.855 116.623 153.796 116.526 153.692C116.43 153.588 116.38 153.448 116.391 153.306C116.685 149.272 116.05 143.549 113.349 138.856C110.668 134.198 105.939 130.523 97.9281 130.523C83.049 130.523 78.202 140.643 78.4404 144.853C78.4483 144.994 78.398 145.131 78.3013 145.234C78.2046 145.336 78.0701 145.394 77.9293 145.394H64.0841C63.8014 145.394 63.5722 145.165 63.5722 144.882V136.677C63.5722 136.395 63.8014 136.166 64.0841 136.166H72.546V134.882H65.1096C64.827 134.882 64.5978 134.653 64.5978 134.37V107.192C64.5978 107.132 64.6083 107.073 64.6288 107.017L72.546 85.308V80.7833Z" fill="#E1E1E1"/>
<path fill-rule="evenodd" clip-rule="evenodd" d="M115.974 83.4924C116.075 83.5889 116.131 83.7222 116.131 83.8615V101.296C116.131 101.529 115.975 101.732 115.75 101.791L106.007 104.355C105.733 104.427 105.453 104.264 105.381 103.991C105.31 103.717 105.473 103.437 105.746 103.365L115.108 100.902V84.3942L102.82 84.8857C102.813 84.886 102.807 84.8861 102.8 84.8861H74.8527C74.57 84.8861 74.3409 84.657 74.3409 84.3743C74.3409 84.0916 74.57 83.8624 74.8527 83.8624H102.79L115.599 83.35C115.738 83.3445 115.874 83.3959 115.974 83.4924ZM77.4348 87.3196C77.4943 87.0953 77.6974 86.9391 77.9295 86.9391H95.6207C95.9034 86.9391 96.1326 87.1683 96.1326 87.451V103.86C96.1326 104.143 95.9034 104.372 95.6207 104.372H73.5707C73.4118 104.372 73.2619 104.298 73.165 104.172C73.0681 104.046 73.0352 103.882 73.076 103.729L77.4348 87.3196ZM78.3231 87.9629L74.2363 103.348H95.1089V87.9629H78.3231Z" fill="#E1E1E1"/>
<path fill-rule="evenodd" clip-rule="evenodd" d="M102.8 84.1162C103.082 84.1162 103.312 84.3454 103.312 84.6281V125.139H107.158C107.441 125.139 107.67 125.369 107.67 125.651C107.67 125.934 107.441 126.163 107.158 126.163H102.8C102.517 126.163 102.288 125.934 102.288 125.651V84.6281C102.288 84.3454 102.517 84.1162 102.8 84.1162Z" fill="#E1E1E1"/>
<path fill-rule="evenodd" clip-rule="evenodd" d="M264.311 165.726C264.41 166.283 264.039 166.815 263.483 166.914L227.588 173.324C227.571 173.327 227.555 173.329 227.538 173.331L210.436 175.53L209.2 198.268C209.171 198.806 208.729 199.229 208.19 199.236C207.651 199.242 207.199 198.829 207.157 198.291L205.456 176.413L192.536 179.532V278.976C192.536 279.542 192.078 280 191.512 280C190.947 280 190.489 279.542 190.489 278.976V179.75H1.52372C0.958336 179.75 0.5 179.291 0.5 178.726C0.5 178.161 0.958336 177.702 1.52372 177.702H191.391L206.143 174.141C206.435 174.071 206.742 174.132 206.985 174.308C207.227 174.484 207.381 174.758 207.404 175.057L207.997 182.681L208.438 174.568C208.465 174.075 208.84 173.671 209.329 173.608L227.252 171.304L263.123 164.898C263.68 164.799 264.211 165.17 264.311 165.726Z" fill="#E1E1E1"/>
<path fill-rule="evenodd" clip-rule="evenodd" d="M208.434 165.398C215.941 165.398 222.027 159.313 222.027 151.806C222.027 144.299 215.941 138.213 208.434 138.213C200.927 138.213 194.842 144.299 194.842 151.806C194.842 159.313 200.927 165.398 208.434 165.398ZM208.434 167.446C217.072 167.446 224.074 160.443 224.074 151.806C224.074 143.168 217.072 136.166 208.434 136.166C199.797 136.166 192.794 143.168 192.794 151.806C192.794 160.443 199.797 167.446 208.434 167.446Z" fill="#E1E1E1"/>
<path fill-rule="evenodd" clip-rule="evenodd" d="M96.6463 163.861C104.153 163.861 110.239 157.775 110.239 150.268C110.239 142.761 104.153 136.675 96.6463 136.675C89.1393 136.675 83.0537 142.761 83.0537 150.268C83.0537 157.775 89.1393 163.861 96.6463 163.861ZM96.6463 165.908C105.284 165.908 112.286 158.906 112.286 150.268C112.286 141.63 105.284 134.628 96.6463 134.628C88.0085 134.628 81.0062 141.63 81.0062 150.268C81.0062 158.906 88.0085 165.908 96.6463 165.908Z" fill="#E1E1E1"/>
<path fill-rule="evenodd" clip-rule="evenodd" d="M208.434 158.729C212.259 158.729 215.359 155.629 215.359 151.804C215.359 147.98 212.259 144.88 208.434 144.88C204.61 144.88 201.51 147.98 201.51 151.804C201.51 155.629 204.61 158.729 208.434 158.729ZM208.434 159.752C212.824 159.752 216.383 156.194 216.383 151.804C216.383 147.415 212.824 143.856 208.434 143.856C204.045 143.856 200.486 147.415 200.486 151.804C200.486 156.194 204.045 159.752 208.434 159.752Z" fill="#E1E1E1"/>
<path fill-rule="evenodd" clip-rule="evenodd" d="M96.6463 157.191C100.471 157.191 103.571 154.091 103.571 150.267C103.571 146.442 100.471 143.342 96.6463 143.342C92.822 143.342 89.7218 146.442 89.7218 150.267C89.7218 154.091 92.822 157.191 96.6463 157.191ZM96.6463 158.215C101.036 158.215 104.595 154.656 104.595 150.267C104.595 145.877 101.036 142.318 96.6463 142.318C92.2566 142.318 88.6981 145.877 88.6981 150.267C88.6981 154.656 92.2566 158.215 96.6463 158.215Z" fill="#E1E1E1"/>
<path fill-rule="evenodd" clip-rule="evenodd" d="M66.3925 107.705C66.3925 107.423 66.6216 107.193 66.9043 107.193H98.6973C98.98 107.193 99.2091 107.423 99.2091 107.705V124.884C99.2091 125.026 99.1498 125.162 99.0453 125.259C98.9408 125.356 98.8007 125.405 98.6586 125.394C93.5544 125.008 90.0505 125.407 87.2167 126.914C84.3828 128.421 82.1396 131.078 79.6549 135.395C79.5635 135.554 79.3944 135.651 79.2113 135.651H74.5962C74.3135 135.651 74.0843 135.422 74.0843 135.139C74.0843 134.857 74.3135 134.628 74.5962 134.628H78.9161C81.3769 130.401 83.7067 127.621 86.7361 126.01C89.7156 124.425 93.298 124.011 98.1854 124.334V108.217H66.9043C66.6216 108.217 66.3925 107.988 66.3925 107.705Z" fill="#E1E1E1"/>
<path fill-rule="evenodd" clip-rule="evenodd" d="M109.21 127.193C109.21 126.91 109.44 126.681 109.722 126.681H137.413C137.696 126.681 137.925 126.91 137.925 127.193C137.925 127.476 137.696 127.705 137.413 127.705H109.722C109.44 127.705 109.21 127.476 109.21 127.193ZM170.489 127.193C170.489 126.91 170.718 126.681 171.001 126.681H241.253C241.536 126.681 241.765 126.91 241.765 127.193C241.765 127.476 241.536 127.705 241.253 127.705H171.001C170.718 127.705 170.489 127.476 170.489 127.193Z" fill="#E1E1E1"/>
<path fill-rule="evenodd" clip-rule="evenodd" d="M170.233 120.78H137.924V130.526H170.233V120.78ZM136.9 119.756V131.55H171.257V119.756H136.9Z" fill="#E1E1E1"/>
<path fill-rule="evenodd" clip-rule="evenodd" d="M157.413 75.6574C157.413 75.3747 157.642 75.1455 157.925 75.1455H185.103C185.385 75.1455 185.614 75.3747 185.614 75.6574V80.017H189.461C189.744 80.017 189.973 80.2462 189.973 80.5289V83.6056C189.973 83.8883 189.744 84.1175 189.461 84.1175H173.211L165.605 120.119C165.546 120.396 165.275 120.573 164.998 120.514C164.721 120.456 164.545 120.184 164.603 119.908L172.295 83.4998C172.345 83.2631 172.554 83.0937 172.796 83.0937H188.949V81.0407H185.103C184.82 81.0407 184.591 80.8116 184.591 80.5289V76.1692H158.437V83.0937H168.95C169.104 83.0937 169.25 83.1634 169.347 83.2832C169.444 83.4031 169.482 83.5604 169.45 83.7114L161.759 120.119C161.7 120.396 161.429 120.573 161.152 120.514C160.875 120.456 160.699 120.184 160.757 119.908L168.318 84.1175H157.925C157.642 84.1175 157.413 83.8883 157.413 83.6056V75.6574Z" fill="#E1E1E1"/>
<path fill-rule="evenodd" clip-rule="evenodd" d="M235.837 27.3318C235.152 26.8024 234.27 26.6624 233.517 26.9931C229.161 28.9039 220.096 34.1594 209.297 44.2386C198.099 54.69 191.735 69.5325 189.449 77.2265C189.169 78.1706 189.518 79.188 190.315 79.8127L247.983 124.986C249.058 125.828 250.604 125.678 251.497 124.645L293.152 76.4898C293.401 76.2019 293.368 75.7664 293.079 75.5187C292.798 75.2776 292.376 75.303 292.126 75.5761L274.817 94.4585C273.721 95.6545 271.848 95.6952 270.701 94.548C269.611 93.4575 269.585 91.6974 270.644 90.5762L288.549 71.6179C289.589 70.5176 289.451 68.7608 288.254 67.8355L235.837 27.3318ZM233.105 26.0557C234.24 25.5577 235.516 25.79 236.463 26.5218L288.88 67.0254C290.556 68.3209 290.749 70.7804 289.294 72.3208L271.389 91.2791C270.71 91.9976 270.726 93.1254 271.425 93.8241C272.16 94.5592 273.36 94.5331 274.062 93.7668L291.371 74.8843C291.995 74.2042 293.045 74.141 293.746 74.7414C294.465 75.3583 294.546 76.4426 293.926 77.1595L252.271 125.315C251.021 126.761 248.856 126.97 247.352 125.792L189.684 80.6186C188.578 79.7523 188.06 78.3087 188.468 76.9349C190.783 69.1451 197.217 54.1121 208.598 43.4902C219.469 33.3442 228.629 28.0194 233.105 26.0557Z" fill="#E1E1E1"/>
<path fill-rule="evenodd" clip-rule="evenodd" d="M196.383 3.26607C192.293 -0.128578 186.236 0.388627 182.781 4.42746L159.879 31.1997C156.28 35.4071 156.915 41.7661 161.274 45.1792L191.828 69.0994C192.05 69.2737 192.09 69.5954 191.915 69.818C191.741 70.0406 191.419 70.0798 191.197 69.9055L160.643 45.9853C155.825 42.2129 155.123 35.1845 159.101 30.5342L182.003 3.762C185.821 -0.701972 192.516 -1.27362 197.036 2.47836L228.504 28.5982C228.721 28.7788 228.751 29.1015 228.571 29.319C228.39 29.5365 228.067 29.5665 227.85 29.3859L196.383 3.26607Z" fill="#E1E1E1"/>
<path fill-rule="evenodd" clip-rule="evenodd" d="M223.919 35.0962C224.087 34.8689 224.408 34.8209 224.635 34.989L249.249 53.1931C249.476 53.3612 249.524 53.6817 249.356 53.909C249.188 54.1363 248.868 54.1842 248.64 54.0161L224.026 35.8121C223.799 35.644 223.751 35.3235 223.919 35.0962ZM252.899 57.1366C253.073 56.9133 253.394 56.8729 253.617 57.0463L277.718 75.7631C277.942 75.9365 277.982 76.258 277.809 76.4813C277.635 76.7046 277.314 76.745 277.091 76.5716L252.989 57.8548C252.766 57.6814 252.726 57.3598 252.899 57.1366Z" fill="#E1E1E1"/>
<path fill-rule="evenodd" clip-rule="evenodd" d="M325.072 44.8891C325.079 44.8888 325.087 44.8887 325.094 44.8887H345.646C347.723 44.8887 349.365 46.6486 349.221 48.7204L347.606 71.9273C347.471 73.8694 345.81 75.3482 343.866 75.2578L297.052 73.0804C294.304 72.9526 292.722 69.9003 294.324 67.6224C297.124 63.639 301.129 58.298 305.229 53.7742C308.275 50.4127 312.222 48.2376 315.898 46.8817C319.573 45.526 323.01 44.9769 325.072 44.8891ZM325.105 45.9124C323.149 45.997 319.822 46.5253 316.252 47.8422C312.676 49.1613 308.889 51.2595 305.987 54.4617C301.927 58.9417 297.949 64.2449 295.161 68.2112C294.043 69.8013 295.125 71.966 297.1 72.0578L343.913 74.2352C345.302 74.2998 346.489 73.2435 346.585 71.8562L348.2 48.6493C348.303 47.1695 347.13 45.9124 345.646 45.9124H325.105Z" fill="#E1E1E1"/>
<path fill-rule="evenodd" clip-rule="evenodd" d="M347.956 45.4527C348.069 45.1934 348.371 45.0744 348.63 45.187L357.741 49.1433C364.359 52.0169 369.037 58.0885 370.128 65.2205L371.182 72.1103C371.525 74.3531 369.723 76.346 367.457 76.2304L346.092 75.1403C345.81 75.1259 345.593 74.8854 345.607 74.6031C345.622 74.3207 345.862 74.1035 346.145 74.1179L367.509 75.208C369.128 75.2906 370.415 73.8671 370.17 72.2651L369.116 65.3752C368.078 58.5912 363.629 52.8157 357.334 50.0823L348.222 46.126C347.963 46.0134 347.844 45.712 347.956 45.4527Z" fill="#E1E1E1"/>
<path fill-rule="evenodd" clip-rule="evenodd" d="M370.648 71.5603C370.927 71.5138 371.191 71.7022 371.237 71.981C371.411 73.0265 371.664 75.6173 371.232 77.5605C370.993 78.6349 370.134 79.8157 369.046 80.7155C367.952 81.6206 366.532 82.32 365.092 82.32C365.076 82.32 365.059 82.3193 365.043 82.3178L294.535 75.6515C294.253 75.6249 294.047 75.3752 294.073 75.0937C294.1 74.8123 294.35 74.6057 294.631 74.6323L365.115 81.2962C366.232 81.2886 367.418 80.7337 368.393 79.9267C369.382 79.1086 370.061 78.11 370.233 77.3384C370.621 75.5895 370.395 73.1549 370.227 72.1493C370.181 71.8705 370.369 71.6067 370.648 71.5603Z" fill="#E1E1E1"/>
<path fill-rule="evenodd" clip-rule="evenodd" d="M373.452 62.3221C372.269 62.3221 371.252 63.1633 371.031 64.3259C370.773 65.6762 371.67 66.976 373.024 67.2148L382.68 68.9188L384.659 62.3221H373.452ZM385.653 62.5712L394.552 67.6009C395.667 68.2314 396.144 69.5897 395.669 70.7794L395.308 71.68C394.762 73.0448 393.182 73.6703 391.85 73.0487L390.702 72.513C390.695 72.5097 390.688 72.5064 390.681 72.5034L383.657 69.2253L385.653 62.5712ZM382.884 69.9944L372.846 68.223C370.93 67.8849 369.661 66.0454 370.025 64.1344C370.338 62.4889 371.777 61.2983 373.452 61.2983H385.347C385.435 61.2983 385.522 61.3212 385.599 61.3646L395.055 66.7096C396.617 67.5924 397.285 69.494 396.619 71.1596L396.259 72.0602C395.495 73.9709 393.282 74.8467 391.417 73.9764L390.56 73.5766C388.785 75.1139 386.11 77.2224 383.318 79.0974C380.409 81.0514 377.306 82.7979 374.948 83.3337C370.282 84.3941 366.282 82.9005 364.82 81.9867C364.581 81.8368 364.508 81.521 364.658 81.2813C364.807 81.0416 365.123 80.9687 365.363 81.1186C366.636 81.9141 370.362 83.3262 374.721 82.3355C376.876 81.8457 379.841 80.1992 382.748 78.2475C385.325 76.5165 387.804 74.5816 389.542 73.1015L382.884 69.9944Z" fill="#E1E1E1"/>
<path fill-rule="evenodd" clip-rule="evenodd" d="M311.048 76.2754C311.272 76.4479 311.314 76.7693 311.141 76.9932L287.04 108.273C286.868 108.497 286.546 108.539 286.322 108.366C286.098 108.194 286.057 107.873 286.229 107.649L310.33 76.3684C310.503 76.1445 310.824 76.1028 311.048 76.2754ZM316.937 76.7819C317.164 76.9499 317.213 77.2704 317.045 77.4978L291.662 111.855C291.494 112.082 291.173 112.13 290.946 111.962C290.718 111.794 290.67 111.474 290.838 111.246L316.221 76.8895C316.389 76.6621 316.71 76.6139 316.937 76.7819Z" fill="#E1E1E1"/>
<path fill-rule="evenodd" clip-rule="evenodd" d="M275.24 97.3528C275.435 97.1483 275.759 97.1407 275.963 97.3359L287.245 108.105C287.449 108.3 287.457 108.624 287.262 108.828C287.066 109.033 286.742 109.04 286.538 108.845L275.257 98.0765C275.052 97.8813 275.045 97.5573 275.24 97.3528ZM251.149 125.152C251.426 125.095 251.697 125.273 251.754 125.55L255.295 142.748C255.322 142.879 255.359 143.008 255.406 143.134L271.73 186.495C271.83 186.759 271.696 187.055 271.432 187.154C271.167 187.254 270.872 187.12 270.772 186.856L254.448 143.495C254.382 143.319 254.33 143.138 254.292 142.955L250.751 125.756C250.694 125.48 250.872 125.209 251.149 125.152ZM323.409 134.056C323.582 133.833 323.904 133.793 324.127 133.967L339.254 145.761C339.477 145.935 339.517 146.257 339.343 146.48C339.169 146.702 338.848 146.742 338.625 146.568L323.498 134.774C323.275 134.601 323.235 134.279 323.409 134.056Z" fill="#E1E1E1"/>
<path fill-rule="evenodd" clip-rule="evenodd" d="M297.699 140.082C297.816 140.166 297.995 140.267 298.216 140.267C298.491 140.267 298.67 140.101 298.762 139.979C298.853 139.858 298.911 139.716 298.951 139.591C299.032 139.336 299.086 139.003 299.123 138.644C299.198 137.916 299.218 136.961 299.21 136.022C299.202 135.102 300.091 134.448 300.929 134.725L303.288 135.508C304.528 135.919 305.6 134.552 304.906 133.446C304.799 133.275 304.848 133.051 305.016 132.941L306.579 131.917C308.566 130.617 308.608 127.584 306.335 126.54C305.892 126.337 305.461 126.158 305.076 126.03C304.702 125.906 304.328 125.813 304.013 125.813C303.809 125.813 303.612 125.874 303.44 125.949C303.263 126.026 303.078 126.133 302.893 126.256C302.522 126.503 302.107 126.844 301.677 127.236C300.813 128.021 299.842 129.049 298.963 130.035C298.414 130.651 297.403 130.406 297.199 129.648L296.21 129.915C296.636 131.497 298.664 131.91 299.727 130.716C300.596 129.741 301.541 128.743 302.365 127.993C302.779 127.618 303.151 127.314 303.46 127.108C303.615 127.005 303.744 126.933 303.848 126.888C303.899 126.866 303.939 126.852 303.969 126.845C303.999 126.837 304.013 126.837 304.013 126.837C304.158 126.837 304.405 126.885 304.753 127.001C305.09 127.114 305.483 127.276 305.908 127.471C307.336 128.126 307.439 130.131 306.019 131.061L304.455 132.084C303.82 132.5 303.635 133.347 304.039 133.99C304.223 134.283 303.939 134.645 303.61 134.536L301.251 133.754C299.712 133.243 298.172 134.446 298.186 136.031C298.194 136.96 298.174 137.869 298.104 138.539C298.087 138.711 298.066 138.86 298.044 138.985C297.911 138.815 297.76 138.588 297.598 138.319C297.209 137.67 296.801 136.843 296.488 136.157C296.349 135.851 296.28 135.513 296.28 135.166V132.59C296.28 132.307 296.051 132.078 295.768 132.078C295.486 132.078 295.257 132.307 295.257 132.59V135.166C295.257 135.648 295.352 136.132 295.556 136.581C295.876 137.283 296.302 138.149 296.72 138.846C296.928 139.192 297.144 139.514 297.354 139.756C297.458 139.877 297.574 139.992 297.699 140.082ZM298.314 139.262C298.314 139.262 298.313 139.261 298.31 139.26C298.313 139.262 298.314 139.262 298.314 139.262ZM291.859 131.286C293.648 131.773 295.483 130.671 295.893 128.861L295.994 128.414C296.362 126.788 295.257 125.197 293.605 124.974C292.704 124.852 292.032 124.083 292.032 123.175V123.073C292.032 122.453 292.33 121.871 292.833 121.508L294.926 119.996C295.795 119.985 296.224 118.93 295.603 118.316L292.96 115.7C292.76 115.501 292.435 115.503 292.237 115.704C292.038 115.905 292.039 116.229 292.24 116.428L294.816 118.977C294.644 118.994 294.479 119.056 294.337 119.158L292.233 120.678C291.464 121.234 291.008 122.125 291.008 123.073V123.175C291.008 124.596 292.059 125.798 293.468 125.988C294.524 126.131 295.231 127.148 294.996 128.188L294.894 128.635C294.614 129.876 293.355 130.633 292.127 130.298L289.082 129.469C288.712 129.369 288.38 129.193 288.115 128.946C287.654 128.516 287.142 127.993 286.78 127.524C286.597 127.287 286.468 127.084 286.399 126.929C286.371 126.865 286.359 126.823 286.353 126.799C286.395 126.755 286.509 126.667 286.776 126.577C287.079 126.474 287.462 126.407 287.833 126.37C288.477 126.305 289.044 125.777 289.044 125.069C289.044 124.521 288.694 124.045 288.19 123.866C287.603 123.658 286.902 123.385 286.351 123.12C286.073 122.987 285.852 122.864 285.705 122.76C285.667 122.733 285.638 122.711 285.618 122.693C285.606 122.388 285.607 121.856 285.612 121.353C285.616 120.905 285.739 120.481 285.98 120.135C286.315 119.652 286.744 119.098 287.195 118.632C287.659 118.153 288.096 117.82 288.446 117.7C289.589 117.31 291.029 117.023 291.603 116.929C291.882 116.883 292.071 116.62 292.026 116.341C291.98 116.062 291.717 115.873 291.438 115.919C290.836 116.017 289.334 116.315 288.115 116.732C287.526 116.933 286.949 117.415 286.46 117.92C285.958 118.438 285.495 119.039 285.139 119.55C284.767 120.086 284.594 120.716 284.588 121.342C284.582 121.9 284.582 122.547 284.601 122.865C284.615 123.082 284.732 123.243 284.811 123.333C284.899 123.433 285.008 123.521 285.114 123.596C285.33 123.748 285.611 123.9 285.907 124.043C286.506 124.331 287.246 124.617 287.847 124.831C287.954 124.869 288.02 124.967 288.02 125.069C288.02 125.192 287.913 125.333 287.731 125.351C287.322 125.392 286.854 125.469 286.448 125.607C286.077 125.733 285.603 125.959 285.402 126.401C285.246 126.745 285.358 127.106 285.463 127.344C285.58 127.608 285.765 127.885 285.969 128.149C286.381 128.682 286.938 129.248 287.417 129.695C287.818 130.069 288.304 130.318 288.813 130.457L291.859 131.286ZM285.575 122.65C285.575 122.65 285.576 122.652 285.579 122.655C285.576 122.652 285.575 122.65 285.575 122.65ZM299.735 127.401C300.3 127.646 301.039 127.609 301.575 127.09C302.154 126.529 302.757 125.996 303.321 125.581C303.898 125.155 304.386 124.89 304.74 124.807C305.314 124.674 306.033 124.956 306.782 125.519C307.985 126.424 309.898 126.622 311.017 125.348L311.098 125.256C311.535 124.759 311.739 124.099 311.659 123.442L311.639 123.284C311.584 122.831 311.367 122.412 311.028 122.106L310.975 122.058C310.73 121.837 310.653 121.486 310.781 121.183L310.853 121.013C311.322 119.909 310.512 118.684 309.312 118.684C308.909 118.684 308.603 118.322 308.67 117.925L308.994 116.006C309.266 114.394 308.023 112.924 306.388 112.924C306.086 112.924 305.786 112.838 305.518 112.678C304.976 112.353 304.331 111.988 303.853 111.771C303.732 111.716 303.615 111.668 303.507 111.631C303.409 111.597 303.283 111.56 303.158 111.553C303.097 111.55 302.993 111.551 302.881 111.595C302.75 111.646 302.614 111.755 302.551 111.934C302.497 112.089 302.523 112.227 302.545 112.302C302.568 112.383 302.604 112.454 302.636 112.508C302.704 112.622 302.695 112.68 302.691 112.7C302.684 112.732 302.66 112.78 302.6 112.838C302.534 112.901 302.41 112.945 302.129 112.982L299.757 113.294C297.553 113.584 296.476 116.138 297.806 117.918L298.627 117.306C297.765 116.152 298.463 114.497 299.89 114.309L302.263 113.997C302.53 113.962 302.975 113.896 303.308 113.577C303.468 113.423 303.631 113.202 303.692 112.912C303.697 112.887 303.702 112.862 303.706 112.836C304.093 113.031 304.564 113.299 304.992 113.556C305.41 113.806 305.891 113.947 306.388 113.947C307.39 113.947 308.151 114.848 307.984 115.836L307.661 117.755C307.488 118.777 308.276 119.708 309.312 119.708C309.778 119.708 310.093 120.184 309.911 120.613L309.839 120.782C309.54 121.487 309.72 122.304 310.288 122.817L310.342 122.866C310.498 123.007 310.598 123.199 310.623 123.408L310.642 123.566C310.687 123.933 310.573 124.302 310.329 124.58L310.248 124.673C309.601 125.409 308.334 125.405 307.397 124.701C306.596 124.099 305.549 123.569 304.509 123.81C303.943 123.942 303.316 124.313 302.714 124.756C302.1 125.209 301.46 125.776 300.863 126.354C300.674 126.537 300.395 126.572 300.142 126.462C299.892 126.354 299.751 126.144 299.77 125.901C299.832 125.104 299.277 124.392 298.49 124.257L298.075 124.186C297.382 124.066 297.033 123.279 297.412 122.686L299.764 119.004C299.916 118.765 299.846 118.449 299.608 118.297C299.37 118.145 299.053 118.214 298.901 118.453L296.55 122.135C295.777 123.345 296.487 124.952 297.902 125.195L298.316 125.266C298.582 125.311 298.77 125.552 298.749 125.822C298.69 126.584 299.167 127.155 299.735 127.401Z" fill="#E1E1E1"/>
<path fill-rule="evenodd" clip-rule="evenodd" d="M306.604 158.801C306.811 158.885 307.047 158.825 307.19 158.654C307.779 157.947 308.765 156.861 309.797 155.909C310.313 155.433 310.834 154.998 311.316 154.662C311.808 154.319 312.222 154.108 312.529 154.036C313.102 153.903 313.82 154.185 314.569 154.747C315.294 155.292 315.927 156.011 316.282 156.502C316.374 156.629 316.517 156.706 316.673 156.714C316.828 156.721 316.979 156.657 317.082 156.54L319.422 153.876C319.518 153.766 319.563 153.621 319.545 153.476L319.365 152C319.35 151.877 319.292 151.765 319.2 151.682L318.355 150.918L319.328 148.625C319.395 148.467 319.379 148.286 319.284 148.143C319.189 148 319.029 147.913 318.857 147.913H316.33L317.202 142.75C317.227 142.601 317.185 142.449 317.088 142.334C316.991 142.219 316.848 142.153 316.697 142.153H313.711C313.186 141.828 312.472 141.409 311.907 141.127C311.618 140.983 311.309 140.845 311.079 140.8C311.018 140.788 310.93 140.775 310.833 140.785C310.742 140.794 310.559 140.833 310.426 141.004C310.287 141.183 310.299 141.379 310.321 141.484C310.343 141.588 310.388 141.676 310.424 141.737C310.477 141.826 310.482 141.88 310.482 141.903C310.481 141.927 310.475 141.954 310.453 141.989C310.401 142.073 310.29 142.154 310.197 142.193C310.101 142.234 310.019 142.303 309.964 142.392L303.124 153.265C303.033 153.41 303.02 153.59 303.089 153.746C303.159 153.902 303.302 154.013 303.47 154.042L306.574 154.575L306.287 158.287C306.269 158.509 306.398 158.717 306.604 158.801ZM307.426 156.839L307.631 154.19C307.652 153.926 307.468 153.69 307.208 153.645L304.397 153.163L310.754 143.059C310.948 142.95 311.17 142.776 311.323 142.528C311.405 142.397 311.469 142.241 311.494 142.065C312.056 142.349 312.784 142.78 313.294 143.099C313.375 143.149 313.469 143.176 313.565 143.176H316.092L315.22 148.34C315.195 148.489 315.237 148.641 315.334 148.756C315.431 148.871 315.574 148.937 315.725 148.937H318.084L317.27 150.854C317.185 151.054 317.236 151.287 317.398 151.433L318.372 152.313L318.501 153.372L316.719 155.402C316.318 154.925 315.783 154.379 315.184 153.929C314.383 153.327 313.337 152.798 312.297 153.039C311.798 153.155 311.256 153.456 310.731 153.821C310.197 154.193 309.639 154.662 309.103 155.156C308.507 155.706 307.927 156.297 307.426 156.839ZM310.877 141.803C310.877 141.803 310.878 141.804 310.88 141.804L310.877 141.803ZM311.304 141.213C311.303 141.211 311.302 141.21 311.302 141.21C311.302 141.21 311.303 141.211 311.304 141.213Z" fill="#E1E1E1"/>
<path fill-rule="evenodd" clip-rule="evenodd" d="M289.185 174.718C289.145 174.871 289.109 175.106 289.21 175.335C289.377 175.711 289.773 175.741 289.919 175.743C290.118 175.746 290.346 175.705 290.571 175.649C291.03 175.534 291.618 175.32 292.235 175.068C293.21 174.669 294.308 174.154 295.195 173.715L295.853 180.484C295.874 180.699 296.028 180.877 296.237 180.93C296.447 180.983 296.667 180.899 296.787 180.72L298.359 178.386L303.9 181.967C304.046 182.062 304.232 182.076 304.391 182.003C304.549 181.93 304.66 181.781 304.684 181.608C304.807 180.73 304.96 179.345 305.022 178.039C305.053 177.387 305.062 176.745 305.032 176.191C305.002 175.656 304.933 175.138 304.772 174.776C304.66 174.522 304.44 174.313 304.225 174.148C303.997 173.973 303.713 173.802 303.396 173.635C302.763 173.301 301.95 172.96 301.086 172.637C299.738 172.133 298.232 171.659 297.015 171.307L298.505 170.101C298.68 169.959 298.742 169.719 298.657 169.51C298.571 169.301 298.359 169.172 298.134 169.194L295.187 169.476C295.132 169.482 295.079 169.496 295.029 169.518L292.099 170.817C292.036 170.845 291.979 170.885 291.932 170.936C291.435 171.47 290.703 172.307 290.123 173.087C289.834 173.476 289.571 173.866 289.394 174.205C289.306 174.374 289.229 174.549 289.185 174.718ZM292.61 171.71L295.368 170.488L296.539 170.375L295.6 171.135C295.45 171.256 295.381 171.451 295.421 171.639C295.461 171.827 295.603 171.977 295.788 172.027C297.076 172.375 299.036 172.963 300.727 173.596C301.575 173.913 302.341 174.236 302.919 174.54C303.208 174.693 303.437 174.834 303.602 174.96C303.684 175.023 303.743 175.077 303.783 175.121C303.803 175.142 303.816 175.16 303.825 175.172C303.834 175.185 303.837 175.191 303.837 175.191L303.837 175.191C303.915 175.369 303.98 175.723 304.009 176.248C304.038 176.753 304.03 177.356 304 177.99C303.956 178.912 303.865 179.878 303.773 180.666L298.493 177.253C298.259 177.102 297.946 177.166 297.791 177.397L296.734 178.966L296.141 172.872C296.125 172.703 296.026 172.554 295.877 172.472C295.728 172.391 295.549 172.389 295.398 172.466C294.464 172.945 293.051 173.628 291.847 174.12C291.242 174.368 290.709 174.559 290.323 174.656C290.319 174.656 290.316 174.657 290.312 174.658C290.453 174.393 290.674 174.061 290.944 173.698C291.468 172.994 292.133 172.228 292.61 171.71ZM290.168 175.018C290.168 175.017 290.168 175.016 290.168 175.012C290.168 175.016 290.168 175.018 290.168 175.018ZM289.919 174.719C289.908 174.717 289.902 174.717 289.902 174.717C289.901 174.717 289.906 174.718 289.919 174.719Z" fill="#E1E1E1"/>
<path fill-rule="evenodd" clip-rule="evenodd" d="M279.641 166.508C279.76 166.436 279.845 166.318 279.876 166.182L281.172 160.457C281.204 160.317 281.175 160.17 281.093 160.052C281.011 159.935 280.884 159.856 280.741 159.837L276.649 159.285V156.61L279.542 154.52H280.673C280.898 154.52 281.097 154.373 281.162 154.157C281.228 153.942 281.146 153.709 280.959 153.583L276.423 150.523C276.315 150.45 276.183 150.421 276.054 150.442C275.453 150.54 273.95 150.839 272.731 151.255C272 151.505 271.272 152.195 270.695 152.86C270.099 153.547 269.585 154.299 269.29 154.788C269.244 154.864 269.219 154.952 269.217 155.041C269.205 155.609 269.187 156.901 269.218 157.388C269.233 157.635 269.382 157.812 269.472 157.904C269.576 158.011 269.707 158.107 269.839 158.192C270.105 158.365 270.453 158.539 270.817 158.702C271.411 158.969 272.094 159.227 272.637 159.415V159.851C272.294 159.873 271.899 159.92 271.526 160.003C271.236 160.068 270.938 160.159 270.681 160.29C270.434 160.416 270.16 160.614 270.019 160.925C269.922 161.137 269.931 161.353 269.967 161.526C270.003 161.7 270.075 161.871 270.158 162.027C270.324 162.341 270.575 162.675 270.847 162.993C271.393 163.634 272.089 164.287 272.564 164.694C272.621 164.743 272.689 164.779 272.762 164.799L279.242 166.563C279.377 166.6 279.521 166.58 279.641 166.508ZM273.143 163.842C272.699 163.454 272.095 162.88 271.626 162.329C271.373 162.033 271.177 161.764 271.062 161.548C271.007 161.443 270.98 161.369 270.97 161.323C270.994 161.297 271.045 161.254 271.148 161.201C271.297 161.124 271.503 161.057 271.748 161.003C272.236 160.894 272.791 160.856 273.149 160.856C273.431 160.856 273.661 160.627 273.661 160.344V159.048C273.661 158.827 273.519 158.631 273.309 158.562C272.755 158.379 271.925 158.078 271.236 157.769C270.889 157.613 270.596 157.463 270.394 157.333C270.32 157.285 270.268 157.246 270.234 157.216C270.216 156.751 270.227 155.775 270.238 155.201C270.516 154.754 270.962 154.114 271.468 153.531C272.038 152.875 272.612 152.377 273.062 152.224C274.09 151.873 275.358 151.605 276.021 151.487L279.11 153.571C279.099 153.578 279.088 153.585 279.077 153.593L275.837 155.933C275.704 156.029 275.625 156.184 275.625 156.348V159.732C275.625 159.989 275.814 160.205 276.068 160.24L280.05 160.777L278.996 165.435L273.143 163.842ZM270.189 157.172C270.189 157.172 270.191 157.174 270.195 157.179C270.192 157.174 270.19 157.172 270.189 157.172ZM270.965 161.293C270.965 161.293 270.965 161.293 270.965 161.294C270.965 161.293 270.965 161.293 270.965 161.293ZM282.79 152.645C282.936 152.658 283.08 152.607 283.186 152.506L287.578 148.33C287.738 148.177 287.782 147.938 287.687 147.738C287.591 147.538 287.378 147.422 287.158 147.451L280.318 148.352C280.138 148.375 279.984 148.493 279.913 148.66C279.843 148.828 279.866 149.02 279.975 149.165L282.423 152.442C282.51 152.559 282.644 152.633 282.79 152.645ZM282.898 151.367L281.318 149.253L285.733 148.672L282.898 151.367Z" fill="#E1E1E1"/>
<path fill-rule="evenodd" clip-rule="evenodd" d="M273.411 143.948C273.546 143.997 273.746 144.046 273.959 143.987C274.355 143.877 274.443 143.489 274.466 143.345C274.498 143.149 274.49 142.917 274.468 142.686C274.421 142.215 274.295 141.603 274.136 140.956C273.814 139.654 273.335 138.126 272.992 137.117C272.901 136.85 272.61 136.707 272.342 136.798C272.075 136.889 271.931 137.179 272.022 137.447C272.36 138.441 272.83 139.938 273.142 141.201C273.298 141.836 273.41 142.391 273.449 142.787C273.449 142.79 273.45 142.794 273.45 142.798C273.276 142.67 273.07 142.492 272.842 142.276C272.293 141.755 271.678 141.068 271.194 140.49C270.978 140.233 270.821 139.925 270.728 139.591L270.038 137.109C269.963 136.836 269.68 136.677 269.408 136.753C269.136 136.828 268.976 137.11 269.052 137.383L269.742 139.865C269.871 140.329 270.092 140.77 270.409 141.148C270.905 141.739 271.548 142.459 272.137 143.019C272.43 143.297 272.725 143.549 272.991 143.726C273.124 143.814 273.267 143.895 273.411 143.948ZM273.784 142.993C273.784 142.993 273.783 142.992 273.78 142.992C273.783 142.993 273.785 142.993 273.784 142.993ZM273.453 143.196C273.449 143.206 273.448 143.212 273.448 143.213C273.449 143.213 273.45 143.208 273.453 143.196ZM271.436 137.233C271.679 137.089 271.76 136.776 271.616 136.532L270.136 134.029C269.992 133.786 269.678 133.705 269.435 133.849C269.191 133.993 269.111 134.307 269.254 134.55L270.735 137.053C270.879 137.297 271.193 137.377 271.436 137.233ZM265.429 137.037C267.284 137.027 268.757 135.473 268.667 133.62L268.645 133.162C268.564 131.497 267.073 130.259 265.421 130.487C264.521 130.611 263.668 130.05 263.424 129.175L263.397 129.077C263.231 128.48 263.362 127.839 263.749 127.355L265.362 125.337C266.195 125.094 266.327 123.963 265.564 123.537L262.318 121.724C262.071 121.587 261.759 121.675 261.621 121.922C261.483 122.169 261.572 122.48 261.818 122.618L264.983 124.385C264.822 124.447 264.679 124.552 264.57 124.688L262.95 126.716C262.357 127.457 262.157 128.437 262.411 129.351L262.438 129.449C262.819 130.818 264.153 131.695 265.561 131.501C266.617 131.356 267.571 132.147 267.622 133.212L267.644 133.67C267.706 134.94 266.696 136.006 265.424 136.013L262.267 136.029C261.884 136.031 261.517 135.951 261.195 135.784C260.636 135.493 260.003 135.126 259.528 134.771C259.288 134.592 259.11 134.431 259.002 134.3C258.958 134.246 258.935 134.209 258.924 134.188C258.952 134.134 259.038 134.018 259.271 133.86C259.536 133.68 259.887 133.513 260.234 133.378C260.838 133.143 261.242 132.482 261.053 131.8C260.906 131.272 260.441 130.907 259.907 130.87C259.287 130.826 258.538 130.751 257.936 130.644C257.633 130.589 257.386 130.53 257.218 130.469C257.173 130.453 257.14 130.439 257.115 130.428C257.022 130.137 256.88 129.624 256.751 129.138C256.635 128.706 256.64 128.264 256.779 127.866C256.973 127.311 257.238 126.663 257.548 126.093C257.867 125.507 258.199 125.069 258.503 124.86C259.5 124.178 260.81 123.516 261.339 123.272C261.595 123.153 261.707 122.849 261.588 122.593C261.47 122.336 261.166 122.224 260.909 122.343C260.356 122.599 258.988 123.288 257.925 124.016C257.412 124.367 256.984 124.987 256.648 125.604C256.304 126.238 256.018 126.94 255.813 127.528C255.597 128.144 255.6 128.798 255.761 129.402C255.905 129.942 256.078 130.565 256.182 130.865C256.253 131.071 256.409 131.195 256.51 131.261C256.621 131.333 256.749 131.389 256.872 131.433C257.12 131.522 257.432 131.593 257.756 131.651C258.41 131.768 259.199 131.846 259.835 131.891C259.949 131.899 260.039 131.976 260.066 132.074C260.099 132.192 260.033 132.357 259.863 132.424C259.48 132.573 259.049 132.772 258.695 133.014C258.372 133.234 257.976 133.579 257.901 134.059C257.842 134.431 258.047 134.75 258.212 134.95C258.395 135.173 258.647 135.391 258.915 135.591C259.454 135.994 260.142 136.391 260.723 136.693C261.21 136.946 261.745 137.056 262.273 137.053L265.429 137.037ZM257.062 130.398C257.062 130.398 257.064 130.4 257.067 130.402C257.064 130.4 257.062 130.398 257.062 130.398ZM271.83 133.516C272.108 133.461 272.289 133.192 272.234 132.915L271.69 130.142C271.491 129.125 270.549 128.426 269.518 128.531C268.817 128.602 268.271 127.936 268.477 127.263L269.757 123.086C269.84 122.816 269.688 122.529 269.418 122.446C269.147 122.364 268.861 122.516 268.778 122.786L267.498 126.963C267.078 128.336 268.192 129.694 269.621 129.549C270.126 129.498 270.588 129.84 270.686 130.339L271.23 133.112C271.284 133.389 271.553 133.57 271.83 133.516ZM268.222 117.587C266.176 118.456 265.822 121.205 267.581 122.564L268.207 121.754C267.067 120.874 267.297 119.092 268.622 118.529L270.824 117.593C271.072 117.488 271.483 117.305 271.719 116.908C271.832 116.717 271.929 116.461 271.911 116.165C271.892 115.857 271.751 115.567 271.495 115.32C271.291 115.124 270.967 115.131 270.771 115.334C270.575 115.538 270.581 115.862 270.785 116.058C270.881 116.15 270.888 116.208 270.889 116.229C270.891 116.261 270.881 116.314 270.839 116.386C270.792 116.464 270.684 116.54 270.424 116.651L268.222 117.587Z" fill="#E1E1E1"/>
<path fill-rule="evenodd" clip-rule="evenodd" d="M116.39 155.652C116.39 155.369 116.619 155.14 116.901 155.14H188.948C189.231 155.14 189.46 155.369 189.46 155.652C189.46 155.934 189.231 156.163 188.948 156.163H116.901C116.619 156.163 116.39 155.934 116.39 155.652Z" fill="#E1E1E1"/>
<path fill-rule="evenodd" clip-rule="evenodd" d="M227.665 156.163C227.665 155.88 227.894 155.651 228.177 155.651H254.585C254.868 155.651 255.097 155.88 255.097 156.163C255.097 156.445 254.868 156.675 254.585 156.675H228.177C227.894 156.675 227.665 156.445 227.665 156.163Z" fill="#E1E1E1"/>
</g>
<defs>
<clipPath id="clip0_124_999">
<rect width="396" height="236" fill="white" transform="translate(0.5)"/>
</clipPath>
</defs>
</svg>
