<svg width="147" height="200" viewBox="0 0 147 200" fill="none" xmlns="http://www.w3.org/2000/svg">
<path fill-rule="evenodd" clip-rule="evenodd" d="M118.215 174.359H7.15557C4.21495 174.359 1.83111 176.743 1.83111 179.684V198.669H123.539V179.684C123.539 176.743 121.156 174.359 118.215 174.359ZM7.15557 173.028C3.4798 173.028 0.5 176.008 0.5 179.684V200H124.871V179.684C124.871 176.008 121.891 173.028 118.215 173.028H7.15557Z" fill="#E1E1E1"/>
<path fill-rule="evenodd" clip-rule="evenodd" d="M19.7325 9.39058C19.8569 9.44208 19.9379 9.56343 19.9379 9.69802V173.403C19.9379 173.586 19.7889 173.735 19.6052 173.735C19.4214 173.735 19.2724 173.586 19.2724 173.403V10.5014L16.6979 13.0759C13.0159 16.7579 10.9473 21.7519 10.9473 26.9591V173.403C10.9473 173.586 10.7983 173.735 10.6145 173.735C10.4307 173.735 10.2817 173.586 10.2817 173.403V26.9591C10.2817 21.5754 12.4204 16.4121 16.2273 12.6052L19.3699 9.46271C19.465 9.36754 19.6082 9.33907 19.7325 9.39058Z" fill="#E1E1E1"/>
<path fill-rule="evenodd" clip-rule="evenodd" d="M106.013 8.64133C105.889 8.69271 105.807 8.8142 105.807 8.949V173.777C105.807 173.961 105.956 174.11 106.14 174.11C106.324 174.11 106.473 173.961 106.473 173.777V9.7563L109.095 12.3961C112.748 16.0743 114.798 21.0479 114.798 26.2319V173.777C114.798 173.961 114.947 174.11 115.131 174.11C115.315 174.11 115.464 173.961 115.464 173.777V26.2319C115.464 20.8722 113.344 15.73 109.567 11.9271L106.376 8.7145C106.281 8.61885 106.138 8.58996 106.013 8.64133Z" fill="#E1E1E1"/>
<path fill-rule="evenodd" clip-rule="evenodd" d="M26.2607 0.665557C22.7687 0.665557 19.9379 3.49637 19.9379 6.98835V10.0726C19.9379 10.2564 19.7889 10.4054 19.6051 10.4054C19.4213 10.4054 19.2723 10.2564 19.2723 10.0726V6.98835C19.2723 3.12879 22.4011 0 26.2607 0H99.4845C103.344 0 106.473 3.12879 106.473 6.98835V10.0726C106.473 10.2564 106.324 10.4054 106.14 10.4054C105.956 10.4054 105.807 10.2564 105.807 10.0726V6.98835C105.807 3.49637 102.976 0.665557 99.4845 0.665557H26.2607Z" fill="#E1E1E1"/>
<path fill-rule="evenodd" clip-rule="evenodd" d="M94.9854 10.3638H31.8836V53.2367H94.9854V10.3638ZM31.218 9.69824V53.9022H95.651V9.69824H31.218Z" fill="#E1E1E1"/>
<path fill-rule="evenodd" clip-rule="evenodd" d="M92.7378 12.6114H34.1313V50.9889H92.7378V12.6114ZM33.4657 11.9458V51.6545H93.4033V11.9458H33.4657Z" fill="#E1E1E1"/>
<path fill-rule="evenodd" clip-rule="evenodd" d="M68.0135 17.8555H39.3758V26.2642H68.0135V17.8555ZM38.7102 17.1899V26.9298H68.679V17.1899H38.7102Z" fill="#E1E1E1"/>
<path fill-rule="evenodd" clip-rule="evenodd" d="M68.0135 36.586H39.3758V44.9947H68.0135V36.586ZM38.7102 35.9204V45.6603H68.679V35.9204H38.7102Z" fill="#E1E1E1"/>
<path fill-rule="evenodd" clip-rule="evenodd" d="M87.4932 36.586H73.0907V44.9947H87.4932V36.586ZM72.4252 35.9204V45.6603H88.1588V35.9204H72.4252Z" fill="#E1E1E1"/>
<path fill-rule="evenodd" clip-rule="evenodd" d="M62.3107 148.388C79.5289 148.388 93.487 134.43 93.487 117.211C93.487 99.9933 79.5289 86.0352 62.3107 86.0352C45.0925 86.0352 31.1344 99.9933 31.1344 117.211C31.1344 134.43 45.0925 148.388 62.3107 148.388ZM62.3107 149.053C79.8965 149.053 94.1526 134.797 94.1526 117.211C94.1526 99.6257 79.8965 85.3696 62.3107 85.3696C44.725 85.3696 30.4689 99.6257 30.4689 117.211C30.4689 134.797 44.725 149.053 62.3107 149.053Z" fill="#E1E1E1"/>
<path fill-rule="evenodd" clip-rule="evenodd" d="M63.0609 91.0303C63.2138 91.0308 63.3467 91.1354 63.383 91.2839C65.1168 98.367 66.7916 102.278 71.1925 109.142C74.0692 112.37 76.1426 116.144 77.4513 119.488C78.1072 121.164 78.5728 122.736 78.851 124.084C79.1278 125.424 79.2239 126.565 79.1236 127.367C78.9342 128.883 78.364 132.316 76.2133 135.518C74.0524 138.736 70.3109 141.696 63.8383 142.267C57.3442 142.84 53.2092 140.158 50.6651 136.749C48.1357 133.361 47.1854 129.269 46.9945 126.979C46.6101 122.365 49.2746 115.228 54.7433 109.138C59.1913 102.613 60.8741 98.6871 62.7371 91.2819C62.7744 91.1336 62.908 91.0298 63.0609 91.0303ZM63.056 92.7128C61.2912 99.4014 59.523 103.311 55.2806 109.532C55.2723 109.544 55.2631 109.556 55.2531 109.567C49.8477 115.579 47.2934 122.551 47.6578 126.923C47.8416 129.129 48.7643 133.091 51.1985 136.351C53.6179 139.593 57.537 142.155 63.7798 141.604C70.0439 141.051 73.6073 138.205 75.6608 135.147C77.7245 132.075 78.2781 128.765 78.4632 127.284C78.5502 126.588 78.4702 125.531 78.1992 124.218C77.9295 122.912 77.4755 121.376 76.8315 119.73C75.543 116.438 73.5016 112.728 70.6784 109.566C70.6667 109.553 70.656 109.539 70.6465 109.524C66.4682 103.009 64.7081 99.103 63.056 92.7128Z" fill="#E1E1E1"/>
<path fill-rule="evenodd" clip-rule="evenodd" d="M55.0538 116.601C55.1551 116.703 55.1802 116.857 55.1161 116.986C53.0924 121.033 52.9997 124.711 53.2764 127.385C53.3823 128.409 53.5411 129.278 53.6688 129.978C53.7087 130.196 53.7456 130.398 53.7769 130.583C53.8403 130.958 53.8863 131.292 53.8701 131.537C53.8622 131.658 53.8371 131.807 53.7511 131.932C53.648 132.082 53.4894 132.154 53.32 132.154C52.9636 132.154 52.4866 132.011 51.9918 131.745C51.4892 131.475 50.9421 131.064 50.4466 130.494C49.4504 129.349 48.6735 127.575 48.8675 125.053C49.0624 122.519 50.3277 120.486 51.6211 119.049C52.9117 117.615 54.2558 116.746 54.6696 116.539C54.7978 116.475 54.9525 116.5 55.0538 116.601ZM52.1158 119.494C50.8805 120.867 49.7109 122.767 49.5311 125.104C49.3505 127.452 50.072 129.049 50.9489 130.057C51.3899 130.565 51.873 130.926 52.3069 131.159C52.6765 131.358 52.9928 131.454 53.2067 131.481C53.2146 131.324 53.1843 131.07 53.1207 130.694C53.0913 130.521 53.0558 130.326 53.0169 130.113C52.8888 129.412 52.7233 128.506 52.6144 127.454C52.3534 124.931 52.4104 121.523 54.0283 117.749C53.4871 118.152 52.7954 118.739 52.1158 119.494Z" fill="#E1E1E1"/>
<path fill-rule="evenodd" clip-rule="evenodd" d="M117.795 79.7501C117.795 78.2787 116.602 77.086 115.131 77.086V76.4204C116.97 76.4204 118.46 77.9111 118.46 79.7501V84.62C118.46 86.4589 116.97 87.9497 115.131 87.9497V87.2841C116.602 87.2841 117.795 86.0913 117.795 84.62V79.7501Z" fill="#E1E1E1"/>
<path fill-rule="evenodd" clip-rule="evenodd" d="M137.88 75.814C137.955 75.9207 137.96 76.061 137.894 76.1731C137.348 77.0989 136.843 77.8118 136.119 78.3304C135.444 78.8138 134.607 79.1085 133.434 79.2907C133.265 83.8439 133.449 90.846 133.679 97.5105C133.743 99.3884 133.812 101.24 133.877 103.001C134.047 107.608 134.194 111.6 134.194 113.84C134.194 119.211 135.716 124.528 137.695 129.486C139.042 132.858 140.589 136.041 142.009 138.961C142.681 140.342 143.324 141.665 143.903 142.92C146.186 147.867 146.657 154.503 145.093 160.192C143.527 165.884 139.899 170.7 133.924 171.856C127.502 173.1 123.081 170.8 120.092 167.565C117.119 164.349 115.566 160.217 114.813 157.767C114.759 157.591 114.857 157.405 115.033 157.351C115.209 157.297 115.395 157.396 115.449 157.571C116.194 159.992 117.711 164.008 120.581 167.114C123.434 170.201 127.63 172.397 133.798 171.203C139.437 170.112 142.925 165.563 144.451 160.016C145.977 154.467 145.511 147.992 143.299 143.199C142.73 141.966 142.093 140.657 141.425 139.282C140 136.351 138.432 133.126 137.077 129.733C135.083 124.739 133.528 119.332 133.528 113.84C133.528 111.613 133.382 107.642 133.212 103.043C133.147 101.278 133.079 99.4205 133.014 97.5334C132.78 90.7381 132.592 83.56 132.78 78.9874C132.786 78.8261 132.908 78.6928 133.068 78.6713C134.335 78.5004 135.128 78.2211 135.731 77.7893C136.186 77.4634 136.552 77.0377 136.933 76.4609C132.612 77.2008 129.935 77.2537 125.718 76.4375C126.164 77.5505 127.275 78.0448 128.751 78.6966C128.868 78.7484 128.945 78.8628 128.949 78.9908C129.199 87.1062 129.699 105.442 129.699 113.84C129.699 125.313 134.062 133.861 137.207 140.022C137.733 141.053 138.225 142.016 138.657 142.915C138.66 142.922 138.663 142.928 138.665 142.935C140.24 146.841 141.485 152.612 140.856 157.524C140.541 159.983 139.754 162.254 138.274 163.963C136.787 165.68 134.627 166.8 131.635 166.992C127.522 167.256 124.589 165.924 122.562 163.635C120.548 161.362 119.455 158.179 118.933 154.783C117.89 147.991 119.11 140.191 120.053 136.606C120.282 135.736 120.543 134.785 120.825 133.755C122.855 126.341 125.995 114.876 126.411 100.719C126.783 88.0741 121.206 81.857 117.992 80.429C117.824 80.3543 117.749 80.1577 117.824 79.9897C117.898 79.8218 118.095 79.7461 118.263 79.8208C121.793 81.3896 127.454 87.9093 127.076 100.738C126.657 114.98 123.496 126.522 121.466 133.934C121.185 134.962 120.925 135.91 120.697 136.776C119.767 140.308 118.567 148.01 119.591 154.682C120.103 158.017 121.166 161.056 123.06 163.194C124.939 165.315 127.666 166.58 131.592 166.328C134.427 166.146 136.413 165.095 137.771 163.527C139.136 161.95 139.891 159.82 140.196 157.44C140.805 152.678 139.597 147.03 138.052 143.194C137.628 142.312 137.143 141.362 136.623 140.343C133.477 134.185 129.033 125.486 129.033 113.84C129.033 105.526 128.542 87.4404 128.29 79.2209C126.76 78.5457 125.275 77.8684 124.919 76.0688C124.897 75.9595 124.932 75.8467 125.011 75.7681C125.09 75.6896 125.203 75.6558 125.312 75.6781C129.991 76.6343 132.664 76.5592 137.548 75.6767C137.676 75.6536 137.806 75.7072 137.88 75.814ZM117.839 85.2043C117.93 85.0448 118.133 84.9893 118.293 85.0805C119.72 85.896 120.782 87.6892 121.538 90.2869C122.297 92.8987 122.768 96.3936 122.955 100.714C123.145 105.072 121.852 111.734 120.23 118.411C119.184 122.716 117.993 127.057 116.962 130.815C116.393 132.889 115.873 134.785 115.453 136.4C115.406 136.578 115.225 136.685 115.047 136.638C114.869 136.592 114.762 136.41 114.809 136.233C115.233 134.601 115.756 132.697 116.326 130.619C117.355 126.869 118.539 122.553 119.583 118.254C121.208 111.567 122.475 104.993 122.29 100.743C122.104 96.4472 121.637 93.0119 120.899 90.4728C120.156 87.9196 119.158 86.3413 117.962 85.6584C117.803 85.5672 117.747 85.3639 117.839 85.2043Z" fill="#E1E1E1"/>
<path fill-rule="evenodd" clip-rule="evenodd" d="M136.399 35.0043C136.173 34.5025 135.665 33.8883 134.845 33.5941C133.993 33.2887 132.862 33.3481 131.452 34.1316C128.745 35.6356 124.566 38.2629 122.818 39.3871C122.787 39.4067 122.76 39.4311 122.737 39.4595C118.55 44.7081 116.893 48.265 114.812 55.3063C114.759 55.4826 114.86 55.6677 115.036 55.7198C115.213 55.7719 115.398 55.6712 115.45 55.495C117.507 48.5355 119.126 45.0608 123.224 39.9173C124.997 38.7781 129.111 36.1932 131.775 34.7134C133.062 33.9983 133.992 33.9953 134.62 34.2206C135.259 34.45 135.646 34.9367 135.803 35.3028C135.813 35.326 135.826 35.3481 135.841 35.3685C137.212 37.2393 139.345 40.2142 141.285 43.0574C143.232 45.9124 144.96 48.6013 145.545 49.9166C145.784 50.4547 145.685 51.0387 145.283 51.6788C144.877 52.3244 144.186 52.9838 143.337 53.6166C141.642 54.8794 139.404 55.9718 137.858 56.5901C137.732 56.6406 137.649 56.763 137.649 56.8991C137.649 60.387 137.798 68.2364 138.404 71.5684C138.697 73.1797 138.566 74.2039 138.319 74.8226C138.072 75.4427 137.717 75.6429 137.542 75.6779C137.362 75.7139 137.245 75.8892 137.281 76.0694C137.317 76.2497 137.492 76.3665 137.673 76.3305C138.122 76.2406 138.629 75.8414 138.937 75.0693C139.246 74.2956 139.365 73.1346 139.059 71.4493C138.478 68.256 138.321 60.7255 138.315 57.1231C139.88 56.4801 142.053 55.403 143.734 54.1503C144.611 53.497 145.377 52.7796 145.846 52.0329C146.319 51.2808 146.513 50.4569 146.153 49.6463C145.539 48.2644 143.771 45.5215 141.834 42.6824C139.9 39.8464 137.775 36.8812 136.399 35.0043ZM114.802 74.457C114.828 74.2752 114.998 74.1496 115.179 74.1766L125.294 75.675C125.476 75.7019 125.601 75.8711 125.574 76.053C125.547 76.2348 125.378 76.3603 125.196 76.3334L115.082 74.8349C114.9 74.808 114.775 74.6388 114.802 74.457Z" fill="#E1E1E1"/>
<path fill-rule="evenodd" clip-rule="evenodd" d="M124.888 51.8604C123.754 51.3894 122.447 51.2922 121.205 51.6025C120.992 51.6559 120.741 51.815 120.46 52.1091C120.182 52.4 119.894 52.8003 119.604 53.2936C119.022 54.28 118.45 55.5979 117.915 57.0511C116.848 59.9548 115.953 63.3485 115.456 65.587C115.416 65.7665 115.238 65.8796 115.059 65.8397C114.879 65.7998 114.766 65.6221 114.806 65.4427C115.307 63.1858 116.21 59.7617 117.291 56.8215C117.831 55.3527 118.419 53.9921 119.03 52.9556C119.336 52.4375 119.653 51.9902 119.979 51.649C120.303 51.3109 120.658 51.0533 121.044 50.9568C122.509 50.5905 124.061 50.734 125.387 51.3528C126.575 51.9076 127.582 52.8457 128.171 54.1386C128.339 54.5077 128.473 54.9046 128.567 55.3282C128.729 56.0594 128.704 57.1538 128.574 58.4105C128.443 59.6785 128.2 61.1504 127.904 62.6571C127.312 65.671 126.504 68.8454 125.94 70.8495C125.936 70.8635 125.931 70.8772 125.926 70.8905C125.72 71.3698 125.325 71.9729 124.774 72.4602C124.222 72.9491 123.491 73.3399 122.623 73.3399H122.616C121.681 73.3399 120.254 73.3399 118.822 73.1012C117.394 72.8633 115.906 72.3797 114.895 71.3694C114.765 71.2394 114.765 71.0287 114.895 70.8988C115.025 70.7688 115.236 70.7688 115.366 70.8988C116.229 71.7615 117.55 72.2144 118.932 72.4447C120.306 72.6737 121.684 72.6743 122.623 72.6743C123.282 72.6743 123.863 72.3784 124.333 71.9619C124.798 71.5507 125.134 71.0402 125.306 70.6478C125.865 68.6549 126.665 65.5103 127.251 62.5288C127.545 61.0323 127.784 59.5822 127.912 58.3419C128.042 57.0903 128.054 56.0899 127.917 55.4726C127.914 55.4589 127.911 55.4452 127.908 55.4316C127.334 57.4199 126.153 60.6946 124.402 63.4459C123.093 65.5025 122.053 67.1114 121.056 68.3463C120.054 69.5859 119.083 70.4667 117.902 71.0571C117.429 71.2937 117.024 71.3996 116.685 71.3578C116.316 71.3125 116.07 71.0993 115.936 70.819C115.811 70.559 115.785 70.2513 115.798 69.9749C115.811 69.6924 115.867 69.4075 115.935 69.1696C115.955 69.0998 115.997 69.0384 116.055 68.9948C117.537 67.8835 120.105 65.6774 121.57 62.3829C122.211 60.9401 122.987 58.8911 123.634 56.8761C124.244 54.9763 124.731 53.132 124.888 51.8604ZM125.518 52.171C125.326 53.4942 124.845 55.2833 124.268 57.0796C123.615 59.1131 122.83 61.1849 122.178 62.6532C120.676 66.0327 118.076 68.2989 116.546 69.4577C116.503 69.6313 116.471 69.8228 116.463 70.0058C116.452 70.2328 116.479 70.4136 116.536 70.5313C116.583 70.6287 116.646 70.6825 116.766 70.6972C116.915 70.7156 117.178 70.6748 117.604 70.4618C118.671 69.9284 119.572 69.1234 120.538 67.9281C121.507 66.7279 122.527 65.1527 123.841 63.0886C125.865 59.9072 127.117 55.9829 127.518 54.3131C127.066 53.3771 126.361 52.6581 125.518 52.171Z" fill="#E1E1E1"/>
<path fill-rule="evenodd" clip-rule="evenodd" d="M111.812 15.6071C111.859 15.4293 112.041 15.3232 112.219 15.3699C114.647 16.0089 120.58 18.6388 125.126 24.0947C125.131 24.1004 125.135 24.1061 125.14 24.1121L131.425 32.7557C132.279 32.8835 132.926 33.1492 133.297 33.3961C133.45 33.498 133.491 33.7046 133.389 33.8575C133.287 34.0105 133.08 34.0518 132.927 33.9498C132.639 33.7576 132.043 33.504 131.197 33.396C130.184 33.2667 128.827 33.348 127.242 33.9819C126.33 34.3465 125.642 34.8907 125.125 35.5046C124.032 36.8037 123.705 38.4213 123.705 39.2921C123.705 39.4759 123.556 39.6249 123.372 39.6249C123.188 39.6249 123.039 39.4759 123.039 39.2921C123.039 38.3394 123.373 36.6561 124.48 35.2438C124.135 34.5347 123.159 32.6603 120.836 28.5936C118.472 24.4569 115.694 22.984 114.684 22.7596C114.505 22.7197 114.391 22.5419 114.431 22.3625C114.471 22.1831 114.649 22.07 114.828 22.1099C116.066 22.385 118.982 24.009 121.413 28.2634C123.509 31.9301 124.516 33.829 124.956 34.7048C125.49 34.1672 126.161 33.6974 126.995 33.364C128.339 32.8261 129.545 32.6558 130.547 32.6806L124.608 24.5124C120.165 19.1853 114.365 16.623 112.049 16.0136C111.871 15.9668 111.765 15.7848 111.812 15.6071Z" fill="#E1E1E1"/>
</svg>
