<svg width="364" height="200" viewBox="0 0 364 200" fill="none" xmlns="http://www.w3.org/2000/svg">
<path fill-rule="evenodd" clip-rule="evenodd" d="M16.0731 43.4285C12.9836 43.4285 10.3737 45.7211 9.97555 48.7849L6.08117 78.7492H77.7826L72.3197 48.4851C71.7913 45.5578 69.2432 43.4285 66.2686 43.4285H52.5242V42.7812H66.2686C69.5563 42.7812 72.3726 45.1347 72.9566 48.3701L78.5572 79.3964H5.34436L9.3337 48.7015C9.77381 45.3152 12.6583 42.7812 16.0731 42.7812H29.5405V43.4285H16.0731Z" fill="#E1E1E1"/>
<path fill-rule="evenodd" clip-rule="evenodd" d="M77.427 94.9567C77.6054 94.9679 77.7409 95.1217 77.7296 95.3L72.1701 183.535C71.7297 190.525 65.9319 195.969 58.9278 195.969H24.7651C17.7299 195.969 11.9177 190.479 11.5179 183.455L6.5009 95.2981C6.49074 95.1196 6.62717 94.9667 6.80561 94.9566C6.98406 94.9464 7.13695 95.0829 7.1471 95.2613L12.1641 183.418C12.5444 190.099 18.0731 195.322 24.7651 195.322H58.9278C65.5902 195.322 71.1052 190.144 71.5241 183.494L77.0837 95.2593C77.0949 95.081 77.2486 94.9455 77.427 94.9567Z" fill="#E1E1E1"/>
<path fill-rule="evenodd" clip-rule="evenodd" d="M5.76868 181.367C5.76868 178.305 8.25043 175.824 11.3118 175.824V177.118C8.96536 177.118 7.06317 179.02 7.06317 181.367V193.403C7.06317 195.974 9.14803 198.059 11.7198 198.059H13.3518C15.0223 198.059 16.3765 196.705 16.3765 195.035H17.671C17.671 197.42 15.7372 199.354 13.3518 199.354H11.7198C8.4331 199.354 5.76868 196.689 5.76868 193.403V181.367Z" fill="#E1E1E1"/>
<path fill-rule="evenodd" clip-rule="evenodd" d="M78.6658 181.367C78.6658 178.305 76.184 175.824 73.1226 175.824V177.118C75.4691 177.118 77.3713 179.02 77.3713 181.367V193.403C77.3713 195.974 75.2864 198.059 72.7146 198.059H71.0827C69.4122 198.059 68.058 196.705 68.058 195.035H66.7635C66.7635 197.42 68.6972 199.354 71.0827 199.354H72.7146C76.0013 199.354 78.6658 196.689 78.6658 193.403V181.367Z" fill="#E1E1E1"/>
<path fill-rule="evenodd" clip-rule="evenodd" d="M72.324 94.9565C72.5025 94.9661 72.6394 95.1185 72.6299 95.297L67.9124 183.41C67.5353 190.453 61.7152 195.969 54.6628 195.969H29.5194C22.4405 195.969 16.6082 190.412 16.2663 183.342L12.0086 95.2953C11.9999 95.1168 12.1377 94.9651 12.3162 94.9564C12.4947 94.9478 12.6464 95.0855 12.6551 95.2641L16.9128 183.31C17.238 190.036 22.7858 195.322 29.5194 195.322H54.6628C61.3711 195.322 66.9074 190.074 67.2661 183.376L71.9835 95.2624C71.9931 95.0839 72.1455 94.947 72.324 94.9565Z" fill="#E1E1E1"/>
<path fill-rule="evenodd" clip-rule="evenodd" d="M77.2579 79.199H6.97249C3.7553 79.199 1.14725 81.8071 1.14725 85.0242V88.807C1.14725 92.0241 3.7553 94.6322 6.97249 94.6322H77.2579C80.4751 94.6322 83.0832 92.0242 83.0832 88.807V85.0242C83.0832 81.8071 80.4751 79.199 77.2579 79.199ZM6.97249 78.5518C3.39783 78.5518 0.5 81.4496 0.5 85.0242V88.807C0.5 92.3816 3.39783 95.2794 6.97249 95.2794H77.2579C80.8326 95.2794 83.7304 92.3816 83.7304 88.807V85.0242C83.7304 81.4496 80.8326 78.5518 77.2579 78.5518H6.97249Z" fill="#E1E1E1"/>
<path d="M24.2124 112.367H26.3362C27.0736 112.367 27.5877 112.249 27.8785 112.013C28.1734 111.777 28.3209 111.373 28.3209 110.8C28.3209 110.248 28.1755 109.851 27.8848 109.611C27.594 109.371 27.1094 109.251 26.431 109.251H24.2124V112.367ZM22.9482 117.417V108.107H26.3741C26.9303 108.107 27.3538 108.134 27.6446 108.189C27.9353 108.244 28.1945 108.334 28.422 108.461C28.8013 108.667 29.0921 108.973 29.2943 109.377C29.4966 109.782 29.5977 110.256 29.5977 110.8C29.5977 111.318 29.4966 111.775 29.2943 112.171C29.0921 112.567 28.7971 112.883 28.4094 113.119C28.1861 113.254 27.9227 113.351 27.6193 113.41C27.3201 113.465 26.825 113.492 26.1339 113.492H24.2124V117.417H22.9482Z" fill="#E1E1E1"/>
<path d="M31.8732 113.549H34.7744L33.3333 109.441L31.8732 113.549ZM29.1805 117.417L32.638 108.107H34.0349L37.505 117.417H36.1334L35.1474 114.636H31.4813L30.4889 117.417H29.1805Z" fill="#E1E1E1"/>
<path d="M39.7363 112.367H41.86C42.5975 112.367 43.1116 112.249 43.4023 112.013C43.6973 111.777 43.8448 111.373 43.8448 110.8C43.8448 110.248 43.6994 109.851 43.4086 109.611C43.1179 109.371 42.6333 109.251 41.9549 109.251H39.7363V112.367ZM38.4721 117.417V108.107H41.898C42.4542 108.107 42.8777 108.134 43.1685 108.189C43.4592 108.244 43.7184 108.334 43.9459 108.461C44.3252 108.667 44.6159 108.973 44.8182 109.377C45.0204 109.782 45.1216 110.256 45.1216 110.8C45.1216 111.318 45.0204 111.775 44.8182 112.171C44.6159 112.567 44.3209 112.883 43.9333 113.119C43.7099 113.254 43.4466 113.351 43.1432 113.41C42.844 113.465 42.3489 113.492 41.6578 113.492H39.7363V117.417H38.4721Z" fill="#E1E1E1"/>
<path d="M46.6259 117.417V108.107H53.2628V109.264H47.8774V112.045H52.8519V113.132H47.8774V116.254H53.3702V117.417H46.6259Z" fill="#E1E1E1"/>
<path d="M56.145 109.2V112.355H58.3067C59.0863 112.355 59.6362 112.228 59.9565 111.975C60.2809 111.722 60.4432 111.301 60.4432 110.711C60.4432 110.159 60.2915 109.769 59.9881 109.542C59.6847 109.314 59.1242 109.2 58.3067 109.2H56.145ZM54.9062 108.107H58.5153C59.1011 108.107 59.5309 108.132 59.8048 108.183C60.0829 108.233 60.3315 108.318 60.5506 108.436C60.9425 108.651 61.2396 108.95 61.4419 109.333C61.6483 109.717 61.7516 110.168 61.7516 110.686C61.7516 111.187 61.6441 111.617 61.4292 111.975C61.2143 112.329 60.8941 112.607 60.4685 112.81C60.8308 112.911 61.0879 113.081 61.2396 113.322C61.3955 113.562 61.4924 113.968 61.5303 114.541L61.6378 116.077C61.6589 116.406 61.701 116.653 61.7642 116.817C61.8316 116.977 61.9307 117.091 62.0613 117.158V117.417H60.6012C60.4832 117.224 60.401 116.809 60.3547 116.172V116.134L60.2788 114.921C60.2367 114.297 60.104 113.893 59.8806 113.707C59.6573 113.522 59.099 113.429 58.2056 113.429H56.1577V117.417H54.9062V108.107Z" fill="#E1E1E1"/>
<path fill-rule="evenodd" clip-rule="evenodd" d="M3.93262 186.232C3.93262 184.754 4.80277 183.416 6.15296 182.815L6.6787 183.998C5.79599 184.391 5.22712 185.266 5.22712 186.232V188.847C5.22712 189.787 5.73687 190.653 6.55878 191.11L6.73016 191.205C7.04265 191.379 7.15523 191.773 6.98163 192.085C6.80803 192.398 6.41398 192.51 6.1015 192.337L5.93012 192.241C4.69724 191.556 3.93262 190.257 3.93262 188.847V186.232Z" fill="#E1E1E1"/>
<path fill-rule="evenodd" clip-rule="evenodd" d="M80.502 186.232C80.502 184.754 79.6318 183.416 78.2816 182.815L77.7559 183.998C78.6386 184.391 79.2075 185.266 79.2075 186.232V188.847C79.2075 189.787 78.6977 190.653 77.8758 191.11L77.7044 191.205C77.3919 191.379 77.2793 191.773 77.4529 192.085C77.6265 192.398 78.0206 192.51 78.3331 192.337L78.5045 192.241C79.7373 191.556 80.502 190.257 80.502 188.847V186.232Z" fill="#E1E1E1"/>
<path fill-rule="evenodd" clip-rule="evenodd" d="M17.6719 51.2478C16.2107 51.2478 14.9757 52.3305 14.7844 53.7791L11.5069 78.5941C11.4835 78.7713 11.3209 78.896 11.1437 78.8726C10.9665 78.8492 10.8418 78.6866 10.8652 78.5094L14.1427 53.6943C14.3766 51.9238 15.886 50.6006 17.6719 50.6006H34.4805C34.6593 50.6006 34.8042 50.7455 34.8042 50.9242C34.8042 51.1029 34.6593 51.2478 34.4805 51.2478H17.6719ZM53.8024 50.9242C53.8024 50.7455 53.9473 50.6006 54.1261 50.6006H64.5896C66.2768 50.6006 67.7323 51.785 68.0751 53.437L73.274 78.486C73.3103 78.661 73.1979 78.8323 73.0229 78.8686C72.8479 78.905 72.6766 78.7925 72.6402 78.6175L67.4414 53.5686C67.1609 52.2169 65.97 51.2478 64.5896 51.2478H54.1261C53.9473 51.2478 53.8024 51.1029 53.8024 50.9242Z" fill="#E1E1E1"/>
<path fill-rule="evenodd" clip-rule="evenodd" d="M40.4037 61.6484C40.5245 61.5214 40.7246 61.5137 40.8548 61.6311L56.7537 75.9662C56.8196 76.0256 56.8582 76.1095 56.8605 76.1982C56.8628 76.2869 56.8286 76.3726 56.7658 76.4354L54.1595 79.0417C54.0331 79.1681 53.8282 79.1681 53.7018 79.0417C53.5754 78.9153 53.5754 78.7104 53.7018 78.5841L56.0672 76.2187L40.6554 62.3228L30.9385 72.5381L37.7255 78.571C37.8591 78.6898 37.8711 78.8943 37.7524 79.0279C37.6336 79.1615 37.4291 79.1735 37.2955 79.0548L30.2583 72.7995C30.1927 72.7412 30.1536 72.6588 30.1499 72.5712C30.1463 72.4835 30.1783 72.3981 30.2388 72.3346L40.4037 61.6484Z" fill="#E1E1E1"/>
<path fill-rule="evenodd" clip-rule="evenodd" d="M48.0492 41.3198C48.1716 41.1895 48.3764 41.1832 48.5066 41.3056L55.7161 48.0822C55.8425 48.201 55.8527 48.3983 55.7392 48.5296L48.6329 56.7507L50.5992 66.7608C50.6319 66.9273 50.5305 67.0908 50.3668 67.1354L47.4998 67.9173C47.3274 67.9644 47.1495 67.8627 47.1024 67.6903C47.0554 67.5178 47.1571 67.3399 47.3295 67.2929L49.9061 66.5902L47.1604 52.6124L26.9448 56.9082L29.695 70.4091H32.2977C32.4764 70.4091 32.6213 70.554 32.6213 70.7328C32.6213 70.9115 32.4764 71.0564 32.2977 71.0564H29.4307C29.2769 71.0564 29.1443 70.9481 29.1136 70.7974L26.2466 56.723C26.2111 56.5489 26.3226 56.3787 26.4964 56.3418L38.67 53.7549L29.9885 45.4238C29.8667 45.3069 29.8552 45.116 29.9621 44.9854L32.3079 42.1184C32.421 41.98 32.6249 41.9597 32.7633 42.0728C32.9016 42.186 32.922 42.3899 32.8088 42.5282L30.6524 45.1638L39.4353 53.5923L47.3474 51.911C47.4322 51.8929 47.5207 51.9097 47.593 51.9575C47.6654 52.0053 47.7155 52.0801 47.7322 52.1651L48.4745 55.9442L55.0466 48.3412L48.0633 41.7772C47.9331 41.6548 47.9268 41.45 48.0492 41.3198Z" fill="#E1E1E1"/>
<path fill-rule="evenodd" clip-rule="evenodd" d="M41.1389 22.0932C41.2269 21.9387 41.423 21.8841 41.5782 21.971L54.6101 29.2688C54.685 29.3108 54.7402 29.3809 54.7635 29.4636C54.7867 29.5462 54.7762 29.6348 54.7341 29.7097L44.048 48.7362C44.0056 48.8117 43.9347 48.8671 43.8511 48.8899C43.7676 48.9127 43.6784 48.9011 43.6034 48.8577L30.5716 41.2992C30.4178 41.21 30.3648 41.0135 30.4527 40.8591L41.1389 22.0932ZM41.5423 22.6927L31.1741 40.9004L43.6443 48.1331L54.0111 29.6753L41.5423 22.6927Z" fill="#E1E1E1"/>
<path fill-rule="evenodd" clip-rule="evenodd" d="M47.5865 4.25636C47.6616 4.30338 47.7141 4.37913 47.7318 4.46594L49.0132 10.7446L64.5693 24.3562C64.6357 24.4143 64.6755 24.497 64.6795 24.5851C64.6834 24.6732 64.6513 24.7592 64.5904 24.823L53.9043 36.0304C53.8411 36.0967 53.7529 36.133 53.6615 36.1306C53.57 36.1282 53.4839 36.0872 53.4243 36.0177L51.8605 34.1933C51.7442 34.0576 51.7599 33.8533 51.8956 33.7369C52.0313 33.6206 52.2356 33.6363 52.3519 33.772L53.6828 35.3247L63.8889 24.6209L47.6959 10.452L37.9731 20.6734C38.319 20.9881 38.7431 21.3745 39.1592 21.7544C39.9546 22.4806 40.7339 23.1952 40.867 23.3283C40.9934 23.4547 40.9934 23.6596 40.867 23.786C40.7406 23.9124 40.5357 23.9124 40.4093 23.786C40.2964 23.6731 39.6098 23.0426 38.855 22.3531C37.6596 22.6797 32.5661 23.9987 30.0329 24.6524C29.8615 24.6967 29.6864 24.595 29.6398 24.4242L25.7303 10.0892C25.7075 10.0055 25.7192 9.91624 25.7628 9.8413C25.8064 9.76635 25.8782 9.71204 25.9622 9.69053L47.3345 4.21715C47.4203 4.19517 47.5114 4.20934 47.5865 4.25636ZM38.2879 21.8356C37.9171 21.4975 37.5643 21.1764 37.2928 20.9296C37.2284 20.871 37.1903 20.7889 37.1871 20.7019C37.184 20.6149 37.216 20.5302 37.2761 20.4671L47.4409 9.78099C47.5605 9.65528 47.7579 9.64623 47.8885 9.76049L48.209 10.0409L47.1657 4.92852L26.4412 10.236L30.1803 23.9459C32.5669 23.3297 36.7044 22.2578 38.2879 21.8356Z" fill="#E1E1E1"/>
<path fill-rule="evenodd" clip-rule="evenodd" d="M107.982 44.0764C104.893 44.0764 102.283 46.369 101.885 49.4328L97.9905 79.3971H169.692L164.229 49.133C163.701 46.2057 161.152 44.0764 158.178 44.0764H144.434V43.4292H158.178C161.466 43.4292 164.282 45.7826 164.866 49.0181L170.466 80.0444H97.2537L101.243 49.3494C101.683 45.9631 104.568 43.4292 107.982 43.4292H121.45V44.0764H107.982Z" fill="#E1E1E1"/>
<path fill-rule="evenodd" clip-rule="evenodd" d="M169.336 95.6037C169.515 95.6149 169.65 95.7686 169.639 95.947L164.079 184.182C163.639 191.172 157.841 196.616 150.837 196.616H116.674C109.639 196.616 103.827 191.126 103.427 184.102L98.4102 95.9451C98.4 95.7666 98.5365 95.6137 98.7149 95.6036C98.8934 95.5934 99.0462 95.7298 99.0564 95.9083L104.073 184.065C104.454 190.746 109.982 195.969 116.674 195.969H150.837C157.5 195.969 163.014 190.791 163.433 184.141L168.993 95.9063C169.004 95.7279 169.158 95.5924 169.336 95.6037Z" fill="#E1E1E1"/>
<path fill-rule="evenodd" clip-rule="evenodd" d="M97.6781 182.013C97.6781 178.951 100.16 176.47 103.221 176.47V177.764C100.875 177.764 98.9726 179.666 98.9726 182.013V194.049C98.9726 196.62 101.057 198.705 103.629 198.705H105.261C106.932 198.705 108.286 197.351 108.286 195.681H109.58C109.58 198.066 107.647 200 105.261 200H103.629C100.343 200 97.6781 197.335 97.6781 194.049V182.013Z" fill="#E1E1E1"/>
<path fill-rule="evenodd" clip-rule="evenodd" d="M170.575 182.013C170.575 178.951 168.093 176.47 165.032 176.47V177.764C167.378 177.764 169.281 179.666 169.281 182.013V194.049C169.281 196.62 167.196 198.705 164.624 198.705H162.992C161.321 198.705 159.967 197.351 159.967 195.681H158.673C158.673 198.066 160.607 200 162.992 200H164.624C167.911 200 170.575 197.335 170.575 194.049V182.013Z" fill="#E1E1E1"/>
<path fill-rule="evenodd" clip-rule="evenodd" d="M164.233 95.6035C164.412 95.6131 164.549 95.7655 164.539 95.944L159.822 184.057C159.445 191.099 153.624 196.616 146.572 196.616H121.429C114.35 196.616 108.517 191.059 108.176 183.989L103.918 95.9423C103.909 95.7638 104.047 95.612 104.225 95.6034C104.404 95.5948 104.556 95.7325 104.564 95.911L108.822 183.957C109.147 190.683 114.695 195.969 121.429 195.969H146.572C153.28 195.969 158.817 190.721 159.175 184.023L163.893 95.9094C163.902 95.7309 164.055 95.5939 164.233 95.6035Z" fill="#E1E1E1"/>
<path fill-rule="evenodd" clip-rule="evenodd" d="M169.167 79.846H98.8818C95.6646 79.846 93.0566 82.454 93.0566 85.6712V89.4539C93.0566 92.6711 95.6646 95.2792 98.8818 95.2792H169.167C172.384 95.2792 174.992 92.6711 174.992 89.4539V85.6712C174.992 82.454 172.384 79.846 169.167 79.846ZM98.8818 79.1987C95.3071 79.1987 92.4093 82.0966 92.4093 85.6712V89.4539C92.4093 93.0286 95.3071 95.9264 98.8818 95.9264H169.167C172.742 95.9264 175.64 93.0286 175.64 89.4539V85.6712C175.64 82.0966 172.742 79.1987 169.167 79.1987H98.8818Z" fill="#E1E1E1"/>
<path d="M121.071 116.819C120.692 117.321 120.241 117.698 119.718 117.951C119.196 118.199 118.602 118.324 117.936 118.324C116.676 118.324 115.654 117.875 114.87 116.977C114.091 116.075 113.701 114.893 113.701 113.431C113.701 111.91 114.105 110.711 114.915 109.835C115.724 108.954 116.821 108.514 118.208 108.514C119.27 108.514 120.135 108.783 120.805 109.323C121.476 109.858 121.878 110.606 122.013 111.567H120.78C120.666 110.939 120.384 110.454 119.933 110.113C119.487 109.772 118.911 109.601 118.208 109.601C117.192 109.601 116.404 109.932 115.844 110.593C115.287 111.251 115.009 112.18 115.009 113.381C115.009 114.569 115.285 115.498 115.837 116.168C116.389 116.838 117.15 117.173 118.119 117.173C118.996 117.173 119.695 116.906 120.218 116.37C120.74 115.835 121.001 115.115 121.001 114.209V114.089H118.088V113.039H122.171V118.064H121.343L121.071 116.819Z" fill="#E1E1E1"/>
<path d="M124.004 118.064V108.754H125.281V116.889H129.92V118.064H124.004Z" fill="#E1E1E1"/>
<path d="M132.587 114.196H135.489L134.048 110.088L132.587 114.196ZM129.895 118.064L133.352 108.754H134.749L138.219 118.064H136.848L135.862 115.283H132.196L131.203 118.064H129.895Z" fill="#E1E1E1"/>
<path d="M138.757 114.999H139.976C139.989 115.673 140.212 116.21 140.646 116.611C141.085 117.011 141.668 117.211 142.397 117.211C143.118 117.211 143.685 117.059 144.098 116.756C144.515 116.453 144.723 116.04 144.723 115.517C144.723 114.805 143.944 114.263 142.385 113.893C142.292 113.872 142.22 113.855 142.17 113.842C140.906 113.543 140.069 113.21 139.66 112.843C139.256 112.473 139.054 111.948 139.054 111.27C139.054 110.439 139.357 109.774 139.964 109.272C140.571 108.767 141.378 108.514 142.385 108.514C143.413 108.514 144.222 108.779 144.812 109.31C145.402 109.837 145.701 110.562 145.709 111.484L144.502 111.491C144.46 110.867 144.247 110.389 143.864 110.056C143.484 109.723 142.964 109.557 142.303 109.557C141.683 109.557 141.188 109.694 140.817 109.967C140.446 110.237 140.261 110.597 140.261 111.048C140.261 111.769 141.028 112.306 142.562 112.66C142.789 112.715 142.964 112.757 143.086 112.787L143.219 112.818C144.222 113.058 144.888 113.317 145.216 113.596C145.465 113.806 145.655 114.063 145.785 114.367C145.916 114.666 145.981 115.001 145.981 115.372C145.981 116.269 145.659 116.984 145.014 117.514C144.374 118.045 143.506 118.311 142.41 118.311C141.281 118.311 140.4 118.026 139.768 117.458C139.14 116.885 138.803 116.065 138.757 114.999Z" fill="#E1E1E1"/>
<path d="M147.365 114.999H148.585C148.598 115.673 148.821 116.21 149.255 116.611C149.694 117.011 150.277 117.211 151.006 117.211C151.727 117.211 152.294 117.059 152.707 116.756C153.124 116.453 153.332 116.04 153.332 115.517C153.332 114.805 152.553 114.263 150.994 113.893C150.901 113.872 150.829 113.855 150.779 113.842C149.515 113.543 148.678 113.21 148.269 112.843C147.865 112.473 147.663 111.948 147.663 111.27C147.663 110.439 147.966 109.774 148.573 109.272C149.18 108.767 149.986 108.514 150.994 108.514C152.022 108.514 152.831 108.779 153.421 109.31C154.011 109.837 154.31 110.562 154.318 111.484L153.111 111.491C153.069 110.867 152.856 110.389 152.473 110.056C152.093 109.723 151.573 109.557 150.911 109.557C150.292 109.557 149.797 109.694 149.426 109.967C149.055 110.237 148.87 110.597 148.87 111.048C148.87 111.769 149.637 112.306 151.171 112.66C151.398 112.715 151.573 112.757 151.695 112.787L151.828 112.818C152.831 113.058 153.497 113.317 153.825 113.596C154.074 113.806 154.264 114.063 154.394 114.367C154.525 114.666 154.59 115.001 154.59 115.372C154.59 116.269 154.268 116.984 153.623 117.514C152.983 118.045 152.114 118.311 151.019 118.311C149.89 118.311 149.009 118.026 148.377 117.458C147.749 116.885 147.412 116.065 147.365 114.999Z" fill="#E1E1E1"/>
<path fill-rule="evenodd" clip-rule="evenodd" d="M95.842 186.878C95.842 185.401 96.7122 184.062 98.0624 183.462L98.5881 184.645C97.7054 185.037 97.1365 185.913 97.1365 186.878V189.493C97.1365 190.433 97.6463 191.3 98.4682 191.756L98.6396 191.851C98.9521 192.025 99.0647 192.419 98.8911 192.732C98.7175 193.044 98.3234 193.157 98.0109 192.983L97.8395 192.888C96.6067 192.203 95.842 190.903 95.842 189.493V186.878Z" fill="#E1E1E1"/>
<path fill-rule="evenodd" clip-rule="evenodd" d="M172.411 186.878C172.411 185.401 171.541 184.062 170.191 183.462L169.665 184.645C170.548 185.037 171.117 185.913 171.117 186.878V189.493C171.117 190.433 170.607 191.3 169.785 191.756L169.614 191.851C169.301 192.025 169.189 192.419 169.362 192.732C169.536 193.044 169.93 193.157 170.242 192.983L170.414 192.888C171.647 192.203 172.411 190.903 172.411 189.493V186.878Z" fill="#E1E1E1"/>
<path fill-rule="evenodd" clip-rule="evenodd" d="M109.581 51.8948C108.12 51.8948 106.885 52.9775 106.694 54.4261L103.416 79.2411C103.393 79.4183 103.23 79.543 103.053 79.5196C102.876 79.4962 102.751 79.3336 102.775 79.1564L106.052 54.3413C106.286 52.5708 107.795 51.2476 109.581 51.2476H126.39C126.569 51.2476 126.714 51.3925 126.714 51.5712C126.714 51.7499 126.569 51.8948 126.39 51.8948H109.581ZM145.712 51.5712C145.712 51.3925 145.857 51.2476 146.035 51.2476H156.499C158.186 51.2476 159.642 52.432 159.985 54.084L165.183 79.133C165.22 79.308 165.107 79.4793 164.932 79.5156C164.757 79.5519 164.586 79.4395 164.55 79.2645L159.351 54.2155C159.07 52.8639 157.879 51.8948 156.499 51.8948H146.035C145.857 51.8948 145.712 51.7499 145.712 51.5712Z" fill="#E1E1E1"/>
<path fill-rule="evenodd" clip-rule="evenodd" d="M295.685 43.0423C292.595 43.0423 289.985 45.3348 289.587 48.3986L285.693 78.3629H357.394L351.931 48.0989C351.403 45.1716 348.855 43.0423 345.88 43.0423H335.967V42.395H345.88C349.168 42.395 351.984 44.7485 352.568 47.9839L358.169 79.0102H284.956L288.945 48.3152C289.386 44.9289 292.27 42.395 295.685 42.395H309.152V43.0423H295.685Z" fill="#E1E1E1"/>
<path fill-rule="evenodd" clip-rule="evenodd" d="M357.039 94.5695C357.217 94.5807 357.353 94.7345 357.341 94.9128L351.782 183.148C351.341 190.138 345.544 195.582 338.54 195.582H304.377C297.342 195.582 291.529 190.091 291.13 183.068L286.113 94.9109C286.103 94.7324 286.239 94.5795 286.417 94.5694C286.596 94.5592 286.749 94.6957 286.759 94.8741L291.776 183.031C292.156 189.712 297.685 194.935 304.377 194.935H338.54C345.202 194.935 350.717 189.757 351.136 183.107L356.695 94.8721C356.707 94.6938 356.86 94.5583 357.039 94.5695Z" fill="#E1E1E1"/>
<path fill-rule="evenodd" clip-rule="evenodd" d="M285.38 180.978C285.38 177.917 287.862 175.435 290.924 175.435V176.73C288.577 176.73 286.675 178.632 286.675 180.978V193.014C286.675 195.586 288.76 197.671 291.332 197.671H292.963C294.634 197.671 295.988 196.316 295.988 194.646H297.283C297.283 197.031 295.349 198.965 292.963 198.965H291.332C288.045 198.965 285.38 196.301 285.38 193.014V180.978Z" fill="#E1E1E1"/>
<path fill-rule="evenodd" clip-rule="evenodd" d="M358.277 180.978C358.277 177.917 355.796 175.435 352.734 175.435V176.73C355.081 176.73 356.983 178.632 356.983 180.978V193.014C356.983 195.586 354.898 197.671 352.326 197.671H350.694C349.024 197.671 347.67 196.316 347.67 194.646H346.375C346.375 197.031 348.309 198.965 350.694 198.965H352.326C355.613 198.965 358.277 196.301 358.277 193.014V180.978Z" fill="#E1E1E1"/>
<path fill-rule="evenodd" clip-rule="evenodd" d="M351.936 94.5693C352.114 94.5789 352.251 94.7313 352.242 94.9098L347.524 183.023C347.147 190.065 341.327 195.582 334.275 195.582H309.131C302.052 195.582 296.22 190.025 295.878 182.955L291.62 94.9081C291.612 94.7296 291.749 94.5779 291.928 94.5692C292.107 94.5606 292.258 94.6983 292.267 94.8768L296.525 182.923C296.85 189.649 302.398 194.935 309.131 194.935H334.275C340.983 194.935 346.519 189.687 346.878 182.988L351.595 94.8752C351.605 94.6967 351.757 94.5598 351.936 94.5693Z" fill="#E1E1E1"/>
<path fill-rule="evenodd" clip-rule="evenodd" d="M356.87 78.8123H286.584C283.367 78.8123 280.759 81.4203 280.759 84.6375V88.4202C280.759 91.6374 283.367 94.2455 286.584 94.2455H356.87C360.087 94.2455 362.695 91.6374 362.695 88.4202V84.6375C362.695 81.4203 360.087 78.8123 356.87 78.8123ZM286.584 78.165C283.009 78.165 280.112 81.0629 280.112 84.6375V88.4202C280.112 91.9949 283.009 94.8927 286.584 94.8927H356.87C360.444 94.8927 363.342 91.9949 363.342 88.4202V84.6375C363.342 81.0629 360.444 78.165 356.87 78.165H286.584Z" fill="#E1E1E1"/>
<path d="M296.354 112.102H298.477C299.215 112.102 299.729 111.984 300.02 111.748C300.315 111.513 300.462 111.108 300.462 110.535C300.462 109.983 300.317 109.587 300.026 109.347C299.735 109.106 299.251 108.986 298.572 108.986H296.354V112.102ZM295.089 117.153V107.842H298.515C299.071 107.842 299.495 107.87 299.786 107.924C300.076 107.979 300.336 108.07 300.563 108.196C300.942 108.403 301.233 108.708 301.435 109.113C301.638 109.517 301.739 109.991 301.739 110.535C301.739 111.053 301.638 111.51 301.435 111.907C301.233 112.303 300.938 112.619 300.551 112.855C300.327 112.989 300.064 113.086 299.76 113.145C299.461 113.2 298.966 113.228 298.275 113.228H296.354V117.153H295.089Z" fill="#E1E1E1"/>
<path d="M303.89 117.153V107.842H305.167V115.977H309.807V117.153H303.89Z" fill="#E1E1E1"/>
<path d="M313.121 113.284H316.023L314.581 109.176L313.121 113.284ZM310.429 117.153L313.886 107.842H315.283L318.753 117.153H317.382L316.395 114.372H312.729L311.737 117.153H310.429Z" fill="#E1E1E1"/>
<path d="M319.938 114.087H321.158C321.17 114.761 321.394 115.299 321.828 115.699C322.266 116.099 322.849 116.299 323.578 116.299C324.299 116.299 324.866 116.148 325.279 115.844C325.696 115.541 325.904 115.128 325.904 114.605C325.904 113.893 325.125 113.352 323.566 112.981C323.473 112.96 323.401 112.943 323.351 112.93C322.087 112.631 321.25 112.298 320.842 111.932C320.437 111.561 320.235 111.036 320.235 110.358C320.235 109.528 320.538 108.862 321.145 108.361C321.752 107.855 322.559 107.602 323.566 107.602C324.594 107.602 325.403 107.868 325.993 108.398C326.583 108.925 326.882 109.65 326.891 110.573L325.683 110.579C325.641 109.955 325.428 109.477 325.045 109.144C324.666 108.811 324.145 108.645 323.484 108.645C322.864 108.645 322.369 108.782 321.998 109.056C321.627 109.326 321.442 109.686 321.442 110.137C321.442 110.857 322.209 111.395 323.743 111.748C323.97 111.803 324.145 111.845 324.267 111.875L324.4 111.907C325.403 112.147 326.069 112.406 326.397 112.684C326.646 112.895 326.836 113.152 326.966 113.455C327.097 113.754 327.162 114.089 327.162 114.46C327.162 115.358 326.84 116.072 326.195 116.603C325.555 117.134 324.687 117.399 323.591 117.399C322.462 117.399 321.581 117.115 320.949 116.546C320.321 115.973 319.984 115.153 319.938 114.087Z" fill="#E1E1E1"/>
<path d="M331.438 117.153V108.974H328.499V107.842H335.647V108.974H332.708V117.153H331.438Z" fill="#E1E1E1"/>
<path d="M337.451 117.153V107.842H338.715V117.153H337.451Z" fill="#E1E1E1"/>
<path d="M347.908 113.695H349.135C349.08 114.829 348.692 115.733 347.972 116.407C347.255 117.077 346.328 117.412 345.19 117.412C343.88 117.412 342.852 116.965 342.106 116.072C341.364 115.179 340.993 113.942 340.993 112.362C340.993 110.904 341.383 109.747 342.163 108.891C342.942 108.032 343.994 107.602 345.317 107.602C346.37 107.602 347.232 107.874 347.902 108.417C348.576 108.961 348.966 109.703 349.071 110.642H347.833C347.715 110.027 347.434 109.555 346.992 109.226C346.549 108.894 345.974 108.727 345.266 108.727C344.322 108.727 343.589 109.058 343.067 109.72C342.548 110.381 342.289 111.314 342.289 112.52C342.289 113.657 342.559 114.57 343.098 115.257C343.642 115.943 344.36 116.287 345.254 116.287C346.016 116.287 346.64 116.051 347.125 115.579C347.613 115.103 347.875 114.475 347.908 113.695Z" fill="#E1E1E1"/>
<path fill-rule="evenodd" clip-rule="evenodd" d="M283.544 185.843C283.544 184.366 284.415 183.027 285.765 182.427L286.291 183.61C285.408 184.002 284.839 184.877 284.839 185.843V188.458C284.839 189.398 285.349 190.264 286.171 190.721L286.342 190.816C286.654 190.99 286.767 191.384 286.593 191.696C286.42 192.009 286.026 192.121 285.713 191.948L285.542 191.853C284.309 191.168 283.544 189.868 283.544 188.458V185.843Z" fill="#E1E1E1"/>
<path fill-rule="evenodd" clip-rule="evenodd" d="M360.114 185.843C360.114 184.366 359.243 183.027 357.893 182.427L357.368 183.61C358.25 184.002 358.819 184.877 358.819 185.843V188.458C358.819 189.398 358.309 190.264 357.487 190.721L357.316 190.816C357.004 190.99 356.891 191.384 357.065 191.696C357.238 192.009 357.632 192.121 357.945 191.948L358.116 191.853C359.349 191.168 360.114 189.868 360.114 188.458V185.843Z" fill="#E1E1E1"/>
<path fill-rule="evenodd" clip-rule="evenodd" d="M297.284 50.8611C295.823 50.8611 294.588 51.9438 294.396 53.3924L291.119 78.2074C291.095 78.3846 290.933 78.5093 290.756 78.4859C290.578 78.4625 290.454 78.2999 290.477 78.1227L293.755 53.3076C293.988 51.5371 295.498 50.2139 297.284 50.2139H310.533C310.711 50.2139 310.856 50.3588 310.856 50.5375C310.856 50.7162 310.711 50.8611 310.533 50.8611H297.284ZM333.414 50.5375C333.414 50.3588 333.559 50.2139 333.738 50.2139H344.201C345.889 50.2139 347.344 51.3983 347.687 53.0503L352.886 78.0993C352.922 78.2743 352.81 78.4456 352.635 78.4819C352.46 78.5182 352.288 78.4058 352.252 78.2308L347.053 53.1818C346.773 51.8302 345.582 50.8611 344.201 50.8611H333.738C333.559 50.8611 333.414 50.7162 333.414 50.5375Z" fill="#E1E1E1"/>
<path fill-rule="evenodd" clip-rule="evenodd" d="M145.366 67.2717C145.413 67.4442 145.311 67.622 145.138 67.6689L137.027 69.872C136.855 69.9189 136.677 69.817 136.63 69.6446L135.116 64.0683C135.069 63.8958 135.171 63.718 135.343 63.6711L136.516 63.3526L131.373 50.2458L125.622 45.895C125.565 45.8518 125.524 45.7909 125.505 45.7217L123.646 38.8781C123.614 38.7598 123.652 38.6335 123.743 38.5519L124.908 37.5116L118.932 15.5091L117.665 14.5841C117.606 14.5407 117.563 14.4785 117.544 14.4076L116.167 9.33822C116.152 9.28596 116.152 9.23098 116.164 9.17832C116.453 7.96747 118.262 5.33763 123.077 3.58864C127.929 1.82651 132.011 3.00864 133.484 3.85271C133.559 3.89537 133.613 3.96587 133.636 4.0487L135.151 9.62498C135.173 9.70781 135.162 9.79618 135.119 9.87066L134.263 11.3659L140.238 33.3649L141.536 33.7312C141.645 33.7621 141.73 33.8481 141.76 33.9578L143.206 39.2807C143.249 39.439 143.167 39.6045 143.014 39.6657C140.929 40.5043 137.839 41.7518 135.347 42.7689C134.129 43.2659 133.055 43.7076 132.31 44.0195C132.372 44.0329 132.435 44.047 132.499 44.0617C133.171 44.2147 134.035 44.4427 134.962 44.7022C136.817 45.2213 138.943 45.8708 140.335 46.3106C140.453 46.3479 140.539 46.4492 140.557 46.5717L142.792 61.6479L143.454 61.468C143.626 61.4211 143.804 61.523 143.851 61.6954L145.366 67.2717ZM144.656 67.1291L143.311 62.1774L142.61 62.368C142.521 62.3922 142.425 62.3771 142.348 62.3265C142.27 62.2759 142.218 62.1946 142.205 62.1031L139.947 46.8669C138.561 46.4309 136.55 45.8187 134.788 45.3255C133.864 45.067 133.012 44.8423 132.356 44.6928C132.027 44.6179 131.752 44.5631 131.544 44.532C131.44 44.5165 131.358 44.5077 131.296 44.5047C131.242 44.502 131.221 44.505 131.221 44.5046C131.221 44.5045 131.222 44.5042 131.225 44.5034C131.212 44.5068 131.193 44.5117 131.173 44.5152C131.164 44.5168 131.144 44.52 131.12 44.5205C131.108 44.5208 131.086 44.5208 131.06 44.5167C131.039 44.5134 130.986 44.5034 130.929 44.466C130.861 44.4205 130.794 44.3365 130.786 44.2201C130.778 44.1242 130.815 44.0548 130.831 44.0277C130.863 43.976 130.901 43.9454 130.909 43.9391L130.91 43.9385C130.934 43.9194 130.958 43.9059 130.967 43.9008C131.01 43.8765 131.083 43.8425 131.167 43.8047C131.345 43.7249 131.635 43.6011 132.008 43.4442C132.757 43.13 133.856 42.6784 135.102 42.1696C137.492 41.1945 140.429 40.0081 142.506 39.1726L141.184 34.3043L139.886 33.938C139.777 33.9071 139.691 33.8211 139.662 33.7114L133.603 11.4062C133.58 11.3234 133.592 11.235 133.634 11.1605L134.491 9.66529L133.047 4.3507C131.627 3.59666 127.83 2.5511 123.298 4.19701C118.725 5.85803 117.1 8.27397 116.814 9.25231L118.139 14.1284L119.405 15.0533C119.464 15.0967 119.507 15.1589 119.526 15.2298L125.585 37.535C125.617 37.6533 125.58 37.7796 125.488 37.8612L124.323 38.9015L126.101 45.4455L131.836 49.7847C131.884 49.8206 131.921 49.869 131.942 49.9245L137.25 63.4522C137.284 63.5377 137.279 63.6336 137.238 63.7157C137.197 63.7979 137.122 63.8586 137.034 63.8827L135.825 64.2109L137.17 69.1626L144.656 67.1291Z" fill="#E1E1E1"/>
<path fill-rule="evenodd" clip-rule="evenodd" d="M139.102 46.4467C138.929 46.4935 138.751 46.3917 138.704 46.2192C138.595 45.8179 138.609 45.2864 138.678 44.7676C138.748 44.2398 138.88 43.6861 139.035 43.2217C139.128 42.9429 139.34 42.619 139.585 42.2956C139.836 41.9641 140.146 41.602 140.464 41.2426C140.625 41.06 140.787 40.879 140.946 40.7027C141.422 40.1715 141.862 39.6819 142.123 39.3154C142.227 39.1699 142.429 39.1362 142.575 39.24C142.72 39.3438 142.754 39.5459 142.65 39.6914C142.366 40.0902 141.888 40.6218 141.404 41.1614C141.251 41.3319 141.097 41.5031 140.948 41.6712C140.633 42.0281 140.336 42.3752 140.101 42.6861C139.86 43.005 139.706 43.2566 139.649 43.427C139.506 43.8537 139.384 44.3671 139.32 44.8525C139.254 45.347 139.254 45.7749 139.329 46.0495C139.376 46.222 139.274 46.3998 139.102 46.4467Z" fill="#E1E1E1"/>
<path fill-rule="evenodd" clip-rule="evenodd" d="M122.737 19.8011L125.904 31.4606C126.685 34.3354 129.648 36.0328 132.523 35.2519C135.397 34.471 137.095 31.5076 136.314 28.6329L133.147 16.9734C132.366 14.0987 129.403 12.4013 126.528 13.1821C123.653 13.963 121.956 16.9264 122.737 19.8011ZM132.692 35.8765C135.912 35.0019 137.813 31.6829 136.939 28.4632L133.771 16.8037C132.897 13.584 129.578 11.6829 126.358 12.5575C123.139 13.4321 121.237 16.7511 122.112 19.9708L125.279 31.6303C126.154 34.85 129.473 36.7511 132.692 35.8765Z" fill="#E1E1E1"/>
<path fill-rule="evenodd" clip-rule="evenodd" d="M135.986 25.7287C136.033 25.9012 135.931 26.079 135.759 26.1259L124.86 29.0864C124.687 29.1332 124.51 29.0314 124.463 28.8589C124.416 28.6864 124.518 28.5086 124.69 28.4618L135.589 25.5012C135.762 25.4544 135.94 25.5562 135.986 25.7287ZM134.084 16.7197C134.131 16.8921 134.029 17.0699 133.856 17.1168L122.45 20.215C122.278 20.2619 122.1 20.16 122.053 19.9876C122.006 19.8151 122.108 19.6373 122.281 19.5904L133.687 16.4922C133.859 16.4453 134.037 16.5472 134.084 16.7197Z" fill="#E1E1E1"/>
<path fill-rule="evenodd" clip-rule="evenodd" d="M141.121 58.668C141.144 58.8299 141.043 58.9839 140.885 59.0267L137.083 60.0595C136.928 60.1016 136.766 60.0236 136.702 59.8763L132.358 49.8973C132.321 49.8111 132.323 49.7128 132.363 49.6281C132.404 49.5433 132.479 49.4804 132.57 49.4558L139.16 47.6657C139.25 47.6414 139.345 47.6566 139.423 47.7075C139.5 47.7583 139.552 47.8399 139.565 47.9316L141.121 58.668ZM140.439 58.4772L139.546 52.3141L134.69 53.6331L137.184 59.3615L140.439 58.4772ZM134.429 53.0334L139.453 51.6688L138.977 48.3861L133.101 49.9823L134.429 53.0334Z" fill="#E1E1E1"/>
<path fill-rule="evenodd" clip-rule="evenodd" d="M107.187 79.6248C107.014 79.5816 106.908 79.4059 106.952 79.2325L108.818 71.7443C108.829 71.7027 108.847 71.6636 108.873 71.6292L118.777 58.3328C118.805 58.2952 118.84 58.2642 118.882 58.2418C119.424 57.9467 120.464 57.8051 121.905 58.14C123.359 58.4777 125.251 59.3058 127.528 61.0023C129.807 62.6992 131.196 64.3154 132.005 65.6588C132.808 66.9926 133.052 68.0797 132.996 68.7123C132.991 68.7719 132.969 68.8288 132.933 68.8768L125.032 79.5039C124.925 79.6474 124.722 79.6772 124.579 79.5705C124.435 79.4639 124.406 79.2612 124.512 79.1177L132.356 68.5685C132.367 68.0941 132.169 67.1855 131.451 65.9928C130.692 64.7326 129.364 63.1765 127.142 61.5214C124.919 59.8659 123.107 59.0837 121.759 58.7704C120.47 58.4708 119.631 58.6046 119.25 58.7807L109.431 71.9638L107.58 79.3891C107.536 79.5625 107.361 79.6681 107.187 79.6248Z" fill="#E1E1E1"/>
<path fill-rule="evenodd" clip-rule="evenodd" d="M117.287 69.139L123.347 73.6527C124.494 74.5069 126.116 74.2697 126.97 73.1229L128.183 71.4951C129.037 70.3483 128.8 68.7263 127.653 67.8722L121.593 63.3585C120.446 62.5043 118.824 62.7416 117.97 63.8883L116.757 65.5162C115.903 66.6629 116.14 68.2849 117.287 69.139ZM122.961 74.1718C124.394 75.2395 126.422 74.943 127.489 73.5096L128.702 71.8817C129.769 70.4483 129.473 68.4208 128.039 67.3531L121.979 62.8394C120.546 61.7717 118.518 62.0682 117.451 63.5016L116.238 65.1295C115.171 66.5629 115.467 68.5904 116.901 69.6581L122.961 74.1718Z" fill="#E1E1E1"/>
<path fill-rule="evenodd" clip-rule="evenodd" d="M203.776 43.6892C200.686 43.6892 198.076 45.9818 197.678 49.0456L193.784 79.0099H265.485L260.022 48.7458C259.494 45.8185 256.946 43.6892 253.971 43.6892H240.227V43.042H253.971C257.259 43.042 260.075 45.3954 260.659 48.6308L266.26 79.6572H193.047L197.036 48.9622C197.476 45.5759 200.361 43.042 203.776 43.042H205.751V43.6892H203.776Z" fill="#E1E1E1"/>
<path fill-rule="evenodd" clip-rule="evenodd" d="M265.129 95.216C265.308 95.2272 265.443 95.3809 265.432 95.5593L259.872 183.794C259.432 190.785 253.634 196.229 246.63 196.229H212.467C205.432 196.229 199.62 190.738 199.22 183.714L194.203 95.5574C194.193 95.3789 194.329 95.226 194.508 95.2159C194.686 95.2057 194.839 95.3421 194.849 95.5206L199.866 183.677C200.247 190.358 205.775 195.581 212.467 195.581H246.63C253.292 195.581 258.807 190.403 259.226 183.754L264.786 95.5186C264.797 95.3402 264.951 95.2047 265.129 95.216Z" fill="#E1E1E1"/>
<path fill-rule="evenodd" clip-rule="evenodd" d="M193.471 181.625C193.471 178.564 195.953 176.082 199.014 176.082V177.377C196.668 177.377 194.765 179.279 194.765 181.625V193.661C194.765 196.233 196.85 198.318 199.422 198.318H201.054C202.725 198.318 204.079 196.963 204.079 195.293H205.373C205.373 197.678 203.439 199.612 201.054 199.612H199.422C196.135 199.612 193.471 196.948 193.471 193.661V181.625Z" fill="#E1E1E1"/>
<path fill-rule="evenodd" clip-rule="evenodd" d="M266.368 181.625C266.368 178.564 263.886 176.082 260.825 176.082V177.377C263.171 177.377 265.074 179.279 265.074 181.625V193.661C265.074 196.233 262.989 198.318 260.417 198.318H258.785C257.115 198.318 255.76 196.963 255.76 195.293H254.466C254.466 197.678 256.4 199.612 258.785 199.612H260.417C263.704 199.612 266.368 196.948 266.368 193.661V181.625Z" fill="#E1E1E1"/>
<path fill-rule="evenodd" clip-rule="evenodd" d="M260.026 95.2158C260.205 95.2254 260.342 95.3778 260.332 95.5563L255.615 183.669C255.237 190.712 249.417 196.229 242.365 196.229H217.222C210.143 196.229 204.31 190.672 203.968 183.601L199.711 95.5546C199.702 95.3761 199.84 95.2244 200.018 95.2157C200.197 95.2071 200.349 95.3448 200.357 95.5233L204.615 183.57C204.94 190.295 210.488 195.581 217.222 195.581H242.365C249.073 195.581 254.61 190.334 254.968 183.635L259.686 95.5217C259.695 95.3432 259.848 95.2062 260.026 95.2158Z" fill="#E1E1E1"/>
<path fill-rule="evenodd" clip-rule="evenodd" d="M264.96 79.4593H194.675C191.457 79.4593 188.849 82.0673 188.849 85.2845V89.0672C188.849 92.2844 191.457 94.8925 194.675 94.8925H264.96C268.177 94.8925 270.785 92.2844 270.785 89.0672V85.2845C270.785 82.0673 268.177 79.4593 264.96 79.4593ZM194.675 78.812C191.1 78.812 188.202 81.7098 188.202 85.2845V89.0672C188.202 92.6419 191.1 95.5397 194.675 95.5397H264.96C268.535 95.5397 271.433 92.6419 271.433 89.0672V85.2845C271.433 81.7098 268.535 78.812 264.96 78.812H194.675Z" fill="#E1E1E1"/>
<path d="M211.523 109.744V117.677H210.36V108.366H212.167L214.475 115.49C214.542 115.692 214.59 115.85 214.62 115.964C214.654 116.073 214.679 116.17 214.696 116.255C214.73 116.099 214.763 115.96 214.797 115.837C214.831 115.715 214.866 115.599 214.904 115.49L217.294 108.366H219.108V117.677H217.881V109.744C217.852 109.879 217.818 110.016 217.78 110.155C217.742 110.29 217.702 110.425 217.66 110.56L215.265 117.677H214.07L211.731 110.56C211.689 110.442 211.651 110.315 211.618 110.18C211.584 110.045 211.552 109.9 211.523 109.744Z" fill="#E1E1E1"/>
<path d="M221.105 117.677V108.366H227.742V109.523H222.357V112.304H227.331V113.391H222.357V116.514H227.849V117.677H221.105Z" fill="#E1E1E1"/>
<path d="M231.44 117.677V109.498H228.5V108.366H235.649V109.498H232.71V117.677H231.44Z" fill="#E1E1E1"/>
<path d="M237.969 113.808H240.87L239.429 109.7L237.969 113.808ZM235.276 117.677L238.734 108.366H240.131L243.601 117.677H242.229L241.243 114.896H237.577L236.585 117.677H235.276Z" fill="#E1E1E1"/>
<path d="M244.568 117.677V108.366H245.845V116.501H250.484V117.677H244.568Z" fill="#E1E1E1"/>
<path fill-rule="evenodd" clip-rule="evenodd" d="M191.635 186.49C191.635 185.013 192.505 183.674 193.855 183.074L194.381 184.257C193.498 184.649 192.929 185.524 192.929 186.49V189.105C192.929 190.045 193.439 190.911 194.261 191.368L194.432 191.463C194.745 191.637 194.858 192.031 194.684 192.343C194.51 192.656 194.116 192.768 193.804 192.595L193.632 192.5C192.4 191.815 191.635 190.515 191.635 189.105V186.49Z" fill="#E1E1E1"/>
<path fill-rule="evenodd" clip-rule="evenodd" d="M268.204 186.49C268.204 185.013 267.334 183.674 265.984 183.074L265.458 184.257C266.341 184.649 266.91 185.524 266.91 186.49V189.105C266.91 190.045 266.4 190.911 265.578 191.368L265.407 191.463C265.094 191.637 264.982 192.031 265.155 192.343C265.329 192.656 265.723 192.768 266.035 192.595L266.207 192.5C267.44 191.815 268.204 190.515 268.204 189.105V186.49Z" fill="#E1E1E1"/>
<path fill-rule="evenodd" clip-rule="evenodd" d="M205.374 51.5076C203.913 51.5076 202.678 52.5902 202.487 54.0388L199.209 78.8539C199.186 79.0311 199.023 79.1558 198.846 79.1324C198.669 79.109 198.544 78.9463 198.568 78.7691L201.845 53.9541C202.079 52.1836 203.588 50.8604 205.374 50.8604H209.086C209.265 50.8604 209.41 51.0052 209.41 51.184C209.41 51.3627 209.265 51.5076 209.086 51.5076H205.374ZM241.505 51.184C241.505 51.0052 241.65 50.8604 241.828 50.8604H252.292C253.979 50.8604 255.435 52.0448 255.778 53.6968L260.976 78.7458C261.013 78.9208 260.9 79.0921 260.725 79.1284C260.55 79.1647 260.379 79.0523 260.343 78.8773L255.144 53.8283C254.863 52.4767 253.672 51.5076 252.292 51.5076H241.828C241.65 51.5076 241.505 51.3627 241.505 51.184Z" fill="#E1E1E1"/>
<path fill-rule="evenodd" clip-rule="evenodd" d="M236.613 79.5504C236.469 79.6559 236.267 79.6245 236.161 79.4802L235.143 78.0881L231.595 74.0626C231.521 73.9789 231.496 73.8631 231.528 73.7562L232.333 71.0536C232.351 70.9955 232.384 70.9434 232.43 70.9033L246.221 58.747C246.282 58.693 246.362 58.6642 246.444 58.6663L249.298 58.7403C249.388 58.7426 249.473 58.7823 249.533 58.8498L255.957 66.1381C256.005 66.1925 256.033 66.2614 256.037 66.3338L256.187 68.9908C256.193 69.0884 256.154 69.1833 256.081 69.2489L244.73 79.5291C244.598 79.6491 244.393 79.6389 244.273 79.5065C244.153 79.374 244.163 79.1693 244.296 79.0493L255.532 68.8729L255.397 66.4821L249.14 59.3837L246.554 59.3166L233.325 70.9772L239.93 78.4712C240.048 78.6053 240.035 78.8098 239.901 78.928C239.767 79.0461 239.563 79.0332 239.444 78.8992L232.888 71.4603L232.199 73.7692L235.639 77.6712C235.645 77.6786 235.651 77.6863 235.657 77.6942L236.684 79.0982C236.789 79.2424 236.758 79.4449 236.613 79.5504Z" fill="#E1E1E1"/>
<path fill-rule="evenodd" clip-rule="evenodd" d="M255.854 69.4496C255.72 69.5678 255.515 69.5549 255.397 69.4208L246.305 59.1051C246.186 58.971 246.199 58.7665 246.333 58.6483C246.467 58.5301 246.672 58.543 246.79 58.6771L255.883 68.9928C256.001 69.1269 255.988 69.3314 255.854 69.4496Z" fill="#E1E1E1"/>
<path fill-rule="evenodd" clip-rule="evenodd" d="M232.007 74.0899C231.483 74.2903 231.337 74.962 231.73 75.3623L235.359 79.0627L234.897 79.5159L231.267 75.8155C230.548 75.0824 230.817 73.8524 231.776 73.4854L232.007 74.0899Z" fill="#E1E1E1"/>
<path fill-rule="evenodd" clip-rule="evenodd" d="M231.388 79.0268C231.27 78.8927 231.283 78.6882 231.417 78.57L232.987 77.1863C233.121 77.0682 233.325 77.0811 233.444 77.2151C233.562 77.3492 233.549 77.5537 233.415 77.6719L231.845 79.0555C231.711 79.1737 231.506 79.1608 231.388 79.0268Z" fill="#E1E1E1"/>
<path fill-rule="evenodd" clip-rule="evenodd" d="M228.184 21.8292L201.156 32.1399C200.967 32.2123 200.871 32.4249 200.944 32.6146C201.016 32.8044 201.229 32.8995 201.419 32.8271L228.446 22.5164C228.636 22.444 228.731 22.2315 228.659 22.0417C228.586 21.852 228.374 21.7568 228.184 21.8292ZM200.926 31.5352C200.402 31.735 200.139 32.3216 200.339 32.8453C200.539 33.3691 201.125 33.6317 201.649 33.4319L228.677 23.1212C229.201 22.9214 229.463 22.3348 229.264 21.811C229.064 21.2873 228.477 21.0247 227.953 21.2245L200.926 31.5352Z" fill="#E1E1E1"/>
<path fill-rule="evenodd" clip-rule="evenodd" d="M241.932 57.8663L214.904 68.177C214.714 68.2494 214.619 68.462 214.691 68.6517C214.764 68.8415 214.976 68.9366 215.166 68.8643L242.194 58.5535C242.384 58.4811 242.479 58.2686 242.407 58.0788C242.334 57.8891 242.122 57.7939 241.932 57.8663ZM214.673 67.5723C214.15 67.7721 213.887 68.3587 214.087 68.8824C214.287 69.4062 214.873 69.6688 215.397 69.469L242.425 59.1583C242.948 58.9585 243.211 58.3719 243.011 57.8481C242.811 57.3244 242.225 57.0618 241.701 57.2616L214.673 67.5723Z" fill="#E1E1E1"/>
<path fill-rule="evenodd" clip-rule="evenodd" d="M230.311 30.251L206.128 39.4764C205.939 39.5488 205.843 39.7613 205.916 39.951C205.988 40.1408 206.201 40.236 206.391 40.1636L230.573 30.9382C230.763 30.8658 230.858 30.6533 230.786 30.4635C230.713 30.2737 230.501 30.1786 230.311 30.251ZM205.898 38.8716C205.374 39.0714 205.111 39.658 205.311 40.1817C205.511 40.7055 206.097 40.9681 206.621 40.7683L230.804 31.5429C231.328 31.3431 231.59 30.7566 231.391 30.2328C231.191 29.709 230.604 29.4464 230.081 29.6462L205.898 38.8716Z" fill="#E1E1E1"/>
<path fill-rule="evenodd" clip-rule="evenodd" d="M227.517 23.7119L203.857 32.7381C203.523 32.8655 203.355 33.2395 203.483 33.5735L205.273 38.2671C205.401 38.6011 205.775 38.7686 206.109 38.6412L229.769 29.615C230.103 29.4876 230.271 29.1136 230.143 28.7796L228.353 24.086C228.226 23.752 227.851 23.5845 227.517 23.7119ZM203.626 32.1333C202.958 32.3882 202.623 33.1362 202.878 33.8042L204.669 38.4978C204.924 39.1658 205.672 39.5007 206.34 39.2459L230 30.2198C230.668 29.965 231.003 29.2169 230.748 28.5489L228.958 23.8553C228.703 23.1873 227.955 22.8524 227.287 23.1072L203.626 32.1333Z" fill="#E1E1E1"/>
<path fill-rule="evenodd" clip-rule="evenodd" d="M230.593 31.7734L206.932 40.7996C206.598 40.927 206.431 41.301 206.558 41.635L207.444 43.9578C207.571 44.2918 207.946 44.4593 208.279 44.3318L231.94 35.3057C232.274 35.1783 232.442 34.8042 232.314 34.4703L231.428 32.1475C231.301 31.8135 230.927 31.646 230.593 31.7734ZM206.701 40.1949C206.033 40.4497 205.698 41.1978 205.953 41.8657L206.839 44.1885C207.094 44.8565 207.842 45.1914 208.51 44.9366L232.171 35.9104C232.839 35.6556 233.174 34.9075 232.919 34.2396L232.033 31.9168C231.778 31.2488 231.03 30.9139 230.362 31.1687L206.701 40.1949Z" fill="#E1E1E1"/>
<path fill-rule="evenodd" clip-rule="evenodd" d="M232.221 36.041L208.56 45.0672C208.226 45.1946 208.059 45.5686 208.186 45.9026L208.529 46.8029C208.657 47.1369 209.031 47.3043 209.365 47.1769L233.025 38.1508C233.359 38.0233 233.527 37.6493 233.399 37.3153L233.056 36.4151C232.929 36.0811 232.555 35.9136 232.221 36.041ZM208.329 44.4624C207.661 44.7173 207.326 45.4653 207.581 46.1333L207.925 47.0336C208.18 47.7015 208.928 48.0365 209.596 47.7816L233.256 38.7555C233.924 38.5007 234.259 37.7526 234.004 37.0846L233.661 36.1844C233.406 35.5164 232.658 35.1815 231.99 35.4363L208.329 44.4624Z" fill="#E1E1E1"/>
<path fill-rule="evenodd" clip-rule="evenodd" d="M233.306 38.8858L209.645 47.9119C209.311 48.0393 209.144 48.4133 209.271 48.7473L209.796 50.1218C209.923 50.4557 210.297 50.6232 210.631 50.4958L234.292 41.4697C234.626 41.3422 234.793 40.9682 234.666 40.6342L234.141 39.2598C234.014 38.9258 233.64 38.7583 233.306 38.8858ZM209.415 47.3072C208.747 47.562 208.412 48.3101 208.667 48.978L209.191 50.3525C209.446 51.0204 210.194 51.3554 210.862 51.1005L234.522 42.0744C235.19 41.8196 235.525 41.0715 235.27 40.4035L234.746 39.0291C234.491 38.3611 233.743 38.0262 233.075 38.281L209.415 47.3072Z" fill="#E1E1E1"/>
<path fill-rule="evenodd" clip-rule="evenodd" d="M234.572 42.2056L210.911 51.2317C210.578 51.3591 210.41 51.7332 210.537 52.0672L210.881 52.9674C211.008 53.3014 211.382 53.4689 211.716 53.3415L235.377 44.3153C235.711 44.1879 235.878 43.8139 235.751 43.4799L235.407 42.5796C235.28 42.2456 234.906 42.0782 234.572 42.2056ZM210.681 50.627C210.013 50.8818 209.678 51.6299 209.933 52.2979L210.276 53.1981C210.531 53.8661 211.279 54.201 211.947 53.9462L235.608 44.92C236.276 44.6652 236.61 43.9171 236.356 43.2492L236.012 42.3489C235.757 41.6809 235.009 41.346 234.341 41.6008L210.681 50.627Z" fill="#E1E1E1"/>
<path fill-rule="evenodd" clip-rule="evenodd" d="M235.657 45.0498L211.997 54.076C211.663 54.2034 211.495 54.5774 211.623 54.9114L211.966 55.8117C212.094 56.1456 212.468 56.3131 212.802 56.1857L236.462 47.1595C236.796 47.0321 236.964 46.6581 236.836 46.3241L236.493 45.4239C236.365 45.0899 235.991 44.9224 235.657 45.0498ZM211.766 53.4712C211.098 53.726 210.763 54.4741 211.018 55.1421L211.361 56.0423C211.616 56.7103 212.364 57.0453 213.032 56.7904L236.693 47.7643C237.361 47.5095 237.696 46.7614 237.441 46.0934L237.098 45.1932C236.843 44.5252 236.095 44.1903 235.427 44.4451L211.766 53.4712Z" fill="#E1E1E1"/>
<path fill-rule="evenodd" clip-rule="evenodd" d="M236.743 47.8955L213.082 56.9217C212.748 57.0491 212.581 57.4231 212.708 57.7571L213.413 59.6057C213.541 59.9397 213.915 60.1072 214.249 59.9797L237.909 50.9536C238.243 50.8262 238.411 50.4521 238.283 50.1182L237.578 48.2696C237.451 47.9356 237.077 47.7681 236.743 47.8955ZM212.851 56.3169C212.183 56.5717 211.849 57.3198 212.103 57.9878L212.809 59.8364C213.063 60.5044 213.811 60.8393 214.479 60.5845L238.14 51.5583C238.808 51.3035 239.143 50.5554 238.888 49.8875L238.183 48.0389C237.928 47.3709 237.18 47.036 236.512 47.2908L212.851 56.3169Z" fill="#E1E1E1"/>
<path fill-rule="evenodd" clip-rule="evenodd" d="M238.451 51.5889L214.268 60.8142C214.079 60.8866 213.983 61.0992 214.056 61.2889C214.128 61.4787 214.341 61.5739 214.53 61.5015L238.713 52.2761C238.903 52.2037 238.998 51.9912 238.926 51.8014C238.853 51.6116 238.641 51.5165 238.451 51.5889ZM214.038 60.2095C213.514 60.4093 213.251 60.9959 213.451 61.5196C213.651 62.0434 214.237 62.306 214.761 62.1062L238.944 52.8808C239.468 52.681 239.73 52.0945 239.531 51.5707C239.331 51.0469 238.744 50.7843 238.22 50.9841L214.038 60.2095Z" fill="#E1E1E1"/>
<path fill-rule="evenodd" clip-rule="evenodd" d="M238.732 53.1108L215.072 62.137C214.738 62.2644 214.57 62.6384 214.698 62.9724L215.946 66.2435C216.073 66.5775 216.447 66.745 216.781 66.6176L240.442 57.5914C240.776 57.464 240.943 57.09 240.816 56.756L239.568 53.4849C239.44 53.1509 239.066 52.9834 238.732 53.1108ZM214.841 61.5323C214.173 61.7871 213.838 62.5352 214.093 63.2031L215.341 66.4742C215.596 67.1422 216.344 67.4772 217.012 67.2223L240.672 58.1962C241.34 57.9414 241.675 57.1933 241.421 56.5253L240.173 53.2542C239.918 52.5862 239.17 52.2513 238.502 52.5061L214.841 61.5323Z" fill="#E1E1E1"/>
<path fill-rule="evenodd" clip-rule="evenodd" d="M202.723 29.1626C204.372 26.9548 206.317 23.7117 208.16 19.958C210.003 16.2044 211.378 12.6813 212.117 10.0268C212.487 8.69432 212.688 7.61249 212.719 6.84276C212.734 6.45543 212.705 6.18619 212.655 6.01693C212.637 5.95365 212.619 5.91581 212.607 5.89449C212.582 5.89784 212.542 5.9071 212.48 5.93117C212.316 5.99553 212.085 6.1367 211.788 6.38579C211.198 6.8808 210.465 7.7015 209.637 8.80974C207.989 11.0175 206.043 14.2607 204.2 18.0143C202.358 21.768 200.982 25.291 200.244 27.9456C199.873 29.2781 199.672 30.3599 199.642 31.1296C199.626 31.5169 199.656 31.7862 199.705 31.9554C199.724 32.0187 199.741 32.0566 199.754 32.0779C199.778 32.0745 199.819 32.0653 199.88 32.0412C200.044 31.9768 200.275 31.8357 200.572 31.5866C201.163 31.0916 201.896 30.2709 202.723 29.1626ZM199.724 32.0791C199.724 32.079 199.725 32.0791 199.728 32.0795C199.725 32.0794 199.724 32.0792 199.724 32.0791ZM199.768 32.0995C199.77 32.101 199.771 32.1019 199.771 32.102C199.771 32.1021 199.77 32.1013 199.768 32.0995ZM212.636 5.8933C212.636 5.89339 212.635 5.89332 212.633 5.89284C212.635 5.89298 212.636 5.89322 212.636 5.8933ZM212.592 5.87292C212.59 5.87141 212.59 5.87049 212.59 5.87041C212.59 5.87032 212.591 5.87107 212.592 5.87292ZM199.464 32.6684C200.878 33.3627 205.032 27.7998 208.741 20.2433C212.45 12.6868 214.311 5.9982 212.897 5.30394C211.482 4.60968 207.329 10.1726 203.619 17.7291C199.91 25.2856 198.049 31.9742 199.464 32.6684Z" fill="#E1E1E1"/>
<path fill-rule="evenodd" clip-rule="evenodd" d="M334.265 15.3443C334.36 15.2601 334.495 15.239 334.611 15.2902L339.857 17.6093C339.975 17.6614 340.051 17.7784 340.05 17.9072L339.974 30.4163C339.973 30.4589 339.965 30.501 339.948 30.5402C338.007 35.1365 335.018 42.1466 332.356 48.2387C331.026 51.2846 329.777 54.1024 328.782 56.2748C328.285 57.3608 327.85 58.2871 327.5 59.0007C327.154 59.7065 326.881 60.224 326.709 60.4768C325.361 62.465 323.237 62.5697 322.323 62.3664C322.253 62.3508 322.19 62.3122 322.144 62.2567L320.842 60.6824L319.255 60.9577C319.193 60.9687 319.128 60.9607 319.069 60.9349L315.876 59.5233C315.783 59.4821 315.714 59.3995 315.691 59.3002L315.47 58.3438C315.087 58.3495 314.571 58.3353 314.026 58.2794C313.345 58.2095 312.592 58.0716 311.998 57.8092C311.601 57.6335 311.391 57.2727 311.291 56.885C311.192 56.4997 311.188 56.045 311.232 55.5921C311.318 54.6829 311.605 53.6864 311.842 53.0457C311.844 53.0394 311.847 53.0332 311.85 53.027L324.756 23.8305C324.774 23.7881 324.802 23.7502 324.837 23.7194L334.265 15.3443ZM334.539 15.9663L325.319 24.1565L312.446 53.2794C312.221 53.889 311.955 54.8229 311.876 55.6536C311.836 56.0727 311.846 56.4423 311.918 56.7236C311.99 57.0026 312.11 57.1509 312.26 57.2172C312.761 57.4388 313.435 57.5681 314.093 57.6356C314.745 57.7026 315.354 57.706 315.71 57.6891C315.867 57.6817 316.006 57.7871 316.041 57.9395L316.286 58.9967L319.241 60.3033L320.917 60.0126C321.031 59.9927 321.147 60.0357 321.221 60.1252L322.569 61.755C323.365 61.8888 325.069 61.7412 326.174 60.1135C326.315 59.9048 326.569 59.4296 326.919 58.7157C327.265 58.0095 327.697 57.089 328.194 56.0053C329.186 53.838 330.433 51.0243 331.763 47.9796C334.412 41.9169 337.386 34.9435 339.327 30.3479L339.401 18.1155L334.539 15.9663Z" fill="#E1E1E1"/>
<path fill-rule="evenodd" clip-rule="evenodd" d="M321.363 58.7552C320.69 59.5962 320.14 60.5483 320.053 60.744C319.981 60.9074 319.79 60.9814 319.626 60.9091C319.463 60.8369 319.389 60.6457 319.461 60.4823C319.576 60.2217 320.161 59.2218 320.858 58.3508C321.207 57.9145 321.6 57.4903 321.993 57.2056C322.366 56.9351 322.844 56.7156 323.3 56.9172C323.686 57.0881 323.841 57.4992 323.903 57.8817C323.967 58.2825 323.95 58.7709 323.893 59.2688C323.778 60.2692 323.489 61.3926 323.259 62.1221C323.205 62.2925 323.024 62.3871 322.853 62.3333C322.683 62.2796 322.588 62.0978 322.642 61.9274C322.865 61.221 323.141 60.1403 323.25 59.1947C323.305 58.7196 323.314 58.2995 323.264 57.9847C323.21 57.6516 323.107 57.5399 323.038 57.5092C322.924 57.4586 322.715 57.4811 322.373 57.7295C322.05 57.9638 321.699 58.3355 321.363 58.7552ZM314.21 55.459C313.615 56.1945 313.011 57.135 312.637 57.7774C312.547 57.9319 312.349 57.9843 312.194 57.8944C312.04 57.8046 311.988 57.6065 312.077 57.452C312.461 56.793 313.083 55.8219 313.708 55.0516C314.018 54.6684 314.341 54.32 314.644 54.0857C314.795 53.9689 314.956 53.869 315.12 53.8124C315.285 53.7553 315.481 53.7338 315.671 53.8179C315.994 53.9605 316.157 54.3035 316.247 54.6163C316.344 54.9491 316.39 55.3563 316.407 55.7722C316.441 56.6074 316.359 57.5471 316.274 58.1584C316.25 58.3354 316.086 58.459 315.909 58.4345C315.732 58.4099 315.609 58.2465 315.633 58.0694C315.715 57.4818 315.792 56.5829 315.76 55.7984C315.744 55.4046 315.701 55.0567 315.626 54.7966C315.545 54.5176 315.453 54.4294 315.41 54.4102C315.405 54.409 315.382 54.4064 315.331 54.4243C315.259 54.4489 315.162 54.5033 315.04 54.5979C314.796 54.7864 314.51 55.0893 314.21 55.459ZM315.412 54.4105C315.411 54.4105 315.411 54.4105 315.41 54.4102L315.412 54.4105Z" fill="#E1E1E1"/>
<path fill-rule="evenodd" clip-rule="evenodd" d="M340.627 17.1027L333.784 14.0778C333.607 13.9996 333.4 14.0796 333.322 14.2566C333.244 14.4335 333.324 14.6404 333.501 14.7186L340.343 17.7435C340.52 17.8217 340.727 17.7417 340.805 17.5647C340.884 17.3877 340.804 17.1809 340.627 17.1027ZM334.045 13.4858C333.542 13.2631 332.952 13.491 332.73 13.9949C332.507 14.4988 332.735 15.0879 333.239 15.3106L340.082 18.3355C340.586 18.5582 341.175 18.3303 341.397 17.8264C341.62 17.3225 341.392 16.7334 340.888 16.5107L334.045 13.4858Z" fill="#E1E1E1"/>
<path fill-rule="evenodd" clip-rule="evenodd" d="M341.393 12.5344L336.647 10.4362L335.154 13.8142L339.9 15.9123L341.393 12.5344ZM336.317 9.58252L334.3 14.1445L340.231 16.766L342.247 12.2041L336.317 9.58252Z" fill="#E1E1E1"/>
<path fill-rule="evenodd" clip-rule="evenodd" d="M339.723 11.1452C339.766 11.3189 339.659 11.494 339.486 11.5364L335.512 12.5066C335.338 12.549 335.163 12.4426 335.121 12.269C335.078 12.0954 335.185 11.9202 335.358 11.8778L339.332 10.9076C339.506 10.8652 339.681 10.9716 339.723 11.1452ZM342.137 12.5133C342.163 12.6902 342.04 12.8542 341.863 12.8796L334.876 13.8812C334.699 13.9065 334.535 13.7837 334.51 13.6067C334.485 13.4298 334.607 13.2658 334.784 13.2405L341.771 12.2389C341.948 12.2135 342.112 12.3364 342.137 12.5133ZM341.333 14.3529C341.35 14.5308 341.219 14.689 341.041 14.7061L336.484 15.1458C336.307 15.1629 336.148 15.0326 336.131 14.8547C336.114 14.6768 336.244 14.5187 336.422 14.5015L340.979 14.0619C341.157 14.0447 341.315 14.175 341.333 14.3529Z" fill="#E1E1E1"/>
<path fill-rule="evenodd" clip-rule="evenodd" d="M301.395 65.5814C301.316 65.4213 301.381 65.2271 301.541 65.1477L307.985 61.9515C308.145 61.872 308.339 61.9375 308.419 62.0976L309.706 64.6926C311.322 65.8652 314.651 68.2597 315.602 68.8694C319.988 71.6801 322.941 74.071 325.336 78.9008C325.416 79.0609 325.35 79.2551 325.19 79.3345C325.03 79.4139 324.836 79.3485 324.756 79.1884C322.436 74.5099 319.595 72.197 315.253 69.4143C314.269 68.7836 310.843 66.3176 309.261 65.1697C309.219 65.1389 309.185 65.0984 309.161 65.0515L307.983 62.6751L302.119 65.5837L303.298 67.9602C303.321 68.0081 303.333 68.0613 303.331 68.1148C303.298 69.1057 302.92 73.1742 302.63 76.2926C302.56 77.0529 302.494 77.7567 302.44 78.3457C302.424 78.5237 302.267 78.6548 302.089 78.6385C301.911 78.6222 301.78 78.4647 301.796 78.2868C301.851 77.6892 301.917 76.9774 301.988 76.2105C302.27 73.1721 302.633 69.2687 302.681 68.1738L301.395 65.5814Z" fill="#E1E1E1"/>
<path fill-rule="evenodd" clip-rule="evenodd" d="M306.104 74.4476C305.539 75.6359 305.345 77.0396 305.354 78.6375C305.355 78.8162 305.211 78.9619 305.032 78.9628C304.853 78.9638 304.708 78.8197 304.707 78.641C304.698 76.9971 304.895 75.4827 305.519 74.1697C306.148 72.8478 307.197 71.7551 308.843 70.9382C311.67 69.5363 314.646 70.5703 317.204 72.3267C319.769 74.0886 322.002 76.6332 323.409 78.4404C323.518 78.5814 323.493 78.7848 323.352 78.8946C323.211 79.0043 323.008 78.979 322.898 78.838C321.506 77.0497 319.322 74.5663 316.837 72.8602C314.345 71.1486 311.637 70.2749 309.131 71.5181C307.603 72.2762 306.664 73.2681 306.104 74.4476Z" fill="#E1E1E1"/>
<path fill-rule="evenodd" clip-rule="evenodd" d="M306.743 58.1141L299.015 61.9475L300.644 65.2317L308.372 61.3984L306.743 58.1141ZM298.147 61.6553L300.352 66.0992L309.24 61.6906L307.035 57.2467L298.147 61.6553Z" fill="#E1E1E1"/>
<path fill-rule="evenodd" clip-rule="evenodd" d="M299.669 60.8157C299.83 60.7362 300.024 60.8017 300.103 60.9618L302.087 64.9613C302.166 65.1214 302.101 65.3156 301.941 65.395C301.781 65.4745 301.587 65.409 301.507 65.2489L299.523 61.2494C299.444 61.0893 299.509 60.8951 299.669 60.8157ZM301.447 59.9339C301.607 59.8545 301.801 59.9199 301.881 60.0801L303.865 64.0796C303.944 64.2397 303.879 64.4339 303.718 64.5133C303.558 64.5927 303.364 64.5273 303.285 64.3672L301.301 60.3677C301.221 60.2076 301.287 60.0134 301.447 59.9339ZM303.225 59.0522C303.385 58.9728 303.579 59.0382 303.658 59.1983L305.642 63.1979C305.722 63.358 305.656 63.5522 305.496 63.6316C305.336 63.711 305.142 63.6456 305.062 63.4855L303.078 59.486C302.999 59.3258 303.064 59.1317 303.225 59.0522ZM305.002 58.1705C305.162 58.0911 305.356 58.1565 305.436 58.3166L307.42 62.3162C307.499 62.4763 307.434 62.6705 307.274 62.7499C307.113 62.8293 306.919 62.7639 306.84 62.6038L304.856 58.6042C304.777 58.4441 304.842 58.2499 305.002 58.1705Z" fill="#E1E1E1"/>
</svg>
