<svg width="255" height="260" viewBox="0 0 255 260" fill="none" xmlns="http://www.w3.org/2000/svg">
<path fill-rule="evenodd" clip-rule="evenodd" d="M175.88 143.947C175.996 143.739 176.259 143.665 176.467 143.781L247.393 183.497C247.589 183.606 247.668 183.848 247.575 184.052L244.684 190.411C244.635 190.519 244.545 190.602 244.433 190.64C244.322 190.679 244.2 190.671 244.095 190.617L234.909 185.918L242.26 192.218C242.419 192.354 242.457 192.585 242.35 192.766L237.725 200.571C237.645 200.705 237.499 200.786 237.343 200.782C237.187 200.778 237.045 200.69 236.972 200.552C235.079 196.974 231.286 191.201 226.074 185.549C220.862 179.897 214.254 174.392 206.737 171.317C191.562 165.109 173.392 159.244 166.205 157.088C165.977 157.019 165.848 156.779 165.916 156.55C165.985 156.322 166.225 156.193 166.453 156.261C173.654 158.421 191.854 164.296 207.064 170.518C214.74 173.658 221.449 179.26 226.709 184.964C231.658 190.331 235.346 195.811 237.371 199.475L241.423 192.637L231.58 184.201C231.414 184.059 231.381 183.814 231.503 183.633C231.624 183.451 231.863 183.389 232.058 183.489L244.085 189.643L246.625 184.056L176.046 144.534C175.838 144.418 175.763 144.155 175.88 143.947Z" fill="#E1E1E1"/>
<path fill-rule="evenodd" clip-rule="evenodd" d="M188.315 127.646C188.138 127.545 187.915 127.582 187.779 127.735L186.68 128.972C186.491 129.184 186.555 129.517 186.809 129.644L188.114 130.297C188.123 130.302 188.132 130.307 188.141 130.312L211.528 144.17L212.307 144.482C212.493 144.557 212.706 144.493 212.821 144.329L213.909 142.775C214.054 142.566 213.99 142.278 213.769 142.152L188.315 127.646ZM210.756 144.717L188.067 131.271L179.214 145.679C179.089 145.882 178.823 145.945 178.62 145.82C178.417 145.696 178.354 145.43 178.478 145.227L187.307 130.858L186.423 130.417C185.661 130.036 185.468 129.035 186.034 128.398L187.134 127.161C187.54 126.704 188.211 126.594 188.743 126.896L214.196 141.402C214.859 141.78 215.053 142.645 214.616 143.27L213.528 144.824C213.183 145.316 212.545 145.507 211.986 145.284L211.53 145.101L203.826 159.041C203.71 159.25 203.448 159.326 203.239 159.21C203.03 159.095 202.955 158.832 203.07 158.624L210.756 144.717Z" fill="#E1E1E1"/>
<path fill-rule="evenodd" clip-rule="evenodd" d="M165.453 120.86C164.4 118.652 162.325 117.12 159.361 117.524C159.125 117.556 158.907 117.391 158.875 117.155C158.843 116.919 159.008 116.701 159.244 116.669C162.639 116.206 165.045 117.998 166.232 120.488C167.408 122.953 167.413 126.138 166.038 128.582C165.922 128.79 165.658 128.863 165.451 128.747C165.243 128.63 165.169 128.367 165.286 128.159C166.513 125.978 166.518 123.092 165.453 120.86Z" fill="#E1E1E1"/>
<path fill-rule="evenodd" clip-rule="evenodd" d="M100.725 218.827C100.725 218.35 101.111 217.963 101.588 217.963C102.83 217.963 104.854 218.067 106.926 218.378C108.974 218.684 111.182 219.208 112.719 220.105C113.73 220.694 114.055 221.785 114.303 222.62C114.31 222.642 114.317 222.664 114.323 222.686C114.328 222.703 114.333 222.721 114.339 222.738C114.611 223.652 114.878 224.547 115.557 225.401C116.91 227.107 120.184 228.948 129.628 228.948C136.765 228.948 140.625 226.866 143.242 225.228C143.485 225.076 143.727 224.922 143.963 224.771C144.355 224.521 144.731 224.28 145.076 224.074C145.639 223.738 146.207 223.439 146.785 223.263C147.38 223.082 147.999 223.026 148.651 223.187C149.292 223.345 149.896 223.697 150.495 224.218C150.854 224.531 150.892 225.076 150.58 225.436C150.267 225.795 149.721 225.833 149.362 225.52C148.902 225.121 148.537 224.937 148.236 224.863C147.945 224.791 147.648 224.805 147.288 224.914C146.913 225.029 146.489 225.242 145.961 225.557C145.634 225.752 145.3 225.966 144.929 226.202C144.69 226.355 144.435 226.518 144.158 226.692C141.355 228.446 137.18 230.675 129.628 230.675C120.096 230.675 116.085 228.844 114.204 226.474C113.316 225.355 112.966 224.18 112.702 223.292C112.691 223.254 112.68 223.217 112.669 223.18C112.373 222.191 112.198 221.8 111.849 221.596C110.61 220.873 108.675 220.385 106.671 220.085C104.692 219.788 102.754 219.69 101.588 219.69C101.111 219.69 100.725 219.303 100.725 218.827Z" fill="#E1E1E1"/>
<path fill-rule="evenodd" clip-rule="evenodd" d="M17.5702 195.591C17.804 195.544 18.0313 195.696 18.0781 195.93C18.4072 197.575 19.2277 200.031 20.605 202.035C21.9834 204.041 23.8612 205.518 26.3084 205.412C26.3787 205.409 26.4482 205.405 26.5169 205.402C27.8302 205.34 29.1148 206.011 29.9858 206.971C30.8566 207.932 31.3795 209.259 31.041 210.561C30.5409 212.484 30.1191 214.381 29.931 215.844C29.8365 216.578 29.8041 217.18 29.8422 217.614C29.8613 217.831 29.8964 217.983 29.9367 218.082C29.9594 218.137 29.9784 218.163 29.9877 218.173L30.0034 218.183C30.0427 218.199 30.0964 218.205 30.2089 218.126C30.3558 218.024 30.5392 217.813 30.7443 217.469C31.1496 216.79 31.553 215.738 31.911 214.503C32.6257 212.038 33.1225 208.972 33.1225 206.999C33.1225 203.87 31.8136 201.417 31.1899 200.615C31.0435 200.427 31.0774 200.156 31.2656 200.01C31.4537 199.863 31.7249 199.897 31.8713 200.085C32.5966 201.018 33.9857 203.653 33.9857 206.999C33.9857 209.074 33.4708 212.223 32.7401 214.744C32.3754 216.002 31.9477 217.137 31.4857 217.912C31.2572 218.295 30.998 218.629 30.7022 218.835C30.3863 219.055 29.9958 219.145 29.6031 218.948C29.5619 218.928 29.5236 218.904 29.4879 218.879L25.2893 216.254C25.0995 216.136 24.8852 216.046 24.6521 215.975C24.0093 215.781 23.1648 215.457 22.4196 215.013C21.6922 214.58 20.9729 213.982 20.7143 213.206C20.6199 212.923 20.3351 212.63 19.8325 212.322C19.3412 212.022 18.7209 211.753 18.067 211.481C17.9975 211.452 17.9275 211.423 17.8572 211.394C17.282 211.155 16.6912 210.91 16.2022 210.644C15.6743 210.357 15.148 209.988 14.9415 209.472C14.8473 209.236 14.838 208.975 14.8657 208.726C14.8939 208.473 14.964 208.2 15.0594 207.921C15.2501 207.363 15.5587 206.732 15.9126 206.101C16.6217 204.838 17.5448 203.52 18.1792 202.69C18.324 202.501 18.5949 202.464 18.7843 202.609C18.9736 202.754 19.0097 203.025 18.8649 203.214C18.2467 204.023 17.3487 205.306 16.6654 206.524C16.323 207.134 16.0427 207.713 15.8762 208.2C15.793 208.444 15.7425 208.652 15.7237 208.821C15.7043 208.995 15.7216 209.098 15.743 209.151C15.8256 209.358 16.0943 209.603 16.6142 209.886C17.0607 210.128 17.6069 210.355 18.1906 210.597C18.2596 210.626 18.3291 210.655 18.399 210.684C19.0459 210.954 19.7265 211.245 20.2831 211.586C20.8284 211.92 21.3386 212.349 21.5332 212.933C21.6896 213.402 22.1762 213.863 22.8613 214.271C23.5286 214.669 24.3032 214.968 24.9018 215.149C25.1881 215.236 25.4766 215.354 25.7468 215.522L28.9716 217.538C28.9444 217.037 28.9867 216.418 29.0748 215.733C29.27 214.216 29.7027 212.278 30.2055 210.344C30.4496 209.405 30.0859 208.367 29.3462 207.551C28.6068 206.735 27.5572 206.217 26.5578 206.264C26.4879 206.268 26.4173 206.271 26.3459 206.274C23.4742 206.399 21.353 204.648 19.8936 202.524C18.4332 200.4 17.577 197.826 17.2316 196.099C17.1849 195.865 17.3365 195.638 17.5702 195.591Z" fill="#E1E1E1"/>
<path fill-rule="evenodd" clip-rule="evenodd" d="M14.7318 182.55C15.3595 181.817 16.4811 181.848 17.0885 182.577L17.1851 182.693C17.6153 183.209 17.6125 183.96 17.1784 184.473C17.0186 184.662 17.0134 184.956 17.2165 185.255C17.4203 185.555 17.7423 185.712 18.0246 185.66C18.9271 185.491 19.837 185.43 20.5432 185.635C20.9044 185.74 21.2376 185.923 21.4796 186.22C21.7249 186.521 21.8442 186.902 21.8442 187.342C21.8442 188.348 21.4667 189.095 20.8935 189.619C20.3334 190.132 19.6122 190.41 18.9424 190.55C18.2794 190.688 17.7971 191.19 17.7971 191.729C17.7971 192.246 18.2475 192.751 18.8838 193.01C19.6553 193.323 20.4891 193.92 20.9421 194.977C21.2095 195.601 21.3271 196.216 21.3539 196.777C21.4134 198.021 21.701 199.227 22.5454 199.811C23.5727 200.522 24.739 201.282 25.7737 201.863C26.2915 202.154 26.7688 202.395 27.1746 202.562C27.5937 202.735 27.8893 202.809 28.0614 202.809C28.575 202.809 29.1903 202.437 29.799 201.847C30.3882 201.276 30.8862 200.585 31.1602 200.128C31.2829 199.924 31.548 199.857 31.7524 199.98C31.9568 200.103 32.0231 200.368 31.9004 200.572C31.5963 201.079 31.0536 201.833 30.3997 202.467C29.7654 203.081 28.9353 203.672 28.0614 203.672C27.7099 203.672 27.2818 203.541 26.8451 203.36C26.3952 203.175 25.8847 202.915 25.3512 202.616C24.2832 202.016 23.0923 201.239 22.0543 200.521C20.8403 199.681 20.5517 198.074 20.4917 196.818C20.4692 196.347 20.3707 195.835 20.1487 195.317C19.8084 194.523 19.1813 194.062 18.5589 193.809C17.7688 193.488 16.9339 192.752 16.9339 191.729C16.9339 190.651 17.8452 189.897 18.7658 189.705C19.346 189.583 19.9041 189.355 20.3108 188.982C20.7043 188.622 20.981 188.107 20.981 187.342C20.981 187.063 20.9082 186.886 20.81 186.765C20.7084 186.64 20.5466 186.535 20.3021 186.464C19.7968 186.317 19.0524 186.346 18.1831 186.508C17.4725 186.641 16.8409 186.239 16.5024 185.74C16.163 185.241 16.0268 184.498 16.5194 183.915C16.6828 183.722 16.6839 183.44 16.522 183.246L16.4254 183.13C16.1499 182.799 15.6571 182.797 15.3873 183.111C14.0024 184.728 12.1964 187.001 10.6353 189.332C9.065 191.677 7.77736 194.031 7.38008 195.818C6.72079 198.785 6.82196 201.225 7.06678 202.719C7.2097 203.591 6.56775 204.54 5.59872 204.54C5.31098 204.54 5.07773 204.773 5.07773 205.061V210.508C5.07773 210.567 5.12512 210.614 5.18359 210.614C5.45816 210.614 5.69559 210.753 5.86556 210.879C6.04564 211.013 6.2184 211.187 6.3712 211.352C6.47107 211.46 6.57391 211.578 6.66791 211.686C6.71549 211.74 6.76081 211.792 6.80233 211.839C6.93831 211.992 7.03647 212.093 7.1052 212.146C7.30815 212.303 7.65989 212.482 8.23907 212.656C9.19149 212.942 10.3538 212.923 11.4922 212.751C12.6242 212.579 13.6938 212.261 14.4393 211.983C14.6813 211.892 14.9039 211.741 15.1004 211.544L16.4822 210.163C16.6507 209.994 16.924 209.994 17.0926 210.163C17.2611 210.331 17.2611 210.604 17.0926 210.773L15.7107 212.155C15.4413 212.424 15.1169 212.651 14.7417 212.791C13.9515 213.087 12.8234 213.422 11.6216 213.604C10.4263 213.785 9.1187 213.821 7.99102 213.483C7.35989 213.294 6.89719 213.076 6.57801 212.83C6.43621 212.72 6.28831 212.56 6.15702 212.412C6.10524 212.354 6.05507 212.296 6.00528 212.239C5.9169 212.138 5.82975 212.038 5.73702 211.938C5.59443 211.784 5.46487 211.657 5.35001 211.572C5.245 211.494 5.19284 211.48 5.184 211.478C5.18232 211.478 5.1822 211.478 5.18359 211.478C4.64838 211.478 4.21451 211.044 4.21451 210.508V205.061C4.21451 204.296 4.83424 203.676 5.59872 203.676C5.95183 203.676 6.2858 203.291 6.21493 202.858C5.95336 201.262 5.8529 198.712 6.53742 195.631C6.97244 193.674 8.34244 191.205 9.91807 188.852C11.503 186.485 13.3313 184.184 14.7318 182.55Z" fill="#E1E1E1"/>
<path fill-rule="evenodd" clip-rule="evenodd" d="M6.52082 213.169C6.78527 213.566 6.67808 214.102 6.28141 214.366L2.22647 217.07C2.22598 217.07 2.22551 217.07 2.22508 217.07C2.22501 217.072 2.225 217.074 2.2251 217.077C2.2255 217.087 2.22755 217.099 2.23233 217.113C2.24285 217.144 2.25879 217.16 2.26427 217.164C2.26496 217.165 2.26528 217.165 2.26527 217.165C2.26527 217.165 2.26459 217.164 2.26337 217.164C2.2628 217.164 2.26249 217.164 2.2625 217.164C2.26251 217.164 2.26623 217.165 2.27533 217.164C5.86001 216.984 10.1651 216.948 13.7454 217.005C15.536 217.034 17.1521 217.086 18.4111 217.157C19.04 217.192 19.5863 217.232 20.0238 217.276C20.4407 217.319 20.8177 217.371 21.0717 217.443C21.4278 217.545 21.9426 217.618 22.5817 217.677C23.0248 217.718 23.4926 217.749 23.9753 217.782C24.1836 217.796 24.3946 217.81 24.6076 217.825C25.2423 217.87 26.0525 218.263 26.0572 219.153C26.0616 219.974 25.3504 220.433 24.7346 220.561C22.097 221.108 19.1281 221.8 16.9973 222.47C16.4227 222.65 15.9295 222.823 15.529 222.984C15.6749 223.005 15.832 223.026 16.0004 223.048C17.066 223.184 18.522 223.317 20.2602 223.443C23.7333 223.694 28.2898 223.913 33.0092 224.069C42.4862 224.381 52.4865 224.435 55.7256 224.013C56.1983 223.951 56.6315 224.284 56.6932 224.757C56.7549 225.23 56.4216 225.663 55.9489 225.725C52.5392 226.169 42.3787 226.105 32.9523 225.794C28.22 225.638 23.6392 225.418 20.1356 225.165C18.3854 225.038 16.8932 224.902 15.7815 224.76C15.2272 224.689 14.753 224.615 14.3827 224.537C14.1981 224.498 14.0256 224.455 13.8753 224.406C13.7429 224.363 13.5572 224.295 13.395 224.179C13.2264 224.059 13.027 223.867 12.9236 223.579C12.8113 223.267 12.8557 222.962 12.9669 222.722C13.1511 222.322 13.5332 222.059 13.8076 221.895C14.425 221.527 15.3894 221.165 16.4799 220.823C18.0766 220.321 20.1001 219.814 22.0986 219.364C21.5576 219.306 21.0323 219.227 20.5975 219.103C20.5078 219.078 20.2709 219.037 19.849 218.994C19.4475 218.953 18.9298 218.915 18.3148 218.88C17.0859 218.812 15.4941 218.76 13.7177 218.731C10.164 218.674 5.89858 218.711 2.36204 218.889C1.45922 218.934 0.823813 218.329 0.599047 217.673C0.373481 217.014 0.507472 216.141 1.26881 215.633L5.32375 212.93C5.72043 212.665 6.25637 212.772 6.52082 213.169ZM24.548 219.556C24.548 219.556 24.5475 219.556 24.5466 219.556L24.548 219.556ZM2.21888 217.075C2.21888 217.075 2.21896 217.075 2.21913 217.075C2.21898 217.075 2.21889 217.075 2.21888 217.075Z" fill="#E1E1E1"/>
<path fill-rule="evenodd" clip-rule="evenodd" d="M88.8989 209.31C89.1823 209.201 89.4949 209.195 89.7821 209.293L99.9086 212.758C100.416 212.931 100.764 213.4 100.784 213.937L101.319 228.93C101.338 229.472 101.018 229.968 100.517 230.174L68.6964 243.243C68.5988 243.284 68.4899 243.286 68.3903 243.252L56.5389 239.118C56.0189 238.936 55.6705 238.446 55.6705 237.895V223.475C55.6705 223.195 55.7614 222.922 55.9295 222.698L56.1905 222.35L56.5358 222.609L56.1905 222.35L56.4749 221.971C56.6211 221.776 56.8193 221.626 57.0467 221.539L88.8989 209.31ZM56.6907 223.122L56.6201 223.216C56.564 223.29 56.5338 223.381 56.5338 223.475V237.895C56.5338 238.079 56.6499 238.242 56.8232 238.302L68.0786 242.229L67.5335 226.965L56.6907 223.122ZM68.3965 226.945L68.9417 242.21L100.189 229.376C100.356 229.307 100.463 229.142 100.456 228.961L99.9208 213.967C99.9144 213.789 99.7985 213.632 99.6292 213.574L89.5027 210.11C89.407 210.077 89.3028 210.079 89.2083 210.116L57.3561 222.344C57.3178 222.359 57.2819 222.379 57.2496 222.404L67.9458 226.195L98.4075 214.108C98.6291 214.02 98.88 214.129 98.9679 214.35C99.0558 214.572 98.9475 214.823 98.7259 214.911L68.3965 226.945Z" fill="#E1E1E1"/>
<path fill-rule="evenodd" clip-rule="evenodd" d="M81.1848 223.959C82.0129 223.719 82.8396 224.341 82.8396 225.203V234.177C82.8396 234.698 82.5274 235.168 82.0473 235.37L72.7888 239.269C71.9353 239.628 70.9915 239.001 70.9915 238.075V227.883C70.9915 227.307 71.3726 226.799 71.9263 226.639L81.1848 223.959ZM81.9764 225.203C81.9764 224.915 81.7008 224.708 81.4248 224.788L72.1663 227.468C71.9817 227.522 71.8547 227.691 71.8547 227.883V238.075C71.8547 238.384 72.1693 238.593 72.4538 238.473L81.7123 234.575C81.8723 234.507 81.9764 234.351 81.9764 234.177V225.203Z" fill="#E1E1E1"/>
<path fill-rule="evenodd" clip-rule="evenodd" d="M96.3967 217.461C97.2455 217.131 98.1608 217.757 98.1608 218.668V228.09C98.1608 228.624 97.833 229.103 97.3353 229.297L88.655 232.672C87.8062 233.002 86.8908 232.376 86.8908 231.465V222.044C86.8908 221.51 87.2187 221.031 87.7164 220.837L96.3967 217.461ZM97.2976 218.668C97.2976 218.365 96.9925 218.156 96.7096 218.266L88.0292 221.642C87.8633 221.706 87.7541 221.866 87.7541 222.044V231.465C87.7541 231.769 88.0592 231.978 88.3421 231.868L97.0224 228.492C97.1883 228.427 97.2976 228.268 97.2976 228.09V218.668Z" fill="#E1E1E1"/>
<path fill-rule="evenodd" clip-rule="evenodd" d="M117.434 120.28C118.1 120.055 118.824 120.402 119.065 121.062L122.803 131.277C123.056 131.969 122.682 132.732 121.98 132.956L103.691 138.787C103.023 139 102.307 138.643 102.076 137.981L101.28 135.707L100.761 135.881C100.095 136.105 99.373 135.758 99.132 135.099L97.9916 131.98C97.7672 131.366 98.0353 130.681 98.6168 130.383L99.2945 130.035L98.594 128.034C98.356 127.354 98.7188 126.61 99.4012 126.379L117.434 120.28ZM99.5824 130.858L99.0107 131.151C98.8169 131.25 98.7275 131.478 98.8023 131.683L99.9427 134.802C100.023 135.022 100.264 135.138 100.486 135.063L100.994 134.892L99.5824 130.858ZM118.254 121.358C118.174 121.138 117.933 121.023 117.711 121.098L115.45 121.863L119.221 132.93L121.718 132.133C121.952 132.059 122.076 131.804 121.992 131.574L118.254 121.358ZM118.398 133.192L114.632 122.139L104.746 125.483L108.243 136.43L118.398 133.192ZM107.421 136.692L103.928 125.76L99.6778 127.197C99.4503 127.274 99.3294 127.522 99.4087 127.749L102.89 137.696C102.968 137.917 103.206 138.036 103.429 137.965L107.421 136.692Z" fill="#E1E1E1"/>
<path fill-rule="evenodd" clip-rule="evenodd" d="M50.8983 167.806C47.5612 168.67 43.958 170.854 41.1248 174.594C35.5199 181.993 38.013 190.253 41.0305 193.34C41.0478 193.358 41.0654 193.372 41.0853 193.385C42.6665 194.4 44.9998 194.472 47.7918 193.364C50.5758 192.259 53.7534 190 56.9379 186.474C63.3187 179.41 62.5047 171.844 59.0029 168.881L59.2485 168.591L59.0029 168.881C57.2699 167.415 54.2537 166.937 50.8983 167.806ZM50.6819 166.971C54.192 166.062 57.5355 166.509 59.5605 168.222L59.2817 168.552L59.5605 168.222C63.5747 171.619 64.1483 179.779 57.5785 187.053C54.3319 190.648 51.0497 193 48.1102 194.166C45.1788 195.33 42.5246 195.334 40.6192 194.112C40.5434 194.063 40.4753 194.007 40.4131 193.944C37.125 190.579 34.5502 181.843 40.4368 174.073C43.3851 170.181 47.1533 167.884 50.6819 166.971Z" fill="#E1E1E1"/>
<path fill-rule="evenodd" clip-rule="evenodd" d="M175.868 202.865C179.917 203.737 184.348 206.179 187.93 210.523C195.03 219.132 192.439 229.185 188.955 233.043C188.938 233.062 188.92 233.077 188.9 233.092C187.032 234.41 184.215 234.61 180.807 233.421C177.407 232.234 173.484 229.682 169.493 225.614C161.5 217.467 162.073 208.328 166.16 204.57L165.868 204.252L166.16 204.57C168.186 202.707 171.799 201.989 175.868 202.865ZM176.049 202.021C171.825 201.111 167.884 201.812 165.576 203.935C160.995 208.147 160.686 217.87 168.877 226.219C172.932 230.352 176.965 232.994 180.522 234.236C184.072 235.475 187.214 235.338 189.398 233.797C189.471 233.745 189.536 233.687 189.595 233.622C193.34 229.475 195.992 218.943 188.596 209.974C184.892 205.483 180.292 202.935 176.049 202.021Z" fill="#E1E1E1"/>
<path fill-rule="evenodd" clip-rule="evenodd" d="M60.1331 170.139C57.6431 170.047 51.1132 171.26 45.4222 176.951C39.7841 182.589 39.972 190.022 40.9068 193.294C40.9723 193.523 40.8396 193.762 40.6104 193.827C40.3812 193.893 40.1423 193.76 40.0768 193.531C39.0845 190.058 38.8869 182.266 44.8119 176.341C50.6839 170.469 57.4517 169.176 60.1651 169.277C60.4033 169.286 60.5892 169.486 60.5804 169.724C60.5716 169.962 60.3713 170.148 60.1331 170.139Z" fill="#E1E1E1"/>
<path fill-rule="evenodd" clip-rule="evenodd" d="M164.923 206.107C167.916 205.872 175.803 207.006 182.903 213.543C189.948 220.03 190.091 228.956 189.13 232.933C189.074 233.164 189.217 233.398 189.449 233.454C189.68 233.51 189.914 233.367 189.97 233.135C190.979 228.956 190.831 219.669 183.488 212.908C176.199 206.197 168.071 204.994 164.855 205.246C164.617 205.265 164.44 205.472 164.459 205.71C164.477 205.948 164.685 206.125 164.923 206.107Z" fill="#E1E1E1"/>
<path fill-rule="evenodd" clip-rule="evenodd" d="M50.1613 202.271C55.4591 200.204 60.729 195.946 64.6699 189.958C68.6109 183.97 70.4367 177.446 70.2394 171.763C70.0421 166.077 67.8319 161.311 63.7883 158.65C59.7448 155.989 54.4935 155.844 49.1934 157.912C43.8956 159.979 38.6257 164.236 34.6847 170.224C30.7438 176.212 28.918 182.736 29.1152 188.42C29.3125 194.105 31.5228 198.871 35.5663 201.532C39.6098 204.193 44.8612 204.338 50.1613 202.271ZM35.0917 202.253C43.7702 207.965 57.3356 202.673 65.391 190.433C73.4464 178.193 72.9413 163.641 64.2629 157.929C55.5845 152.218 42.019 157.51 33.9636 169.749C25.9082 181.989 26.4133 196.542 35.0917 202.253Z" fill="#E1E1E1"/>
<path fill-rule="evenodd" clip-rule="evenodd" d="M159.643 192.154C161.328 190.942 163.196 190.1 165.188 189.606L164.98 188.769C162.887 189.288 160.917 190.175 159.139 191.453C153.951 195.183 151.421 201.502 151.468 208.64C151.515 215.778 154.135 223.775 159.297 230.954C164.458 238.133 171.204 243.164 177.956 245.482C184.707 247.8 191.503 247.414 196.692 243.683C201.88 239.953 204.41 233.634 204.363 226.496C204.316 219.358 201.696 211.361 196.534 204.182C195.068 202.143 193.475 200.277 191.79 198.598L191.181 199.21C192.832 200.855 194.395 202.685 195.833 204.686C200.903 211.737 203.454 219.562 203.5 226.502C203.546 233.443 201.089 239.459 196.188 242.983C191.287 246.506 184.802 246.92 178.237 244.666C171.672 242.412 165.067 237.501 159.998 230.45C154.928 223.4 152.377 215.574 152.331 208.634C152.285 201.693 154.742 195.677 159.643 192.154Z" fill="#E1E1E1"/>
<path fill-rule="evenodd" clip-rule="evenodd" d="M73.6791 174.406C73.2459 168.565 70.7605 163.582 66.5606 160.818L67.0351 160.097C71.5136 163.045 74.0924 168.307 74.54 174.342C74.9878 180.38 73.3084 187.228 69.2315 193.423C65.1421 199.636 59.1139 203.566 53.0041 205.217C46.9022 206.866 40.6748 206.253 36.2075 203.313L36.682 202.592C40.8931 205.363 46.8512 205.986 52.7789 204.384C58.6987 202.784 64.5444 198.974 68.5104 192.948C72.4889 186.903 74.1121 180.243 73.6791 174.406Z" fill="#E1E1E1"/>
<path fill-rule="evenodd" clip-rule="evenodd" d="M148.867 211.955C149.097 204.934 151.83 198.83 156.739 195.3L156.235 194.599C151.055 198.323 148.241 204.711 148.004 211.926C147.768 219.145 150.107 227.228 155.274 234.415C160.455 241.621 167.835 246.009 175.199 247.676C182.555 249.342 189.94 248.301 195.109 244.585L194.606 243.884C189.685 247.422 182.57 248.46 175.389 246.834C168.217 245.21 161.025 240.935 155.975 233.911C150.912 226.869 148.637 218.972 148.867 211.955Z" fill="#E1E1E1"/>
<path fill-rule="evenodd" clip-rule="evenodd" d="M93.9367 167.111C94.0293 167.006 94.1668 166.952 94.3058 166.967L107.465 168.367C107.869 168.41 108.229 168.64 108.438 168.989L112.022 174.961C112.16 175.192 112.474 175.241 112.676 175.064L118.298 170.145C118.766 169.735 119.461 169.716 119.95 170.101L138.823 184.93C139.452 185.424 139.487 186.363 138.898 186.903L136.997 188.646H137.741C139.048 188.646 139.532 190.362 138.418 191.044L132.273 194.81C132.07 194.935 131.836 195.001 131.597 195.001H118.181C117.507 195.001 116.946 194.485 116.89 193.814L116.121 184.584C116.111 184.461 116.049 184.349 115.951 184.275L94.9508 168.457L96.625 175.632C96.701 175.958 96.6479 176.301 96.4766 176.588L89.7491 187.891C89.6533 188.052 89.6722 188.256 89.7959 188.397L101.788 202.024C101.885 202.134 102.033 202.189 102.184 202.168C104.912 201.793 110.517 201.352 114.305 202.244C117.662 203.034 121.279 205.202 123.529 206.551C123.968 206.814 124.355 207.046 124.677 207.23C124.884 207.349 124.956 207.612 124.838 207.819C124.72 208.026 124.456 208.098 124.249 207.98C123.903 207.782 123.497 207.539 123.043 207.267C120.779 205.912 117.316 203.839 114.108 203.084C110.486 202.232 105.018 202.65 102.301 203.024C101.869 203.083 101.432 202.926 101.14 202.594L89.1479 188.967C88.7767 188.545 88.7199 187.932 89.0073 187.449L95.7349 176.147C95.792 176.051 95.8097 175.937 95.7843 175.828L93.8398 167.495C93.8081 167.358 93.8442 167.215 93.9367 167.111ZM95.7665 167.991L107.373 169.226C107.508 169.24 107.628 169.317 107.698 169.433L111.281 175.405C111.697 176.097 112.637 176.245 113.244 175.713L118.866 170.794C119.022 170.658 119.254 170.652 119.417 170.78L138.29 185.609C138.5 185.773 138.511 186.086 138.315 186.266L135.719 188.646H127.504C127.266 188.646 127.072 188.839 127.072 189.077C127.072 189.316 127.266 189.509 127.504 189.509H135.886C135.887 189.509 135.888 189.509 135.889 189.509H137.741C138.177 189.509 138.338 190.081 137.967 190.308L131.822 194.074C131.754 194.116 131.676 194.138 131.597 194.138H118.181C117.956 194.138 117.769 193.966 117.75 193.742L116.981 184.512C116.951 184.145 116.765 183.808 116.47 183.586L95.7665 167.991Z" fill="#E1E1E1"/>
<path fill-rule="evenodd" clip-rule="evenodd" d="M111.852 175.793C112.004 175.609 112.276 175.585 112.459 175.737L127.08 187.921C127.788 188.511 127.67 189.63 126.855 190.061L117.815 194.832C117.741 194.871 117.68 194.931 117.639 195.004L113.428 202.584C113.312 202.793 113.049 202.868 112.841 202.752C112.632 202.636 112.557 202.374 112.673 202.165L116.885 194.585C117.007 194.365 117.19 194.186 117.412 194.068L126.452 189.297C126.724 189.154 126.763 188.78 126.527 188.584L111.907 176.4C111.724 176.248 111.699 175.976 111.852 175.793ZM132.644 194.202C132.847 194.327 132.911 194.592 132.786 194.796L124.981 207.515C124.857 207.718 124.591 207.782 124.388 207.657C124.185 207.532 124.121 207.267 124.246 207.063L132.051 194.344C132.175 194.141 132.441 194.077 132.644 194.202Z" fill="#E1E1E1"/>
<path fill-rule="evenodd" clip-rule="evenodd" d="M199.816 176.993C199.718 177.04 199.599 177.175 199.575 177.377C199.413 178.708 198.941 180.488 197.814 182.097C196.966 183.309 195.71 183.974 194.495 184.317C193.281 184.66 192.074 184.694 191.264 184.615C191.047 184.594 190.854 184.515 190.691 184.406C189.889 183.871 188.566 183.101 187.061 182.438C185.552 181.773 183.889 181.23 182.398 181.124C181.014 181.025 179.322 181.332 177.682 181.801C176.049 182.267 174.504 182.885 173.426 183.379C173.25 183.46 173.154 183.662 173.212 183.865L173.51 184.91C173.54 185.014 173.59 185.063 173.628 185.081C173.927 185.227 174.358 185.368 174.889 185.541C175.045 185.591 175.21 185.645 175.383 185.703C176.119 185.948 176.959 186.251 177.724 186.676C180.379 188.151 183.014 190.785 184.453 192.225L184.468 192.24C184.991 192.763 185.192 193.445 185.227 194.108C185.236 194.262 185.275 194.391 185.324 194.484C185.339 194.513 185.354 194.537 185.368 194.556C185.371 194.544 185.375 194.532 185.379 194.518C185.481 194.126 185.525 193.677 185.469 193.171C185.411 192.652 185.091 191.974 184.57 191.208C184.057 190.454 183.383 189.662 182.68 188.921C182.222 188.437 182.222 187.783 182.48 187.313C182.741 186.837 183.304 186.495 183.966 186.699C186.738 187.557 190.148 188.867 192.231 190.469C194.185 191.971 195.304 193.844 196.07 195.268C196.178 195.468 196.277 195.656 196.369 195.831C196.614 196.295 196.813 196.671 197.002 196.953C197.13 197.145 197.228 197.251 197.299 197.302C197.331 197.326 197.348 197.33 197.351 197.331C197.351 197.331 197.351 197.332 197.356 197.33C197.38 197.324 197.512 197.262 197.608 196.818C197.695 196.413 197.716 195.844 197.68 195.17C197.61 193.831 197.326 192.195 197.039 190.905C196.912 190.331 196.621 189.788 196.266 189.278C195.995 188.887 195.702 188.536 195.428 188.209C195.341 188.105 195.257 188.004 195.175 187.905C195.012 187.704 194.856 187.505 194.74 187.318C194.63 187.142 194.518 186.919 194.509 186.681C194.504 186.551 194.53 186.416 194.601 186.288C194.67 186.162 194.771 186.068 194.881 185.997C195.088 185.865 195.365 185.796 195.673 185.758C196.665 185.634 197.73 184.869 198.639 183.715C199.54 182.572 200.232 181.116 200.507 179.742C200.746 178.544 200.425 177.655 199.992 177.051C199.947 176.988 199.913 176.978 199.903 176.976C199.889 176.972 199.861 176.971 199.816 176.993ZM200.099 176.135C200.337 176.19 200.542 176.336 200.693 176.548C201.254 177.328 201.644 178.458 201.353 179.911C201.05 181.427 200.296 183.007 199.317 184.249C198.348 185.479 197.1 186.449 195.78 186.614C195.572 186.64 195.452 186.675 195.388 186.703C195.404 186.743 195.431 186.795 195.473 186.862C195.558 186.998 195.682 187.161 195.844 187.358C195.915 187.445 195.992 187.538 196.074 187.636C196.352 187.967 196.679 188.359 196.975 188.785C197.362 189.341 197.721 189.99 197.882 190.717C198.174 192.029 198.468 193.718 198.542 195.125C198.579 195.824 198.563 196.483 198.452 197C198.349 197.477 198.119 198.029 197.565 198.168C197.27 198.242 197.006 198.155 196.794 198.002C196.598 197.861 196.432 197.653 196.285 197.434C196.069 197.111 195.838 196.674 195.584 196.192C195.495 196.025 195.404 195.852 195.31 195.677C194.559 194.282 193.51 192.542 191.705 191.153C189.754 189.652 186.475 188.379 183.711 187.524C183.508 187.461 183.337 187.546 183.236 187.729C183.133 187.918 183.143 188.154 183.307 188.327C184.027 189.087 184.735 189.916 185.284 190.723C185.824 191.517 186.245 192.339 186.327 193.076C186.395 193.689 186.343 194.244 186.214 194.737C186.145 194.999 186.012 195.251 185.773 195.391C185.513 195.543 185.233 195.503 185.022 195.386C184.634 195.17 184.393 194.674 184.365 194.153C184.338 193.626 184.183 193.176 183.858 192.851C182.404 191.396 179.844 188.841 177.305 187.43C176.614 187.047 175.838 186.764 175.111 186.522C174.961 186.472 174.812 186.424 174.666 186.376C174.121 186.199 173.608 186.032 173.249 185.857C172.936 185.704 172.758 185.419 172.68 185.147L172.382 184.103C172.212 183.507 172.486 182.86 173.066 182.594C174.175 182.086 175.762 181.452 177.444 180.971C179.119 180.492 180.925 180.153 182.46 180.263C184.093 180.38 185.86 180.966 187.409 181.648C188.963 182.333 190.33 183.128 191.17 183.688C191.233 183.73 191.293 183.751 191.347 183.756C192.068 183.826 193.166 183.796 194.26 183.486C195.353 183.177 196.409 182.6 197.107 181.602C198.131 180.14 198.568 178.508 198.718 177.273C198.775 176.803 199.057 176.401 199.439 176.216C199.634 176.122 199.864 176.08 200.099 176.135Z" fill="#E1E1E1"/>
<path fill-rule="evenodd" clip-rule="evenodd" d="M235.704 199.118C235.906 198.686 236.419 198.499 236.851 198.701C240.077 200.206 248.639 202.727 253.139 203.97C253.891 204.178 254.405 204.86 254.405 205.635V206.042C254.405 206.525 254.201 206.995 253.83 207.323C249.414 211.227 244.032 212.6 237.993 212.249C231.978 211.898 225.271 209.837 218.108 206.838C218.105 206.837 218.102 206.836 218.1 206.836C218.099 206.836 218.098 206.837 218.097 206.837C218.093 206.84 218.088 206.844 218.083 206.85C218.08 206.853 218.077 206.857 218.075 206.86C218.076 206.86 218.076 206.861 218.076 206.861C219.908 209.964 221.456 212.458 223.431 214.336C225.372 216.181 227.755 217.456 231.302 218.021C232.077 218.145 232.6 218.719 232.761 219.353C232.926 219.998 232.727 220.776 232.021 221.218C230.091 222.427 227.589 223.825 225.048 224.899C222.532 225.963 219.87 226.757 217.655 226.651C212.582 226.41 207.126 223.716 204.326 222.171C203.908 221.941 203.757 221.416 203.987 220.999C204.217 220.581 204.742 220.43 205.16 220.66C207.948 222.198 213.097 224.706 217.737 224.927C219.551 225.013 221.917 224.348 224.375 223.309C226.799 222.284 229.208 220.941 231.084 219.767C231.08 219.757 231.074 219.748 231.067 219.742C231.065 219.74 231.062 219.738 231.06 219.736C231.058 219.735 231.056 219.734 231.055 219.733C231.051 219.731 231.044 219.728 231.031 219.726C227.159 219.109 224.45 217.687 222.241 215.587C220.066 213.518 218.406 210.816 216.589 207.739C215.727 206.279 217.256 204.61 218.775 205.246C225.872 208.217 232.367 210.192 238.093 210.525C243.79 210.857 248.684 209.564 252.679 206.037V205.635C252.679 205.634 252.679 205.634 252.678 205.634C248.227 204.404 239.506 201.845 236.121 200.265C235.689 200.064 235.502 199.55 235.704 199.118Z" fill="#E1E1E1"/>
<path fill-rule="evenodd" clip-rule="evenodd" d="M142.449 145.269C135.819 143.898 127.458 144.698 124.108 145.272C123.873 145.312 123.65 145.155 123.61 144.92C123.57 144.685 123.727 144.462 123.962 144.421C127.357 143.839 135.841 143.021 142.624 144.424C146.042 145.131 150.69 147.229 155.081 149.538C159.483 151.853 163.672 154.404 166.188 156.049C166.387 156.179 166.443 156.446 166.313 156.646C166.182 156.845 165.915 156.901 165.715 156.771C163.22 155.139 159.054 152.603 154.679 150.302C150.292 147.995 145.737 145.95 142.449 145.269ZM115.341 148.168C111.493 147.976 102.332 147.941 96.3809 149.314C94.9376 149.647 93.1804 150.436 91.2675 151.517C89.3602 152.595 87.3219 153.951 85.3208 155.401C81.3184 158.299 77.4865 161.555 75.1837 163.666C75.008 163.827 74.735 163.815 74.5739 163.639C74.4129 163.463 74.4247 163.19 74.6004 163.029C76.9229 160.9 80.7805 157.623 84.8144 154.701C86.8315 153.241 88.8981 151.865 90.8427 150.766C92.7818 149.669 94.6237 148.834 96.1868 148.473C102.261 147.071 111.524 147.113 115.384 147.306C115.623 147.318 115.806 147.521 115.794 147.759C115.782 147.997 115.579 148.18 115.341 148.168Z" fill="#E1E1E1"/>
<path fill-rule="evenodd" clip-rule="evenodd" d="M84.4461 137.96C87.2482 136.01 90.0851 134.662 92.6146 134.662C92.8529 134.662 93.0462 134.855 93.0462 135.093C93.0462 135.332 92.8529 135.525 92.6146 135.525C90.359 135.525 87.7055 136.744 84.9392 138.669C82.1869 140.584 79.3855 143.153 76.8464 145.758C74.3093 148.362 72.0442 150.99 70.3639 153.015C69.524 154.028 68.8308 154.889 68.3225 155.522L68.2423 155.622C68.0246 155.893 67.843 156.119 67.7024 156.292C67.5539 156.474 67.4301 156.622 67.359 156.691C67.1876 156.857 66.9144 156.852 66.7487 156.681C66.583 156.509 66.5876 156.236 66.7589 156.07C66.7589 156.07 66.7594 156.07 66.7607 156.069L66.7661 156.063C66.7708 156.058 66.7769 156.051 66.7847 156.043C66.8002 156.026 66.8199 156.003 66.8443 155.974C66.8931 155.917 66.9561 155.841 67.0335 155.746C67.1719 155.576 67.3513 155.353 67.5698 155.081L67.6496 154.982C68.1584 154.348 68.8551 153.482 69.6995 152.464C71.388 150.429 73.6692 147.782 76.2283 145.156C78.7854 142.532 81.6301 139.92 84.4461 137.96Z" fill="#E1E1E1"/>
<path fill-rule="evenodd" clip-rule="evenodd" d="M154.065 104.121C154.469 103.425 155.128 102.789 156.123 102.789C156.853 102.789 157.433 103.136 157.867 103.594C158.297 104.047 158.605 104.626 158.813 105.159C158.948 105.504 159.317 105.643 159.565 105.528C160.772 104.97 162.298 104.291 163.65 103.752C164.326 103.482 164.963 103.245 165.499 103.074C166.017 102.91 166.493 102.789 166.819 102.789C167.203 102.789 167.501 102.976 167.707 103.24C167.901 103.49 168.019 103.813 168.094 104.137C168.245 104.79 168.256 105.603 168.215 106.303C168.197 106.603 168.427 106.836 168.681 106.836H168.815C170.192 106.836 170.617 108.701 169.376 109.298L163.216 112.262C163.399 112.467 163.548 112.668 163.669 112.86C163.879 113.194 164.228 113.407 164.509 113.392C166.542 113.284 169.958 113.714 172.065 116.242C173.253 117.668 173.529 119.705 173.419 121.642C173.309 123.594 172.803 125.536 172.326 126.865C172.267 127.029 172.298 127.211 172.407 127.346C173.468 128.655 174.837 130.765 175.805 133.249C176.772 135.731 177.35 138.619 176.781 141.464C176.178 144.48 173.961 147.518 171.501 150.062C169.03 152.618 166.258 154.734 164.452 155.906C164.252 156.035 163.985 155.979 163.855 155.779C163.725 155.579 163.782 155.311 163.982 155.182C165.741 154.04 168.461 151.965 170.881 149.462C173.311 146.948 175.382 144.059 175.935 141.294C176.46 138.667 175.932 135.954 175.001 133.562C174.07 131.173 172.749 129.138 171.736 127.889C171.437 127.519 171.354 127.021 171.514 126.574C171.97 125.3 172.453 123.441 172.558 121.593C172.663 119.73 172.379 117.968 171.401 116.795C169.556 114.581 166.489 114.151 164.554 114.254C163.855 114.291 163.25 113.815 162.938 113.319C162.777 113.063 162.537 112.768 162.193 112.456C161.49 111.82 160.357 111.121 158.596 110.57C156.076 109.783 153.777 110.358 152.264 111.091C151.703 111.362 151.259 111.651 150.961 111.891C150.906 111.935 150.847 111.977 150.777 112.017C148.559 113.274 145 115.489 141.482 118.075C137.956 120.667 134.506 123.608 132.475 126.317C129.968 129.659 129.673 133.792 130.029 137.251C130.207 138.975 130.545 140.516 130.84 141.684C130.954 142.131 131.06 142.521 131.149 142.849C131.176 142.95 131.202 143.045 131.226 143.134C131.276 143.32 131.319 143.484 131.35 143.616C131.377 143.734 131.405 143.87 131.405 143.981C131.405 144.219 131.211 144.412 130.973 144.412C130.735 144.412 130.541 144.219 130.541 143.981C130.541 143.981 130.541 143.98 130.541 143.979C130.54 143.971 130.535 143.923 130.508 143.809C130.482 143.694 130.443 143.545 130.393 143.358C130.369 143.272 130.344 143.179 130.317 143.08C130.228 142.752 130.119 142.351 130.004 141.896C129.703 140.706 129.354 139.121 129.171 137.34C128.805 133.789 129.088 129.394 131.784 125.799C133.895 122.984 137.43 119.982 140.971 117.38C144.519 114.771 148.107 112.539 150.352 111.266C150.373 111.254 150.394 111.239 150.42 111.218C150.745 110.957 151.193 110.664 151.737 110.388L153.362 106.357C153.378 106.319 153.389 106.275 153.395 106.223C153.464 105.64 153.662 104.815 154.065 104.121ZM152.862 109.905C154.458 109.334 156.57 109.033 158.853 109.747C160.549 110.277 161.739 110.952 162.551 111.624L169.002 108.52C169.416 108.321 169.274 107.699 168.815 107.699H168.681C167.885 107.699 167.309 107.002 167.353 106.253C167.392 105.58 167.377 104.865 167.253 104.332C167.191 104.064 167.11 103.879 167.026 103.77C166.952 103.676 166.891 103.652 166.819 103.652C166.644 103.652 166.287 103.73 165.761 103.897C165.253 104.059 164.636 104.287 163.97 104.553C162.638 105.085 161.127 105.756 159.928 106.312C159.142 106.675 158.289 106.189 158.009 105.474C157.824 105 157.567 104.531 157.241 104.188C156.92 103.85 156.553 103.652 156.123 103.652C155.56 103.652 155.135 103.996 154.811 104.554C154.486 105.115 154.313 105.816 154.252 106.326C154.238 106.441 154.211 106.561 154.163 106.68L152.862 109.905Z" fill="#E1E1E1"/>
<path fill-rule="evenodd" clip-rule="evenodd" d="M198.805 125.956C195.725 124.241 191.84 125.279 190.026 128.302L189.286 127.858C191.339 124.435 195.738 123.26 199.225 125.202L210.281 131.36C213.716 133.273 214.886 137.65 212.863 141.022L212.123 140.577C213.895 137.624 212.87 133.79 209.861 132.114L198.805 125.956Z" fill="#E1E1E1"/>
<path fill-rule="evenodd" clip-rule="evenodd" d="M200.036 128.658C199.077 128.102 198.672 126.926 199.084 125.897L199.885 126.218C199.633 126.849 199.881 127.57 200.469 127.912L206.282 131.287C207.098 131.76 208.141 131.518 208.665 130.733L209.383 131.211C208.607 132.376 207.059 132.736 205.848 132.033L200.036 128.658Z" fill="#E1E1E1"/>
<path fill-rule="evenodd" clip-rule="evenodd" d="M158.159 160.227C158.199 160.19 158.247 160.161 158.298 160.142C160.163 159.449 162.737 160.058 165.47 163.335C168.193 166.6 168.86 169.575 168.831 170.737C168.828 170.866 168.767 170.987 168.665 171.067L163.409 175.179C163.268 175.289 163.074 175.301 162.921 175.209C162.685 175.067 162.269 174.866 161.818 174.74C161.354 174.61 160.927 174.581 160.622 174.694C160.592 174.705 160.542 174.73 160.511 174.887C160.477 175.056 160.487 175.303 160.545 175.612C160.661 176.222 160.935 176.925 161.156 177.386C161.208 177.495 161.212 177.622 161.166 177.734C161.121 177.847 161.03 177.935 160.917 177.977L160.375 178.178C160.239 178.229 160.088 178.208 159.971 178.123C159.708 177.933 159.272 177.659 158.832 177.464C158.612 177.367 158.405 177.296 158.227 177.261C158.05 177.226 157.94 177.235 157.881 177.255C157.873 177.266 157.857 177.295 157.842 177.362C157.812 177.497 157.81 177.7 157.841 177.957C157.903 178.465 158.077 179.055 158.221 179.443C158.304 179.667 158.19 179.915 157.967 179.998L154.004 181.471L151.258 184.595C151.174 184.691 151.051 184.744 150.924 184.741C149.271 184.7 145.447 183.743 143.11 180.23C140.768 176.707 141.679 173.494 142.49 172.273C142.532 172.209 142.591 172.157 142.66 172.123L152.993 167.094C152.818 166.663 152.652 166.126 152.599 165.611C152.564 165.268 152.576 164.898 152.7 164.569C152.83 164.222 153.082 163.931 153.483 163.782C154.279 163.486 154.946 163.933 155.377 164.408C155.697 164.762 155.952 165.195 156.131 165.574L156.694 165.364L155.737 162.788C155.676 162.623 155.721 162.436 155.852 162.318L158.159 160.227ZM157.887 177.249C157.887 177.249 157.886 177.251 157.883 177.253C157.885 177.25 157.887 177.248 157.887 177.249ZM157.668 161.837L156.648 162.761L157.654 165.468C157.737 165.692 157.623 165.94 157.4 166.023L156.045 166.526C155.821 166.609 155.573 166.496 155.49 166.272C155.351 165.898 155.081 165.367 154.737 164.988C154.384 164.599 154.072 164.484 153.784 164.591C153.643 164.644 153.56 164.733 153.508 164.872C153.449 165.028 153.43 165.249 153.458 165.524C153.514 166.074 153.744 166.7 153.944 167.109C153.994 167.212 154.002 167.331 153.965 167.439C153.927 167.548 153.848 167.637 153.745 167.687L143.148 172.846C142.518 173.89 141.765 176.648 143.829 179.752C145.875 182.828 149.187 183.763 150.747 183.869L153.428 180.819C153.475 180.765 153.535 180.724 153.602 180.699L157.273 179.335C157.153 178.952 157.036 178.491 156.984 178.061C156.949 177.765 156.939 177.45 157 177.175C157.06 176.902 157.215 176.581 157.573 176.448C157.842 176.348 158.135 176.364 158.392 176.414C158.656 176.465 158.927 176.563 159.181 176.675C159.522 176.826 159.855 177.014 160.127 177.187C159.955 176.755 159.787 176.248 159.697 175.772C159.631 175.42 159.599 175.047 159.664 174.72C159.731 174.381 159.917 174.035 160.321 173.885C160.883 173.676 161.527 173.762 162.05 173.909C162.447 174.02 162.817 174.177 163.101 174.323L166.233 171.873C165.539 171.91 164.846 171.779 164.157 171.478C162.713 170.847 161.332 169.488 159.967 167.496C159.096 166.224 158.364 164.906 157.973 163.685C157.771 163.055 157.654 162.428 157.668 161.837ZM167.962 170.478C166.759 171.126 165.628 171.179 164.503 170.687C163.277 170.151 162.009 168.948 160.679 167.008C159.831 165.77 159.15 164.53 158.795 163.422C158.461 162.378 158.439 161.526 158.747 160.901C160.141 160.462 162.291 160.871 164.807 163.888C167.227 166.79 167.893 169.383 167.962 170.478ZM159.764 160.909C159.996 160.964 160.139 161.196 160.084 161.428C159.866 162.351 159.863 164.639 161.601 166.262C163.428 167.969 165.931 169.045 166.942 169.363C167.169 169.435 167.295 169.677 167.224 169.904C167.152 170.132 166.91 170.258 166.682 170.186C165.597 169.844 162.964 168.717 161.012 166.893C158.971 164.987 158.983 162.335 159.244 161.229C159.299 160.997 159.532 160.854 159.764 160.909Z" fill="#E1E1E1"/>
<path fill-rule="evenodd" clip-rule="evenodd" d="M62.6562 81.465C63.3491 82.4518 64.2543 84.0478 65.0211 86.065C66.658 90.3706 67.6412 96.5277 64.6737 102.745C61.6446 109.092 60.1036 112.605 59.5127 115.043C59.2137 116.276 59.153 117.251 59.2689 118.188C59.3837 119.116 59.67 119.987 60.0315 120.999C60.663 122.767 62.1012 123.897 63.6188 124.592C65.1369 125.287 66.7836 125.571 67.9353 125.621C68.1734 125.632 68.3749 125.447 68.3852 125.209C68.3956 124.971 68.2109 124.769 67.9728 124.759C66.9081 124.713 65.375 124.447 63.9782 123.808C62.581 123.168 61.3693 122.178 60.8445 120.709C60.4833 119.698 60.2276 118.906 60.1256 118.082C60.0247 117.266 60.0724 116.398 60.3516 115.246C60.9169 112.914 62.4113 109.49 65.4528 103.117C68.5559 96.6151 67.5156 90.1973 65.828 85.7583C64.9841 83.5383 63.9723 81.7963 63.2162 80.7648C63.0267 80.5063 62.8504 80.2884 62.6938 80.1169C62.543 79.9516 62.3917 79.8082 62.2518 79.7192C62.1882 79.6786 62.0795 79.6179 61.9461 79.6057C61.872 79.5989 61.7742 79.6058 61.6747 79.6557C61.5716 79.7075 61.5011 79.7883 61.4587 79.871C61.3855 80.014 61.3958 80.1601 61.4051 80.2357C61.4164 80.3273 61.4421 80.4239 61.4739 80.5195C62.315 83.0427 66.3506 97.0378 53.4506 113.359C49.5469 118.298 49.2981 122.81 50.481 126.347C51.4808 129.337 53.4921 131.599 55.0955 132.826C54.0535 132.426 52.5579 131.797 50.4979 130.867C48.2485 129.852 47.0781 127.993 46.5152 125.827C45.9488 123.647 46.0081 121.187 46.2094 119.052C46.2966 118.127 46.4093 117.272 46.5071 116.53C46.5221 116.417 46.5366 116.307 46.5507 116.199C46.6545 115.405 46.7381 114.722 46.7181 114.289C46.7129 114.177 46.7002 114.061 46.6716 113.955C46.6449 113.856 46.5914 113.716 46.4695 113.607C46.3254 113.478 46.1451 113.444 45.982 113.474C45.8418 113.5 45.7228 113.571 45.6328 113.637C45.45 113.77 45.2464 113.989 45.0203 114.268C44.7885 114.554 44.5119 114.931 44.1839 115.405C43.1067 116.961 41.8203 119.839 40.6825 123.428C39.5415 127.027 38.5393 131.375 38.0455 135.888C37.0618 144.88 38.0813 154.683 44.244 160.442C44.4182 160.605 44.6913 160.596 44.8541 160.422C45.0168 160.247 45.0076 159.974 44.8334 159.812C38.9876 154.349 37.9258 144.92 38.9036 135.982C39.3905 131.531 40.3797 127.24 41.5053 123.689C42.6342 120.128 43.8895 117.347 44.8936 115.896C45.2161 115.43 45.4788 115.073 45.6911 114.811C45.7503 114.738 45.8042 114.674 45.853 114.619C45.836 114.968 45.7767 115.461 45.6948 116.087C45.6809 116.194 45.6664 116.303 45.6515 116.416C45.5538 117.157 45.4388 118.029 45.35 118.97C45.146 121.135 45.0748 123.716 45.6797 126.044C46.2881 128.385 47.5907 130.502 50.1427 131.654C53.7841 133.298 55.7504 134.043 56.5749 134.22C56.6823 134.243 56.7832 134.26 56.8735 134.266C56.9512 134.271 57.0733 134.273 57.1926 134.227C57.2584 134.201 57.3468 134.152 57.4161 134.058C57.49 133.958 57.5142 133.844 57.5084 133.745C57.4989 133.579 57.4089 133.458 57.3691 133.408C57.2713 133.284 57.1172 133.158 56.9555 133.039C56.7844 132.914 56.5705 132.774 56.3255 132.626C54.8113 131.708 52.3981 129.358 51.2997 126.073C50.2128 122.823 50.3976 118.614 54.1278 113.895C65.8943 99.0073 63.8546 85.9616 62.6562 81.465ZM62.2618 80.1298C62.2606 80.1201 62.2617 80.1213 62.2619 80.1305L62.2618 80.1298ZM61.7787 80.4418C61.7786 80.4417 61.7803 80.4425 61.7838 80.4446C61.7804 80.443 61.7787 80.442 61.7787 80.4418ZM45.8354 114.171C45.8355 114.171 45.836 114.173 45.8368 114.175C45.8358 114.173 45.8354 114.172 45.8354 114.171ZM56.692 133.943C56.6983 133.951 56.6963 133.951 56.6905 133.942C56.6911 133.942 56.6916 133.943 56.692 133.943ZM56.9469 133.405C56.9499 133.405 56.9514 133.405 56.9514 133.405C56.9513 133.405 56.9499 133.405 56.9469 133.405Z" fill="#E1E1E1"/>
<path fill-rule="evenodd" clip-rule="evenodd" d="M84.6094 63.513C84.7914 63.5954 84.8931 63.7921 84.8552 63.9883C84.5684 65.47 84.1952 67.8389 84.0088 70.1204C83.9156 71.2613 83.8698 72.3725 83.9034 73.3359C83.9373 74.3102 84.0514 75.0917 84.254 75.5981C84.3701 75.8883 84.6362 76.272 85.0541 76.7488C85.4654 77.2181 85.996 77.747 86.6074 78.327C87.0908 78.7855 87.6295 79.28 88.1944 79.7986C89.0381 80.5731 89.9403 81.4012 90.8033 82.2427C92.2545 83.6575 93.656 85.1664 94.6226 86.6627C95.5824 88.1487 96.1648 89.7012 95.8377 91.1731C95.2593 93.7761 93.3752 96.0825 91.5582 98.3067C91.4741 98.4098 91.39 98.5126 91.3063 98.6153C89.3766 100.982 87.5827 103.278 87.1704 105.89C87.0104 106.903 87.1664 108.234 87.5345 109.737C87.9005 111.231 88.4655 112.853 89.0894 114.43C89.594 115.705 90.1348 116.946 90.6359 118.059C90.5618 116.479 90.7688 114.667 91.552 112.876C93.1956 109.12 96.5224 104.688 97.9756 102.944C98.1138 102.779 98.3532 102.74 98.5362 102.855C98.7192 102.97 98.7893 103.202 98.7005 103.398C98.032 104.879 97.0413 107.334 96.2475 109.875C95.4484 112.434 94.8697 115.017 94.9799 116.78C94.998 117.07 95.1449 117.297 95.4652 117.472C95.805 117.658 96.3256 117.774 97.0138 117.784C98.3834 117.804 100.262 117.403 102.252 116.575C106.238 114.918 110.507 111.626 111.966 106.912C112.036 106.684 112.278 106.557 112.506 106.627C112.733 106.698 112.861 106.939 112.79 107.167C111.227 112.22 106.698 115.662 102.583 117.373C100.522 118.229 98.5243 118.669 97.0014 118.647C96.2433 118.636 95.5636 118.511 95.0502 118.229C94.5172 117.937 94.158 117.469 94.1183 116.834C93.9973 114.898 94.623 112.181 95.4235 109.618C95.8125 108.373 96.2476 107.149 96.6702 106.046C95.1697 108.11 93.3935 110.821 92.3428 113.222C90.9135 116.489 91.5681 119.865 92.1801 121.453C92.2428 121.597 92.2988 121.729 92.3471 121.848C92.4355 122.065 92.3348 122.313 92.1202 122.406C91.9055 122.5 91.6553 122.406 91.5563 122.193C91.4998 122.072 91.4416 121.936 91.3832 121.785C91.196 121.356 90.9458 120.812 90.654 120.177C90.5108 119.866 90.3577 119.533 90.197 119.181C89.6043 117.882 88.9184 116.344 88.2867 114.747C87.6556 113.152 87.0751 111.49 86.6961 109.942C86.3193 108.404 86.1308 106.939 86.3177 105.755C86.7726 102.874 88.7367 100.401 90.6373 98.0698C90.7021 97.9904 90.7668 97.9111 90.8314 97.8319C92.6994 95.543 94.4623 93.3829 94.995 90.9859C95.2461 89.8561 94.8166 88.554 93.8975 87.1311C92.9851 85.7186 91.6404 84.2644 90.2007 82.8608C89.3388 82.0204 88.4643 81.2179 87.6337 80.4558C87.0671 79.9359 86.521 79.4348 86.0134 78.9533C85.3963 78.368 84.8428 77.8174 84.4049 77.3178C83.9737 76.8257 83.6255 76.3512 83.4525 75.9187C83.1925 75.2688 83.0754 74.3641 83.0407 73.366C83.0056 72.3571 83.0537 71.2098 83.1485 70.0501C83.2747 68.5043 83.4849 66.9224 83.6973 65.5935C82.6691 66.9833 81.4453 68.7163 80.3429 70.434C79.5809 71.6214 78.8806 72.7957 78.3436 73.8409C77.8012 74.8966 77.4451 75.7837 77.3411 76.4075C77.217 77.1526 77.4134 78.0174 77.8553 79.0692C78.2361 79.9754 78.7755 80.9689 79.385 82.0914C79.4817 82.2695 79.5801 82.4508 79.68 82.6356C81.1281 85.3146 82.8235 88.6244 83.4133 92.7529C83.5467 93.6866 83.2839 94.5937 82.7879 95.4798C82.2939 96.3623 81.5524 97.2535 80.6814 98.171C79.9486 98.943 79.1081 99.75 78.2255 100.597C78.0581 100.758 77.8892 100.92 77.7193 101.084C76.6491 102.114 75.5295 103.21 74.4479 104.401C72.2844 106.782 70.29 109.523 69.1761 112.818C68.0649 116.104 67.821 119.967 69.1992 124.613C69.267 124.841 69.1367 125.081 68.9081 125.149C68.6796 125.217 68.4394 125.087 68.3716 124.858C66.9443 120.047 67.1883 116.002 68.3583 112.541C69.5255 109.089 71.6054 106.246 73.809 103.82C74.9111 102.607 76.0482 101.494 77.1206 100.462C77.2928 100.296 77.4632 100.133 77.6314 99.9711C78.5143 99.1233 79.3376 98.3328 80.0554 97.5767C80.9107 96.6756 81.5936 95.8462 82.0347 95.0582C82.4737 94.2738 82.6566 93.5602 82.5588 92.875C81.9922 88.9094 80.3633 85.715 78.9206 83.0461C78.8225 82.8646 78.7251 82.6852 78.6287 82.5078C78.0216 81.39 77.4584 80.3529 77.0595 79.4036C76.5981 78.3054 76.3248 77.255 76.4897 76.2656C76.617 75.5019 77.0269 74.5148 77.5758 73.4464C78.1301 72.3675 78.8463 71.1678 79.6164 69.9678C81.1569 67.5674 82.928 65.1431 84.0901 63.642C84.2125 63.484 84.4273 63.4306 84.6094 63.513Z" fill="#E1E1E1"/>
<path fill-rule="evenodd" clip-rule="evenodd" d="M157.28 0.815385C157.28 0.81543 157.28 0.816088 157.278 0.817219C157.28 0.815906 157.28 0.815341 157.28 0.815385ZM156.922 1.39155C156.605 2.06519 156.351 3.09712 156.118 4.33644C155.986 5.03935 155.864 5.7906 155.74 6.55584L155.724 6.65323C155.606 7.38507 155.486 8.12789 155.355 8.8422C155.084 10.3213 154.76 11.7311 154.284 12.7035C154.046 13.1891 153.746 13.6151 153.352 13.8722C152.932 14.1461 152.445 14.2003 151.928 14.0122C151.133 13.7231 150.503 12.9265 149.998 11.9731C149.482 10.9993 149.045 9.76616 148.682 8.46097C148.097 6.35582 147.69 4.01625 147.453 2.17014C146.876 3.16324 146.201 4.4781 145.61 5.94138C144.777 8.00636 144.124 10.3323 144.124 12.4503C144.124 13.7574 144.487 15.3685 145.024 17.2363C145.279 18.1229 145.57 19.0572 145.874 20.0356L145.919 20.1779C146.239 21.2064 146.572 22.2811 146.89 23.3885C148.158 27.8088 149.197 32.8102 148.162 37.6896C147.337 41.5798 145.776 43.8743 144.105 45.1418C142.44 46.4053 140.697 46.623 139.565 46.4072C139.43 46.3816 139.316 46.294 139.257 46.171C139.197 46.0479 139.2 45.904 139.263 45.783C140.318 43.7699 142.586 38.7876 143.267 34.9233C143.429 34.0096 143.373 32.8083 143.157 31.4376C142.942 30.0735 142.573 28.5716 142.13 27.0698C141.471 24.8404 140.652 22.6276 139.942 20.8921C139.308 27.37 136.742 39.7177 130.167 48.8373C125.753 54.96 124.608 61.5894 124.249 66.3594C124.159 67.5515 124.119 68.6259 124.088 69.5488C124.085 69.6634 124.081 69.776 124.077 69.8863C124.053 70.6579 124.031 71.3214 123.986 71.8343C123.961 72.1276 123.927 72.3897 123.874 72.6045C123.827 72.8017 123.747 73.0359 123.58 73.1977C123.485 73.2889 123.361 73.3586 123.211 73.378C123.066 73.3968 122.934 73.364 122.827 73.3169C122.627 73.2286 122.441 73.0581 122.269 72.8671C121.961 72.5244 121.696 72.0382 121.464 71.4709C121.23 70.8979 121.017 70.2144 120.824 69.4553C120.437 67.9369 120.12 66.0844 119.864 64.1432C119.588 62.0551 119.381 59.853 119.233 57.8348C118.473 63.2488 117.29 70.6986 116.071 75.5738C115.287 78.7094 115.725 82.8186 116.622 86.726C117.516 90.6203 118.851 94.2507 119.804 96.3965C119.854 96.5077 119.854 96.6346 119.805 96.7459C119.756 96.8573 119.662 96.9427 119.547 96.9812C118.629 97.2872 117.166 97.5328 115.733 97.2709C114.283 97.0058 112.839 96.2115 112.076 94.4291C111.355 92.7476 110.82 89.7995 110.44 86.8488C110.217 85.1156 110.045 83.3607 109.921 81.8245C108.888 86.3109 107.491 92.909 107.12 96.6147C106.903 98.7874 107.762 100.902 108.971 102.69C110.177 104.474 111.702 105.884 112.726 106.629C112.919 106.77 112.961 107.04 112.821 107.232C112.681 107.425 112.411 107.468 112.218 107.328C111.123 106.531 109.525 105.05 108.256 103.173C106.988 101.299 106.016 98.9813 106.261 96.5288C106.727 91.8688 108.778 82.7822 109.74 78.8358C109.791 78.6276 109.987 78.4882 110.2 78.5083C110.413 78.5284 110.58 78.702 110.591 78.9159C110.687 80.786 110.917 83.7956 111.296 86.7386C111.677 89.6995 112.202 92.533 112.869 94.0891C113.493 95.5444 114.651 96.1955 115.889 96.4218C116.932 96.6124 118.014 96.4952 118.818 96.2941C117.865 94.0691 116.629 90.6124 115.781 86.9192C114.876 82.9781 114.398 78.7041 115.233 75.3644C116.845 68.9175 118.404 57.879 118.982 53.1577C119.009 52.9341 119.204 52.7692 119.429 52.779C119.654 52.7887 119.833 52.9699 119.841 53.195C119.937 55.9317 120.211 60.1812 120.72 64.0302C120.974 65.9555 121.286 67.7706 121.66 69.2423C121.848 69.9782 122.049 70.6205 122.263 71.144C122.48 71.6731 122.699 72.0542 122.911 72.2896C122.957 72.3415 122.998 72.3827 123.032 72.4152C123.033 72.4106 123.034 72.4059 123.036 72.401C123.072 72.2492 123.102 72.0377 123.127 71.7595C123.169 71.272 123.189 70.6356 123.215 69.8584C123.218 69.7485 123.222 69.6358 123.226 69.5203C123.256 68.5947 123.297 67.5055 123.388 66.2947C123.752 61.4528 124.919 54.6402 129.467 48.3325C136.567 38.4832 138.927 24.7213 139.214 19.0771C139.225 18.8778 139.37 18.7115 139.566 18.6748C139.762 18.6381 139.958 18.7406 140.039 18.9228C140.865 20.7677 142.057 23.7778 142.957 26.8252C143.407 28.3491 143.787 29.8897 144.01 31.3032C144.231 32.71 144.303 34.0212 144.118 35.0733C143.471 38.74 141.467 43.3141 140.317 45.6165C141.204 45.6296 142.401 45.3512 143.583 44.4542C145.05 43.3416 146.524 41.2518 147.317 37.5104C148.306 32.8502 147.321 28.023 146.06 23.6265C145.745 22.5296 145.415 21.4634 145.094 20.4344L145.049 20.2881C144.745 19.313 144.452 18.3705 144.195 17.4748C143.657 15.6027 143.261 13.8894 143.261 12.4503C143.261 10.1743 143.957 7.73043 144.81 5.61824C145.664 3.50168 146.69 1.68338 147.38 0.647765C147.482 0.496102 147.667 0.424306 147.844 0.468371C148.021 0.512436 148.151 0.662861 148.169 0.844232C148.36 2.75522 148.805 5.67806 149.514 8.22977C149.869 9.50701 150.286 10.6732 150.761 11.5687C151.246 12.4848 151.746 13.0276 152.223 13.201C152.501 13.3019 152.701 13.2658 152.881 13.149C153.086 13.0153 153.299 12.7503 153.508 12.3236C153.926 11.4711 154.234 10.1709 154.506 8.68687C154.635 7.98153 154.754 7.24665 154.872 6.51225L154.888 6.41801C155.011 5.65429 155.135 4.89241 155.27 4.17703C155.534 2.76852 155.852 1.46405 156.331 0.665118C156.443 0.477478 156.558 0.312462 156.676 0.198639C156.735 0.142021 156.82 0.0730485 156.931 0.0329741C157.058 -0.012552 157.214 -0.0177625 157.363 0.0611953C157.493 0.130685 157.567 0.238818 157.606 0.313861C157.648 0.39242 157.675 0.476381 157.693 0.551777C157.731 0.702769 157.753 0.888892 157.768 1.08953C157.796 1.46197 157.805 1.9615 157.816 2.53933C157.817 2.58843 157.818 2.63808 157.819 2.68828C157.83 3.33585 157.846 4.08806 157.891 4.91084C158.071 8.22245 158.718 12.5739 161.364 15.6371C162.125 16.5188 163.069 17.4983 164.125 18.5942C164.974 19.4749 165.895 20.4308 166.852 21.4718C168.979 23.7844 171.231 26.4642 173.077 29.4983C176.777 35.5786 178.849 43.0997 175.02 51.9364C167.513 69.2588 168.163 75.7473 170.385 80.1904C170.476 80.373 170.555 80.5155 170.624 80.6242C170.625 80.6211 170.625 80.618 170.626 80.6149C170.708 80.2633 170.77 79.7271 170.829 79.0406C170.859 78.692 170.886 78.3334 170.915 77.9523C170.944 77.562 170.976 77.1482 171.014 76.6976C171.159 74.9785 171.378 73.0011 171.859 71.283C172.335 69.5852 173.098 68.0273 174.412 67.2879C174.552 67.2091 174.683 67.1353 174.803 67.0669C175.171 66.8591 175.45 66.7011 175.645 66.6047C175.762 66.5465 175.908 66.4795 176.045 66.4609C176.113 66.4516 176.261 66.4417 176.405 66.5369C176.571 66.6462 176.614 66.8133 176.622 66.9144C176.628 67.0076 176.61 67.0915 176.597 67.1443C176.581 67.2032 176.56 67.2638 176.538 67.3212C176.497 67.4291 176.44 67.5616 176.376 67.7063L176.366 67.7301C176.228 68.0451 176.047 68.4632 175.863 68.997C175.134 71.116 174.342 75.1368 176.478 81.4005C178.296 86.733 180.31 89.7425 181.923 92.1512C182.215 92.5875 182.494 93.0041 182.756 93.4112C183.613 94.7429 184.304 95.9937 184.66 97.4977C185.017 99.0045 185.029 100.731 184.587 103.013C183.885 106.642 182.136 111.565 180.249 116.225C178.358 120.892 176.316 125.324 175.011 127.982C174.906 128.196 174.648 128.285 174.434 128.18C174.22 128.075 174.131 127.816 174.236 127.602C175.533 124.96 177.567 120.547 179.449 115.901C181.334 111.247 183.054 106.39 183.74 102.849C184.165 100.651 184.141 99.0533 183.82 97.6965C183.498 96.3368 182.871 95.1847 182.03 93.8785C181.773 93.4803 181.498 93.0697 181.209 92.6372C179.592 90.2227 177.517 87.1245 175.661 81.679C173.46 75.2234 174.259 71.0055 175.047 68.716C175.185 68.3153 175.322 67.9761 175.439 67.6993C175.38 67.7324 175.318 67.7677 175.252 67.8051C175.127 67.8758 174.989 67.954 174.835 68.0402C173.837 68.6017 173.154 69.8623 172.691 71.516C172.233 73.1494 172.018 75.0565 171.874 76.7701C171.839 77.1863 171.807 77.6103 171.776 78.0133C171.746 78.4099 171.717 78.7862 171.689 79.1145C171.63 79.7954 171.565 80.3907 171.467 80.8115C171.419 81.0161 171.354 81.2238 171.251 81.3837C171.198 81.4663 171.119 81.5612 171.002 81.6277C170.876 81.7004 170.73 81.7242 170.584 81.6943C170.336 81.6431 170.157 81.4493 170.038 81.2936C169.903 81.1166 169.762 80.8754 169.613 80.5765C167.209 75.7692 166.702 68.9601 174.228 51.5932C177.915 43.0853 175.94 35.8634 172.34 29.947C170.536 26.9827 168.327 24.3507 166.216 22.0561C165.295 21.0545 164.383 20.1067 163.532 19.2236C162.455 18.1046 161.478 17.0897 160.711 16.2013C157.864 12.9048 157.21 8.29485 157.029 4.95768C156.983 4.11827 156.967 3.35282 156.955 2.70406C156.955 2.65747 156.954 2.61156 156.953 2.56633C156.945 2.10041 156.937 1.70692 156.922 1.39155Z" fill="#E1E1E1"/>
</svg>
