<svg width="334" height="411" viewBox="0 0 334 411" fill="none" xmlns="http://www.w3.org/2000/svg">
<path d="M333.933 303.04C333.926 303.033 333.916 303.029 333.906 303.03C322.31 304.201 311.728 305.255 301.185 306.348C276.3 308.848 251.415 311.308 226.531 313.925C208.717 315.76 200.122 329.897 207.037 346.3C209.146 351.299 212.194 355.907 215.006 360.555C223.483 374.536 221.608 390.938 210.162 401.951C199.146 412.535 182.035 414.019 169.182 405.427C156.447 396.953 151.681 381.097 157.15 366.061C159.182 360.476 161.447 354.814 162.385 348.995C164.924 333.1 153.79 321.384 137.695 322.907C109.685 325.563 81.7144 328.531 53.7044 331.342C35.9296 333.1 27.9602 326.695 26.1632 308.926C17.4906 223.633 8.85712 138.379 0.301754 53.1246C-1.49526 35.3943 4.59897 27.9351 22.2176 26.1386C107.498 17.5078 192.817 8.87692 278.097 0.285126C295.755 -1.51135 303.841 5.08871 305.677 22.7409C308.412 49.4146 311.108 76.1272 313.764 102.84C314.819 113.462 311.655 115.845 301.146 113.384C290.637 110.924 279.972 106.94 269.464 107.253C249.189 107.8 232.625 122.757 227.312 142.206C222.116 161.147 229.304 181.806 245.126 193.6C261.338 205.668 282.824 206.41 300.13 195.67C304.076 193.21 308.139 190.789 312.358 188.875C318.178 186.18 322.319 188.25 322.984 194.655C326.731 230.359 330.283 266.062 333.991 303.013C333.994 303.044 333.956 303.062 333.933 303.04Z" fill="#E4391F"/>
<mask id="mask0_18_315" style="mask-type:alpha" maskUnits="userSpaceOnUse" x="0" y="0" width="334" height="411">
<path d="M387.376 346.846C387.369 346.838 387.359 346.835 387.349 346.836C375.753 348.007 365.171 349.06 354.628 350.153C329.743 352.652 304.858 355.113 279.973 357.729C262.159 359.564 253.565 373.701 260.479 390.104C262.589 395.103 265.636 399.711 268.448 404.359C276.925 418.34 275.05 434.742 263.604 445.755C252.587 456.339 235.476 457.823 222.624 449.231C209.888 440.756 205.123 424.9 210.592 409.864C212.624 404.28 214.889 398.617 215.827 392.798C218.367 376.903 207.233 365.187 191.138 366.71C163.128 369.365 135.157 372.333 107.147 375.144C89.372 376.902 81.4027 370.497 79.6059 352.727C70.9345 267.434 62.3021 182.18 53.7478 96.9259C51.951 79.1956 58.0454 71.7364 75.664 69.9402C160.944 61.3105 246.264 52.6807 331.544 44.09C349.202 42.2938 357.288 48.894 359.124 66.5462C361.858 93.2199 364.553 119.933 367.209 146.645C368.264 157.268 365.1 159.65 354.591 157.19C344.083 154.729 333.418 150.745 322.909 151.058C302.634 151.604 286.07 166.562 280.757 186.01C275.561 204.951 282.749 225.611 298.57 237.405C314.782 249.473 336.268 250.215 353.574 239.475C357.52 237.015 361.583 234.594 365.802 232.68C371.623 229.986 375.764 232.056 376.428 238.46C380.174 274.164 383.726 309.868 387.433 346.818C387.437 346.85 387.398 346.868 387.376 346.846Z" fill="#E4391F"/>
</mask>
<g mask="url(#mask0_18_315)">
<g clip-path="url(#clip0_18_320)">
<path d="M99.673 200C44.6984 200 -0.000244141 155.156 -0.000244141 100C-0.000244141 44.8439 44.6984 0 99.673 0C154.648 0 199.346 44.8439 199.346 100C199.346 155.156 154.648 200 99.673 200ZM99.673 3.63108C46.7318 3.63108 3.63084 46.8773 3.63084 100C3.63084 153.123 46.7318 196.369 99.673 196.369C152.614 196.369 195.715 153.123 195.715 100C195.715 46.8773 152.614 3.63108 99.673 3.63108Z" fill="#FEFBF3"/>
<path d="M99.6729 183.261C53.9213 183.261 16.7027 145.897 16.7027 100C16.7027 54.1031 53.9213 16.7393 99.6729 16.7393C145.425 16.7393 182.643 54.1031 182.643 100C182.643 145.897 145.425 183.261 99.6729 183.261ZM99.6729 20.3703C55.9184 20.3703 20.3338 56.1002 20.3338 100C20.3338 143.9 55.9184 179.63 99.6729 179.63C143.427 179.63 179.012 143.9 179.012 100C179.012 56.1002 143.427 20.3703 99.6729 20.3703Z" fill="#FEFBF3"/>
<path d="M29.5965 57.6302L27.7876 60.7786L169.812 142.38L171.621 139.232L29.5965 57.6302Z" fill="#FEFBF3"/>
<path d="M74.0012 151.67C71.9678 151.67 69.9707 151.452 67.901 151.017C66.9206 150.799 66.3033 149.855 66.5212 148.874C66.739 147.894 67.7194 147.276 68.6635 147.494C82.3527 150.472 95.824 141.394 98.5473 128.068C98.7652 127.051 99.4914 126.289 100.472 126.071C101.416 125.853 102.396 126.144 103.014 126.906C107.189 131.844 113.29 134.64 119.753 134.64C124.691 134.64 129.339 133.043 133.188 130.029C135.621 128.177 137.654 125.817 139.07 123.166C139.687 121.968 140.886 121.133 142.266 120.951C151.452 119.826 158.351 111.982 158.351 102.759C158.351 92.9555 150.871 84.3862 142.338 84.3862H140.45C138.852 84.3862 137.509 83.4058 137 81.8807C135.947 78.5764 134.132 75.6716 131.626 73.1298C130.9 72.4036 130.9 71.278 131.626 70.5517C132.353 69.8255 133.478 69.8255 134.205 70.5517C137.073 73.4566 139.252 76.9424 140.45 80.7188H142.338C152.796 80.7188 161.982 90.9947 161.982 102.723C161.982 113.798 153.703 123.166 142.738 124.546C142.556 124.546 142.374 124.691 142.266 124.873C140.595 127.995 138.235 130.755 135.403 132.897C130.9 136.42 125.49 138.271 119.753 138.271C112.926 138.271 106.427 135.548 101.634 130.755C98.2205 142.992 86.8916 151.706 73.9649 151.706L74.0012 151.67Z" fill="#FEFBF3"/>
<path d="M56.1 144.844C55.6279 144.844 55.1559 144.662 54.8291 144.299C54.7928 144.263 54.7202 144.19 54.6839 144.154C48.6926 138.744 45.2794 131.009 45.2794 122.912C45.2794 118.301 46.3324 113.943 48.4384 109.876C48.5836 109.622 48.5836 109.295 48.4384 109.005C46.3687 104.974 45.3157 100.581 45.3157 96.0057C45.3157 85.3666 51.1254 75.6716 60.421 70.697C63.5074 68.9904 66.9569 67.9011 70.588 67.4654C73.5292 60.1306 80.283 55.5554 87.9446 55.5554C94.9889 55.5554 101.416 59.5859 104.43 65.8677C112.055 61.9098 121.677 62.164 129.157 66.5576C130.029 67.0659 130.319 68.1916 129.811 69.0267C129.303 69.8982 128.177 70.1887 127.342 69.6803C120.77 65.7951 112.164 65.7225 105.628 69.3535C104.938 69.753 104.03 69.8619 103.231 69.6077C102.433 69.3535 101.743 68.6999 101.416 67.9011C99.092 62.5997 93.8269 59.1865 87.9809 59.1865C81.8444 59.1865 76.434 62.8902 74.2191 68.591C73.6744 69.9708 72.5125 70.8786 71.0964 71.0601C67.901 71.4232 64.9235 72.3673 62.2002 73.8561C54.0303 78.2134 48.9831 86.7101 48.9831 95.9694C48.9831 99.9636 49.8908 103.812 51.7064 107.335C52.36 108.678 52.36 110.167 51.7064 111.474C49.8908 115.033 48.9467 118.845 48.9467 122.876C48.9467 129.993 51.9969 136.819 57.2619 141.539C57.5161 141.721 57.6977 141.975 57.8066 142.266C58.0971 142.956 57.9155 143.754 57.4072 144.263C57.0441 144.626 56.572 144.807 56.1363 144.807L56.1 144.844Z" fill="#FEFBF3"/>
<path d="M150.072 70.0435C145.279 70.0435 141.358 66.1219 141.358 61.3289C141.358 56.5358 145.279 52.6143 150.072 52.6143C154.865 52.6143 158.787 56.5358 158.787 61.3289C158.787 66.1219 154.865 70.0435 150.072 70.0435ZM150.072 56.2817C147.276 56.2817 144.989 58.5692 144.989 61.3652C144.989 64.1611 147.276 66.4487 150.072 66.4487C152.868 66.4487 155.156 64.1611 155.156 61.3652C155.156 58.5692 152.868 56.2817 150.072 56.2817Z" fill="#FEFBF3"/>
<path d="M61.8371 155.156C57.2619 155.156 53.5582 151.452 53.5582 146.877C53.5582 142.302 57.2619 138.598 61.8371 138.598C66.4123 138.598 70.116 142.302 70.116 146.877C70.116 151.452 66.4123 155.156 61.8371 155.156ZM61.8371 142.229C59.259 142.229 57.1893 144.336 57.1893 146.877C57.1893 149.419 59.259 151.525 61.8371 151.525C64.4152 151.525 66.4849 149.455 66.4849 146.877C66.4849 144.299 64.4152 142.229 61.8371 142.229Z" fill="#FEFBF3"/>
<path d="M67.7921 98.6565H70.588C72.0767 98.6565 73.275 97.4582 73.275 95.9695C73.275 94.4807 72.0767 93.2825 70.588 93.2825H67.7921C66.3033 93.2825 65.1051 94.4807 65.1051 95.9695C65.1051 97.4582 66.3033 98.6565 67.7921 98.6565Z" fill="#FEFBF3"/>
<path d="M85.3665 119.462H88.1624C89.6512 119.462 90.8494 118.264 90.8494 116.775C90.8494 115.287 89.6512 114.088 88.1624 114.088H85.3665C83.8778 114.088 82.6795 115.287 82.6795 116.775C82.6795 118.264 83.8778 119.462 85.3665 119.462Z" fill="#FEFBF3"/>
<path d="M113.398 84.0957H118.954C120.443 84.0957 121.641 82.8974 121.641 81.4087C121.641 79.9199 120.443 78.7217 118.954 78.7217H113.398C111.91 78.7217 110.711 79.9199 110.711 81.4087C110.711 82.8974 111.91 84.0957 113.398 84.0957Z" fill="#FEFBF3"/>
<path d="M97.8211 164.669H100.181C101.67 164.669 102.868 163.471 102.868 161.982C102.868 160.494 101.67 159.295 100.181 159.295H97.8211C96.3324 159.295 95.1341 160.494 95.1341 161.982C95.1341 163.471 96.3324 164.669 97.8211 164.669Z" fill="#FEFBF3"/>
<path d="M67.7921 128.758H70.588C72.0767 128.758 73.275 127.56 73.275 126.071C73.275 124.582 72.0767 123.384 70.588 123.384H67.7921C66.3033 123.384 65.1051 124.582 65.1051 126.071C65.1051 127.56 66.3033 128.758 67.7921 128.758Z" fill="#FEFBF3"/>
<path d="M133.551 104.03H136.347C137.836 104.03 139.034 102.832 139.034 101.343C139.034 99.8548 137.836 98.6565 136.347 98.6565H133.551C132.062 98.6565 130.864 99.8548 130.864 101.343C130.864 102.832 132.062 104.03 133.551 104.03Z" fill="#FEFBF3"/>
</g>
<path d="M164.713 441.421C167.654 477.083 177.979 456.565 194.393 440.715C213.628 422.18 238.918 412.213 265.629 412.71C320.75 413.668 364.789 459.355 363.794 514.471C363.334 541.187 352.468 566.091 333.233 584.626C313.997 603.161 288.708 613.128 262.033 612.636C235.322 612.14 210.413 601.31 191.878 582.075C173.343 562.839 163.376 537.55 163.873 510.839C163.939 506.98 164.222 503.15 164.718 441.385L164.713 441.421ZM359.329 525.448C359.806 521.828 360.07 518.142 360.158 514.397C361.108 461.301 318.652 417.296 265.555 416.346C239.836 415.87 215.441 425.476 196.958 443.336C178.438 461.192 167.986 485.193 167.504 510.949C167.028 536.668 176.634 561.063 194.49 579.582C212.346 598.102 236.383 608.559 262.102 609.036C287.821 609.512 312.216 599.906 330.736 582.05C346.562 566.75 356.529 546.994 359.36 525.489L359.329 525.448Z" fill="#FEFBF3"/>
<path d="M180.8 501.723C186.805 456.106 228.945 423.902 274.707 429.926C320.468 435.951 352.837 477.965 346.831 523.582C340.825 569.199 298.686 601.403 252.924 595.378C207.163 589.354 174.794 547.34 180.8 501.723ZM343.211 523.105C348.954 479.479 318 439.309 274.23 433.547C230.459 427.784 190.164 458.574 184.42 502.2C178.677 545.826 209.63 585.996 253.401 591.758C297.172 597.521 337.462 566.767 343.211 523.105Z" fill="#FEFBF3"/>
</g>
<defs>
<clipPath id="clip0_18_315">
<rect width="199.346" height="200" fill="white" transform="translate(328.015 124.74) rotate(97.5)"/>
</clipPath>
</defs>
</svg>
