<svg width="334" height="411" viewBox="0 0 334 411" fill="none" xmlns="http://www.w3.org/2000/svg">
<path d="M333.933 303.04C333.926 303.033 333.916 303.029 333.906 303.03C322.31 304.201 311.728 305.255 301.185 306.348C276.3 308.848 251.415 311.308 226.531 313.925C208.717 315.76 200.122 329.897 207.037 346.3C209.146 351.299 212.194 355.907 215.006 360.555C223.483 374.536 221.608 390.938 210.162 401.951C199.146 412.535 182.035 414.019 169.182 405.427C156.447 396.953 151.681 381.097 157.15 366.061C159.182 360.476 161.447 354.814 162.385 348.995C164.924 333.1 153.79 321.384 137.695 322.907C109.685 325.563 81.7144 328.531 53.7044 331.342C35.9296 333.1 27.9602 326.695 26.1632 308.926C17.4906 223.633 8.85712 138.379 0.301754 53.1246C-1.49526 35.3943 4.59897 27.9351 22.2176 26.1386C107.498 17.5078 192.817 8.87692 278.097 0.285126C295.755 -1.51135 303.841 5.08871 305.677 22.7409C308.412 49.4146 311.108 76.1272 313.764 102.84C314.819 113.462 311.655 115.845 301.146 113.384C290.637 110.924 279.972 106.94 269.464 107.253C249.189 107.8 232.625 122.757 227.312 142.206C222.116 161.147 229.304 181.806 245.126 193.6C261.338 205.668 282.824 206.41 300.13 195.67C304.076 193.21 308.139 190.789 312.358 188.875C318.178 186.18 322.319 188.25 322.984 194.655C326.731 230.359 330.283 266.062 333.991 303.013C333.994 303.044 333.956 303.062 333.933 303.04Z" fill="#524F5A"/>
<mask id="mask0_18_441" style="mask-type:alpha" maskUnits="userSpaceOnUse" x="0" y="0" width="334" height="411">
<path d="M333.933 303.04C333.926 303.033 333.916 303.029 333.906 303.03C322.31 304.201 311.728 305.255 301.185 306.348C276.3 308.848 251.415 311.308 226.531 313.925C208.717 315.76 200.122 329.897 207.037 346.3C209.146 351.299 212.194 355.907 215.006 360.555C223.483 374.536 221.608 390.938 210.162 401.951C199.146 412.535 182.035 414.019 169.182 405.427C156.447 396.953 151.681 381.097 157.15 366.061C159.182 360.476 161.447 354.814 162.385 348.995C164.924 333.1 153.79 321.384 137.695 322.907C109.685 325.563 81.7144 328.531 53.7044 331.342C35.9296 333.1 27.9602 326.695 26.1632 308.926C17.4906 223.633 8.85712 138.379 0.301754 53.1246C-1.49526 35.3943 4.59897 27.9351 22.2176 26.1386C107.498 17.5078 192.817 8.87692 278.097 0.285126C295.755 -1.51135 303.841 5.08871 305.677 22.7409C308.412 49.4146 311.108 76.1272 313.764 102.84C314.819 113.462 311.655 115.845 301.146 113.384C290.637 110.924 279.972 106.94 269.464 107.253C249.189 107.8 232.625 122.757 227.312 142.206C222.116 161.147 229.304 181.806 245.126 193.6C261.338 205.668 282.824 206.41 300.13 195.67C304.076 193.21 308.139 190.789 312.358 188.875C318.178 186.18 322.319 188.25 322.984 194.655C326.731 230.359 330.283 266.062 333.991 303.013C333.994 303.044 333.956 303.062 333.933 303.04Z" fill="#524F5A"/>
</mask>
<g mask="url(#mask0_18_441)">
<g clip-path="url(#clip0_18_441)">
<path d="M256 168.201C256 190.732 248.441 212.422 234.236 230.279C217.585 251.166 193.812 264.348 167.265 267.343C112.491 273.587 62.8649 234.04 56.6571 179.265C53.6263 152.718 61.1486 126.609 77.8001 105.721C94.4515 84.8341 118.224 71.6517 144.735 68.6574C171.282 65.663 197.391 73.1489 218.278 89.8003C239.166 106.452 252.348 130.224 255.343 156.771C255.781 160.606 256 164.44 256 168.237V168.201ZM59.6515 167.799C59.6515 171.451 59.8706 175.139 60.2722 178.864C66.2609 231.63 114.097 269.716 166.863 263.728C192.425 260.843 215.357 248.135 231.351 228.015C247.382 207.894 254.612 182.734 251.727 157.136C248.843 131.575 236.135 108.643 216.014 92.6121C195.894 76.5814 170.698 69.3512 145.136 72.236C119.575 75.1208 96.6425 87.8284 80.6118 107.949C66.9182 125.185 59.6149 146.072 59.6149 167.763L59.6515 167.799Z" fill="#FEFBF3"/>
<path d="M221.529 182.223L220.506 185.729C204.987 181.274 190.453 180.726 177.271 184.122C168.69 186.313 162.445 189.709 156.42 192.995C149.19 196.903 141.74 200.956 130.603 202.745C119.356 204.571 107.598 203.622 95.6934 199.897L96.7889 196.392C108.182 199.934 119.356 200.846 130.055 199.13C140.572 197.414 147.437 193.726 154.704 189.782C160.948 186.386 167.411 182.917 176.394 180.58C190.198 177.038 205.388 177.586 221.565 182.223H221.529Z" fill="#FEFBF3"/>
<path d="M218.936 159.473L217.913 162.979C202.394 158.524 187.86 157.976 174.678 161.372C166.097 163.563 159.852 166.959 153.827 170.246C146.597 174.153 139.148 178.206 128.01 179.996C116.763 181.821 105.005 180.872 93.064 177.147L94.1595 173.642C105.553 177.184 116.727 178.097 127.426 176.38C137.943 174.664 144.808 170.976 152.074 167.032C158.319 163.636 164.782 160.167 173.765 157.83C187.568 154.288 202.759 154.836 218.936 159.473Z" fill="#FEFBF3"/>
<path d="M205.115 194.278C205.115 196.311 204.897 198.308 204.461 200.378C204.243 201.359 203.299 201.976 202.319 201.758C201.338 201.54 200.721 200.56 200.939 199.616C203.916 185.927 194.839 172.455 181.513 169.732C180.496 169.514 179.733 168.788 179.516 167.807C179.298 166.863 179.588 165.883 180.351 165.266C185.289 161.09 188.085 154.99 188.085 148.526C188.085 143.588 186.487 138.94 183.473 135.091C181.622 132.659 179.261 130.625 176.611 129.209C175.412 128.592 174.577 127.393 174.396 126.014C173.27 116.827 165.427 109.928 156.204 109.928C146.4 109.928 137.831 117.408 137.831 125.941V127.829C137.831 129.427 136.85 130.77 135.325 131.279C132.021 132.332 129.116 134.147 126.574 136.653C125.848 137.379 124.723 137.379 123.996 136.653C123.27 135.927 123.27 134.801 123.996 134.075C126.901 131.206 130.387 129.027 134.163 127.829V125.941C134.163 115.484 144.439 106.297 156.168 106.297C167.243 106.297 176.611 114.576 177.991 125.542C177.991 125.723 178.136 125.905 178.317 126.014C181.44 127.684 184.2 130.044 186.342 132.876C189.864 137.379 191.716 142.789 191.716 148.526C191.716 155.353 188.993 161.852 184.2 166.645C196.436 170.059 205.151 181.388 205.151 194.314L205.115 194.278Z" fill="#FEFBF3"/>
<path d="M198.288 212.179C198.288 212.651 198.107 213.123 197.744 213.45C197.707 213.487 197.635 213.559 197.598 213.595C192.188 219.587 184.454 223 176.357 223C171.745 223 167.388 221.947 163.321 219.841C163.067 219.696 162.74 219.696 162.45 219.841C158.419 221.911 154.025 222.964 149.45 222.964C138.811 222.964 129.116 217.154 124.142 207.858C122.435 204.772 121.346 201.322 120.91 197.691C113.575 194.75 109 187.996 109 180.335C109 173.29 113.03 166.863 119.312 163.85C115.354 156.224 115.609 146.602 120.002 139.122C120.511 138.251 121.636 137.96 122.471 138.468C123.343 138.977 123.633 140.102 123.125 140.938C119.24 147.51 119.167 156.115 122.798 162.651C123.198 163.341 123.306 164.249 123.052 165.048C122.798 165.847 122.145 166.537 121.346 166.863C116.044 169.187 112.631 174.452 112.631 180.298C112.631 186.435 116.335 191.845 122.036 194.06C123.415 194.605 124.323 195.767 124.505 197.183C124.868 200.378 125.812 203.356 127.301 206.079C131.658 214.249 140.155 219.296 149.414 219.296C153.408 219.296 157.257 218.389 160.779 216.573C162.123 215.919 163.611 215.919 164.919 216.573C168.477 218.389 172.29 219.333 176.32 219.333C183.437 219.333 190.264 216.282 194.984 211.017C195.166 210.763 195.42 210.582 195.71 210.473C196.4 210.182 197.199 210.364 197.707 210.872C198.07 211.235 198.252 211.707 198.252 212.143L198.288 212.179Z" fill="#FEFBF3"/>
<path d="M208.601 206.442C208.601 211.017 204.897 214.721 200.322 214.721C195.747 214.721 192.043 211.017 192.043 206.442C192.043 201.867 195.747 198.163 200.322 198.163C204.897 198.163 208.601 201.867 208.601 206.442ZM195.674 206.442C195.674 209.02 197.78 211.09 200.322 211.09C202.864 211.09 204.97 209.02 204.97 206.442C204.97 203.864 202.9 201.795 200.322 201.795C197.744 201.795 195.674 203.864 195.674 206.442Z" fill="#FEFBF3"/>
<path d="M216.38 136.724L215.357 140.229C199.838 135.774 185.304 135.226 172.122 138.622C163.541 140.813 157.296 144.209 151.271 147.496C144.041 151.403 136.592 155.457 125.454 157.246C114.207 159.072 102.449 158.122 90.5444 154.398L91.6399 150.892C103.033 154.434 114.207 155.347 124.906 153.631C135.423 151.914 142.288 148.226 149.555 144.283C155.799 140.887 162.263 137.417 171.246 135.08C185.049 131.538 200.24 132.086 216.416 136.724H216.38Z" fill="#FEFBF3"/>
<path d="M239.75 168.018C239.75 214.029 202.175 251.458 156.018 251.458C109.861 251.458 72.2861 214.029 72.2861 168.018C72.2861 122.008 109.861 84.5783 156.018 84.5783C202.175 84.5783 239.75 122.008 239.75 168.018ZM75.9378 168.018C75.9378 212.02 111.87 247.806 156.018 247.806C200.166 247.806 236.098 212.02 236.098 168.018C236.098 124.016 200.166 88.2299 156.018 88.2299C111.87 88.2299 75.9378 123.979 75.9378 168.018Z" fill="#FEFBF3"/>
</g>
<path d="M299 466.209C299 488.74 291.441 510.431 277.236 528.287C260.585 549.175 236.812 562.357 210.265 565.351C155.491 571.596 105.865 532.048 99.6571 477.274C96.6263 450.727 104.149 424.617 120.8 403.73C137.452 382.843 161.224 369.66 187.735 366.666C214.282 363.672 240.391 371.157 261.278 387.809C282.166 404.46 295.348 428.232 298.343 454.78C298.781 458.614 299 462.448 299 466.246V466.209ZM102.651 465.808C102.651 469.459 102.871 473.148 103.272 476.872C109.261 529.638 157.097 567.725 209.863 561.736C235.425 558.851 258.357 546.144 274.351 526.023C290.382 505.903 297.612 480.743 294.727 455.145C291.843 429.584 279.135 406.651 259.014 390.621C238.894 374.59 213.698 367.36 188.136 370.245C162.575 373.129 139.643 385.837 123.612 405.958C109.918 423.193 102.615 444.081 102.615 465.771L102.651 465.808Z" fill="#FEFBF3"/>
<path d="M282.75 466.027C282.75 512.037 245.175 549.467 199.018 549.467C152.861 549.467 115.286 512.037 115.286 466.027C115.286 420.016 152.861 382.587 199.018 382.587C245.175 382.587 282.75 420.016 282.75 466.027ZM118.938 466.027C118.938 510.029 154.87 545.815 199.018 545.815C243.166 545.815 279.098 510.029 279.098 466.027C279.098 422.025 243.166 386.238 199.018 386.238C154.87 386.238 118.938 421.988 118.938 466.027Z" fill="#FEFBF3"/>
</g>
<defs>
<clipPath id="clip0_18_441">
<rect width="200" height="200" fill="white" transform="matrix(0 -1 1 0 56 268)"/>
</clipPath>
</defs>
</svg>
