<svg width="334" height="411" viewBox="0 0 334 411" fill="none" xmlns="http://www.w3.org/2000/svg">
<path d="M333.933 303.04C333.926 303.033 333.916 303.029 333.906 303.03C322.31 304.201 311.728 305.255 301.185 306.348C276.3 308.848 251.415 311.308 226.531 313.925C208.717 315.76 200.122 329.897 207.037 346.3C209.146 351.299 212.194 355.907 215.006 360.555C223.483 374.536 221.608 390.938 210.162 401.951C199.146 412.535 182.035 414.019 169.182 405.427C156.447 396.953 151.681 381.097 157.15 366.061C159.182 360.476 161.447 354.814 162.385 348.995C164.924 333.1 153.79 321.384 137.695 322.907C109.685 325.563 81.7144 328.531 53.7044 331.342C35.9296 333.1 27.9602 326.695 26.1632 308.926C17.4906 223.633 8.85712 138.379 0.301754 53.1246C-1.49526 35.3943 4.59897 27.9351 22.2176 26.1386C107.498 17.5078 192.817 8.87692 278.097 0.285126C295.755 -1.51135 303.841 5.08871 305.677 22.7409C308.412 49.4146 311.108 76.1272 313.764 102.84C314.819 113.462 311.655 115.845 301.146 113.384C290.637 110.924 279.972 106.94 269.464 107.253C249.189 107.8 232.625 122.757 227.312 142.206C222.116 161.147 229.304 181.806 245.126 193.6C261.338 205.668 282.824 206.41 300.13 195.67C304.076 193.21 308.139 190.789 312.358 188.875C318.178 186.18 322.319 188.25 322.984 194.655C326.731 230.359 330.283 266.062 333.991 303.013C333.994 303.044 333.956 303.062 333.933 303.04Z" fill="#00A1E5"/>
<mask id="mask0_18_576" style="mask-type:alpha" maskUnits="userSpaceOnUse" x="0" y="0" width="334" height="411">
<path d="M368.166 332.047C368.159 332.04 368.149 332.036 368.139 332.037C356.537 333.152 345.95 334.155 335.402 335.197C310.506 337.577 285.609 339.917 260.712 342.413C242.889 344.163 234.227 358.258 241.062 374.694C243.148 379.703 246.172 384.326 248.963 388.987C257.372 403.009 255.418 419.402 243.919 430.36C232.851 440.89 215.734 442.291 202.923 433.638C190.228 425.102 185.539 409.223 191.081 394.214C193.139 388.639 195.432 382.987 196.398 377.173C199.014 361.291 187.937 349.521 171.835 350.966C143.812 353.487 115.827 356.32 87.8038 358.996C70.0207 360.668 62.0823 354.225 60.3711 336.447C52.1105 251.113 43.8888 165.818 35.7452 80.5238C34.0338 62.785 40.164 55.3553 57.791 53.644C143.112 45.425 228.472 37.2062 313.793 29.0263C331.459 27.3151 339.513 33.9542 341.264 51.6151C343.87 78.3016 346.436 105.027 348.964 131.752C349.967 142.38 346.791 144.747 336.295 142.236C325.798 139.724 315.153 135.69 304.643 135.951C284.365 136.4 267.729 151.277 262.323 170.7C257.035 189.616 264.124 210.31 279.888 222.18C296.042 234.326 317.524 235.172 334.882 224.516C338.839 222.074 342.914 219.673 347.142 217.779C352.976 215.113 357.107 217.203 357.74 223.611C361.314 259.332 364.694 295.052 368.223 332.02C368.226 332.052 368.188 332.07 368.166 332.047Z" fill="#00A1E5"/>
</mask>
<g mask="url(#mask0_18_576)">
<g clip-path="url(#clip0_18_576)">
<path d="M199.213 211.423C202.293 211.692 205.176 212.979 207.484 215.142C210.185 217.697 211.705 221.111 211.811 224.794C211.916 228.477 210.574 231.997 208.055 234.702C205.5 237.403 202.086 238.923 198.403 239.029C194.72 239.134 191.2 237.792 188.496 235.273C185.794 232.718 184.274 229.304 184.168 225.621C184.063 221.938 185.405 218.418 187.924 215.714C190.479 213.013 193.893 211.492 197.576 211.386C198.113 211.362 198.682 211.376 199.213 211.423ZM197.075 235.453C197.465 235.487 197.889 235.524 198.285 235.487C201.038 235.407 203.598 234.276 205.486 232.265C207.374 230.255 208.349 227.665 208.305 224.915C208.225 222.162 207.093 219.602 205.083 217.714C203.072 215.826 200.447 214.848 197.733 214.895C194.979 214.976 192.419 216.107 190.532 218.117C188.644 220.128 187.668 222.717 187.713 225.468C187.793 228.221 188.924 230.781 190.935 232.669C192.648 234.281 194.775 235.252 197.075 235.453Z" fill="#FEFBF3"/>
<path d="M176.139 165.749L176.197 167.537L177.306 167.492L177.914 188.267C178.076 193.346 180.157 198.093 183.884 201.558C187.573 205.055 192.404 206.904 197.519 206.745C207.995 206.449 216.29 197.652 215.997 187.14L215.545 171.515L219.086 171.397L219.538 187.022C219.723 193.066 217.51 198.793 213.381 203.175C209.253 207.558 203.645 210.099 197.604 210.248C191.561 210.432 185.834 208.219 181.416 204.088C177.037 199.924 174.531 194.319 174.343 188.311L173.678 165.748L176.145 165.678L176.139 165.749Z" fill="#FEFBF3"/>
<path d="M164.227 210.181C170.102 210.695 174.812 215.565 174.997 221.609C175.078 224.755 173.959 227.76 171.76 230.064C169.597 232.371 166.664 233.684 163.518 233.766C160.373 233.847 157.368 232.728 155.063 230.529C152.756 228.366 151.443 225.433 151.362 222.287C151.28 219.142 152.399 216.137 154.598 213.832C156.762 211.525 159.694 210.212 162.84 210.131C163.306 210.1 163.766 210.141 164.227 210.181ZM162.477 230.179C162.795 230.207 163.114 230.235 163.439 230.192C165.655 230.136 167.698 229.209 169.194 227.593C170.727 225.979 171.517 223.872 171.458 221.692C171.321 217.15 167.535 213.538 162.958 213.672C160.742 213.728 158.699 214.655 157.202 216.272C155.67 217.885 154.88 219.992 154.939 222.172C154.994 224.389 155.921 226.431 157.535 227.963C158.919 229.262 160.636 230.018 162.477 230.179Z" fill="#FEFBF3"/>
<path d="M170.247 177.645L170.66 191.27C170.787 195.526 172.258 199.506 174.962 202.846L176.057 204.19L174.745 205.323C171.432 208.136 167.259 209.769 162.897 209.886C152.35 210.176 143.556 201.846 143.228 191.331L142.856 178.459L170.244 177.681L170.247 177.645ZM171.078 203.612C168.576 200.004 167.234 195.785 167.084 191.385L166.786 181.337L146.477 181.914L146.734 191.21C146.982 199.791 154.165 206.554 162.747 206.306C165.751 206.213 168.614 205.286 171.043 203.608L171.078 203.612Z" fill="#FEFBF3"/>
<path d="M233.593 208.189C236.248 208.421 238.684 209.526 240.662 211.375C242.969 213.539 244.282 216.471 244.363 219.617C244.445 222.763 243.326 225.768 241.127 228.072C238.963 230.379 236.031 231.692 232.885 231.774C226.343 231.95 220.908 226.803 220.729 220.296C220.647 217.15 221.766 214.145 223.965 211.841C226.128 209.533 229.061 208.22 232.207 208.139C232.673 208.108 233.133 208.149 233.593 208.189ZM231.844 228.187C232.162 228.215 232.481 228.243 232.805 228.2C235.022 228.144 237.064 227.217 238.561 225.601C240.093 223.987 240.884 221.881 240.825 219.7C240.769 217.484 239.842 215.441 238.229 213.909C236.615 212.377 234.509 211.586 232.328 211.645C230.112 211.701 228.069 212.628 226.572 214.244C225.04 215.858 224.25 217.964 224.308 220.145C224.438 224.365 227.741 227.793 231.847 228.152L231.844 228.187Z" fill="#FEFBF3"/>
<path d="M219.92 238.094C224.416 238.487 227.98 242.187 228.111 246.799C228.187 249.196 227.31 251.473 225.659 253.219C224.008 254.965 221.779 255.982 219.386 256.023C216.99 256.098 214.713 255.221 212.967 253.571C211.221 251.92 210.203 249.691 210.163 247.298C210.087 244.902 210.964 242.624 212.615 240.879C214.266 239.133 216.495 238.115 218.888 238.075C219.245 238.07 219.602 238.066 219.92 238.094ZM224.573 246.882C224.479 243.878 221.975 241.519 218.971 241.613C217.504 241.663 216.168 242.259 215.184 243.315C214.2 244.37 213.651 245.748 213.701 247.215C213.751 248.682 214.348 250.018 215.403 251.002C216.458 251.986 217.872 252.538 219.303 252.484C220.77 252.434 222.106 251.838 223.09 250.783C224.074 249.728 224.623 248.349 224.573 246.882Z" fill="#FEFBF3"/>
<path d="M199.754 250.489C204.249 250.882 207.813 254.582 207.945 259.195C208.081 264.164 204.151 268.314 199.217 268.453C194.247 268.589 190.094 264.695 189.958 259.725C189.822 254.756 193.717 250.603 198.686 250.467C199.043 250.462 199.4 250.458 199.719 250.486L199.754 250.489ZM204.407 259.277C204.313 256.273 201.809 253.914 198.804 254.008C197.338 254.058 196.002 254.654 195.018 255.71C194.034 256.765 193.485 258.143 193.535 259.61C193.629 262.614 196.133 264.973 199.137 264.88C202.141 264.786 204.5 262.281 204.407 259.277Z" fill="#FEFBF3"/>
<path d="M178.943 239.288C180.96 239.464 182.813 240.304 184.294 241.718C186.04 243.368 187.058 245.597 187.098 247.99C187.173 250.387 186.297 252.664 184.646 254.41C182.995 256.156 180.766 257.173 178.373 257.214C175.977 257.289 173.7 256.412 171.954 254.762C170.208 253.111 169.19 250.882 169.15 248.489C169.074 246.093 169.951 243.815 171.602 242.069C173.252 240.324 175.481 239.306 177.875 239.266C178.232 239.261 178.589 239.257 178.943 239.288ZM183.595 248.076C183.545 246.61 182.949 245.273 181.893 244.289C180.838 243.306 179.424 242.754 177.993 242.807C176.526 242.857 175.19 243.453 174.206 244.509C173.222 245.564 172.673 246.942 172.723 248.409C172.773 249.876 173.37 251.212 174.425 252.196C175.48 253.18 176.859 253.729 178.326 253.678C179.792 253.628 181.128 253.032 182.112 251.977C183.096 250.922 183.645 249.543 183.595 248.076Z" fill="#FEFBF3"/>
<path d="M250.376 175.347L250.748 188.219C251.038 198.766 242.743 207.563 232.193 207.888C227.867 208.009 223.564 206.634 220.12 204.015L218.749 202.967L219.764 201.558C222.242 198.101 223.493 194.002 223.398 189.785L223.02 176.163L250.409 175.385L250.376 175.347ZM232.078 204.312C240.659 204.064 247.422 196.88 247.174 188.299L246.918 179.003L226.609 179.58L226.907 189.629C227.018 194.061 225.897 198.314 223.607 202.073C226.147 203.614 229.041 204.367 232.045 204.273L232.078 204.312Z" fill="#FEFBF3"/>
<path d="M237.536 158.594L239.975 156.011L217.083 134.401L214.644 136.985L237.536 158.594Z" fill="#FEFBF3"/>
<path d="M223.23 125.251L225.799 127.687L217.11 136.913C215.145 138.988 212.398 140.21 209.539 140.281L187.053 140.882C179.796 141.067 172.723 143.23 166.57 147.115L148.148 158.735C146.338 159.861 145.738 162.233 146.754 164.07C147.767 165.942 150.092 166.68 151.99 165.776L162.069 161.058C169.173 157.721 176.77 155.675 184.572 154.967L199.779 153.587L200.113 157.111L184.906 158.491C177.5 159.163 170.304 161.101 163.572 164.257L153.494 168.975C149.887 170.657 145.553 169.243 143.611 165.756C141.707 162.237 142.841 157.843 146.201 155.711L164.623 144.091C171.306 139.861 178.999 137.538 186.902 137.302L209.389 136.701C211.283 136.653 213.139 135.817 214.473 134.435L223.162 125.209L223.23 125.251Z" fill="#FEFBF3"/>
<path d="M249.505 143.314L252.074 145.75L234.073 164.79C226.759 172.567 215.844 175.429 205.633 172.288C200.217 170.602 194.552 169.714 188.893 169.576L176.115 169.278C171.592 169.203 167.788 165.803 167.187 161.257L167.125 160.752L170.626 160.273L170.689 160.778C171.052 163.556 173.33 165.646 176.177 165.717L188.955 166.014C194.971 166.148 200.916 167.096 206.645 168.882C215.535 171.621 225.061 169.138 231.433 162.348L249.434 143.308L249.505 143.314Z" fill="#FEFBF3"/>
<path d="M206.631 102.185C256.431 106.542 296.305 147.729 297.781 198.932C299.381 254.034 255.827 300.156 200.691 301.752C145.59 303.351 99.4676 259.798 97.8716 204.661C96.2724 149.56 139.829 103.402 194.962 101.842C198.896 101.722 202.808 101.85 206.631 102.185ZM189.368 297.872C193.049 298.194 196.819 298.31 200.608 298.213C226.353 297.47 250.259 286.757 267.949 268.011C285.638 249.265 294.987 224.76 294.243 199.015C292.725 145.847 248.213 103.861 195.08 105.383C141.912 106.902 99.9266 151.413 101.448 204.546C102.835 253.922 141.301 293.667 189.368 297.872Z" fill="#FEFBF3"/>
<path d="M204.944 120.655C249.541 124.557 282.635 164.152 278.721 208.892C274.806 253.631 235.343 286.843 190.745 282.941C146.147 279.04 113.054 239.444 116.968 194.705C120.882 149.965 160.349 116.718 204.947 120.62L204.944 120.655ZM191.052 279.437C233.703 283.169 271.437 251.375 275.181 208.582C278.925 165.789 247.285 127.926 204.634 124.194C161.983 120.463 124.248 152.257 120.505 195.05C116.761 237.842 148.368 275.667 191.055 279.402L191.052 279.437Z" fill="#FEFBF3"/>
</g>
<path d="M236.702 390.904C259.147 392.868 280.096 402.289 296.647 417.996C316.003 436.404 327.064 461.235 327.733 487.942C329.179 543.053 285.458 589.043 230.35 590.453C203.64 591.159 178.286 581.389 158.929 562.981C139.573 544.572 128.512 519.742 127.84 493.071C127.171 466.363 136.904 441.006 155.312 421.649C173.721 402.293 198.551 391.232 225.259 390.563C229.116 390.461 232.955 390.577 236.738 390.908L236.702 390.904ZM219.189 586.471C222.827 586.789 226.52 586.892 230.265 586.817C283.353 585.45 325.463 541.115 324.096 488.027C323.45 462.312 312.79 438.359 294.14 420.672C275.493 402.949 251.059 393.554 225.307 394.196C199.592 394.842 175.639 405.503 157.916 424.15C140.193 442.797 130.794 467.267 131.44 492.982C132.086 518.698 142.746 542.65 161.393 560.374C177.37 575.517 197.541 584.613 219.149 586.504L219.189 586.471Z" fill="#FEFBF3"/>
<path d="M235.103 407.077C280.939 411.087 314.951 451.781 310.928 497.762C306.905 543.743 266.344 577.913 220.508 573.903C174.673 569.893 140.661 529.199 144.683 483.218C148.706 437.237 189.268 403.066 235.103 407.077ZM220.826 570.266C264.661 574.101 303.443 541.424 307.29 497.444C311.138 453.464 278.62 414.549 234.785 410.714C190.95 406.879 152.169 439.556 148.321 483.536C144.473 527.516 176.955 566.427 220.826 570.266Z" fill="#FEFBF3"/>
</g>
<defs>
<clipPath id="clip0_18_576">
<rect width="200" height="200" fill="white" transform="translate(288.73 310.132) rotate(-175)"/>
</clipPath>
</defs>
</svg>
