<svg width="334" height="411" viewBox="0 0 334 411" fill="none" xmlns="http://www.w3.org/2000/svg">
<path d="M333.933 303.04C333.926 303.033 333.916 303.029 333.906 303.03C322.31 304.201 311.728 305.255 301.185 306.348C276.3 308.848 251.415 311.308 226.531 313.925C208.717 315.76 200.122 329.897 207.037 346.3C209.146 351.299 212.194 355.907 215.006 360.555C223.483 374.536 221.608 390.938 210.162 401.951C199.146 412.535 182.035 414.019 169.182 405.427C156.447 396.953 151.681 381.097 157.15 366.061C159.182 360.476 161.447 354.814 162.385 348.995C164.924 333.1 153.79 321.384 137.695 322.907C109.685 325.563 81.7144 328.531 53.7044 331.342C35.9296 333.1 27.9602 326.695 26.1632 308.926C17.4906 223.633 8.85712 138.379 0.301754 53.1246C-1.49526 35.3943 4.59897 27.9351 22.2176 26.1386C107.498 17.5078 192.817 8.87692 278.097 0.285126C295.755 -1.51135 303.841 5.08871 305.677 22.7409C308.412 49.4146 311.108 76.1272 313.764 102.84C314.819 113.462 311.655 115.845 301.146 113.384C290.637 110.924 279.972 106.94 269.464 107.253C249.189 107.8 232.625 122.757 227.312 142.206C222.116 161.147 229.304 181.806 245.126 193.6C261.338 205.668 282.824 206.41 300.13 195.67C304.076 193.21 308.139 190.789 312.358 188.875C318.178 186.18 322.319 188.25 322.984 194.655C326.731 230.359 330.283 266.062 333.991 303.013C333.994 303.044 333.956 303.062 333.933 303.04Z" fill="#E3813B"/>
<mask id="mask0_18_502" style="mask-type:alpha" maskUnits="userSpaceOnUse" x="0" y="0" width="334" height="411">
<path d="M333.933 303.04C333.926 303.033 333.916 303.029 333.906 303.03C322.31 304.201 311.728 305.255 301.185 306.348C276.3 308.848 251.415 311.308 226.531 313.925C208.717 315.76 200.122 329.897 207.037 346.3C209.146 351.299 212.194 355.907 215.006 360.555C223.483 374.536 221.608 390.938 210.162 401.951C199.146 412.535 182.035 414.019 169.182 405.427C156.447 396.953 151.681 381.097 157.15 366.061C159.182 360.476 161.447 354.814 162.385 348.995C164.924 333.1 153.79 321.384 137.695 322.907C109.685 325.563 81.7144 328.531 53.7044 331.342C35.9296 333.1 27.9602 326.695 26.1632 308.926C17.4906 223.633 8.85712 138.379 0.301754 53.1246C-1.49526 35.3943 4.59897 27.9351 22.2176 26.1386C107.498 17.5078 192.817 8.87692 278.097 0.285126C295.755 -1.51135 303.841 5.08871 305.677 22.7409C308.412 49.4146 311.108 76.1272 313.764 102.84C314.819 113.462 311.655 115.845 301.146 113.384C290.637 110.924 279.972 106.94 269.464 107.253C249.189 107.8 232.625 122.757 227.312 142.206C222.116 161.147 229.304 181.806 245.126 193.6C261.338 205.668 282.824 206.41 300.13 195.67C304.076 193.21 308.139 190.789 312.358 188.875C318.178 186.18 322.319 188.25 322.984 194.655C326.731 230.359 330.283 266.062 333.991 303.013C333.994 303.044 333.956 303.062 333.933 303.04Z" fill="#E3813B"/>
</mask>
<g mask="url(#mask0_18_502)">
<g clip-path="url(#clip0_18_502)">
<path d="M256 172.2C256 194.172 248.822 215.378 235.195 233.049C218.871 254.219 195.297 267.737 168.807 271.162C142.318 274.587 116.084 267.482 94.9504 251.195C73.7808 234.871 60.2629 211.297 56.8378 184.807C49.8056 130.116 88.5012 79.9068 143.192 72.8381C169.682 69.4131 195.916 76.5182 217.049 92.8053C238.219 109.129 251.737 132.667 255.162 159.156C255.708 163.492 256 167.865 256 172.164V172.2ZM59.6434 171.8C59.6434 175.953 59.8985 180.144 60.4451 184.334C63.7608 209.839 76.7686 232.576 97.1731 248.28C117.541 264.02 142.828 270.834 168.334 267.555C193.839 264.239 216.576 251.231 232.28 230.827C247.984 210.459 254.834 185.172 251.518 159.63C248.202 134.124 235.195 111.388 214.79 95.6838C194.422 79.9796 169.135 73.1296 143.593 76.4453C118.088 79.761 95.3512 92.7689 79.6471 113.173C66.5664 130.189 59.6434 150.63 59.6434 171.8Z" fill="#FEFBF3"/>
<path d="M220.438 186.483L219.199 187.722C218.944 187.977 193.001 213.046 155.508 212.718C124.428 212.426 107.12 194.281 97.8291 184.516C95.7887 182.366 94.1854 180.69 92.9466 179.743L90.2139 177.629L93.566 176.937C93.894 176.864 127.889 169.723 134.703 167.172C140.642 164.949 166.694 158.136 185.605 165.46C203.422 172.383 218.434 184.844 219.053 185.354L220.402 186.483H220.438ZM97.2825 179.378C98.1206 180.216 99.0679 181.2 100.125 182.293C109.088 191.694 125.776 209.22 155.508 209.511C186.953 209.803 210.017 191.548 215.628 186.629C211.475 183.386 198.758 173.913 184.512 168.375C166.512 161.415 141.553 167.974 135.869 170.087C129.966 172.273 105.918 177.52 97.2825 179.342V179.378Z" fill="#FEFBF3"/>
<path d="M218.069 188.16C218.069 188.16 202.475 188.305 160.718 190.309C118.525 192.313 94.1853 180.399 93.165 179.889L94.5861 177.047C94.8411 177.156 119.254 189.107 160.573 187.139C202.402 185.135 217.887 184.99 218.033 184.99V188.16H218.069Z" fill="#FEFBF3"/>
<path d="M144.213 189.908C139.33 194.645 122.97 203.135 122.278 203.499L120.82 200.694C120.82 200.694 137.472 192.022 142.026 187.649L144.249 189.908H144.213Z" fill="#FEFBF3"/>
<path d="M174.054 188.925C169.536 197.378 147.674 211.151 146.763 211.734L145.087 209.038C145.306 208.892 167.168 195.119 171.285 187.394L174.091 188.888L174.054 188.925Z" fill="#FEFBF3"/>
<path d="M196.281 188.196C192.018 194.937 174.419 210.058 173.654 210.714L171.577 208.309C171.577 208.309 189.576 192.86 193.584 186.52L196.281 188.196Z" fill="#FEFBF3"/>
<path d="M201.236 185.973L198.94 188.16C198.94 188.16 182.18 170.597 168.953 165.314L170.119 162.363C183.965 167.937 200.544 185.245 201.236 185.973Z" fill="#FEFBF3"/>
<path d="M183.637 186.739L181.196 188.779C173.909 180.034 161.338 166.699 156.565 165.715L157.184 162.618C164.617 164.112 181.706 184.443 183.637 186.739Z" fill="#FEFBF3"/>
<path d="M165.564 187.613L163.014 189.508C163.014 189.508 150.407 172.638 141.261 168.083L142.682 165.241C152.484 170.124 165.018 186.884 165.564 187.613Z" fill="#FEFBF3"/>
<path d="M138.93 187.686L136.124 189.18C136.124 189.18 130.258 178.504 119.728 174.095L120.966 171.18C132.59 176.063 138.675 187.212 138.93 187.686Z" fill="#FEFBF3"/>
<path d="M210.782 193.844C210.236 198.362 209.216 202.953 207.758 207.507L207.394 208.673L206.191 208.6C205.973 208.6 200.544 208.236 192.09 204.483L193.366 201.605C199.013 204.082 203.203 204.993 205.135 205.285C206.337 201.35 207.175 197.414 207.649 193.479L210.782 193.844Z" fill="#FEFBF3"/>
<path d="M210.782 179.67L207.649 180.034C205.062 157.261 190.268 140.683 185.386 135.217C178.026 126.946 158.751 117.181 154.269 115.906C150.589 114.886 141.043 110.768 136.27 108.691C136.925 112.117 138.018 118.165 139.075 124.979C139.294 126.473 139.512 128.076 139.731 129.715C141.043 139.407 142.646 151.432 149.569 161.634C150.115 162.472 150.698 163.273 151.245 164.075L148.658 165.897C148.075 165.095 147.528 164.257 146.945 163.419C139.585 152.597 137.909 140.136 136.561 130.116C136.342 128.513 136.124 126.946 135.905 125.452C134.338 114.995 132.553 106.432 132.553 106.323L131.934 103.299L134.739 104.538C134.739 104.538 150.407 111.497 155.071 112.809C160.063 114.193 179.702 124.068 187.681 133.068C192.71 138.715 208.013 155.877 210.709 179.633L210.782 179.67Z" fill="#FEFBF3"/>
<path d="M205.062 159.302C205.062 164.039 200.252 172.929 199.669 173.986L196.9 172.456C199.013 168.593 202.22 161.525 201.855 158.938L204.989 158.5C204.989 158.755 205.025 159.01 205.025 159.302H205.062Z" fill="#FEFBF3"/>
<path d="M191.362 159.666C191.362 165.132 191.289 168.812 191.289 168.921L188.119 168.848C188.119 168.848 188.52 151.905 187.609 137.221L190.779 137.039C191.253 144.946 191.362 153.472 191.362 159.703V159.666Z" fill="#FEFBF3"/>
<path d="M179.665 164.002L177.188 165.97C166.949 153.035 133.391 110.513 132.589 106.323L135.686 105.704C136.707 109.056 163.196 143.233 179.665 164.002Z" fill="#FEFBF3"/>
<path d="M137.234 127.879L151.239 132.169L152.167 129.138L138.162 124.848L137.234 127.879Z" fill="#FEFBF3"/>
<path d="M165.273 146.622V149.792C159.079 149.792 140.569 140.61 138.492 139.59L139.913 136.748C145.415 139.48 160.646 146.586 165.273 146.622Z" fill="#FEFBF3"/>
<path d="M174.273 160.869C166.184 162.508 144.031 152.488 141.517 151.359L142.828 148.48C149.35 151.468 167.642 159.01 173.617 157.772L174.237 160.869H174.273Z" fill="#FEFBF3"/>
<path d="M176.022 144.035C176.022 154.492 173.508 157.261 172.815 157.808L170.775 155.403C170.775 155.403 175.475 150.266 170.666 123.375L173.799 122.829C175.439 132.12 176.022 138.97 176.022 144.035Z" fill="#FEFBF3"/>
<path d="M160.646 133.068C160.646 137.659 159.917 139.736 159.844 139.881L156.893 138.752C156.893 138.752 159.115 132.12 154.889 115.323L157.949 114.558C160.063 122.975 160.646 129.023 160.646 133.068Z" fill="#FEFBF3"/>
<path d="M239.531 171.982C239.531 217.892 202.038 255.239 155.982 255.239C109.926 255.239 72.4331 217.928 72.4331 171.982C72.4331 126.035 109.926 88.7244 155.982 88.7244C202.038 88.7244 239.531 126.072 239.531 171.982ZM76.0768 171.982C76.0768 215.888 111.93 251.632 155.982 251.632C200.034 251.632 235.887 215.924 235.887 172.018C235.887 128.112 200.034 92.4045 155.982 92.4045C111.93 92.4045 76.0768 128.076 76.0768 171.982Z" fill="#FEFBF3"/>
</g>
<path d="M305 467.209C305 489.74 297.441 511.431 283.236 529.287C266.585 550.175 242.812 563.357 216.265 566.351C161.491 572.596 111.865 533.048 105.657 478.274C102.626 451.727 110.149 425.617 126.8 404.73C143.452 383.843 167.224 370.66 193.735 367.666C220.282 364.672 246.391 372.157 267.278 388.809C288.166 405.46 301.348 429.232 304.343 455.78C304.781 459.614 305 463.448 305 467.246V467.209ZM108.651 466.808C108.651 470.459 108.871 474.148 109.272 477.872C115.261 530.638 163.097 568.725 215.863 562.736C241.425 559.851 264.357 547.144 280.351 527.023C296.382 506.903 303.612 481.743 300.727 456.145C297.843 430.584 285.135 407.651 265.014 391.621C244.894 375.59 219.698 368.36 194.136 371.245C168.575 374.129 145.643 386.837 129.612 406.958C115.918 424.193 108.615 445.081 108.615 466.771L108.651 466.808Z" fill="#FEFBF3"/>
<path d="M288.75 467.027C288.75 513.037 251.175 550.467 205.018 550.467C158.861 550.467 121.286 513.037 121.286 467.027C121.286 421.016 158.861 383.587 205.018 383.587C251.175 383.587 288.75 421.016 288.75 467.027ZM124.938 467.027C124.938 511.029 160.87 546.815 205.018 546.815C249.166 546.815 285.098 511.029 285.098 467.027C285.098 423.025 249.166 387.238 205.018 387.238C160.87 387.238 124.938 422.988 124.938 467.027Z" fill="#FEFBF3"/>
</g>
<defs>
<clipPath id="clip0_18_502">
<rect width="200" height="200" fill="white" transform="matrix(0 -1 1 0 56 272)"/>
</clipPath>
</defs>
</svg>
