<svg width="94" height="95" fill="none" xmlns="http://www.w3.org/2000/svg"><path opacity=".8" d="M12.908 66.332l-1.88.41.95 1.668 1.302-1.421c.324-.351.704-.712 1.025-1.02l-.013-.02c-.43.118-.933.279-1.384.383zm73.369-9.348l.396-1.878-1.919.191c-.471.049-.995.063-1.44.081l-.007.023c.405.2.89.417 1.296.64l1.674.943zm-53.05 25.299a3.967 3.967 0 00-.757-.223l-.906 2.356c.185.122.385.22.595.292.953.368 1.71.125 2.026-.693.3-.777-.082-1.394-.956-1.736M5.265 45.249l4.665.463.105-1.063-3.8-.375.166-1.658 3.798.375.105-1.06-4.665-.463-.374 3.78zm3.862-5.828a2.194 2.194 0 00-.162-1.596 1.51 1.51 0 00-.995-.66 1.363 1.363 0 00-1.166.26 2.257 2.257 0 00-.675 1.323 9.308 9.308 0 00-.21 1.424l4.523.985.222-1.027-1.637-.358c.04-.115.073-.232.098-.351h.002zm-.8-.163a1.736 1.736 0 01-.103.342l-1.351-.295a1.9 1.9 0 01.052-.44c.111-.516.426-.755.848-.663.468.102.674.505.553 1.056m2.099-6.763a2.177 2.177 0 00-2.517.54c-.205.23-.359.5-.452.793a2.28 2.28 0 00.738 2.55c.248.195.534.336.84.414a2.183 2.183 0 002.976-1.306 2.248 2.248 0 00-.726-2.584 2.235 2.235 0 00-.859-.407zm.805 2.662c-.231.67-.985.87-1.85.569-.864-.301-1.371-.92-1.139-1.599.233-.679 1.054-.834 1.854-.558.86.3 1.368.906 1.134 1.59m.143-3.472c.282.256.531.546.743.863l-.147.361 1.807.847.357-.726-1.045-.574 1.212-2.469 1.09.476.357-.722-1.768-.928-.23.406-3.457-1.706-1.358 2.757 1.126.555a5.77 5.77 0 011.313.86zm-.78-2.833l2.659 1.313-.688 1.398a4.075 4.075 0 00-.572-.65 5.312 5.312 0 00-1.287-.866l-.567-.28.456-.915zm4.808-.759l-.821-.942.74-1.122 1.2.361.63-.956-4.715-1.369-.766 1.166 3.126 3.785.606-.923zm-1.398-1.506l-.68-.782c-.18-.213-.44-.466-.636-.679l.01-.01c.269.092.606.213.884.299l.992.302-.57.87zm2.395-2.565c.243.42.537.857.744 1.316l.706-.804a7.35 7.35 0 00-.555-.94c-.276-.445-.45-.888-.073-1.319l.115-.127 1.47 1.3.674-.762-1.47-1.3.112-.125c.38-.433.84-.315 1.319-.099.32.17.653.316.995.438l.711-.805c-.478-.154-.94-.406-1.408-.604a1.4 1.4 0 00-1.61.1l-.512-2.591-.815.926.688 2.17-.063.072-1.463-1.291-.67.762 1.458 1.293-.063.072-2.23-.42-.818.933 2.626.187a1.465 1.465 0 00.13 1.624m5.68-3.963l-.527-1.138 1.02-.873 1.06.683.863-.741-4.148-2.633-1.058.906 1.951 4.51.839-.714zm-1.359-2.78c-.117-.257-.295-.57-.422-.831l.01-.01c.232.17.524.377.766.538l.867.564-.788.677-.433-.939zm6.199-.925l-1.018-1.68 1.49-.914 1.021 1.681.904-.547-2.443-4.018-.903.55.94 1.544-1.494.909-.933-1.54-.913.555 2.442 4.014.907-.554zm5.826-3.076l-.367-.79-1.748.813-.468-1.014 1.565-.725-.363-.785-1.562.726-.412-.887 1.66-.768-.367-.794-2.626 1.225 1.974 4.26 2.714-1.26zm2.707-.884a2.93 2.93 0 001.07-.591l-.422-.731a2.595 2.595 0 01-.782.433 1.54 1.54 0 01-1.963-.957 1.55 1.55 0 01.955-1.967 2.21 2.21 0 01.9-.122l-.069-.87a2.766 2.766 0 00-1.163.178 2.388 2.388 0 00-1.519 1.234 2.4 2.4 0 00-.091 1.959 2.24 2.24 0 001.212 1.43 2.228 2.228 0 001.872.001m3.438-.924a2.232 2.232 0 001.823-1.964c.035-.32 0-.642-.1-.947a2.191 2.191 0 00-1.769-1.876 2.177 2.177 0 00-.91.025 2.271 2.271 0 00-1.491 1.07 2.285 2.285 0 00-.219 1.825 2.202 2.202 0 00.92 1.527 2.19 2.19 0 001.746.341v-.001zm-.806-3.929c.714-.154 1.264.467 1.444 1.29.193.894-.062 1.652-.762 1.803-.7.151-1.251-.39-1.452-1.29-.2-.9.073-1.648.77-1.803zm4.746 3.254a2.97 2.97 0 001.794-.596 1.255 1.255 0 00.39-1.038A1.178 1.178 0 0043.974 8.1v-.013a1.06 1.06 0 00.675-1.07 1.02 1.02 0 00-.648-.863 2.55 2.55 0 00-1.401-.135 8.399 8.399 0 00-1.356.226l.433 4.596c.383.013.767 0 1.149-.04h-.001zM43.9 9.229c.046.487-.356.712-.834.756a3.147 3.147 0 01-.413.025l-.121-1.319.357-.033c.527-.049.966.098 1.011.569v.002zm-1.096-2.454c.478-.046.766.115.799.473.032.344-.243.6-.796.65l-.347.032-.102-1.09a2.5 2.5 0 01.446-.068m2.946 3.749l2.988.045.017-.87-1.929-.029.023-1.113 1.723.026.016-.866-1.73-.03.02-.974 1.827.029.014-.87-2.894-.049-.076 4.701zm4.828-1.479c.118.029.237.05.357.061a2.157 2.157 0 001.569-.324 1.511 1.511 0 00.55-1.057 1.368 1.368 0 00-.38-1.137 2.241 2.241 0 00-1.378-.535 8.485 8.485 0 00-1.434-.06l-.51 4.61 1.043.114.183-1.672zm.244-2.194c.145-.015.293-.013.438.007.527.06.796.348.747.778-.053.476-.43.722-.99.663a1.812 1.812 0 01-.35-.07l.155-1.378zm8.817.928l-1.005-.252-.937 3.709-1.123-.285.937-3.713-1.009-.253-.932 3.713-1.12-.286.936-3.712-1.011-.254L53.225 11l5.268 1.333 1.146-4.557zm2.335 5.995l.32-.81-1.783-.715.412-1.039 1.6.644.319-.8-1.598-.644.36-.906 1.7.683.32-.81-2.682-1.078-1.74 4.359 2.772 1.116zm1.49.744l.925-1.734 1.54.83-.927 1.734.93.499 2.22-4.139-.93-.5-.855 1.59-1.538-.83.854-1.59-.936-.505-2.22 4.14.937.505zm4 2.365l1.14-1.602 1.42 1.018-1.139 1.601.861.614 2.721-3.824-.861-.616-1.045 1.47-1.42-1.018 1.044-1.467-.868-.62-2.72 3.824.867.62zm4.299 3.532a2.237 2.237 0 002.649.379c.28-.154.525-.366.717-.623a2.193 2.193 0 00.518-2.528 2.193 2.193 0 00-.541-.735 2.267 2.267 0 00-3.343.25 2.193 2.193 0 00-.534 2.522c.124.28.306.532.534.738v-.003zm.838-2.508c.62-.67 1.388-.887 1.916-.4.533.498.34 1.305-.233 1.926-.619.666-1.384.893-1.909.406-.524-.487-.396-1.254.227-1.93m1.485 3.502l-.568.65c.207.252.476.447.78.564.776.276 1.588-.21 2.504-.992l.852-.722.688.818-2.917 2.472.681.812 3.582-3.036-2.04-2.417-1.568 1.327a2.462 2.462 0 01-1.458.768.911.911 0 01-.536-.243m4.161 6.737l.72-.49-1.08-1.598.92-.624.969 1.432.714-.483-.97-1.434.81-.549 1.024 1.52.72-.489-1.62-2.403-3.883 2.636 1.676 2.482zm4.082-.478l-3.34 1.81.507.938 3.337-1.808.61 1.125.781-.423-1.712-3.178-.783.427.6 1.11zm-1.637 5.259l1.82-.732.648 1.621-1.816.736.393.984 4.347-1.753-.393-.981-1.67.67-.65-1.625 1.672-.67-.396-.99-4.352 1.749.397.991z" fill="#fff"/><g opacity=".8" fill="#fff"><path opacity=".8" d="M82.29 37.456l1.875.5c.596.154 1.202.27 1.814.344l.007.023c-.651.108-1.296.25-1.932.424l-1.34.347.244.946 4.537-1.185-.272-1.05-2.04-.513a20.203 20.203 0 00-1.823-.387l-.007-.03c.616-.118 1.34-.29 2.066-.48l1.345-.35-.243-.946-4.537 1.182.305 1.175zm.947 4.214l1.783-.119c.582-.033 1.302-.096 1.934-.138v.013c-.593.18-1.24.417-1.775.634l-1.738.702.092.824 1.882.36c.567.12 1.25.237 1.863.316v.02c-.678.082-1.352.174-1.912.26l-1.774.275.118 1.03 4.629-.787-.157-1.381-1.604-.325a35.97 35.97 0 00-1.723-.253v-.02c.534-.17 1.107-.38 1.62-.587l1.503-.633-.162-1.405-4.692.23.113.983zm-32.879 3.458c3.565 0 5.857-2.18 5.857-5.699 0-3.462-2.288-5.643-5.805-5.643-3.673 0-6.018 2.18-6.018 5.643 0 3.407 2.397 5.699 5.966 5.699z"/><path opacity=".8" d="M46.797 15.554a31.804 31.804 0 00-17.702 5.384A31.927 31.927 0 0017.36 35.275a32.023 32.023 0 00-1.813 18.458 31.971 31.971 0 008.721 16.356 31.837 31.837 0 0016.315 8.742c6.18 1.232 12.587.6 18.41-1.82A31.88 31.88 0 0073.29 65.246a32.015 32.015 0 002.942-29.973 31.948 31.948 0 00-6.907-10.363 31.854 31.854 0 00-10.336-6.924 31.79 31.79 0 00-12.193-2.431zm-11.78 52.7h-6.502V41.22h-9.268v-4.69c3.997 0 9.803-.785 10.87-7.6h4.9v39.326zm15.237.67c-7.778 0-13.05-4.802-13.05-11.955 0-4.858 2.502-8.38 6.816-9.775-3.355-1.231-5.326-4.245-5.326-8.157 0-6.145 4.846-10.39 11.773-10.39 6.712 0 11.4 4.245 11.4 10.226a8.563 8.563 0 01-1.32 5 8.53 8.53 0 01-3.954 3.32c4.311 1.567 6.816 4.248 6.816 9.445 0 7.37-5.274 12.286-13.155 12.286zM77.14 46.117v1.869h-6.499V54.5h-1.863v-6.515h-6.499v-1.869h6.499v-6.515h1.863v6.515h6.5z"/><path opacity=".8" d="M50.25 49.708a6.56 6.56 0 00-5.002 1.916 6.593 6.593 0 00-1.922 5.01c0 4.468 2.77 7.264 7.137 7.264 4.263 0 6.816-2.626 6.816-7.093 0-4.36-2.769-7.097-7.03-7.097z"/><path opacity=".8" d="M46.799.977a46.317 46.317 0 00-25.78 7.84 46.498 46.498 0 00-17.091 20.88 46.636 46.636 0 00-2.64 26.88 46.56 46.56 0 0012.7 23.821 46.365 46.365 0 0023.76 12.732 46.29 46.29 0 0026.81-2.65 46.43 46.43 0 0020.824-17.136A46.61 46.61 0 0093.2 47.496a46.633 46.633 0 00-13.606-32.88A46.39 46.39 0 0046.799.976zm0 1.266A45.129 45.129 0 0178.7 15.512a45.365 45.365 0 0113.236 31.984H80.4a33.734 33.734 0 01-9.9 23.715 33.558 33.558 0 01-23.702 9.81 33.559 33.559 0 01-23.703-9.81 33.734 33.734 0 01-9.9-23.715H1.657A45.365 45.365 0 0114.895 15.51 45.129 45.129 0 0146.799 2.244zM3.65 55.341a4.316 4.316 0 01.108-2.176l1.09.118a4.046 4.046 0 00-.118 1.795c.18.959.74 1.415 1.437 1.284.934-.18.996-1.162.842-1.97l-.112-.577 1-.19.11.578c.162.85.73 1.42 1.395 1.293.596-.116.867-.65.729-1.393a3.65 3.65 0 00-.747-1.493l.891-.509c.512.568.852 1.269.983 2.023.278 1.462-.289 2.518-1.385 2.727a1.835 1.835 0 01-2.046-1.159l-.02.007a1.85 1.85 0 01-1.44 2.09c-1.585.303-2.46-1.085-2.718-2.448h.001zm6.77 16.695l-.724-1.274 1.503-1.637-1.176-2.062-2.154.492-.697-1.224 7.66-1.624.862 1.513-5.275 5.816zm10.214 10.698l-1.034-.883 4.112-4.842-2.292-1.957-4.108 4.84-1.039-.884 4.84-5.692 4.36 3.726-4.839 5.692zM35.47 84.46a2.247 2.247 0 01-1.209 1.351 3.278 3.278 0 01-2.484-.104 4.09 4.09 0 01-.602-.283l-1.016 2.63-1.257-.488 2.649-6.88c.682.141 1.35.344 1.997.607a3.365 3.365 0 011.837 1.362 2.116 2.116 0 01.085 1.806v-.001zm11.655.579l-2.972-.151-.1 1.927 2.806.14-.055 1.11L44 87.922l-.115 2.193 3.14.163-.056 1.116-4.498-.23.379-7.468 4.332.224-.056 1.12zm16.491 3.079l-7.343 2.39-2.299-7.114 1.26-.406 1.955 6.046 2-.65-1.95-6.044 1.27-.413 1.954 6.046 2-.65-1.954-6.046 1.274-.413 1.964 6.078.684-.19.626 2.137c-.324.144-.662.292-.996.43l-.445-1.201zm9.013-5.2l-4.685-5.82 3.379-2.73.7.873-2.314 1.874 1.208 1.503 2.188-1.772.694.862-2.184 1.774 1.378 1.706 2.445-1.98.7.87-3.509 2.84zm12.055-13.484l-2.783-1.752-1.676 2.675 2.78 1.753-.724 1.152-6.309-3.976.724-1.155 2.527 1.596 1.677-2.681-2.528-1.592.723-1.155 6.313 3.98-.724 1.155zm5.251-14.567l-2.206.223-.491 2.321 1.931 1.07-.291 1.375-6.796-3.892.356-1.707 7.799-.823-.302 1.433z"/></g></svg>