<svg width="359" height="280" viewBox="0 0 359 280" fill="none" xmlns="http://www.w3.org/2000/svg">
    <g style="fill: none; stroke: #4048F5; stroke-width: 2px">
        <path fill-rule="evenodd" clip-rule="evenodd" d="M274.917 1.86047H117.105V129.467H274.917V1.86047ZM115.245 0V131.327H276.778V0H115.245Z" fill="#262626"/>
        <path fill-rule="evenodd" clip-rule="evenodd" d="M168.87 6.51172C169.383 6.51172 169.8 6.9282 169.8 7.44195V124.652C169.8 125.165 169.383 125.582 168.87 125.582C168.356 125.582 167.939 125.165 167.939 124.652V7.44195C167.939 6.9282 168.356 6.51172 168.87 6.51172ZM220.963 6.51172C221.477 6.51172 221.893 6.9282 221.893 7.44195V124.652C221.893 125.165 221.477 125.582 220.963 125.582C220.449 125.582 220.033 125.165 220.033 124.652V7.44195C220.033 6.9282 220.449 6.51172 220.963 6.51172Z" fill="#262626"/>
        <path fill-rule="evenodd" clip-rule="evenodd" d="M142.167 18.7676C142.681 18.7676 143.098 19.1841 143.098 19.6978V31.9277C143.098 32.4414 142.681 32.8579 142.167 32.8579C141.654 32.8579 141.237 32.4414 141.237 31.9277V19.6978C141.237 19.1841 141.654 18.7676 142.167 18.7676ZM142.167 55.4572C142.681 55.4572 143.098 55.8737 143.098 56.3874V80.8471C143.098 81.3609 142.681 81.7774 142.167 81.7774C141.654 81.7774 141.237 81.3609 141.237 80.8471V56.3874C141.237 55.8737 141.654 55.4572 142.167 55.4572ZM142.167 104.377C142.681 104.377 143.098 104.793 143.098 105.307V117.537C143.098 118.05 142.681 118.467 142.167 118.467C141.654 118.467 141.237 118.05 141.237 117.537V105.307C141.237 104.793 141.654 104.377 142.167 104.377Z" fill="#262626"/>
        <path fill-rule="evenodd" clip-rule="evenodd" d="M195.354 18.7676C195.868 18.7676 196.284 19.1841 196.284 19.6978V31.9277C196.284 32.4414 195.868 32.8579 195.354 32.8579C194.84 32.8579 194.424 32.4414 194.424 31.9277V19.6978C194.424 19.1841 194.84 18.7676 195.354 18.7676ZM195.354 55.4572C195.868 55.4572 196.284 55.8737 196.284 56.3874V80.8471C196.284 81.3609 195.868 81.7774 195.354 81.7774C194.84 81.7774 194.424 81.3609 194.424 80.8471V56.3874C194.424 55.8737 194.84 55.4572 195.354 55.4572ZM195.354 104.377C195.868 104.377 196.284 104.793 196.284 105.307V117.537C196.284 118.05 195.868 118.467 195.354 118.467C194.84 118.467 194.424 118.05 194.424 117.537V105.307C194.424 104.793 194.84 104.377 195.354 104.377Z" fill="#262626"/>
        <path fill-rule="evenodd" clip-rule="evenodd" d="M249.198 18.7676C249.712 18.7676 250.128 19.1841 250.128 19.6978V31.9277C250.128 32.4414 249.712 32.8579 249.198 32.8579C248.684 32.8579 248.268 32.4414 248.268 31.9277V19.6978C248.268 19.1841 248.684 18.7676 249.198 18.7676ZM249.198 55.4572C249.712 55.4572 250.128 55.8737 250.128 56.3874V80.8471C250.128 81.3609 249.712 81.7774 249.198 81.7774C248.684 81.7774 248.268 81.3609 248.268 80.8471V56.3874C248.268 55.8737 248.684 55.4572 249.198 55.4572ZM249.198 104.377C249.712 104.377 250.128 104.793 250.128 105.307V117.537C250.128 118.05 249.712 118.467 249.198 118.467C248.684 118.467 248.268 118.05 248.268 117.537V105.307C248.268 104.793 248.684 104.377 249.198 104.377Z" fill="#262626"/>
        <path fill-rule="evenodd" clip-rule="evenodd" d="M276.092 130.641C276.471 130.988 276.497 131.577 276.15 131.955L263.509 145.745C263.162 146.124 262.574 146.15 262.195 145.802C261.816 145.455 261.791 144.867 262.138 144.488L274.778 130.698C275.125 130.319 275.714 130.294 276.092 130.641ZM115.922 130.647C116.297 130.296 116.886 130.316 117.237 130.691L150.4 166.15C150.751 166.525 150.731 167.114 150.356 167.465C149.981 167.815 149.392 167.796 149.041 167.421L115.878 131.962C115.527 131.587 115.547 130.998 115.922 130.647Z" fill="#262626"/>
        <path fill-rule="evenodd" clip-rule="evenodd" d="M151.25 166.401C150.736 166.401 150.319 166.818 150.319 167.332V185.936C150.319 186.45 150.736 186.867 151.25 186.867H184.848C185.361 186.867 185.778 187.283 185.778 187.797C185.778 188.311 185.361 188.727 184.848 188.727H151.25C149.708 188.727 148.459 187.478 148.459 185.936V167.332C148.459 165.79 149.708 164.541 151.25 164.541H213.521C214.035 164.541 214.451 164.957 214.451 165.471C214.451 165.985 214.035 166.401 213.521 166.401H151.25ZM243.945 164.541C244.459 164.541 244.875 164.957 244.875 165.471V185.936C244.875 187.478 243.626 188.727 242.084 188.727H220.306C219.792 188.727 219.376 188.311 219.376 187.797C219.376 187.283 219.792 186.867 220.306 186.867H242.084C242.598 186.867 243.015 186.45 243.015 185.936V165.471C243.015 164.957 243.431 164.541 243.945 164.541Z" fill="#262626"/>
        <path fill-rule="evenodd" clip-rule="evenodd" d="M149.451 186.427C149.845 186.098 150.432 186.151 150.761 186.546L173.743 214.124C174.072 214.519 174.019 215.106 173.624 215.435C173.229 215.763 172.643 215.71 172.314 215.315L149.331 187.737C149.003 187.342 149.056 186.755 149.451 186.427ZM243.922 186.46C244.298 186.809 244.32 187.398 243.97 187.774L218.361 215.353C218.012 215.729 217.423 215.751 217.047 215.402C216.67 215.052 216.648 214.463 216.998 214.087L242.607 186.508C242.956 186.132 243.545 186.11 243.922 186.46Z" fill="#262626"/>
        <path fill-rule="evenodd" clip-rule="evenodd" d="M173.575 214.995C173.062 214.995 172.645 215.412 172.645 215.925V237.157C172.645 237.67 173.062 238.087 173.575 238.087H189.335V239.947H173.575C172.034 239.947 170.785 238.698 170.785 237.157V215.925C170.785 214.384 172.034 213.135 173.575 213.135H217.132C218.674 213.135 219.923 214.384 219.923 215.925V220.303H218.063V215.925C218.063 215.412 217.646 214.995 217.132 214.995H173.575Z" fill="#262626"/>
        <path fill-rule="evenodd" clip-rule="evenodd" d="M175.271 239.07V242.408C175.271 242.922 175.688 243.338 176.202 243.338H189.335V245.199H176.202C174.66 245.199 173.411 243.949 173.411 242.408V239.07H175.271Z" fill="#262626"/>
        <path fill-rule="evenodd" clip-rule="evenodd" d="M23.3151 207.223C23.8288 207.223 24.2453 207.639 24.2453 208.153V260.465C24.2453 270.226 32.1584 278.139 41.9198 278.139H165.58C177.922 278.139 188.595 269.538 191.217 257.478L193.035 257.873C190.227 270.788 178.797 280 165.58 280H41.9198C31.1309 280 22.3848 271.254 22.3848 260.465V208.153C22.3848 207.639 22.8013 207.223 23.3151 207.223Z" fill="#262626"/>
        <path fill-rule="evenodd" clip-rule="evenodd" d="M31.1948 205.582C31.7086 205.582 32.1251 205.999 32.1251 206.512V254.885C32.1251 264.646 40.0382 272.559 49.7995 272.559H159.567C175.494 272.559 188.405 259.648 188.405 243.722H190.265C190.265 260.676 176.521 274.419 159.567 274.419H49.7995C39.0107 274.419 30.2646 265.673 30.2646 254.885V206.512C30.2646 205.999 30.6811 205.582 31.1948 205.582Z" fill="#262626"/>
        <path fill-rule="evenodd" clip-rule="evenodd" d="M55.0325 44.2089C55.6076 41.2183 51.6593 39.6 49.97 42.1339L2.33699 113.583C1.1006 115.438 2.43007 117.922 4.659 117.922H36.2341C39.2774 117.922 41.5008 120.796 40.736 123.742L28.9418 169.172C28.1737 172.13 32.0367 173.993 33.8736 171.55L87.6969 99.9547C89.0797 98.1154 87.7674 95.487 85.4663 95.487H50.8022C47.8811 95.487 45.6831 92.826 46.2347 89.9575L55.0325 44.2089ZM48.422 41.1019C51.2375 36.8787 57.818 39.5759 56.8595 44.5603L48.0617 90.3088C47.7307 92.0299 49.0495 93.6266 50.8022 93.6266H85.4663C89.3015 93.6266 91.4887 98.0071 89.1841 101.073L35.3608 172.668C32.2992 176.74 25.8608 173.636 27.141 168.704L38.9352 123.275C39.3941 121.507 38.06 119.783 36.2341 119.783H4.659C0.944122 119.783 -1.27166 115.642 0.788985 112.551L48.422 41.1019Z" fill="#262626"/>
        <path fill-rule="evenodd" clip-rule="evenodd" d="M114.916 7.44195C114.916 6.9282 115.333 6.51172 115.846 6.51172H275.847C276.361 6.51172 276.777 6.9282 276.777 7.44195C276.777 7.95571 276.361 8.37219 275.847 8.37219H115.846C115.333 8.37219 114.916 7.95571 114.916 7.44195Z" fill="#262626"/>
        <path fill-rule="evenodd" clip-rule="evenodd" d="M115.846 124.651C115.846 124.137 116.263 123.721 116.777 123.721H274.917C275.43 123.721 275.847 124.137 275.847 124.651C275.847 125.165 275.43 125.581 274.917 125.581H116.777C116.263 125.581 115.846 125.165 115.846 124.651Z" fill="#262626"/>
        <path fill-rule="evenodd" clip-rule="evenodd" d="M353.056 167.892H318.735C316.68 167.892 315.014 169.558 315.014 171.613V271.634C315.014 273.689 316.68 275.355 318.735 275.355H353.056C355.111 275.355 356.777 273.689 356.777 271.634V171.613C356.777 169.558 355.111 167.892 353.056 167.892ZM318.735 166.031C315.652 166.031 313.153 168.53 313.153 171.613V271.634C313.153 274.716 315.652 277.215 318.735 277.215H353.056C356.139 277.215 358.638 274.716 358.638 271.634V171.613C358.638 168.53 356.139 166.031 353.056 166.031H318.735Z" fill="#262626"/>
        <path fill-rule="evenodd" clip-rule="evenodd" d="M292.411 198.214H258.089C256.034 198.214 254.368 199.88 254.368 201.935V274.16C254.368 276.215 256.034 277.881 258.089 277.881H292.411C294.466 277.881 296.131 276.215 296.131 274.16V201.935C296.131 199.88 294.466 198.214 292.411 198.214ZM258.089 196.354C255.006 196.354 252.508 198.852 252.508 201.935V274.16C252.508 277.243 255.006 279.742 258.089 279.742H292.411C295.493 279.742 297.992 277.243 297.992 274.16V201.935C297.992 198.852 295.493 196.354 292.411 196.354H258.089Z" fill="#262626"/>
        <path fill-rule="evenodd" clip-rule="evenodd" d="M229.238 226.011H197.443C195.388 226.011 193.722 227.677 193.722 229.732V271.634C193.722 273.689 195.388 275.355 197.443 275.355H229.238C231.293 275.355 232.959 273.689 232.959 271.634V229.732C232.959 227.677 231.293 226.011 229.238 226.011ZM197.443 224.15C194.361 224.15 191.862 226.649 191.862 229.732V271.634C191.862 274.717 194.361 277.215 197.443 277.215H229.238C232.32 277.215 234.819 274.717 234.819 271.634V229.732C234.819 226.649 232.32 224.15 229.238 224.15H197.443Z" fill="#262626"/>
        <path fill-rule="evenodd" clip-rule="evenodd" d="M315.348 112.494C315.804 109.927 318.255 108.215 320.822 108.671L354.41 114.635C356.977 115.091 358.688 117.542 358.232 120.109L352.268 153.696C351.812 156.263 349.362 157.975 346.795 157.519C344.228 157.063 342.516 154.613 342.972 152.046L346.944 129.679L280.695 175.948C276.375 178.965 270.44 178.015 267.279 173.799L254.221 156.389C254.112 156.244 253.908 156.212 253.761 156.317L195.869 197.668C193.748 199.184 190.8 198.692 189.284 196.571C187.769 194.449 188.26 191.501 190.382 189.986L248.273 148.635C252.594 145.549 258.588 146.476 261.774 150.724L274.832 168.134C274.939 168.278 275.142 168.311 275.289 168.208L341.538 121.939L319.171 117.967C316.604 117.511 314.893 115.061 315.348 112.494ZM320.496 110.503C318.941 110.227 317.456 111.264 317.18 112.819C316.904 114.374 317.941 115.859 319.496 116.135L344.074 120.499C344.445 120.565 344.739 120.848 344.82 121.215C344.901 121.583 344.753 121.963 344.444 122.178L276.354 169.733C275.385 170.41 274.053 170.197 273.343 169.251L260.285 151.84C257.706 148.401 252.853 147.65 249.354 150.149L191.463 191.5C190.178 192.418 189.88 194.204 190.798 195.489C191.716 196.775 193.503 197.073 194.788 196.154L252.679 154.803C253.649 154.111 254.994 154.319 255.709 155.272L268.767 172.683C271.327 176.096 276.132 176.866 279.63 174.423L347.72 126.868C348.028 126.652 348.436 126.644 348.753 126.846C349.07 127.049 349.234 127.423 349.168 127.793L344.804 152.371C344.528 153.926 345.565 155.411 347.12 155.687C348.675 155.963 350.16 154.926 350.436 153.371L356.4 119.783C356.676 118.228 355.64 116.743 354.084 116.467L320.496 110.503Z" fill="#262626"/>
    </g>
</svg>
