<svg width="240" height="280" viewBox="0 0 240 280" fill="none" xmlns="http://www.w3.org/2000/svg">
    <g style="fill: none; stroke: #4048F5; stroke-width: 2px">
        <path fill-rule="evenodd" clip-rule="evenodd" d="M182.673 278.421C152.326 278.421 127.765 253.451 127.765 222.699C127.765 196.553 145.513 174.595 169.48 168.596C169.832 168.508 170.078 168.192 170.078 167.83V157.921C170.078 157.485 169.725 157.131 169.289 157.131H150.919C150.601 157.131 150.314 156.94 150.191 156.646C150.069 156.353 150.134 156.014 150.358 155.788L180.483 125.255C180.789 124.945 181.289 124.942 181.599 125.248L211.317 154.559C211.545 154.784 211.615 155.124 211.493 155.42C211.372 155.717 211.083 155.91 210.763 155.91H196.872C196.436 155.91 196.082 156.263 196.082 156.699V168.04C196.082 168.398 196.323 168.711 196.668 168.803C220.228 175.087 237.582 196.846 237.582 222.699C237.582 253.451 213.021 278.421 182.673 278.421ZM126.186 222.699C126.186 254.3 151.431 280 182.673 280C213.915 280 239.16 254.3 239.16 222.699C239.16 196.342 221.61 174.106 197.661 167.437V157.489H210.763C211.724 157.489 212.589 156.908 212.954 156.019C213.318 155.13 213.11 154.109 212.426 153.435L182.707 124.124C181.777 123.206 180.278 123.216 179.359 124.147L149.234 154.679C148.563 155.359 148.367 156.375 148.735 157.255C149.103 158.136 149.965 158.71 150.919 158.71H168.499V167.217C144.135 173.605 126.186 196.045 126.186 222.699ZM130.922 222.699C130.922 251.753 154.115 275.264 182.673 275.264C211.232 275.264 234.424 251.753 234.424 222.699C234.424 198.158 217.872 177.563 195.517 171.765C195.429 171.57 195.263 171.412 195.045 171.34C194.73 171.236 194.504 170.939 194.504 170.59V155.121C194.504 154.685 194.857 154.331 195.293 154.331H206.914C207.235 154.331 207.523 154.138 207.645 153.842C207.766 153.545 207.697 153.205 207.469 152.98L181.614 127.48C181.304 127.174 180.804 127.177 180.498 127.488L154.133 154.209C153.909 154.436 153.844 154.774 153.966 155.068C154.089 155.362 154.376 155.553 154.695 155.553H170.867C171.303 155.553 171.657 155.906 171.657 156.342V170.183C171.657 170.546 171.412 170.853 171.077 170.945C170.765 171.03 170.547 171.292 170.503 171.595C147.808 177.15 130.922 197.912 130.922 222.699ZM182.673 273.686C155.009 273.686 132.501 250.903 132.501 222.699C132.501 198.388 149.235 178.089 171.574 172.963C171.778 172.917 171.955 172.791 172.066 172.613C172.153 172.474 172.194 172.312 172.185 172.151C172.818 171.726 173.235 171.004 173.235 170.183V156.342C173.235 155.034 172.175 153.974 170.867 153.974H156.582L181.068 129.158L204.99 152.753H195.293C193.985 152.753 192.925 153.813 192.925 155.121V170.59C192.925 171.402 193.333 172.118 193.955 172.544C194.016 172.83 194.235 173.071 194.538 173.145C216.493 178.554 232.846 198.666 232.846 222.699C232.846 250.903 210.338 273.686 182.673 273.686Z" fill="#262626"/>
        <path fill-rule="evenodd" clip-rule="evenodd" d="M182.64 181.442C205.508 181.442 224.046 199.981 224.046 222.849C224.046 245.717 205.508 264.255 182.64 264.255C159.772 264.255 141.233 245.717 141.233 222.849C141.233 199.981 159.772 181.442 182.64 181.442ZM182.64 179.864C206.38 179.864 225.625 199.109 225.625 222.849C225.625 246.589 206.38 265.834 182.64 265.834C158.9 265.834 139.655 246.589 139.655 222.849C139.655 199.109 158.9 179.864 182.64 179.864Z" fill="#262626"/>
        <path fill-rule="evenodd" clip-rule="evenodd" d="M182.609 187.203C183.02 187.203 183.352 187.543 183.352 187.962V197.265C183.352 197.684 183.02 198.023 182.609 198.023C182.199 198.023 181.867 197.684 181.867 197.265V187.962C181.867 187.543 182.199 187.203 182.609 187.203ZM174.954 207.731C176.526 206.389 179.007 205.81 182.609 205.81C184.397 205.81 185.793 206.169 186.875 206.776C187.961 207.385 188.691 208.221 189.174 209.107C190.113 210.83 190.113 212.737 190.112 213.522L190.112 213.546C190.112 213.965 189.78 214.304 189.37 214.304C188.96 214.304 188.627 213.965 188.627 213.546C188.627 212.766 188.617 211.205 187.876 209.844C187.514 209.18 186.976 208.562 186.16 208.105C185.341 207.646 184.202 207.327 182.609 207.327C179.086 207.327 177.06 207.911 175.906 208.895C174.795 209.843 174.338 211.305 174.338 213.546C174.338 215.566 175.292 217.077 177.065 218.122C178.879 219.192 181.548 219.765 184.863 219.765C186.9 219.765 188.38 221.01 189.312 222.694C190.237 224.364 190.676 226.537 190.676 228.664C190.676 230.791 190.237 232.964 189.312 234.634C188.38 236.317 186.9 237.563 184.863 237.563H184.769C182.134 237.563 179.2 237.563 176.926 236.637C175.748 236.157 174.711 235.417 173.975 234.278C173.242 233.143 172.853 231.679 172.853 229.827C172.853 229.408 173.185 229.068 173.595 229.068C174.006 229.068 174.338 229.408 174.338 229.827C174.338 231.463 174.681 232.616 175.215 233.443C175.748 234.267 176.513 234.835 177.476 235.228C179.457 236.035 182.113 236.046 184.863 236.046C186.206 236.046 187.261 235.256 188.019 233.887C188.785 232.504 189.191 230.607 189.191 228.664C189.191 226.721 188.785 224.823 188.019 223.441C187.261 222.072 186.206 221.282 184.863 221.282C181.417 221.282 178.453 220.692 176.323 219.436C174.152 218.156 172.853 216.177 172.853 213.546C172.853 211.135 173.34 209.108 174.954 207.731ZM182.609 245.349C183.02 245.349 183.352 245.689 183.352 246.108V257.737C183.352 258.156 183.02 258.495 182.609 258.495C182.199 258.495 181.867 258.156 181.867 257.737V246.108C181.867 245.689 182.199 245.349 182.609 245.349Z" fill="#262626"/>
        <path fill-rule="evenodd" clip-rule="evenodd" d="M168.533 15.7209C172.644 18.4541 174.42 21.1442 174.42 23.5884C174.42 26.0325 172.644 28.7226 168.533 31.4559C164.483 34.1492 158.518 36.636 151.005 38.7489C136.002 42.9686 115.184 45.5991 92.1251 45.5991C69.0662 45.5991 48.2485 42.9686 33.2451 38.7489C25.7325 36.636 19.7675 34.1492 15.7171 31.4559C11.6066 28.7226 9.83042 26.0325 9.83042 23.5884C9.83042 21.1442 11.6066 18.4541 15.7171 15.7209C19.7675 13.0276 25.7325 10.5408 33.2451 8.42782C48.2485 4.20813 69.0662 1.57762 92.1251 1.57762C115.184 1.57762 136.002 4.20813 151.005 8.42782C158.518 10.5408 164.483 13.0276 168.533 15.7209ZM92.1251 -0.000967402C138.447 -0.000967402 175.998 10.5603 175.998 23.5884C175.998 36.6164 138.447 47.1777 92.1251 47.1777C45.8032 47.1777 8.25183 36.6164 8.25183 23.5884C8.25183 10.5603 45.8032 -0.000967402 92.1251 -0.000967402Z" fill="#262626"/>
        <path fill-rule="evenodd" clip-rule="evenodd" d="M77.8484 24.3363C78.8989 25.0537 79.0139 25.5373 79.0139 25.6853C79.0139 25.8333 78.8989 26.3169 77.8484 27.0343C76.8496 27.7165 75.3009 28.3936 73.2452 28.9874C69.155 30.1691 63.4121 30.9214 57.0032 30.9214C50.5942 30.9214 44.8513 30.1691 40.7611 28.9874C38.7054 28.3936 37.1567 27.7165 36.1579 27.0343C35.1074 26.3169 34.9924 25.8333 34.9924 25.6853C34.9924 25.5373 35.1074 25.0537 36.1579 24.3363C37.1567 23.6541 38.7054 22.977 40.7611 22.3832C44.8513 21.2015 50.5942 20.4492 57.0032 20.4492C63.4121 20.4492 69.155 21.2015 73.2452 22.3832C75.3009 22.977 76.8496 23.6541 77.8484 24.3363ZM57.0032 18.8706C70.0312 18.8706 80.5925 21.9216 80.5925 25.6853C80.5925 29.449 70.0312 32.5 57.0032 32.5C43.9751 32.5 33.4138 29.449 33.4138 25.6853C33.4138 21.9216 43.9751 18.8706 57.0032 18.8706Z" fill="#262626"/>
        <path fill-rule="evenodd" clip-rule="evenodd" d="M8.77604 24.373C9.21195 24.373 9.56533 24.7264 9.56533 25.1623V56.2706C9.56533 56.5529 9.6989 56.7846 9.90977 56.9116C22.7616 64.6546 57.2503 75.5318 98.9141 74.1732C143.924 72.7055 164.916 61.9323 173.952 57.2952C174.237 57.1489 174.51 57.0086 174.772 56.875C175.042 56.7375 175.209 56.4637 175.209 56.1634V25.1623C175.209 24.7264 175.562 24.373 175.998 24.373C176.434 24.373 176.788 24.7264 176.788 25.1623V56.1634C176.788 57.0589 176.286 57.8746 175.49 58.2809C175.233 58.4122 174.965 58.5496 174.686 58.6928C165.533 63.3886 144.317 74.2721 98.9655 75.751C57.0684 77.1172 22.2627 66.197 9.09513 58.2638C8.37964 57.8327 7.98674 57.0698 7.98674 56.2706V25.1623C7.98674 24.7264 8.34012 24.373 8.77604 24.373Z" fill="#262626"/>
        <path fill-rule="evenodd" clip-rule="evenodd" d="M185.537 73.7863C185.122 75.5332 184.254 77.1714 182.738 78.2326C181.338 79.2122 178.143 80.7485 173.488 82.5106C168.807 84.2827 162.588 86.306 155.093 88.2454C140.104 92.1242 119.993 95.6723 96.8572 96.1982C78.3167 96.6195 57.5413 93.4612 40.374 89.8129C23.2077 86.1648 9.59004 82.0138 5.34972 80.4218C0.644262 78.6551 -0.414887 73.8271 0.13026 69.8753C0.40579 67.8779 1.09658 65.9855 2.03201 64.6359C2.93146 63.3382 4.2684 62.2778 5.8192 62.6668C6.43237 62.8206 7.42155 63.2631 8.69395 63.851C8.99961 63.9923 9.3258 64.144 9.67288 64.3055C10.8134 64.836 12.1797 65.4715 13.785 66.1851C17.9668 68.0437 23.7542 70.4237 31.2222 72.7714C46.1572 77.4665 67.8331 82.0388 96.8393 82.0388C137.534 82.0388 172.244 66.3818 179.371 63.1671C179.831 62.9591 180.177 62.8032 180.401 62.707C181.07 62.4202 181.748 62.4452 182.365 62.7139C182.958 62.9721 183.461 63.4382 183.875 63.9873C184.703 65.0837 185.312 66.6872 185.62 68.4016C185.931 70.1255 185.952 72.0395 185.537 73.7863ZM181.735 64.1613C181.497 64.0579 181.273 64.0507 181.024 64.1578C180.803 64.2526 180.46 64.4071 180.002 64.6138C172.889 67.824 137.895 83.6174 96.8393 83.6174C67.6621 83.6174 45.8267 79.0173 30.7488 74.2773C23.2105 71.9075 17.366 69.5042 13.1439 67.6276C11.5248 66.908 10.1417 66.2646 8.99988 65.7335C8.65513 65.5731 8.33238 65.423 8.03176 65.284C6.69783 64.6676 5.86931 64.3069 5.4351 64.198C4.89112 64.0615 4.1327 64.3762 3.32942 65.5351C2.56211 66.6422 1.94279 68.2878 1.69404 70.091C1.19063 73.7402 2.22626 77.5629 5.90458 78.9439C10.048 80.4995 23.5844 84.631 40.7021 88.2688C57.8189 91.9064 78.4577 95.0373 96.8214 94.62C119.82 94.0973 139.809 90.5698 154.698 86.7172C162.142 84.7909 168.306 82.7845 172.929 81.0343C177.579 79.2742 180.609 77.7957 181.833 76.9394C182.939 76.1647 183.645 74.9188 184.001 73.4214C184.357 71.9241 184.346 70.2337 184.067 68.6813C183.785 67.1193 183.247 65.7744 182.616 64.9384C182.301 64.5214 181.996 64.2752 181.735 64.1613Z" fill="#262626"/>
        <path fill-rule="evenodd" clip-rule="evenodd" d="M2.15743 202.64C3.05688 201.343 4.39382 200.282 5.94462 200.671C6.55779 200.825 7.54696 201.268 8.81937 201.856C9.12503 201.997 9.45121 202.149 9.7983 202.31C10.9388 202.841 12.3051 203.476 13.9105 204.19C18.0923 206.048 23.8796 208.428 31.3477 210.776C46.2826 215.471 67.9585 220.043 96.9647 220.043C97.4006 220.043 97.754 220.397 97.754 220.833C97.754 221.269 97.4006 221.622 96.9647 221.622C67.7875 221.622 45.9522 217.022 30.8742 212.282C23.3359 209.912 17.4914 207.509 13.2693 205.632C11.6502 204.913 10.2671 204.269 9.12531 203.738C8.78056 203.578 8.4578 203.427 8.15718 203.289C6.82325 202.672 5.99473 202.311 5.56052 202.203C5.01654 202.066 4.25812 202.381 3.45484 203.54C2.68752 204.647 2.06821 206.292 1.81946 208.096C1.31605 211.745 2.35168 215.567 6.03 216.948C10.1735 218.504 23.7098 222.636 40.8276 226.273C57.9443 229.911 78.5832 233.042 96.9468 232.625C97.3826 232.615 97.7439 232.96 97.7538 233.396C97.7637 233.831 97.4185 234.193 96.9827 234.203C78.4421 234.624 57.6667 231.466 40.4994 227.817C23.3331 224.169 9.71546 220.018 5.47514 218.426C0.769682 216.66 -0.289467 211.832 0.25568 207.88C0.53121 205.882 1.222 203.99 2.15743 202.64Z" fill="#262626"/>
        <path fill-rule="evenodd" clip-rule="evenodd" d="M9.09472 224.933C8.56562 224.723 7.99271 225.112 7.99271 225.683V250.316C7.99271 250.574 8.10263 250.784 8.28019 250.913C14.0483 255.09 25.2412 260.056 40.7676 263.976C56.2743 267.892 76.048 270.75 98.9398 270.75C99.3757 270.75 99.7291 271.104 99.7291 271.539C99.7291 271.975 99.3757 272.329 98.9398 272.329C75.9192 272.329 56.0156 269.454 40.3812 265.507C24.7665 261.564 13.3543 256.536 7.35435 252.191C6.73595 251.744 6.41412 251.041 6.41412 250.316V225.683C6.41412 223.999 8.1091 222.845 9.67583 223.465C24.7402 229.429 58.4107 239.822 88.9798 239.822C89.4157 239.822 89.7691 240.175 89.7691 240.611C89.7691 241.047 89.4157 241.401 88.9798 241.401C58.1284 241.401 24.2463 230.931 9.09472 224.933Z" fill="#262626"/>
        <path fill-rule="evenodd" clip-rule="evenodd" d="M10.7206 89.2069C10.1598 88.9862 9.56533 89.4024 9.56533 89.9714V193.482C9.56533 193.797 9.73624 194.059 9.99755 194.179C24.1281 200.646 58.0576 210.99 87.9314 210.99C88.3673 210.99 88.7207 211.344 88.7207 211.78C88.7207 212.216 88.3673 212.569 87.9314 212.569C57.7829 212.569 23.6287 202.153 9.34065 195.614C8.4931 195.227 7.98674 194.387 7.98674 193.482V89.9714C7.98674 88.2558 9.7336 87.122 11.2988 87.7381C22.5743 92.1765 51.1039 100.142 91.6463 102.481C131.993 104.808 161.616 94.7054 173.652 88.2778C175.258 87.4201 177.295 88.5666 177.265 90.4467C177.215 93.579 177.162 97.0104 177.105 100.66C177.098 101.096 176.739 101.444 176.304 101.437C175.868 101.43 175.52 101.071 175.527 100.635C175.583 96.9858 175.637 93.5541 175.687 90.4215C175.697 89.8036 174.993 89.3512 174.395 89.6703C162.099 96.2367 132.188 106.401 91.5554 104.057C50.8695 101.709 22.1723 93.7148 10.7206 89.2069Z" fill="#262626"/>
        <path fill-rule="evenodd" clip-rule="evenodd" d="M32.8152 130.537C32.9682 130.359 33.1926 130.258 33.4274 130.262C38.0414 130.341 45.3891 131.077 52.4852 133.031C59.5449 134.975 66.535 138.171 70.2246 143.295C73.8467 148.324 76.6179 156.693 78.6174 165.005C80.6245 173.348 81.8819 181.759 82.4259 186.964C82.4647 187.336 82.2381 187.683 81.8827 187.798C81.5273 187.912 81.1404 187.762 80.9554 187.437C80.5009 186.641 79.9937 185.456 79.4147 184.056C79.2882 183.751 79.1576 183.433 79.0226 183.105C78.5313 181.91 77.981 180.571 77.3513 179.134C75.7472 175.472 73.6479 171.217 70.7993 167.275C68.2766 163.784 65.0982 160.131 62.0733 157.139C60.7016 155.783 59.3788 154.58 58.1756 153.594C60.0945 156.206 62.325 159.356 64.4574 162.577C67.7447 167.544 70.8469 172.751 72.1809 176.425C74.7835 183.593 76.3676 188.854 76.8385 190.606C76.9202 190.91 76.8134 191.233 76.5668 191.429C76.3201 191.625 75.9808 191.655 75.7033 191.506C71.5645 189.288 64.9818 185.142 58.6356 179.89C52.3021 174.65 46.1308 168.249 42.9038 161.507C36.5639 148.262 33.4202 135.8 32.6357 131.183C32.5963 130.952 32.6621 130.715 32.8152 130.537ZM34.3655 131.865C35.3599 136.967 38.4527 148.552 44.3276 160.825C47.4072 167.259 53.3699 173.484 59.642 178.674C65.1058 183.195 70.7487 186.885 74.7909 189.195C74.0412 186.689 72.6634 182.379 70.6971 176.964C69.4343 173.485 66.4308 168.419 63.141 163.449C59.8647 158.499 56.3519 153.715 54.1204 150.826C53.8993 150.54 53.901 150.14 54.1247 149.856C54.3483 149.571 54.7365 149.475 55.0668 149.623C57.1425 150.55 60.1293 152.997 63.1833 156.017C66.2641 159.064 69.5005 162.783 72.0787 166.35C75.022 170.423 77.1735 174.794 78.7973 178.501C79.3101 179.671 79.7722 180.78 80.1894 181.792C79.5133 177.041 78.4815 171.189 77.0826 165.374C75.0864 157.076 72.3702 148.975 68.9437 144.217C65.5847 139.553 59.0496 136.476 52.0662 134.553C45.5962 132.772 38.8952 132.023 34.3655 131.865Z" fill="#262626"/>
        <path fill-rule="evenodd" clip-rule="evenodd" d="M169.449 109.025C169.443 108.589 169.084 108.24 168.649 108.246C160.775 108.354 148.217 109.356 136.097 112.015C130.036 113.345 124.066 115.093 118.837 117.36C113.616 119.624 109.086 122.427 105.955 125.892C99.7777 132.727 95.0257 144.141 91.5895 155.523C88.1444 166.934 85.9859 178.438 85.052 185.558C85.0049 185.917 85.2081 186.262 85.5448 186.395C85.8816 186.528 86.2656 186.414 86.4763 186.12C87.2452 185.046 88.1094 183.439 89.1058 181.52C89.3227 181.102 89.5467 180.668 89.7784 180.219C90.6222 178.584 91.5689 176.749 92.6515 174.78C95.4088 169.765 99.0247 163.922 103.94 158.503C108.287 153.71 113.762 148.696 118.975 144.587C122.429 141.865 125.733 139.569 128.497 137.996C124.846 141.89 120.237 147.01 115.869 152.269C110.225 159.062 104.916 166.165 102.637 171.167C98.1691 180.972 95.4505 188.167 94.6434 190.56C94.544 190.854 94.627 191.18 94.8555 191.391C95.084 191.603 95.4152 191.66 95.7013 191.538C103.904 188.034 117.765 180.981 130.093 172.136C130.447 171.882 130.528 171.389 130.274 171.034C130.02 170.68 129.526 170.599 129.172 170.853C117.756 179.045 104.995 185.694 96.7448 189.361C97.9479 186.09 100.42 179.841 104.073 171.822C106.254 167.036 111.431 160.081 117.083 153.277C122.716 146.497 128.754 139.944 132.592 135.985C132.847 135.722 132.888 135.317 132.689 135.009C132.491 134.7 132.106 134.569 131.761 134.692C128.312 135.919 123.248 139.21 117.998 143.348C112.725 147.503 107.184 152.576 102.771 157.442C97.7388 162.99 94.0545 168.952 91.2682 174.02C90.1745 176.009 89.2155 177.867 88.3707 179.505C88.1404 179.951 87.9186 180.381 87.7049 180.792C87.5325 181.124 87.3659 181.443 87.2046 181.749C88.3185 174.78 90.2731 165.345 93.1007 155.979C96.5267 144.631 101.199 133.509 107.126 126.95C110.048 123.718 114.352 121.026 119.465 118.808C124.572 116.594 130.437 114.873 136.435 113.557C148.433 110.925 160.882 109.931 168.67 109.825C169.106 109.819 169.455 109.46 169.449 109.025Z" fill="#262626"/>

    </g>
</svg>
