<svg width="583" height="565" viewBox="0 0 583 565" fill="none" xmlns="http://www.w3.org/2000/svg">
    <g style="fill: none; stroke: #4048F5; stroke-width: 2px">
        <path fill-rule="evenodd" clip-rule="evenodd" d="M422.17 37.6602H444.904C449.093 37.6602 452.315 37.8373 454.501 38.219C456.778 38.5884 458.838 39.3846 460.655 40.6221C462.503 41.8647 464.021 43.5151 465.214 45.5397C466.455 47.622 467.063 49.9515 467.063 52.4864C467.063 55.2571 466.299 57.8192 464.782 60.1342C463.931 61.4543 462.901 62.5874 461.7 63.5307C463.714 64.5402 465.4 65.8926 466.722 67.6057C468.687 70.1527 469.655 73.1438 469.655 76.5049C469.655 79.1555 469.026 81.7263 467.793 84.2015C466.573 86.674 464.873 88.6898 462.691 90.2139L462.688 90.2163C460.499 91.7373 457.848 92.6325 454.803 92.9655L454.799 92.9659C452.924 93.1672 448.548 93.2852 441.783 93.3326L441.772 93.3327L422.17 93.3327V37.6602ZM466.325 83.4746C467.453 81.2109 468.018 78.8877 468.018 76.5049C468.018 73.4788 467.153 70.8458 465.425 68.606C464.097 66.8847 462.33 65.5503 460.123 64.603C459.458 64.3177 458.753 64.0674 458.009 63.8523C458.703 63.5402 459.353 63.1805 459.959 62.7734C461.341 61.8438 462.491 60.6666 463.409 59.2416C464.753 57.1924 465.425 54.9406 465.425 52.4864C465.425 50.2227 464.885 48.1854 463.805 46.3745C462.725 44.5397 461.369 43.0743 459.737 41.9782C458.129 40.8821 456.293 40.1673 454.229 39.8337C452.189 39.4763 449.08 39.2976 444.904 39.2976H423.807V91.6952H441.772C448.564 91.6476 452.849 91.5284 454.625 91.3378C457.457 91.0281 459.833 90.206 461.753 88.8716C463.697 87.5134 465.221 85.7144 466.325 83.4746ZM448.997 58.3302C450.555 58.1471 451.609 57.641 452.319 56.9358C453.022 56.2378 453.419 55.308 453.419 53.9875C453.419 52.6905 453.063 51.8008 452.478 51.1588L452.465 51.1438L452.451 51.1283C451.906 50.4993 451.003 50.006 449.503 49.8237C448.555 49.7179 445.634 49.656 440.584 49.656H436.101V58.4977H441.448C445.638 58.4977 448.107 58.4354 448.997 58.3302ZM434.464 60.1351V48.0186H440.584C445.6 48.0186 448.636 48.0782 449.692 48.1973C451.469 48.4118 452.801 49.0313 453.689 50.0559C454.601 51.0567 455.057 52.3672 455.057 53.9875C455.057 55.6793 454.529 57.0494 453.473 58.0978C452.441 59.1224 451.013 59.742 449.188 59.9564C448.18 60.0756 445.6 60.1351 441.448 60.1351H434.464ZM451.325 80.9377L451.346 80.9339C452.607 80.7063 453.552 80.1782 454.27 79.3784L454.272 79.3768C454.95 78.6236 455.363 77.5572 455.363 76.0045C455.363 74.7077 455.051 73.7162 454.508 72.9411C453.969 72.1718 453.16 71.5625 451.971 71.1562L451.963 71.1535C451.451 70.9756 450.481 70.7992 448.933 70.6761C447.42 70.5557 445.469 70.4936 443.068 70.4936H436.101V81.2296H444.328C448.221 81.2296 450.471 81.1151 451.303 80.9421L451.325 80.9377ZM434.464 82.867V68.8562H443.068C447.916 68.8562 451.061 69.1063 452.501 69.6067C453.965 70.1071 455.081 70.9054 455.849 72.0014C456.617 73.0975 457.001 74.4319 457.001 76.0045C457.001 77.8631 456.497 79.3524 455.489 80.4723C454.505 81.5684 453.221 82.2594 451.637 82.5453C450.605 82.7598 448.168 82.867 444.328 82.867H434.464Z" fill="#262626"/>
        <path fill-rule="evenodd" clip-rule="evenodd" d="M441.819 132.632C477.992 132.632 507.316 103.308 507.316 67.1345C507.316 30.9615 477.992 1.63743 441.819 1.63743C405.646 1.63743 376.322 30.9615 376.322 67.1345C376.322 103.308 405.646 132.632 441.819 132.632ZM441.819 134.269C478.896 134.269 508.953 104.212 508.953 67.1345C508.953 30.0571 478.896 0 441.819 0C404.741 0 374.684 30.0571 374.684 67.1345C374.684 104.212 404.741 134.269 441.819 134.269Z" fill="#262626"/>
        <path fill-rule="evenodd" clip-rule="evenodd" d="M441.819 114.62C469 114.62 490.942 93.3098 490.942 67.1345C490.942 40.9593 469 19.6491 441.819 19.6491C414.638 19.6491 392.696 40.9593 392.696 67.1345C392.696 93.3098 414.638 114.62 441.819 114.62ZM441.819 116.257C469.853 116.257 492.579 94.2643 492.579 67.1345C492.579 40.0047 469.853 18.0117 441.819 18.0117C413.785 18.0117 391.058 40.0047 391.058 67.1345C391.058 94.2643 413.785 116.257 441.819 116.257Z" fill="#262626"/>
        <path fill-rule="evenodd" clip-rule="evenodd" d="M423.807 130.176C424.259 130.176 424.626 130.542 424.626 130.994V138.882C424.626 140.873 423.193 142.575 421.232 142.915L346.428 155.892C345.251 156.096 344.392 157.117 344.392 158.312V171.111C344.392 171.564 344.025 171.93 343.573 171.93C343.121 171.93 342.754 171.564 342.754 171.111V158.312C342.754 156.321 344.187 154.619 346.148 154.278L420.952 141.302C422.129 141.098 422.988 140.077 422.988 138.882V130.994C422.988 130.542 423.355 130.176 423.807 130.176Z" fill="#262626"/>
        <path fill-rule="evenodd" clip-rule="evenodd" d="M459.83 130.176C459.378 130.176 459.012 130.542 459.012 130.994V138.882C459.012 140.873 460.444 142.575 462.406 142.915L537.209 155.892C538.386 156.096 539.246 157.117 539.246 158.312V171.111C539.246 171.564 539.612 171.93 540.064 171.93C540.517 171.93 540.883 171.564 540.883 171.111V158.312C540.883 156.321 539.451 154.619 537.489 154.278L462.685 141.302C461.509 141.098 460.649 140.077 460.649 138.882V130.994C460.649 130.542 460.283 130.176 459.83 130.176Z" fill="#262626"/>
        <path fill-rule="evenodd" clip-rule="evenodd" d="M441.819 132.631C442.271 132.631 442.637 132.997 442.637 133.45V167.836C442.637 168.288 442.271 168.654 441.819 168.654C441.367 168.654 441 168.288 441 167.836V133.45C441 132.997 441.367 132.631 441.819 132.631Z" fill="#262626"/>
        <path fill-rule="evenodd" clip-rule="evenodd" d="M379.596 171.93H305.912C304.104 171.93 302.637 173.397 302.637 175.205V203.042C302.637 204.85 304.104 206.316 305.912 206.316H379.596C381.405 206.316 382.871 204.85 382.871 203.042V175.205C382.871 173.397 381.405 171.93 379.596 171.93ZM305.912 170.293C303.199 170.293 301 172.492 301 175.205V203.042C301 205.754 303.199 207.954 305.912 207.954H379.596C382.309 207.954 384.509 205.754 384.509 203.042V175.205C384.509 172.492 382.309 170.293 379.596 170.293H305.912Z" fill="#262626"/>
        <path fill-rule="evenodd" clip-rule="evenodd" d="M379.596 207.954H305.912C304.104 207.954 302.637 209.42 302.637 211.229V239.065C302.637 240.874 304.104 242.34 305.912 242.34H379.596C381.405 242.34 382.871 240.874 382.871 239.065V211.229C382.871 209.42 381.405 207.954 379.596 207.954ZM305.912 206.316C303.199 206.316 301 208.516 301 211.229V239.065C301 241.778 303.199 243.977 305.912 243.977H379.596C382.309 243.977 384.509 241.778 384.509 239.065V211.229C384.509 208.516 382.309 206.316 379.596 206.316H305.912Z" fill="#262626"/>
        <path fill-rule="evenodd" clip-rule="evenodd" d="M379.596 243.977H305.912C304.104 243.977 302.637 245.443 302.637 247.252V275.088C302.637 276.897 304.104 278.363 305.912 278.363H379.596C381.405 278.363 382.871 276.897 382.871 275.088V247.252C382.871 245.443 381.405 243.977 379.596 243.977ZM305.912 242.34C303.199 242.34 301 244.539 301 247.252V275.088C301 277.801 303.199 280.001 305.912 280.001H379.596C382.309 280.001 384.509 277.801 384.509 275.088V247.252C384.509 244.539 382.309 242.34 379.596 242.34H305.912Z" fill="#262626"/>
        <path fill-rule="evenodd" clip-rule="evenodd" d="M327.199 189.942H320.649V196.492H327.199V189.942ZM319.012 188.305V198.129H328.836V188.305H319.012Z" fill="#262626"/>
        <path fill-rule="evenodd" clip-rule="evenodd" d="M346.848 189.942H340.298V196.492H346.848V189.942ZM338.661 188.305V198.129H348.485V188.305H338.661Z" fill="#262626"/>
        <path fill-rule="evenodd" clip-rule="evenodd" d="M366.497 189.942H359.947V196.492H366.497V189.942ZM358.31 188.305V198.129H368.134V188.305H358.31Z" fill="#262626"/>
        <path fill-rule="evenodd" clip-rule="evenodd" d="M327.199 224.329H320.649V230.879H327.199V224.329ZM319.012 222.691V232.516H328.836V222.691H319.012Z" fill="#262626"/>
        <path fill-rule="evenodd" clip-rule="evenodd" d="M346.848 224.329H340.298V230.879H346.848V224.329ZM338.661 222.691V232.516H348.485V222.691H338.661Z" fill="#262626"/>
        <path fill-rule="evenodd" clip-rule="evenodd" d="M366.497 224.329H359.947V230.879H366.497V224.329ZM358.31 222.691V232.516H368.134V222.691H358.31Z" fill="#262626"/>
        <path fill-rule="evenodd" clip-rule="evenodd" d="M327.199 258.714H320.649V265.263H327.199V258.714ZM319.012 257.076V266.901H328.836V257.076H319.012Z" fill="#262626"/>
        <path fill-rule="evenodd" clip-rule="evenodd" d="M346.848 258.714H340.298V265.263H346.848V258.714ZM338.661 257.076V266.901H348.485V257.076H338.661Z" fill="#262626"/>
        <path fill-rule="evenodd" clip-rule="evenodd" d="M366.497 258.714H359.947V265.263H366.497V258.714ZM358.31 257.076V266.901H368.134V257.076H358.31Z" fill="#262626"/>
        <path fill-rule="evenodd" clip-rule="evenodd" d="M477.842 170.292H404.158C402.349 170.292 400.883 171.758 400.883 173.567V201.403C400.883 203.211 402.349 204.678 404.158 204.678H477.842C479.651 204.678 481.117 203.211 481.117 201.403V173.567C481.117 171.758 479.651 170.292 477.842 170.292ZM404.158 168.654C401.445 168.654 399.246 170.854 399.246 173.567V201.403C399.246 204.116 401.445 206.315 404.158 206.315H477.842C480.555 206.315 482.754 204.116 482.754 201.403V173.567C482.754 170.854 480.555 168.654 477.842 168.654H404.158Z" fill="#262626"/>
        <path fill-rule="evenodd" clip-rule="evenodd" d="M477.842 206.315H404.158C402.349 206.315 400.883 207.781 400.883 209.59V237.426C400.883 239.235 402.349 240.701 404.158 240.701H477.842C479.651 240.701 481.117 239.235 481.117 237.426V209.59C481.117 207.781 479.651 206.315 477.842 206.315ZM404.158 204.678C401.445 204.678 399.246 206.877 399.246 209.59V237.426C399.246 240.139 401.445 242.339 404.158 242.339H477.842C480.555 242.339 482.754 240.139 482.754 237.426V209.59C482.754 206.877 480.555 204.678 477.842 204.678H404.158Z" fill="#262626"/>
        <path fill-rule="evenodd" clip-rule="evenodd" d="M477.842 242.339H404.158C402.349 242.339 400.883 243.805 400.883 245.613V273.45C400.883 275.258 402.349 276.725 404.158 276.725H477.842C479.651 276.725 481.117 275.258 481.117 273.45V245.613C481.117 243.805 479.651 242.339 477.842 242.339ZM404.158 240.701C401.445 240.701 399.246 242.9 399.246 245.613V273.45C399.246 276.163 401.445 278.362 404.158 278.362H477.842C480.555 278.362 482.754 276.163 482.754 273.45V245.613C482.754 242.9 480.555 240.701 477.842 240.701H404.158Z" fill="#262626"/>
        <path fill-rule="evenodd" clip-rule="evenodd" d="M425.444 188.303H418.895V194.853H425.444V188.303ZM417.257 186.666V196.491H427.082V186.666H417.257Z" fill="#262626"/>
        <path fill-rule="evenodd" clip-rule="evenodd" d="M445.094 188.303H438.544V194.853H445.094V188.303ZM436.906 186.666V196.491H446.731V186.666H436.906Z" fill="#262626"/>
        <path fill-rule="evenodd" clip-rule="evenodd" d="M464.743 188.303H458.193V194.853H464.743V188.303ZM456.556 186.666V196.491H466.38V186.666H456.556Z" fill="#262626"/>
        <path fill-rule="evenodd" clip-rule="evenodd" d="M425.444 222.69H418.895V229.24H425.444V222.69ZM417.257 221.053V230.877H427.082V221.053H417.257Z" fill="#262626"/>
        <path fill-rule="evenodd" clip-rule="evenodd" d="M445.094 222.69H438.544V229.24H445.094V222.69ZM436.906 221.053V230.877H446.731V221.053H436.906Z" fill="#262626"/>
        <path fill-rule="evenodd" clip-rule="evenodd" d="M464.743 222.69H458.193V229.24H464.743V222.69ZM456.556 221.053V230.877H466.38V221.053H456.556Z" fill="#262626"/>
        <path fill-rule="evenodd" clip-rule="evenodd" d="M425.444 257.075H418.895V263.625H425.444V257.075ZM417.257 255.438V265.262H427.082V255.438H417.257Z" fill="#262626"/>
        <path fill-rule="evenodd" clip-rule="evenodd" d="M445.094 257.075H438.544V263.625H445.094V257.075ZM436.906 255.438V265.262H446.731V255.438H436.906Z" fill="#262626"/>
        <path fill-rule="evenodd" clip-rule="evenodd" d="M464.743 257.075H458.193V263.625H464.743V257.075ZM456.556 255.438V265.262H466.38V255.438H456.556Z" fill="#262626"/>
        <path fill-rule="evenodd" clip-rule="evenodd" d="M577.725 171.93H504.041C502.232 171.93 500.766 173.397 500.766 175.205V203.042C500.766 204.85 502.232 206.316 504.041 206.316H577.725C579.534 206.316 581 204.85 581 203.042V175.205C581 173.397 579.534 171.93 577.725 171.93ZM504.041 170.293C501.328 170.293 499.129 172.492 499.129 175.205V203.042C499.129 205.754 501.328 207.954 504.041 207.954H577.725C580.438 207.954 582.637 205.754 582.637 203.042V175.205C582.637 172.492 580.438 170.293 577.725 170.293H504.041Z" fill="#262626"/>
        <path fill-rule="evenodd" clip-rule="evenodd" d="M577.725 207.954H504.041C502.232 207.954 500.766 209.42 500.766 211.229V239.065C500.766 240.874 502.232 242.34 504.041 242.34H577.725C579.534 242.34 581 240.874 581 239.065V211.229C581 209.42 579.534 207.954 577.725 207.954ZM504.041 206.316C501.328 206.316 499.129 208.516 499.129 211.229V239.065C499.129 241.778 501.328 243.977 504.041 243.977H577.725C580.438 243.977 582.637 241.778 582.637 239.065V211.229C582.637 208.516 580.438 206.316 577.725 206.316H504.041Z" fill="#262626"/>
        <path fill-rule="evenodd" clip-rule="evenodd" d="M577.725 243.977H504.041C502.232 243.977 500.766 245.443 500.766 247.252V275.088C500.766 276.897 502.232 278.363 504.041 278.363H577.725C579.534 278.363 581 276.897 581 275.088V247.252C581 245.443 579.534 243.977 577.725 243.977ZM504.041 242.34C501.328 242.34 499.129 244.539 499.129 247.252V275.088C499.129 277.801 501.328 280.001 504.041 280.001H577.725C580.438 280.001 582.637 277.801 582.637 275.088V247.252C582.637 244.539 580.438 242.34 577.725 242.34H504.041Z" fill="#262626"/>
        <path fill-rule="evenodd" clip-rule="evenodd" d="M525.328 189.942H518.778V196.492H525.328V189.942ZM517.14 188.305V198.129H526.965V188.305H517.14Z" fill="#262626"/>
        <path fill-rule="evenodd" clip-rule="evenodd" d="M544.977 189.942H538.427V196.492H544.977V189.942ZM536.79 188.305V198.129H546.614V188.305H536.79Z" fill="#262626"/>
        <path fill-rule="evenodd" clip-rule="evenodd" d="M564.626 189.942H558.076V196.492H564.626V189.942ZM556.439 188.305V198.129H566.263V188.305H556.439Z" fill="#262626"/>
        <path fill-rule="evenodd" clip-rule="evenodd" d="M525.328 224.329H518.778V230.879H525.328V224.329ZM517.14 222.691V232.516H526.965V222.691H517.14Z" fill="#262626"/>
        <path fill-rule="evenodd" clip-rule="evenodd" d="M544.977 224.329H538.427V230.879H544.977V224.329ZM536.79 222.691V232.516H546.614V222.691H536.79Z" fill="#262626"/>
        <path fill-rule="evenodd" clip-rule="evenodd" d="M564.626 224.329H558.076V230.879H564.626V224.329ZM556.439 222.691V232.516H566.263V222.691H556.439Z" fill="#262626"/>
        <path fill-rule="evenodd" clip-rule="evenodd" d="M525.328 258.714H518.778V265.263H525.328V258.714ZM517.14 257.076V266.901H526.965V257.076H517.14Z" fill="#262626"/>
        <path fill-rule="evenodd" clip-rule="evenodd" d="M544.977 258.714H538.427V265.263H544.977V258.714ZM536.79 257.076V266.901H546.614V257.076H536.79Z" fill="#262626"/>
        <path fill-rule="evenodd" clip-rule="evenodd" d="M564.626 258.714H558.076V265.263H564.626V258.714ZM556.439 257.076V266.901H566.263V257.076H556.439Z" fill="#262626"/>
        <path fill-rule="evenodd" clip-rule="evenodd" d="M339.48 20.4691C339.48 20.0169 339.846 19.6504 340.298 19.6504H348.485C350.746 19.6504 352.579 21.4831 352.579 23.744V34.3872C352.579 35.7437 353.679 36.8434 355.035 36.8434H367.316C367.768 36.8434 368.135 37.2099 368.135 37.6621C368.135 38.1142 367.768 38.4808 367.316 38.4808H355.035C352.774 38.4808 350.942 36.648 350.942 34.3872V23.744C350.942 22.3875 349.842 21.2878 348.485 21.2878H340.298C339.846 21.2878 339.48 20.9213 339.48 20.4691Z" fill="#262626"/>
        <path fill-rule="evenodd" clip-rule="evenodd" d="M327.199 32.7489C333.529 32.7489 338.661 27.6172 338.661 21.2869C338.661 14.9566 333.529 9.82493 327.199 9.82493C320.869 9.82493 315.737 14.9566 315.737 21.2869C315.737 27.6172 320.869 32.7489 327.199 32.7489ZM327.199 34.3863C334.433 34.3863 340.298 28.5215 340.298 21.2869C340.298 14.0523 334.433 8.1875 327.199 8.1875C319.964 8.1875 314.099 14.0523 314.099 21.2869C314.099 28.5215 319.964 34.3863 327.199 34.3863Z" fill="#262626"/>
        <path fill-rule="evenodd" clip-rule="evenodd" d="M327.199 29.4746C331.72 29.4746 335.386 25.8091 335.386 21.2875C335.386 16.7658 331.72 13.1003 327.199 13.1003C322.677 13.1003 319.012 16.7658 319.012 21.2875C319.012 25.8091 322.677 29.4746 327.199 29.4746ZM327.199 31.112C332.625 31.112 337.023 26.7134 337.023 21.2875C337.023 15.8615 332.625 11.4629 327.199 11.4629C321.773 11.4629 317.374 15.8615 317.374 21.2875C317.374 26.7134 321.773 31.112 327.199 31.112Z" fill="#262626"/>
        <path fill-rule="evenodd" clip-rule="evenodd" d="M541.702 20.4691C541.702 20.0169 541.335 19.6504 540.883 19.6504H532.696C530.435 19.6504 528.602 21.4831 528.602 23.744V34.3872C528.602 35.7437 527.503 36.8434 526.146 36.8434H513.865C513.413 36.8434 513.047 37.2099 513.047 37.6621C513.047 38.1142 513.413 38.4808 513.865 38.4808H526.146C528.407 38.4808 530.24 36.648 530.24 34.3872V23.744C530.24 22.3875 531.339 21.2878 532.696 21.2878H540.883C541.335 21.2878 541.702 20.9213 541.702 20.4691Z" fill="#262626"/>
        <path fill-rule="evenodd" clip-rule="evenodd" d="M553.982 32.7489C547.652 32.7489 542.52 27.6172 542.52 21.2869C542.52 14.9566 547.652 9.82493 553.982 9.82493C560.313 9.82493 565.444 14.9566 565.444 21.2869C565.444 27.6172 560.313 32.7489 553.982 32.7489ZM553.982 34.3863C546.748 34.3863 540.883 28.5215 540.883 21.2869C540.883 14.0523 546.748 8.1875 553.982 8.1875C561.217 8.1875 567.082 14.0523 567.082 21.2869C567.082 28.5215 561.217 34.3863 553.982 34.3863Z" fill="#262626"/>
        <path fill-rule="evenodd" clip-rule="evenodd" d="M553.982 29.4746C549.461 29.4746 545.795 25.8091 545.795 21.2875C545.795 16.7658 549.461 13.1003 553.982 13.1003C558.504 13.1003 562.169 16.7658 562.169 21.2875C562.169 25.8091 558.504 29.4746 553.982 29.4746ZM553.982 31.112C548.556 31.112 544.158 26.7134 544.158 21.2875C544.158 15.8615 548.556 11.4629 553.982 11.4629C559.408 11.4629 563.807 15.8615 563.807 21.2875C563.807 26.7134 559.408 31.112 553.982 31.112Z" fill="#262626"/>
        <path fill-rule="evenodd" clip-rule="evenodd" d="M339.48 110.525C339.48 110.977 339.846 111.344 340.298 111.344H348.485C350.746 111.344 352.579 109.511 352.579 107.25V96.6069C352.579 95.2504 353.679 94.1508 355.035 94.1508H367.316C367.768 94.1508 368.135 93.7842 368.135 93.3321C368.135 92.8799 367.768 92.5133 367.316 92.5133H355.035C352.774 92.5133 350.942 94.3461 350.942 96.6069V107.25C350.942 108.607 349.842 109.706 348.485 109.706H340.298C339.846 109.706 339.48 110.073 339.48 110.525Z" fill="#262626"/>
        <path fill-rule="evenodd" clip-rule="evenodd" d="M327.199 98.2452C333.529 98.2452 338.661 103.377 338.661 109.707C338.661 116.038 333.529 121.169 327.199 121.169C320.869 121.169 315.737 116.038 315.737 109.707C315.737 103.377 320.869 98.2452 327.199 98.2452ZM327.199 96.6078C334.433 96.6078 340.298 102.473 340.298 109.707C340.298 116.942 334.433 122.807 327.199 122.807C319.964 122.807 314.099 116.942 314.099 109.707C314.099 102.473 319.964 96.6078 327.199 96.6078Z" fill="#262626"/>
        <path fill-rule="evenodd" clip-rule="evenodd" d="M327.199 101.52C331.72 101.52 335.386 105.185 335.386 109.707C335.386 114.228 331.72 117.894 327.199 117.894C322.677 117.894 319.012 114.228 319.012 109.707C319.012 105.185 322.677 101.52 327.199 101.52ZM327.199 99.8821C332.625 99.8821 337.023 104.281 337.023 109.707C337.023 115.133 332.625 119.531 327.199 119.531C321.773 119.531 317.374 115.133 317.374 109.707C317.374 104.281 321.773 99.8821 327.199 99.8821Z" fill="#262626"/>
        <path fill-rule="evenodd" clip-rule="evenodd" d="M541.702 110.525C541.702 110.977 541.335 111.344 540.883 111.344H532.696C530.435 111.344 528.602 109.511 528.602 107.25V96.6069C528.602 95.2504 527.503 94.1508 526.146 94.1508H513.865C513.413 94.1508 513.047 93.7842 513.047 93.3321C513.047 92.8799 513.413 92.5133 513.865 92.5133H526.146C528.407 92.5133 530.24 94.3461 530.24 96.6069V107.25C530.24 108.607 531.339 109.706 532.696 109.706H540.883C541.335 109.706 541.702 110.073 541.702 110.525Z" fill="#262626"/>
        <path fill-rule="evenodd" clip-rule="evenodd" d="M553.982 98.2452C547.652 98.2452 542.52 103.377 542.52 109.707C542.52 116.038 547.652 121.169 553.982 121.169C560.313 121.169 565.444 116.038 565.444 109.707C565.444 103.377 560.313 98.2452 553.982 98.2452ZM553.982 96.6078C546.748 96.6078 540.883 102.473 540.883 109.707C540.883 116.942 546.748 122.807 553.982 122.807C561.217 122.807 567.082 116.942 567.082 109.707C567.082 102.473 561.217 96.6078 553.982 96.6078Z" fill="#262626"/>
        <path fill-rule="evenodd" clip-rule="evenodd" d="M553.982 101.52C549.461 101.52 545.795 105.185 545.795 109.707C545.795 114.228 549.461 117.894 553.982 117.894C558.504 117.894 562.169 114.228 562.169 109.707C562.169 105.185 558.504 101.52 553.982 101.52ZM553.982 99.8821C548.556 99.8821 544.158 104.281 544.158 109.707C544.158 115.133 548.556 119.531 553.982 119.531C559.408 119.531 563.807 115.133 563.807 109.707C563.807 104.281 559.408 99.8821 553.982 99.8821Z" fill="#262626"/>
        <path fill-rule="evenodd" clip-rule="evenodd" d="M327.199 76.9598C333.529 76.9598 338.661 71.8281 338.661 65.4979C338.661 59.1676 333.529 54.0359 327.199 54.0359C320.869 54.0359 315.737 59.1676 315.737 65.4979C315.737 71.8281 320.869 76.9598 327.199 76.9598ZM327.199 78.5973C334.433 78.5973 340.298 72.7325 340.298 65.4979C340.298 58.2632 334.433 52.3984 327.199 52.3984C319.964 52.3984 314.099 58.2632 314.099 65.4979C314.099 72.7325 319.964 78.5973 327.199 78.5973Z" fill="#262626"/>
        <path fill-rule="evenodd" clip-rule="evenodd" d="M327.199 73.6855C331.72 73.6855 335.386 70.02 335.386 65.4984C335.386 60.9768 331.72 57.3113 327.199 57.3113C322.677 57.3113 319.012 60.9768 319.012 65.4984C319.012 70.02 322.677 73.6855 327.199 73.6855ZM327.199 75.323C332.625 75.323 337.023 70.9243 337.023 65.4984C337.023 60.0724 332.625 55.6738 327.199 55.6738C321.773 55.6738 317.374 60.0724 317.374 65.4984C317.374 70.9243 321.773 75.323 327.199 75.323Z" fill="#262626"/>
        <path fill-rule="evenodd" clip-rule="evenodd" d="M339.48 65.4984C339.48 65.0462 339.846 64.6797 340.298 64.6797H362.404C362.856 64.6797 363.222 65.0462 363.222 65.4984C363.222 65.9506 362.856 66.3171 362.404 66.3171H340.298C339.846 66.3171 339.48 65.9506 339.48 65.4984Z" fill="#262626"/>
        <path fill-rule="evenodd" clip-rule="evenodd" d="M553.982 76.9598C547.652 76.9598 542.52 71.8281 542.52 65.4979C542.52 59.1676 547.652 54.0359 553.982 54.0359C560.313 54.0359 565.444 59.1676 565.444 65.4979C565.444 71.8281 560.313 76.9598 553.982 76.9598ZM553.982 78.5973C546.748 78.5973 540.883 72.7325 540.883 65.4979C540.883 58.2632 546.748 52.3984 553.982 52.3984C561.217 52.3984 567.082 58.2632 567.082 65.4979C567.082 72.7325 561.217 78.5973 553.982 78.5973Z" fill="#262626"/>
        <path fill-rule="evenodd" clip-rule="evenodd" d="M553.982 73.6855C549.461 73.6855 545.795 70.02 545.795 65.4984C545.795 60.9768 549.461 57.3113 553.982 57.3113C558.504 57.3113 562.169 60.9768 562.169 65.4984C562.169 70.02 558.504 73.6855 553.982 73.6855ZM553.982 75.323C548.556 75.323 544.158 70.9243 544.158 65.4984C544.158 60.0724 548.556 55.6738 553.982 55.6738C559.408 55.6738 563.807 60.0724 563.807 65.4984C563.807 70.9243 559.408 75.323 553.982 75.323Z" fill="#262626"/>
        <path fill-rule="evenodd" clip-rule="evenodd" d="M541.702 65.4984C541.702 65.0462 541.335 64.6797 540.883 64.6797H518.778C518.326 64.6797 517.959 65.0462 517.959 65.4984C517.959 65.9506 518.326 66.3171 518.778 66.3171H540.883C541.335 66.3171 541.702 65.9506 541.702 65.4984Z" fill="#262626"/>
        <path fill-rule="evenodd" clip-rule="evenodd" d="M434.45 29.4744C434.45 27.2136 436.283 25.3809 438.544 25.3809H443.456C445.717 25.3809 447.55 27.2136 447.55 29.4744V39.299H445.912V29.4744C445.912 28.1179 444.813 27.0183 443.456 27.0183H438.544C437.187 27.0183 436.088 28.1179 436.088 29.4744V39.299H434.45V29.4744Z" fill="#262626"/>
        <path fill-rule="evenodd" clip-rule="evenodd" d="M447.55 101.52C447.55 103.781 445.717 105.613 443.456 105.613H438.544C436.283 105.613 434.45 103.781 434.45 101.52V91.6952H436.088V101.52C436.088 102.876 437.187 103.976 438.544 103.976H443.456C444.813 103.976 445.912 102.876 445.912 101.52V91.6952H447.55V101.52Z" fill="#262626"/>
        <path fill-rule="evenodd" clip-rule="evenodd" d="M0 325.957C0 325.429 0.42864 325 0.957394 325H27.6746C30.3184 325 32.4616 327.143 32.4616 329.787V564.043C32.4616 564.571 32.0329 565 31.5042 565C30.9754 565 30.5468 564.571 30.5468 564.043V504.805H12.8729C10.2291 504.805 8.08591 502.662 8.08591 500.018V461.857C8.08591 459.213 10.2291 457.07 12.8729 457.07H30.5468V416.758H12.8729C10.2291 416.758 8.08591 414.615 8.08591 411.971V373.81C8.08591 371.167 10.2291 369.023 12.8729 369.023H30.5468V329.787C30.5468 328.201 29.2609 326.915 27.6746 326.915H0.957394C0.42864 326.915 0 326.486 0 325.957ZM30.5468 370.938H12.8729C11.2866 370.938 10.0007 372.224 10.0007 373.81V411.971C10.0007 413.558 11.2866 414.843 12.8729 414.843H30.5468V370.938ZM30.5468 458.985H12.8729C11.2866 458.985 10.0007 460.271 10.0007 461.857V500.018C10.0007 501.604 11.2866 502.89 12.8729 502.89H30.5468V458.985Z" fill="#262626"/>
        <path fill-rule="evenodd" clip-rule="evenodd" d="M31.4453 358.301C31.4453 357.772 31.8739 357.344 32.4026 357.344H295.835C302.709 357.344 308.281 362.916 308.281 369.79V504.038C308.281 510.912 302.709 516.485 295.835 516.485H240V534.159C240 536.802 237.857 538.945 235.213 538.945H136.857C134.213 538.945 132.07 536.802 132.07 534.158V516.485H106.133V534.159C106.133 536.802 103.99 538.945 101.346 538.945H54.2009C51.5571 538.945 49.4139 536.802 49.4139 534.158V516.485H32.4026C31.8739 516.485 31.4453 516.056 31.4453 515.527C31.4453 514.998 31.8739 514.57 32.4026 514.57H295.835C301.651 514.57 306.366 509.855 306.366 504.038V369.79C306.366 363.974 301.651 359.259 295.835 359.259H32.4026C31.8739 359.259 31.4453 358.83 31.4453 358.301ZM51.3287 516.485V534.158C51.3287 535.745 52.6147 537.031 54.2009 537.031H76.8162V516.485H51.3287ZM78.731 516.485V537.031H101.346C102.933 537.031 104.218 535.745 104.218 534.159V516.485H78.731ZM133.985 516.485V534.158C133.985 535.745 135.271 537.031 136.857 537.031H159.023V516.485H133.985ZM160.938 516.485V537.031H185.078V516.485H160.938ZM186.992 516.485V537.031H211.581V516.485H186.992ZM213.496 516.485V537.031H235.213C236.799 537.031 238.085 535.745 238.085 534.159V516.485H213.496Z" fill="#262626"/>
        <path fill-rule="evenodd" clip-rule="evenodd" d="M103.379 495.643C135.566 495.643 161.659 469.55 161.659 437.363C161.659 405.176 135.566 379.083 103.379 379.083C71.1916 379.083 45.0986 405.176 45.0986 437.363C45.0986 469.55 71.1916 495.643 103.379 495.643ZM103.379 497.558C136.624 497.558 163.574 470.608 163.574 437.363C163.574 404.118 136.624 377.168 103.379 377.168C70.1341 377.168 43.1838 404.118 43.1838 437.363C43.1838 470.608 70.1341 497.558 103.379 497.558Z" fill="#262626"/>
        <path fill-rule="evenodd" clip-rule="evenodd" d="M230.957 495.643C263.144 495.643 289.237 469.55 289.237 437.363C289.237 405.176 263.144 379.083 230.957 379.083C198.769 379.083 172.676 405.176 172.676 437.363C172.676 469.55 198.769 495.643 230.957 495.643ZM230.957 497.558C264.202 497.558 291.152 470.608 291.152 437.363C291.152 404.118 264.202 377.168 230.957 377.168C197.712 377.168 170.762 404.118 170.762 437.363C170.762 470.608 197.712 497.558 230.957 497.558Z" fill="#262626"/>
        <path fill-rule="evenodd" clip-rule="evenodd" d="M103.379 448.925C109.764 448.925 114.941 443.749 114.941 437.363C114.941 430.978 109.764 425.802 103.379 425.802C96.9936 425.802 91.8173 430.978 91.8173 437.363C91.8173 443.749 96.9936 448.925 103.379 448.925ZM103.379 450.84C110.822 450.84 116.856 444.806 116.856 437.363C116.856 429.92 110.822 423.887 103.379 423.887C95.9361 423.887 89.9025 429.92 89.9025 437.363C89.9025 444.806 95.9361 450.84 103.379 450.84Z" fill="#262626"/>
        <path fill-rule="evenodd" clip-rule="evenodd" d="M230.957 448.925C237.342 448.925 242.518 443.749 242.518 437.363C242.518 430.978 237.342 425.802 230.957 425.802C224.571 425.802 219.395 430.978 219.395 437.363C219.395 443.749 224.571 448.925 230.957 448.925ZM230.957 450.84C238.4 450.84 244.433 444.806 244.433 437.363C244.433 429.92 238.4 423.887 230.957 423.887C223.514 423.887 217.48 429.92 217.48 437.363C217.48 444.806 223.514 450.84 230.957 450.84Z" fill="#262626"/>
        <path fill-rule="evenodd" clip-rule="evenodd" d="M103.1 377.151C103.606 376.997 104.141 377.282 104.295 377.788L110.28 397.454C110.529 398.271 110.554 399.14 110.354 399.971L104.31 425.01C104.186 425.524 103.668 425.84 103.154 425.716C102.64 425.592 102.324 425.075 102.448 424.561L108.492 399.521C108.613 399.023 108.597 398.501 108.448 398.011L102.463 378.346C102.309 377.84 102.594 377.305 103.1 377.151ZM144.111 393.331C144.613 393.498 144.884 394.04 144.717 394.542L137.989 414.725C137.619 415.835 136.854 416.772 135.84 417.357L113.74 430.107C113.282 430.371 112.697 430.214 112.432 429.756C112.168 429.298 112.325 428.713 112.783 428.449L134.883 415.699C135.492 415.348 135.95 414.786 136.173 414.119L142.9 393.936C143.067 393.434 143.61 393.163 144.111 393.331ZM60.2489 395.719C60.4236 395.22 60.9697 394.957 61.4688 395.132L78.1938 400.986C79.2012 401.338 80.0619 402.018 80.6391 402.915L96.0984 426.963C96.3843 427.408 96.2555 428 95.8108 428.286C95.366 428.572 94.7736 428.443 94.4877 427.999L79.0284 403.951C78.6821 403.412 78.1657 403.005 77.5612 402.793L60.8363 396.939C60.3372 396.765 60.0742 396.219 60.2489 395.719ZM61.7918 433.937C61.4046 433.878 61.0094 433.899 60.6306 433.999L44.3259 438.29C43.8146 438.424 43.291 438.119 43.1564 437.607C43.0218 437.096 43.3273 436.572 43.8386 436.438L60.1433 432.147C60.7746 431.981 61.4332 431.946 62.0787 432.044L90.9443 436.417C91.4671 436.496 91.8267 436.984 91.7475 437.507C91.6683 438.03 91.1802 438.39 90.6575 438.31L61.7918 433.937ZM162.663 436.999C162.864 437.488 162.631 438.048 162.142 438.249L147.842 444.137C147.045 444.465 146.175 444.572 145.323 444.447L115.818 440.108C115.295 440.031 114.933 439.544 115.01 439.021C115.087 438.498 115.573 438.136 116.096 438.213L145.601 442.552C146.113 442.628 146.635 442.563 147.113 442.367L161.413 436.478C161.902 436.277 162.461 436.51 162.663 436.999ZM94.3081 444.942C94.5883 445.391 94.452 445.981 94.0036 446.261L66.6143 463.38C65.9615 463.788 65.4998 464.441 65.3328 465.192L62.0871 479.798C61.9724 480.314 61.461 480.639 60.9448 480.525C60.4287 480.41 60.1032 479.899 60.2179 479.382L63.4636 464.777C63.7419 463.524 64.5114 462.436 65.5995 461.756L92.9888 444.638C93.4371 444.358 94.0278 444.494 94.3081 444.942ZM111.911 446.403C112.377 446.153 112.958 446.328 113.207 446.794L126.025 470.721C126.344 471.317 126.863 471.781 127.49 472.032L144.164 478.701C144.655 478.898 144.894 479.455 144.697 479.946C144.501 480.437 143.944 480.675 143.453 480.479L126.779 473.81C125.734 473.391 124.869 472.618 124.337 471.625L111.519 447.699C111.27 447.233 111.445 446.652 111.911 446.403ZM101.781 449.005C102.298 449.115 102.628 449.623 102.519 450.14L96.498 478.524C96.3674 479.139 96.4426 479.78 96.7119 480.349L104.244 496.251C104.471 496.728 104.267 497.299 103.789 497.526C103.311 497.752 102.74 497.548 102.514 497.07L94.9815 481.169C94.5325 480.221 94.4073 479.152 94.6249 478.126L100.646 449.743C100.755 449.226 101.264 448.896 101.781 449.005Z" fill="#262626"/>
        <path fill-rule="evenodd" clip-rule="evenodd" d="M230.678 377.151C231.184 376.997 231.719 377.282 231.873 377.788L237.858 397.454C238.106 398.271 238.132 399.14 237.931 399.971L231.887 425.01C231.763 425.524 231.246 425.84 230.732 425.716C230.218 425.592 229.902 425.075 230.026 424.561L236.07 399.521C236.19 399.023 236.175 398.501 236.026 398.011L230.041 378.346C229.887 377.84 230.172 377.305 230.678 377.151ZM271.689 393.331C272.191 393.498 272.462 394.04 272.295 394.542L265.567 414.725C265.197 415.835 264.432 416.772 263.418 417.357L241.318 430.107C240.86 430.371 240.274 430.214 240.01 429.756C239.746 429.298 239.903 428.713 240.361 428.449L262.461 415.699C263.069 415.348 263.528 414.786 263.75 414.119L270.478 393.936C270.645 393.434 271.187 393.163 271.689 393.331ZM187.827 395.719C188.001 395.22 188.547 394.957 189.047 395.132L205.772 400.986C206.779 401.338 207.64 402.018 208.217 402.915L223.676 426.963C223.962 427.408 223.833 428 223.389 428.286C222.944 428.572 222.351 428.443 222.065 427.999L206.606 403.951C206.26 403.412 205.743 403.005 205.139 402.793L188.414 396.939C187.915 396.765 187.652 396.219 187.827 395.719ZM189.37 433.937C188.982 433.878 188.587 433.899 188.208 433.999L171.904 438.29C171.392 438.424 170.869 438.119 170.734 437.607C170.6 437.096 170.905 436.572 171.416 436.438L187.721 432.147C188.352 431.981 189.011 431.946 189.656 432.044L218.522 436.417C219.045 436.496 219.404 436.984 219.325 437.507C219.246 438.03 218.758 438.39 218.235 438.31L189.37 433.937ZM290.24 436.999C290.442 437.488 290.208 438.048 289.72 438.249L275.42 444.137C274.623 444.465 273.753 444.572 272.901 444.447L243.396 440.108C242.872 440.031 242.511 439.544 242.588 439.021C242.665 438.498 243.151 438.136 243.674 438.213L273.179 442.552C273.691 442.628 274.213 442.563 274.691 442.367L288.99 436.478C289.479 436.277 290.039 436.51 290.24 436.999ZM221.886 444.942C222.166 445.391 222.03 445.981 221.581 446.261L194.192 463.38C193.539 463.788 193.078 464.441 192.911 465.192L189.665 479.798C189.55 480.314 189.039 480.639 188.523 480.525C188.006 480.41 187.681 479.899 187.796 479.382L191.041 464.777C191.32 463.524 192.089 462.436 193.177 461.756L220.567 444.638C221.015 444.358 221.606 444.494 221.886 444.942ZM239.489 446.403C239.955 446.153 240.535 446.328 240.785 446.794L253.603 470.721C253.922 471.317 254.441 471.781 255.068 472.032L271.742 478.701C272.233 478.898 272.472 479.455 272.275 479.946C272.079 480.437 271.522 480.675 271.031 480.479L254.357 473.81C253.311 473.391 252.447 472.618 251.915 471.625L239.097 447.699C238.847 447.233 239.023 446.652 239.489 446.403ZM229.359 449.005C229.876 449.115 230.206 449.623 230.096 450.14L224.076 478.524C223.945 479.139 224.02 479.78 224.29 480.349L231.822 496.251C232.048 496.728 231.844 497.299 231.367 497.526C230.889 497.752 230.318 497.548 230.091 497.07L222.559 481.169C222.11 480.221 221.985 479.152 222.203 478.126L228.223 449.743C228.333 449.226 228.841 448.896 229.359 449.005Z" fill="#262626"/>

    </g>
</svg>
