<svg width="705" height="170" viewBox="0 0 705 170" fill="none" xmlns="http://www.w3.org/2000/svg">
    <g style="fill: none; stroke: #000000; stroke-width: 2px">
        <path fill-rule="evenodd" clip-rule="evenodd" d="M20.3594 30.4473C20.0886 30.4473 19.867 30.6628 19.8596 30.9335L16.0845 167.867H36.564L32.4457 30.9322C32.4376 30.6621 32.2162 30.4473 31.9459 30.4473H20.3594ZM37.5645 167.867L33.4452 30.9022C33.4209 30.0917 32.7568 29.4473 31.9459 29.4473H20.3594C19.5471 29.4473 18.8823 30.0939 18.8599 30.9059L15.0841 167.867H1C0.723858 167.867 0.5 168.091 0.5 168.367C0.5 168.643 0.723858 168.867 1 168.867H214.007C214.283 168.867 214.507 168.643 214.507 168.367C214.507 168.091 214.283 167.867 214.007 167.867H37.5645Z" fill="#4048F5"/>
        <path fill-rule="evenodd" clip-rule="evenodd" d="M50.087 30.5679C50.1053 29.7528 50.7713 29.1016 51.5866 29.1016H62.5061C63.2977 29.1016 63.953 29.7167 64.0031 30.5066L68.4536 100.688C68.4711 100.963 68.2619 101.201 67.9863 101.218C67.7107 101.236 67.4731 101.027 67.4556 100.751L65.0214 62.3648H50.3736L47.9865 168.726C47.9803 169.002 47.7514 169.221 47.4754 169.215C47.1993 169.209 46.9805 168.98 46.9867 168.704L50.087 30.5679ZM50.3961 61.3648H64.958L64.2074 49.5289H50.6617L50.3961 61.3648ZM50.6842 48.5289H64.144L63.0051 30.5699C62.9884 30.3066 62.77 30.1016 62.5061 30.1016H51.5866C51.3149 30.1016 51.0929 30.3186 51.0868 30.5903L50.6842 48.5289ZM18.5394 49.0289C18.5394 48.7527 18.7633 48.5289 19.0394 48.5289H33.263C33.5392 48.5289 33.763 48.7527 33.763 49.0289C33.763 49.305 33.5392 49.5289 33.263 49.5289H19.0394C18.7633 49.5289 18.5394 49.305 18.5394 49.0289ZM17.8456 61.8648C17.8456 61.5886 18.0695 61.3648 18.3456 61.3648H33.9568C34.233 61.3648 34.4568 61.5886 34.4568 61.8648C34.4568 62.1409 34.233 62.3648 33.9568 62.3648H18.3456C18.0695 62.3648 17.8456 62.1409 17.8456 61.8648Z" fill="#4048F5"/>
        <path fill-rule="evenodd" clip-rule="evenodd" d="M77.2812 88.3828C77.005 88.3828 76.7812 88.6067 76.7812 88.8828V110.085C76.7812 110.362 76.5573 110.585 76.2812 110.585C76.005 110.585 75.7812 110.362 75.7812 110.085V88.8828C75.7812 88.0544 76.4528 87.3828 77.2812 87.3828H202.253C203.081 87.3828 203.753 88.0544 203.753 88.8828V168.367C203.753 168.644 203.529 168.867 203.253 168.867C202.976 168.867 202.753 168.644 202.753 168.367V88.8828C202.753 88.6067 202.529 88.3828 202.253 88.3828H77.2812Z" fill="#4048F5"/>
        <path fill-rule="evenodd" clip-rule="evenodd" d="M91.1576 71.0371C90.8815 71.0371 90.6576 71.261 90.6576 71.5371V87.8829C90.6576 88.1591 90.4337 88.3829 90.1576 88.3829C89.8815 88.3829 89.6576 88.1591 89.6576 87.8829V71.5371C89.6576 70.7087 90.3292 70.0371 91.1576 70.0371H95.749C96.5774 70.0371 97.249 70.7087 97.249 71.5371V87.8829C97.249 88.1591 97.0252 88.3829 96.749 88.3829C96.4729 88.3829 96.249 88.1591 96.249 87.8829V71.5371C96.249 71.261 96.0252 71.0371 95.749 71.0371H91.1576ZM113.707 71.0371C113.43 71.0371 113.207 71.2605 113.207 71.5357V87.8829C113.207 88.1591 112.983 88.3829 112.707 88.3829C112.431 88.3829 112.207 88.1591 112.207 87.8829V71.5357C112.207 70.7064 112.88 70.0371 113.707 70.0371H118.645C119.474 70.0371 120.145 70.7087 120.145 71.5371V87.8829C120.145 88.1591 119.922 88.3829 119.645 88.3829C119.369 88.3829 119.145 88.1591 119.145 87.8829V71.5371C119.145 71.261 118.922 71.0371 118.645 71.0371H113.707ZM137.644 71.0371C137.368 71.0371 137.144 71.261 137.144 71.5371V87.8829C137.144 88.1591 136.921 88.3829 136.644 88.3829C136.368 88.3829 136.144 88.1591 136.144 87.8829V71.5371C136.144 70.7087 136.816 70.0371 137.644 70.0371H141.889C142.717 70.0371 143.389 70.7087 143.389 71.5371V86.8829C143.389 87.1591 143.613 87.3829 143.889 87.3829H158.888C159.164 87.3829 159.388 87.1591 159.388 86.8829V71.5371C159.388 70.7087 160.059 70.0371 160.888 70.0371H164.438C165.267 70.0371 165.938 70.7087 165.938 71.5371V87.8829C165.938 88.1591 165.715 88.3829 165.438 88.3829C165.162 88.3829 164.938 88.1591 164.938 87.8829V71.5371C164.938 71.261 164.715 71.0371 164.438 71.0371H160.888C160.612 71.0371 160.388 71.261 160.388 71.5371V86.8829C160.388 87.7114 159.716 88.3829 158.888 88.3829H143.889C143.06 88.3829 142.389 87.7114 142.389 86.8829V71.5371C142.389 71.261 142.165 71.0371 141.889 71.0371H137.644ZM84.8008 98.6373C84.8008 98.3612 85.0246 98.1373 85.3008 98.1373H91.1983C91.4745 98.1373 91.6983 98.3612 91.6983 98.6373C91.6983 98.9135 91.4745 99.1373 91.1983 99.1373H85.3008C85.0246 99.1373 84.8008 98.9135 84.8008 98.6373ZM96.249 98.6373C96.249 98.3612 96.4729 98.1373 96.749 98.1373H101.953C102.229 98.1373 102.453 98.3612 102.453 98.6373C102.453 98.9135 102.229 99.1373 101.953 99.1373H96.749C96.4729 99.1373 96.249 98.9135 96.249 98.6373ZM107.697 98.6373C107.697 98.3612 107.921 98.1373 108.197 98.1373H114.095C114.371 98.1373 114.595 98.3612 114.595 98.6373C114.595 98.9135 114.371 99.1373 114.095 99.1373H108.197C107.921 99.1373 107.697 98.9135 107.697 98.6373ZM119.145 98.6373C119.145 98.3612 119.369 98.1373 119.645 98.1373H125.196C125.472 98.1373 125.696 98.3612 125.696 98.6373C125.696 98.9135 125.472 99.1373 125.196 99.1373H119.645C119.369 99.1373 119.145 98.9135 119.145 98.6373ZM130.594 98.6373C130.594 98.3612 130.818 98.1373 131.094 98.1373H136.644C136.921 98.1373 137.144 98.3612 137.144 98.6373C137.144 98.9135 136.921 99.1373 136.644 99.1373H131.094C130.818 99.1373 130.594 98.9135 130.594 98.6373ZM142.389 98.6373C142.389 98.3612 142.613 98.1373 142.889 98.1373H148.093C148.369 98.1373 148.593 98.3612 148.593 98.6373C148.593 98.9135 148.369 99.1373 148.093 99.1373H142.889C142.613 99.1373 142.389 98.9135 142.389 98.6373ZM153.837 98.6373C153.837 98.3612 154.061 98.1373 154.337 98.1373H159.888C160.164 98.1373 160.388 98.3612 160.388 98.6373C160.388 98.9135 160.164 99.1373 159.888 99.1373H154.337C154.061 99.1373 153.837 98.9135 153.837 98.6373ZM164.938 98.6373C164.938 98.3612 165.162 98.1373 165.438 98.1373H170.989C171.265 98.1373 171.489 98.3612 171.489 98.6373C171.489 98.9135 171.265 99.1373 170.989 99.1373H165.438C165.162 99.1373 164.938 98.9135 164.938 98.6373ZM176.387 98.6373C176.387 98.3612 176.611 98.1373 176.887 98.1373H182.784C183.06 98.1373 183.284 98.3612 183.284 98.6373C183.284 98.9135 183.06 99.1373 182.784 99.1373H176.887C176.611 99.1373 176.387 98.9135 176.387 98.6373ZM187.835 98.6373C187.835 98.3612 188.059 98.1373 188.335 98.1373H194.232C194.509 98.1373 194.732 98.3612 194.732 98.6373C194.732 98.9135 194.509 99.1373 194.232 99.1373H188.335C188.059 99.1373 187.835 98.9135 187.835 98.6373ZM59.129 111.432C59.129 110.604 59.8005 109.932 60.629 109.932H203.599C203.875 109.932 204.099 110.156 204.099 110.432C204.099 110.709 203.875 110.932 203.599 110.932H60.629C60.3528 110.932 60.129 111.156 60.129 111.432V168.368C60.129 168.644 59.9051 168.868 59.629 168.868C59.3528 168.868 59.129 168.644 59.129 168.368V111.432ZM73.5056 118.952C73.7818 118.952 74.0056 119.176 74.0056 119.452V153.45C74.0056 153.726 73.7818 153.95 73.5056 153.95C73.2295 153.95 73.0056 153.726 73.0056 153.45V119.452C73.0056 119.176 73.2295 118.952 73.5056 118.952ZM88.0761 118.952C88.3522 118.952 88.5761 119.176 88.5761 119.452V153.45C88.5761 153.726 88.3522 153.95 88.0761 153.95C87.8 153.95 87.5761 153.726 87.5761 153.45V119.452C87.5761 119.176 87.8 118.952 88.0761 118.952ZM101.953 118.952C102.229 118.952 102.453 119.176 102.453 119.452V153.45C102.453 153.726 102.229 153.95 101.953 153.95C101.677 153.95 101.453 153.726 101.453 153.45V119.452C101.453 119.176 101.677 118.952 101.953 118.952ZM116.87 118.952C117.146 118.952 117.37 119.176 117.37 119.452V153.45C117.37 153.726 117.146 153.95 116.87 153.95C116.594 153.95 116.37 153.726 116.37 153.45V119.452C116.37 119.176 116.594 118.952 116.87 118.952ZM131.094 118.952C131.37 118.952 131.594 119.176 131.594 119.452V153.45C131.594 153.726 131.37 153.95 131.094 153.95C130.818 153.95 130.594 153.726 130.594 153.45V119.452C130.594 119.176 130.818 118.952 131.094 118.952Z" fill="#4048F5"/>
        <path fill-rule="evenodd" clip-rule="evenodd" d="M190.457 120.799H147.358V135.451H190.457V120.799ZM146.358 119.799V136.451H191.457V119.799H146.358Z" fill="#4048F5"/>
        <path fill-rule="evenodd" clip-rule="evenodd" d="M193.926 143.002H144.582V167.715H193.926V143.002ZM143.582 142.002V168.715H194.926V142.002H143.582Z" fill="#4048F5"/>
        <path fill-rule="evenodd" clip-rule="evenodd" d="M96.888 57.0252C95.081 59.2846 94.2918 62.0982 94.1249 63.9901C94.1006 64.2651 93.8579 64.4684 93.5829 64.4442C93.3078 64.4199 93.1045 64.1772 93.1288 63.9022C93.3087 61.8623 94.15 58.8477 96.1071 56.4006C98.0828 53.9302 101.185 52.0573 105.8 52.3458C111.708 52.715 114.718 56.0821 116.07 59.4693C116.114 59.5776 116.242 59.7288 116.503 59.8811C116.755 60.0278 117.08 60.1459 117.425 60.2142C117.77 60.2826 118.109 60.2961 118.386 60.2542C118.673 60.2108 118.829 60.1188 118.897 60.0393C121.169 57.3711 124.61 54.7733 129.012 54.7733C133.841 54.7733 136.851 57.8925 138.474 60.8349C138.598 61.0595 138.983 61.27 139.518 61.285C140.054 61.3001 140.441 61.1113 140.571 60.8968C142.545 57.6318 146.164 54.1472 151.619 54.7766C159.103 55.6401 162.647 61.6079 163.49 64.5C163.567 64.7651 163.415 65.0427 163.15 65.12C162.885 65.1973 162.607 65.0451 162.53 64.78C161.755 62.1215 158.452 56.5716 151.505 55.77C146.613 55.2056 143.309 58.3015 141.426 61.4143C141.023 62.0814 140.177 62.304 139.49 62.2846C138.801 62.2652 137.972 61.9953 137.598 61.3178C136.07 58.5464 133.334 55.7733 129.012 55.7733C125.025 55.7733 121.838 58.1286 119.658 60.6877C119.37 61.026 118.94 61.1817 118.536 61.243C118.121 61.3057 117.663 61.2809 117.23 61.1951C116.797 61.1092 116.363 60.9571 115.999 60.7448C115.645 60.5381 115.302 60.2414 115.142 59.8401C113.908 56.7488 111.196 53.685 105.738 53.3438C101.472 53.0772 98.6764 54.7891 96.888 57.0252Z" fill="#4048F5"/>
        <path fill-rule="evenodd" clip-rule="evenodd" d="M180.218 2.21918C181.378 1.46499 183.075 1 185.56 1H197.008C197.284 1 197.508 1.22386 197.508 1.5C197.508 1.77614 197.284 2 197.008 2H185.56C183.188 2 181.704 2.44566 180.764 3.05746C179.836 3.66083 179.385 4.45884 179.143 5.2836C178.955 5.92402 178.898 6.54626 178.844 7.12908C178.826 7.32614 178.808 7.51869 178.786 7.70592C178.745 8.04632 178.684 8.41621 178.53 8.70655C178.448 8.86156 178.33 9.01335 178.157 9.12415C177.982 9.23677 177.784 9.28524 177.581 9.28524C174.999 9.28524 172.793 9.29982 170.73 9.31344C166.988 9.33816 163.721 9.35975 159.549 9.28547C158.441 9.34308 156.791 9.64515 155.434 10.348C154.075 11.052 153.103 12.1 153.103 13.6421C153.103 14.8014 152.332 15.6225 151.305 16.1836C150.279 16.7446 148.893 17.1098 147.404 17.3446C144.417 17.8158 140.843 17.7868 138.437 17.6167C138.403 17.6143 138.377 17.6152 138.353 17.6185C137.427 17.7434 136.068 18.1803 134.951 19.0888C133.852 19.9835 132.981 21.3379 132.981 23.3557V23.3879C132.981 26.1397 132.981 29.036 132.584 31.3333C132.384 32.4874 132.078 33.5316 131.594 34.3443C131.103 35.1686 130.414 35.7755 129.468 35.9859C128.59 36.1809 127.375 36.0791 126.002 35.9242C125.696 35.8897 125.379 35.852 125.052 35.8131C123.875 35.6732 122.562 35.5172 121.134 35.4332C117.495 35.2191 113.17 35.4786 108.768 37.6796C105.276 39.4254 101.61 43.2412 98.8113 48.0309C96.0172 52.8134 94.1268 58.5031 94.1268 63.9449C94.1268 64.2211 93.903 64.4449 93.6268 64.4449C93.3507 64.4449 93.1268 64.2211 93.1268 63.9449C93.1268 58.2854 95.0872 52.4228 97.9478 47.5264C100.804 42.6371 104.596 38.6473 108.321 36.7852C112.939 34.4762 117.46 34.2153 121.193 34.4349C122.654 34.5209 124.005 34.6815 125.185 34.8219C125.508 34.8602 125.818 34.8971 126.114 34.9305C127.528 35.09 128.567 35.1616 129.251 35.0097C129.865 34.8732 130.347 34.4827 130.735 33.8326C131.129 33.1709 131.408 32.2637 131.598 31.1628C131.98 28.9592 131.981 26.145 131.981 23.3557C131.981 21.0021 133.016 19.3747 134.32 18.3132C135.608 17.2655 137.151 16.7717 138.219 16.6275C138.32 16.6139 138.415 16.6126 138.507 16.6192C140.872 16.7864 144.364 16.8118 147.249 16.3568C148.696 16.1286 149.948 15.7855 150.826 15.3061C151.703 14.8267 152.103 14.275 152.103 13.6421C152.103 11.5762 153.442 10.2537 154.974 9.46008C156.502 8.66896 158.312 8.34607 159.516 8.28587C159.527 8.2853 159.539 8.28512 159.55 8.28532C163.719 8.35977 166.97 8.33826 170.708 8.31353C172.772 8.29988 174.984 8.28524 177.581 8.28524C177.601 8.28524 177.612 8.28323 177.617 8.28185C177.622 8.27749 177.632 8.26526 177.647 8.23786C177.704 8.12979 177.752 7.93052 177.793 7.58793C177.81 7.44513 177.825 7.28291 177.841 7.1061C177.895 6.50906 177.965 5.74567 178.184 5.00164C178.477 4.00509 179.046 2.98179 180.218 2.21918ZM177.621 8.28061C177.621 8.28055 177.621 8.28086 177.619 8.28138C177.62 8.28089 177.621 8.28066 177.621 8.28061Z" fill="#4048F5"/>
        <path fill-rule="evenodd" clip-rule="evenodd" d="M195.497 35.2771C196.911 35.4365 197.95 35.5082 198.634 35.3563C198.903 35.2964 199.17 35.4663 199.23 35.7359C199.29 36.0055 199.12 36.2726 198.851 36.3325C197.973 36.5275 196.758 36.4257 195.385 36.2708C195.079 36.2362 194.762 36.1986 194.435 36.1597C193.258 36.0198 191.945 35.8638 190.517 35.7798C186.878 35.5657 182.553 35.8252 178.151 38.0262C174.659 39.7719 170.993 43.5877 168.194 48.3774C165.4 53.16 163.51 58.8497 163.51 64.2915C163.51 64.5677 163.286 64.7915 163.01 64.7915C162.734 64.7915 162.51 64.5677 162.51 64.2915C162.51 58.632 164.47 52.7694 167.331 47.873C170.187 42.9837 173.979 38.9939 177.704 37.1317C182.322 34.8228 186.843 34.5619 190.576 34.7815C192.037 34.8675 193.388 35.0281 194.569 35.1685C194.891 35.2068 195.201 35.2437 195.497 35.2771Z" fill="#4048F5"/>
        <path fill-rule="evenodd" clip-rule="evenodd" d="M292.116 88.4961C291.839 88.4961 291.616 88.72 291.616 88.9961V168.214H335.843V88.9961C335.843 88.72 335.619 88.4961 335.343 88.4961H292.116ZM336.843 168.214V88.9961C336.843 88.1677 336.171 87.4961 335.343 87.4961H292.116C291.287 87.4961 290.616 88.1677 290.616 88.9961V168.214H255.007C254.73 168.214 254.507 168.438 254.507 168.714C254.507 168.991 254.73 169.214 255.007 169.214H468.013C468.289 169.214 468.513 168.991 468.513 168.714C468.513 168.438 468.289 168.214 468.013 168.214H336.843Z" fill="#4048F5"/>
        <path fill-rule="evenodd" clip-rule="evenodd" d="M290.381 103.689C290.381 103.413 290.605 103.189 290.881 103.189H336.846C337.122 103.189 337.346 103.413 337.346 103.689C337.346 103.966 337.122 104.189 336.846 104.189H290.881C290.605 104.189 290.381 103.966 290.381 103.689ZM290.381 119.275C290.381 118.999 290.605 118.775 290.881 118.775H336.846C337.122 118.775 337.346 118.999 337.346 119.275C337.346 119.551 337.122 119.775 336.846 119.775H290.881C290.605 119.775 290.381 119.551 290.381 119.275ZM290.381 135.948C290.381 135.672 290.605 135.448 290.881 135.448H336.846C337.122 135.448 337.346 135.672 337.346 135.948C337.346 136.224 337.122 136.448 336.846 136.448H290.881C290.605 136.448 290.381 136.224 290.381 135.948ZM290.381 151.896C290.381 151.62 290.605 151.396 290.881 151.396H336.846C337.122 151.396 337.346 151.62 337.346 151.896C337.346 152.172 337.122 152.396 336.846 152.396H290.881C290.605 152.396 290.381 152.172 290.381 151.896Z" fill="#4048F5"/>
        <path fill-rule="evenodd" clip-rule="evenodd" d="M304.213 17.8672C303.937 17.8672 303.713 18.091 303.713 18.3672V87.9957C303.713 88.2718 303.49 88.4957 303.213 88.4957C302.937 88.4957 302.713 88.2718 302.713 87.9957V18.3672C302.713 17.5388 303.385 16.8672 304.213 16.8672H360.51C361.338 16.8672 362.01 17.5388 362.01 18.3672V28.9575C362.01 29.2336 361.786 29.4575 361.51 29.4575C361.234 29.4575 361.01 29.2336 361.01 28.9575V18.3672C361.01 18.091 360.786 17.8672 360.51 17.8672H304.213ZM312.613 32.5795C312.613 32.3033 312.837 32.0795 313.113 32.0795H327.045C327.321 32.0795 327.545 32.3033 327.545 32.5795C327.545 32.8556 327.321 33.0795 327.045 33.0795H313.113C312.837 33.0795 312.613 32.8556 312.613 32.5795ZM312.613 43.8076C312.613 43.5315 312.837 43.3076 313.113 43.3076H327.045C327.321 43.3076 327.545 43.5315 327.545 43.8076C327.545 44.0837 327.321 44.3076 327.045 44.3076H313.113C312.837 44.3076 312.613 44.0837 312.613 43.8076ZM312.613 55.3979C312.613 55.1218 312.837 54.8979 313.113 54.8979H327.045C327.321 54.8979 327.545 55.1218 327.545 55.3979C327.545 55.6741 327.321 55.8979 327.045 55.8979H313.113C312.837 55.8979 312.613 55.6741 312.613 55.3979ZM312.613 66.9882C312.613 66.7121 312.837 66.4882 313.113 66.4882H327.045C327.321 66.4882 327.545 66.7121 327.545 66.9882C327.545 67.2644 327.321 67.4882 327.045 67.4882H313.113C312.837 67.4882 312.613 67.2644 312.613 66.9882ZM312.613 78.5786C312.613 78.3024 312.837 78.0786 313.113 78.0786H327.045C327.321 78.0786 327.545 78.3024 327.545 78.5786C327.545 78.8547 327.321 79.0786 327.045 79.0786H313.113C312.837 79.0786 312.613 78.8547 312.613 78.5786Z" fill="#4048F5"/>
        <path fill-rule="evenodd" clip-rule="evenodd" d="M335.225 32.9414C335.225 32.113 335.896 31.4414 336.725 31.4414H385.174C386.002 31.4414 386.674 32.113 386.674 32.9414V168.714C386.674 168.99 386.45 169.214 386.174 169.214C385.898 169.214 385.674 168.99 385.674 168.714V32.9414C385.674 32.6653 385.45 32.4414 385.174 32.4414H336.725C336.449 32.4414 336.225 32.6653 336.225 32.9414V87.3799C336.225 87.6561 336.001 87.8799 335.725 87.8799C335.449 87.8799 335.225 87.6561 335.225 87.3799V32.9414ZM350.139 47.1247C350.415 47.1247 350.639 47.3485 350.639 47.6247V57.1076C350.639 57.3837 350.415 57.6076 350.139 57.6076C349.863 57.6076 349.639 57.3837 349.639 57.1076V47.6247C349.639 47.3485 349.863 47.1247 350.139 47.1247ZM372.12 47.1247C372.396 47.1247 372.62 47.3485 372.62 47.6247V57.1076C372.62 57.3837 372.396 57.6076 372.12 57.6076C371.844 57.6076 371.62 57.3837 371.62 57.1076V47.6247C371.62 47.3485 371.844 47.1247 372.12 47.1247ZM360.589 47.4894C360.865 47.4894 361.089 47.7133 361.089 47.9894V57.4723C361.089 57.7484 360.865 57.9723 360.589 57.9723C360.313 57.9723 360.089 57.7484 360.089 57.4723V47.9894C360.089 47.7133 360.313 47.4894 360.589 47.4894ZM350.139 70.1025C350.415 70.1025 350.639 70.3263 350.639 70.6025V80.0854C350.639 80.3615 350.415 80.5854 350.139 80.5854C349.863 80.5854 349.639 80.3615 349.639 80.0854V70.6025C349.639 70.3263 349.863 70.1025 350.139 70.1025ZM372.12 70.1025C372.396 70.1025 372.62 70.3263 372.62 70.6025V80.0854C372.62 80.3615 372.396 80.5854 372.12 80.5854C371.844 80.5854 371.62 80.3615 371.62 80.0854V70.6025C371.62 70.3263 371.844 70.1025 372.12 70.1025ZM360.589 70.4672C360.865 70.4672 361.089 70.6911 361.089 70.9672V80.4501C361.089 80.7263 360.865 80.9501 360.589 80.9501C360.313 80.9501 360.089 80.7263 360.089 80.4501V70.9672C360.089 70.6911 360.313 70.4672 360.589 70.4672ZM350.139 93.445C350.415 93.445 350.639 93.6689 350.639 93.945V103.428C350.639 103.704 350.415 103.928 350.139 103.928C349.863 103.928 349.639 103.704 349.639 103.428V93.945C349.639 93.6689 349.863 93.445 350.139 93.445ZM372.12 93.445C372.396 93.445 372.62 93.6689 372.62 93.945V103.428C372.62 103.704 372.396 103.928 372.12 103.928C371.844 103.928 371.62 103.704 371.62 103.428V93.945C371.62 93.6689 371.844 93.445 372.12 93.445ZM360.589 93.8097C360.865 93.8097 361.089 94.0336 361.089 94.3097V103.793C361.089 104.069 360.865 104.293 360.589 104.293C360.313 104.293 360.089 104.069 360.089 103.793V94.3097C360.089 94.0336 360.313 93.8097 360.589 93.8097ZM350.139 116.423C350.415 116.423 350.639 116.647 350.639 116.923V126.406C350.639 126.682 350.415 126.906 350.139 126.906C349.863 126.906 349.639 126.682 349.639 126.406V116.923C349.639 116.647 349.863 116.423 350.139 116.423ZM372.12 116.423C372.396 116.423 372.62 116.647 372.62 116.923V126.406C372.62 126.682 372.396 126.906 372.12 126.906C371.844 126.906 371.62 126.682 371.62 126.406V116.923C371.62 116.647 371.844 116.423 372.12 116.423ZM360.589 116.788C360.865 116.788 361.089 117.011 361.089 117.288V126.77C361.089 127.047 360.865 127.27 360.589 127.27C360.313 127.27 360.089 127.047 360.089 126.77V117.288C360.089 117.011 360.313 116.788 360.589 116.788ZM350.139 139.765C350.415 139.765 350.639 139.989 350.639 140.265V149.748C350.639 150.024 350.415 150.248 350.139 150.248C349.863 150.248 349.639 150.024 349.639 149.748V140.265C349.639 139.989 349.863 139.765 350.139 139.765ZM372.12 139.765C372.396 139.765 372.62 139.989 372.62 140.265V149.748C372.62 150.024 372.396 150.248 372.12 150.248C371.844 150.248 371.62 150.024 371.62 149.748V140.265C371.62 139.989 371.844 139.765 372.12 139.765ZM360.589 140.13C360.865 140.13 361.089 140.354 361.089 140.63V150.113C361.089 150.389 360.865 150.613 360.589 150.613C360.313 150.613 360.089 150.389 360.089 150.113V140.63C360.089 140.354 360.313 140.13 360.589 140.13Z" fill="#4048F5"/>
        <path fill-rule="evenodd" clip-rule="evenodd" d="M395.957 27.957C395.679 27.957 395.454 28.1837 395.457 28.4616L396.174 107.623H428.805L427.728 28.4502C427.724 28.1768 427.502 27.957 427.228 27.957H395.957ZM429.805 107.623L428.728 28.4366C428.717 27.6162 428.049 26.957 427.228 26.957H395.957C395.123 26.957 394.449 27.6369 394.457 28.4706L395.174 107.623H386.174C385.898 107.623 385.674 107.847 385.674 108.123C385.674 108.399 385.898 108.623 386.174 108.623H435.623C435.899 108.623 436.123 108.847 436.123 109.123V168.714C436.123 168.99 436.347 169.214 436.623 169.214C436.899 169.214 437.123 168.99 437.123 168.714V109.123C437.123 108.295 436.451 107.623 435.623 107.623H429.805ZM402.582 133.607C400.557 135.748 399.483 138.425 399.112 140.251C399.106 140.278 399.103 140.306 399.103 140.34V168.714C399.103 168.99 398.879 169.214 398.603 169.214C398.327 169.214 398.103 168.99 398.103 168.714V140.34C398.103 140.246 398.112 140.151 398.132 140.052C398.533 138.079 399.678 135.221 401.856 132.92C404.048 130.603 407.281 128.859 411.797 129.16C416.324 129.461 419.2 131.354 420.936 133.635C422.654 135.895 423.23 138.502 423.231 140.237C423.231 140.239 423.231 140.241 423.231 140.244L423.962 168.701C423.969 168.977 423.751 169.207 423.475 169.214C423.199 169.221 422.969 169.003 422.962 168.727L422.231 140.244C422.231 138.694 421.709 136.304 420.14 134.241C418.585 132.197 415.978 130.44 411.731 130.157C407.544 129.879 404.592 131.482 402.582 133.607Z" fill="#4048F5"/>
        <path fill-rule="evenodd" clip-rule="evenodd" d="M405.232 39.2891C405.508 39.2891 405.732 39.5129 405.732 39.7891V46.5156C405.732 46.7917 405.508 47.0156 405.232 47.0156C404.956 47.0156 404.732 46.7917 404.732 46.5156V39.7891C404.732 39.5129 404.956 39.2891 405.232 39.2891ZM418.685 39.2891C418.962 39.2891 419.185 39.5129 419.185 39.7891V46.5156C419.185 46.7917 418.962 47.0156 418.685 47.0156C418.409 47.0156 418.185 46.7917 418.185 46.5156V39.7891C418.185 39.5129 418.409 39.2891 418.685 39.2891Z" fill="#4048F5"/>
        <path fill-rule="evenodd" clip-rule="evenodd" d="M406.353 51.6211C406.63 51.6211 406.853 51.845 406.853 52.1211V58.8476C406.853 59.1238 406.63 59.3476 406.353 59.3476C406.077 59.3476 405.853 59.1238 405.853 58.8476V52.1211C405.853 51.845 406.077 51.6211 406.353 51.6211ZM418.685 51.6211C418.962 51.6211 419.185 51.845 419.185 52.1211V58.8476C419.185 59.1238 418.962 59.3476 418.685 59.3476C418.409 59.3476 418.185 59.1238 418.185 58.8476V52.1211C418.185 51.845 418.409 51.6211 418.685 51.6211Z" fill="#4048F5"/>
        <path fill-rule="evenodd" clip-rule="evenodd" d="M406.353 65.0723C406.63 65.0723 406.853 65.2961 406.853 65.5723V72.2988C406.853 72.5749 406.63 72.7988 406.353 72.7988C406.077 72.7988 405.853 72.5749 405.853 72.2988V65.5723C405.853 65.2961 406.077 65.0723 406.353 65.0723ZM418.685 65.0723C418.962 65.0723 419.185 65.2961 419.185 65.5723V72.2988C419.185 72.5749 418.962 72.7988 418.685 72.7988C418.409 72.7988 418.185 72.5749 418.185 72.2988V65.5723C418.185 65.2961 418.409 65.0723 418.685 65.0723Z" fill="#4048F5"/>
        <path fill-rule="evenodd" clip-rule="evenodd" d="M406.353 77.4043C406.63 77.4043 406.853 77.6282 406.853 77.9043V84.6308C406.853 84.907 406.63 85.1308 406.353 85.1308C406.077 85.1308 405.853 84.907 405.853 84.6308V77.9043C405.853 77.6282 406.077 77.4043 406.353 77.4043ZM418.685 77.4043C418.962 77.4043 419.185 77.6282 419.185 77.9043V84.6308C419.185 84.907 418.962 85.1308 418.685 85.1308C418.409 85.1308 418.185 84.907 418.185 84.6308V77.9043C418.185 77.6282 418.409 77.4043 418.685 77.4043Z" fill="#4048F5"/>
        <path fill-rule="evenodd" clip-rule="evenodd" d="M406.353 90.8574C406.63 90.8574 406.853 91.0813 406.853 91.3574V98.0839C406.853 98.3601 406.63 98.5839 406.353 98.5839C406.077 98.5839 405.853 98.3601 405.853 98.0839V91.3574C405.853 91.0813 406.077 90.8574 406.353 90.8574ZM418.685 90.8574C418.962 90.8574 419.185 91.0813 419.185 91.3574V98.0839C419.185 98.3601 418.962 98.5839 418.685 98.5839C418.409 98.5839 418.185 98.3601 418.185 98.0839V91.3574C418.185 91.0813 418.409 90.8574 418.685 90.8574Z" fill="#4048F5"/>
        <path fill-rule="evenodd" clip-rule="evenodd" d="M314.965 8.27154C312.241 11.0686 311.561 14.5641 311.561 17.3671C311.561 17.6432 311.337 17.8671 311.061 17.8671C310.785 17.8671 310.561 17.6433 310.561 17.3671C310.561 14.4171 311.276 10.6256 314.249 7.57383C317.223 4.51963 322.373 2.29297 331.055 2.29297C339.679 2.29297 344.912 4.91812 347.987 8.1535C351.05 11.3756 351.92 15.1485 351.92 17.3671C351.92 17.6432 351.696 17.8671 351.42 17.8671C351.144 17.8671 350.92 17.6432 350.92 17.3671C350.92 15.3668 350.124 11.8527 347.263 8.84246C344.414 5.84548 339.465 3.29297 331.055 3.29297C322.534 3.29297 317.687 5.4769 314.965 8.27154Z" fill="#4048F5"/>
        <path fill-rule="evenodd" clip-rule="evenodd" d="M508.513 33.8828C508.513 20.9041 519.035 10.3828 532.013 10.3828H654.163C667.142 10.3828 677.663 20.9041 677.663 33.8828V107.845H676.663V33.8828C676.663 21.4564 666.59 11.3828 654.163 11.3828H532.013C519.587 11.3828 509.513 21.4564 509.513 33.8828V118.598C509.513 131.024 519.587 141.098 532.013 141.098H643.104V142.098H532.013C519.035 142.098 508.513 131.577 508.513 118.598V33.8828Z" fill="#4048F5"/>
        <path fill-rule="evenodd" clip-rule="evenodd" d="M508.513 36.3516C508.513 36.0754 508.737 35.8516 509.013 35.8516H676.55C676.826 35.8516 677.05 36.0754 677.05 36.3516C677.05 36.6277 676.826 36.8516 676.55 36.8516H665.39V98.5502C665.39 101.588 662.927 104.05 659.89 104.05H624.689C623.385 104.05 622.123 103.587 621.128 102.742L595.392 80.88C594.579 80.189 593.546 79.8096 592.479 79.8096H527.208C524.17 79.8096 521.708 77.3472 521.708 74.3096V36.8516H509.013C508.737 36.8516 508.513 36.6277 508.513 36.3516ZM522.708 36.8516V74.3096C522.708 76.7949 524.722 78.8096 527.208 78.8096H592.479C593.783 78.8096 595.045 79.2733 596.039 80.1178L621.776 101.98C622.589 102.671 623.622 103.05 624.689 103.05H659.89C662.375 103.05 664.39 101.036 664.39 98.5502V36.8516H522.708Z" fill="#4048F5"/>
        <path fill-rule="evenodd" clip-rule="evenodd" d="M539.198 78.8066L559.222 78.8067V97.7173H558.222V79.8067L540.198 79.8066V111.435C540.198 113.92 542.212 115.935 544.698 115.935H555.653C557.072 115.935 558.222 114.785 558.222 113.366H559.222C559.222 115.337 557.624 116.935 555.653 116.935H544.698C541.66 116.935 539.198 114.472 539.198 111.435V78.8066Z" fill="#4048F5"/>
        <path fill-rule="evenodd" clip-rule="evenodd" d="M595.85 80.0371C596.126 80.0371 596.35 80.261 596.35 80.5371V108.369C596.35 111.407 593.888 113.869 590.85 113.869H581.428C581.152 113.869 580.928 113.645 580.928 113.369C580.928 113.093 581.152 112.869 581.428 112.869H590.85C593.335 112.869 595.35 110.855 595.35 108.369V85.9466H558.722C558.446 85.9466 558.222 85.7227 558.222 85.4466C558.222 85.1705 558.446 84.9466 558.722 84.9466H595.35V80.5371C595.35 80.261 595.574 80.0371 595.85 80.0371Z" fill="#4048F5"/>
        <path fill-rule="evenodd" clip-rule="evenodd" d="M559.81 88.8223C559.81 88.5461 560.034 88.3223 560.31 88.3223H562.458C562.734 88.3223 562.958 88.5461 562.958 88.8223C562.958 89.0984 562.734 89.3223 562.458 89.3223H560.31C560.034 89.3223 559.81 89.0984 559.81 88.8223ZM563.185 88.8223C563.185 88.5461 563.409 88.3223 563.685 88.3223H565.526C565.803 88.3223 566.026 88.5461 566.026 88.8223C566.026 89.0984 565.803 89.3223 565.526 89.3223H563.685C563.409 89.3223 563.185 89.0984 563.185 88.8223ZM566.254 88.8223C566.254 88.5461 566.478 88.3223 566.754 88.3223H568.288C568.564 88.3223 568.788 88.5461 568.788 88.8223C568.788 89.0984 568.564 89.3223 568.288 89.3223H566.754C566.478 89.3223 566.254 89.0984 566.254 88.8223ZM569.015 88.8223C569.015 88.5461 569.239 88.3223 569.515 88.3223H571.05C571.326 88.3223 571.55 88.5461 571.55 88.8223C571.55 89.0984 571.326 89.3223 571.05 89.3223H569.515C569.239 89.3223 569.015 89.0984 569.015 88.8223ZM571.777 88.8223C571.777 88.5461 572.001 88.3223 572.277 88.3223H573.811C574.087 88.3223 574.311 88.5461 574.311 88.8223C574.311 89.0984 574.087 89.3223 573.811 89.3223H572.277C572.001 89.3223 571.777 89.0984 571.777 88.8223ZM574.539 88.8223C574.539 88.5461 574.762 88.3223 575.039 88.3223H576.573C576.849 88.3223 577.073 88.5461 577.073 88.8223C577.073 89.0984 576.849 89.3223 576.573 89.3223H575.039C574.762 89.3223 574.539 89.0984 574.539 88.8223ZM577.3 88.8223C577.3 88.5461 577.524 88.3223 577.8 88.3223H579.028C579.234 88.3223 579.412 88.4477 579.488 88.6266C579.564 88.4477 579.741 88.3223 579.948 88.3223H581.789C582.065 88.3223 582.289 88.5461 582.289 88.8223C582.289 89.0984 582.065 89.3223 581.789 89.3223H579.948C579.741 89.3223 579.564 89.1968 579.488 89.0179C579.412 89.1968 579.234 89.3223 579.028 89.3223H577.8C577.524 89.3223 577.3 89.0984 577.3 88.8223ZM582.517 88.8223C582.517 88.5461 582.74 88.3223 583.017 88.3223H584.244C584.451 88.3223 584.628 88.4477 584.704 88.6266C584.78 88.4477 584.958 88.3223 585.164 88.3223H586.699C586.975 88.3223 587.199 88.5461 587.199 88.8223C587.199 89.0984 586.975 89.3223 586.699 89.3223H585.164C584.958 89.3223 584.78 89.1968 584.704 89.0179C584.628 89.1968 584.451 89.3223 584.244 89.3223H583.017C582.74 89.3223 582.517 89.0984 582.517 88.8223ZM587.426 88.8223C587.426 88.5461 587.65 88.3223 587.926 88.3223H589.46C589.667 88.3223 589.844 88.4477 589.92 88.6266C589.997 88.4477 590.174 88.3223 590.381 88.3223H591.608C591.884 88.3223 592.108 88.5461 592.108 88.8223C592.108 89.0984 591.884 89.3223 591.608 89.3223H590.381C590.174 89.3223 589.997 89.1968 589.92 89.0179C589.844 89.1968 589.667 89.3223 589.46 89.3223H587.926C587.65 89.3223 587.426 89.0984 587.426 88.8223ZM592.336 88.8223C592.336 88.5461 592.559 88.3223 592.836 88.3223H594.063C594.339 88.3223 594.563 88.5461 594.563 88.8223C594.563 89.0984 594.339 89.3223 594.063 89.3223H592.836C592.559 89.3223 592.336 89.0984 592.336 88.8223Z" fill="#4048F5"/>
        <path fill-rule="evenodd" clip-rule="evenodd" d="M559.81 92.793C559.81 92.5168 560.034 92.293 560.31 92.293H562.458C562.734 92.293 562.958 92.5168 562.958 92.793C562.958 93.0691 562.734 93.293 562.458 93.293H560.31C560.034 93.293 559.81 93.0691 559.81 92.793ZM563.185 92.793C563.185 92.5168 563.409 92.293 563.685 92.293H565.526C565.803 92.293 566.026 92.5168 566.026 92.793C566.026 93.0691 565.803 93.293 565.526 93.293H563.685C563.409 93.293 563.185 93.0691 563.185 92.793ZM566.254 92.793C566.254 92.5168 566.478 92.293 566.754 92.293H568.288C568.564 92.293 568.788 92.5168 568.788 92.793C568.788 93.0691 568.564 93.293 568.288 93.293H566.754C566.478 93.293 566.254 93.0691 566.254 92.793ZM569.015 92.793C569.015 92.5168 569.239 92.293 569.515 92.293H571.05C571.326 92.293 571.55 92.5168 571.55 92.793C571.55 93.0691 571.326 93.293 571.05 93.293H569.515C569.239 93.293 569.015 93.0691 569.015 92.793ZM571.777 92.793C571.777 92.5168 572.001 92.293 572.277 92.293H573.811C574.087 92.293 574.311 92.5168 574.311 92.793C574.311 93.0691 574.087 93.293 573.811 93.293H572.277C572.001 93.293 571.777 93.0691 571.777 92.793ZM574.539 92.793C574.539 92.5168 574.762 92.293 575.039 92.293H576.573C576.849 92.293 577.073 92.5168 577.073 92.793C577.073 93.0691 576.849 93.293 576.573 93.293H575.039C574.762 93.293 574.539 93.0691 574.539 92.793ZM577.3 92.793C577.3 92.5168 577.524 92.293 577.8 92.293H579.028C579.234 92.293 579.412 92.4184 579.488 92.5973C579.564 92.4184 579.741 92.293 579.948 92.293H581.789C582.065 92.293 582.289 92.5168 582.289 92.793C582.289 93.0691 582.065 93.293 581.789 93.293H579.948C579.741 93.293 579.564 93.1675 579.488 92.9886C579.412 93.1675 579.234 93.293 579.028 93.293H577.8C577.524 93.293 577.3 93.0691 577.3 92.793ZM582.517 92.793C582.517 92.5168 582.74 92.293 583.017 92.293H584.244C584.451 92.293 584.628 92.4184 584.704 92.5973C584.78 92.4184 584.958 92.293 585.164 92.293H586.699C586.975 92.293 587.199 92.5168 587.199 92.793C587.199 93.0691 586.975 93.293 586.699 93.293H585.164C584.958 93.293 584.78 93.1675 584.704 92.9886C584.628 93.1675 584.451 93.293 584.244 93.293H583.017C582.74 93.293 582.517 93.0691 582.517 92.793ZM587.426 92.793C587.426 92.5168 587.65 92.293 587.926 92.293H589.46C589.667 92.293 589.844 92.4184 589.92 92.5973C589.997 92.4184 590.174 92.293 590.381 92.293H591.608C591.884 92.293 592.108 92.5168 592.108 92.793C592.108 93.0691 591.884 93.293 591.608 93.293H590.381C590.174 93.293 589.997 93.1675 589.92 92.9886C589.844 93.1675 589.667 93.293 589.46 93.293H587.926C587.65 93.293 587.426 93.0691 587.426 92.793ZM592.336 92.793C592.336 92.5168 592.559 92.293 592.836 92.293H594.063C594.339 92.293 594.563 92.5168 594.563 92.793C594.563 93.0691 594.339 93.293 594.063 93.293H592.836C592.559 93.293 592.336 93.0691 592.336 92.793Z" fill="#4048F5"/>
        <path fill-rule="evenodd" clip-rule="evenodd" d="M584.935 96.9805C584.935 96.7043 585.159 96.4805 585.435 96.4805H586.97C587.246 96.4805 587.47 96.7043 587.47 96.9805C587.47 97.2566 587.246 97.4805 586.97 97.4805H585.435C585.159 97.4805 584.935 97.2566 584.935 96.9805ZM587.697 96.9805C587.697 96.7043 587.921 96.4805 588.197 96.4805H589.731C589.938 96.4805 590.115 96.6059 590.191 96.7848C590.268 96.6059 590.445 96.4805 590.652 96.4805H591.879C592.155 96.4805 592.379 96.7043 592.379 96.9805C592.379 97.2566 592.155 97.4805 591.879 97.4805H590.652C590.445 97.4805 590.268 97.355 590.191 97.1761C590.115 97.355 589.938 97.4805 589.731 97.4805H588.197C587.921 97.4805 587.697 97.2566 587.697 96.9805ZM592.606 96.9805C592.606 96.7043 592.83 96.4805 593.106 96.4805H594.334C594.61 96.4805 594.834 96.7043 594.834 96.9805C594.834 97.2566 594.61 97.4805 594.334 97.4805H593.106C592.83 97.4805 592.606 97.2566 592.606 96.9805Z" fill="#4048F5"/>
        <path fill-rule="evenodd" clip-rule="evenodd" d="M584.935 101.168C584.935 100.892 585.159 100.668 585.435 100.668H586.969C587.246 100.668 587.469 100.892 587.469 101.168C587.469 101.444 587.246 101.668 586.969 101.668H585.435C585.159 101.668 584.935 101.444 584.935 101.168ZM587.697 101.168C587.697 100.892 587.921 100.668 588.197 100.668H589.731C589.938 100.668 590.115 100.793 590.191 100.972C590.267 100.793 590.445 100.668 590.652 100.668H591.879C592.155 100.668 592.379 100.892 592.379 101.168C592.379 101.444 592.155 101.668 591.879 101.668H590.652C590.445 101.668 590.267 101.543 590.191 101.364C590.115 101.543 589.938 101.668 589.731 101.668H588.197C587.921 101.668 587.697 101.444 587.697 101.168ZM592.606 101.168C592.606 100.892 592.83 100.668 593.106 100.668H594.334C594.61 100.668 594.834 100.892 594.834 101.168C594.834 101.444 594.61 101.668 594.334 101.668H593.106C592.83 101.668 592.606 101.444 592.606 101.168Z" fill="#4048F5"/>
        <path fill-rule="evenodd" clip-rule="evenodd" d="M584.935 105.355C584.935 105.079 585.159 104.855 585.435 104.855H586.969C587.246 104.855 587.469 105.079 587.469 105.355C587.469 105.632 587.246 105.855 586.969 105.855H585.435C585.159 105.855 584.935 105.632 584.935 105.355ZM587.697 105.355C587.697 105.079 587.921 104.855 588.197 104.855H589.731C589.938 104.855 590.115 104.981 590.191 105.16C590.267 104.981 590.445 104.855 590.652 104.855H591.879C592.155 104.855 592.379 105.079 592.379 105.355C592.379 105.632 592.155 105.855 591.879 105.855H590.652C590.445 105.855 590.267 105.73 590.191 105.551C590.115 105.73 589.938 105.855 589.731 105.855H588.197C587.921 105.855 587.697 105.632 587.697 105.355ZM592.606 105.355C592.606 105.079 592.83 104.855 593.106 104.855H594.334C594.61 104.855 594.834 105.079 594.834 105.355C594.834 105.632 594.61 105.855 594.334 105.855H593.106C592.83 105.855 592.606 105.632 592.606 105.355Z" fill="#4048F5"/>
        <path fill-rule="evenodd" clip-rule="evenodd" d="M578.269 99.0254H560.04C557.831 99.0254 556.04 100.816 556.04 103.025V108.981C556.04 111.19 557.831 112.981 560.04 112.981H578.269C580.478 112.981 582.269 111.19 582.269 108.981V103.025C582.269 100.816 580.478 99.0254 578.269 99.0254ZM560.04 98.0254C557.278 98.0254 555.04 100.264 555.04 103.025V108.981C555.04 111.743 557.278 113.981 560.04 113.981H578.269C581.031 113.981 583.269 111.743 583.269 108.981V103.025C583.269 100.264 581.031 98.0254 578.269 98.0254H560.04Z" fill="#4048F5"/>
        <path fill-rule="evenodd" clip-rule="evenodd" d="M527.424 79.1152C527.7 79.1152 527.924 79.3391 527.924 79.6152V92.1958C527.924 93.9976 528.189 95.2912 528.723 96.2251C529.245 97.1401 530.055 97.7621 531.264 98.1652C532.61 98.6139 534.269 98.9668 535.839 99.2603C536.432 99.3713 537.017 99.4744 537.565 99.5711C538.447 99.7265 539.233 99.8651 539.806 99.9925C540.076 100.052 540.246 100.319 540.186 100.589C540.126 100.859 539.859 101.029 539.589 100.969C539.034 100.845 538.289 100.714 537.429 100.563C536.878 100.466 536.28 100.36 535.655 100.243C534.079 99.9487 532.363 99.5857 530.948 99.1139C529.553 98.6491 528.522 97.8903 527.854 96.7209C527.197 95.5705 526.924 94.0761 526.924 92.1958V79.6152C526.924 79.3391 527.148 79.1152 527.424 79.1152Z" fill="#4048F5"/>
        <path fill-rule="evenodd" clip-rule="evenodd" d="M512.701 23.6992C512.701 23.4231 512.925 23.1992 513.201 23.1992L673.373 23.1992C673.649 23.1992 673.873 23.4231 673.873 23.6992C673.873 23.9754 673.649 24.1992 673.373 24.1992L513.201 24.1992C512.925 24.1992 512.701 23.9754 512.701 23.6992Z" fill="#4048F5"/>
        <path fill-rule="evenodd" clip-rule="evenodd" d="M541.232 48.7031H536.322C535.349 48.7031 534.561 49.4918 534.561 50.4647C534.561 51.4376 535.349 52.2263 536.322 52.2263H541.232C542.205 52.2263 542.993 51.4376 542.993 50.4647C542.993 49.4918 542.205 48.7031 541.232 48.7031ZM536.322 47.7031C534.797 47.7031 533.561 48.9395 533.561 50.4647C533.561 51.9899 534.797 53.2263 536.322 53.2263H541.232C542.757 53.2263 543.993 51.9899 543.993 50.4647C543.993 48.9395 542.757 47.7031 541.232 47.7031H536.322Z" fill="#4048F5"/>
        <path fill-rule="evenodd" clip-rule="evenodd" d="M540.004 62.2051H537.55C536.577 62.2051 535.788 62.9938 535.788 63.9667C535.788 64.9396 536.577 65.7283 537.55 65.7283H540.004C540.977 65.7283 541.766 64.9396 541.766 63.9667C541.766 62.9938 540.977 62.2051 540.004 62.2051ZM537.55 61.2051C536.025 61.2051 534.788 62.4415 534.788 63.9667C534.788 65.4919 536.025 66.7283 537.55 66.7283H540.004C541.53 66.7283 542.766 65.4919 542.766 63.9667C542.766 62.4415 541.53 61.2051 540.004 61.2051H537.55Z" fill="#4048F5"/>
        <path fill-rule="evenodd" clip-rule="evenodd" d="M558.722 62.0472C561.559 62.0472 563.859 59.7473 563.859 56.9103C563.859 54.0733 561.559 51.7734 558.722 51.7734C555.885 51.7734 553.585 54.0733 553.585 56.9103C553.585 59.7473 555.885 62.0472 558.722 62.0472ZM558.722 63.0472C562.111 63.0472 564.859 60.2996 564.859 56.9103C564.859 53.521 562.111 50.7734 558.722 50.7734C555.333 50.7734 552.585 53.521 552.585 56.9103C552.585 60.2996 555.333 63.0472 558.722 63.0472Z" fill="#4048F5"/>
        <path fill-rule="evenodd" clip-rule="evenodd" d="M583.269 62.6604C586.106 62.6604 588.406 60.3606 588.406 57.5236C588.406 54.6866 586.106 52.3867 583.269 52.3867C580.432 52.3867 578.132 54.6866 578.132 57.5236C578.132 60.3606 580.432 62.6604 583.269 62.6604ZM583.269 63.6604C586.659 63.6604 589.406 60.9129 589.406 57.5236C589.406 54.1343 586.659 51.3867 583.269 51.3867C579.88 51.3867 577.132 54.1343 577.132 57.5236C577.132 60.9129 579.88 63.6604 583.269 63.6604Z" fill="#4048F5"/>
        <path fill-rule="evenodd" clip-rule="evenodd" d="M632.978 81.0699C641.238 81.0699 647.934 74.3739 647.934 66.1141C647.934 57.8542 641.238 51.1582 632.978 51.1582C624.718 51.1582 618.022 57.8542 618.022 66.1141C618.022 74.3739 624.718 81.0699 632.978 81.0699ZM632.978 82.0699C641.79 82.0699 648.934 74.9262 648.934 66.1141C648.934 57.3019 641.79 50.1582 632.978 50.1582C624.166 50.1582 617.022 57.3019 617.022 66.1141C617.022 74.9262 624.166 82.0699 632.978 82.0699Z" fill="#4048F5"/>
        <path fill-rule="evenodd" clip-rule="evenodd" d="M632.978 76.1611C638.526 76.1611 643.024 71.6632 643.024 66.1147C643.024 60.5663 638.526 56.0684 632.978 56.0684C627.429 56.0684 622.932 60.5663 622.932 66.1147C622.932 71.6632 627.429 76.1611 632.978 76.1611ZM632.978 77.1611C639.079 77.1611 644.024 72.2155 644.024 66.1147C644.024 60.014 639.079 55.0684 632.978 55.0684C626.877 55.0684 621.932 60.014 621.932 66.1147C621.932 72.2155 626.877 77.1611 632.978 77.1611Z" fill="#4048F5"/>
        <path fill-rule="evenodd" clip-rule="evenodd" d="M638.846 56.8532C639.046 57.0438 639.053 57.3603 638.863 57.5601L632.419 64.3106C632.228 64.5104 631.912 64.5177 631.712 64.3271C631.512 64.1364 631.505 63.8199 631.696 63.6202L638.139 56.8696C638.33 56.6699 638.647 56.6625 638.846 56.8532ZM642.826 61.1407C643.031 61.3264 643.046 61.6427 642.86 61.847L636.723 68.5975C636.537 68.8019 636.221 68.8169 636.017 68.6312C635.813 68.4454 635.797 68.1292 635.983 67.9249L642.12 61.1743C642.306 60.97 642.622 60.9549 642.826 61.1407Z" fill="#4048F5"/>
        <path fill-rule="evenodd" clip-rule="evenodd" d="M632.978 70.0244C634.459 70.0244 635.66 68.8236 635.66 67.3423C635.66 65.861 634.459 64.6602 632.978 64.6602C631.497 64.6602 630.296 65.861 630.296 67.3423C630.296 68.8236 631.497 70.0244 632.978 70.0244ZM632.978 71.0244C635.012 71.0244 636.66 69.3759 636.66 67.3423C636.66 65.3087 635.012 63.6602 632.978 63.6602C630.944 63.6602 629.296 65.3087 629.296 67.3423C629.296 69.3759 630.944 71.0244 632.978 71.0244Z" fill="#4048F5"/>
        <path fill-rule="evenodd" clip-rule="evenodd" d="M595.35 100.787C595.35 100.511 595.574 100.287 595.85 100.287H619.477C619.753 100.287 619.977 100.511 619.977 100.787C619.977 101.063 619.753 101.287 619.477 101.287H595.85C595.574 101.287 595.35 101.063 595.35 100.787ZM624.079 103.049C624.356 103.049 624.579 103.273 624.579 103.549V113.368C624.579 113.644 624.356 113.868 624.079 113.868C623.803 113.868 623.579 113.644 623.579 113.368V103.549C623.579 103.273 623.803 103.049 624.079 103.049ZM636.046 103.049C636.322 103.049 636.546 103.273 636.546 103.549V113.368C636.546 113.644 636.322 113.868 636.046 113.868C635.77 113.868 635.546 113.644 635.546 113.368V103.549C635.546 103.273 635.77 103.049 636.046 103.049ZM546.448 116.243C546.724 116.243 546.948 116.467 546.948 116.743V141.29C546.948 141.567 546.724 141.79 546.448 141.79C546.172 141.79 545.948 141.567 545.948 141.29V116.743C545.948 116.467 546.172 116.243 546.448 116.243ZM552.585 116.243C552.861 116.243 553.085 116.467 553.085 116.743V141.29C553.085 141.567 552.861 141.79 552.585 141.79C552.309 141.79 552.085 141.567 552.085 141.29V116.743C552.085 116.467 552.309 116.243 552.585 116.243Z" fill="#4048F5"/>
        <path fill-rule="evenodd" clip-rule="evenodd" d="M540.024 141.098C540.3 141.109 540.515 141.341 540.504 141.617L539.89 157.573C539.88 157.849 539.647 158.064 539.372 158.053C539.096 158.043 538.88 157.81 538.891 157.534L539.505 141.578C539.515 141.303 539.748 141.087 540.024 141.098ZM533.561 141.098C533.837 141.098 534.061 141.322 534.061 141.598V157.554C534.061 157.83 533.837 158.054 533.561 158.054C533.285 158.054 533.061 157.83 533.061 157.554V141.598C533.061 141.322 533.285 141.098 533.561 141.098Z" fill="#4048F5"/>
        <path fill-rule="evenodd" clip-rule="evenodd" d="M542.993 168.213V164.304C542.993 160.789 540.144 157.939 536.629 157.939C533.114 157.939 530.265 160.789 530.265 164.304V168.213H542.993ZM536.629 156.939C532.562 156.939 529.265 160.237 529.265 164.304V169.213H543.993V164.304C543.993 160.237 540.696 156.939 536.629 156.939Z" fill="#4048F5"/>
        <path fill-rule="evenodd" clip-rule="evenodd" d="M529.072 166.76C529.072 166.484 529.296 166.26 529.572 166.26H543.687C543.963 166.26 544.187 166.484 544.187 166.76C544.187 167.036 543.963 167.26 543.687 167.26H529.572C529.296 167.26 529.072 167.036 529.072 166.76Z" fill="#4048F5"/>
        <path fill-rule="evenodd" clip-rule="evenodd" d="M604.248 123.369C604.248 117.57 608.949 112.869 614.748 112.869H638.501C643.183 112.869 646.979 116.665 646.979 121.347H645.979C645.979 117.217 642.631 113.869 638.501 113.869H614.748C609.502 113.869 605.248 118.122 605.248 123.369V141.599H604.248V123.369Z" fill="#4048F5"/>
        <path fill-rule="evenodd" clip-rule="evenodd" d="M604.555 119.504C604.555 119.228 604.779 119.004 605.055 119.004H646.172C646.448 119.004 646.672 119.228 646.672 119.504C646.672 119.78 646.448 120.004 646.172 120.004H605.055C604.779 120.004 604.555 119.78 604.555 119.504ZM604.555 135.153C604.555 134.877 604.779 134.653 605.055 134.653H643.104C643.38 134.653 643.604 134.877 643.604 135.153C643.604 135.429 643.38 135.653 643.104 135.653H605.055C604.779 135.653 604.555 135.429 604.555 135.153Z" fill="#4048F5"/>
        <path fill-rule="evenodd" clip-rule="evenodd" d="M673.788 168.215C690.352 168.215 703.779 154.787 703.779 138.224C703.779 121.66 690.352 108.232 673.788 108.232C657.224 108.232 643.797 121.66 643.797 138.224C643.797 154.787 657.224 168.215 673.788 168.215ZM673.788 169.215C690.904 169.215 704.779 155.34 704.779 138.224C704.779 121.108 690.904 107.232 673.788 107.232C656.672 107.232 642.797 121.108 642.797 138.224C642.797 155.34 656.672 169.215 673.788 169.215Z" fill="#4048F5"/>
        <path fill-rule="evenodd" clip-rule="evenodd" d="M673.481 153.486C681.741 153.486 688.437 146.79 688.437 138.53C688.437 130.27 681.741 123.574 673.481 123.574C665.221 123.574 658.525 130.27 658.525 138.53C658.525 146.79 665.221 153.486 673.481 153.486ZM673.481 154.486C682.293 154.486 689.437 147.342 689.437 138.53C689.437 129.718 682.293 122.574 673.481 122.574C664.669 122.574 657.525 129.718 657.525 138.53C657.525 147.342 664.669 154.486 673.481 154.486Z" fill="#4048F5"/>
        <path d="M254.507 167.921H290.616M467.513 167.921H335.843M290.616 167.921V88.2031C290.616 87.6508 291.063 87.2031 291.616 87.2031H334.843C335.395 87.2031 335.843 87.6508 335.843 88.2031V167.921M290.616 167.921H335.843" stroke="#999999" stroke-linecap="round" stroke-linejoin="round"/>
        <path d="M290.381 102.896H336.346M290.381 118.482H336.346M290.381 135.155H336.346M290.381 151.103H336.346" stroke="#999999" stroke-linecap="round" stroke-linejoin="round"/>
        <path d="M302.713 87.2027V17.5742C302.713 17.0219 303.161 16.5742 303.713 16.5742H360.01C360.562 16.5742 361.01 17.0219 361.01 17.5742V28.1645M312.613 31.7865H326.545M312.613 43.0146H326.545M312.613 54.605H326.545M312.613 66.1953H326.545M312.613 77.7856H326.545" stroke="#999999" stroke-linecap="round" stroke-linejoin="round"/>
        <path d="M385.674 167.921V32.1484C385.674 31.5962 385.226 31.1484 384.674 31.1484H336.225C335.673 31.1484 335.225 31.5962 335.225 32.1484V86.587M349.639 46.8317V56.3146M360.089 47.1964V56.6793M371.62 46.8317V56.3146M349.639 69.8095V79.2924M360.089 70.1742V79.6571M371.62 69.8095V79.2924M349.639 93.1521V102.635M360.089 93.5168V103M371.62 93.1521V102.635M349.639 116.13V125.613M360.089 116.495V125.977M371.62 116.13V125.613M349.639 139.472V148.955M360.089 139.837V149.32M371.62 139.472V148.955" stroke="#999999" stroke-linecap="round" stroke-linejoin="round"/>
        <path d="M385.674 107.33H395.179M436.123 167.921V108.33C436.123 107.778 435.675 107.33 435.123 107.33H428.811M398.103 167.921V139.547C398.103 139.483 398.109 139.421 398.122 139.359C398.894 135.56 402.561 128.286 411.264 128.866C420.038 129.45 422.231 136.166 422.231 139.451L422.962 167.921M395.179 107.33L394.457 27.6731C394.452 27.1173 394.901 26.6641 395.457 26.6641H426.728C427.275 26.6641 427.721 27.1035 427.728 27.6505L428.811 107.33M395.179 107.33H428.811" stroke="#999999" stroke-linecap="round" stroke-linejoin="round"/>
        <path d="M404.732 38.9961V45.7226M418.185 38.9961V45.7226" stroke="#999999" stroke-linecap="round" stroke-linejoin="round"/>
        <path d="M405.853 51.3281V58.0546M418.185 51.3281V58.0546" stroke="#999999" stroke-linecap="round" stroke-linejoin="round"/>
        <path d="M405.853 64.7793V71.5058M418.185 64.7793V71.5058" stroke="#999999" stroke-linecap="round" stroke-linejoin="round"/>
        <path d="M405.853 77.1113V83.8379M418.185 77.1113V83.8379" stroke="#999999" stroke-linecap="round" stroke-linejoin="round"/>
        <path d="M405.853 90.5645V97.291M418.185 90.5645V97.291" stroke="#999999" stroke-linecap="round" stroke-linejoin="round"/>
        <path d="M310.561 16.5741C310.561 10.8212 313.352 2 330.555 2C347.588 2 350.92 12.3553 350.92 16.5741" stroke="#999999" stroke-linecap="round" stroke-linejoin="round"/>
        <path d="M1.5 167.867H16.0705M214.507 167.867H37.5793M16.0705 167.867L19.8598 30.4197C19.8747 29.8784 20.3178 29.4473 20.8594 29.4473H32.4459C32.9865 29.4473 33.4292 29.8769 33.4455 30.4172L37.5793 167.867M16.0705 167.867H37.5793" stroke="#999999" stroke-linecap="round" stroke-linejoin="round"/>
        <path d="M19.5394 48.5289H33.763M18.8456 61.3648H34.4568M47.9866 168.215L50.3847 61.3648M68.4546 100.219L65.9907 61.3648M50.6728 48.5289L51.0869 30.0791C51.0991 29.5357 51.5431 29.1016 52.0866 29.1016H63.0061C63.5339 29.1016 63.9707 29.5116 64.0041 30.0383L65.1767 48.5289M50.6728 48.5289H65.1767M50.6728 48.5289L50.3847 61.3648M65.1767 48.5289L65.9907 61.3648M50.3847 61.3648H65.9907" stroke="#999999" stroke-linecap="round" stroke-linejoin="round"/>
        <path d="M76.7812 109.585V88.3828C76.7812 87.8305 77.2289 87.3828 77.7812 87.3828H202.753C203.305 87.3828 203.753 87.8305 203.753 88.3828V167.867" stroke="#999999" stroke-linecap="round" stroke-linejoin="round"/>
        <path d="M90.6576 87.3829V71.0371C90.6576 70.4848 91.1053 70.0371 91.6576 70.0371H96.249C96.8013 70.0371 97.249 70.4848 97.249 71.0371V87.3829M113.207 87.3829C113.207 86.3384 113.207 76.6126 113.207 71.0357C113.207 70.4835 113.655 70.0371 114.207 70.0371H119.145C119.698 70.0371 120.145 70.4848 120.145 71.0371V87.3829M137.144 87.3829V71.0371C137.144 70.4848 137.592 70.0371 138.144 70.0371H142.389C142.941 70.0371 143.389 70.4848 143.389 71.0371V86.3829C143.389 86.9352 143.837 87.3829 144.389 87.3829H159.388C159.94 87.3829 160.388 86.9352 160.388 86.3829V71.0371C160.388 70.4848 160.835 70.0371 161.388 70.0371H164.938C165.491 70.0371 165.938 70.4848 165.938 71.0371V87.3829M85.8008 98.1373H91.6983M97.249 98.1373H102.453M108.697 98.1373H114.595M120.145 98.1373H125.696M131.594 98.1373H137.144M143.389 98.1373H148.593M154.837 98.1373H160.388M165.938 98.1373H171.489M177.387 98.1373H183.284M188.835 98.1373H194.732M204.099 109.932H61.129C60.5767 109.932 60.129 110.38 60.129 110.932V167.868M74.0056 118.952V152.95M88.5761 118.952V152.95M102.453 118.952V152.95M117.37 118.952V152.95M131.594 118.952V152.95" stroke="#999999" stroke-linecap="round" stroke-linejoin="round"/>
        <rect x="147.358" y="119.799" width="44.0991" height="15.652" stroke="#999999"/>
        <path d="M144.582 142.002H194.926V167.715H144.582V142.002Z" stroke="#999999"/>
        <path d="M94.1268 63.4461C94.4737 59.5144 97.3878 51.7897 106.269 52.3448C111.952 52.7 114.813 55.9154 116.106 59.1547C116.513 60.1739 119.066 60.699 119.778 59.8635C122.003 57.2498 125.318 54.7733 129.512 54.7733C134.087 54.7733 136.96 57.7195 138.536 60.5763C139.033 61.4785 140.965 61.5371 141.498 60.6556C143.427 57.4666 146.889 54.1764 152.062 54.7733C159.278 55.6059 162.701 61.3647 163.51 64.14" stroke="#999999" stroke-linecap="round" stroke-linejoin="round"/>
        <path d="M197.508 1H186.06C176.346 1 180.043 8.28524 178.081 8.28524C170.795 8.28524 166.517 8.40088 160.041 8.28524C157.728 8.40088 153.103 9.53414 153.103 13.1421C153.103 16.7266 143.743 16.9553 138.972 16.6179C138.909 16.6134 138.849 16.6145 138.786 16.623C136.792 16.8921 132.981 18.4843 132.981 22.8557C132.981 28.4064 132.981 34.304 129.859 34.9978C126.737 35.6916 118.064 32.2225 109.044 36.7324C101.828 40.3403 94.1268 52.3436 94.1268 63.4449" stroke="#999999" stroke-linecap="round" stroke-linejoin="round"/>
        <path d="M199.242 35.3444C196.12 36.0382 187.447 32.569 178.427 37.079C171.211 40.6869 163.51 52.6902 163.51 63.7915" stroke="#999999" stroke-linecap="round" stroke-linejoin="round"/>
        </g>
</svg>
