<svg width="314" height="189" viewBox="0 0 314 189" fill="none" xmlns="http://www.w3.org/2000/svg">
<path d="M29.8645 153.163H16.5148C15.4103 153.163 14.5148 152.268 14.5148 151.163V143.927C14.5148 143.066 15.0657 142.302 15.8824 142.03L17.0994 141.624C17.9411 141.343 18.4974 140.542 18.4657 139.655L17.217 104.692C17.1963 104.111 17.4291 103.55 17.8548 103.155L23.6469 97.7765C24.8452 96.6638 26.7987 97.373 26.9921 98.9968C28.5809 112.34 30.9929 132.767 31.6788 139.181C31.796 140.277 32.7588 141.153 33.8613 141.156L279.059 141.813C280.056 141.816 280.903 141.083 281.044 140.096L286.932 98.8846C287.16 97.2867 289.09 96.6035 290.273 97.7019L296.146 103.155C296.571 103.55 296.804 104.111 296.783 104.691L295.54 140.121C295.508 141.049 296.251 141.818 297.178 141.818V141.818C298.084 141.818 298.818 142.552 298.818 143.457V151.163C298.818 152.268 297.922 153.163 296.818 153.163H283.468M57.8944 153.163H93.9327M121.295 153.163H191.37M218.732 153.163H255.438" stroke="#999999" stroke-linecap="round" stroke-linejoin="round"/>
<path d="M46.5491 167.846C47.083 167.846 52.5555 167.846 55.225 167.846M97.2697 167.846H105.946" stroke="#999999" stroke-linecap="round" stroke-linejoin="round"/>
<path d="M14.5149 143.15H8.50641C7.40184 143.15 6.50641 144.046 6.50641 145.15V149.826C6.50641 150.931 7.40184 151.826 8.50641 151.826H14.5149" stroke="#999999" stroke-linecap="round" stroke-linejoin="round"/>
<rect x="1" y="136.979" width="5.67377" height="20.3561" stroke="#999999"/>
<path d="M299.485 143.15H305.494C306.598 143.15 307.494 144.046 307.494 145.15V149.826C307.494 150.931 306.598 151.826 305.494 151.826H299.485" stroke="#999999" stroke-linecap="round" stroke-linejoin="round"/>
<rect x="-0.5" y="0.5" width="5.67377" height="20.3561" transform="matrix(-1 0 0 1 312.5 136.479)" stroke="#999999"/>
<circle cx="205.385" cy="167.843" r="20.1887" stroke="#999999"/>
<circle cx="43.8796" cy="167.843" r="20.1887" stroke="#999999"/>
<circle cx="269.453" cy="167.843" r="20.1887" stroke="#999999"/>
<circle cx="107.948" cy="167.843" r="20.1887" stroke="#999999"/>
<circle cx="205.385" cy="167.842" r="14.8497" stroke="#999999"/>
<circle cx="43.8795" cy="167.842" r="14.8497" stroke="#999999"/>
<circle cx="269.453" cy="167.842" r="14.8497" stroke="#999999"/>
<circle cx="107.948" cy="167.842" r="14.8497" stroke="#999999"/>
<path d="M198.044 161.172H210.056M227.408 161.172H210.056M248.097 161.172C248.449 161.172 256.955 161.172 265.449 161.172M277.462 161.172C274.207 161.172 269.829 161.172 265.449 161.172M210.056 161.172L223.486 174.601C223.861 174.976 224.369 175.187 224.9 175.187H227.408M265.449 161.172L251.346 174.634C250.974 174.989 250.48 175.187 249.965 175.187H248.097" stroke="#999999" stroke-linecap="round" stroke-linejoin="round"/>
<path d="M36.5384 161.172H48.5512M65.903 161.172H48.5512M86.5917 161.172C86.9439 161.172 95.4494 161.172 103.943 161.172M115.956 161.172C112.702 161.172 108.324 161.172 103.943 161.172M48.5512 161.172L61.9803 174.601C62.3554 174.976 62.8641 175.187 63.3945 175.187H65.903M103.943 161.172L89.8408 174.634C89.4688 174.989 88.9742 175.187 88.4599 175.187H86.5917" stroke="#999999" stroke-linecap="round" stroke-linejoin="round"/>
<circle cx="204.718" cy="168.514" r="3.50426" stroke="#999999"/>
<circle cx="43.2122" cy="168.514" r="3.50426" stroke="#999999"/>
<circle r="3.50426" transform="matrix(-1 0 0 1 270.788 168.514)" stroke="#999999"/>
<circle r="3.50426" transform="matrix(-1 0 0 1 109.283 168.514)" stroke="#999999"/>
<path d="M208.054 168.512C211.258 168.512 215.618 168.512 217.398 168.512" stroke="#999999" stroke-linecap="round" stroke-linejoin="round"/>
<path d="M267.451 168.512C264.248 168.512 259.887 168.512 258.108 168.512" stroke="#999999" stroke-linecap="round" stroke-linejoin="round"/>
<rect x="227.908" y="159.67" width="8.34328" height="17.6866" stroke="#999999"/>
<rect x="66.403" y="159.67" width="8.34328" height="17.6866" stroke="#999999"/>
<rect x="239.921" y="159.67" width="8.34328" height="17.6866" stroke="#999999"/>
<rect x="78.4157" y="159.67" width="8.34328" height="17.6866" stroke="#999999"/>
<path d="M228.076 163.84H248.097M228.076 168.511H248.097M228.076 172.516H248.097" stroke="#999999" stroke-linecap="round" stroke-linejoin="round"/>
<path d="M66.5703 163.84H86.5916M66.5703 168.511H86.5916M66.5703 172.516H86.5916" stroke="#999999" stroke-linecap="round" stroke-linejoin="round"/>
<path d="M96.6023 137.814H156.666H188.7H204.717H212.726H217.398M70.5746 137.814H60.5639H53.5298C39.7227 137.814 28.5298 126.621 28.5298 112.814V52.0293C28.5298 38.2222 39.7227 27.0293 53.5298 27.0293H259.803C273.61 27.0293 284.803 38.2222 284.803 52.0293V112.814C284.803 126.621 273.61 137.814 259.803 137.814H252.769H243.425" stroke="#999999"/>
<path d="M79.2505 28.3613V128.468M88.5938 28.3613V128.468" stroke="#999999" stroke-linecap="round" stroke-linejoin="round"/>
<path d="M226.074 28.3613V128.468M235.417 28.3613V128.468" stroke="#999999" stroke-linecap="round" stroke-linejoin="round"/>
<path d="M216.73 141.818V130.471C216.73 129.366 217.626 128.471 218.73 128.471H241.425C242.53 128.471 243.425 129.366 243.425 130.471V141.818" stroke="#999999" stroke-linecap="round" stroke-linejoin="round"/>
<path d="M69.9072 140.483V130.471C69.9072 129.366 70.8027 128.471 71.9072 128.471H94.6023C95.7069 128.471 96.6023 129.366 96.6023 130.471V140.483" stroke="#999999" stroke-linecap="round" stroke-linejoin="round"/>
<path d="M109.95 27.6951L126.661 13.2118C127.956 12.0894 129.971 13.0094 129.971 14.7232V27.6951M183.361 27.6951V14.8225C183.361 13.0928 185.408 12.1787 186.696 13.3334L202.715 27.6951M133.308 27.6951V15.0128C133.308 13.9082 134.203 13.0128 135.308 13.0128H145.988M179.357 27.6951V15.0128C179.357 13.9082 178.462 13.0128 177.357 13.0128H167.344M145.988 13.0128V3C145.988 1.89543 146.884 1 147.988 1H165.344C166.449 1 167.344 1.89543 167.344 3V13.0128M145.988 13.0128H167.344" stroke="#999999" stroke-linecap="round" stroke-linejoin="round"/>
<path d="M141.984 18.3496V111.115M141.984 133.806V111.115M171.348 18.3496V111.115M171.348 133.806V111.115M141.984 111.115H171.348" stroke="#999999" stroke-linecap="round" stroke-linejoin="round"/>
<path d="M141.984 91.7624H172.016M141.984 71.7411H172.016M141.984 52.3871H172.016M141.984 33.0332H172.016" stroke="#999999" stroke-linecap="round" stroke-linejoin="round"/>
</svg>
