<svg width="325" height="188" viewBox="0 0 325 188" fill="none" xmlns="http://www.w3.org/2000/svg">
<path d="M0.5 140.988V23.7317C0.5 23.0553 1.15834 22.5744 1.79591 22.8002C15.6728 27.7156 22.1664 38.5567 26.0819 47.2268C29.9926 55.8863 31.7377 83.5175 32.1698 97.4597C32.19 98.1135 31.5847 98.6088 30.9364 98.5213C27.6309 98.0746 22.7318 98.52 22.4788 103.075C22.213 107.859 27.8502 110.152 31.3666 110.856C31.8493 110.953 32.3144 110.651 32.4608 110.181C36.0941 98.5135 39.0994 92.674 46.001 84.638C46.1653 84.4467 46.2543 84.1985 46.2456 83.9466L45.1808 53.0666C45.1791 53.0167 45.1741 52.9697 45.165 52.9207C44.1993 47.7142 42.2224 35.3706 41.9355 27.0495C41.6714 19.392 47.0312 7.92485 50.4257 1.89901C50.8058 1.22429 51.7643 1.24455 52.1173 1.93379C55.3724 8.28804 60.4806 20.1633 59.9509 27.0495C59.3744 34.5439 57.789 47.467 57.0684 52.9917L55.645 83.9512C55.6335 84.2004 55.7182 84.4478 55.8773 84.6399C63.5589 93.9139 66.741 99.6997 70.1296 110.159C70.285 110.639 70.7701 110.935 71.2607 110.818C74.7702 109.982 80.8685 107.517 80.1281 103.075C79.4949 99.2749 74.966 98.3506 71.6766 98.59C71.0255 98.6373 70.4417 98.1231 70.4765 97.4712C71.0743 86.2745 70.6062 63.9024 75.8044 48.3077C80.2705 34.9094 92.949 25.9 100.812 22.8318C101.446 22.5844 102.107 23.0655 102.107 23.7461V140.988C102.107 141.54 101.659 141.988 101.107 141.988H75.4778C75.0313 141.988 74.6401 142.281 74.5143 142.71C73.2035 147.174 70.4197 155.65 68.238 158.922C65.9844 162.303 61.2533 167.105 59.0216 169.228C58.9207 169.324 58.8421 169.438 58.7881 169.566L52.2041 185.242C51.8641 186.052 50.7204 186.062 50.3668 185.258L43.4266 169.485C43.3934 169.409 43.3528 169.34 43.3014 169.276C41.556 167.094 36.844 163.183 33.6484 158.922C30.8982 155.255 28.5716 147.441 27.9821 142.901C27.9152 142.386 27.4834 141.988 26.9633 141.988H1.5C0.947715 141.988 0.5 141.54 0.5 140.988Z" stroke="#999999" stroke-linecap="round" stroke-linejoin="round"/>
<path d="M46.2591 141.268H36.8911C39.1292 149.715 41.3881 153.535 46.9797 158.923L46.2591 141.268Z" stroke="#999999" stroke-linecap="round" stroke-linejoin="round"/>
<path d="M55.9873 141.268H65.3553C63.1173 149.715 60.8584 153.535 55.2667 158.923L55.9873 141.268Z" stroke="#999999" stroke-linecap="round" stroke-linejoin="round"/>
<path d="M10.2279 132.62V107.398H13.1104C16.3226 114.68 19.9571 117.493 28.964 120.73L26.8021 132.62H10.2279Z" stroke="#999999" stroke-linecap="round" stroke-linejoin="round"/>
<path d="M92.0186 132.62V107.398H89.1361C85.9238 114.68 82.2894 117.493 73.2825 120.73L75.4444 132.62H92.0186Z" stroke="#999999" stroke-linecap="round" stroke-linejoin="round"/>
<path d="M36.5308 132.259L37.972 121.811C44.2834 124.601 45.8614 127.069 46.9797 132.259H36.5308Z" stroke="#999999" stroke-linecap="round" stroke-linejoin="round"/>
<path d="M65.7157 132.259L64.2744 121.811C57.963 124.601 56.3851 127.069 55.2667 132.259H65.7157Z" stroke="#999999" stroke-linecap="round" stroke-linejoin="round"/>
<path d="M62.1127 114.245C56.8018 114.605 54.525 116.393 51.3035 121.451C48.2008 116.93 45.816 115.172 39.7736 114.245C43.1339 106.111 45.3912 101.239 51.3035 92.9863C56.4017 101.464 58.7547 106.116 62.1127 114.245Z" stroke="#999999" stroke-linecap="round" stroke-linejoin="round"/>
<path d="M9.50784 98.7505V38.2188C20.2298 51.9991 22.6384 63.9589 22.8393 90.1031C18.0721 90.8453 16.2388 92.8619 14.1919 98.7505H9.50784Z" stroke="#999999" stroke-linecap="round" stroke-linejoin="round"/>
<path d="M92.3783 98.7505V38.2188C81.6564 51.9991 79.2477 63.9589 79.0469 90.1031C83.8141 90.8453 85.6474 92.8619 87.6943 98.7505H92.3783Z" stroke="#999999" stroke-linecap="round" stroke-linejoin="round"/>
<rect x="145.479" y="44.6061" width="4.93351" height="145.642" rx="2.46675" transform="rotate(-13.8447 145.479 44.6061)" stroke="#999999"/>
<path d="M171.787 130.955L152.545 51.7991C152.334 50.9302 152.715 50.032 153.494 49.5931C162.791 44.3564 184.519 32.4559 198.432 29.5969C216.699 25.8434 231.081 26.3494 246.197 24.1087C257.428 22.4437 277.332 13.8213 287.771 8.83184C288.922 8.28171 290.288 8.92288 290.595 10.161L309.873 87.8418C310.031 88.4763 309.875 89.1496 309.405 89.6035C305.553 93.3195 293.869 100.966 271.903 107.093C242.438 115.311 238.913 108.68 215.664 113.457C199.356 116.808 182.477 126.85 175.07 132.13C173.872 132.984 172.135 132.386 171.787 130.955Z" stroke="#999999" stroke-linecap="round" stroke-linejoin="round"/>
<path d="M223.107 33.8683L224.595 36.3634L224.777 36.6686L225.125 36.5971L228.054 35.9951L226.04 38.063L225.772 38.3381L225.969 38.6679L227.42 41.1005L224.643 39.9488L224.33 39.8189L224.093 40.0618L221.996 42.215L222.37 39.4075L222.42 39.0268L222.066 38.8797L219.399 37.7736L222.329 37.1717L222.677 37.1002L222.724 36.7479L223.107 33.8683Z" stroke="#999999"/>
<path d="M207.184 40.6046L208.671 43.0997L208.853 43.405L209.201 43.3334L212.131 42.7315L210.117 44.7993L209.849 45.0744L210.045 45.4042L211.496 47.8369L208.719 46.6852L208.406 46.5552L208.17 46.7981L206.072 48.9513L206.446 46.1438L206.497 45.7632L206.142 45.616L203.476 44.51L206.405 43.908L206.753 43.8365L206.8 43.4842L207.184 40.6046Z" stroke="#999999"/>
<path d="M199.213 54.4512L200.583 56.8612L200.762 57.177L201.118 57.1039L203.834 56.5459L201.965 58.5934L201.72 58.8617L201.899 59.1775L203.269 61.5876L200.744 60.4429L200.414 60.2929L200.169 60.5612L198.3 62.6087L198.608 59.8538L198.649 59.4928L198.318 59.3428L195.793 58.1982L198.508 57.6402L198.864 57.5671L198.905 57.2061L199.213 54.4512Z" stroke="#999999"/>
<path d="M199.571 70.9342L200.82 73.2435L200.997 73.5702L201.36 73.4955L203.861 72.9817L202.138 75.0102L201.916 75.2708L202.079 75.5717L203.365 77.951L201.096 76.823L200.746 76.6489L200.492 76.947L198.851 78.8786L199.096 76.1847L199.126 75.8441L198.82 75.6919L196.437 74.5072L198.937 73.9935L199.301 73.9187L199.334 73.5488L199.571 70.9342Z" stroke="#999999"/>
<path d="M206.794 85.026L208.043 87.3353L208.219 87.662L208.583 87.5873L211.083 87.0735L209.36 89.102L209.139 89.3626L209.301 89.6635L210.588 92.0428L208.318 90.9148L207.968 90.7407L207.715 91.0388L206.074 92.9704L206.318 90.2765L206.349 89.9359L206.043 89.7837L203.659 88.599L206.16 88.0852L206.523 88.0105L206.557 87.6406L206.794 85.026Z" stroke="#999999"/>
<path d="M220.636 93.4323L221.884 95.7416L222.061 96.0683L222.425 95.9935L224.925 95.4797L223.202 97.5082L222.98 97.7689L223.143 98.0698L224.43 100.449L222.16 99.321L221.81 99.1469L221.557 99.4451L219.916 101.377L220.16 98.6828L220.191 98.3422L219.884 98.1899L217.501 97.0053L220.001 96.4915L220.365 96.4167L220.399 96.0469L220.636 93.4323Z" stroke="#999999"/>
<path d="M238.266 95.0026L239.515 97.3119L239.691 97.6386L240.055 97.5638L242.555 97.0501L240.832 99.0785L240.611 99.3392L240.773 99.6401L242.06 102.019L239.79 100.891L239.44 100.717L239.187 101.015L237.546 102.947L237.79 100.253L237.821 99.9125L237.515 99.7602L235.131 98.5756L237.632 98.0618L237.995 97.9871L238.029 97.6172L238.266 95.0026Z" stroke="#999999"/>
<path d="M253.188 87.612L254.437 89.9213L254.613 90.248L254.977 90.1732L257.477 89.6594L255.754 91.6879L255.533 91.9486L255.696 92.2494L256.982 94.6288L254.713 93.5007L254.362 93.3266L254.109 93.6248L252.468 95.5563L252.712 92.8625L252.743 92.5218L252.437 92.3696L250.053 91.185L252.554 90.6712L252.918 90.5964L252.951 90.2265L253.188 87.612Z" stroke="#999999"/>
<path d="M261.593 73.7663L262.842 76.0756L263.019 76.4023L263.382 76.3275L265.883 75.8137L264.16 77.8422L263.938 78.1029L264.101 78.4037L265.387 80.783L263.118 79.655L262.768 79.4809L262.514 79.7791L260.873 81.7106L261.118 79.0168L261.148 78.6761L260.842 78.5239L258.459 77.3393L260.959 76.8255L261.323 76.7507L261.356 76.3808L261.593 73.7663Z" stroke="#999999"/>
<path d="M261.673 57.3131L262.921 59.6224L263.098 59.9491L263.462 59.8744L265.962 59.3606L264.239 61.3891L264.018 61.6497L264.18 61.9506L265.467 64.3299L263.197 63.2019L262.847 63.0278L262.594 63.3259L260.953 65.2575L261.197 62.5636L261.228 62.223L260.922 62.0708L258.538 60.8861L261.038 60.3724L261.402 60.2976L261.436 59.9277L261.673 57.3131Z" stroke="#999999"/>
<path d="M253.279 41.7311L254.528 44.0404L254.704 44.3671L255.068 44.2924L257.568 43.7786L255.845 45.807L255.624 46.0677L255.786 46.3686L257.073 48.7479L254.804 47.6199L254.453 47.4457L254.2 47.7439L252.559 49.6754L252.803 46.9816L252.834 46.641L252.528 46.4887L250.144 45.3041L252.645 44.7903L253.008 44.7156L253.042 44.3457L253.279 41.7311Z" stroke="#999999"/>
<path d="M238.777 34.3249L240.026 36.6342L240.202 36.9609L240.566 36.8861L243.066 36.3723L241.343 38.4008L241.122 38.6615L241.285 38.9623L242.571 41.3416L240.302 40.2136L239.951 40.0395L239.698 40.3377L238.057 42.2692L238.301 39.5754L238.332 39.2347L238.026 39.0825L235.642 37.8979L238.143 37.3841L238.507 37.3093L238.54 36.9394L238.777 34.3249Z" stroke="#999999"/>
<path d="M281.222 26.743L277.522 36.918M289.084 21.1934L285.384 29.5182M283.072 38.3054L277.522 48.4802M192.424 99.8165L188.724 107.679" stroke="#999999" stroke-linecap="round" stroke-linejoin="round"/>
</svg>
