<svg width="130" height="160" viewBox="0 0 130 160" fill="none" xmlns="http://www.w3.org/2000/svg">
<path fill-rule="evenodd" clip-rule="evenodd" d="M18.5908 60.6096C20.5846 59.1324 23.2567 58.4912 25.7405 58.4912H38.8207C38.8274 58.4912 38.834 58.4913 38.8406 58.4916C41.5662 58.5922 43.8219 59.6028 45.4433 61.3465C47.0595 63.0847 48.0083 65.5105 48.2072 68.3847C48.2081 68.3971 48.2085 68.4095 48.2085 68.4219V108.67C48.2085 108.968 47.967 109.21 47.6691 109.21H40.9366C40.6387 109.21 40.3972 108.968 40.3972 108.67V69.5719C40.3972 68.529 40.0958 67.7888 39.5261 67.2969C38.9417 66.7922 37.9847 66.4697 36.5124 66.4697H26.7023C25.8047 66.4697 25.0941 66.8293 24.5969 67.4436C24.091 68.0686 23.7793 68.9935 23.7793 70.1468V97.1708C23.7793 97.1864 23.7786 97.2021 23.7772 97.2177C23.5734 99.5532 22.4578 101.917 20.7702 103.699C19.0804 105.483 16.7822 106.718 14.1991 106.718H0.541855C0.243954 106.718 0.00245667 106.477 0.00245667 106.179V98.5124C0.00245667 98.2145 0.243954 97.973 0.541855 97.973H13.4297C14.3095 97.973 14.9839 97.7534 15.4316 97.3631C15.8662 96.9842 16.1592 96.3815 16.1604 95.4513L15.5838 67.6859C15.2841 64.4356 16.5727 62.1048 18.5908 60.6096ZM19.233 61.4764C17.5042 62.7573 16.3895 64.7323 16.6597 67.6047C16.661 67.6178 16.6617 67.6309 16.662 67.6441L17.2393 95.4458C17.2393 96.6208 16.8592 97.5497 16.1405 98.1763C15.4341 98.7922 14.4735 99.0518 13.4297 99.0518H1.08125V105.639H14.1991C16.425 105.639 18.4548 104.575 19.9869 102.957C21.5157 101.343 22.5142 99.2124 22.7005 97.1469V70.1468C22.7005 68.8086 23.062 67.6253 23.7583 66.7649C24.4634 65.8938 25.4839 65.3909 26.7023 65.3909H36.5124C38.1178 65.3909 39.373 65.7393 40.2312 66.4804C41.1043 67.2343 41.476 68.3148 41.476 69.5719V108.131H47.1297V68.4407C46.9412 65.7652 46.0634 63.5977 44.6532 62.0811C43.2469 60.5687 41.2742 59.6631 38.8106 59.57H25.7405C23.4154 59.57 20.9901 60.1746 19.233 61.4764Z" fill="#4048F5"/>
<path fill-rule="evenodd" clip-rule="evenodd" d="M95.6902 66.1165C93.6924 64.8074 91.0198 64.2412 88.5381 64.2412H76.1739L76.1563 64.2415C73.439 64.3302 71.1811 65.2203 69.5492 66.7726C67.9173 68.3247 66.9535 70.4989 66.7516 73.0783C66.7505 73.0923 66.75 73.1063 66.75 73.1204V108.862C66.75 109.16 66.9915 109.402 67.2894 109.402H74.0493C74.3472 109.402 74.5887 109.16 74.5887 108.862V74.1416C74.5887 73.2501 74.8762 72.6173 75.439 72.1875C76.0287 71.7371 77.001 71.4472 78.4916 71.4472H87.5723C88.4979 71.4472 89.2175 71.7769 89.7094 72.3144C90.2058 72.8568 90.5095 73.6547 90.5095 74.6522V78.1628L80.7603 87.779C80.6576 87.8804 80.5997 88.0187 80.5997 88.163V99.4709C80.5997 99.7688 80.8412 100.01 81.1391 100.01C81.437 100.01 81.6785 99.7688 81.6785 99.4709V89.2774H104.837V140.713H93.2575C92.9596 140.713 92.7181 140.955 92.7181 141.253C92.7181 141.551 92.9596 141.792 93.2575 141.792H105.184C105.322 141.792 105.456 141.738 105.556 141.643L119.791 128.035C119.897 127.933 119.957 127.792 119.957 127.645V113.845C119.957 113.547 119.716 113.306 119.418 113.306C119.12 113.306 118.879 113.547 118.879 113.845V127.414L105.915 139.807V88.9642L118.879 76.2249V105.987C118.879 106.285 119.12 106.527 119.418 106.527C119.716 106.527 119.957 106.285 119.957 105.987V74.9385C119.957 74.6435 119.72 74.4032 119.425 74.3992L98.7345 74.12V72.4677C99.0368 69.5317 97.712 67.4414 95.6902 66.1165ZM98.7345 75.1989L118.117 75.4604L105.155 88.1986H81.8711L90.5095 79.6781V84.9048C90.5095 85.2027 90.751 85.4442 91.0489 85.4442H98.1951C98.493 85.4442 98.7345 85.2027 98.7345 84.9048V75.1989ZM95.0989 67.0189C96.8367 68.1576 97.9242 69.8873 97.6587 72.3825C97.6567 72.4015 97.6557 72.4205 97.6557 72.4396V84.3654H91.5883V74.6522C91.5883 73.4371 91.216 72.3627 90.5052 71.5861C89.79 70.8045 88.7713 70.3684 87.5723 70.3684H78.4916C76.8919 70.3684 75.643 70.6742 74.7842 71.3301C73.8985 72.0066 73.5099 72.9907 73.5099 74.1416V108.323H67.8288V73.1417C68.0167 70.7949 68.8867 68.8915 70.2927 67.5542C71.7011 66.2146 73.6893 65.4031 76.1828 65.32H88.5381C90.8848 65.32 93.3305 65.8601 95.0989 67.0189Z" fill="#4048F5"/>
<path fill-rule="evenodd" clip-rule="evenodd" d="M35.5532 94.6823C35.6544 94.5806 35.792 94.5234 35.9354 94.5234H40.9367C41.2346 94.5234 41.4761 94.7649 41.4761 95.0628C41.4761 95.3607 41.2346 95.6022 40.9367 95.6022H36.1596L13.1892 118.672H98.3653L76.865 95.6022H74.4067C74.1088 95.6022 73.8673 95.3607 73.8673 95.0628C73.8673 94.7649 74.1088 94.5234 74.4067 94.5234H77.0996C77.2493 94.5234 77.3922 94.5856 77.4942 94.6951L99.9999 118.844C100.129 118.983 100.176 119.18 100.123 119.362L90.5056 152.519C90.4387 152.75 90.2275 152.908 89.9875 152.908H22.8552C22.6226 152.908 22.4162 152.759 22.3431 152.538L11.3788 119.381C11.3149 119.188 11.3652 118.975 11.5087 118.831L35.5532 94.6823ZM98.8872 119.751H12.6374L23.245 151.83H89.5823L98.8872 119.751ZM47.3221 95.0628C47.3221 94.7649 47.5636 94.5234 47.8615 94.5234H66.7124C67.0103 94.5234 67.2518 94.7649 67.2518 95.0628C67.2518 95.3607 67.0103 95.6022 66.7124 95.6022H47.8615C47.5636 95.6022 47.3221 95.3607 47.3221 95.0628Z" fill="#4048F5"/>
<path fill-rule="evenodd" clip-rule="evenodd" d="M23.0476 151.829C23.3455 151.829 23.587 152.071 23.587 152.369V158.92H29.2407V152.369C29.2407 152.071 29.4822 151.829 29.7801 151.829C30.078 151.829 30.3195 152.071 30.3195 152.369V159.46C30.3195 159.758 30.078 159.999 29.7801 159.999H23.0476C22.7497 159.999 22.5082 159.758 22.5082 159.46V152.369C22.5082 152.071 22.7497 151.829 23.0476 151.829ZM82.678 151.829C82.9759 151.829 83.2174 152.071 83.2174 152.369V158.92H89.0634V152.369C89.0634 152.071 89.3049 151.829 89.6028 151.829C89.9008 151.829 90.1422 152.071 90.1422 152.369V159.46C90.1422 159.758 89.9008 159.999 89.6028 159.999H82.678C82.3801 159.999 82.1386 159.758 82.1386 159.46V152.369C82.1386 152.071 82.3801 151.829 82.678 151.829Z" fill="#4048F5"/>
<path fill-rule="evenodd" clip-rule="evenodd" d="M39.0132 143.432C43.2017 143.432 46.5904 140.05 46.5904 135.886C46.5904 131.723 43.2017 128.341 39.0132 128.341C34.8247 128.341 31.436 131.723 31.436 135.886C31.436 140.05 34.8247 143.432 39.0132 143.432ZM39.0132 144.511C43.7938 144.511 47.6692 140.65 47.6692 135.886C47.6692 131.123 43.7938 127.262 39.0132 127.262C34.2326 127.262 30.3572 131.123 30.3572 135.886C30.3572 140.65 34.2326 144.511 39.0132 144.511Z" fill="#4048F5"/>
<path fill-rule="evenodd" clip-rule="evenodd" d="M73.6371 143.432C77.8256 143.432 81.2144 140.05 81.2144 135.886C81.2144 131.723 77.8256 128.341 73.6371 128.341C69.4486 128.341 66.0599 131.723 66.0599 135.886C66.0599 140.05 69.4486 143.432 73.6371 143.432ZM73.6371 144.511C78.4177 144.511 82.2932 140.65 82.2932 135.886C82.2932 131.123 78.4177 127.262 73.6371 127.262C68.8565 127.262 64.9811 131.123 64.9811 135.886C64.9811 140.65 68.8565 144.511 73.6371 144.511Z" fill="#4048F5"/>
<path fill-rule="evenodd" clip-rule="evenodd" d="M127.84 107.258H114.458C113.863 107.258 113.38 107.741 113.38 108.336V111.687C113.38 112.283 113.863 112.766 114.458 112.766H127.84C128.436 112.766 128.919 112.283 128.919 111.687V108.336C128.919 107.741 128.436 107.258 127.84 107.258ZM114.458 106.179C113.267 106.179 112.301 107.145 112.301 108.336V111.687C112.301 112.879 113.267 113.845 114.458 113.845H127.84C129.032 113.845 129.998 112.879 129.998 111.687V108.336C129.998 107.145 129.032 106.179 127.84 106.179H114.458Z" fill="#4048F5"/>
<path fill-rule="evenodd" clip-rule="evenodd" d="M57.9768 43.1326C58.1725 43.0265 58.4133 43.0515 58.5831 43.1956L83.4423 64.3025C83.6694 64.4953 83.6972 64.8357 83.5044 65.0628C83.3116 65.2899 82.9712 65.3177 82.7441 65.1249L58.1664 44.257L30.8176 59.0903C30.5558 59.2323 30.2283 59.1352 30.0863 58.8733C29.9443 58.6114 30.0414 58.284 30.3033 58.142L57.9768 43.1326Z" fill="#4048F5"/>
<path fill-rule="evenodd" clip-rule="evenodd" d="M30.5605 58.5459C30.8584 58.5459 31.0999 58.7874 31.0999 59.0853V65.6519C31.0999 65.9498 30.8584 66.1913 30.5605 66.1913C30.2626 66.1913 30.0211 65.9498 30.0211 65.6519V59.0853C30.0211 58.7874 30.2626 58.5459 30.5605 58.5459ZM82.6242 64.1744C82.9221 64.1744 83.1636 64.4159 83.1636 64.7138V70.3423C83.1636 70.6402 82.9221 70.8817 82.6242 70.8817C82.3263 70.8817 82.0848 70.6402 82.0848 70.3423V64.7138C82.0848 64.4159 82.3263 64.1744 82.6242 64.1744Z" fill="#4048F5"/>
<path fill-rule="evenodd" clip-rule="evenodd" d="M64.1696 1.0788H50.4033C49.8075 1.0788 49.3245 1.56179 49.3245 2.15759V15.475C49.3245 16.0709 49.8075 16.5538 50.4033 16.5538H64.1696C64.7654 16.5538 65.2484 16.0709 65.2484 15.475V2.15759C65.2484 1.56179 64.7654 1.0788 64.1696 1.0788ZM50.4033 0C49.2117 0 48.2457 0.965989 48.2457 2.15759V15.475C48.2457 16.6667 49.2117 17.6326 50.4033 17.6326H64.1696C65.3612 17.6326 66.3272 16.6667 66.3272 15.475V2.15759C66.3272 0.965988 65.3612 0 64.1696 0H50.4033Z" fill="#4048F5"/>
<path fill-rule="evenodd" clip-rule="evenodd" d="M57.4791 16.9014C57.777 16.9014 58.0185 17.1429 58.0185 17.4408V28.3343C60.608 29.047 62.3845 29.9639 63.5179 31.2264C64.7257 32.5719 65.1356 34.2325 65.1356 36.2234C65.1356 38.2196 64.6362 40.3106 63.4145 41.9164C62.1764 43.5438 60.2341 44.6208 57.4791 44.6208C54.7491 44.6208 52.8156 43.7171 51.5257 42.0308C50.2629 40.3799 49.6741 38.0504 49.4397 35.311C49.4143 35.0142 49.6344 34.753 49.9312 34.7276C50.228 34.7022 50.4892 34.9223 50.5146 35.2191C50.7433 37.8928 51.3086 39.9713 52.3826 41.3754C53.4295 42.744 55.0154 43.542 57.4791 43.542C59.9176 43.542 61.5339 42.6065 62.556 41.2632C63.5944 39.8983 64.0568 38.0603 64.0568 36.2234C64.0568 34.381 63.6799 33.0218 62.7151 31.947C61.7338 30.8539 60.0772 29.9784 57.3439 29.2708C57.1059 29.2092 56.9397 28.9945 56.9397 28.7487V17.4408C56.9397 17.1429 57.1812 16.9014 57.4791 16.9014Z" fill="#4048F5"/>
</svg>
