<svg width="91" height="120" viewBox="0 0 91 120" fill="none" xmlns="http://www.w3.org/2000/svg">
<path fill-rule="evenodd" clip-rule="evenodd" d="M44.5981 83.4524C66.4002 83.4524 84.0743 65.7783 84.0743 43.9762C84.0743 22.1741 66.4002 4.5 44.5981 4.5C22.796 4.5 5.12195 22.1741 5.12195 43.9762C5.12195 65.7783 22.796 83.4524 44.5981 83.4524ZM44.5981 84.4524C66.9525 84.4524 85.0743 66.3306 85.0743 43.9762C85.0743 21.6218 66.9525 3.5 44.5981 3.5C22.2438 3.5 4.12195 21.6218 4.12195 43.9762C4.12195 66.3306 22.2438 84.4524 44.5981 84.4524Z" fill="#4048F5"/>
<path fill-rule="evenodd" clip-rule="evenodd" d="M43.5488 0.97561C20.3798 0.97561 1.59756 19.7578 1.59756 42.9268C1.59756 61.1919 13.2706 76.7318 29.565 82.4911L29.2399 83.4109C12.5679 77.5182 0.621948 61.6182 0.621948 42.9268C0.621948 19.219 19.8409 0 43.5488 0C67.2566 0 86.4756 19.219 86.4756 42.9268C86.4756 61.2521 73.1659 78.4508 57.3528 83.3924L57.0618 82.4612C72.4683 77.6467 85.5 60.8247 85.5 42.9268C85.5 19.7578 66.7178 0.97561 43.5488 0.97561Z" fill="#4048F5"/>
<path fill-rule="evenodd" clip-rule="evenodd" d="M43.2097 73.8356C60.1182 73.8356 73.8253 60.1286 73.8253 43.2201C73.8253 26.3116 60.1182 12.6045 43.2097 12.6045C26.3012 12.6045 12.5941 26.3116 12.5941 43.2201C12.5941 60.1286 26.3012 73.8356 43.2097 73.8356ZM43.2097 74.8113C60.657 74.8113 74.8009 60.6674 74.8009 43.2201C74.8009 25.7728 60.657 11.6289 43.2097 11.6289C25.7624 11.6289 11.6185 25.7728 11.6185 43.2201C11.6185 60.6674 25.7624 74.8113 43.2097 74.8113Z" fill="#4048F5"/>
<path fill-rule="evenodd" clip-rule="evenodd" d="M43.5255 49.194C46.6506 49.194 49.184 46.6606 49.184 43.5355C49.184 40.4104 46.6506 37.877 43.5255 37.877C40.4004 37.877 37.867 40.4104 37.867 43.5355C37.867 46.6606 40.4004 49.194 43.5255 49.194ZM43.5255 50.1697C47.1894 50.1697 50.1596 47.1995 50.1596 43.5355C50.1596 39.8716 47.1894 36.9014 43.5255 36.9014C39.8616 36.9014 36.8914 39.8716 36.8914 43.5355C36.8914 47.1995 39.8616 50.1697 43.5255 50.1697Z" fill="#4048F5"/>
<path fill-rule="evenodd" clip-rule="evenodd" d="M43.2097 11.7725C43.4791 11.7725 43.6975 11.9909 43.6975 12.2603V21.4217C43.6975 21.6911 43.4791 21.9095 43.2097 21.9095C42.9403 21.9095 42.7219 21.6911 42.7219 21.4217V12.2603C42.7219 11.9909 42.9403 11.7725 43.2097 11.7725Z" fill="#4048F5"/>
<path fill-rule="evenodd" clip-rule="evenodd" d="M43.2097 64.8457C43.4791 64.8457 43.6975 65.0641 43.6975 65.3335V74.4949C43.6975 74.7644 43.4791 74.9828 43.2097 74.9828C42.9403 74.9828 42.7219 74.7644 42.7219 74.4949V65.3335C42.7219 65.0641 42.9403 64.8457 43.2097 64.8457Z" fill="#4048F5"/>
<path fill-rule="evenodd" clip-rule="evenodd" d="M11.6045 43.3784C11.6045 43.109 11.8229 42.8906 12.0923 42.8906H21.2537C21.5231 42.8906 21.7415 43.109 21.7415 43.3784C21.7415 43.6478 21.5231 43.8662 21.2537 43.8662H12.0923C11.8229 43.8662 11.6045 43.6478 11.6045 43.3784Z" fill="#4048F5"/>
<path fill-rule="evenodd" clip-rule="evenodd" d="M64.6776 43.3784C64.6776 43.109 64.8959 42.8906 65.1654 42.8906H74.3268C74.5962 42.8906 74.8146 43.109 74.8146 43.3784C74.8146 43.6478 74.5962 43.8662 74.3268 43.8662H65.1654C64.8959 43.8662 64.6776 43.6478 64.6776 43.3784Z" fill="#4048F5"/>
<path fill-rule="evenodd" clip-rule="evenodd" d="M20.8615 21.0291C21.052 20.8386 21.3608 20.8386 21.5513 21.0291L28.0294 27.5072C28.2199 27.6977 28.2199 28.0066 28.0294 28.1971C27.8389 28.3876 27.5301 28.3876 27.3396 28.1971L20.8615 21.719C20.671 21.5285 20.671 21.2196 20.8615 21.0291Z" fill="#4048F5"/>
<path fill-rule="evenodd" clip-rule="evenodd" d="M58.3898 58.5574C58.5803 58.3669 58.8892 58.3669 59.0797 58.5574L65.5578 65.0355C65.7483 65.226 65.7483 65.5349 65.5578 65.7254C65.3673 65.9159 65.0584 65.9159 64.8679 65.7254L58.3898 59.2473C58.1993 59.0568 58.1993 58.7479 58.3898 58.5574Z" fill="#4048F5"/>
<path fill-rule="evenodd" clip-rule="evenodd" d="M65.5575 21.0285C65.748 21.219 65.748 21.5279 65.5575 21.7184L59.0794 28.1965C58.8889 28.387 58.58 28.387 58.3895 28.1965C58.199 28.006 58.199 27.6971 58.3895 27.5066L64.8677 21.0285C65.0582 20.838 65.367 20.838 65.5575 21.0285Z" fill="#4048F5"/>
<path fill-rule="evenodd" clip-rule="evenodd" d="M28.0292 58.5578C28.2197 58.7483 28.2197 59.0572 28.0292 59.2477L21.5511 65.7258C21.3606 65.9163 21.0517 65.9163 20.8612 65.7258C20.6707 65.5353 20.6707 65.2264 20.8612 65.0359L27.3393 58.5578C27.5298 58.3673 27.8387 58.3673 28.0292 58.5578Z" fill="#4048F5"/>
<path fill-rule="evenodd" clip-rule="evenodd" d="M63.2994 33.2469L49.1179 40.4952C48.878 40.6178 48.5842 40.5227 48.4616 40.2828C48.339 40.043 48.434 39.7491 48.6739 39.6265L62.8899 32.3605C62.9118 32.3494 62.9344 32.3399 62.9577 32.3321C63.5216 32.1441 64.0437 32.152 64.4815 32.3427C64.9184 32.5329 65.2208 32.8836 65.3814 33.285C65.6969 34.0738 65.4837 35.1009 64.6683 35.7124C64.6471 35.7283 64.6247 35.7424 64.6012 35.7546L50.0693 43.3365C49.8305 43.4611 49.5358 43.3685 49.4112 43.1297C49.2866 42.8908 49.3792 42.5962 49.618 42.4716L64.1118 34.9096C64.5355 34.5717 64.6304 34.0346 64.4755 33.6473C64.3991 33.4564 64.2672 33.3134 64.092 33.2372C63.9228 33.1635 63.6655 33.1316 63.2994 33.2469Z" fill="#4048F5"/>
<path fill-rule="evenodd" clip-rule="evenodd" d="M29.3094 79.0605C29.5788 79.0605 29.7972 79.2789 29.7972 79.5484V86.4148C29.7972 87.7618 30.8892 88.8538 32.2362 88.8538H54.4987C55.8457 88.8538 56.9377 87.7618 56.9377 86.4148V79.5484C56.9377 79.2789 57.1561 79.0605 57.4255 79.0605C57.695 79.0605 57.9133 79.2789 57.9133 79.5484V86.4148C57.9133 88.3006 56.3846 89.8294 54.4987 89.8294H32.2362C30.3504 89.8294 28.8216 88.3006 28.8216 86.4148V79.5484C28.8216 79.2789 29.04 79.0605 29.3094 79.0605Z" fill="#4048F5"/>
<path fill-rule="evenodd" clip-rule="evenodd" d="M33.1004 88.8545C33.3698 88.8545 33.5882 89.0729 33.5882 89.3423V99.9997C33.5882 101.347 34.6802 102.439 36.0272 102.439H51.3397C52.6867 102.439 53.7787 101.347 53.7787 99.9997V89.3423C53.7787 89.0729 53.9971 88.8545 54.2665 88.8545C54.5359 88.8545 54.7543 89.0729 54.7543 89.3423V99.9997C54.7543 101.886 53.2255 103.414 51.3397 103.414H36.0272C34.1414 103.414 32.6126 101.886 32.6126 99.9997V89.3423C32.6126 89.0729 32.831 88.8545 33.1004 88.8545Z" fill="#4048F5"/>
<path fill-rule="evenodd" clip-rule="evenodd" d="M0.621948 102.927C0.621948 102.658 0.840346 102.439 1.10975 102.439H89.8902C90.1596 102.439 90.378 102.658 90.378 102.927C90.378 103.197 90.1596 103.415 89.8902 103.415H1.10975C0.840346 103.415 0.621948 103.197 0.621948 102.927Z" fill="#4048F5"/>
<path fill-rule="evenodd" clip-rule="evenodd" d="M0.621948 114.634C0.621948 114.365 0.840346 114.146 1.10975 114.146H89.8902C90.1596 114.146 90.378 114.365 90.378 114.634C90.378 114.904 90.1596 115.122 89.8902 115.122H1.10975C0.840346 115.122 0.621948 114.904 0.621948 114.634Z" fill="#4048F5"/>
<path fill-rule="evenodd" clip-rule="evenodd" d="M6.47559 99.9996C6.47559 98.1137 8.00437 96.585 9.89022 96.585H20.6219C22.5078 96.585 24.0366 98.1137 24.0366 99.9996V102.683H23.061V99.9996C23.061 98.6526 21.969 97.5606 20.6219 97.5606H9.89022C8.54318 97.5606 7.4512 98.6526 7.4512 99.9996V102.683H6.47559V99.9996ZM7.4512 114.634V116.585C7.4512 117.932 8.54318 119.024 9.89022 119.024H20.6219C21.969 119.024 23.061 117.932 23.061 116.585V114.634H24.0366V116.585C24.0366 118.471 22.5078 120 20.6219 120H9.89022C8.00437 120 6.47559 118.471 6.47559 116.585V114.634H7.4512Z" fill="#4048F5"/>
<path fill-rule="evenodd" clip-rule="evenodd" d="M65.9878 99.9996C65.9878 98.1137 67.5166 96.585 69.4024 96.585H80.1341C82.02 96.585 83.5488 98.1137 83.5488 99.9996V102.683H82.5732V99.9996C82.5732 98.6526 81.4812 97.5606 80.1341 97.5606H69.4024C68.0554 97.5606 66.9634 98.6526 66.9634 99.9996V102.683H65.9878V99.9996ZM66.9634 114.634V116.585C66.9634 117.932 68.0554 119.024 69.4024 119.024H80.1341C81.4812 119.024 82.5732 117.932 82.5732 116.585V114.634H83.5488V116.585C83.5488 118.471 82.02 120 80.1341 120H69.4024C67.5166 120 65.9878 118.471 65.9878 116.585V114.634H66.9634Z" fill="#4048F5"/>
</svg>
