<svg width="137" height="103" viewBox="0 0 137 103" fill="none" xmlns="http://www.w3.org/2000/svg">
<path fill-rule="evenodd" clip-rule="evenodd" d="M28.4587 10.9128C16.3091 19.701 9.52739 33.1507 8.7915 47.0441C8.23545 57.5422 11.1316 68.2917 17.7729 77.4733C26.0366 88.8978 38.4218 95.5758 51.4221 96.9442C62.6945 98.1307 74.4267 95.3248 84.3333 88.159C90.2115 83.9072 94.8324 78.5649 98.1203 72.6098L98.9347 73.0595C95.5819 79.132 90.87 84.5789 84.8785 88.9128C74.779 96.218 62.8162 99.0789 51.3248 97.8693C38.0727 96.4744 25.4442 89.666 17.0192 78.0184C10.2487 68.6584 7.29569 57.6976 7.86257 46.9949C8.61269 32.8328 15.5265 19.119 27.9135 10.1591C38.9008 2.21159 52.0931 -0.475485 64.4847 1.61554C71.4306 2.78761 78.1259 5.46096 84.0417 9.55119L83.5127 10.3163C77.711 6.30506 71.1439 3.68262 64.33 2.5328C52.174 0.48155 39.2359 3.11732 28.4587 10.9128Z" fill="#4048F5"/>
<path fill-rule="evenodd" clip-rule="evenodd" d="M30.4253 13.282C19.006 21.542 12.6152 34.1591 11.8966 47.179C11.3537 57.017 14.0495 67.083 20.2625 75.6724C27.9931 86.3599 39.6007 92.5924 51.7971 93.8484C62.3723 94.9374 73.3875 92.2846 82.6987 85.5495C88.2236 81.5532 92.5706 76.5378 95.668 70.9508L96.4816 71.4019C93.3193 77.1058 88.8815 82.2254 83.2439 86.3033C73.7409 93.1771 62.496 95.8853 51.7018 94.7737C39.2538 93.4918 27.4016 87.1294 19.5088 76.2176C13.166 67.4488 10.4136 57.1705 10.9678 47.1277C11.7012 33.8389 18.2247 20.959 29.8801 12.5283C40.2185 5.05019 52.6181 2.50243 64.2565 4.43923C69.0265 5.23305 73.6692 6.78023 77.9903 9.0503C79.6831 9.93962 81.3266 10.9399 82.909 12.0492L82.375 12.8109C80.8253 11.7245 79.2157 10.7448 77.5577 9.87381C73.3254 7.65037 68.7773 6.1346 64.1038 5.35684C52.7012 3.45927 40.5547 5.9551 30.4253 13.282Z" fill="#4048F5"/>
<path fill-rule="evenodd" clip-rule="evenodd" d="M55.9431 59.2996C59.8992 59.2996 63.1063 56.0926 63.1063 52.1364C63.1063 48.1803 59.8992 44.9732 55.9431 44.9732C51.9869 44.9732 48.7799 48.1803 48.7799 52.1364C48.7799 56.0926 51.9869 59.2996 55.9431 59.2996ZM55.9431 60.2299C60.413 60.2299 64.0365 56.6063 64.0365 52.1364C64.0365 47.6665 60.413 44.043 55.9431 44.043C51.4732 44.043 47.8496 47.6665 47.8496 52.1364C47.8496 56.6063 51.4732 60.2299 55.9431 60.2299Z" fill="#4048F5"/>
<path fill-rule="evenodd" clip-rule="evenodd" d="M55.9431 59.2996C59.8992 59.2996 63.1063 56.0926 63.1063 52.1364C63.1063 48.1803 59.8992 44.9732 55.9431 44.9732C51.9869 44.9732 48.7799 48.1803 48.7799 52.1364C48.7799 56.0926 51.9869 59.2996 55.9431 59.2996ZM55.9431 60.2299C60.413 60.2299 64.0365 56.6063 64.0365 52.1364C64.0365 47.6665 60.413 44.043 55.9431 44.043C51.4732 44.043 47.8496 47.6665 47.8496 52.1364C47.8496 56.6063 51.4732 60.2299 55.9431 60.2299Z" fill="#4048F5"/>
<path fill-rule="evenodd" clip-rule="evenodd" d="M55.9431 59.2996C59.8992 59.2996 63.1063 56.0926 63.1063 52.1364C63.1063 48.1803 59.8992 44.9732 55.9431 44.9732C51.9869 44.9732 48.7799 48.1803 48.7799 52.1364C48.7799 56.0926 51.9869 59.2996 55.9431 59.2996ZM55.9431 60.2299C60.413 60.2299 64.0365 56.6063 64.0365 52.1364C64.0365 47.6665 60.413 44.043 55.9431 44.043C51.4732 44.043 47.8496 47.6665 47.8496 52.1364C47.8496 56.6063 51.4732 60.2299 55.9431 60.2299Z" fill="#4048F5"/>
<path fill-rule="evenodd" clip-rule="evenodd" d="M55.9431 57.7812C59.0611 57.7812 61.5888 55.2535 61.5888 52.1355C61.5888 49.0175 59.0611 46.4898 55.9431 46.4898C52.8251 46.4898 50.2974 49.0175 50.2974 52.1355C50.2974 55.2535 52.8251 57.7812 55.9431 57.7812ZM55.9431 58.7114C59.5749 58.7114 62.519 55.7673 62.519 52.1355C62.519 48.5037 59.5749 45.5596 55.9431 45.5596C52.3113 45.5596 49.3672 48.5037 49.3672 52.1355C49.3672 55.7673 52.3113 58.7114 55.9431 58.7114Z" fill="#4048F5"/>
<path fill-rule="evenodd" clip-rule="evenodd" d="M46.0553 26.8171L52.3364 45.1579C52.4196 45.401 52.2901 45.6654 52.0471 45.7487C51.8041 45.8319 51.5396 45.7024 51.4564 45.4593L45.1333 26.9961C45.1061 26.9167 45.101 26.8314 45.1183 26.7492C46.5553 19.9558 51.4326 17.009 56.159 17.2753C60.8562 17.5399 65.3563 20.9853 66.0162 26.7929C66.0234 26.8557 66.0176 26.9192 65.9994 26.9797L60.4352 45.4429C60.361 45.6888 60.1016 45.8281 59.8556 45.754C59.6097 45.6799 59.4704 45.4204 59.5445 45.1744L65.0809 26.8038C64.4388 21.5393 60.3627 18.4438 56.1066 18.2041C51.8822 17.9661 47.4323 20.5482 46.0553 26.8171Z" fill="#4048F5"/>
<path fill-rule="evenodd" clip-rule="evenodd" d="M82.3154 58.7002L63.731 53.1812C63.4848 53.1081 63.3444 52.8492 63.4176 52.6029C63.4907 52.3567 63.7496 52.2163 63.9959 52.2895L82.7042 57.8453C82.7847 57.8692 82.8572 57.9145 82.9141 57.9763C87.6152 63.0865 87.1875 68.7689 84.2297 72.4649C81.2901 76.1382 75.8735 77.8063 70.7595 74.976C70.7043 74.9454 70.6558 74.9039 70.6171 74.854L58.8024 59.6139C58.645 59.4109 58.682 59.1187 58.885 58.9613C59.088 58.8039 59.3801 58.8409 59.5375 59.0439L71.2931 74.2076C75.9543 76.7375 80.8399 75.212 83.5034 71.8836C86.1471 68.5801 86.624 63.4575 82.3154 58.7002Z" fill="#4048F5"/>
<path fill-rule="evenodd" clip-rule="evenodd" d="M29.2334 58.7002L47.8178 53.1812C48.0641 53.1081 48.2044 52.8492 48.1313 52.6029C48.0582 52.3567 47.7993 52.2163 47.553 52.2895L28.8447 57.8453C28.7642 57.8692 28.6916 57.9145 28.6348 57.9763C23.9336 63.0865 24.3614 68.7689 27.3192 72.4649C30.2588 76.1382 35.6754 77.8063 40.7894 74.976C40.8446 74.9454 40.8931 74.9039 40.9317 74.854L52.7465 59.6139C52.9039 59.4109 52.8669 59.1187 52.6639 58.9613C52.4609 58.8039 52.1687 58.8409 52.0113 59.0439L40.2558 74.2076C35.5946 76.7375 30.709 75.212 28.0455 71.8836C25.4018 68.5801 24.9249 63.4575 29.2334 58.7002Z" fill="#4048F5"/>
<path fill-rule="evenodd" clip-rule="evenodd" d="M90.8868 53.1485C90.8868 59.4718 95.2342 63.7303 100.71 63.7305C103.173 63.7305 105.828 63.0845 107.924 61.5428C110.09 59.9484 111.545 57.4667 111.545 54.1602C111.545 51.0744 110.116 48.6682 108.494 46.9805C106.89 45.3111 104.998 44.2301 103.723 43.7201C103.488 43.6264 103.239 43.5783 102.986 43.5783H74.1534C73.0584 43.5783 72.1707 44.4659 72.1707 45.5609C72.1707 46.6559 73.0584 47.5436 74.1534 47.5436H102.578C103.422 47.9346 104.621 48.6721 105.635 49.7277C106.774 50.9133 107.58 52.3852 107.58 54.1602C107.58 56.1654 106.758 57.4775 105.573 58.349C104.317 59.2733 102.547 59.7652 100.71 59.7652C99.1282 59.7651 97.6713 59.1744 96.609 58.0682C95.5478 56.9633 94.8521 55.314 94.8521 53.1485C94.8521 52.0536 93.9645 51.1659 92.8695 51.1659C91.7745 51.1659 90.8868 52.0536 90.8868 53.1485ZM100.71 62.8002C95.7874 62.8001 91.8171 58.9985 91.8171 53.1485C91.8171 52.5673 92.2883 52.0961 92.8695 52.0961C93.4507 52.0961 93.9219 52.5673 93.9219 53.1485C93.9219 55.5192 94.6877 57.4107 95.938 58.7126C97.1872 60.0133 98.8919 60.6954 100.71 60.6954C102.694 60.6955 104.672 60.1673 106.125 59.0982C107.54 58.057 108.51 56.4704 108.51 54.1602C108.51 52.0783 107.559 50.3872 106.306 49.0832C105.158 47.8883 103.804 47.0726 102.868 46.6539C102.809 46.6271 102.744 46.6133 102.678 46.6133H74.1534C73.5721 46.6133 73.101 46.1422 73.101 45.5609C73.101 44.9797 73.5721 44.5085 74.1534 44.5085H102.986C103.12 44.5085 103.253 44.5341 103.377 44.5838C104.548 45.0523 106.324 46.0647 107.824 47.625C109.332 49.1953 110.615 51.3824 110.615 54.1602C110.615 57.1613 109.309 59.3686 107.372 60.7935C105.474 62.1903 103.026 62.8003 100.71 62.8002Z" fill="#4048F5"/>
<path fill-rule="evenodd" clip-rule="evenodd" d="M90.8868 19.7626C90.8868 13.4393 95.2342 9.18082 100.71 9.18066C103.173 9.1806 105.828 9.82663 107.924 11.3684C110.09 12.9628 111.545 15.4444 111.545 18.7509C111.545 21.8368 110.116 24.2429 108.494 25.9306C106.89 27.6 104.998 28.681 103.723 29.191C103.488 29.2847 103.239 29.3328 102.986 29.3328H74.1534C73.0584 29.3328 72.1707 28.4452 72.1707 27.3502C72.1707 26.2552 73.0584 25.3676 74.1534 25.3676H102.578C103.422 24.9765 104.621 24.239 105.635 23.1834C106.774 21.9978 107.58 20.5259 107.58 18.7509C107.58 16.7458 106.758 15.4336 105.573 14.5622C104.317 13.6378 102.547 13.1459 100.71 13.1459C99.1282 13.146 97.6713 13.7367 96.609 14.8429C95.5478 15.9479 94.8521 17.5972 94.8521 19.7626C94.8521 20.8576 93.9645 21.7452 92.8695 21.7452C91.7745 21.7452 90.8868 20.8576 90.8868 19.7626ZM100.71 10.1109C95.7874 10.111 91.8171 13.9127 91.8171 19.7626C91.8171 20.3438 92.2883 20.815 92.8695 20.815C93.4507 20.815 93.9219 20.3438 93.9219 19.7626C93.9219 17.392 94.6877 15.5004 95.938 14.1986C97.1872 12.8979 98.8919 12.2158 100.71 12.2157C102.694 12.2157 104.672 12.7439 106.125 13.8129C107.54 14.8541 108.51 16.4407 108.51 18.7509C108.51 20.8328 107.559 22.5239 106.306 23.8279C105.158 25.0228 103.804 25.8385 102.868 26.2573C102.809 26.284 102.744 26.2978 102.678 26.2978H74.1534C73.5721 26.2978 73.101 26.769 73.101 27.3502C73.101 27.9314 73.5721 28.4026 74.1534 28.4026H102.986C103.12 28.4026 103.253 28.3771 103.377 28.3273C104.548 27.8588 106.324 26.8464 107.824 25.2861C109.332 23.7158 110.615 21.5288 110.615 18.7509C110.615 15.7499 109.309 13.5425 107.372 12.1176C105.474 10.7208 103.026 10.1108 100.71 10.1109Z" fill="#4048F5"/>
<path fill-rule="evenodd" clip-rule="evenodd" d="M111.12 29.3739C111.12 23.0506 115.468 18.7921 120.944 18.792C123.406 18.7919 126.062 19.438 128.157 20.9797C130.324 22.5741 131.778 25.0558 131.778 28.3622C131.778 31.4481 130.349 33.8542 128.728 35.542C127.124 37.2114 125.231 38.2923 123.956 38.8024C123.722 38.896 123.472 38.9442 123.22 38.9442H74.1534C73.0584 38.9442 72.1707 38.0565 72.1707 36.9615C72.1707 35.8666 73.0584 34.9789 74.1534 34.9789H122.811C123.656 34.5878 124.854 33.8503 125.869 32.7947C127.008 31.6092 127.813 30.1372 127.813 28.3622C127.813 26.3571 126.991 25.0449 125.807 24.1735C124.551 23.2491 122.78 22.7572 120.944 22.7573C119.362 22.7573 117.905 23.3481 116.843 24.4542C115.781 25.5592 115.086 27.2085 115.086 29.3739C115.086 30.4689 114.198 31.3566 113.103 31.3566C112.008 31.3566 111.12 30.4689 111.12 29.3739ZM120.944 19.7222C116.021 19.7224 112.051 23.524 112.051 29.3739C112.051 29.9552 112.522 30.4263 113.103 30.4263C113.684 30.4263 114.156 29.9552 114.156 29.3739C114.156 27.0033 114.921 25.1118 116.172 23.8099C117.421 22.5092 119.125 21.8271 120.944 21.827C122.928 21.827 124.906 22.3552 126.358 23.4242C127.773 24.4654 128.743 26.052 128.743 28.3622C128.743 30.4441 127.792 32.1353 126.539 33.4392C125.391 34.6341 124.038 35.4499 123.102 35.8686C123.042 35.8953 122.978 35.9091 122.912 35.9091H74.1534C73.5721 35.9091 73.101 36.3803 73.101 36.9615C73.101 37.5428 73.5721 38.0139 74.1534 38.0139H123.22C123.354 38.0139 123.486 37.9884 123.611 37.9387C124.782 37.4701 126.558 36.4578 128.057 34.8975C129.566 33.3271 130.848 31.1401 130.848 28.3622C130.848 25.3612 129.542 23.1538 127.606 21.7289C125.708 20.3322 123.26 19.7222 120.944 19.7222Z" fill="#4048F5"/>
</svg>
