<svg width="93" height="80" viewBox="0 0 93 80" fill="none" xmlns="http://www.w3.org/2000/svg">
<path fill-rule="evenodd" clip-rule="evenodd" d="M40.7523 0.765651C28.4105 0.765651 17.3998 6.46383 10.207 15.3744C4.77197 22.1073 1.51797 30.6731 1.51797 40C1.51797 51.6053 6.55625 62.0334 14.5661 69.2172C21.5112 75.4461 30.6889 79.2344 40.7523 79.2344C46.7235 79.2344 52.3822 77.9007 57.4476 75.5153L57.7738 76.208C52.6085 78.6404 46.8387 80 40.7523 80C30.493 80 21.135 76.1371 14.0548 69.7871C5.88996 62.4643 0.752319 51.8319 0.752319 40C0.752319 30.4918 4.07028 21.7576 9.6112 14.8934C16.9431 5.81058 28.1693 0 40.7523 0C51.9135 0 62.0076 4.57179 69.263 11.9439C74.751 17.5203 78.6159 24.7 80.0908 32.7169L81.5775 30.6624C81.7014 30.4911 81.9407 30.4527 82.112 30.5766C82.2833 30.7006 82.3217 30.9399 82.1978 31.1112L80.178 33.9025C80.054 34.0738 79.8147 34.1122 79.6434 33.9883L76.8521 31.9685C76.6808 31.8445 76.6424 31.6052 76.7664 31.4339C76.8903 31.2626 77.1296 31.2242 77.3009 31.3482L79.3307 32.8169C77.879 24.9704 74.0922 17.9425 68.7172 12.481C61.6 5.24907 51.7001 0.765651 40.7523 0.765651Z" fill="#4048F5"/>
<path fill-rule="evenodd" clip-rule="evenodd" d="M40.9208 3.29495C29.3208 3.29495 18.9724 8.6264 12.2126 16.9628C7.10474 23.2618 4.04684 31.2752 4.04684 40.0005C4.04684 50.8572 8.78147 60.613 16.3093 67.334C22.8366 73.1616 31.4623 76.7061 40.9208 76.7061C46.5331 76.7061 51.8515 75.4583 56.6123 73.2265L56.9373 73.9198C52.0769 76.1983 46.6477 77.4718 40.9208 77.4718C31.2674 77.4718 22.4618 73.8535 15.7994 67.9051C8.1162 61.0454 3.28119 51.085 3.28119 40.0005C3.28119 31.093 6.40369 22.9107 11.6179 16.4805C18.5173 7.972 29.081 2.5293 40.9208 2.5293C51.4228 2.5293 60.9212 6.81164 67.7484 13.7175C70.5467 16.5479 72.8965 19.8193 74.6832 23.4177C75.3831 24.8273 75.9966 26.2872 76.5168 27.7904L75.7932 28.0407C75.2838 26.5686 74.683 25.1389 73.9974 23.7582C72.2474 20.2337 69.9455 17.0289 67.204 14.2558C60.515 7.48982 51.2105 3.29495 40.9208 3.29495Z" fill="#4048F5"/>
<path fill-rule="evenodd" clip-rule="evenodd" d="M40.3694 15.9765C40.3694 14.6012 41.4842 13.4863 42.8595 13.4863C44.2348 13.4863 45.3496 14.6012 45.3496 15.9765V37.8923H44.584V15.9765C44.584 15.0241 43.8119 14.252 42.8595 14.252C41.9071 14.252 41.135 15.0241 41.135 15.9765V37.4709H40.3694V15.9765Z" fill="#4048F5"/>
<path fill-rule="evenodd" clip-rule="evenodd" d="M29.9682 54.9C28.7421 55.8802 26.9535 55.6808 25.9733 54.4546C24.9932 53.2285 25.1926 51.4399 26.4187 50.4598L38.4047 40.8784L38.8828 41.4764L26.8968 51.0578C26.001 51.7739 25.8553 53.0807 26.5714 53.9766C27.2875 54.8724 28.5943 55.0181 29.4901 54.302L36.7176 48.5245L41.7726 44.3414L42.2607 44.9312L37.1982 49.1205L29.9682 54.9Z" fill="#4048F5"/>
<path fill-rule="evenodd" clip-rule="evenodd" d="M42.4383 44.2924C44.3431 44.2924 45.8873 42.7483 45.8873 40.8435C45.8873 38.9387 44.3431 37.3946 42.4383 37.3946C40.5336 37.3946 38.9894 38.9387 38.9894 40.8435C38.9894 42.7483 40.5336 44.2924 42.4383 44.2924ZM42.4383 45.0581C44.766 45.0581 46.6529 43.1712 46.6529 40.8435C46.6529 38.5158 44.766 36.6289 42.4383 36.6289C40.1107 36.6289 38.2238 38.5158 38.2238 40.8435C38.2238 43.1712 40.1107 45.0581 42.4383 45.0581Z" fill="#4048F5"/>
<path fill-rule="evenodd" clip-rule="evenodd" d="M87.4015 62.9732C89.012 61.833 90.2266 60.3117 91.0423 58.4305C91.8491 56.5699 92.2476 54.5512 92.2476 52.3855C92.2476 49.0039 91.4217 46.2088 89.6795 44.0951L89.6746 44.089C87.9152 41.9933 85.5377 40.9619 82.6374 40.9619C80.8988 40.9619 79.3142 41.3384 77.9048 42.1115C76.5641 42.8468 75.4223 43.7211 74.492 44.7403C73.7534 45.5475 72.921 46.5644 71.9959 47.7862C70.7841 46.1629 69.8125 44.3453 68.4584 43.3772L68.453 43.3734L68.4475 43.3696C66.7797 42.2157 64.8394 41.6511 62.6614 41.6511C60.6343 41.6511 58.8485 42.1391 57.346 43.1556L57.3419 43.1584C55.8362 44.1897 54.38 46.0798 53.5954 47.7857C52.8181 49.4759 52.4338 51.3092 52.4338 53.2736C52.4338 56.3557 53.2507 58.8773 54.9888 60.7194C56.7058 62.5391 58.8912 63.4433 61.4777 63.4433C63.6309 63.4433 65.557 62.8561 67.2232 61.6649C68.5705 60.7017 69.9085 59.4018 71.2404 57.782C72.1675 59.1834 73.0254 60.3332 73.8137 61.2221C74.8079 62.343 75.928 63.2014 77.1759 63.7788C78.4464 64.4017 79.9151 64.6971 81.5562 64.6971C83.7654 64.6971 85.7236 64.1342 87.3939 62.9785L87.4015 62.9732ZM71.8064 57.0741C72.7762 58.5564 73.6579 59.7449 74.4515 60.6397C75.3782 61.6845 76.4079 62.4681 77.5405 62.9905C78.6732 63.5478 80.0117 63.8264 81.5562 63.8264C83.6156 63.8264 85.4003 63.304 86.9105 62.2592C88.3864 61.2143 89.5019 59.8212 90.2569 58.0798C91.012 56.3384 91.3896 54.4403 91.3896 52.3855C91.3896 49.1465 90.6002 46.5692 89.0213 44.6537C87.4425 42.773 85.3145 41.8326 82.6374 41.8326C81.0242 41.8326 79.5827 42.1809 78.3128 42.8774C77.0429 43.574 75.9789 44.3925 75.1208 45.3328C74.3657 46.158 73.4999 47.2202 72.5236 48.5192C72.3461 48.7553 72.1651 48.9992 71.9803 49.2509C71.8068 48.9957 71.6322 48.7479 71.4565 48.5076C70.242 46.8467 69.2835 45.0322 67.9642 44.089C66.454 43.0442 64.6864 42.5218 62.6614 42.5218C60.7736 42.5218 59.1605 42.9745 57.8219 43.8801C56.449 44.8204 55.0938 46.5866 54.373 48.1539C53.6522 49.7211 53.2918 51.4277 53.2918 53.2736C53.2918 56.1991 54.0641 58.4803 55.6086 60.1172C57.1531 61.7541 59.1095 62.5726 61.4777 62.5726C63.4684 62.5726 65.2188 62.0328 66.729 60.9531C68.055 60.0052 69.3941 58.6948 70.7465 57.0219C70.9344 56.7895 71.1226 56.55 71.311 56.3036C71.4786 56.5687 71.6437 56.8255 71.8064 57.0741ZM65.7844 56.6276C64.889 57.243 63.761 57.5748 62.3529 57.5748C60.6132 57.5748 59.422 57.0469 58.6297 56.1042C57.7799 55.0933 57.3419 53.8541 57.3419 52.3332C57.3419 50.7542 57.7192 49.7311 58.3226 49.0995C58.9212 48.4729 59.8836 48.0842 61.3747 48.0842C62.8266 48.0842 64.0505 48.5382 65.0894 49.4419C66.1112 50.3305 67.3264 51.8091 68.734 53.9241C67.6054 55.1683 66.6246 56.0592 65.7897 56.624L65.7844 56.6276ZM69.818 54.0049C68.2392 51.567 66.8491 49.8256 65.6479 48.7808C64.4466 47.7359 63.0222 47.2135 61.3747 47.2135C58.1141 47.2135 56.4838 48.9201 56.4838 52.3332C56.4838 54.0398 56.9815 55.4851 57.9768 56.6693C58.9722 57.8534 60.4309 58.4455 62.3529 58.4455C63.8974 58.4455 65.2017 58.0798 66.2657 57.3484C67.2953 56.6519 68.4794 55.5374 69.818 54.0049ZM86.1082 57.2971C85.2815 58.108 84.0788 58.5674 82.38 58.5674C81.2953 58.5674 80.3704 58.348 79.583 57.9337C78.7939 57.5186 78.0095 56.8304 77.2408 55.8228L77.2314 55.8104L77.2215 55.7984C76.43 54.8346 75.4942 53.4379 74.4133 51.5888C75.6766 50.0781 76.8026 48.9662 77.7914 48.2284L77.7964 48.2248L77.8013 48.221C78.7558 47.4872 79.9873 47.0916 81.5562 47.0916C83.4557 47.0916 84.832 47.6825 85.8041 48.7826C86.8023 49.9468 87.3395 51.5192 87.3395 53.587C87.3395 55.355 86.8822 56.5387 86.1082 57.2971ZM73.3704 51.4973L73.5763 51.863C74.7089 53.8134 75.7043 55.311 76.5623 56.3558C77.3861 57.4355 78.2613 58.2191 79.188 58.7067C80.1147 59.1943 81.1787 59.4381 82.38 59.4381C84.2334 59.4381 85.6749 58.9331 86.7046 57.9231C87.6999 56.9479 88.1976 55.5025 88.1976 53.587C88.1976 51.358 87.6141 49.5644 86.4472 48.2061C85.2802 46.8827 83.6499 46.2209 81.5562 46.2209C79.8401 46.2209 78.4158 46.6563 77.2831 47.527C76.1162 48.3977 74.8119 49.7211 73.3704 51.4973Z" fill="#4048F5"/>
</svg>
