<svg width="121" height="120" viewBox="0 0 121 120" fill="none" xmlns="http://www.w3.org/2000/svg">
<path fill-rule="evenodd" clip-rule="evenodd" d="M59.8649 82.4754C39.8419 82.4754 23.6101 98.7072 23.6101 118.73H22.4384C22.4384 98.0601 39.1948 81.3037 59.8649 81.3037C80.535 81.3037 97.2914 98.0601 97.2914 118.73H96.1197C96.1197 98.7072 79.8878 82.4754 59.8649 82.4754Z" fill="#4048F5"/>
<mask id="path-2-inside-1_153_2854" fill="white">
<path fill-rule="evenodd" clip-rule="evenodd" d="M60.3582 59.0225C53.0797 59.0225 47.0912 64.5455 46.3553 71.6291C43.1504 72.4681 39.7369 73.9214 36.864 75.7047C31.333 71.1164 23.1146 71.4137 17.9318 76.5963L17.7318 76.7963C12.5634 81.9645 12.2534 90.1513 16.8017 95.6816C14.8415 98.3957 12.8589 101.295 12.3699 105.267C5.47668 106.18 0.157593 112.08 0.157593 119.223V119.506C0.157593 119.671 0.160448 119.836 0.166112 120H4.19428C4.18491 119.836 4.18015 119.671 4.18015 119.506V119.223C4.18015 113.669 8.68256 109.167 14.2366 109.167H15.7345V108.53C16.0718 108.171 16.2784 107.687 16.2784 107.155C16.2784 103.34 17.9567 100.995 20.3046 97.7164L20.3049 97.716C20.6725 97.2026 21.0569 96.6656 21.4535 96.0971C22.089 95.1861 21.8656 93.9324 20.9545 93.297C20.5894 93.0423 20.1693 92.9256 19.756 92.9358C16.6711 88.9901 16.9445 83.2721 20.5762 79.6406L20.7761 79.4406C24.4078 75.8091 30.1261 75.5357 34.0719 78.6206C34.0612 79.0571 34.192 79.5 34.4745 79.8762C35.1416 80.7643 36.4024 80.9435 37.2906 80.2764C40.4951 77.8695 41.4444 77.4321 43.7392 76.3749C44.4612 76.0422 45.3164 75.6482 46.417 75.1122C47.2833 74.5582 48.7537 73.888 49.6156 73.4952C50.0291 73.3067 50.3025 73.1821 50.3018 73.1648V73.101C50.3018 67.5472 54.8042 63.0449 60.3582 63.0449H60.6411C66.1951 63.0449 70.6974 67.5471 70.6974 73.101V74.5989H71.2248C71.4761 74.8744 71.8069 75.0834 72.1941 75.1861C76.1869 76.2455 80.3447 78.1025 83.8251 80.3564C84.7575 80.9602 86.0028 80.6939 86.6066 79.7615C86.8349 79.4091 86.9387 79.0119 86.9293 78.6216C90.8751 75.5359 96.594 75.809 100.226 79.4409L100.426 79.6409C104.057 83.2723 104.331 88.9901 101.246 92.9357C100.877 92.9263 100.501 93.0183 100.161 93.2226C99.2092 93.7946 98.9011 95.0302 99.4732 95.9824C100.806 98.2 102.124 100.834 103.107 103.078C103.598 104.199 103.994 105.198 104.264 105.979C104.399 106.371 104.494 106.686 104.554 106.922C104.592 107.074 104.606 107.156 104.61 107.184L104.611 107.184L104.613 107.196C104.624 107.767 104.873 108.28 105.266 108.639V109.166H106.593L106.623 109.166L106.654 109.166H106.764C112.318 109.166 116.82 113.668 116.82 119.222V119.505C116.82 119.671 116.816 119.836 116.808 120H120.834C120.84 119.836 120.843 119.671 120.843 119.505V119.222C120.843 111.949 115.326 105.963 108.249 105.221C108.193 105.042 108.132 104.857 108.067 104.668C107.751 103.753 107.311 102.649 106.791 101.464C106.027 99.719 105.069 97.7449 104.043 95.87C108.755 90.3386 108.498 82.0237 103.27 76.7966L103.07 76.5966C97.8586 71.385 89.5774 71.1135 84.0458 75.7821C81.1095 74.0981 77.8691 72.686 74.6517 71.705C73.9508 64.585 67.9456 59.0225 60.6411 59.0225H60.3582Z"/>
</mask>
<path fill-rule="evenodd" clip-rule="evenodd" d="M60.3582 59.0225C53.0797 59.0225 47.0912 64.5455 46.3553 71.6291C43.1504 72.4681 39.7369 73.9214 36.864 75.7047C31.333 71.1164 23.1146 71.4137 17.9318 76.5963L17.7318 76.7963C12.5634 81.9645 12.2534 90.1513 16.8017 95.6816C14.8415 98.3957 12.8589 101.295 12.3699 105.267C5.47668 106.18 0.157593 112.08 0.157593 119.223V119.506C0.157593 119.671 0.160448 119.836 0.166112 120H4.19428C4.18491 119.836 4.18015 119.671 4.18015 119.506V119.223C4.18015 113.669 8.68256 109.167 14.2366 109.167H15.7345V108.53C16.0718 108.171 16.2784 107.687 16.2784 107.155C16.2784 103.34 17.9567 100.995 20.3046 97.7164L20.3049 97.716C20.6725 97.2026 21.0569 96.6656 21.4535 96.0971C22.089 95.1861 21.8656 93.9324 20.9545 93.297C20.5894 93.0423 20.1693 92.9256 19.756 92.9358C16.6711 88.9901 16.9445 83.2721 20.5762 79.6406L20.7761 79.4406C24.4078 75.8091 30.1261 75.5357 34.0719 78.6206C34.0612 79.0571 34.192 79.5 34.4745 79.8762C35.1416 80.7643 36.4024 80.9435 37.2906 80.2764C40.4951 77.8695 41.4444 77.4321 43.7392 76.3749C44.4612 76.0422 45.3164 75.6482 46.417 75.1122C47.2833 74.5582 48.7537 73.888 49.6156 73.4952C50.0291 73.3067 50.3025 73.1821 50.3018 73.1648V73.101C50.3018 67.5472 54.8042 63.0449 60.3582 63.0449H60.6411C66.1951 63.0449 70.6974 67.5471 70.6974 73.101V74.5989H71.2248C71.4761 74.8744 71.8069 75.0834 72.1941 75.1861C76.1869 76.2455 80.3447 78.1025 83.8251 80.3564C84.7575 80.9602 86.0028 80.6939 86.6066 79.7615C86.8349 79.4091 86.9387 79.0119 86.9293 78.6216C90.8751 75.5359 96.594 75.809 100.226 79.4409L100.426 79.6409C104.057 83.2723 104.331 88.9901 101.246 92.9357C100.877 92.9263 100.501 93.0183 100.161 93.2226C99.2092 93.7946 98.9011 95.0302 99.4732 95.9824C100.806 98.2 102.124 100.834 103.107 103.078C103.598 104.199 103.994 105.198 104.264 105.979C104.399 106.371 104.494 106.686 104.554 106.922C104.592 107.074 104.606 107.156 104.61 107.184L104.611 107.184L104.613 107.196C104.624 107.767 104.873 108.28 105.266 108.639V109.166H106.593L106.623 109.166L106.654 109.166H106.764C112.318 109.166 116.82 113.668 116.82 119.222V119.505C116.82 119.671 116.816 119.836 116.808 120H120.834C120.84 119.836 120.843 119.671 120.843 119.505V119.222C120.843 111.949 115.326 105.963 108.249 105.221C108.193 105.042 108.132 104.857 108.067 104.668C107.751 103.753 107.311 102.649 106.791 101.464C106.027 99.719 105.069 97.7449 104.043 95.87C108.755 90.3386 108.498 82.0237 103.27 76.7966L103.07 76.5966C97.8586 71.385 89.5774 71.1135 84.0458 75.7821C81.1095 74.0981 77.8691 72.686 74.6517 71.705C73.9508 64.585 67.9456 59.0225 60.6411 59.0225H60.3582Z" fill="white"/>
<path d="M46.3553 71.6291L46.6086 72.5965L47.2784 72.4211L47.3499 71.7324L46.3553 71.6291ZM36.864 75.7047L36.2255 76.4743L36.7797 76.934L37.3914 76.5543L36.864 75.7047ZM17.9318 76.5963L18.6389 77.3035H18.6389L17.9318 76.5963ZM17.7318 76.7963L17.0247 76.0892H17.0247L17.7318 76.7963ZM16.8017 95.6816L17.6124 96.2671L18.0639 95.6419L17.5741 95.0464L16.8017 95.6816ZM12.3699 105.267L12.5012 106.258L13.2679 106.157L13.3624 105.389L12.3699 105.267ZM0.166112 120L-0.833293 120.034L-0.799968 121H0.166112V120ZM4.19428 120V121H5.25295L5.19266 119.943L4.19428 120ZM15.7345 109.167V110.167H16.7345V109.167H15.7345ZM15.7345 108.53L15.0051 107.846L14.7345 108.135V108.53H15.7345ZM20.3046 97.7164L21.1176 98.2986L21.121 98.2939L20.3046 97.7164ZM20.3049 97.716L19.4918 97.1338L19.4885 97.1385L20.3049 97.716ZM21.4535 96.0971L20.6333 95.525L21.4535 96.0971ZM20.9545 93.297L20.3824 94.1172L20.3824 94.1172L20.9545 93.297ZM19.756 92.9358L18.9682 93.5517L19.2779 93.9478L19.7806 93.9355L19.756 92.9358ZM20.5762 79.6406L21.2832 80.3477L21.2833 80.3477L20.5762 79.6406ZM20.7761 79.4406L20.069 78.7335L20.069 78.7335L20.7761 79.4406ZM34.0719 78.6206L35.0716 78.645L35.0838 78.1425L34.6878 77.8328L34.0719 78.6206ZM34.4745 79.8762L35.2741 79.2756L35.2741 79.2756L34.4745 79.8762ZM37.2906 80.2764L37.8911 81.076H37.8911L37.2906 80.2764ZM43.7392 76.3749L43.3207 75.4666L43.3207 75.4666L43.7392 76.3749ZM46.417 75.1122L46.8549 76.0112L46.907 75.9858L46.9558 75.9546L46.417 75.1122ZM49.6156 73.4952L50.0303 74.4051L50.0303 74.4051L49.6156 73.4952ZM50.3018 73.1648H49.3018V73.1847L49.3026 73.2045L50.3018 73.1648ZM70.6974 74.5989H69.6974V75.5989H70.6974V74.5989ZM71.2248 74.5989L71.9637 73.9251L71.6663 73.5989H71.2248V74.5989ZM72.1941 75.1861L72.4506 74.2196L72.4506 74.2196L72.1941 75.1861ZM83.8251 80.3564L84.3687 79.517L84.3687 79.517L83.8251 80.3564ZM86.6066 79.7615L85.7673 79.2179V79.2179L86.6066 79.7615ZM86.9293 78.6216L86.3133 77.8339L85.9175 78.1434L85.9296 78.6457L86.9293 78.6216ZM100.226 79.4409L100.933 78.7338L100.933 78.7338L100.226 79.4409ZM100.426 79.6409L99.7188 80.348L99.7189 80.348L100.426 79.6409ZM101.246 92.9357L101.221 93.9354L101.724 93.9481L102.034 93.5516L101.246 92.9357ZM100.161 93.2226L99.6463 92.3654L99.6463 92.3654L100.161 93.2226ZM99.4732 95.9824L100.33 95.4673L99.4732 95.9824ZM103.107 103.078L104.023 102.677V102.677L103.107 103.078ZM104.264 105.979L105.209 105.653V105.653L104.264 105.979ZM104.554 106.922L103.584 107.166V107.166L104.554 106.922ZM104.61 107.184L105.602 107.052L105.599 107.035L105.597 107.018L104.61 107.184ZM104.611 107.184L103.619 107.317L103.623 107.343L103.628 107.37L104.611 107.184ZM104.613 107.196L105.612 107.176L105.611 107.092L105.595 107.01L104.613 107.196ZM105.266 108.639H106.266V108.199L105.941 107.901L105.266 108.639ZM105.266 109.166H104.266V110.166H105.266V109.166ZM106.593 109.166L106.601 108.166H106.593V109.166ZM106.623 109.166L106.616 110.166L106.623 110.166L106.631 110.166L106.623 109.166ZM106.654 109.166V108.166L106.646 108.166L106.654 109.166ZM116.808 120L115.809 119.952L115.758 121H116.808V120ZM120.834 120V121H121.8L121.833 120.035L120.834 120ZM108.249 105.221L107.295 105.521L107.492 106.147L108.145 106.216L108.249 105.221ZM108.067 104.668L109.012 104.342L108.067 104.668ZM106.791 101.464L105.875 101.865V101.865L106.791 101.464ZM104.043 95.87L103.282 95.2215L102.835 95.7458L103.166 96.35L104.043 95.87ZM103.27 76.7966L103.977 76.0895L103.977 76.0894L103.27 76.7966ZM103.07 76.5966L102.363 77.3037L102.363 77.3037L103.07 76.5966ZM84.0458 75.7821L83.5483 76.6496L84.1557 76.9979L84.6908 76.5463L84.0458 75.7821ZM74.6517 71.705L73.6565 71.8029L73.7218 72.4669L74.36 72.6615L74.6517 71.705ZM47.3499 71.7324C48.0335 65.1531 53.5973 60.0225 60.3582 60.0225V58.0225C52.5621 58.0225 46.149 63.9379 45.3606 71.5257L47.3499 71.7324ZM37.3914 76.5543C40.1781 74.8245 43.4991 73.4106 46.6086 72.5965L46.102 70.6617C42.8017 71.5257 39.2956 73.0183 36.3366 74.855L37.3914 76.5543ZM18.6389 77.3035C23.4532 72.4893 31.0882 72.2127 36.2255 76.4743L37.5025 74.935C31.5778 70.0202 22.776 70.338 17.2247 75.8892L18.6389 77.3035ZM18.4389 77.5035L18.6389 77.3035L17.2247 75.8892L17.0247 76.0892L18.4389 77.5035ZM17.5741 95.0464C13.3495 89.9097 13.638 82.3041 18.4389 77.5035L17.0247 76.0892C11.4888 81.6249 11.1573 90.3928 16.0294 96.3168L17.5741 95.0464ZM13.3624 105.389C13.8172 101.695 15.654 98.9787 17.6124 96.2671L15.991 95.0961C14.029 97.8127 11.9005 100.895 11.3774 105.145L13.3624 105.389ZM1.15759 119.223C1.15759 112.588 6.09858 107.106 12.5012 106.258L12.2386 104.276C4.85479 105.254 -0.842407 111.572 -0.842407 119.223H1.15759ZM1.15759 119.506V119.223H-0.842407V119.506H1.15759ZM1.16552 119.965C1.16025 119.813 1.15759 119.66 1.15759 119.506H-0.842407C-0.842407 119.683 -0.839353 119.859 -0.833293 120.034L1.16552 119.965ZM0.166112 121H4.19428V119H0.166112V121ZM5.19266 119.943C5.18436 119.797 5.18015 119.652 5.18015 119.506H3.18015C3.18015 119.69 3.18546 119.874 3.19591 120.057L5.19266 119.943ZM5.18015 119.506V119.223H3.18015V119.506H5.18015ZM5.18015 119.223C5.18015 114.221 9.23481 110.167 14.2366 110.167V108.167C8.1303 108.167 3.18015 113.117 3.18015 119.223H5.18015ZM14.2366 110.167H15.7345V108.167H14.2366V110.167ZM16.7345 109.167V108.53H14.7345V109.167H16.7345ZM16.464 109.215C16.9682 108.677 17.2784 107.951 17.2784 107.155H15.2784C15.2784 107.423 15.1754 107.665 15.0051 107.846L16.464 109.215ZM17.2784 107.155C17.2784 103.701 18.7525 101.602 21.1176 98.2986L19.4915 97.1343C17.1609 100.389 15.2784 102.978 15.2784 107.155H17.2784ZM21.121 98.2939L21.1213 98.2934L19.4885 97.1385L19.4881 97.139L21.121 98.2939ZM21.118 98.2981C21.4851 97.7853 21.8731 97.2435 22.2737 96.6693L20.6333 95.525C20.2408 96.0877 19.8598 96.6198 19.4918 97.1338L21.118 98.2981ZM22.2737 96.6693C23.2251 95.3052 22.8906 93.4282 21.5266 92.4768L20.3824 94.1172C20.8405 94.4367 20.9528 95.067 20.6333 95.525L22.2737 96.6693ZM21.5266 92.4768C20.981 92.0962 20.3504 91.9208 19.7314 91.9361L19.7806 93.9355C19.9882 93.9303 20.1979 93.9884 20.3824 94.1172L21.5266 92.4768ZM20.5438 92.3198C17.7664 88.7674 18.0133 83.6176 21.2832 80.3477L19.8691 78.9335C15.8758 82.9267 15.5759 89.2129 18.9682 93.5517L20.5438 92.3198ZM21.2833 80.3477L21.4832 80.1478L20.069 78.7335L19.8691 78.9335L21.2833 80.3477ZM21.4832 80.1478C24.7533 76.8778 29.9033 76.6309 33.4559 79.4084L34.6878 77.8328C30.3488 74.4405 24.0624 74.7403 20.069 78.7335L21.4832 80.1478ZM33.0722 78.5963C33.0563 79.2495 33.2525 79.9144 33.6749 80.4768L35.2741 79.2756C35.1314 79.0857 35.0662 78.8646 35.0716 78.645L33.0722 78.5963ZM33.6749 80.4768C34.6738 81.8065 36.5614 82.0747 37.8911 81.076L36.69 79.4768C36.2434 79.8122 35.6095 79.7221 35.2741 79.2756L33.6749 80.4768ZM37.8911 81.076C41.0312 78.7175 41.9177 78.3151 44.1576 77.2831L43.3207 75.4666C40.9711 76.5491 39.959 77.0215 36.69 79.4768L37.8911 81.076ZM44.1576 77.2831C44.8804 76.9501 45.744 76.5523 46.8549 76.0112L45.9792 74.2131C44.8889 74.7441 44.042 75.1343 43.3207 75.4666L44.1576 77.2831ZM46.9558 75.9546C47.7488 75.4475 49.1436 74.8093 50.0303 74.4051L49.2008 72.5852C48.3639 72.9667 46.8179 73.6688 45.8783 74.2697L46.9558 75.9546ZM50.0303 74.4051C50.2339 74.3123 50.414 74.2303 50.5424 74.1694C50.6046 74.1399 50.6695 74.1084 50.7235 74.0797C50.7467 74.0673 50.7923 74.0426 50.8407 74.0106C50.8607 73.9974 50.9162 73.9603 50.9772 73.904C51.0064 73.8771 51.0674 73.8181 51.1275 73.7299C51.1735 73.6623 51.3137 73.4431 51.301 73.1251L49.3026 73.2045C49.296 73.0378 49.3321 72.9018 49.3671 72.81C49.402 72.7183 49.444 72.6487 49.4747 72.6036C49.5338 72.5169 49.5933 72.4596 49.6204 72.4346C49.6773 72.3821 49.7265 72.3496 49.7383 72.3418C49.7703 72.3207 49.7914 72.3101 49.7826 72.3148C49.7726 72.3201 49.7435 72.3348 49.6856 72.3622C49.5742 72.4151 49.4107 72.4896 49.2008 72.5852L50.0303 74.4051ZM51.3018 73.1648V73.101H49.3018V73.1648H51.3018ZM51.3018 73.101C51.3018 68.0995 55.3565 64.0449 60.3582 64.0449V62.0449C54.252 62.0449 49.3018 66.9948 49.3018 73.101H51.3018ZM60.3582 64.0449H60.6411V62.0449H60.3582V64.0449ZM60.6411 64.0449C65.6428 64.0449 69.6974 68.0995 69.6974 73.101H71.6974C71.6974 66.9948 66.7473 62.0449 60.6411 62.0449V64.0449ZM69.6974 73.101V74.5989H71.6974V73.101H69.6974ZM70.6974 75.5989H71.2248V73.5989H70.6974V75.5989ZM70.4859 75.2727C70.8627 75.6859 71.3593 75.9993 71.9377 76.1527L72.4506 74.2196C72.2544 74.1675 72.0895 74.063 71.9637 73.9251L70.4859 75.2727ZM71.9377 76.1527C75.8264 77.1845 79.8876 78.9978 83.2816 81.1958L84.3687 79.517C80.8019 77.2072 76.5474 75.3066 72.4506 74.2196L71.9377 76.1527ZM83.2816 81.1958C84.6775 82.0997 86.5419 81.701 87.446 80.3051L85.7673 79.2179C85.4637 79.6867 84.8375 79.8206 84.3687 79.517L83.2816 81.1958ZM87.446 80.3051C87.787 79.7785 87.9431 79.1824 87.929 78.5975L85.9296 78.6457C85.9343 78.8414 85.8827 79.0396 85.7673 79.2179L87.446 80.3051ZM87.5453 79.4093C91.098 76.6311 96.2486 76.8778 99.5189 80.148L100.933 78.7338C96.9394 74.7403 90.6523 74.4407 86.3133 77.8339L87.5453 79.4093ZM99.5189 80.148L99.7188 80.348L101.133 78.9338L100.933 78.7338L99.5189 80.148ZM99.7189 80.348C102.989 83.6178 103.236 88.7673 100.459 92.3198L102.034 93.5516C105.426 89.2128 105.126 82.9268 101.133 78.9337L99.7189 80.348ZM101.272 91.936C100.718 91.922 100.154 92.0604 99.6463 92.3654L100.676 94.0798C100.849 93.9763 101.036 93.9307 101.221 93.9354L101.272 91.936ZM99.6463 92.3654C98.2208 93.2219 97.7595 95.0719 98.616 96.4974L100.33 95.4673C100.043 94.9886 100.198 94.3674 100.676 94.0797L99.6463 92.3654ZM98.616 96.4974C99.9224 98.6717 101.222 101.267 102.191 103.479L104.023 102.677C103.026 100.402 101.689 97.7284 100.33 95.4673L98.616 96.4974ZM102.191 103.479C102.675 104.584 103.06 105.557 103.318 106.305L105.209 105.653C104.928 104.839 104.521 103.814 104.023 102.677L102.191 103.479ZM103.318 106.305C103.448 106.681 103.534 106.967 103.584 107.166L105.523 106.677C105.455 106.405 105.35 106.061 105.209 105.653L103.318 106.305ZM103.584 107.166C103.6 107.228 103.609 107.272 103.615 107.3C103.62 107.327 103.623 107.341 103.624 107.35L105.597 107.018C105.589 106.97 105.57 106.861 105.523 106.677L103.584 107.166ZM103.619 107.316L103.619 107.317L105.602 107.052L105.602 107.052L103.619 107.316ZM103.628 107.37L103.63 107.381L105.595 107.01L105.593 106.999L103.628 107.37ZM103.613 107.215C103.63 108.071 104.004 108.84 104.59 109.376L105.941 107.901C105.742 107.719 105.618 107.462 105.612 107.176L103.613 107.215ZM104.266 108.639V109.166H106.266V108.639H104.266ZM105.266 110.166H106.593V108.166H105.266V110.166ZM106.586 110.166L106.616 110.166L106.631 108.166L106.601 108.166L106.586 110.166ZM106.631 110.166L106.661 110.166L106.646 108.166L106.616 108.166L106.631 110.166ZM106.654 110.166H106.764V108.166H106.654V110.166ZM106.764 110.166C111.765 110.166 115.82 114.221 115.82 119.222H117.82C117.82 113.116 112.87 108.166 106.764 108.166V110.166ZM115.82 119.222V119.505H117.82V119.222H115.82ZM115.82 119.505C115.82 119.655 115.816 119.804 115.809 119.952L117.807 120.048C117.816 119.868 117.82 119.687 117.82 119.505H115.82ZM116.808 121H120.834V119H116.808V121ZM119.843 119.505C119.843 119.659 119.84 119.813 119.835 119.965L121.833 120.035C121.839 119.859 121.843 119.682 121.843 119.505H119.843ZM119.843 119.222V119.505H121.843V119.222H119.843ZM108.145 106.216C114.718 106.905 119.843 112.466 119.843 119.222H121.843C121.843 111.431 115.934 105.022 108.353 104.227L108.145 106.216ZM107.121 104.994C107.184 105.176 107.242 105.352 107.295 105.521L109.203 104.922C109.144 104.733 109.08 104.539 109.012 104.342L107.121 104.994ZM105.875 101.865C106.388 103.034 106.817 104.112 107.121 104.994L109.012 104.342C108.685 103.394 108.234 102.264 107.707 101.063L105.875 101.865ZM103.166 96.35C104.177 98.1977 105.122 100.145 105.875 101.865L107.707 101.063C106.932 99.2927 105.961 97.2921 104.92 95.3899L103.166 96.35ZM102.563 77.5037C107.419 82.3592 107.659 90.0838 103.282 95.2215L104.804 96.5185C109.852 90.5934 109.576 81.6882 103.977 76.0895L102.563 77.5037ZM102.363 77.3037L102.563 77.5037L103.977 76.0894L103.777 75.8895L102.363 77.3037ZM84.6908 76.5463C89.8287 72.21 97.522 72.4627 102.363 77.3037L103.777 75.8895C98.1951 70.3074 89.3261 70.017 83.4008 75.0179L84.6908 76.5463ZM74.36 72.6615C77.5038 73.6201 80.6752 75.0018 83.5483 76.6496L84.5433 74.9146C81.5437 73.1943 78.2345 71.7519 74.9433 70.7484L74.36 72.6615ZM60.6411 60.0225C67.4262 60.0225 73.0055 65.1898 73.6565 71.8029L75.6469 71.607C74.8961 63.9802 68.465 58.0225 60.6411 58.0225V60.0225ZM60.3582 60.0225H60.6411V58.0225H60.3582V60.0225Z" fill="#4048F5" mask="url(#path-2-inside-1_153_2854)"/>
<path fill-rule="evenodd" clip-rule="evenodd" d="M22.8271 38.0125C21.8564 38.0125 21.0695 38.7994 21.0695 39.7701V49.0573C21.0695 50.028 21.8564 50.8149 22.8271 50.8149H94.3623C95.333 50.8149 96.1199 50.028 96.1199 49.0573V39.7701C96.1199 38.7994 95.333 38.0125 94.3623 38.0125H49.0669V36.8408H94.3623C95.9801 36.8408 97.2916 38.1523 97.2916 39.7701V49.0573C97.2916 50.6751 95.9801 51.9866 94.3623 51.9866H22.8271C21.2093 51.9866 19.8978 50.6751 19.8978 49.0573V39.7701C19.8978 38.1523 21.2093 36.8408 22.8271 36.8408H39.5392V38.0125H22.8271Z" fill="#4048F5"/>
<path fill-rule="evenodd" clip-rule="evenodd" d="M66.9151 4.42419C66.9845 4.10816 67.2969 3.90823 67.6129 3.97762C77.3128 6.10756 83.3463 12.198 86.8461 18.8844C90.3363 25.5527 91.3239 32.8407 90.9377 37.475C90.9109 37.7975 90.6277 38.0371 90.3053 38.0102C89.9828 37.9833 89.7432 37.7002 89.7701 37.3777C90.1386 32.9556 89.1908 25.8909 85.808 19.4278C82.4346 12.9829 76.6575 7.16326 67.3616 5.12206C67.0456 5.05266 66.8457 4.74022 66.9151 4.42419ZM50.2724 4.72811C50.3466 5.04302 50.1516 5.35853 49.8367 5.43281C40.4235 7.65337 34.7237 13.025 31.3404 19.1432C27.9464 25.2809 26.8766 32.1874 26.7861 37.4365C26.7805 37.76 26.5138 38.0177 26.1903 38.0122C25.8667 38.0066 25.609 37.7398 25.6146 37.4163C25.7071 32.0483 26.7987 24.9351 30.315 18.5762C33.8421 12.198 39.8016 6.59621 49.5676 4.29242C49.8826 4.21813 50.1981 4.41319 50.2724 4.72811Z" fill="#4048F5"/>
<path fill-rule="evenodd" clip-rule="evenodd" d="M49.1163 2.92925C49.1163 1.31147 50.4278 0 52.0456 0H65.1439C66.7617 0 68.0732 1.31147 68.0732 2.92925V29.8043H66.9015V2.92925C66.9015 1.95858 66.1146 1.1717 65.1439 1.1717H52.0456C51.0749 1.1717 50.288 1.95858 50.288 2.92925V29.8043H49.1163V2.92925Z" fill="#4048F5"/>
</svg>
